<?xml version="1.0" standalone="no"?>
<!DOCTYPE svg PUBLIC "-//W3C//DTD SVG 1.1//EN" "http://www.w3.org/Graphics/SVG/1.1/DTD/svg11.dtd" >
<svg xmlns="http://www.w3.org/2000/svg" xmlns:xlink="http://www.w3.org/1999/xlink" version="1.1">
<metadata>
Created by FontForge 20150318 at Mon Sep 28 19:41:37 2015
 By uniteet7
 The digitally encoded machine readable outline data for producing the  Typefaces provided as part of your laser printer is copyrighted (c) 1981  Linotype Company. All rights reserved. This data is the property of Linotype  Company, and may not be reproduced, used, displayed, modified, disclosed or  transferred without the express written approval of Linotype Company. 
</metadata>
<defs>
<font id="UniveBla" horiz-adv-x="667" >
  <font-face 
    font-family="UniveBla"
    font-weight="900"
    font-stretch="normal"
    units-per-em="1000"
    panose-1="0 0 0 0 0 0 0 0 0 0"
    ascent="750"
    descent="-250"
    x-height="502"
    cap-height="722"
    bbox="-153 -215 1000 977"
    underline-thickness="56"
    underline-position="-40"
    unicode-range="U+000D-FB02"
  />
<missing-glyph horiz-adv-x="333" 
 />
    <glyph glyph-name=".notdef" horiz-adv-x="333" 
 />
    <glyph glyph-name=".null" horiz-adv-x="0" 
 />
    <glyph glyph-name=".null" horiz-adv-x="0" 
 />
    <glyph glyph-name="nonmarkingreturn" unicode="&#xd;" horiz-adv-x="250" 
 />
    <glyph glyph-name="space" unicode=" " horiz-adv-x="333" 
 />
    <glyph glyph-name="exclam" unicode="!" horiz-adv-x="444" 
d="M131 0v150h180v-150h-180zM114 722h217l-36 -507h-144z" />
    <glyph glyph-name="quotedbl" unicode="&#x22;" horiz-adv-x="500" 
d="M282 451v271h119v-271h-119zM99 451v271h119v-271h-119z" />
    <glyph glyph-name="numbersign" unicode="#" 
d="M550 218h-100l-32 -218h-87l30 218h-83l-31 -218h-87l31 218h-99v90h112l13 88h-97v90h109l29 206h86l-29 -206h85l28 206h89l-30 -206h88v-90h-101l-11 -88h87v-90zM303 396l-12 -88h83l13 88h-84z" />
    <glyph glyph-name="dollar" unicode="$" 
d="M369 115q27 4 49 22t26 49q4 35 -16.5 49t-58.5 25v-145zM289 572q-23 -8 -38 -25t-15 -41q0 -20 14 -33.5t39 -23.5v123zM224 218q1 -40 17.5 -68.5t47.5 -34.5v167q-43 11 -87.5 23t-80 33.5t-58 55.5t-22.5 88q0 58 20 99t54.5 67.5t79.5 40.5t94 18v95h80v-95
q51 -3 96 -15.5t79 -38t53 -66.5t18 -100h-195q2 42 -24 68q-5 7 -12 11t-15 6v-148q2 -1 5.5 -1.5t6.5 -1.5q48 -11 94 -24.5t82.5 -37t59 -61t22.5 -97.5q0 -56 -23 -96t-60.5 -65.5t-86 -38.5t-100.5 -16v-95h-80v95q-53 4 -100 17t-82 39.5t-55.5 69.5t-22.5 107h195z
" />
    <glyph glyph-name="percent" unicode="%" horiz-adv-x="1000" 
d="M618 707h104l-349 -707h-107zM765 -15q-48 0 -81 14.5t-53.5 41.5t-29.5 65t-9 84q0 47 9 84.5t29.5 64.5t53.5 41.5t81 14.5t81 -14.5t53.5 -41.5t29.5 -64.5t9 -84.5q0 -46 -9 -84t-29.5 -65t-53.5 -41.5t-81 -14.5zM765 75q21 0 30 17t12 37q1 36 1 47v14v13.5
t-1 46.5q-3 21 -12 38t-30 17q-20 0 -29.5 -17t-12.5 -38q-1 -36 -1 -46.5v-13.5v-14t1 -47q3 -20 12.5 -37t29.5 -17zM235 297q-48 0 -81 14.5t-53.5 41.5t-29.5 65t-9 84q0 47 9 84.5t29.5 64.5t53.5 41.5t81 14.5t81 -14.5t53.5 -41.5t29.5 -64.5t9 -84.5q0 -46 -9 -84
t-29.5 -65t-53.5 -41.5t-81 -14.5zM235 387q21 0 30 17t12 37q1 36 1 47v14v13.5t-1 46.5q-3 21 -12 38t-30 17q-20 0 -29.5 -17t-12.5 -38q-1 -36 -1 -46.5v-13.5v-14t1 -47q3 -20 12.5 -37t29.5 -17z" />
    <glyph glyph-name="ampersand" unicode="&#x26;" horiz-adv-x="889" 
d="M381 475q11 7 25 17t26 22t20.5 25t8.5 26q0 35 -24 48.5t-56 13.5q-11 0 -23 -3t-21.5 -10.5t-16 -19t-6.5 -29.5q0 -10 8 -23t19 -25.5t22.5 -23.5t17.5 -18zM593 47q-57 -35 -122.5 -48.5t-131.5 -13.5q-51 0 -103 11t-94.5 35.5t-69.5 65.5t-27 101q0 39 14 69.5
t37.5 54t54 41t63.5 29.5q-19 16 -37.5 35.5t-32 41.5t-22 47t-8.5 51q0 50 26.5 82.5t66.5 52t87 27.5t87 8q48 0 97.5 -7.5t90 -27.5t66.5 -54t26 -88q0 -32 -14.5 -59.5t-36 -51.5t-48 -43.5t-50.5 -36.5l103 -102q20 29 36 61.5t16 69.5h173q-3 -27 -11.5 -62
t-22.5 -69.5t-33 -64.5t-42 -47l147 -155h-243zM344 285q-18 -9 -34 -17.5t-28.5 -19.5t-19.5 -25.5t-7 -37.5q0 -17 11.5 -30t28 -22t36 -13.5t35.5 -4.5q27 0 59.5 9t52.5 29z" />
    <glyph glyph-name="quotesingle" unicode="'" horiz-adv-x="333" 
d="M107 451v271h119v-271h-119z" />
    <glyph glyph-name="parenleft" unicode="(" horiz-adv-x="333" 
d="M283 722q-15 -50 -30 -100.5t-27 -101.5t-19 -103t-7 -104t7.5 -104t19.5 -103t27 -101.5t30 -100.5h-124q-19 50 -39 99.5t-35.5 100.5t-25.5 103t-10 106t10 106t25.5 103t35.5 100.5t39 99.5h123z" />
    <glyph glyph-name="parenright" unicode=")" horiz-adv-x="333" 
d="M50 -96q15 50 30 100.5t27 101.5t19 103t7 104t-7.5 104t-19.5 103t-27 101.5t-30 100.5h124q20 -50 39.5 -99.5t35 -100.5t25.5 -103t10 -106t-10 -106t-25.5 -103t-35 -100.5t-39.5 -99.5h-123z" />
    <glyph glyph-name="asterisk" unicode="*" horiz-adv-x="556" 
d="M278 569h2l41 138l109 -68l-93 -100l2 -2l135 30v-129l-132 31l-2 -2l95 -108l-114 -61l-42 135h-2l-43 -136l-107 63l93 107l-2 2l-135 -29v127l137 -30l2 2l-94 103l107 64z" />
    <glyph glyph-name="plus" unicode="+" horiz-adv-x="660" 
d="M270 502h120v-191h192v-120h-192v-191h-120v191h-192v120h192v191z" />
    <glyph glyph-name="comma" unicode="," horiz-adv-x="333" 
d="M106 150h188l-118 -267h-136z" />
    <glyph glyph-name="hyphen" unicode="-" horiz-adv-x="333" 
d="M25 327h284v-120h-284v120z" />
    <glyph glyph-name="period" unicode="." horiz-adv-x="333" 
d="M77 0v150h180v-150h-180z" />
    <glyph glyph-name="slash" unicode="/" horiz-adv-x="278" 
d="M88 -96h-138l241 818h138z" />
    <glyph glyph-name="zero" unicode="0" 
d="M334 577q-41 0 -62.5 -26t-31 -62.5t-10.5 -76t-1 -66.5t1 -66.5t10.5 -76t31 -62.5t62.5 -26t62.5 26t31 62.5t10.5 76t1 66.5t-1 66.5t-10.5 76t-31 62.5t-62.5 26zM634 346q0 -72 -17 -137.5t-53 -115t-93 -79t-137 -29.5t-137 29.5t-93 79t-53 115t-17 137.5
t17 137.5t53 115t93 79t137 29.5t137 -29.5t93 -79t53 -115t17 -137.5z" />
    <glyph glyph-name="one" unicode="1" 
d="M487 692v-692h-190v513q-40 -26 -82 -48.5t-87 -37.5v154q55 17 105.5 45t94.5 66h159z" />
    <glyph glyph-name="two" unicode="2" 
d="M602 130v-130h-567v130q22 22 57.5 50t77 60t83.5 66.5t75.5 69t55 68.5t21.5 64q0 37 -23 53t-63 16q-34 0 -54 -23.5t-21 -52.5h-195q2 59 27 98.5t64.5 63.5t90.5 34t106 10q47 0 94 -9.5t84.5 -31.5t61 -58t23.5 -89q0 -40 -24 -84t-60.5 -86.5t-79 -81.5t-79 -69
t-61 -48l-24.5 -18v-2h330z" />
    <glyph glyph-name="three" unicode="3" 
d="M227 422h62.5t60 7.5t45.5 28t18 60.5q0 15 -8.5 26t-22 18.5t-30 11t-31.5 3.5q-36 0 -60 -19t-24 -50h-195q1 54 27 92t66.5 62t90.5 34.5t99 10.5q43 0 92.5 -7.5t92 -27t70.5 -54t28 -88.5q0 -33 -13.5 -61t-36 -49.5t-51.5 -35t-60 -18.5v-3q38 -5 70 -18.5
t55.5 -35.5t36.5 -53t13 -71q0 -57 -29 -95.5t-72.5 -62t-95.5 -33t-99 -9.5q-59 0 -111 9.5t-92 34t-66 66t-33 105.5h195q0 -22 8 -37.5t22 -26.5t31.5 -16t37.5 -5t39 5t35 15.5t25.5 26.5t9.5 39q0 40 -21 59.5t-51.5 26.5t-65.5 6t-62 -1v130z" />
    <glyph glyph-name="four" unicode="4" 
d="M17 263l293 429h229v-429h105v-130h-105v-133h-193v133h-329v130zM349 263v257h-2l-161 -257h163z" />
    <glyph glyph-name="five" unicode="5" 
d="M240 198q1 -40 25.5 -61.5t62.5 -21.5q26 0 43.5 11t28.5 28t16 39t5 44q0 48 -22 78t-73 30q-26 0 -48 -17t-26 -44h-192l14 408h500v-130h-326l-12 -173l2 -2q30 46 70 67t95 21q51 0 90.5 -18t66.5 -49.5t41.5 -74t14.5 -90.5q0 -60 -19 -108t-54 -81.5t-84 -51
t-108 -17.5q-55 0 -108 8.5t-95.5 32t-69.5 65t-29 107.5h191z" />
    <glyph glyph-name="six" unicode="6" 
d="M342 347q-49 0 -78 -29.5t-29 -86.5t29 -86.5t78 -29.5t78.5 29.5t29.5 86.5t-29.5 86.5t-78.5 29.5zM412 522q-1 25 -26 40q-22 15 -55 15q-40 0 -60.5 -20t-29.5 -49t-10.5 -63t-2.5 -62l2 -2q25 47 69.5 66.5t101.5 19.5q51 0 94 -16t74 -45.5t48.5 -72t17.5 -95.5
q0 -63 -24 -110.5t-65 -79t-94 -47.5t-112 -16q-79 0 -137 28t-95.5 76t-56 112.5t-18.5 137.5q0 74 16.5 141t53.5 117.5t96.5 80t145.5 29.5q47 0 91.5 -9.5t79 -31.5t56 -57.5t23.5 -86.5h-183z" />
    <glyph glyph-name="seven" unicode="7" 
d="M54 552v140h551v-140l-261 -552h-183l267 552h-374z" />
    <glyph glyph-name="eight" unicode="8" 
d="M334 115q45 0 76 22.5t31 72.5t-31 72.5t-76 22.5t-76 -22.5t-31 -72.5t31 -72.5t76 -22.5zM334 597q-42 0 -67.5 -22.5t-25.5 -63.5t25.5 -63.5t67.5 -22.5t67.5 22.5t25.5 63.5t-25.5 63.5t-67.5 22.5zM220 368q-32 5 -61.5 18t-52.5 33.5t-36.5 48.5t-13.5 62
q0 53 27.5 87.5t68.5 54.5t90 27.5t92 7.5q47 0 96 -7.5t89.5 -27.5t66.5 -54t26 -88q0 -32 -13.5 -60t-36 -49.5t-50 -35.5t-56.5 -18v-5q37 -4 69.5 -17t57 -35t39 -53t14.5 -72q0 -61 -31.5 -100t-79.5 -61.5t-104 -30.5t-106 -8q-45 0 -95 11t-92 35t-69 62t-27 92
q0 41 15.5 72.5t41 53.5t60 35.5t71.5 18.5v3z" />
    <glyph glyph-name="nine" unicode="9" 
d="M433 473q0 51 -29.5 77.5t-78.5 26.5q-51 0 -79.5 -28t-28.5 -76q0 -54 30.5 -79t77.5 -25q27 0 47.5 9.5t34 24.5t20 33.5t6.5 36.5zM227 178q1 -17 9 -29t21 -20t28.5 -11t31.5 -3q46 0 70.5 19.5t35.5 49.5t13.5 66t3.5 69l-2 2q-29 -37 -73.5 -54.5t-92.5 -17.5
t-91.5 15t-76.5 43.5t-52.5 69t-19.5 91.5q0 63 25 108t66 74t94.5 43t110.5 14q94 0 154.5 -33t95.5 -88t47.5 -127t9.5 -151q-1 -36 -10.5 -72t-23 -68t-29.5 -57.5t-31 -40.5q-27 -26 -51.5 -42.5t-51 -26t-57.5 -13t-71 -3.5q-46 0 -93 9.5t-85.5 32t-63 59.5t-25.5 92
h184z" />
    <glyph glyph-name="colon" unicode=":" horiz-adv-x="333" 
d="M77 0v150h180v-150h-180zM77 352v150h180v-150h-180z" />
    <glyph glyph-name="semicolon" unicode=";" horiz-adv-x="333" 
d="M106 150h188l-118 -267h-136zM90 352v150h180v-150h-180z" />
    <glyph glyph-name="less" unicode="&#x3c;" horiz-adv-x="660" 
d="M582 -24l-504 225v100l504 225v-128l-353 -148l353 -146v-128z" />
    <glyph glyph-name="equal" unicode="=" horiz-adv-x="660" 
d="M582 289h-504v120h504v-120zM582 93h-504v120h504v-120z" />
    <glyph glyph-name="greater" unicode="&#x3e;" horiz-adv-x="660" 
d="M78 526l504 -225v-100l-504 -225v128l353 148l-353 146v128z" />
    <glyph glyph-name="question" unicode="?" horiz-adv-x="556" 
d="M154 190q2 37 -0.5 59.5t0.5 40.5t14.5 37t40.5 47l26.5 26.5t32.5 37t28 42t12 41.5q0 26 -12.5 42.5t-32 26.5t-42 13.5t-43.5 3.5q-27 0 -54 -3.5t-53 -11.5v130q78 15 160 15q44 0 94 -7.5t93 -28.5t71.5 -58.5t28.5 -98.5q0 -35 -12 -61.5t-31.5 -48.5t-44 -40.5
t-50.5 -38.5q-19 -14 -32 -25t-20.5 -23t-10.5 -28t-3 -40v-49h-160zM144 0v150h180v-150h-180z" />
    <glyph glyph-name="at" unicode="@" horiz-adv-x="740" 
d="M280 338q0 -35 19.5 -59t56.5 -24q47 0 74.5 31.5t27.5 74.5q0 37 -21.5 59t-58.5 22q-21 0 -39 -9t-31 -23.5t-20.5 -33t-7.5 -38.5zM497 542h95l-44 -240q-1 -7 -3.5 -16.5t-2.5 -18.5t2.5 -15t10.5 -6q16 0 33 8.5t30.5 27.5t22 48t8.5 69q0 61 -20 107t-55 77.5
t-84 47.5t-106 16q-63 0 -113.5 -21.5t-86.5 -59.5t-55 -91t-19 -115q0 -66 21.5 -119t60 -90t92 -56.5t117.5 -19.5q57 0 105.5 17t85.5 46h99q-54 -75 -129 -114t-169 -39q-81 0 -152.5 28t-125 77.5t-84.5 118.5t-31 151q0 81 30.5 150t83 119.5t123 79t150.5 28.5
q66 0 126 -19.5t114 -62.5q51 -43 81.5 -98.5t30.5 -124.5q0 -60 -17.5 -112t-59.5 -94q-16 -15 -38 -30t-46 -27t-48.5 -20t-45.5 -8q-25 0 -42.5 12t-15.5 37l-2 2q-18 -21 -44 -34t-52 -13q-33 0 -63.5 14t-53.5 38t-37 56t-14 69q0 44 14.5 85.5t41 73.5t64.5 51.5
t84 19.5q38 0 69 -14t54 -45z" />
    <glyph glyph-name="A" unicode="A" horiz-adv-x="833" 
d="M10 0l285 722h244l285 -722h-226l-48 141h-293l-47 -141h-200zM501 281l-92 300h-3l-98 -300h193z" />
    <glyph glyph-name="B" unicode="B" horiz-adv-x="722" 
d="M69 0v722h346q51 0 96.5 -12t79.5 -35.5t54 -58.5t20 -83q0 -33 -13 -60t-34.5 -47t-50 -32.5t-58.5 -18.5v-2q36 -5 67.5 -18.5t55.5 -36t37.5 -53t13.5 -69.5q0 -52 -20 -87t-50 -57t-65 -33t-65.5 -15t-51.5 -4h-23h-339zM386 140q38 0 62.5 20.5t24.5 54.5
q0 30 -19.5 54.5t-53.5 26.5h-131v-156h117zM269 435l102 1q41 0 65 17t24 59q0 31 -23.5 50.5t-58.5 19.5h-109v-147z" />
    <glyph glyph-name="C" unicode="C" horiz-adv-x="778" 
d="M526 495q-4 49 -39 75.5t-97 26.5q-43 0 -69.5 -23t-41.5 -58t-20 -78t-5 -84q0 -39 5.5 -80t20.5 -74t41.5 -54t68.5 -21q63 0 98 27t38 79h210q1 -68 -28 -115t-78 -76t-111.5 -42t-128.5 -13q-170 0 -258 97t-88 280t88 278t258 97q66 0 128.5 -12t111.5 -40.5t78 -75
t28 -114.5h-210z" />
    <glyph glyph-name="D" unicode="D" horiz-adv-x="833" 
d="M372 722q93 0 169 -19t129.5 -61.5t83 -111.5t29.5 -169t-29.5 -169t-83 -111.5t-129.5 -61.5t-169 -19h-305v722h305zM267 140h94q41 0 79 13.5t67.5 41t47.5 69t18 97.5t-18 97.5t-47.5 69t-67.5 41t-79 13.5h-94v-442z" />
    <glyph glyph-name="E" unicode="E" 
d="M69 0v722h550v-140h-350v-149h322v-140h-322v-153h350v-140h-550z" />
    <glyph glyph-name="F" unicode="F" horiz-adv-x="611" 
d="M271 0h-200v722h511v-140h-311v-168h289v-140h-289v-274z" />
    <glyph glyph-name="G" unicode="G" horiz-adv-x="833" 
d="M568 270h-147v140h347v-386q-61 -9 -101.5 -16t-77.5 -12.5t-80 -8t-108 -2.5q-84 3 -151.5 30t-114 76t-71.5 117t-25 153t25 153t71.5 117t114 76t151.5 30q66 2 130 -4.5t115.5 -30.5t83.5 -70.5t33 -125.5h-200q-7 53 -44 72t-87 19q-51 0 -85.5 -20.5t-56.5 -53.5
t-31.5 -75.5t-9.5 -86.5q0 -53 13.5 -96.5t40 -74.5t67 -48t94.5 -17q28 0 54.5 3.5t49.5 8.5v133z" />
    <glyph glyph-name="H" unicode="H" horiz-adv-x="778" 
d="M66 0v722h201v-286h245v286h200v-722h-200v296h-246v-296h-200z" />
    <glyph glyph-name="I" unicode="I" horiz-adv-x="333" 
d="M67 0v722h200v-722h-200z" />
    <glyph glyph-name="J" unicode="J" horiz-adv-x="611" 
d="M344 722h200v-506q0 -64 -24 -108t-63 -71.5t-88 -39.5t-99 -12q-61 0 -111.5 13.5t-85.5 43t-53.5 76.5t-15.5 113h199q-1 -16 1.5 -35t10 -34.5t20.5 -26t34 -10.5q29 0 44.5 15t22 34.5t7.5 37t1 21.5v489z" />
    <glyph glyph-name="K" unicode="K" horiz-adv-x="778" 
d="M510 722h237l-249 -318l269 -404h-248l-238 384h-2v-384h-200v722h200v-317h2z" />
    <glyph glyph-name="L" unicode="L" horiz-adv-x="611" 
d="M67 0v722h200v-582h327v-140h-527z" />
    <glyph glyph-name="M" unicode="M" horiz-adv-x="1000" 
d="M64 0v722h317l118 -489h2l114 489h311v-722h-175v604l-2 2l-169 -606h-180l-159 611l-2 -2v-609h-175z" />
    <glyph glyph-name="N" unicode="N" horiz-adv-x="833" 
d="M65 722h280l242 -538l2 2v536h180v-722h-277l-245 553h-2v-553h-180v722z" />
    <glyph glyph-name="O" unicode="O" horiz-adv-x="833" 
d="M581 358q0 42 -6.5 85t-24.5 77t-50 55.5t-83 21.5t-83 -21.5t-50 -55.5t-24.5 -77t-6.5 -85q0 -40 6.5 -81.5t24.5 -75t50 -55t83 -21.5t83 21.5t50 55t24.5 75t6.5 81.5zM417 -15q-90 0 -159.5 25.5t-117 73.5t-72.5 118t-25 159t25 159t72.5 118t117 73.5t159.5 25.5
t159.5 -25.5t117 -73.5t72.5 -118t25 -159t-25 -159t-72.5 -118t-117 -73.5t-159.5 -25.5z" />
    <glyph glyph-name="P" unicode="P" horiz-adv-x="722" 
d="M73 0v722h332q66 0 120.5 -11.5t92.5 -38.5t59 -71.5t21 -110.5t-21 -110.5t-59 -71.5t-92.5 -38.5t-120.5 -11.5h-132v-258h-200zM376 398q60 2 86 27t26 65t-26 65t-86 27h-103v-184h103z" />
    <glyph glyph-name="Q" unicode="Q" horiz-adv-x="833" 
d="M580 358q0 42 -6.5 85t-24.5 77t-50 55.5t-83 21.5t-83 -21.5t-50 -55.5t-24.5 -77t-6.5 -85q0 -40 6.5 -81.5t24.5 -75t50 -55t83 -21.5t83 21.5t50 55t24.5 75t6.5 81.5zM818 0h-250q-17 0 -33.5 -2.5t-35.5 -4.5q-18 -3 -38.5 -5.5t-44.5 -2.5q-90 0 -159.5 25.5
t-117 73.5t-72.5 118t-25 159t25 159t72.5 118t117 73.5t159.5 25.5t159.5 -25.5t117 -73.5t72.5 -118t25 -159q0 -33 -10 -67.5t-28.5 -67.5t-45.5 -61.5t-61 -49.5l2 -2q29 9 59.5 12.5t62.5 3.5h24.5t24.5 1v-130z" />
    <glyph glyph-name="R" unicode="R" horiz-adv-x="722" 
d="M343 416q24 0 46.5 2.5t40.5 11t28.5 25t10.5 44.5t-10.5 44.5t-28.5 25t-40.5 11t-46.5 2.5h-78v-166h78zM265 0h-200v722h334q46 0 95.5 -7.5t90.5 -28t67.5 -57t26.5 -93.5q0 -40 -14.5 -71.5t-39.5 -53t-58.5 -34.5t-71.5 -18v-4q48 -1 78 -13.5t47.5 -35.5t26 -56
t13.5 -75q7 -87 33 -175h-217q-8 38 -13 76.5t-9 76.5q-3 33 -7 56t-15 38t-32.5 22t-59.5 7h-75v-276z" />
    <glyph glyph-name="S" unicode="S" horiz-adv-x="722" 
d="M454 510q1 41 -26 64q-26 23 -77 23q-35 0 -60.5 -19.5t-25.5 -46.5q0 -20 11 -33.5t28 -23t37.5 -16t40.5 -11.5q45 -12 97.5 -23t96.5 -34.5t73.5 -65.5t29.5 -115q0 -57 -26 -99t-70 -70t-101 -41.5t-120 -13.5t-120.5 10.5t-101 38.5t-70 75.5t-27.5 120.5h200
q-1 -51 33 -78t88 -27q17 0 35.5 4.5t34 13.5t25.5 22.5t10 31.5q0 37 -25.5 54.5t-68 29.5t-97.5 24t-114 38q-55 24 -82 70.5t-27 105.5q3 64 30.5 106t70.5 67t97 35t111 10q56 0 110 -11t95.5 -37t65.5 -70t19 -109h-200z" />
    <glyph glyph-name="T" unicode="T" 
d="M231 582h-221v140h647v-140h-226v-582h-200v582z" />
    <glyph glyph-name="U" unicode="U" horiz-adv-x="833" 
d="M762 722v-457q-1 -75 -29.5 -128.5t-75.5 -87t-109.5 -49t-130.5 -15.5t-130.5 15.5t-109.5 49t-75.5 87t-29.5 128.5v457h200v-447q2 -69 38 -109.5t107 -40.5t107 40.5t38 109.5v447h200z" />
    <glyph glyph-name="V" unicode="V" horiz-adv-x="778" 
d="M569 722h199l-263 -722h-239l-255 722h221l163 -523h2z" />
    <glyph glyph-name="W" unicode="W" horiz-adv-x="1000" 
d="M131 0l-123 722h199l66 -526h2l117 526h245l106 -522h2l66 522h181l-124 -722h-240l-124 535h-2l-132 -535h-239z" />
    <glyph glyph-name="X" unicode="X" horiz-adv-x="833" 
d="M407 257l-160 -257h-234l274 376l-254 346h258l141 -224l146 224h230l-257 -342l270 -380h-256z" />
    <glyph glyph-name="Y" unicode="Y" horiz-adv-x="778" 
d="M286 264l-276 458h232l158 -303l163 303h206l-283 -458v-264h-200v264z" />
    <glyph glyph-name="Z" unicode="Z" 
d="M26 0v140l380 442h-360v140h545v-180l-349 -402h400v-140h-616z" />
    <glyph glyph-name="bracketleft" unicode="[" horiz-adv-x="333" 
d="M47 -96v818h259v-105h-109v-608h109v-105h-259z" />
    <glyph glyph-name="backslash" unicode="\" horiz-adv-x="278" 
d="M40 722l345 -722h-147l-345 722h147z" />
    <glyph glyph-name="bracketright" unicode="]" horiz-adv-x="333" 
d="M286 722v-818h-259v105h109v608h-109v105h259z" />
    <glyph glyph-name="asciicircum" unicode="^" horiz-adv-x="660" 
d="M78 315l192 377h120l192 -377l-104 -47l-148 279l-148 -279z" />
    <glyph glyph-name="underscore" unicode="_" horiz-adv-x="500" 
d="M0 -124v56h500v-56h-500z" />
    <glyph glyph-name="grave" unicode="`" horiz-adv-x="333" 
d="M-65 720v2h208l104 -145h-118z" />
    <glyph glyph-name="a" unicode="a" horiz-adv-x="611" 
d="M216 161q0 -27 19 -46.5t46 -19.5q31 0 48.5 13t26.5 34t11.5 46.5t2.5 50.5q-30 0 -57 -0.5t-47 -10.5q-21 -11 -35.5 -26t-14.5 -41zM377 0q-3 12 -3.5 26.5t-0.5 41.5h-2q-9 -13 -21.5 -28t-31.5 -27t-45.5 -20t-61.5 -8q-90 0 -135.5 44.5t-43.5 122.5
q1 46 21.5 78.5t57 53.5t87.5 30.5t112 9.5h60q0 17 0.5 35.5t-5 34.5t-19 26t-42.5 9q-17 -1 -29 -9t-19 -19t-9.5 -24.5t-2.5 -24.5h-179q-1 54 24 86t63 49q39 18 85 24t88 6q38 0 78 -8.5t72.5 -27t53 -48.5t19.5 -72v-258q0 -16 3 -37t8 -66h-182z" />
    <glyph glyph-name="b" unicode="b" 
d="M340 407q-32 0 -50.5 -16t-28 -40.5t-12 -53t-2.5 -53.5q0 -21 3.5 -47t13.5 -48.5t26.5 -38t42.5 -15.5q31 0 50 15.5t29.5 39t14 51.5t3.5 52q0 23 -2.5 50t-12 50t-27.5 38.5t-48 15.5zM57 722h190v-273h2q26 34 68 51t85 17q58 0 100 -20.5t69.5 -55.5t40.5 -82
t13 -100q0 -57 -13 -107t-41.5 -87t-73 -58.5t-106.5 -21.5q-22 0 -44.5 6.5t-42 18.5t-34 28.5t-19.5 35.5h-4l-5 -74h-185v722z" />
    <glyph glyph-name="c" unicode="c" horiz-adv-x="611" 
d="M384 326q0 40 -15 59q-17 22 -59 22q-26 0 -40.5 -17t-22 -41.5t-9 -51t-1.5 -46.5q0 -19 1.5 -46t9 -51.5t22 -41.5t40.5 -17q25 2 39.5 11.5t22 24t10 31.5t2.5 34h190q0 -54 -21.5 -93t-56.5 -65q-36 -26 -82 -38.5t-96 -14.5q-143 0 -209.5 67.5t-66.5 198.5
q0 68 22 118t59.5 83t87.5 49t107 16q48 1 92.5 -9t80 -32.5t58 -59t25.5 -90.5h-190z" />
    <glyph glyph-name="d" unicode="d" 
d="M422 74h-4q-20 -46 -66.5 -67.5t-100.5 -21.5t-93.5 23.5t-65.5 61.5t-38.5 85t-12.5 94q0 50 13 98t39.5 86t67 61t96.5 23q48 0 91.5 -17.5t71.5 -56.5h2v279h190v-722h-185zM329 407q-31 0 -49.5 -15t-28 -38t-12.5 -50.5t-3 -52.5t3.5 -52.5t13.5 -50.5t28.5 -38
t47.5 -15t47.5 15t28.5 38t13.5 50.5t3.5 52.5t-3 52.5t-12.5 50.5t-28 38t-49.5 15z" />
    <glyph glyph-name="e" unicode="e" horiz-adv-x="611" 
d="M213 213q0 -24 3.5 -46t13 -38.5t26.5 -26.5t44 -10q82 0 93 72h176q-5 -49 -32 -84t-63 -56q-33 -21 -73.5 -30t-85.5 -9q-75 0 -128.5 16.5t-87.5 51t-49.5 88t-15.5 127.5q0 60 21 106t57.5 78t85.5 48.5t106 16.5q77 0 128.5 -21t82.5 -60.5t44.5 -96t13.5 -126.5
h-360zM393 315q0 43 -23 75q-11 16 -27.5 25t-38.5 7q-25 -1 -41 -10t-25.5 -23.5t-14 -33.5t-6.5 -40h176z" />
    <glyph glyph-name="f" unicode="f" horiz-adv-x="444" 
d="M114 0v382h-94v120h96q-2 63 6 107t32 72t65.5 40.5t105.5 12.5q26 0 51 -3.5t51 -8.5v-119q-13 4 -26.5 7.5t-26.5 3.5q-24 0 -38 -9.5t-21.5 -25.5t-9.5 -36t-1 -41h117v-120h-117v-382h-190z" />
    <glyph glyph-name="g" unicode="g" 
d="M425 267q0 23 -4 48t-14.5 45.5t-29 33.5t-47.5 13t-47.5 -13t-29 -33.5t-14.5 -45.5t-4 -48t4 -48t14.5 -45.5t29 -33.5t47.5 -13t47.5 13t29 33.5t14.5 45.5t4 48zM615 70q-1 -32 -4 -59t-10 -51t-20.5 -45.5t-35.5 -42.5q-19 -18 -46.5 -31.5t-58 -22t-60 -12.5
t-53.5 -4q-42 0 -87.5 6.5t-83.5 25t-62.5 52.5t-24.5 88h177q1 -19 7.5 -30t17.5 -19q11 -7 25.5 -10t29.5 -3q32 0 51 9.5t30 26.5t14.5 40.5t3.5 51.5v57h-2q-23 -42 -69 -61t-94 -19q-54 0 -95 20t-69 54.5t-42 80t-14 95.5q0 55 15.5 101t45 79t72.5 51.5t97 18.5
q53 0 92 -21.5t61 -66.5h2l5 73h185v-432z" />
    <glyph glyph-name="h" unicode="h" 
d="M66 0v722h190v-275q32 38 70.5 54t86.5 16q41 0 75 -12.5t59.5 -36t39.5 -57t14 -75.5v-336h-190v295q-1 18 -4 36.5t-11 33t-22 23.5t-36 9q-35 0 -52.5 -16t-24 -36t-6 -37.5t0.5 -19.5v-288h-190z" />
    <glyph glyph-name="i" unicode="i" horiz-adv-x="333" 
d="M72 0v502h190v-502h-190zM71 588v134h192v-134h-192z" />
    <glyph glyph-name="j" unicode="j" horiz-adv-x="333" 
d="M5 -70q35 -8 51 8t16 44v520h190v-403q0 -49 1 -98.5t-10 -97.5q-5 -23 -19 -41t-33 -30t-41 -18t-44 -6q-28 0 -55.5 1t-55.5 4v117zM71 586v134h192v-134h-192z" />
    <glyph glyph-name="k" unicode="k" 
d="M68 0v722h190v-722h-190zM258 280l173 222h207l-170 -211l195 -291h-225z" />
    <glyph glyph-name="l" unicode="l" horiz-adv-x="333" 
d="M72 0v722h190v-722h-190z" />
    <glyph glyph-name="m" unicode="m" horiz-adv-x="1000" 
d="M245 419h2q26 52 72.5 73.5t103.5 21.5q23 0 46.5 -6t44 -17.5t36.5 -29t24 -40.5q26 45 73.5 69.5t104.5 26.5q41 0 75 -12.5t59.5 -36t39.5 -57t14 -75.5v-336h-190v295q-1 18 -4 36.5t-11 33t-22 23.5t-36 9q-35 0 -52.5 -16t-24 -36t-6 -37.5t0.5 -19.5v-288h-190
v295q-1 18 -4 36.5t-11 33t-22 23.5t-36 9q-35 0 -52.5 -16t-24 -36t-6 -37.5t0.5 -19.5v-288h-190v373q0 34 -1 61t-5 68h188z" />
    <glyph glyph-name="n" unicode="n" 
d="M256 447q32 38 70.5 54t86.5 16q41 0 75 -12.5t59.5 -36t39.5 -57t14 -75.5v-336h-190v295q-1 18 -4 36.5t-11 33t-22 23.5t-36 9q-35 0 -52.5 -16t-24 -36t-6 -37.5t0.5 -19.5v-288h-190v373q0 34 -1 61t-5 68h193z" />
    <glyph glyph-name="o" unicode="o" 
d="M237 251q0 -27 4 -54.5t14.5 -50t29.5 -37t49 -14.5t49 14.5t29.5 37t14.5 50t4 54.5t-4 54.5t-14.5 50t-29.5 37t-49 14.5t-49 -14.5t-29.5 -37t-14.5 -50t-4 -54.5zM334 517q59 0 112 -15.5t93 -48t63.5 -83t23.5 -119.5t-23.5 -119.5t-63.5 -83t-93 -48t-112 -15.5
t-112 15.5t-93 48t-63.5 83t-23.5 119.5t23.5 119.5t63.5 83t93 48t112 15.5z" />
    <glyph glyph-name="p" unicode="p" 
d="M246 431h2q29 45 68 65.5t95 20.5t96.5 -22t66.5 -58t38.5 -82.5t12.5 -96.5q0 -55 -14 -104.5t-43 -87t-73.5 -59.5t-104.5 -22q-42 0 -79 21t-63 54h-2v-252h-190v694h190v-71zM338 407q-30 0 -48 -15.5t-28 -38.5t-13 -50.5t-3 -51.5t3 -51.5t13 -50.5t28 -38.5
t48 -15.5t48 15.5t28 38.5t13 50.5t3 51.5t-3 51.5t-13 50.5t-28 38.5t-48 15.5z" />
    <glyph glyph-name="q" unicode="q" 
d="M611 -192h-190v256h-2q-32 -43 -70.5 -61t-92.5 -18q-56 0 -96.5 23t-66.5 60.5t-38.5 85t-12.5 97.5t13.5 98t41 85.5t69 60t96.5 22.5q52 0 92.5 -23t64.5 -65h2l5 73h185v-694zM421 251q0 26 -3 54t-13 50.5t-28 37t-48 14.5t-48 -14.5t-28 -37t-13 -50.5t-3 -54
t3 -54t13 -50.5t28 -37t48 -14.5t48 14.5t28 37t13 50.5t3 54z" />
    <glyph glyph-name="r" unicode="r" horiz-adv-x="444" 
d="M256 408h2q17 63 61 87t107 22v-161q-11 1 -20.5 1h-19.5q-74 -1 -103 -42.5t-27 -113.5v-201h-190v373q0 34 -1 61t-5 68h193z" />
    <glyph glyph-name="s" unicode="s" horiz-adv-x="556" 
d="M331 347q0 13 -2.5 23.5t-9.5 18.5q-8 8 -20 13t-32 5q-21 0 -33 -11.5t-12 -33.5q0 -14 14 -21.5t39.5 -14.5t61.5 -14.5t81 -21.5t73 -45t28 -93q0 -50 -21.5 -82.5t-55.5 -51t-77 -26t-86 -7.5q-46 0 -90 6.5t-77.5 25.5t-54 54t-20.5 92h180q-5 -24 13 -45
q8 -10 19.5 -16.5t25.5 -6.5q28 0 46 11t18 35q0 22 -22 34.5t-55 21.5t-71.5 18.5t-71.5 26t-55 44.5t-22 73q0 47 22 77.5t56.5 48.5t75.5 25t78 7q45 0 86.5 -7t74 -26t53 -52t23.5 -85h-180z" />
    <glyph glyph-name="t" unicode="t" horiz-adv-x="444" 
d="M111 502v76l190 72v-148h110v-120h-110v-199q0 -5 -0.5 -17.5t2 -26t10.5 -24t24 -10.5q19 0 37.5 0.5t35.5 2.5v-113q-32 -6 -56.5 -8t-45.5 -2q-48 0 -86.5 5t-64 23t-38 52t-8.5 92v225h-98v120h98z" />
    <glyph glyph-name="u" unicode="u" 
d="M411 55q-32 -38 -70.5 -54t-86.5 -16q-40 0 -74.5 12.5t-60 36t-39.5 57t-14 75.5v336h190v-295q1 -18 4 -36.5t11 -33t22 -23.5t36 -9q35 0 52.5 16t24 36t6 37.5t-0.5 19.5v288h190v-373q0 -34 1 -61t5 -68h-193z" />
    <glyph glyph-name="v" unicode="v" horiz-adv-x="611" 
d="M204 0l-191 502h202l99 -352h2l106 352h177l-190 -502h-205z" />
    <glyph glyph-name="w" unicode="w" horiz-adv-x="944" 
d="M166 0l-153 502h192l81 -356h2l88 356h210l87 -354h2l88 354h168l-158 -502h-210l-91 350h-2l-98 -350h-206z" />
    <glyph glyph-name="x" unicode="x" horiz-adv-x="611" 
d="M211 0h-194l169 262l-149 240h219l64 -154l67 154h192l-154 -240l170 -262h-222l-79 186z" />
    <glyph glyph-name="y" unicode="y" horiz-adv-x="611" 
d="M595 502l-273 -694h-175l71 177l-210 517h203l99 -349h2l108 349h175z" />
    <glyph glyph-name="z" unicode="z" horiz-adv-x="556" 
d="M55 382v120h444v-120l-264 -262h276v-120h-466v120l260 262h-250z" />
    <glyph glyph-name="braceleft" unicode="{" horiz-adv-x="333" 
d="M231 -96q-16 0 -38.5 7t-43.5 22t-36 37.5t-15 53.5v189q0 23 -12 35t-27.5 17t-32 5.5t-25.5 0.5v90q9 0 25.5 0.5t32 5t27.5 15t12 30.5v190q0 31 15 53.5t36 37.5t43.5 22t38.5 7h100v-90h-25q-22 0 -33 -4t-16 -10t-6 -14t-3 -17v-185q0 -25 -12 -41t-29 -25.5
t-35.5 -13t-31.5 -4.5v-2q13 -1 31.5 -4t35.5 -12t29 -27t12 -49v-185q0 -9 1.5 -17t7.5 -14t17.5 -10t31.5 -4h25v-90h-100z" />
    <glyph glyph-name="bar" unicode="|" horiz-adv-x="278" 
d="M79 722h120v-722h-120v722z" />
    <glyph glyph-name="braceright" unicode="}" horiz-adv-x="333" 
d="M102 722q16 0 38.5 -7t43.5 -22t36 -37.5t15 -53.5v-189q0 -23 12 -35t27.5 -17t32 -5.5t25.5 -0.5v-90q-9 0 -25.5 -0.5t-32 -5t-27.5 -15t-12 -30.5v-190q0 -31 -15 -53.5t-36 -37.5t-43.5 -22t-38.5 -7h-100v90h25q22 0 33.5 4t17 10t6.5 14t1 17v185q0 25 12 41
t29 25.5t35.5 13t31.5 4.5v2q-13 1 -31.5 4t-35.5 12t-29 27t-12 49v185q0 9 -1.5 17t-7.5 14t-17.5 10t-31.5 4h-25v90h100z" />
    <glyph glyph-name="asciitilde" unicode="~" horiz-adv-x="660" 
d="M582 281q-13 -20 -26.5 -41t-30.5 -38t-38 -27.5t-49 -10.5q-33 0 -61.5 10t-53.5 23t-48 23t-46 10q-18 0 -31 -8t-23 -20t-17.5 -26.5t-15.5 -27.5l-64 74q12 21 26.5 43t32.5 40t40.5 29.5t49.5 11.5q28 0 57 -10t58 -23q28 -12 53 -22.5t42 -10.5q16 0 27.5 7.5
t21 18.5t17.5 24t15 24z" />
    <glyph glyph-name="exclamdown" unicode="&#xa1;" horiz-adv-x="444" 
d="M294 324l37 -507h-217l36 507h144zM130 389v150h180v-150h-180z" />
    <glyph glyph-name="cent" unicode="&#xa2;" 
d="M367 644h139l-40 -146q27 -11 51.5 -28t42.5 -39.5t29 -49.5t11 -57h-195q1 11 -1.5 22.5t-10 20.5t-21 14.5t-34.5 5.5q-26 0 -42 -13.5t-24.5 -33.5t-11 -44t-2.5 -45t2.5 -45t11 -44t24.5 -33.5t42 -13.5q23 0 36 7t20.5 18t10.5 25t4 29h195q-2 -53 -26 -93t-59 -66
t-80 -39t-96 -11l-44 -141h-139l45 169q-80 38 -111 100.5t-31 147.5q0 69 21 116t57 76.5t84.5 44.5t103.5 19z" />
    <glyph glyph-name="sterling" unicode="&#xa3;" 
d="M450 484q1 20 -1.5 37t-10.5 30q-8 12 -23 19t-39 7q-34 0 -50.5 -16.5t-22.5 -40.5t-5.5 -51t0.5 -48h142v-130h-142v-161h313v-130h-577v130h74v161h-96v130h96q-5 141 61 213.5t212 72.5q57 0 105.5 -11t84 -37t55.5 -68.5t19 -106.5h-195z" />
    <glyph glyph-name="currency" unicode="&#xa4;" horiz-adv-x="660" 
d="M120 181q-18 32 -27.5 61t-9.5 67q0 37 9 68.5t28 62.5l-44 43l79 80l44 -44q29 17 62.5 27.5t66.5 10.5q73 0 134 -38l44 44l77 -80l-44 -43q38 -61 38 -130q0 -34 -9 -67.5t-29 -61.5l44 -44l-77 -79l-44 44q-30 -18 -62 -28.5t-67 -10.5q-74 0 -134 39l-44 -44l-79 79
zM447 310q0 49 -32 83t-85 34t-85 -34t-32 -83t32 -83t85 -34t85 34t32 83z" />
    <glyph glyph-name="yen" unicode="&#xa5;" 
d="M235 0v120h-181v130h179l-30 54h-149v130h89l-134 258h201l120 -273l127 273h201l-139 -258h94v-130h-149l-30 -54h179v-130h-188v-120h-190z" />
    <glyph glyph-name="brokenbar" unicode="&#xa6;" horiz-adv-x="278" 
d="M199 0h-120v300h120v-300zM79 722h120v-300h-120v300z" />
    <glyph glyph-name="section" unicode="&#xa7;" 
d="M311 452q-20 -15 -34.5 -33t-14.5 -45q0 -19 11.5 -33.5t29 -25.5t36.5 -19t34 -14q14 22 23.5 38t9.5 42q0 20 -9.5 33.5t-24 24t-31 18t-30.5 14.5zM503 609q-30 8 -63 13t-65 5q-8 0 -19 -1t-21.5 -4.5t-17.5 -9.5t-7 -16q0 -18 19.5 -29t49.5 -21t64 -21t64 -29.5
t49.5 -46.5t19.5 -71q0 -44 -28 -79t-66 -54q40 -23 60 -49t20 -74q0 -42 -25.5 -69t-62.5 -42t-78 -20.5t-72 -5.5q-51 0 -101 5.5t-100 15.5v111q35 -13 72 -17.5t74 -4.5q11 0 28 1t32.5 5t26.5 13t11 24q0 19 -20.5 31t-51 22t-66 21t-66 28t-51 42.5t-20.5 65.5
q0 27 8.5 48.5t23.5 38.5t35 30.5t42 25.5q-37 17 -61.5 45.5t-24.5 70.5q0 44 23 69.5t57 39t73.5 17.5t71.5 4q42 0 82 -6t81 -10v-112z" />
    <glyph glyph-name="dieresis" unicode="&#xa8;" horiz-adv-x="333" 
d="M213 577v145h170v-145h-170zM-49 577v145h170v-145h-170z" />
    <glyph glyph-name="copyright" unicode="&#xa9;" horiz-adv-x="800" 
d="M400 -15q-78 0 -146.5 29.5t-119.5 80.5t-80.5 119.5t-29.5 146.5t29.5 146.5t80.5 119.5t119.5 80.5t146.5 29.5t146.5 -29.5t119.5 -80.5t80.5 -119.5t29.5 -146.5t-29.5 -146.5t-80.5 -119.5t-119.5 -80.5t-146.5 -29.5zM400 85q60 0 111 19.5t87.5 55.5t57 87
t20.5 114t-20.5 114t-57 87t-87.5 55.5t-111 19.5q-61 0 -112 -19.5t-87.5 -55.5t-56.5 -87t-20 -114t20 -114t56.5 -87t87.5 -55.5t112 -19.5zM506 439q-6 35 -32 51.5t-61 16.5q-28 0 -49 -11.5t-34.5 -31t-20 -45t-6.5 -53.5q0 -27 7.5 -52.5t21.5 -46t35.5 -33
t48.5 -12.5q34 0 61 18.5t29 53.5h85q-4 -34 -19.5 -61.5t-39 -46t-53.5 -28.5t-63 -10q-47 0 -85.5 16.5t-65.5 46t-42 69t-15 84.5q0 47 14 86.5t41 68.5t65 45.5t86 16.5q68 0 117 -37.5t60 -104.5h-85z" />
    <glyph glyph-name="ordfeminine" unicode="&#xaa;" horiz-adv-x="367" 
d="M365 308h-363v80h363v-80zM138 524q0 -17 10.5 -26.5t28.5 -9.5t27.5 7t13 18t4 24t0.5 25q-10 0 -25 -1t-29 -5q-30 -5 -30 -32zM222 452h-2q-7 -10 -29 -22t-52 -12q-27 0 -51 6t-42 18t-28 31t-10 45q0 27 16.5 48.5t42 36t56.5 22t61 7.5h39q0 4 -0.5 10t-3.5 11.5
t-9 9.5t-16 4q-21 0 -31.5 -8.5t-9.5 -14.5h-117q0 28 16 46t41 29q26 11 55.5 14.5t56.5 3.5q25 0 51 -5t47.5 -16.5t35 -29t13.5 -42.5v-155q0 -10 1.5 -22.5t5.5 -39.5h-133z" />
    <glyph glyph-name="guillemotleft" unicode="&#xab;" 
d="M451 72l-123 195l126 195h152l-118 -195l116 -195h-153zM184 72l-123 195l126 195h152l-118 -195l116 -195h-153z" />
    <glyph glyph-name="logicalnot" unicode="&#xac;" horiz-adv-x="660" 
d="M462 289h-384v120h504v-294h-120v174z" />
    <glyph glyph-name="registered" unicode="&#xae;" horiz-adv-x="800" 
d="M400 -15q-78 0 -146.5 29.5t-119.5 80.5t-80.5 119.5t-29.5 146.5t29.5 146.5t80.5 119.5t119.5 80.5t146.5 29.5t146.5 -29.5t119.5 -80.5t80.5 -119.5t29.5 -146.5t-29.5 -146.5t-80.5 -119.5t-119.5 -80.5t-146.5 -29.5zM400 85q60 0 111 19.5t87.5 55.5t57 87
t20.5 114t-20.5 114t-57 87t-87.5 55.5t-111 19.5q-61 0 -112 -19.5t-87.5 -55.5t-56.5 -87t-20 -114t20 -114t56.5 -87t87.5 -55.5t112 -19.5zM587 157h-103l-90 171h-59v-171h-90v405h197q80 0 118.5 -26t38.5 -98q0 -57 -28.5 -81.5t-82.5 -28.5zM443 398q26 -1 43.5 9.5
t17.5 41.5q0 18 -8.5 26.5t-21 12.5t-26.5 4h-25h-88v-94h108z" />
    <glyph glyph-name="macron" unicode="&#xaf;" horiz-adv-x="333" 
d="M-24 642v80h381v-80h-381z" />
    <glyph glyph-name="degree" unicode="&#xb0;" horiz-adv-x="400" 
d="M350 557q0 -31 -12 -58.5t-32.5 -47.5t-47.5 -32t-58 -12t-58.5 12t-47.5 32t-32 47.5t-12 58.5t11.5 58t32 47.5t48 32.5t58.5 12t58 -12t47.5 -32.5t32.5 -47.5t12 -58zM130 554q1 -32 19.5 -49.5t49.5 -17.5q30 0 50.5 17.5t20.5 49.5q0 30 -20.5 51.5t-51.5 21.5
q-30 0 -49.5 -21.5t-18.5 -51.5z" />
    <glyph glyph-name="plusminus" unicode="&#xb1;" horiz-adv-x="660" 
d="M270 502h120v-109h192v-120h-192v-115h-120v115h-192v120h192v109zM78 120h504v-120h-504v120z" />
    <glyph glyph-name="twosuperior" unicode="&#xb2;" horiz-adv-x="400" 
d="M391 366v-83h-368v78q19 20 57 47.5t76.5 58t67.5 62.5t31 59q3 36 -48 36q-22 0 -35 -13.5t-13 -27.5h-127q2 35 18 59t41.5 38.5t58.5 20.5t69 6q31 0 61.5 -5.5t55 -19t39.5 -35t15 -53.5q0 -24 -15.5 -49.5t-38.5 -50t-50 -47t-50.5 -40t-40 -28.5t-18.5 -12v-1h214z
" />
    <glyph glyph-name="threesuperior" unicode="&#xb3;" horiz-adv-x="400" 
d="M148 539h39t36 4.5t26.5 16t10.5 34.5q0 14 -15.5 22t-35.5 8t-35 -11t-15 -25h-132q1 33 17.5 55.5t43 36.5t59 20.5t64.5 6.5q28 0 60 -4.5t59.5 -16t46 -32t18.5 -53.5q0 -20 -8.5 -37t-23 -29.5t-33.5 -21t-39 -11.5v-2q49 -5 81 -31.5t32 -74.5q0 -34 -18.5 -57.5
t-47 -37t-62.5 -19.5t-64 -6q-38 0 -72 6t-60 20.5t-42.5 39.5t-21.5 63h131q0 -12 5 -20.5t11 -14.5q8 -7 20 -9t24 -2q26 0 44 9.5t18 36.5q0 24 -12.5 35t-30.5 15t-39 3.5t-39 -0.5v83z" />
    <glyph glyph-name="acute" unicode="&#xb4;" horiz-adv-x="333" 
d="M204 577h-118l104 145h208v-2z" />
    <glyph glyph-name="mu" unicode="&#xb5;" 
d="M411 55q-32 -38 -70 -54t-85 -16v-177h-190v694h190v-295q1 -18 4 -36.5t11 -33t22 -23.5t36 -9q35 0 52.5 16t24 36t6 37.5t-0.5 19.5v288h190v-373q0 -34 1 -61t5 -68h-193z" />
    <glyph glyph-name="paragraph" unicode="&#xb6;" horiz-adv-x="850" 
d="M416 -176h-170v549q-87 0 -139.5 45t-52.5 126q0 54 18.5 88.5t51.5 54.5t78 27.5t97 7.5h408v-170h-44v-728h-170v728h-77v-728z" />
    <glyph glyph-name="periodcentered" unicode="&#xb7;" horiz-adv-x="333" 
d="M77 176v150h180v-150h-180z" />
    <glyph glyph-name="cedilla" unicode="&#xb8;" horiz-adv-x="333" 
d="M39 -87l69 96h75l-45 -59l4.5 0.5t10.5 0.5t11.5 0.5t7.5 0.5q20 0 39.5 -3.5t35 -13t25 -25.5t9.5 -40t-15 -40t-39 -27q-32 -14 -65.5 -16t-68.5 -2q-29 0 -56.5 5.5t-54.5 12.5l16 55q24 -8 51 -15t53 -7q12 0 24 1.5t22.5 5t17 9.5t6.5 14t-5.5 14.5t-14 11.5
t-18 7.5t-17.5 2.5q-27 0 -51 -9z" />
    <glyph glyph-name="onesuperior" unicode="&#xb9;" horiz-adv-x="400" 
d="M180 283v297q-26 -16 -53.5 -29.5t-56.5 -22.5v97q74 22 130 67h110v-409h-130z" />
    <glyph glyph-name="ordmasculine" unicode="&#xba;" horiz-adv-x="400" 
d="M390 308h-379v80h379v-80zM260 578q0 16 -2.5 32t-9 28.5t-18 20.5t-29.5 8t-29.5 -8t-18.5 -20.5t-9.5 -28.5t-2.5 -32t2.5 -32t9.5 -29t18.5 -21t29.5 -8t29.5 8t18 21t9 29t2.5 32zM201 737q38 0 72.5 -9t60.5 -28.5t41 -49.5t15 -72t-15 -72t-41 -49.5t-60.5 -29
t-72.5 -9.5q-39 0 -73.5 9.5t-60.5 29t-41 49.5t-15 72t15 72t41 49.5t60.5 28.5t73.5 9z" />
    <glyph glyph-name="guillemotright" unicode="&#xbb;" 
d="M483 462l123 -195l-126 -195h-152l118 195l-116 195h153zM216 462l123 -195l-126 -195h-152l118 195l-116 195h153z" />
    <glyph glyph-name="onequarter" unicode="&#xbc;" horiz-adv-x="1000" 
d="M236 0l365 707h109l-365 -707h-109zM205 283v297q-26 -16 -53.5 -29.5t-56.5 -22.5v97q74 22 130 67h110v-409h-130zM712 80h-215v83l191 252h154v-252h63v-83h-63v-80h-130v80zM712 163v144h-3l-100 -144h103z" />
    <glyph glyph-name="onehalf" unicode="&#xbd;" horiz-adv-x="1000" 
d="M221 0l365 707h109l-365 -707h-109zM200 283v297q-26 -16 -53.5 -29.5t-56.5 -22.5v97q74 22 130 67h110v-409h-130zM910 83v-83h-368v78q19 20 57 47.5t76.5 58t67.5 62.5t31 59q3 36 -48 36q-22 0 -35 -13.5t-13 -27.5h-127q2 35 18 59t41.5 38.5t58.5 20.5t69 6
q31 0 61.5 -5.5t55 -19t39.5 -35t15 -53.5q0 -24 -15.5 -49.5t-38.5 -50t-50 -47t-50.5 -40t-40 -28t-18.5 -12.5v-1h214z" />
    <glyph glyph-name="threequarters" unicode="&#xbe;" horiz-adv-x="1000" 
d="M297 0l365 707h109l-365 -707h-109zM755 415h154v-252h63v-83h-63v-80h-130v80h-215v83zM779 163v154h-3l-110 -154h113zM160 539h39t36 4.5t26.5 16t10.5 34.5q0 14 -15.5 22t-35.5 8t-35 -11t-15 -25h-132q1 33 17.5 55.5t43 36.5t59 20.5t64.5 6.5q28 0 60 -4.5
t59.5 -16t46 -32t18.5 -53.5q0 -20 -8.5 -37t-23 -29.5t-33.5 -21t-39 -11.5v-2q49 -5 81 -31.5t32 -74.5q0 -34 -18.5 -57.5t-47 -37t-62.5 -19.5t-64 -6q-38 0 -72 6t-60 20.5t-42.5 39.5t-21.5 63h131q0 -12 5 -20.5t11 -14.5q8 -7 20 -9t24 -2q26 0 44 9.5t18 36.5
q0 24 -12.5 35t-30.5 15t-39 3.5t-39 -0.5v83z" />
    <glyph glyph-name="questiondown" unicode="&#xbf;" horiz-adv-x="556" 
d="M402 349q-1 -37 1 -59.5t-1 -40.5t-14.5 -36.5t-40.5 -47.5l-26.5 -26.5t-32.5 -37t-28 -42t-12 -41.5q0 -26 12.5 -42.5t32 -26.5t42 -13.5t43.5 -3.5q27 0 54 3.5t53 11.5v-130q-78 -15 -160 -15q-43 0 -93.5 7.5t-93.5 28.5t-71.5 58.5t-28.5 98.5q0 35 12 61.5
t31.5 48.5t44.5 41l50 38q19 14 32 25t20.5 23t10.5 28t3 40v49h160zM232 389v150h180v-150h-180z" />
    <glyph glyph-name="Agrave" unicode="&#xc0;" horiz-adv-x="833" 
d="M10 0l285 722h244l285 -722h-226l-48 141h-293l-47 -141h-200zM501 281l-92 300h-3l-98 -300h193zM185 940v2h208l104 -145h-118z" />
    <glyph glyph-name="Aacute" unicode="&#xc1;" horiz-adv-x="833" 
d="M10 0l285 722h244l285 -722h-226l-48 141h-293l-47 -141h-200zM501 281l-92 300h-3l-98 -300h193zM436 797h-118l104 145h208v-2z" />
    <glyph glyph-name="Acircumflex" unicode="&#xc2;" horiz-adv-x="833" 
d="M10 0l285 722h244l285 -722h-226l-48 141h-293l-47 -141h-200zM501 281l-92 300h-3l-98 -300h193zM416 874l-74 -77h-128l118 145h169l119 -145h-130z" />
    <glyph glyph-name="Atilde" unicode="&#xc3;" horiz-adv-x="833" 
d="M10 0l285 722h244l285 -722h-226l-48 141h-293l-47 -141h-200zM501 281l-92 300h-3l-98 -300h193zM210 796q2 28 13 54.5t30 46.5t44 32.5t54 12.5q23 0 50 -6.5t53 -14.5t47.5 -14.5t35.5 -6.5t21.5 14t10.5 25h81q-2 -25 -13.5 -50.5t-29.5 -45.5q-18 -21 -41.5 -34
t-50.5 -13q-24 0 -49 6t-49 14q-23 8 -45 14t-41 6q-20 0 -29.5 -11.5t-14.5 -28.5h-77z" />
    <glyph glyph-name="Adieresis" unicode="&#xc4;" horiz-adv-x="833" 
d="M10 0l285 722h244l285 -722h-226l-48 141h-293l-47 -141h-200zM501 281l-92 300h-3l-98 -300h193zM463 797v145h170v-145h-170zM201 797v145h170v-145h-170z" />
    <glyph glyph-name="Aring" unicode="&#xc5;" horiz-adv-x="833" 
d="M10 0l285 722h244l285 -722h-226l-48 141h-293l-47 -141h-200zM501 281l-92 300h-3l-98 -300h193zM417 762q-22 0 -41.5 8.5t-34.5 23t-23.5 34t-8.5 41.5t8.5 41.5t23.5 34.5t34.5 23.5t41.5 8.5t41.5 -8.5t34.5 -23.5t23.5 -34.5t8.5 -41.5t-8.5 -41.5t-23.5 -34
t-34.5 -23t-41.5 -8.5zM465 869q0 22 -13 33t-35 15q-18 0 -33 -15t-15 -33t15 -32.5t33 -14.5q22 0 35 14.5t13 32.5z" />
    <glyph glyph-name="AE" unicode="&#xc6;" horiz-adv-x="1000" 
d="M486 143h-226l-55 -143h-198l317 722h628v-140h-318l16 -149h273v-140h-258l15 -153h272v-140h-450zM311 283h162l-33 314h-5z" />
    <glyph glyph-name="Ccedilla" unicode="&#xc7;" horiz-adv-x="778" 
d="M526 495q-4 49 -39 75.5t-97 26.5q-43 0 -69.5 -23t-41.5 -58t-20 -78t-5 -84q0 -39 5.5 -80t20.5 -74t41.5 -54t68.5 -21q63 0 98 27t38 79h210q1 -68 -28 -115t-78 -76t-111.5 -42t-128.5 -13q-170 0 -258 97t-88 280t88 278t258 97q66 0 128.5 -12t111.5 -40.5t78 -75
t28 -114.5h-210zM262 -87l69 96h75l-45 -59l4.5 0.5t10.5 0.5t11.5 0.5t7.5 0.5q20 0 39.5 -3.5t35 -13t25 -25.5t9.5 -40t-15 -40t-39 -27q-32 -14 -65.5 -16t-68.5 -2q-29 0 -56.5 5.5t-54.5 12.5l16 55q24 -8 51 -15t53 -7q12 0 24 1.5t22.5 5t17 9.5t6.5 14t-5.5 14.5
t-14 11.5t-18 7.5t-17.5 2.5q-27 0 -51 -9z" />
    <glyph glyph-name="Egrave" unicode="&#xc8;" 
d="M69 0v722h550v-140h-350v-149h322v-140h-322v-153h350v-140h-550zM102 940v2h208l104 -145h-118z" />
    <glyph glyph-name="Eacute" unicode="&#xc9;" 
d="M69 0v722h550v-140h-350v-149h322v-140h-322v-153h350v-140h-550zM371 797h-118l104 145h208v-2z" />
    <glyph glyph-name="Ecircumflex" unicode="&#xca;" 
d="M69 0v722h550v-140h-350v-149h322v-140h-322v-153h350v-140h-550zM333 874l-74 -77h-128l118 145h169l119 -145h-130z" />
    <glyph glyph-name="Edieresis" unicode="&#xcb;" 
d="M69 0v722h550v-140h-350v-149h322v-140h-322v-153h350v-140h-550zM380 797v145h170v-145h-170zM118 797v145h170v-145h-170z" />
    <glyph glyph-name="Igrave" unicode="&#xcc;" horiz-adv-x="333" 
d="M67 0v722h200v-722h-200zM-65 940v2h208l104 -145h-118z" />
    <glyph glyph-name="Iacute" unicode="&#xcd;" horiz-adv-x="333" 
d="M67 0v722h200v-722h-200zM192 797h-118l104 145h208v-2z" />
    <glyph glyph-name="Icircumflex" unicode="&#xce;" horiz-adv-x="333" 
d="M67 0v722h200v-722h-200zM166 874l-74 -77h-128l118 145h169l119 -145h-130z" />
    <glyph glyph-name="Idieresis" unicode="&#xcf;" horiz-adv-x="333" 
d="M67 0v722h200v-722h-200zM213 797v145h170v-145h-170zM-49 797v145h170v-145h-170z" />
    <glyph glyph-name="Eth" unicode="&#xd0;" horiz-adv-x="833" 
d="M267 404h73v-80h-73v-184h94q41 0 79 13.5t67.5 41t47.5 69t18 97.5t-18 97.5t-47.5 69t-67.5 41t-79 13.5h-94v-178zM67 722h305q93 0 169 -19t129.5 -61.5t83 -111.5t29.5 -169t-29.5 -169t-83 -111.5t-129.5 -61.5t-169 -19h-305v324h-73v80h73v318z" />
    <glyph glyph-name="Ntilde" unicode="&#xd1;" horiz-adv-x="833" 
d="M65 722h280l242 -538l2 2v536h180v-722h-277l-245 553h-2v-553h-180v722zM222 796q2 28 13 54.5t30 46.5t44 32.5t54 12.5q23 0 50 -6.5t53 -14.5t47.5 -14.5t35.5 -6.5t21.5 14t10.5 25h81q-2 -25 -13.5 -50.5t-29.5 -45.5q-18 -21 -41.5 -34t-50.5 -13q-24 0 -49 6
t-49 14q-23 8 -45 14t-41 6q-20 0 -29.5 -11.5t-14.5 -28.5h-77z" />
    <glyph glyph-name="Ograve" unicode="&#xd2;" horiz-adv-x="833" 
d="M581 358q0 42 -6.5 85t-24.5 77t-50 55.5t-83 21.5t-83 -21.5t-50 -55.5t-24.5 -77t-6.5 -85q0 -40 6.5 -81.5t24.5 -75t50 -55t83 -21.5t83 21.5t50 55t24.5 75t6.5 81.5zM417 -15q-90 0 -159.5 25.5t-117 73.5t-72.5 118t-25 159t25 159t72.5 118t117 73.5t159.5 25.5
t159.5 -25.5t117 -73.5t72.5 -118t25 -159t-25 -159t-72.5 -118t-117 -73.5t-159.5 -25.5zM185 940v2h208l104 -145h-118z" />
    <glyph glyph-name="Oacute" unicode="&#xd3;" horiz-adv-x="833" 
d="M581 358q0 42 -6.5 85t-24.5 77t-50 55.5t-83 21.5t-83 -21.5t-50 -55.5t-24.5 -77t-6.5 -85q0 -40 6.5 -81.5t24.5 -75t50 -55t83 -21.5t83 21.5t50 55t24.5 75t6.5 81.5zM417 -15q-90 0 -159.5 25.5t-117 73.5t-72.5 118t-25 159t25 159t72.5 118t117 73.5t159.5 25.5
t159.5 -25.5t117 -73.5t72.5 -118t25 -159t-25 -159t-72.5 -118t-117 -73.5t-159.5 -25.5zM454 797h-118l104 145h208v-2z" />
    <glyph glyph-name="Ocircumflex" unicode="&#xd4;" horiz-adv-x="833" 
d="M581 358q0 42 -6.5 85t-24.5 77t-50 55.5t-83 21.5t-83 -21.5t-50 -55.5t-24.5 -77t-6.5 -85q0 -40 6.5 -81.5t24.5 -75t50 -55t83 -21.5t83 21.5t50 55t24.5 75t6.5 81.5zM417 -15q-90 0 -159.5 25.5t-117 73.5t-72.5 118t-25 159t25 159t72.5 118t117 73.5t159.5 25.5
t159.5 -25.5t117 -73.5t72.5 -118t25 -159t-25 -159t-72.5 -118t-117 -73.5t-159.5 -25.5zM416 874l-74 -77h-128l118 145h169l119 -145h-130z" />
    <glyph glyph-name="Otilde" unicode="&#xd5;" horiz-adv-x="833" 
d="M581 358q0 42 -6.5 85t-24.5 77t-50 55.5t-83 21.5t-83 -21.5t-50 -55.5t-24.5 -77t-6.5 -85q0 -40 6.5 -81.5t24.5 -75t50 -55t83 -21.5t83 21.5t50 55t24.5 75t6.5 81.5zM417 -15q-90 0 -159.5 25.5t-117 73.5t-72.5 118t-25 159t25 159t72.5 118t117 73.5t159.5 25.5
t159.5 -25.5t117 -73.5t72.5 -118t25 -159t-25 -159t-72.5 -118t-117 -73.5t-159.5 -25.5zM210 796q2 28 13 54.5t30 46.5t44 32.5t54 12.5q23 0 50 -6.5t53 -14.5t47.5 -14.5t35.5 -6.5t21.5 14t10.5 25h81q-2 -25 -13.5 -50.5t-29.5 -45.5q-18 -21 -41.5 -34t-50.5 -13
q-24 0 -49 6t-49 14q-23 8 -45 14t-41 6q-20 0 -29.5 -11.5t-14.5 -28.5h-77z" />
    <glyph glyph-name="Odieresis" unicode="&#xd6;" horiz-adv-x="833" 
d="M581 358q0 42 -6.5 85t-24.5 77t-50 55.5t-83 21.5t-83 -21.5t-50 -55.5t-24.5 -77t-6.5 -85q0 -40 6.5 -81.5t24.5 -75t50 -55t83 -21.5t83 21.5t50 55t24.5 75t6.5 81.5zM417 -15q-90 0 -159.5 25.5t-117 73.5t-72.5 118t-25 159t25 159t72.5 118t117 73.5t159.5 25.5
t159.5 -25.5t117 -73.5t72.5 -118t25 -159t-25 -159t-72.5 -118t-117 -73.5t-159.5 -25.5zM463 797v145h170v-145h-170zM201 797v145h170v-145h-170z" />
    <glyph glyph-name="multiply" unicode="&#xd7;" horiz-adv-x="660" 
d="M161 0l-83 80l171 170l-171 170l83 82l169 -170l168 170l84 -82l-171 -169l171 -170l-84 -81l-168 169z" />
    <glyph glyph-name="Oslash" unicode="&#xd8;" horiz-adv-x="833" 
d="M668 661l96 98l65 -71l-97 -98q59 -92 59 -229q0 -89 -25 -159t-72.5 -118t-117 -73.5t-159.5 -25.5q-137 0 -226 58l-98 -99l-66 69l93 94q-77 95 -77 254q0 89 25 159t72.5 118t117 73.5t159.5 25.5q158 0 251 -76zM311 165q18 -19 44.5 -29.5t61.5 -10.5q51 0 83 21.5
t50 55t24.5 75t6.5 81.5q0 19 -1 37.5t-5 36.5zM541 533q-18 29 -48 46.5t-76 17.5q-51 0 -83 -21.5t-50 -55.5t-24.5 -77t-6.5 -85q0 -26 2.5 -52.5t9.5 -52.5z" />
    <glyph glyph-name="Ugrave" unicode="&#xd9;" horiz-adv-x="833" 
d="M762 722v-457q-1 -75 -29.5 -128.5t-75.5 -87t-109.5 -49t-130.5 -15.5t-130.5 15.5t-109.5 49t-75.5 87t-29.5 128.5v457h200v-447q2 -69 38 -109.5t107 -40.5t107 40.5t38 109.5v447h200zM185 940v2h208l104 -145h-118z" />
    <glyph glyph-name="Uacute" unicode="&#xda;" horiz-adv-x="833" 
d="M762 722v-457q-1 -75 -29.5 -128.5t-75.5 -87t-109.5 -49t-130.5 -15.5t-130.5 15.5t-109.5 49t-75.5 87t-29.5 128.5v457h200v-447q2 -69 38 -109.5t107 -40.5t107 40.5t38 109.5v447h200zM454 797h-118l104 145h208v-2z" />
    <glyph glyph-name="Ucircumflex" unicode="&#xdb;" horiz-adv-x="833" 
d="M762 722v-457q-1 -75 -29.5 -128.5t-75.5 -87t-109.5 -49t-130.5 -15.5t-130.5 15.5t-109.5 49t-75.5 87t-29.5 128.5v457h200v-447q2 -69 38 -109.5t107 -40.5t107 40.5t38 109.5v447h200zM416 874l-74 -77h-128l118 145h169l119 -145h-130z" />
    <glyph glyph-name="Udieresis" unicode="&#xdc;" horiz-adv-x="833" 
d="M762 722v-457q-1 -75 -29.5 -128.5t-75.5 -87t-109.5 -49t-130.5 -15.5t-130.5 15.5t-109.5 49t-75.5 87t-29.5 128.5v457h200v-447q2 -69 38 -109.5t107 -40.5t107 40.5t38 109.5v447h200zM463 797v145h170v-145h-170zM201 797v145h170v-145h-170z" />
    <glyph glyph-name="Yacute" unicode="&#xdd;" horiz-adv-x="778" 
d="M286 264l-276 458h232l158 -303l163 303h206l-283 -458v-264h-200v264zM427 797h-118l104 145h208v-2z" />
    <glyph glyph-name="Thorn" unicode="&#xde;" horiz-adv-x="722" 
d="M73 0v722h200v-80h132q66 0 120.5 -11.5t92.5 -38.5t59 -71.5t21 -110.5t-21 -110.5t-59 -71.5t-92.5 -38.5t-120.5 -11.5h-132v-178h-200zM376 318q60 2 86 27t26 65t-26 65t-86 27h-103v-184h103z" />
    <glyph glyph-name="germandbls" unicode="&#xdf;" horiz-adv-x="778" 
d="M65 457v57t4.5 49.5t15 46.5t31.5 48q20 25 50.5 40.5t65 24t70 11.5t65.5 3q41 0 87 -6t86 -24t66 -50t26 -84q0 -37 -16 -58t-35.5 -35t-37 -26t-20.5 -30q-2 -20 2 -32.5t14.5 -22.5t27.5 -19t41 -23q30 -15 54 -29t40.5 -32.5t25 -43.5t8.5 -61q0 -46 -20 -79
t-52 -54.5t-72 -32t-79 -10.5q-42 0 -82 7t-72 25t-52 49.5t-20 81.5h166q0 -25 13 -38q12 -15 38 -15q33 0 42.5 19t9.5 47q0 29 -18 48.5t-43.5 34t-53 26.5t-46.5 24q-27 17 -47 43t-20 59q0 32 19.5 51.5t42.5 36t42.5 33.5t19.5 44q0 34 -28 50t-64 16q-30 0 -50.5 -11
t-32.5 -28t-17 -39t-5 -43v-506h-190v457z" />
    <glyph glyph-name="agrave" unicode="&#xe0;" horiz-adv-x="611" 
d="M216 161q0 -27 19 -46.5t46 -19.5q31 0 48.5 13t26.5 34t11.5 46.5t2.5 50.5q-30 0 -57 -0.5t-47 -10.5q-21 -11 -35.5 -26t-14.5 -41zM377 0q-3 12 -3.5 26.5t-0.5 41.5h-2q-9 -13 -21.5 -28t-31.5 -27t-45.5 -20t-61.5 -8q-90 0 -135.5 44.5t-43.5 122.5
q1 46 21.5 78.5t57 53.5t87.5 30.5t112 9.5h60q0 17 0.5 35.5t-5 34.5t-19 26t-42.5 9q-17 -1 -29 -9t-19 -19t-9.5 -24.5t-2.5 -24.5h-179q-1 54 24 86t63 49q39 18 85 24t88 6q38 0 78 -8.5t72.5 -27t53 -48.5t19.5 -72v-258q0 -16 3 -37t8 -66h-182zM92 720v2h208
l104 -145h-118z" />
    <glyph glyph-name="aacute" unicode="&#xe1;" horiz-adv-x="611" 
d="M216 161q0 -27 19 -46.5t46 -19.5q31 0 48.5 13t26.5 34t11.5 46.5t2.5 50.5q-30 0 -57 -0.5t-47 -10.5q-21 -11 -35.5 -26t-14.5 -41zM377 0q-3 12 -3.5 26.5t-0.5 41.5h-2q-9 -13 -21.5 -28t-31.5 -27t-45.5 -20t-61.5 -8q-90 0 -135.5 44.5t-43.5 122.5
q1 46 21.5 78.5t57 53.5t87.5 30.5t112 9.5h60q0 17 0.5 35.5t-5 34.5t-19 26t-42.5 9q-17 -1 -29 -9t-19 -19t-9.5 -24.5t-2.5 -24.5h-179q-1 54 24 86t63 49q39 18 85 24t88 6q38 0 78 -8.5t72.5 -27t53 -48.5t19.5 -72v-258q0 -16 3 -37t8 -66h-182zM319 577h-118
l104 145h208v-2z" />
    <glyph glyph-name="acircumflex" unicode="&#xe2;" horiz-adv-x="611" 
d="M216 161q0 -27 19 -46.5t46 -19.5q31 0 48.5 13t26.5 34t11.5 46.5t2.5 50.5q-30 0 -57 -0.5t-47 -10.5q-21 -11 -35.5 -26t-14.5 -41zM377 0q-3 12 -3.5 26.5t-0.5 41.5h-2q-9 -13 -21.5 -28t-31.5 -27t-45.5 -20t-61.5 -8q-90 0 -135.5 44.5t-43.5 122.5
q1 46 21.5 78.5t57 53.5t87.5 30.5t112 9.5h60q0 17 0.5 35.5t-5 34.5t-19 26t-42.5 9q-17 -1 -29 -9t-19 -19t-9.5 -24.5t-2.5 -24.5h-179q-1 54 24 86t63 49q39 18 85 24t88 6q38 0 78 -8.5t72.5 -27t53 -48.5t19.5 -72v-258q0 -16 3 -37t8 -66h-182zM305 654l-74 -77
h-128l118 145h169l119 -145h-130z" />
    <glyph glyph-name="atilde" unicode="&#xe3;" horiz-adv-x="611" 
d="M216 161q0 -27 19 -46.5t46 -19.5q31 0 48.5 13t26.5 34t11.5 46.5t2.5 50.5q-30 0 -57 -0.5t-47 -10.5q-21 -11 -35.5 -26t-14.5 -41zM377 0q-3 12 -3.5 26.5t-0.5 41.5h-2q-9 -13 -21.5 -28t-31.5 -27t-45.5 -20t-61.5 -8q-90 0 -135.5 44.5t-43.5 122.5
q1 46 21.5 78.5t57 53.5t87.5 30.5t112 9.5h60q0 17 0.5 35.5t-5 34.5t-19 26t-42.5 9q-17 -1 -29 -9t-19 -19t-9.5 -24.5t-2.5 -24.5h-179q-1 54 24 86t63 49q39 18 85 24t88 6q38 0 78 -8.5t72.5 -27t53 -48.5t19.5 -72v-258q0 -16 3 -37t8 -66h-182zM111 576
q2 28 13 54.5t30 46.5t44 32.5t54 12.5q23 0 50 -6.5t53 -14.5t47.5 -14.5t35.5 -6.5t21.5 14t10.5 25h81q-2 -25 -13.5 -50.5t-29.5 -45.5q-18 -21 -41.5 -34t-50.5 -13q-24 0 -49 6t-49 14q-23 8 -45 14t-41 6q-20 0 -29.5 -11.5t-14.5 -28.5h-77z" />
    <glyph glyph-name="adieresis" unicode="&#xe4;" horiz-adv-x="611" 
d="M216 161q0 -27 19 -46.5t46 -19.5q31 0 48.5 13t26.5 34t11.5 46.5t2.5 50.5q-30 0 -57 -0.5t-47 -10.5q-21 -11 -35.5 -26t-14.5 -41zM377 0q-3 12 -3.5 26.5t-0.5 41.5h-2q-9 -13 -21.5 -28t-31.5 -27t-45.5 -20t-61.5 -8q-90 0 -135.5 44.5t-43.5 122.5
q1 46 21.5 78.5t57 53.5t87.5 30.5t112 9.5h60q0 17 0.5 35.5t-5 34.5t-19 26t-42.5 9q-17 -1 -29 -9t-19 -19t-9.5 -24.5t-2.5 -24.5h-179q-1 54 24 86t63 49q39 18 85 24t88 6q38 0 78 -8.5t72.5 -27t53 -48.5t19.5 -72v-258q0 -16 3 -37t8 -66h-182zM352 577v145h170
v-145h-170zM90 577v145h170v-145h-170z" />
    <glyph glyph-name="aring" unicode="&#xe5;" horiz-adv-x="611" 
d="M216 161q0 -27 19 -46.5t46 -19.5q31 0 48.5 13t26.5 34t11.5 46.5t2.5 50.5q-30 0 -57 -0.5t-47 -10.5q-21 -11 -35.5 -26t-14.5 -41zM377 0q-3 12 -3.5 26.5t-0.5 41.5h-2q-9 -13 -21.5 -28t-31.5 -27t-45.5 -20t-61.5 -8q-90 0 -135.5 44.5t-43.5 122.5
q1 46 21.5 78.5t57 53.5t87.5 30.5t112 9.5h60q0 17 0.5 35.5t-5 34.5t-19 26t-42.5 9q-17 -1 -29 -9t-19 -19t-9.5 -24.5t-2.5 -24.5h-179q-1 54 24 86t63 49q39 18 85 24t88 6q38 0 78 -8.5t72.5 -27t53 -48.5t19.5 -72v-258q0 -16 3 -37t8 -66h-182zM306 542
q-22 0 -41.5 8.5t-34.5 23t-23.5 34t-8.5 41.5t8.5 41.5t23.5 34.5t34.5 23.5t41.5 8.5t41.5 -8.5t34.5 -23.5t23.5 -34.5t8.5 -41.5t-8.5 -41.5t-23.5 -34t-34.5 -23t-41.5 -8.5zM354 649q0 22 -13 33t-35 15q-18 0 -33 -15t-15 -33t15 -32.5t33 -14.5q22 0 35 14.5
t13 32.5z" />
    <glyph glyph-name="ae" unicode="&#xe6;" horiz-adv-x="944" 
d="M216 161q0 -27 19 -46.5t46 -19.5q31 0 48.5 13t26.5 34t11.5 46.5t2.5 50.5q-30 0 -57 -0.5t-47 -10.5q-21 -11 -35.5 -26t-14.5 -41zM723 315q0 43 -23 75q-11 16 -27.5 25t-38.5 7q-25 -1 -41 -10t-25.5 -23.5t-14 -33.5t-6.5 -40h176zM370 324q0 17 1 36t-3.5 35
t-17.5 26t-42 9q-17 -1 -29.5 -9t-20 -18.5t-11 -21.5t-3.5 -19h-179q-1 46 24 77t63 48q39 18 85 24t88 6q17 0 38 -3.5t42 -12t41.5 -21.5t36.5 -32q18 22 38.5 35.5t41 21t39 10t32.5 2.5q77 0 128.5 -21t82.5 -60.5t44.5 -96t13.5 -126.5h-360q0 -24 3.5 -45.5t14 -37.5
t27.5 -25.5t44 -9.5q81 0 91 69h180q-3 -49 -29.5 -83t-61.5 -55t-78.5 -31t-88.5 -10q-28 0 -56.5 5t-54 17.5t-47.5 33.5t-37 52q-17 -33 -41.5 -54t-54.5 -33t-63.5 -16.5t-67.5 -4.5q-42 0 -79 10t-64.5 30t-43 51.5t-15.5 74.5q1 46 27 78.5t66 53.5t88 31t92 10h76z
" />
    <glyph glyph-name="ccedilla" unicode="&#xe7;" horiz-adv-x="611" 
d="M384 326q0 40 -15 59q-17 22 -59 22q-26 0 -40.5 -17t-22 -41.5t-9 -51t-1.5 -46.5q0 -19 1.5 -46t9 -51.5t22 -41.5t40.5 -17q25 2 39.5 11.5t22 24t10 31.5t2.5 34h190q0 -54 -21.5 -93t-56.5 -65q-36 -26 -82 -38.5t-96 -14.5q-143 0 -209.5 67.5t-66.5 198.5
q0 68 22 118t59.5 83t87.5 49t107 16q48 1 92.5 -9t80 -32.5t58 -59t25.5 -90.5h-190zM188 -87l69 96h75l-45 -59l4.5 0.5t10.5 0.5t11.5 0.5t7.5 0.5q20 0 39.5 -3.5t35 -13t25 -25.5t9.5 -40t-15 -40t-39 -27q-32 -14 -65.5 -16t-68.5 -2q-29 0 -56.5 5.5t-54.5 12.5
l16 55q24 -8 51 -15t53 -7q12 0 24 1.5t22.5 5t17 9.5t6.5 14t-5.5 14.5t-14 11.5t-18 7.5t-17.5 2.5q-27 0 -51 -9z" />
    <glyph glyph-name="egrave" unicode="&#xe8;" horiz-adv-x="611" 
d="M213 213q0 -24 3.5 -46t13 -38.5t26.5 -26.5t44 -10q82 0 93 72h176q-5 -49 -32 -84t-63 -56q-33 -21 -73.5 -30t-85.5 -9q-75 0 -128.5 16.5t-87.5 51t-49.5 88t-15.5 127.5q0 60 21 106t57.5 78t85.5 48.5t106 16.5q77 0 128.5 -21t82.5 -60.5t44.5 -96t13.5 -126.5
h-360zM393 315q0 43 -23 75q-11 16 -27.5 25t-38.5 7q-25 -1 -41 -10t-25.5 -23.5t-14 -33.5t-6.5 -40h176zM92 720v2h208l104 -145h-118z" />
    <glyph glyph-name="eacute" unicode="&#xe9;" horiz-adv-x="611" 
d="M213 213q0 -24 3.5 -46t13 -38.5t26.5 -26.5t44 -10q82 0 93 72h176q-5 -49 -32 -84t-63 -56q-33 -21 -73.5 -30t-85.5 -9q-75 0 -128.5 16.5t-87.5 51t-49.5 88t-15.5 127.5q0 60 21 106t57.5 78t85.5 48.5t106 16.5q77 0 128.5 -21t82.5 -60.5t44.5 -96t13.5 -126.5
h-360zM393 315q0 43 -23 75q-11 16 -27.5 25t-38.5 7q-25 -1 -41 -10t-25.5 -23.5t-14 -33.5t-6.5 -40h176zM319 577h-118l104 145h208v-2z" />
    <glyph glyph-name="ecircumflex" unicode="&#xea;" horiz-adv-x="611" 
d="M213 213q0 -24 3.5 -46t13 -38.5t26.5 -26.5t44 -10q82 0 93 72h176q-5 -49 -32 -84t-63 -56q-33 -21 -73.5 -30t-85.5 -9q-75 0 -128.5 16.5t-87.5 51t-49.5 88t-15.5 127.5q0 60 21 106t57.5 78t85.5 48.5t106 16.5q77 0 128.5 -21t82.5 -60.5t44.5 -96t13.5 -126.5
h-360zM393 315q0 43 -23 75q-11 16 -27.5 25t-38.5 7q-25 -1 -41 -10t-25.5 -23.5t-14 -33.5t-6.5 -40h176zM305 654l-74 -77h-128l118 145h169l119 -145h-130z" />
    <glyph glyph-name="edieresis" unicode="&#xeb;" horiz-adv-x="611" 
d="M213 213q0 -24 3.5 -46t13 -38.5t26.5 -26.5t44 -10q82 0 93 72h176q-5 -49 -32 -84t-63 -56q-33 -21 -73.5 -30t-85.5 -9q-75 0 -128.5 16.5t-87.5 51t-49.5 88t-15.5 127.5q0 60 21 106t57.5 78t85.5 48.5t106 16.5q77 0 128.5 -21t82.5 -60.5t44.5 -96t13.5 -126.5
h-360zM393 315q0 43 -23 75q-11 16 -27.5 25t-38.5 7q-25 -1 -41 -10t-25.5 -23.5t-14 -33.5t-6.5 -40h176zM352 577v145h170v-145h-170zM90 577v145h170v-145h-170z" />
    <glyph glyph-name="igrave" unicode="&#xec;" horiz-adv-x="333" 
d="M72 0v502h190v-502h-190zM-65 720v2h208l104 -145h-118z" />
    <glyph glyph-name="iacute" unicode="&#xed;" horiz-adv-x="333" 
d="M72 0v502h190v-502h-190zM204 577h-118l104 145h208v-2z" />
    <glyph glyph-name="icircumflex" unicode="&#xee;" horiz-adv-x="333" 
d="M72 0v502h190v-502h-190zM166 654l-74 -77h-128l118 145h169l119 -145h-130z" />
    <glyph glyph-name="idieresis" unicode="&#xef;" horiz-adv-x="333" 
d="M72 0v502h190v-502h-190zM213 577v145h170v-145h-170zM-49 577v145h170v-145h-170z" />
    <glyph glyph-name="eth" unicode="&#xf0;" 
d="M233 251q0 -27 4 -54.5t14.5 -50t29.5 -37t49 -14.5q27 0 44.5 14.5t27.5 37t14 50t4 54.5q0 23 -4 46.5t-14 42t-27.5 30.5t-44.5 12q-30 0 -49 -12t-29.5 -30.5t-14.5 -42t-4 -46.5zM615 320q5 -102 -20.5 -167t-68 -102.5t-94.5 -51.5t-102 -14q-59 0 -112 15.5
t-93 48t-63.5 83t-23.5 119.5q0 71 28.5 118.5t76.5 75.5t111.5 39t133.5 8q-14 21 -33.5 40t-45.5 36l-95 -62l-32 48l70 46q-26 16 -59 29t-71 19l52 74q66 -7 109.5 -19.5t79.5 -30.5l77 50l32 -47l-54 -35q45 -31 81 -69t61 -79.5t39 -85.5t16 -86z" />
    <glyph glyph-name="ntilde" unicode="&#xf1;" 
d="M256 447q32 38 70.5 54t86.5 16q41 0 75 -12.5t59.5 -36t39.5 -57t14 -75.5v-336h-190v295q-1 18 -4 36.5t-11 33t-22 23.5t-36 9q-35 0 -52.5 -16t-24 -36t-6 -37.5t0.5 -19.5v-288h-190v373q0 34 -1 61t-5 68h193zM139 576q2 28 13 54.5t30 46.5t44 32.5t54 12.5
q23 0 50 -6.5t53 -14.5t47.5 -14.5t35.5 -6.5t21.5 14t10.5 25h81q-2 -25 -13.5 -50.5t-29.5 -45.5q-18 -21 -41.5 -34t-50.5 -13q-24 0 -49 6t-49 14q-23 8 -45 14t-41 6q-20 0 -29.5 -11.5t-14.5 -28.5h-77z" />
    <glyph glyph-name="ograve" unicode="&#xf2;" 
d="M237 251q0 -27 4 -54.5t14.5 -50t29.5 -37t49 -14.5t49 14.5t29.5 37t14.5 50t4 54.5t-4 54.5t-14.5 50t-29.5 37t-49 14.5t-49 -14.5t-29.5 -37t-14.5 -50t-4 -54.5zM334 517q59 0 112 -15.5t93 -48t63.5 -83t23.5 -119.5t-23.5 -119.5t-63.5 -83t-93 -48t-112 -15.5
t-112 15.5t-93 48t-63.5 83t-23.5 119.5t23.5 119.5t63.5 83t93 48t112 15.5zM102 720v2h208l104 -145h-118z" />
    <glyph glyph-name="oacute" unicode="&#xf3;" 
d="M237 251q0 -27 4 -54.5t14.5 -50t29.5 -37t49 -14.5t49 14.5t29.5 37t14.5 50t4 54.5t-4 54.5t-14.5 50t-29.5 37t-49 14.5t-49 -14.5t-29.5 -37t-14.5 -50t-4 -54.5zM334 517q59 0 112 -15.5t93 -48t63.5 -83t23.5 -119.5t-23.5 -119.5t-63.5 -83t-93 -48t-112 -15.5
t-112 15.5t-93 48t-63.5 83t-23.5 119.5t23.5 119.5t63.5 83t93 48t112 15.5zM371 577h-118l104 145h208v-2z" />
    <glyph glyph-name="ocircumflex" unicode="&#xf4;" 
d="M237 251q0 -27 4 -54.5t14.5 -50t29.5 -37t49 -14.5t49 14.5t29.5 37t14.5 50t4 54.5t-4 54.5t-14.5 50t-29.5 37t-49 14.5t-49 -14.5t-29.5 -37t-14.5 -50t-4 -54.5zM334 517q59 0 112 -15.5t93 -48t63.5 -83t23.5 -119.5t-23.5 -119.5t-63.5 -83t-93 -48t-112 -15.5
t-112 15.5t-93 48t-63.5 83t-23.5 119.5t23.5 119.5t63.5 83t93 48t112 15.5zM345 654l-74 -77h-128l118 145h169l119 -145h-130z" />
    <glyph glyph-name="otilde" unicode="&#xf5;" 
d="M237 251q0 -27 4 -54.5t14.5 -50t29.5 -37t49 -14.5t49 14.5t29.5 37t14.5 50t4 54.5t-4 54.5t-14.5 50t-29.5 37t-49 14.5t-49 -14.5t-29.5 -37t-14.5 -50t-4 -54.5zM334 517q59 0 112 -15.5t93 -48t63.5 -83t23.5 -119.5t-23.5 -119.5t-63.5 -83t-93 -48t-112 -15.5
t-112 15.5t-93 48t-63.5 83t-23.5 119.5t23.5 119.5t63.5 83t93 48t112 15.5zM139 576q2 28 13 54.5t30 46.5t44 32.5t54 12.5q23 0 50 -6.5t53 -14.5t47.5 -14.5t35.5 -6.5t21.5 14t10.5 25h81q-2 -25 -13.5 -50.5t-29.5 -45.5q-18 -21 -41.5 -34t-50.5 -13q-24 0 -49 6
t-49 14q-23 8 -45 14t-41 6q-20 0 -29.5 -11.5t-14.5 -28.5h-77z" />
    <glyph glyph-name="odieresis" unicode="&#xf6;" 
d="M237 251q0 -27 4 -54.5t14.5 -50t29.5 -37t49 -14.5t49 14.5t29.5 37t14.5 50t4 54.5t-4 54.5t-14.5 50t-29.5 37t-49 14.5t-49 -14.5t-29.5 -37t-14.5 -50t-4 -54.5zM334 517q59 0 112 -15.5t93 -48t63.5 -83t23.5 -119.5t-23.5 -119.5t-63.5 -83t-93 -48t-112 -15.5
t-112 15.5t-93 48t-63.5 83t-23.5 119.5t23.5 119.5t63.5 83t93 48t112 15.5zM380 577v145h170v-145h-170zM118 577v145h170v-145h-170z" />
    <glyph glyph-name="divide" unicode="&#xf7;" horiz-adv-x="660" 
d="M78 191v120h504v-120h-504zM270 0v120h120v-120h-120zM270 382v120h120v-120h-120z" />
    <glyph glyph-name="oslash" unicode="&#xf8;" 
d="M404 370q-11 17 -28 27t-42 10q-30 0 -49 -14.5t-29.5 -37t-14.5 -50t-4 -54.5q0 -19 1.5 -37.5t6.5 -35.5zM275 120q20 -25 59 -25q30 0 49 14.5t29.5 37t14.5 50t4 54.5q0 13 -1 26t-3 27zM69 -36l67 81q-43 32 -68.5 83t-25.5 123q0 69 23.5 119.5t63.5 83t93 48
t112 15.5q44 0 85 -8.5t76 -27.5l62 75l48 -37l-59 -72q38 -33 59 -81.5t21 -114.5q0 -69 -23.5 -119.5t-63.5 -83t-93 -48t-112 -15.5q-40 0 -77 7t-69 23l-72 -87z" />
    <glyph glyph-name="ugrave" unicode="&#xf9;" 
d="M411 55q-32 -38 -70.5 -54t-86.5 -16q-40 0 -74.5 12.5t-60 36t-39.5 57t-14 75.5v336h190v-295q1 -18 4 -36.5t11 -33t22 -23.5t36 -9q35 0 52.5 16t24 36t6 37.5t-0.5 19.5v288h190v-373q0 -34 1 -61t5 -68h-193zM102 720v2h208l104 -145h-118z" />
    <glyph glyph-name="uacute" unicode="&#xfa;" 
d="M411 55q-32 -38 -70.5 -54t-86.5 -16q-40 0 -74.5 12.5t-60 36t-39.5 57t-14 75.5v336h190v-295q1 -18 4 -36.5t11 -33t22 -23.5t36 -9q35 0 52.5 16t24 36t6 37.5t-0.5 19.5v288h190v-373q0 -34 1 -61t5 -68h-193zM371 577h-118l104 145h208v-2z" />
    <glyph glyph-name="ucircumflex" unicode="&#xfb;" 
d="M411 55q-32 -38 -70.5 -54t-86.5 -16q-40 0 -74.5 12.5t-60 36t-39.5 57t-14 75.5v336h190v-295q1 -18 4 -36.5t11 -33t22 -23.5t36 -9q35 0 52.5 16t24 36t6 37.5t-0.5 19.5v288h190v-373q0 -34 1 -61t5 -68h-193zM333 654l-74 -77h-128l118 145h169l119 -145h-130z" />
    <glyph glyph-name="udieresis" unicode="&#xfc;" 
d="M411 55q-32 -38 -70.5 -54t-86.5 -16q-40 0 -74.5 12.5t-60 36t-39.5 57t-14 75.5v336h190v-295q1 -18 4 -36.5t11 -33t22 -23.5t36 -9q35 0 52.5 16t24 36t6 37.5t-0.5 19.5v288h190v-373q0 -34 1 -61t5 -68h-193zM380 577v145h170v-145h-170zM118 577v145h170v-145
h-170z" />
    <glyph glyph-name="yacute" unicode="&#xfd;" horiz-adv-x="611" 
d="M595 502l-273 -694h-175l71 177l-210 517h203l99 -349h2l108 349h175zM343 577h-118l104 145h208v-2z" />
    <glyph glyph-name="thorn" unicode="&#xfe;" 
d="M246 431h2q29 45 68 65.5t95 20.5t96.5 -22t66.5 -58t38.5 -82.5t12.5 -96.5q0 -55 -14 -104.5t-43 -87t-73.5 -59.5t-104.5 -22q-42 0 -79 21t-63 54h-2v-252h-190v914h190v-291zM338 407q-30 0 -48 -15.5t-28 -38.5t-13 -50.5t-3 -51.5t3 -51.5t13 -50.5t28 -38.5
t48 -15.5t48 15.5t28 38.5t13 50.5t3 51.5t-3 51.5t-13 50.5t-28 38.5t-48 15.5z" />
    <glyph glyph-name="ydieresis" unicode="&#xff;" horiz-adv-x="611" 
d="M595 502l-273 -694h-175l71 177l-210 517h203l99 -349h2l108 349h175zM352 577v145h170v-145h-170zM90 577v145h170v-145h-170z" />
    <glyph glyph-name="dotlessi" unicode="&#x131;" horiz-adv-x="333" 
d="M72 0v502h190v-502h-190z" />
    <glyph glyph-name="Lslash" unicode="&#x141;" horiz-adv-x="611" 
d="M67 0v320l-80 -31v86l80 31v316h200v-237l80 32v-86l-80 -32v-259h327v-140h-527z" />
    <glyph glyph-name="lslash" unicode="&#x142;" horiz-adv-x="333" 
d="M72 0v295l-96 -39v92l96 39v335h190v-259l96 39v-92l-96 -39v-371h-190z" />
    <glyph glyph-name="OE" unicode="&#x152;" horiz-adv-x="1000" 
d="M673 433h248v-140h-248v-153h278v-140h-550q-84 0 -152.5 25.5t-117.5 73t-75.5 115.5t-26.5 152q0 51 12.5 101t38 94.5t63 79.5t87.5 54q50 20 97.5 23.5t100.5 3.5h514v-140h-269v-149zM473 591q-14 2 -29 4t-29 2q-49 0 -82.5 -18.5t-54.5 -50t-30 -74.5t-9 -92
q0 -42 9 -83.5t30 -75t54.5 -54.5t82.5 -21q14 0 29 2t29 4v457z" />
    <glyph glyph-name="oe" unicode="&#x153;" horiz-adv-x="1000" 
d="M233 251q0 -27 4 -54.5t14.5 -50t29.5 -37t49 -14.5t49 14.5t29.5 37t14.5 50t4 54.5t-4 54.5t-14.5 50t-29.5 37t-49 14.5t-49 -14.5t-29.5 -37t-14.5 -50t-4 -54.5zM787 315q0 43 -23 75q-11 16 -27.5 25t-38.5 7q-25 -1 -41 -10t-25.5 -23.5t-14 -33.5t-6.5 -40h176z
M38 251q0 69 23.5 119.5t63.5 83t93 48t112 15.5q55 0 108 -17t98 -65q18 25 39.5 41t43 25t42 12.5t37.5 3.5q77 0 128.5 -21t82.5 -60.5t44.5 -96t13.5 -126.5h-360q0 -24 3.5 -45.5t14 -37.5t27.5 -25.5t44 -9.5q81 0 91 69h180q-3 -49 -29.5 -83t-61.5 -55t-78.5 -31
t-88.5 -10q-66 0 -114.5 24.5t-72.5 65.5q-49 -56 -97 -73t-95 -17q-59 0 -112 15.5t-93 48t-63.5 83t-23.5 119.5z" />
    <glyph glyph-name="Scaron" unicode="&#x160;" horiz-adv-x="722" 
d="M454 510q1 41 -26 64q-26 23 -77 23q-35 0 -60.5 -19.5t-25.5 -46.5q0 -20 11 -33.5t28 -23t37.5 -16t40.5 -11.5q45 -12 97.5 -23t96.5 -34.5t73.5 -65.5t29.5 -115q0 -57 -26 -99t-70 -70t-101 -41.5t-120 -13.5t-120.5 10.5t-101 38.5t-70 75.5t-27.5 120.5h200
q-1 -51 33 -78t88 -27q17 0 35.5 4.5t34 13.5t25.5 22.5t10 31.5q0 37 -25.5 54.5t-68 29.5t-97.5 24t-114 38q-55 24 -82 70.5t-27 105.5q3 64 30.5 106t70.5 67t97 35t111 10q56 0 110 -11t95.5 -37t65.5 -70t19 -109h-200zM286 930l76 -78l75 78h127l-120 -144h-167
l-118 142l2 2h125z" />
    <glyph glyph-name="scaron" unicode="&#x161;" horiz-adv-x="556" 
d="M331 347q0 13 -2.5 23.5t-9.5 18.5q-8 8 -20 13t-32 5q-21 0 -33 -11.5t-12 -33.5q0 -14 14 -21.5t39.5 -14.5t61.5 -14.5t81 -21.5t73 -45t28 -93q0 -50 -21.5 -82.5t-55.5 -51t-77 -26t-86 -7.5q-46 0 -90 6.5t-77.5 25.5t-54 54t-20.5 92h180q-5 -24 13 -45
q8 -10 19.5 -16.5t25.5 -6.5q28 0 46 11t18 35q0 22 -22 34.5t-55 21.5t-71.5 18.5t-71.5 26t-55 44.5t-22 73q0 47 22 77.5t56.5 48.5t75.5 25t78 7q45 0 86.5 -7t74 -26t53 -52t23.5 -85h-180zM203 710l76 -78l75 78h127l-120 -144h-167l-118 142l2 2h125z" />
    <glyph glyph-name="Ydieresis" unicode="&#x178;" horiz-adv-x="778" 
d="M286 264l-276 458h232l158 -303l163 303h206l-283 -458v-264h-200v264zM436 797v145h170v-145h-170zM174 797v145h170v-145h-170z" />
    <glyph glyph-name="Zcaron" unicode="&#x17d;" 
d="M26 0v140l380 442h-360v140h545v-180l-349 -402h400v-140h-616zM258 930l76 -78l75 78h127l-120 -144h-167l-118 142l2 2h125z" />
    <glyph glyph-name="zcaron" unicode="&#x17e;" horiz-adv-x="556" 
d="M55 382v120h444v-120l-264 -262h276v-120h-466v120l260 262h-250zM203 710l76 -78l75 78h127l-120 -144h-167l-118 142l2 2h125z" />
    <glyph glyph-name="florin" unicode="&#x192;" 
d="M507 303h-94l-59 -311q-9 -54 -26.5 -90.5t-43.5 -58.5t-62 -31.5t-83 -9.5q-27 0 -54 1.5t-53 6.5l24 122q16 -1 31 -1t27.5 4.5t21.5 15.5t13 33l65 319h-97l25 130h94q13 53 21.5 102t30.5 87.5t65 61.5t125 23q24 0 48.5 -1.5t47.5 -5.5l-23 -126q-41 8 -61.5 -2.5
t-30 -31.5t-13 -49.5t-11.5 -57.5h96z" />
    <glyph glyph-name="circumflex" unicode="&#x2c6;" horiz-adv-x="333" 
d="M166 654l-74 -77h-128l118 145h169l119 -145h-130z" />
    <glyph glyph-name="caron" unicode="&#x2c7;" horiz-adv-x="333" 
d="M91 710l76 -78l75 78h127l-120 -144h-167l-118 142l2 2h125z" />
    <glyph glyph-name="breve" unicode="&#x2d8;" horiz-adv-x="333" 
d="M54 722q5 -22 17 -36t28.5 -21t36.5 -9.5t39 -2.5q35 0 65.5 16.5t41.5 52.5h78q-5 -41 -22 -70t-43 -48t-60 -27.5t-73 -8.5q-37 0 -70.5 9t-59 27.5t-41 48t-18.5 69.5h81z" />
    <glyph glyph-name="dotaccent" unicode="&#x2d9;" horiz-adv-x="333" 
d="M82 577v145h170v-145h-170z" />
    <glyph glyph-name="ring" unicode="&#x2da;" horiz-adv-x="333" 
d="M167 542q-22 0 -41.5 8.5t-34.5 23t-23.5 34t-8.5 41.5t8.5 41.5t23.5 34.5t34.5 23.5t41.5 8.5t41.5 -8.5t34.5 -23.5t23.5 -34.5t8.5 -41.5t-8.5 -41.5t-23.5 -34t-34.5 -23t-41.5 -8.5zM215 649q0 22 -13 33t-35 15q-18 0 -33 -15t-15 -33t15 -32.5t33 -14.5
q22 0 35 14.5t13 32.5z" />
    <glyph glyph-name="ogonek" unicode="&#x2db;" horiz-adv-x="333" 
d="M245 -169q-22 -8 -50.5 -15t-56.5 -7q-19 0 -40 5t-37.5 16t-27.5 28.5t-11 43.5q0 18 13 34t32.5 28.5t42.5 21.5t43 14h89v-2q-53 -18 -85.5 -41t-32.5 -46q0 -16 11.5 -26t34.5 -10q33 0 75 20v-64z" />
    <glyph glyph-name="tilde" unicode="&#x2dc;" horiz-adv-x="333" 
d="M-28 576q2 28 13 54.5t30 46.5t44 32.5t54 12.5q23 0 50 -6.5t53 -14.5t47.5 -14.5t35.5 -6.5t21.5 14t10.5 25h81q-2 -25 -13.5 -50.5t-29.5 -45.5q-18 -21 -41.5 -34t-50.5 -13q-24 0 -49 6t-49 14q-23 8 -45 14t-41 6q-20 0 -29.5 -11.5t-14.5 -28.5h-77z" />
    <glyph glyph-name="hungarumlaut" unicode="&#x2dd;" 
d="M357 722v-2l-234 -143h-80l111 145h203zM624 722v-2l-234 -143h-80l111 145h203z" />
    <glyph glyph-name="endash" unicode="&#x2013;" horiz-adv-x="500" 
d="M0 207v120h500v-120h-500z" />
    <glyph glyph-name="emdash" unicode="&#x2014;" horiz-adv-x="1000" 
d="M0 207v120h1000v-120h-1000z" />
    <glyph glyph-name="quoteleft" unicode="&#x2018;" horiz-adv-x="333" 
d="M215 455h-188l118 267h136z" />
    <glyph glyph-name="quoteright" unicode="&#x2019;" horiz-adv-x="333" 
d="M118 722h188l-118 -267h-136z" />
    <glyph glyph-name="quotesinglbase" unicode="&#x201a;" horiz-adv-x="333" 
d="M110 140h174l-106 -236h-128z" />
    <glyph glyph-name="quotedblleft" unicode="&#x201c;" 
d="M276 486h-174l106 236h128zM514 486h-174l106 236h128z" />
    <glyph glyph-name="quotedblright" unicode="&#x201d;" 
d="M153 722h174l-106 -236h-128zM391 722h174l-106 -236h-128z" />
    <glyph glyph-name="quotedblbase" unicode="&#x201e;" 
d="M153 140h174l-106 -236h-128zM391 140h174l-106 -236h-128z" />
    <glyph glyph-name="dagger" unicode="&#x2020;" 
d="M249 436h-161v130h161v156h170v-156h161v-130h-161v-436h-170v436z" />
    <glyph glyph-name="daggerdbl" unicode="&#x2021;" 
d="M88 150v130h161v164h-161v130h161v148h170v-148h161v-130h-161v-164h161v-130h-161v-150h-170v150h-161z" />
    <glyph glyph-name="bullet" unicode="&#x2022;" horiz-adv-x="500" 
d="M431 361q0 -37 -14 -70t-39 -58t-57.5 -39t-70.5 -14q-37 0 -70 14t-57.5 39t-38.5 58t-14 70q0 38 14 70.5t38.5 57t57.5 38.5t70 14q38 0 70.5 -14t57.5 -38.5t39 -57t14 -70.5z" />
    <glyph glyph-name="ellipsis" unicode="&#x2026;" horiz-adv-x="1000" 
d="M77 0v150h180v-150h-180zM410 0v150h180v-150h-180zM743 0v150h180v-150h-180z" />
    <glyph glyph-name="perthousand" unicode="&#x2030;" horiz-adv-x="1000" 
d="M501 -15q-41 0 -69 15t-44.5 39.5t-23.5 55.5t-7 62t7 62t23.5 55.5t44.5 39.5t69 15t69 -15t44.5 -39.5t23.5 -55.5t7 -62t-7 -62t-23.5 -55.5t-44.5 -39.5t-69 -15zM501 65q15 0 23 12.5t11.5 28.5t4 31t0.5 20t-0.5 20t-4 31t-11.5 28.5t-23 12.5t-23 -12.5
t-11.5 -28.5t-4 -31t-0.5 -20t0.5 -20t4 -31t11.5 -28.5t23 -12.5zM842 -15q-41 0 -69 15t-44.5 39.5t-23.5 55.5t-7 62t7 62t23.5 55.5t44.5 39.5t69 15t69 -15t44.5 -39.5t23.5 -55.5t7 -62t-7 -62t-23.5 -55.5t-44.5 -39.5t-69 -15zM842 65q15 0 23 12.5t11.5 28.5t4 31
t0.5 20t-0.5 20t-4 31t-11.5 28.5t-23 12.5t-23 -12.5t-11.5 -28.5t-4 -31t-0.5 -20t0.5 -20t4 -31t11.5 -28.5t23 -12.5zM159 363q-41 0 -69 15t-44.5 39.5t-23.5 55.5t-7 62t7 62t23.5 55.5t44.5 39.5t69 15t69 -15t44.5 -39.5t23.5 -55.5t7 -62t-7 -62t-23.5 -55.5
t-44.5 -39.5t-69 -15zM55 0l428 707h91l-426 -707h-93zM159 443q15 0 23 12.5t11.5 28.5t4 31t0.5 20t-0.5 20t-4 31t-11.5 28.5t-23 12.5t-23 -12.5t-11.5 -28.5t-4 -31t-0.5 -20t0.5 -20t4 -31t11.5 -28.5t23 -12.5z" />
    <glyph glyph-name="guilsinglleft" unicode="&#x2039;" horiz-adv-x="333" 
d="M151 72l-123 195l126 195h152l-118 -195l116 -195h-153z" />
    <glyph glyph-name="guilsinglright" unicode="&#x203a;" horiz-adv-x="333" 
d="M182 462l123 -195l-126 -195h-152l118 195l-116 195h153z" />
    <glyph glyph-name="fraction" unicode="&#x2044;" horiz-adv-x="167" 
d="M-153 0l365 707h109l-365 -707h-109z" />
    <glyph glyph-name="trademark" unicode="&#x2122;" horiz-adv-x="950" 
d="M875 318h-90v326h-2l-117 -326h-52l-117 326h-2v-326h-90v404h146l89 -239l89 239h146v-404zM358 642h-126v-324h-90v324h-127v80h343v-80z" />
    <glyph glyph-name="minus" unicode="&#x2212;" horiz-adv-x="660" 
d="M78 311h504v-120h-504v120z" />
    <glyph glyph-name="fi" unicode="&#xfb01;" horiz-adv-x="722" 
d="M461 0v502h190v-502h-190zM460 588v134h192v-134h-192zM114 0v382h-94v120h96q-2 63 6 107t32 72t65.5 40.5t105.5 12.5q26 0 51 -3.5t51 -8.5v-119q-13 4 -26.5 7.5t-26.5 3.5q-24 0 -38 -9.5t-21.5 -25.5t-9.5 -36t-1 -41h117v-120h-117v-382h-190z" />
    <glyph glyph-name="fl" unicode="&#xfb02;" horiz-adv-x="722" 
d="M461 0v722h190v-722h-190zM114 0v382h-94v120h96q-2 63 6 107t32 72t65.5 40.5t105.5 12.5q26 0 51 -3.5t51 -8.5v-119q-13 4 -26.5 7.5t-26.5 3.5q-24 0 -38 -9.5t-21.5 -25.5t-9.5 -36t-1 -41h117v-120h-117v-382h-190z" />
  </font>
</defs>
</svg>
