<?xml version="1.0" standalone="no"?>
<!DOCTYPE svg PUBLIC "-//W3C//DTD SVG 1.1//EN" "http://www.w3.org/Graphics/SVG/1.1/DTD/svg11.dtd" >
<svg xmlns="http://www.w3.org/2000/svg" xmlns:xlink="http://www.w3.org/1999/xlink" version="1.1">
<metadata>
Created by FontForge 20150318 at Fri Oct  2 20:19:09 2015
 By uniteet7
Copyright (c) 1987, 1991, 1993, 1994, 1999, 2002 Adobe Systems Incorporated.  All Rights Reserved. (c) 1981, 1999, 2002 Heidelberger Druckmaschinen AG. All rights reserved.
</metadata>
<defs>
<font id="UniversLTStdBlack" horiz-adv-x="667" >
  <font-face 
    font-family="UniversLTStdBlack"
    font-weight="850"
    font-stretch="normal"
    units-per-em="1000"
    panose-1="2 11 8 4 3 5 2 2 2 4"
    ascent="724"
    descent="-276"
    x-height="501"
    cap-height="722"
    bbox="-153 -250 992 986"
    underline-thickness="50"
    underline-position="-50"
    unicode-range="U+0020-FB02"
  />
<missing-glyph horiz-adv-x="500" 
d="M0 0v700h500v-700h-500zM250 395l170 255h-340zM280 350l170 -255v510zM80 50h340l-170 255zM50 605v-510l170 255z" />
    <glyph glyph-name="fi" unicode="fi" horiz-adv-x="722" 
d="M651 0h-190v502h190v-502zM652 588h-192v134h192v-134zM304 0h-190v382h-94v120h96q-5 129 39 180.5t170 51.5q44 0 102 -12v-119q-37 11 -53 11q-30 0 -46.5 -17.5t-20.5 -39.5t-3 -55h117v-120h-117v-382z" />
    <glyph glyph-name="fl" unicode="fl" horiz-adv-x="722" 
d="M651 0h-190v722h190v-722zM304 0h-190v382h-94v120h96q-5 129 39 180.5t170 51.5q44 0 102 -12v-119q-37 11 -53 11q-30 0 -46.5 -17.5t-20.5 -39.5t-3 -55h117v-120h-117v-382z" />
    <glyph glyph-name=".notdef" horiz-adv-x="500" 
d="M0 0v700h500v-700h-500zM250 395l170 255h-340zM280 350l170 -255v510zM80 50h340l-170 255zM50 605v-510l170 255z" />
    <glyph glyph-name=".null" horiz-adv-x="0" 
 />
    <glyph glyph-name="nonmarkingreturn" horiz-adv-x="333" 
 />
    <glyph glyph-name="space" unicode=" " horiz-adv-x="333" 
 />
    <glyph glyph-name="exclam" unicode="!" horiz-adv-x="444" 
d="M111 722h216l-35 -507h-144zM133 0v149h176v-149h-176z" />
    <glyph glyph-name="quotedbl" unicode="&#x22;" horiz-adv-x="500" 
d="M208 427h-99l-29 266h157zM405 427h-98l-29 266h156z" />
    <glyph glyph-name="numbersign" unicode="#" 
d="M215 693h139l-32 -174h89l32 174h139l-32 -174h81v-119h-103l-21 -115h80v-119h-102l-31 -166h-139l30 166h-89l-30 -166h-140l31 166h-81v119h103l22 115h-81v119h103zM278 285h89l22 115h-89z" />
    <glyph glyph-name="dollar" unicode="$" 
d="M42 207h180q1 -15 3 -26t8.5 -26.5t22 -27t39.5 -17.5v153l-63 17q-29 8 -46 13.5t-45.5 20t-45 32t-29.5 48.5t-13 70q0 37 13.5 70.5t41 63t76 47.5t111.5 20v90h59v-90q72 -3 120.5 -20t73 -46.5t34 -62t9.5 -76.5h-182q0 24 -6 42t-16 26.5t-17.5 12t-15.5 4.5v-143
q90 -20 130.5 -33.5t72.5 -40.5q58 -49 58 -132q0 -19 -4 -39t-15 -46t-36 -50.5t-61 -42.5q-51 -25 -145 -31v-89h-59v89q-35 1 -65.5 6.5t-66.5 20.5t-61 37.5t-42.5 63t-17.5 92.5zM295 418v128q-57 -15 -57 -64q0 -23 16 -40.5t41 -23.5zM354 250v-142q37 6 55.5 26
t18.5 47q0 51 -58 64z" />
    <glyph glyph-name="percent" unicode="%" horiz-adv-x="1000" 
d="M67 536q0 202 173 202q83 0 128 -49q44 -51 44 -150t-37 -148q-48 -63 -136 -63q-79 0 -125 50q-47 51 -47 158zM193 523q0 -35 4 -58t12 -32t14.5 -12t15.5 -3q26 0 36 25t10 90q0 74 -11 96.5t-34 22.5q-15 0 -24 -7t-16 -36.5t-7 -85.5zM617 208q0 203 173 203
q83 0 127 -50q45 -50 45 -150q0 -97 -37 -148q-48 -63 -136 -63q-78 0 -125 50q-47 52 -47 158zM743 196q0 -46 8 -71t16 -30t21 -5q26 0 36.5 25.5t10.5 90.5q0 73 -11 95.5t-34 22.5q-15 0 -24 -6.5t-16 -36t-7 -85.5zM649 750h107l-375 -762h-111z" />
    <glyph glyph-name="ampersand" unicode="&#x26;" horiz-adv-x="889" 
d="M667 398h173q-3 -72 -26 -127.5t-81 -115.5l146 -155h-243l-43 47q-32 -18 -54.5 -28.5t-75 -21.5t-116.5 -11q-189 0 -260 91q-43 56 -43 121q0 43 16 77t47.5 57.5t52 34.5t54.5 25q-20 17 -30.5 28t-30 34.5t-29.5 51.5t-10 58q0 88 77 132t194 44q28 0 54.5 -2.5
t67 -13t69.5 -28t50.5 -52.5t21.5 -82q0 -36 -11 -65.5t-35 -54.5t-41 -38t-49 -35l103 -102q49 61 52 131zM383 476q13 7 28.5 18t32.5 33t17 44q0 27 -21.5 43t-53.5 16t-53.5 -16.5t-21.5 -42.5q0 -11 3 -19.5t19.5 -28.5t49.5 -47zM478 153l-134 132q-90 -41 -90 -92
q0 -32 29.5 -58t85.5 -26q72 0 109 44z" />
    <glyph glyph-name="quotesingle" unicode="'" horiz-adv-x="333" 
d="M216 427h-99l-29 266h157z" />
    <glyph glyph-name="parenleft" unicode="(" horiz-adv-x="333" 
d="M166 753h130q-54 -184 -71 -266.5t-17 -169.5q0 -92 18 -187t71 -252h-132q-33 73 -53.5 123.5t-42.5 140.5t-22 170q0 73 21.5 162t42 142.5t55.5 136.5z" />
    <glyph glyph-name="parenright" unicode=")" horiz-adv-x="333" 
d="M167 -122h-130q54 183 71 266.5t17 170.5q0 92 -18 186.5t-71 251.5h132q33 -71 53.5 -122t42.5 -141t22 -170q0 -73 -21.5 -162.5t-41.5 -142t-56 -137.5z" />
    <glyph glyph-name="asterisk" unicode="*" horiz-adv-x="556" 
d="M275 597l42 138l109 -68l-93 -102l137 30v-129l-134 31l95 -110l-114 -61l-43 135l-44 -136l-107 63l93 109l-137 -29v127l139 -30l-94 105l107 64z" />
    <glyph glyph-name="plus" unicode="+" horiz-adv-x="660" 
d="M259 0v199h-198v140h198v199h143v-199h197v-140h-197v-199h-143z" />
    <glyph glyph-name="comma" unicode="," horiz-adv-x="333" 
d="M89 149h188l-118 -268h-136z" />
    <glyph glyph-name="hyphen" unicode="-" horiz-adv-x="333" 
d="M22 323h284v-119h-284v119z" />
    <glyph glyph-name="period" unicode="." horiz-adv-x="333" 
d="M72 0v149h176v-149h-176z" />
    <glyph glyph-name="slash" unicode="/" horiz-adv-x="278" 
d="M95 -16h-126l220 743h125z" />
    <glyph glyph-name="zero" unicode="0" 
d="M30 350q0 175 83 274q73 89 213 89q150 0 221 -90q82 -98 82 -272q0 -163 -72 -264t-228 -101q-139 0 -212 84q-87 100 -87 280zM226 347q0 -119 21.5 -174t80.5 -55q53 0 77 41q30 54 30 184q0 105 -17 167q-20 71 -87 71q-24 0 -40.5 -7.5t-32.5 -30t-24 -71.5t-8 -125
z" />
    <glyph glyph-name="one" unicode="1" 
d="M277 0v515q-35 -29 -85.5 -53t-83.5 -33v154q63 20 105 42.5t95 68.5h162v-694h-193z" />
    <glyph glyph-name="two" unicode="2" 
d="M35 0v144q146 108 226 174t115 115q25 40 25 79q0 41 -23.5 55.5t-51.5 14.5q-26 0 -43.5 -9t-25 -25.5t-10 -25t-3.5 -21.5h-195q0 74 50 134q66 80 237 80q161 0 227 -85q37 -47 37 -112q0 -42 -17.5 -83t-40.5 -72t-74 -74.5t-86.5 -70.5t-109.5 -80h330v-138h-567z
" />
    <glyph glyph-name="three" unicode="3" 
d="M25 200h194q4 -84 101 -84q58 0 83 27t25 65q0 89 -146 89q-29 0 -55 -2v124q67 -3 105 3q30 4 49.5 17t26 29.5t8.5 25t2 16.5q0 36 -26 57t-68 21q-85 0 -89 -80h-193q4 104 83.5 156t205.5 52q131 0 204 -51.5t73 -132.5q0 -64 -45 -111t-116 -54v-5q175 -19 175 -169
q0 -94 -73 -147q-80 -59 -227 -59q-168 0 -244 80q-48 50 -53 133z" />
    <glyph glyph-name="four" unicode="4" 
d="M352 0v138h-335v163l293 396h222v-432h112v-127h-112v-138h-180zM146 265h209v285z" />
    <glyph glyph-name="five" unicode="5" 
d="M49 198h191q1 -38 25 -58.5t61 -20.5q55 0 80 45q15 30 15 73q0 47 -21.5 77.5t-68.5 30.5q-34 0 -54.5 -18t-24.5 -43l-192 2l14 407h500v-136h-326l-12 -170q27 44 72 65q41 21 93 21q86 0 150.5 -56.5t64.5 -172.5q0 -123 -76 -193q-71 -66 -204 -66q-165 0 -237 79
q-47 51 -50 134z" />
    <glyph glyph-name="six" unicode="6" 
d="M596 522h-183q-4 42 -34 61q-19 12 -45 12q-68 0 -99 -79q-16 -40 -16 -135q59 87 178 87q104 0 167 -62t63 -165q0 -69 -26.5 -120.5t-70 -79.5t-91 -41.5t-97.5 -13.5q-165 0 -239 112q-66 98 -66 250q0 72 15.5 134t49.5 115.5t96.5 84.5t147.5 31q32 0 61.5 -4
t64 -16.5t60.5 -32.5t44 -55.5t20 -82.5zM451 232q0 15 -3 30t-12 37t-32.5 36t-58.5 14q-52 0 -81.5 -32.5t-29.5 -87.5q0 -60 31 -87t76 -27q52 0 81 32t29 85z" />
    <glyph glyph-name="seven" unicode="7" 
d="M46 550v141h551v-140l-261 -551h-223l287 550h-354z" />
    <glyph glyph-name="eight" unicode="8" 
d="M214 365v3q-68 7 -112 48t-44 110q0 87 69 135q74 51 206 51q171 0 237 -89q31 -40 31 -94q0 -53 -35.5 -100t-115.5 -62v-5q84 -9 130 -54t46 -115q0 -93 -71 -150t-217 -57q-161 0 -234 58t-73 144q0 67 45.5 114.5t137.5 62.5zM330 426q31 0 51.5 10.5t29 26.5t11 27
t2.5 21q0 32 -22.5 58.5t-72.5 26.5q-40 0 -67 -21.5t-27 -62.5q0 -38 23 -62t72 -24zM329 111q62 0 89 29t27 67q0 42 -29.5 70.5t-88.5 28.5q-58 0 -85.5 -29.5t-27.5 -68.5q0 -36 25.5 -66.5t89.5 -30.5z" />
    <glyph glyph-name="nine" unicode="9" 
d="M36 178h184q1 -30 26 -49.5t66 -19.5q31 0 53 10.5t35 27.5t20 46t9.5 57.5t3.5 70.5q-62 -71 -162 -71q-114 0 -177 63q-63 65 -63 160q0 107 79.5 174t209.5 67q198 0 265 -159q38 -90 38 -210q0 -167 -75 -262q-78 -99 -241 -99q-153 0 -228 78q-38 40 -43 116z
M317 369q54 0 82 29.5t28 78.5q0 43 -25.5 76.5t-82.5 33.5q-53 0 -80.5 -30t-27.5 -78q0 -45 25.5 -77.5t80.5 -32.5z" />
    <glyph glyph-name="colon" unicode=":" horiz-adv-x="333" 
d="M79 0v149h176v-149h-176zM79 352v149h176v-149h-176z" />
    <glyph glyph-name="semicolon" unicode=";" horiz-adv-x="333" 
d="M79 352v149h174v-149h-174zM89 149h188l-118 -268h-136z" />
    <glyph glyph-name="less" unicode="&#x3c;" horiz-adv-x="660" 
d="M61 196v146l538 209v-150l-371 -132l371 -131v-152z" />
    <glyph glyph-name="equal" unicode="=" horiz-adv-x="660" 
d="M61 317v141h538v-141h-538zM61 80v141h538v-141h-538z" />
    <glyph glyph-name="greater" unicode="&#x3e;" horiz-adv-x="660" 
d="M599 196l-537 -210v152l370 131l-370 132v150l537 -209v-146z" />
    <glyph glyph-name="question" unicode="?" horiz-adv-x="556" 
d="M74 595v130q83 15 160 15q51 0 95.5 -7.5t90 -27t72 -60t26.5 -98.5q0 -19 -1 -29.5t-8 -30.5t-21.5 -37t-42.5 -42.5t-69 -54.5q-29 -21 -42.5 -39t-15.5 -30t-2 -37v-54h-157v96q-1 20 5 32.5t32 39.5l77 80q16 16 23 25t13.5 23.5t6.5 31.5q0 41 -33 66t-99 25
q-55 0 -110 -17zM148 0v149h176v-149h-176z" />
    <glyph glyph-name="at" unicode="@" horiz-adv-x="740" 
d="M676 144l37 -49q-81 -59 -155 -85.5t-159 -26.5q-120 0 -212 53.5t-138 137t-46 181.5q0 163 118 275.5t292 112.5q147 0 247.5 -83.5t100.5 -221.5q0 -106 -62 -184.5t-155 -78.5q-30 0 -58.5 18t-31.5 62q-47 -86 -135 -86q-62 0 -101.5 42.5t-39.5 116.5
q0 94 61 169.5t146 75.5q35 0 64.5 -16t42.5 -46l12 45h109l-59 -203q-16 -61 -16 -68q0 -22 12 -30t25 -8q38 0 76.5 57.5t38.5 138.5q0 114 -80.5 176t-195.5 62q-150 0 -244.5 -95.5t-94.5 -233.5q0 -129 88.5 -218t240.5 -89q145 0 272 99zM459 449q0 22 -13.5 33.5
t-30.5 11.5q-45 0 -76.5 -62t-31.5 -116q0 -36 14 -52t34 -16q35 0 59 47q11 22 28 75t17 79z" />
    <glyph glyph-name="A" unicode="A" horiz-adv-x="833" 
d="M8 0l285 722h244l285 -722h-226l-50 145h-289l-49 -145h-200zM304 278h196l-93 303h-3z" />
    <glyph glyph-name="B" unicode="B" horiz-adv-x="722" 
d="M61 0v722h289q61 0 94 -2t79 -15.5t77 -41.5q55 -50 55 -124q0 -36 -13.5 -65.5t-29.5 -45t-42.5 -28.5t-38 -16.5t-30.5 -8.5v-2q21 -4 36 -7.5t43.5 -16.5t47 -30.5t33 -50t14.5 -74.5q0 -111 -100 -164q-57 -30 -195 -30h-319zM255 591v-160h94q53 0 70 9q38 21 38 70
q0 42 -28 64q-22 17 -65 17h-109zM256 303v-171h111q103 0 103 84q0 87 -109 87h-105z" />
    <glyph glyph-name="C" unicode="C" horiz-adv-x="778" 
d="M732 495h-206q-6 52 -38 76t-79 24q-158 0 -158 -243q0 -18 1 -32.5t5 -44.5t14 -53t26 -46.5t44.5 -36.5t65.5 -13t62.5 11.5t37 31.5t15.5 32.5t6 29.5h208q0 -47 -13.5 -85t-34.5 -62.5t-51 -43.5t-58.5 -29t-62.5 -16t-57.5 -7.5t-47.5 -1.5q-183 0 -274 96
q-93 99 -93 274q0 172 91 275q93 106 274 106q179 0 263 -88q57 -60 60 -154z" />
    <glyph glyph-name="D" unicode="D" horiz-adv-x="833" 
d="M73 0v722h305q187 0 275 -60q136 -93 136 -299q0 -126 -46 -210t-151 -125q-74 -28 -212 -28h-307zM278 585v-446h86q106 1 162 53.5t56 172.5q0 62 -18.5 106.5t-42 65.5t-60.5 32.5t-56 13t-48 1.5z" />
    <glyph glyph-name="E" unicode="E" 
d="M69 0v720h542v-138h-344v-150h324v-138h-324v-154h352v-140h-550z" />
    <glyph glyph-name="F" unicode="F" horiz-adv-x="611" 
d="M71 0v720h511v-139h-312v-168h290v-139h-290v-274h-199z" />
    <glyph glyph-name="G" unicode="G" horiz-adv-x="833" 
d="M764 506h-203q-14 96 -125 96q-65 0 -108.5 -36t-61 -88t-17.5 -117q0 -121 59 -180.5t155 -59.5q48 0 111 12v140h-153v137h341v-386q-168 -40 -319 -40q-170 0 -270 75q-67 50 -100.5 129t-33.5 169q0 76 26 154.5t82 132.5q102 96 299 96q183 0 264 -84
q24 -25 36.5 -57t14.5 -49t3 -44z" />
    <glyph glyph-name="H" unicode="H" horiz-adv-x="778" 
d="M65 0v722h202v-282h241v282h203v-722h-203v292h-242v-292h-201z" />
    <glyph glyph-name="I" unicode="I" horiz-adv-x="333" 
d="M60 0v722h206v-722h-206z" />
    <glyph glyph-name="J" unicode="J" horiz-adv-x="611" 
d="M5 231h199q0 -14 0.5 -22.5t4 -25.5t9.5 -27t20 -18.5t33 -8.5q26 0 42 10.5t22 30.5t7.5 33t1.5 34v485h203v-478q0 -116 -49 -174q-75 -86 -227 -86q-164 0 -233 98q-33 47 -33 149z" />
    <glyph glyph-name="K" unicode="K" horiz-adv-x="778" 
d="M76 0v722h203v-317l231 317h237l-249 -318l269 -404h-248l-240 384v-384h-203z" />
    <glyph glyph-name="L" unicode="L" horiz-adv-x="611" 
d="M67 0v722h203v-580h324v-142h-527z" />
    <glyph glyph-name="M" unicode="M" horiz-adv-x="1000" 
d="M63 0v722h315l120 -489l114 489l314 1l1 -723h-189l9 606l-171 -606h-180l-165 611l5 -611h-173z" />
    <glyph glyph-name="N" unicode="N" horiz-adv-x="833" 
d="M67 0v722h276l244 -538l-2 538h175v-722h-270l-249 561l2 -561h-176z" />
    <glyph glyph-name="O" unicode="O" horiz-adv-x="833" 
d="M40 358q0 25 3 53t12 70.5t30.5 85.5t53.5 75q99 100 282 100q83 0 148 -23.5t105.5 -60.5t66.5 -88.5t36 -103t10 -107.5q0 -83 -23 -149.5t-59.5 -108t-87 -69t-101 -38.5t-105.5 -11q-75 0 -139.5 21.5t-117.5 64.5t-83.5 117.5t-30.5 171.5zM246 359q0 -229 167 -229
t167 232q0 116 -46 183q-38 52 -120 52q-168 0 -168 -238z" />
    <glyph glyph-name="P" unicode="P" horiz-adv-x="722" 
d="M73 0v722h332q129 0 188 -37q102 -62 102 -196q0 -36 -9 -67.5t-21 -52t-28.5 -38t-28 -25.5t-22.5 -14q-56 -31 -182 -31l-130 -1v-260h-201zM274 588v-190h89q26 0 42 2t39 10t35 29.5t12 55.5q0 31 -11 51t-32.5 28.5t-40 11t-45.5 2.5h-88z" />
    <glyph glyph-name="Q" unicode="Q" horiz-adv-x="833" 
d="M820 130v-129q-212 1 -288 -3q-8 0 -43 -2t-67 -3.5t-41 -1.5q-153 0 -246 98.5t-93 254.5q0 139 56 237q28 49 69.5 83t88 49.5t85.5 21.5t79 6q172 0 269 -97q98 -99 98 -256q0 -63 -15 -113.5t-42.5 -84t-43 -47.5t-39.5 -30q71 21 173 17zM246 359q0 -229 167 -229
t167 231q0 117 -46 184q-36 52 -120 52q-168 0 -168 -238z" />
    <glyph glyph-name="R" unicode="R" horiz-adv-x="722" 
d="M65 0v722h334q101 0 146 -10t76 -42q50 -50 50 -140q0 -93 -66 -134q-43 -27 -110 -37v-4q30 -1 52.5 -6t38.5 -11t27.5 -20t18 -24t12.5 -33.5t8 -37.5t7 -45q19 -133 34 -178h-217q-10 38 -24 163q-3 33 -5.5 46.5t-8.5 32t-16 24.5t-27.5 11t-44.5 5h-84v-282h-201z
M266 589v-177h75q66 0 83 6q29 9 41 33.5t12 48.5q0 26 -9.5 43.5t-21 26.5t-33.5 13.5t-35 5t-37 0.5h-75z" />
    <glyph glyph-name="S" unicode="S" horiz-adv-x="722" 
d="M42 230h201q0 -14 1 -23.5t8 -28t18.5 -30t36 -21t58.5 -9.5q10 0 18.5 0.5t26 5t30 12t22.5 24.5t10 40q0 27 -14 44t-48 26l-177 46q-23 6 -38.5 11t-45 20.5t-48 35t-33 54t-14.5 77.5q0 96 76 161t228 65q58 0 105 -9t77 -22.5t52 -35t33.5 -40.5t18 -44.5t8 -41.5
t1.5 -37h-203q0 100 -95 100q-43 0 -69 -21.5t-26 -54.5q0 -24 13.5 -41t26 -22t33.5 -11l135 -35q28 -7 42.5 -11.5t40.5 -14t40.5 -19t33.5 -25.5t29 -34.5t17 -45t7 -58.5q0 -116 -88 -174.5t-231 -58.5q-185 0 -262 86q-52 57 -55 160z" />
    <glyph glyph-name="T" unicode="T" 
d="M230 0v579h-220v143h647v-143h-225v-579h-202z" />
    <glyph glyph-name="U" unicode="U" horiz-adv-x="833" 
d="M72 722h202v-429q0 -75 23 -109q40 -59 123 -59q144 0 144 175v422h195v-418q0 -154 -56 -220q-84 -103 -290 -103q-71 0 -126.5 13t-90.5 31t-60.5 49.5t-37.5 56.5t-18.5 64t-7.5 60t-1 56z" />
    <glyph glyph-name="V" unicode="V" horiz-adv-x="778" 
d="M264 0l-255 722h221l164 -523l173 523h199l-263 -722h-239z" />
    <glyph glyph-name="W" unicode="W" horiz-adv-x="1000" 
d="M131 0l-123 722h199l67 -526l118 526h245l107 -522l67 522h181l-124 -722h-240l-125 535l-133 -535h-239z" />
    <glyph glyph-name="X" unicode="X" horiz-adv-x="833" 
d="M402 257l-160 -257h-234l274 376l-254 346h258l141 -224l146 224h230l-257 -342l270 -380h-256z" />
    <glyph glyph-name="Y" unicode="Y" horiz-adv-x="778" 
d="M6 722h232l158 -303l163 303h206l-282 -467v-255h-202v264z" />
    <glyph glyph-name="Z" unicode="Z" 
d="M17 0v159l360 422h-340v139h588v-154l-372 -426h380v-140h-616z" />
    <glyph glyph-name="bracketleft" unicode="[" horiz-adv-x="333" 
d="M59 -123v878h278v-102h-137v-672h137v-104h-278z" />
    <glyph glyph-name="backslash" unicode="\" horiz-adv-x="278" 
d="M188 -16l-219 743h125l220 -743h-126z" />
    <glyph glyph-name="bracketright" unicode="]" horiz-adv-x="333" 
d="M-14 -123v104h136v672h-136v102h278v-878h-278z" />
    <glyph glyph-name="asciicircum" unicode="^" horiz-adv-x="660" 
d="M84 286l182 436h128l182 -436h-150l-97 265l-95 -265h-150z" />
    <glyph glyph-name="underscore" unicode="_" horiz-adv-x="500" 
d="M0 -125v50h500v-50h-500z" />
    <glyph glyph-name="grave" unicode="`" horiz-adv-x="333" 
d="M136 581l-186 145h208l107 -145h-129z" />
    <glyph glyph-name="a" unicode="a" horiz-adv-x="611" 
d="M560 0h-180q-6 27 -6 72q-55 -82 -165 -82q-88 0 -132.5 43t-44.5 113q0 192 343 178q1 49 -11.5 76.5t-51.5 27.5q-30 0 -49 -18t-18 -58h-180q3 68 39 105q61 63 208 63q135 0 194 -58q44 -43 44 -132v-234q0 -40 10 -96zM374 237q-32 0 -48 -1t-41 -5t-37 -11
t-21.5 -21.5t-9.5 -35.5q0 -29 18.5 -48.5t50.5 -19.5q51 0 74 48q17 36 14 94z" />
    <glyph glyph-name="b" unicode="b" 
d="M61 722h189v-273q53 66 159 66q124 0 186 -105q32 -56 32 -156q0 -128 -65 -198q-62 -67 -158 -67q-103 0 -167 85l-6 -74h-176q6 68 6 125v597zM244 254q0 -19 2.5 -39t11 -48.5t29.5 -46.5t52 -18q94 0 94 153q0 151 -90 151q-32 0 -54 -17.5t-30.5 -46t-11.5 -48.5
t-3 -40z" />
    <glyph glyph-name="c" unicode="c" horiz-adv-x="611" 
d="M574 326h-186q0 86 -67 86q-48 0 -66.5 -42t-18.5 -116q0 -91 21.5 -125.5t61.5 -34.5q68 0 68 102h190q1 -95 -68.5 -151.5t-184.5 -56.5q-126 0 -204 67.5t-78 198.5q0 71 23.5 124.5t64 83t88.5 43.5t104 14q137 0 203 -72q44 -47 49 -121z" />
    <glyph glyph-name="d" unicode="d" 
d="M415 722h188v-597q0 -55 5 -125h-178l-4 74q-11 -16 -20.5 -26.5t-29.5 -26.5t-50.5 -24.5t-69.5 -8.5q-62 0 -107 23t-69 63t-35 83.5t-11 93.5q0 125 63 194q64 68 165 68q39 0 70 -11.5t46.5 -24t36.5 -34.5v279zM322 99q48 0 71.5 42.5t23.5 111.5q0 67 -23 108.5
t-70 41.5q-29 0 -49.5 -16.5t-29.5 -43t-12.5 -49t-3.5 -44.5q0 -23 3 -44.5t12 -48t29 -42.5t49 -16z" />
    <glyph glyph-name="e" unicode="e" horiz-adv-x="611" 
d="M571 213h-360q0 -122 96 -122q78 0 86 73h175q-10 -89 -83 -132t-179 -43q-131 0 -200 65t-69 189q0 131 66 204t201 73q178 0 239 -128q28 -55 28 -179zM213 315h181q-7 105 -90 105q-82 0 -91 -105z" />
    <glyph glyph-name="f" unicode="f" horiz-adv-x="444" 
d="M427 719v-121q-24 6 -52 6q-22 0 -37.5 -7t-22.5 -17.5t-11 -24.5t-3.5 -28t0.5 -27h121v-122h-121v-378h-184v378h-97v122h100q-1 45 0 70.5t11 59.5t30 51.5t59 30.5t96 13q48 0 111 -6z" />
    <glyph glyph-name="g" unicode="g" 
d="M428 505h177v-468q0 -123 -80 -179q-78 -56 -207 -56q-143 0 -209 59q-43 38 -46 112h177q1 -29 22 -46.5t60 -17.5q27 0 46.5 8t29.5 19t15.5 29t7 32t1.5 34v66q-54 -81 -162 -81q-42 0 -80 13.5t-71 41.5t-52.5 78t-19.5 116q0 108 57.5 178.5t167.5 70.5
q113 0 166 -85v76zM419 269q0 140 -91 140q-46 0 -71.5 -38.5t-25.5 -103.5q0 -140 95 -140q93 0 93 142z" />
    <glyph glyph-name="h" unicode="h" 
d="M65 0v722h190v-275q66 66 157 66q85 0 140 -51q24 -21 35.5 -50.5t13 -52t1.5 -67.5v-292h-187v270q0 24 -1.5 38.5t-8 38t-24 35.5t-44.5 12q-61 0 -79 -70q-5 -23 -5 -97v-227h-188z" />
    <glyph glyph-name="i" unicode="i" horiz-adv-x="333" 
d="M67 586v134h192v-134h-192zM69 0v502h188v-502h-188z" />
    <glyph glyph-name="j" unicode="j" horiz-adv-x="333" 
d="M5 -194v123q24 -3 38.5 2t20.5 19.5t7 25.5t1 34v492h190v-536q0 -89 -42 -125.5t-148 -36.5q-37 0 -67 2zM71 586v134h192v-134h-192z" />
    <glyph glyph-name="k" unicode="k" 
d="M74 0v722h184v-442l172 222h208l-171 -212l196 -290h-226l-179 279v-279h-184z" />
    <glyph glyph-name="l" unicode="l" horiz-adv-x="333" 
d="M69 0v722h188v-722h-188z" />
    <glyph glyph-name="m" unicode="m" horiz-adv-x="1000" 
d="M61 0v388q0 6 -2 56t-2 58h186l2 -83q53 95 170 95q16 0 33 -2.5t43.5 -10.5t48 -28.5t33.5 -51.5q57 94 177 94q107 0 158 -78q27 -43 27 -162v-275h-188v284q0 21 -0.5 32t-4.5 28.5t-11.5 26.5t-22 16.5t-36.5 7.5q-48 0 -70 -42q-10 -20 -10 -71v-282h-188v286
q0 19 -0.5 29.5t-4.5 28t-11 27t-22.5 17t-36.5 7.5q-80 0 -80 -109v-286h-188z" />
    <glyph glyph-name="n" unicode="n" 
d="M64 0v395l-5 107h188l2 -77q53 88 167 88q52 0 89.5 -16t55 -36.5t27.5 -54.5t11 -53t1 -49v-304h-188v288q0 20 -1.5 32.5t-8 32.5t-23.5 30.5t-44 10.5q-84 0 -84 -106v-288h-187z" />
    <glyph glyph-name="o" unicode="o" 
d="M38 253q0 120 75 193t219 73q129 0 209.5 -66t80.5 -194q0 -126 -73 -199q-74 -72 -207 -72q-155 0 -232 74q-72 68 -72 191zM233 252q0 -77 24 -119q23 -40 73 -40q98 0 98 159q0 160 -96 160q-99 0 -99 -160z" />
    <glyph glyph-name="p" unicode="p" 
d="M56 502h184l2 -71q60 84 165 84q36 0 70 -11.5t68.5 -37.5t56 -79t21.5 -126q0 -137 -64.5 -204t-159.5 -67q-41 0 -74.5 14t-46.5 25.5t-30 30.5v-250h-188v610q-1 24 -1.5 39.5t-1.5 25.5t-1 17zM244 253q0 -151 91 -151q95 0 95 161q0 23 -3 44t-11.5 45.5t-28 39.5
t-47.5 15q-96 0 -96 -154z" />
    <glyph glyph-name="q" unicode="q" 
d="M418 429l2 73h182q-2 -29 -4 -55q-1 -6 -1 -27v-610h-187v254q-12 -14 -21 -22.5t-28.5 -22.5t-47 -21.5t-61.5 -7.5q-91 0 -155.5 64t-64.5 192q0 113 56.5 190t161.5 77q36 0 66 -8.5t50.5 -24.5t30 -26t21.5 -25zM315 98q31 0 52.5 17t30 44.5t11.5 49t3 44.5
q0 151 -94 151q-91 0 -91 -154q0 -23 3 -45t11.5 -48.5t27.5 -42.5t46 -16z" />
    <glyph glyph-name="r" unicode="r" horiz-adv-x="444" 
d="M67 0v395l-5 107h183l3 -104q15 39 38 63.5t52 33t45.5 10.5t41.5 1v-161q-33 3 -40 3q-131 0 -131 -135v-213h-187z" />
    <glyph glyph-name="s" unicode="s" horiz-adv-x="556" 
d="M29 163h186q0 -28 8 -45q14 -31 55 -31q29 0 43 15.5t14 35.5q0 24 -17 35t-54 21l-102 29q-122 31 -122 136q0 36 17 66.5t43 47.5q61 43 178 43q219 0 229 -169h-178q0 34 -7 49q-14 27 -52 27q-24 0 -40 -11t-16 -33q0 -20 13 -30.5t38 -17.5l134 -37q22 -6 39 -14
t37 -23t31 -40.5t11 -60.5t-11.5 -63t-28 -45.5t-42 -30t-46 -18.5t-47 -9t-38.5 -3.5t-28 -0.5q-37 0 -66 2.5t-65 13t-60 29t-40.5 52.5t-15.5 80z" />
    <glyph glyph-name="t" unicode="t" horiz-adv-x="444" 
d="M292 500h119v-120h-121v-174q0 -29 1.5 -41t8 -26t21.5 -18.5t42 -4.5q24 0 47 3v-118q-56 -9 -122 -9q-107 0 -143.5 34.5t-36.5 112.5v241h-95v120h98v78l181 72v-150z" />
    <glyph glyph-name="u" unicode="u" 
d="M64 502h187v-293q0 -98 75 -98q79 0 79 100v291h188v-415q2 -37 3 -87h-185l-4 78q-34 -54 -73.5 -70.5t-84.5 -16.5q-50 0 -86 15t-54.5 36.5t-29 55.5t-13 60t-2.5 61v283z" />
    <glyph glyph-name="v" unicode="v" horiz-adv-x="611" 
d="M200 0l-191 502h202l100 -352l107 352h177l-190 -502h-205z" />
    <glyph glyph-name="w" unicode="w" horiz-adv-x="944" 
d="M160 0l-153 502h192l82 -356l89 356h210l88 -354l89 354h168l-158 -502h-210l-92 350l-99 -350h-206z" />
    <glyph glyph-name="x" unicode="x" horiz-adv-x="611" 
d="M181 262l-149 240h219l64 -154l67 154h192l-154 -240l170 -262h-222l-79 186l-83 -186h-194z" />
    <glyph glyph-name="y" unicode="y" horiz-adv-x="611" 
d="M595 502l-273 -692h-175l71 174l-210 518h203l100 -349l109 349h175z" />
    <glyph glyph-name="z" unicode="z" horiz-adv-x="556" 
d="M40 0v127l241 253h-230v121h444v-124l-244 -258h256v-119h-467z" />
    <glyph glyph-name="braceleft" unicode="{" horiz-adv-x="333" 
d="M-18 269v94q114 17 114 129v23q0 42 2.5 67t16 60t39 55.5t75.5 37t122 20.5v-90q-32 -2 -54 -13t-32.5 -23.5t-16 -35t-6.5 -36t-1 -38.5v-22q0 -48 -10 -77.5t-34 -55.5q-37 -42 -120 -48q28 -4 43 -6.5t38.5 -13t40.5 -28.5q42 -41 42 -133v-22q0 -25 0.5 -38.5
t6.5 -36.5t16.5 -35.5t32.5 -23.5t54 -12v-90q-139 7 -203 64q-27 25 -39.5 61t-12.5 115v23q0 25 -2.5 39.5t-12 35t-34.5 34t-65 20.5z" />
    <glyph glyph-name="bar" unicode="|" horiz-adv-x="278" 
d="M68 750h142v-1000h-142v1000z" />
    <glyph glyph-name="braceright" unicode="}" horiz-adv-x="333" 
d="M351 363v-94q-114 -17 -114 -129v-23q0 -42 -2.5 -67t-16 -60t-39 -55.5t-75.5 -37t-122 -20.5v90q32 2 54 13t32.5 23.5t16 35t6.5 36t1 38.5v22q0 48 10 77.5t34 55.5q37 42 120 48q-28 4 -43 6.5t-38.5 13t-40.5 27.5q-42 42 -42 134v22q0 25 -0.5 38.5t-6.5 36.5
t-16.5 35.5t-32.5 23.5t-54 12v90q139 -7 203 -64q27 -25 39.5 -61t12.5 -115v-23q0 -25 2.5 -39.5t12 -35t34.5 -34t65 -20.5z" />
    <glyph glyph-name="asciitilde" unicode="~" horiz-adv-x="660" 
d="M143 172h-91q5 89 49.5 144t105.5 55q28 0 146 -36q80 -24 105 -24q22 0 35.5 11.5t16.5 20.5t6 25h92q-6 -81 -44.5 -141t-111.5 -60q-36 0 -179 46q-64 16 -74 16q-47 0 -56 -57z" />
    <glyph glyph-name="uni00A0" unicode="&#xa0;" horiz-adv-x="333" 
 />
    <glyph glyph-name="exclamdown" unicode="&#xa1;" horiz-adv-x="444" 
d="M150 324h144l37 -507h-217zM310 389h-180v150h180v-150z" />
    <glyph glyph-name="cent" unicode="&#xa2;" 
d="M329 517l38 127h139l-40 -146q57 -23 95.5 -70t38.5 -104h-195q2 27 -13.5 45t-53.5 18q-80 0 -80 -136t80 -136q21 0 35.5 6.5t21.5 19t9.5 24t4.5 29.5h195q-4 -99 -85 -159q-71 -53 -176 -50l-44 -141h-139l45 169q-77 36 -109.5 97t-32.5 151q0 236 266 256z" />
    <glyph glyph-name="sterling" unicode="&#xa3;" 
d="M34 0v117h74v220h-96v114h96q0 31 0.5 50t6 53t15.5 56t30 49.5t48.5 43.5t73.5 27.5t102 11.5q53 0 95 -9.5t69 -23t46.5 -35.5t28.5 -40t14.5 -43.5t6.5 -38.5t1 -33h-185q0 16 -0.5 25.5t-4.5 27.5t-12 28t-24 18.5t-39 8.5q-25 0 -42 -10.5t-25.5 -24.5t-12.5 -41.5
t-4.5 -46t-0.5 -53.5h145v-114h-145v-220h316v-117h-577z" />
    <glyph glyph-name="currency" unicode="&#xa4;" horiz-adv-x="660" 
d="M69 172l67 67q-29 56 -29 110q0 53 29 111l-67 67l84 84l67 -67q56 29 110 29q53 0 111 -29l66 67l84 -84l-66 -67q29 -58 29 -111q0 -58 -29 -110l67 -67l-84 -84l-67 67q-56 -29 -110 -29q-55 0 -111 29l-67 -67zM330 448q-41 0 -70 -29t-29 -69q0 -41 29 -70t70 -29
t70 29t29 70t-29 69.5t-70 28.5z" />
    <glyph glyph-name="yen" unicode="&#xa5;" 
d="M425 0h-190v120h-181v130h179l-30 54h-149v130h89l-134 258h201l120 -273l127 273h201l-139 -258h94v-130h-149l-30 -54h179v-130h-188v-120z" />
    <glyph glyph-name="brokenbar" unicode="&#xa6;" horiz-adv-x="278" 
d="M68 675h142v-350h-142v350zM68 175h142v-350h-142v350z" />
    <glyph glyph-name="section" unicode="&#xa7;" 
d="M122 2v113q71 -24 141 -24q103 0 103 45q0 16 -15 27t-50 23l-97 34q-64 22 -89 53t-25 75q0 47 25.5 81t84.5 64q-86 34 -86 116q0 37 18 63.5t41 39.5t57 20.5t53.5 8.5t42.5 1q48 0 176 -16v-114q-65 22 -126 22q-72 0 -72 -35q0 -16 13 -25.5t42 -19.5l113 -39
q103 -35 103 -136q0 -87 -94 -135q26 -14 41 -25t28 -34.5t13 -54.5q0 -36 -14 -63t-39 -42.5t-49 -25.5t-55.5 -13.5t-46 -4.5t-32.5 -1q-122 0 -205 22zM372 282q36 43 36 79q0 17 -6 30t-22.5 24.5t-29 18.5t-40.5 20q-48 -41 -48 -75q0 -35 28.5 -56t81.5 -41z" />
    <glyph glyph-name="dieresis" unicode="&#xa8;" horiz-adv-x="333" 
d="M212 581v145h171v-145h-171zM-51 581v145h171v-145h-171z" />
    <glyph glyph-name="copyright" unicode="&#xa9;" horiz-adv-x="800" 
d="M414 742q156 0 267.5 -110.5t111.5 -268.5q0 -157 -111 -268.5t-268 -111.5t-268.5 111.5t-111.5 268.5q0 158 112 268.5t268 110.5zM414 677q-130 0 -222 -91.5t-92 -222.5q0 -130 92 -222t222 -92t221.5 92.5t91.5 221.5q0 130 -91.5 222t-221.5 92zM589 442h-111
q-7 59 -63 59q-85 0 -85 -145q0 -136 87 -136q55 0 62 64h112q0 -77 -48.5 -112t-125.5 -35q-100 0 -148 57q-50 60 -50 164t49 165q50 63 147 63t141 -52q30 -35 33 -92z" />
    <glyph glyph-name="ordfeminine" unicode="&#xaa;" horiz-adv-x="367" 
d="M138 524q0 -17 10.5 -26.5t28.5 -9.5q14 0 23 5.5t13.5 10.5t6.5 19.5t2 18v20.5q-32 0 -54 -6q-30 -5 -30 -32zM226 427l-4 25h-2q-8 -12 -31 -23t-50 -11q-58 0 -95 25.5t-36 74.5q1 51 56 82.5t120 31.5h39q0 35 -29 35q-19 0 -30.5 -8t-10.5 -15h-117q0 51 57 75
q41 18 112 18q58 0 102.5 -23.5t44.5 -69.5v-155q0 -12 7 -62h-133z" />
    <glyph glyph-name="guillemotleft" unicode="&#xab;" 
d="M181 449h155l-120 -196l120 -194h-154l-125 196zM449 449h155l-119 -196l119 -194h-154l-125 196z" />
    <glyph glyph-name="logicalnot" unicode="&#xac;" horiz-adv-x="660" 
d="M61 317v141h538v-378h-146v237h-392z" />
    <glyph glyph-name="uni00AD" unicode="&#xad;" horiz-adv-x="333" 
d="M22 323h284v-119h-284v119z" />
    <glyph glyph-name="registered" unicode="&#xae;" horiz-adv-x="800" 
d="M399 742q156 0 268 -110.5t112 -269.5q0 -156 -111.5 -267t-268.5 -111t-267.5 111t-110.5 267q0 159 111 269.5t267 110.5zM399 677q-128 0 -220 -91.5t-92 -223.5q0 -129 92 -220.5t220 -91.5q131 0 223 92t92 220q0 131 -92.5 223t-222.5 92zM225 152v420h196
q29 0 44.5 -1t40.5 -6.5t38.5 -16t24 -32.5t10.5 -54q0 -88 -102 -100v-2q23 -1 39.5 -6.5t25 -11t15 -20.5t7.5 -20.5t5 -25.5q15 -102 22 -124h-126q-8 36 -14 98q-3 22 -5 31t-8 19t-17 13t-30 3h-48v-164h-118zM343 496v-104h44q26 0 39 1.5t26 14t13 36.5t-14 36.5
t-27 14t-37 1.5h-44z" />
    <glyph glyph-name="macron" unicode="&#xaf;" horiz-adv-x="333" 
d="M-27 614v76h382v-76h-382z" />
    <glyph glyph-name="degree" unicode="&#xb0;" horiz-adv-x="400" 
d="M350 557q0 -62 -44 -106t-106 -44t-106 44t-44 106q-1 61 43.5 105.5t106.5 44.5t106 -44.5t44 -105.5zM130 554q1 -31 19.5 -49t49.5 -18t51 18t20 49q0 30 -21 51.5t-51 21.5t-49.5 -21.5t-18.5 -51.5z" />
    <glyph glyph-name="plusminus" unicode="&#xb1;" horiz-adv-x="660" 
d="M259 136v147h-198v140h198v155h143v-155h197v-140h-197v-147h-143zM61 -40v141h538v-141h-538z" />
    <glyph glyph-name="twosuperior" unicode="&#xb2;" horiz-adv-x="400" 
d="M177 366h214v-83h-368v78q15 16 77.5 62t107.5 89.5t47 75.5q2 18 -10 27t-38 9q-20 0 -34 -13t-14 -28h-127q3 66 55 95t132 29q71 0 121 -27t50 -86q0 -22 -15.5 -49t-38 -50.5t-50.5 -47.5t-50.5 -40t-40.5 -28l-18 -12v-1z" />
    <glyph glyph-name="threesuperior" unicode="&#xb3;" horiz-adv-x="400" 
d="M148 456v83h17h18t16.5 0.5t16.5 2t13.5 4t13 6.5t9 10t6.5 14t2 18q0 14 -15 22t-36 8q-20 0 -35 -11t-15 -25h-132q1 60 55.5 89.5t128.5 29.5q31 0 60.5 -4.5t59 -15.5t47 -33t17.5 -53q0 -38 -30.5 -65.5t-73.5 -33.5v-2q51 -5 82 -32.5t31 -73.5q0 -62 -59 -91
t-133 -29q-181 0 -196 129h131q0 -19 16 -35q12 -11 44 -11q62 0 62 46q0 13 -4 22.5t-12.5 15.5t-16 9.5t-21.5 4.5t-22 1.5t-24 0t-21 -0.5z" />
    <glyph glyph-name="acute" unicode="&#xb4;" horiz-adv-x="333" 
d="M384 726l-183 -145h-132l111 145h204z" />
    <glyph glyph-name="mu" unicode="&#xb5;" 
d="M94 -213v715h140v-247q0 -39 2.5 -62t11 -45t26 -32t46.5 -10q31 0 51 12t28 36t10.5 44t2.5 52v252h139v-502h-116v57q-13 -19 -22 -29t-33 -23t-54 -13q-61 0 -98 48v-253h-134z" />
    <glyph glyph-name="paragraph" unicode="&#xb6;" horiz-adv-x="850" 
d="M726 610h-50v-788h-136v788h-89v-788h-136v422q-83 10 -130 52q-65 62 -65 172q0 45 13.5 87.5t43 81t83 62t125.5 23.5h341v-112z" />
    <glyph glyph-name="periodcentered" unicode="&#xb7;" horiz-adv-x="333" 
d="M72 204v149h176v-149h-176z" />
    <glyph glyph-name="cedilla" unicode="&#xb8;" horiz-adv-x="333" 
d="M139 9h49l-38 -71q21 3 34 3q48 0 73 -22t25 -52q0 -34 -31.5 -59.5t-104.5 -25.5q-65 0 -113 20l13 45q48 -22 93 -22q53 0 53 39q0 18 -15 27.5t-35 9.5q-18 0 -38 -9l-23 20z" />
    <glyph glyph-name="onesuperior" unicode="&#xb9;" horiz-adv-x="400" 
d="M310 283h-130v297q-59 -36 -110 -52v97q74 22 130 67h110v-409z" />
    <glyph glyph-name="ordmasculine" unicode="&#xba;" horiz-adv-x="400" 
d="M260 578q0 89 -59 89q-60 0 -60 -89q0 -90 60 -90q59 0 59 90zM201 737q82 0 135.5 -40t53.5 -119t-53.5 -119.5t-135.5 -40.5q-83 0 -136.5 40.5t-53.5 119.5t53.5 119t136.5 40z" />
    <glyph glyph-name="guillemotright" unicode="&#xbb;" 
d="M212 59h-155l119 196l-119 194h154l125 -196zM480 59h-155l119 196l-119 194h154l125 -196z" />
    <glyph glyph-name="onequarter" unicode="&#xbc;" horiz-adv-x="1000" 
d="M609 163h103v144h-3zM712 0v80h-215v83l191 252h154v-252h63v-83h-63v-80h-130zM345 0h-109l365 707h109zM335 283h-130v297q-59 -36 -110 -52v97q74 22 130 67h110v-409z" />
    <glyph glyph-name="onehalf" unicode="&#xbd;" horiz-adv-x="1000" 
d="M330 0h-109l365 707h109zM330 283h-130v297q-59 -36 -110 -52v97q74 22 130 67h110v-409zM696 83h214v-83h-368v78q15 16 77.5 62t107.5 89.5t47 75.5q2 18 -10 27t-38 9q-20 0 -34 -13t-14 -28h-127q3 66 55 95t132 29q71 0 121 -27t50 -86q0 -22 -15.5 -49t-38 -50.5
t-50.5 -47.5t-50.5 -40t-40.5 -28l-18 -12v-1z" />
    <glyph glyph-name="threequarters" unicode="&#xbe;" horiz-adv-x="1000" 
d="M406 0h-109l365 707h109zM666 163h113v154h-3zM564 163l191 252h154v-252h63v-83h-63v-80h-130v80h-215v83zM160 456v83h17h18t16.5 0.5t16.5 2t13.5 4t13 6.5t9 10t6.5 14t2 18q0 14 -15 22t-36 8q-20 0 -35 -11t-15 -25h-132q1 60 55.5 89.5t128.5 29.5q31 0 60.5 -4.5
t59 -15.5t47 -33t17.5 -53q0 -38 -30.5 -65.5t-73.5 -33.5v-2q51 -5 82 -32.5t31 -73.5q0 -62 -59 -91t-133 -29q-181 0 -196 129h131q0 -19 16 -35q12 -11 44 -11q62 0 62 46q0 13 -4 22.5t-12.5 15.5t-16 9.5t-21.5 4.5t-22 1.5t-24 0t-21 -0.5z" />
    <glyph glyph-name="questiondown" unicode="&#xbf;" horiz-adv-x="556" 
d="M242 349h160q-1 -22 0 -48.5t1 -37.5t-4.5 -27.5t-16.5 -32t-35 -38.5l-9 -9l-11.5 -11.5t-12 -12.5t-13.5 -15t-13 -15.5t-13 -16.5t-10.5 -16.5t-9 -17.5t-5.5 -16.5t-2 -16.5q0 -32 22 -52.5t49 -27t59 -6.5q61 0 107 15v-130q-78 -15 -160 -15q-50 0 -95 8t-91 27.5
t-73.5 60t-27.5 97.5q0 17 4 33.5t7 27.5t15.5 26.5t16.5 22t22.5 22t21.5 18.5t26.5 20.5t24.5 18.5q41 30 53.5 50t12.5 66v49zM412 389h-180v150h180v-150z" />
    <glyph glyph-name="Agrave" unicode="&#xc0;" horiz-adv-x="833" 
d="M8 0l285 722h244l285 -722h-226l-50 145h-289l-49 -145h-200zM304 278h196l-93 303h-3zM386 801l-186 145h208l107 -145h-129z" />
    <glyph glyph-name="Aacute" unicode="&#xc1;" horiz-adv-x="833" 
d="M8 0l285 722h244l285 -722h-226l-50 145h-289l-49 -145h-200zM304 278h196l-93 303h-3zM616 946l-183 -145h-132l111 145h204z" />
    <glyph glyph-name="Acircumflex" unicode="&#xc2;" horiz-adv-x="833" 
d="M8 0l285 722h244l285 -722h-226l-50 145h-289l-49 -145h-200zM304 278h196l-93 303h-3zM328 946h169l120 -145h-130l-74 77l-74 -77h-130z" />
    <glyph glyph-name="Atilde" unicode="&#xc3;" horiz-adv-x="833" 
d="M8 0l285 722h244l285 -722h-226l-50 145h-289l-49 -145h-200zM304 278h196l-93 303h-3zM260 801h-78q3 59 42 101q42 45 104 45q26 0 73 -14l77 -22q20 -6 31 -6q29 0 33 39h81q-5 -60 -45 -102t-95 -42q-18 0 -50 9l-82 24q-28 8 -43 8q-38 0 -48 -40z" />
    <glyph glyph-name="Adieresis" unicode="&#xc4;" horiz-adv-x="833" 
d="M8 0l285 722h244l285 -722h-226l-50 145h-289l-49 -145h-200zM304 278h196l-93 303h-3zM462 801v145h171v-145h-171zM199 801v145h171v-145h-171z" />
    <glyph glyph-name="Aring" unicode="&#xc5;" horiz-adv-x="833" 
d="M8 0l285 722h244l285 -722h-226l-50 145h-289l-49 -145h-200zM304 278h196l-93 303h-3zM529 873q0 -47 -32.5 -79.5t-79.5 -32.5q-46 0 -79 33t-33 79q0 47 32.5 80t79.5 33q46 0 79 -33t33 -80zM470 873q0 22 -15.5 38t-37.5 16t-37.5 -15.5t-15.5 -38.5
q0 -22 15.5 -37.5t37.5 -15.5t37.5 15.5t15.5 37.5z" />
    <glyph glyph-name="AE" unicode="&#xc6;" horiz-adv-x="1000" 
d="M502 0l-16 143h-226l-55 -143h-198l317 722h628v-140h-318l16 -149h273v-140h-258l15 -153h272v-140h-450zM435 597l-124 -314h162l-33 314h-5z" />
    <glyph glyph-name="Ccedilla" unicode="&#xc7;" horiz-adv-x="778" 
d="M528 231h208q0 -59 -21 -103.5t-52.5 -70.5t-76 -42t-84 -22t-84.5 -7l-26 -48q21 3 34 3q48 0 73 -21.5t25 -52.5q0 -33 -31.5 -59t-103.5 -26q-66 0 -114 20l13 45q48 -22 93 -22q53 0 53 39q0 18 -15 27.5t-35 9.5q-18 0 -38 -9l-23 20l45 76q-108 8 -177 51
q-147 92 -147 317q0 172 91 275q93 106 274 106q179 0 263 -88q57 -60 60 -154h-206q-6 52 -38 76t-79 24q-158 0 -158 -243q0 -18 1 -32.5t5 -44.5t14 -53t26 -46.5t44.5 -36.5t65.5 -13t62.5 11.5t37 31.5t15.5 32.5t6 29.5z" />
    <glyph glyph-name="Egrave" unicode="&#xc8;" 
d="M69 0v720h542v-138h-344v-150h324v-138h-324v-154h352v-140h-550zM303 801l-186 145h208l107 -145h-129z" />
    <glyph glyph-name="Eacute" unicode="&#xc9;" 
d="M69 0v720h542v-138h-344v-150h324v-138h-324v-154h352v-140h-550zM551 946l-183 -145h-132l111 145h204z" />
    <glyph glyph-name="Ecircumflex" unicode="&#xca;" 
d="M69 0v720h542v-138h-344v-150h324v-138h-324v-154h352v-140h-550zM245 946h169l120 -145h-130l-74 77l-74 -77h-130z" />
    <glyph glyph-name="Edieresis" unicode="&#xcb;" 
d="M69 0v720h542v-138h-344v-150h324v-138h-324v-154h352v-140h-550zM379 801v145h171v-145h-171zM116 801v145h171v-145h-171z" />
    <glyph glyph-name="Igrave" unicode="&#xcc;" horiz-adv-x="333" 
d="M60 0v722h206v-722h-206zM136 801l-186 145h208l107 -145h-129z" />
    <glyph glyph-name="Iacute" unicode="&#xcd;" horiz-adv-x="333" 
d="M60 0v722h206v-722h-206zM372 946l-183 -145h-132l111 145h204z" />
    <glyph glyph-name="Icircumflex" unicode="&#xce;" horiz-adv-x="333" 
d="M60 0v722h206v-722h-206zM78 946h169l120 -145h-130l-74 77l-74 -77h-130z" />
    <glyph glyph-name="Idieresis" unicode="&#xcf;" horiz-adv-x="333" 
d="M60 0v722h206v-722h-206zM212 801v145h171v-145h-171zM-51 801v145h171v-145h-171z" />
    <glyph glyph-name="Eth" unicode="&#xd0;" horiz-adv-x="833" 
d="M67 0v350h-62v86h62v286h305q197 0 304 -85t107 -276t-107 -276t-304 -85h-305zM267 350v-210h94q88 0 150 57.5t62 163.5t-62 163.5t-150 57.5h-94v-146h157v-86h-157z" />
    <glyph glyph-name="Ntilde" unicode="&#xd1;" horiz-adv-x="833" 
d="M67 0v722h276l244 -538l-2 538h175v-722h-270l-249 561l2 -561h-176zM272 801h-78q3 59 42 101q42 45 104 45q26 0 73 -14l77 -22q19 -6 31 -6q29 0 33 39h81q-5 -60 -45 -102t-95 -42q-19 0 -50 9l-82 24q-28 8 -43 8q-38 0 -48 -40z" />
    <glyph glyph-name="Ograve" unicode="&#xd2;" horiz-adv-x="833" 
d="M40 358q0 25 3 53t12 70.5t30.5 85.5t53.5 75q99 100 282 100q83 0 148 -23.5t105.5 -60.5t66.5 -88.5t36 -103t10 -107.5q0 -83 -23 -149.5t-59.5 -108t-87 -69t-101 -38.5t-105.5 -11q-75 0 -139.5 21.5t-117.5 64.5t-83.5 117.5t-30.5 171.5zM246 359q0 -229 167 -229
t167 232q0 116 -46 183q-38 52 -120 52q-168 0 -168 -238zM386 801l-186 145h208l107 -145h-129z" />
    <glyph glyph-name="Oacute" unicode="&#xd3;" horiz-adv-x="833" 
d="M40 358q0 25 3 53t12 70.5t30.5 85.5t53.5 75q99 100 282 100q83 0 148 -23.5t105.5 -60.5t66.5 -88.5t36 -103t10 -107.5q0 -83 -23 -149.5t-59.5 -108t-87 -69t-101 -38.5t-105.5 -11q-75 0 -139.5 21.5t-117.5 64.5t-83.5 117.5t-30.5 171.5zM246 359q0 -229 167 -229
t167 232q0 116 -46 183q-38 52 -120 52q-168 0 -168 -238zM634 946l-183 -145h-132l111 145h204z" />
    <glyph glyph-name="Ocircumflex" unicode="&#xd4;" horiz-adv-x="833" 
d="M40 358q0 25 3 53t12 70.5t30.5 85.5t53.5 75q99 100 282 100q83 0 148 -23.5t105.5 -60.5t66.5 -88.5t36 -103t10 -107.5q0 -83 -23 -149.5t-59.5 -108t-87 -69t-101 -38.5t-105.5 -11q-75 0 -139.5 21.5t-117.5 64.5t-83.5 117.5t-30.5 171.5zM246 359q0 -229 167 -229
t167 232q0 116 -46 183q-38 52 -120 52q-168 0 -168 -238zM328 946h169l120 -145h-130l-74 77l-74 -77h-130z" />
    <glyph glyph-name="Otilde" unicode="&#xd5;" horiz-adv-x="833" 
d="M40 358q0 25 3 53t12 70.5t30.5 85.5t53.5 75q99 100 282 100q83 0 148 -23.5t105.5 -60.5t66.5 -88.5t36 -103t10 -107.5q0 -83 -23 -149.5t-59.5 -108t-87 -69t-101 -38.5t-105.5 -11q-75 0 -139.5 21.5t-117.5 64.5t-83.5 117.5t-30.5 171.5zM246 359q0 -229 167 -229
t167 232q0 116 -46 183q-38 52 -120 52q-168 0 -168 -238zM260 801h-78q3 59 42 101q42 45 104 45q26 0 73 -14l77 -22q20 -6 31 -6q29 0 33 39h81q-5 -60 -45 -102t-95 -42q-18 0 -50 9l-82 24q-28 8 -43 8q-38 0 -48 -40z" />
    <glyph glyph-name="Odieresis" unicode="&#xd6;" horiz-adv-x="833" 
d="M40 358q0 25 3 53t12 70.5t30.5 85.5t53.5 75q99 100 282 100q83 0 148 -23.5t105.5 -60.5t66.5 -88.5t36 -103t10 -107.5q0 -83 -23 -149.5t-59.5 -108t-87 -69t-101 -38.5t-105.5 -11q-75 0 -139.5 21.5t-117.5 64.5t-83.5 117.5t-30.5 171.5zM246 359q0 -229 167 -229
t167 232q0 116 -46 183q-38 52 -120 52q-168 0 -168 -238zM462 801v145h171v-145h-171zM199 801v145h171v-145h-171z" />
    <glyph glyph-name="multiply" unicode="&#xd7;" horiz-adv-x="660" 
d="M68 105l164 164l-164 164l98 98l164 -164l164 164l98 -98l-163 -164l163 -164l-98 -98l-164 163l-164 -163z" />
    <glyph glyph-name="Oslash" unicode="&#xd8;" horiz-adv-x="833" 
d="M668 661l96 98l65 -71l-97 -98q59 -92 59 -229q0 -179 -97.5 -277.5t-276.5 -98.5q-137 0 -226 58l-98 -99l-66 69l93 94q-77 95 -77 254q0 179 97.5 277.5t276.5 98.5q158 0 251 -76zM575 432l-264 -267q38 -40 106 -40q164 0 164 233q0 45 -6 74zM265 253l276 280
q-39 64 -124 64q-164 0 -164 -239q0 -60 12 -105z" />
    <glyph glyph-name="Ugrave" unicode="&#xd9;" horiz-adv-x="833" 
d="M72 722h202v-429q0 -75 23 -109q40 -59 123 -59q144 0 144 175v422h195v-418q0 -154 -56 -220q-84 -103 -290 -103q-71 0 -126.5 13t-90.5 31t-60.5 49.5t-37.5 56.5t-18.5 64t-7.5 60t-1 56zM386 801l-186 145h208l107 -145h-129z" />
    <glyph glyph-name="Uacute" unicode="&#xda;" horiz-adv-x="833" 
d="M72 722h202v-429q0 -75 23 -109q40 -59 123 -59q144 0 144 175v422h195v-418q0 -154 -56 -220q-84 -103 -290 -103q-71 0 -126.5 13t-90.5 31t-60.5 49.5t-37.5 56.5t-18.5 64t-7.5 60t-1 56zM634 946l-183 -145h-132l111 145h204z" />
    <glyph glyph-name="Ucircumflex" unicode="&#xdb;" horiz-adv-x="833" 
d="M72 722h202v-429q0 -75 23 -109q40 -59 123 -59q144 0 144 175v422h195v-418q0 -154 -56 -220q-84 -103 -290 -103q-71 0 -126.5 13t-90.5 31t-60.5 49.5t-37.5 56.5t-18.5 64t-7.5 60t-1 56zM328 946h169l120 -145h-130l-74 77l-74 -77h-130z" />
    <glyph glyph-name="Udieresis" unicode="&#xdc;" horiz-adv-x="833" 
d="M72 722h202v-429q0 -75 23 -109q40 -59 123 -59q144 0 144 175v422h195v-418q0 -154 -56 -220q-84 -103 -290 -103q-71 0 -126.5 13t-90.5 31t-60.5 49.5t-37.5 56.5t-18.5 64t-7.5 60t-1 56zM462 801v145h171v-145h-171zM199 801v145h171v-145h-171z" />
    <glyph glyph-name="Yacute" unicode="&#xdd;" horiz-adv-x="778" 
d="M6 722h232l158 -303l163 303h206l-282 -467v-255h-202v264zM607 946l-183 -145h-132l111 145h204z" />
    <glyph glyph-name="Thorn" unicode="&#xde;" horiz-adv-x="722" 
d="M73 0v722h200v-102h132q142 0 217.5 -53.5t75.5 -178.5t-75.5 -178.5t-217.5 -53.5h-132v-156h-200zM273 480v-184h103q57 0 84.5 25t27.5 67t-27.5 67t-84.5 25h-103z" />
    <glyph glyph-name="germandbls" unicode="&#xdf;" horiz-adv-x="778" 
d="M65 0v514q0 46 14 83t34.5 59.5t52 39.5t57 24.5t59 12t49 5t36.5 0.5q16 0 29 -0.5t42.5 -3.5t52 -9t50.5 -18.5t46.5 -29.5t31.5 -44.5t13 -61.5q0 -28 -10.5 -48.5t-20 -28.5t-28.5 -20q-35 -21 -45.5 -31.5t-10.5 -30.5q0 -23 15.5 -38t82.5 -51q33 -18 49 -28
t36 -29t28 -43t8 -57q0 -77 -58.5 -128t-170.5 -51q-131 0 -184 58q-33 37 -36 103h166q0 -27 15 -44q16 -16 37 -16q18 0 30.5 8.5t17 22.5t5.5 22t1 16q0 35 -17.5 51.5t-81.5 50.5q-39 20 -55.5 30t-37.5 26.5t-28 34.5t-7 43q0 59 71 101q18 10 26 16.5t14.5 19
t6.5 30.5q0 33 -22 54t-67 21q-112 0 -112 -129v-506h-184z" />
    <glyph glyph-name="agrave" unicode="&#xe0;" horiz-adv-x="611" 
d="M560 0h-180q-6 27 -6 72q-55 -82 -165 -82q-88 0 -132.5 43t-44.5 113q0 192 343 178q1 49 -11.5 76.5t-51.5 27.5q-30 0 -49 -18t-18 -58h-180q3 68 39 105q61 63 208 63q135 0 194 -58q44 -43 44 -132v-234q0 -40 10 -96zM374 237q-32 0 -48 -1t-41 -5t-37 -11
t-21.5 -21.5t-9.5 -35.5q0 -29 18.5 -48.5t50.5 -19.5q51 0 74 48q17 36 14 94zM293 581l-186 145h208l107 -145h-129z" />
    <glyph glyph-name="aacute" unicode="&#xe1;" horiz-adv-x="611" 
d="M560 0h-180q-6 27 -6 72q-55 -82 -165 -82q-88 0 -132.5 43t-44.5 113q0 192 343 178q1 49 -11.5 76.5t-51.5 27.5q-30 0 -49 -18t-18 -58h-180q3 68 39 105q61 63 208 63q135 0 194 -58q44 -43 44 -132v-234q0 -40 10 -96zM374 237q-32 0 -48 -1t-41 -5t-37 -11
t-21.5 -21.5t-9.5 -35.5q0 -29 18.5 -48.5t50.5 -19.5q51 0 74 48q17 36 14 94zM499 726l-183 -145h-132l111 145h204z" />
    <glyph glyph-name="acircumflex" unicode="&#xe2;" horiz-adv-x="611" 
d="M560 0h-180q-6 27 -6 72q-55 -82 -165 -82q-88 0 -132.5 43t-44.5 113q0 192 343 178q1 49 -11.5 76.5t-51.5 27.5q-30 0 -49 -18t-18 -58h-180q3 68 39 105q61 63 208 63q135 0 194 -58q44 -43 44 -132v-234q0 -40 10 -96zM374 237q-32 0 -48 -1t-41 -5t-37 -11
t-21.5 -21.5t-9.5 -35.5q0 -29 18.5 -48.5t50.5 -19.5q51 0 74 48q17 36 14 94zM217 726h169l120 -145h-130l-74 77l-74 -77h-130z" />
    <glyph glyph-name="atilde" unicode="&#xe3;" horiz-adv-x="611" 
d="M560 0h-180q-6 27 -6 72q-55 -82 -165 -82q-88 0 -132.5 43t-44.5 113q0 192 343 178q1 49 -11.5 76.5t-51.5 27.5q-30 0 -49 -18t-18 -58h-180q3 68 39 105q61 63 208 63q135 0 194 -58q44 -43 44 -132v-234q0 -40 10 -96zM374 237q-32 0 -48 -1t-41 -5t-37 -11
t-21.5 -21.5t-9.5 -35.5q0 -29 18.5 -48.5t50.5 -19.5q51 0 74 48q17 36 14 94zM141 581h-78q3 59 42 101q42 45 104 45q26 0 73 -14l77 -22q19 -6 31 -6q29 0 33 39h81q-5 -60 -45 -102t-95 -42q-18 0 -50 9l-82 24q-28 8 -43 8q-38 0 -48 -40z" />
    <glyph glyph-name="adieresis" unicode="&#xe4;" horiz-adv-x="611" 
d="M560 0h-180q-6 27 -6 72q-55 -82 -165 -82q-88 0 -132.5 43t-44.5 113q0 192 343 178q1 49 -11.5 76.5t-51.5 27.5q-30 0 -49 -18t-18 -58h-180q3 68 39 105q61 63 208 63q135 0 194 -58q44 -43 44 -132v-234q0 -40 10 -96zM374 237q-32 0 -48 -1t-41 -5t-37 -11
t-21.5 -21.5t-9.5 -35.5q0 -29 18.5 -48.5t50.5 -19.5q51 0 74 48q17 36 14 94zM351 581v145h171v-145h-171zM88 581v145h171v-145h-171z" />
    <glyph glyph-name="aring" unicode="&#xe5;" horiz-adv-x="611" 
d="M560 0h-180q-6 27 -6 72q-55 -82 -165 -82q-88 0 -132.5 43t-44.5 113q0 192 343 178q1 49 -11.5 76.5t-51.5 27.5q-30 0 -49 -18t-18 -58h-180q3 68 39 105q61 63 208 63q135 0 194 -58q44 -43 44 -132v-234q0 -40 10 -96zM374 237q-32 0 -48 -1t-41 -5t-37 -11
t-21.5 -21.5t-9.5 -35.5q0 -29 18.5 -48.5t50.5 -19.5q51 0 74 48q17 36 14 94zM418 653q0 -47 -33 -79.5t-79 -32.5t-79 33t-33 79q0 47 32.5 80t79.5 33q46 0 79 -33t33 -80zM359 653q0 22 -15.5 38t-37.5 16t-37.5 -15.5t-15.5 -38.5q0 -22 15.5 -37.5t37.5 -15.5
t37.5 15.5t15.5 37.5z" />
    <glyph glyph-name="ae" unicode="&#xe6;" horiz-adv-x="944" 
d="M216 161q0 -27 19 -46.5t46 -19.5q29 0 48 12t27.5 35.5t11 45t2.5 51.5q-82 0 -104 -11q-50 -25 -50 -67zM547 315h176q0 43 -23 75q-25 35 -66 32q-46 -2 -64.5 -30t-22.5 -77zM294 324h76q0 5 0.5 23t0.5 25.5t-3.5 21.5t-9.5 20t-19 11.5t-31 4.5q-31 -1 -48 -24.5
t-16 -43.5h-179q-1 85 87 125q65 30 173 30q40 0 84 -17t74 -52q57 69 151 69q146 0 207.5 -77.5t61.5 -226.5h-360q-2 -118 89 -118q81 0 91 69h180q-5 -86 -91 -138q-67 -41 -167 -41q-142 0 -195 108q-55 -108 -227 -108q-90 0 -146.5 42t-55.5 124q1 44 26.5 78.5
t66.5 54.5t87.5 30t92.5 10z" />
    <glyph glyph-name="ccedilla" unicode="&#xe7;" horiz-adv-x="611" 
d="M387 196h190q1 -85 -60 -144t-183 -64l-27 -50q21 3 34 3q49 0 74 -21.5t25 -52.5q0 -33 -32 -59t-104 -26q-66 0 -113 20l12 45q48 -22 93 -22q53 0 53 39q0 18 -15 27.5t-35 9.5q-16 0 -38 -9l-23 20l46 78q-111 10 -176.5 77.5t-65.5 186.5q0 71 23.5 124.5t64.5 83
t89 43.5t103 14q137 0 203 -72q44 -47 49 -121h-186q0 86 -67 86q-48 0 -66.5 -42t-18.5 -116q0 -91 21.5 -125.5t61.5 -34.5q68 0 68 102z" />
    <glyph glyph-name="egrave" unicode="&#xe8;" horiz-adv-x="611" 
d="M571 213h-360q0 -122 96 -122q78 0 86 73h175q-10 -89 -83 -132t-179 -43q-131 0 -200 65t-69 189q0 131 66 204t201 73q178 0 239 -128q28 -55 28 -179zM213 315h181q-7 105 -90 105q-82 0 -91 -105zM293 581l-186 145h208l107 -145h-129z" />
    <glyph glyph-name="eacute" unicode="&#xe9;" horiz-adv-x="611" 
d="M571 213h-360q0 -122 96 -122q78 0 86 73h175q-10 -89 -83 -132t-179 -43q-131 0 -200 65t-69 189q0 131 66 204t201 73q178 0 239 -128q28 -55 28 -179zM213 315h181q-7 105 -90 105q-82 0 -91 -105zM499 726l-183 -145h-132l111 145h204z" />
    <glyph glyph-name="ecircumflex" unicode="&#xea;" horiz-adv-x="611" 
d="M571 213h-360q0 -122 96 -122q78 0 86 73h175q-10 -89 -83 -132t-179 -43q-131 0 -200 65t-69 189q0 131 66 204t201 73q178 0 239 -128q28 -55 28 -179zM213 315h181q-7 105 -90 105q-82 0 -91 -105zM217 726h169l120 -145h-130l-74 77l-74 -77h-130z" />
    <glyph glyph-name="edieresis" unicode="&#xeb;" horiz-adv-x="611" 
d="M571 213h-360q0 -122 96 -122q78 0 86 73h175q-10 -89 -83 -132t-179 -43q-131 0 -200 65t-69 189q0 131 66 204t201 73q178 0 239 -128q28 -55 28 -179zM213 315h181q-7 105 -90 105q-82 0 -91 -105zM351 581v145h171v-145h-171zM88 581v145h171v-145h-171z" />
    <glyph glyph-name="igrave" unicode="&#xec;" horiz-adv-x="333" 
d="M262 0h-190v502h190v-502zM136 581l-186 145h208l107 -145h-129z" />
    <glyph glyph-name="iacute" unicode="&#xed;" horiz-adv-x="333" 
d="M262 0h-190v502h190v-502zM384 726l-183 -145h-132l111 145h204z" />
    <glyph glyph-name="icircumflex" unicode="&#xee;" horiz-adv-x="333" 
d="M262 0h-190v502h190v-502zM78 726h169l120 -145h-130l-74 77l-74 -77h-130z" />
    <glyph glyph-name="idieresis" unicode="&#xef;" horiz-adv-x="333" 
d="M262 0h-190v502h190v-502zM212 581v145h171v-145h-171zM-51 581v145h171v-145h-171z" />
    <glyph glyph-name="eth" unicode="&#xf0;" 
d="M105 616l74 130q88 -19 143 -41l54 45l46 -36l-39 -32q243 -125 243 -406q0 -152 -81 -221.5t-211 -69.5q-127 0 -209.5 62.5t-82.5 184.5q0 121 72.5 184.5t175.5 63.5q70 0 118 -27v4q-33 41 -65 63.5t-91 51.5l-64 -55l-58 28l57 48q-43 14 -82 23zM237 232
q0 -145 97 -145t97 145q0 146 -97 146t-97 -146z" />
    <glyph glyph-name="ntilde" unicode="&#xf1;" 
d="M64 0v395l-5 107h188l2 -77q53 88 167 88q52 0 89.5 -16t55 -36.5t27.5 -54.5t11 -53t1 -49v-304h-188v288q0 20 -1.5 32.5t-8 32.5t-23.5 30.5t-44 10.5q-84 0 -84 -106v-288h-187zM159 581h-78q3 59 42 101q42 45 104 45q26 0 73 -14l77 -22q19 -6 31 -6q29 0 33 39h81
q-5 -60 -45 -102t-95 -42q-18 0 -50 9l-82 24q-28 8 -43 8q-38 0 -48 -40z" />
    <glyph glyph-name="ograve" unicode="&#xf2;" 
d="M38 253q0 120 75 193t219 73q129 0 209.5 -66t80.5 -194q0 -126 -73 -199q-74 -72 -207 -72q-155 0 -232 74q-72 68 -72 191zM233 252q0 -77 24 -119q23 -40 73 -40q98 0 98 159q0 160 -96 160q-99 0 -99 -160zM303 581l-186 145h208l107 -145h-129z" />
    <glyph glyph-name="oacute" unicode="&#xf3;" 
d="M38 253q0 120 75 193t219 73q129 0 209.5 -66t80.5 -194q0 -126 -73 -199q-74 -72 -207 -72q-155 0 -232 74q-72 68 -72 191zM233 252q0 -77 24 -119q23 -40 73 -40q98 0 98 159q0 160 -96 160q-99 0 -99 -160zM551 726l-183 -145h-132l111 145h204z" />
    <glyph glyph-name="ocircumflex" unicode="&#xf4;" 
d="M38 253q0 120 75 193t219 73q129 0 209.5 -66t80.5 -194q0 -126 -73 -199q-74 -72 -207 -72q-155 0 -232 74q-72 68 -72 191zM233 252q0 -77 24 -119q23 -40 73 -40q98 0 98 159q0 160 -96 160q-99 0 -99 -160zM257 726h169l120 -145h-130l-74 77l-74 -77h-130z" />
    <glyph glyph-name="otilde" unicode="&#xf5;" 
d="M38 253q0 120 75 193t219 73q129 0 209.5 -66t80.5 -194q0 -126 -73 -199q-74 -72 -207 -72q-155 0 -232 74q-72 68 -72 191zM233 252q0 -77 24 -119q23 -40 73 -40q98 0 98 159q0 160 -96 160q-99 0 -99 -160zM165 581h-78q3 59 42 101q42 45 104 45q26 0 73 -14l77 -22
q19 -6 31 -6q29 0 33 39h81q-5 -60 -45 -102t-95 -42q-18 0 -50 9l-82 24q-28 8 -43 8q-38 0 -48 -40z" />
    <glyph glyph-name="odieresis" unicode="&#xf6;" 
d="M38 253q0 120 75 193t219 73q129 0 209.5 -66t80.5 -194q0 -126 -73 -199q-74 -72 -207 -72q-155 0 -232 74q-72 68 -72 191zM233 252q0 -77 24 -119q23 -40 73 -40q98 0 98 159q0 160 -96 160q-99 0 -99 -160zM379 581v145h171v-145h-171zM116 581v145h171v-145h-171z
" />
    <glyph glyph-name="divide" unicode="&#xf7;" horiz-adv-x="660" 
d="M61 199v140h538v-140h-538zM251 2v151h158v-151h-158zM251 385v151h158v-151h-158z" />
    <glyph glyph-name="oslash" unicode="&#xf8;" 
d="M245 178l159 192q-24 37 -70 37q-97 0 -97 -156q0 -44 8 -73zM427 304l-152 -184q20 -25 59 -25q97 0 97 156q0 29 -4 53zM116 -72l-47 36l67 81q-94 69 -94 206q0 89 41 150.5t105 88.5t146 27q93 0 161 -36l62 75l48 -37l-59 -72q80 -70 80 -196q0 -89 -41 -150.5
t-105 -88.5t-146 -27q-85 0 -146 30z" />
    <glyph glyph-name="ugrave" unicode="&#xf9;" 
d="M64 502h187v-293q0 -98 75 -98q79 0 79 100v291h188v-415q2 -37 3 -87h-185l-4 78q-34 -54 -73.5 -70.5t-84.5 -16.5q-50 0 -86 15t-54.5 36.5t-29 55.5t-13 60t-2.5 61v283zM303 581l-186 145h208l107 -145h-129z" />
    <glyph glyph-name="uacute" unicode="&#xfa;" 
d="M64 502h187v-293q0 -98 75 -98q79 0 79 100v291h188v-415q2 -37 3 -87h-185l-4 78q-34 -54 -73.5 -70.5t-84.5 -16.5q-50 0 -86 15t-54.5 36.5t-29 55.5t-13 60t-2.5 61v283zM551 726l-183 -145h-132l111 145h204z" />
    <glyph glyph-name="ucircumflex" unicode="&#xfb;" 
d="M64 502h187v-293q0 -98 75 -98q79 0 79 100v291h188v-415q2 -37 3 -87h-185l-4 78q-34 -54 -73.5 -70.5t-84.5 -16.5q-50 0 -86 15t-54.5 36.5t-29 55.5t-13 60t-2.5 61v283zM245 726h169l120 -145h-130l-74 77l-74 -77h-130z" />
    <glyph glyph-name="udieresis" unicode="&#xfc;" 
d="M64 502h187v-293q0 -98 75 -98q79 0 79 100v291h188v-415q2 -37 3 -87h-185l-4 78q-34 -54 -73.5 -70.5t-84.5 -16.5q-50 0 -86 15t-54.5 36.5t-29 55.5t-13 60t-2.5 61v283zM379 581v145h171v-145h-171zM116 581v145h171v-145h-171z" />
    <glyph glyph-name="yacute" unicode="&#xfd;" horiz-adv-x="611" 
d="M595 502l-273 -692h-175l71 174l-210 518h203l100 -349l109 349h175zM523 726l-183 -145h-132l111 145h204z" />
    <glyph glyph-name="thorn" unicode="&#xfe;" 
d="M56 -192v914h190v-291h2q55 86 163 86q105 0 159.5 -75.5t54.5 -183.5q0 -118 -60 -195.5t-175 -77.5q-82 0 -142 75h-2v-252h-190zM338 407q-92 0 -92 -156t92 -156t92 156t-92 156z" />
    <glyph glyph-name="ydieresis" unicode="&#xff;" horiz-adv-x="611" 
d="M595 502l-273 -692h-175l71 174l-210 518h203l100 -349l109 349h175zM351 581v145h171v-145h-171zM88 581v145h171v-145h-171z" />
    <glyph glyph-name="dotlessi" unicode="&#x131;" horiz-adv-x="333" 
d="M262 0h-190v502h190v-502z" />
    <glyph glyph-name="Lslash" unicode="&#x141;" horiz-adv-x="611" 
d="M67 0v274l-79 -45v97l79 46v350h203v-234l181 104v-97l-181 -104v-249h324v-142h-527z" />
    <glyph glyph-name="lslash" unicode="&#x142;" horiz-adv-x="333" 
d="M69 0v278l-87 -58v104l87 58v340h188v-220l88 55v-104l-88 -56v-397h-188z" />
    <glyph glyph-name="OE" unicode="&#x152;" horiz-adv-x="1000" 
d="M673 582v-149h248v-140h-248v-153h278v-140h-550q-168 -1 -270 98.5t-102 267.5q0 69 22 133.5t68.5 117.5t110.5 78q69 27 198 27h514v-140h-269zM473 134v457q-57 6 -58 6q-93 0 -134.5 -64t-41.5 -171q0 -96 43 -165t133 -69q1 0 58 6z" />
    <glyph glyph-name="oe" unicode="&#x153;" horiz-adv-x="1000" 
d="M233 251q0 -156 97 -156t97 156t-97 156t-97 -156zM611 315h176q0 43 -23 75q-25 35 -66 32q-46 -2 -64.5 -30t-22.5 -77zM38 251q0 89 41 150.5t105 88.5t146 27q129 0 206 -82q61 82 162 82q146 0 207.5 -77.5t61.5 -226.5h-360q-2 -118 89 -118q81 0 91 69h180
q-5 -86 -91 -138q-67 -41 -167 -41q-65 0 -113.5 24.5t-73.5 65.5q-78 -90 -192 -90q-82 0 -146 27t-105 88.5t-41 150.5z" />
    <glyph glyph-name="Scaron" unicode="&#x160;" horiz-adv-x="722" 
d="M42 230h201q0 -14 1 -23.5t8 -28t18.5 -30t36 -21t58.5 -9.5q10 0 18.5 0.5t26 5t30 12t22.5 24.5t10 40q0 27 -14 44t-48 26l-177 46q-23 6 -38.5 11t-45 20.5t-48 35t-33 54t-14.5 77.5q0 96 76 161t228 65q58 0 105 -9t77 -22.5t52 -35t33.5 -40.5t18 -44.5t8 -41.5
t1.5 -37h-203q0 100 -95 100q-43 0 -69 -21.5t-26 -54.5q0 -24 13.5 -41t26 -22t33.5 -11l135 -35q28 -7 42.5 -11.5t40.5 -14t40.5 -19t33.5 -25.5t29 -34.5t17 -45t7 -58.5q0 -116 -88 -174.5t-231 -58.5q-185 0 -262 86q-52 57 -55 160zM361 867l76 79h127l-120 -145
h-167l-119 145h126z" />
    <glyph glyph-name="scaron" unicode="&#x161;" horiz-adv-x="556" 
d="M29 163h186q0 -28 8 -45q14 -31 55 -31q29 0 43 15.5t14 35.5q0 24 -17 35t-54 21l-102 29q-122 31 -122 136q0 36 17 66.5t43 47.5q61 43 178 43q219 0 229 -169h-178q0 34 -7 49q-14 27 -52 27q-24 0 -40 -11t-16 -33q0 -20 13 -30.5t38 -17.5l134 -37q22 -6 39 -14
t37 -23t31 -40.5t11 -60.5t-11.5 -63t-28 -45.5t-42 -30t-46 -18.5t-47 -9t-38.5 -3.5t-28 -0.5q-37 0 -66 2.5t-65 13t-60 29t-40.5 52.5t-15.5 80zM278 647l76 79h127l-120 -145h-167l-119 145h126z" />
    <glyph glyph-name="Ydieresis" unicode="&#x178;" horiz-adv-x="778" 
d="M6 722h232l158 -303l163 303h206l-282 -467v-255h-202v264zM435 801v145h171v-145h-171zM172 801v145h171v-145h-171z" />
    <glyph glyph-name="Zcaron" unicode="&#x17d;" 
d="M17 0v159l360 422h-340v139h588v-154l-372 -426h380v-140h-616zM333 867l76 79h127l-120 -145h-167l-119 145h126z" />
    <glyph glyph-name="zcaron" unicode="&#x17e;" horiz-adv-x="556" 
d="M40 0v127l241 253h-230v121h444v-124l-244 -258h256v-119h-467zM278 647l76 79h127l-120 -145h-167l-119 145h126z" />
    <glyph glyph-name="florin" unicode="&#x192;" 
d="M531 433l-24 -130h-94l-59 -311q-18 -105 -68.5 -147.5t-146.5 -42.5q-67 0 -107 8l24 122q22 -1 40.5 -1t33 13t19.5 40l65 319h-97l25 130h94q5 20 12.5 58.5t12.5 58t15.5 49t25.5 45.5t38.5 32.5t58 23.5t79.5 7q53 0 96 -7l-23 -126q-20 6 -35.5 3t-26 -5.5
t-18.5 -13t-12 -18.5t-7.5 -23t-5.5 -26.5t-5 -28.5t-6 -29h96z" />
    <glyph glyph-name="circumflex" unicode="&#x2c6;" horiz-adv-x="333" 
d="M78 726h169l120 -145h-130l-74 77l-74 -77h-130z" />
    <glyph glyph-name="caron" unicode="&#x2c7;" horiz-adv-x="333" 
d="M166 647l76 79h127l-120 -145h-167l-119 145h126z" />
    <glyph glyph-name="uni02C9" unicode="&#x2c9;" horiz-adv-x="333" 
d="M-27 614v76h382v-76h-382z" />
    <glyph glyph-name="breve" unicode="&#x2d8;" horiz-adv-x="333" 
d="M-30 726h82q2 -25 27.5 -47t85.5 -22q32 0 54.5 7t34.5 20t16.5 21t9.5 21h77q-7 -58 -41 -97q-50 -57 -152 -57q-82 0 -131 34q-58 39 -63 120z" />
    <glyph glyph-name="dotaccent" unicode="&#x2d9;" horiz-adv-x="333" 
d="M81 581v145h171v-145h-171z" />
    <glyph glyph-name="ring" unicode="&#x2da;" horiz-adv-x="333" 
d="M279 653q0 -47 -32.5 -79.5t-79.5 -32.5q-46 0 -79 33t-33 79q0 47 32.5 80t79.5 33q46 0 79 -33t33 -80zM220 653q0 22 -15.5 38t-37.5 16t-37.5 -15.5t-15.5 -38.5q0 -22 15.5 -37.5t37.5 -15.5t37.5 15.5t15.5 37.5z" />
    <glyph glyph-name="ogonek" unicode="&#x2db;" horiz-adv-x="333" 
d="M261 -143v-48q-52 -26 -91 -26q-50 0 -74 23t-24 52q0 38 32 77.5t85 65.5h45q-23 -17 -33 -26.5t-22.5 -29.5t-12.5 -41q0 -59 55 -59q20 0 40 12z" />
    <glyph glyph-name="tilde" unicode="&#x2dc;" horiz-adv-x="333" 
d="M22 581h-78q3 59 42 101q42 45 104 45q26 0 73 -14l77 -22q19 -6 31 -6q29 0 33 39h81q-5 -60 -45 -102t-95 -42q-19 0 -50 9l-82 24q-28 8 -43 8q-38 0 -48 -40z" />
    <glyph glyph-name="hungarumlaut" unicode="&#x2dd;" 
d="M692 726l-183 -145h-132l111 145h204zM411 726l-183 -145h-132l111 145h204z" />
    <glyph glyph-name="uni03A9" unicode="&#x3a9;" horiz-adv-x="854" 
d="M204 122v3q-61 42 -103 110t-42 157q0 134 102.5 226.5t266.5 92.5q166 0 265.5 -94.5t99.5 -221.5q0 -168 -148 -270v-3h163v-122h-331v93q151 86 151 272q0 94 -54 159.5t-145 65.5q-89 0 -146.5 -64.5t-57.5 -165.5q0 -94 42.5 -164.5t108.5 -102.5v-93h-332v122h160z
" />
    <glyph glyph-name="uni03BC" unicode="&#x3bc;" 
d="M94 -213v715h140v-247q0 -39 2.5 -62t11 -45t26 -32t46.5 -10q31 0 51 12t28 36t10.5 44t2.5 52v252h139v-502h-116v57q-13 -19 -22 -29t-33 -23t-54 -13q-61 0 -98 48v-253h-134z" />
    <glyph glyph-name="pi" unicode="&#x3c0;" horiz-adv-x="712" 
d="M684 401h-78v-235q0 -108 14 -166h-160q-20 27 -20 154v247h-146q-3 -96 -22.5 -218.5t-45.5 -182.5h-161q26 81 46 200.5t20 200.5q-77 0 -112 -10l-17 99q42 36 197 36h499z" />
    <glyph glyph-name="endash" unicode="&#x2013;" horiz-adv-x="500" 
d="M0 204v127h500v-127h-500z" />
    <glyph glyph-name="emdash" unicode="&#x2014;" horiz-adv-x="1000" 
d="M130 204v127h740v-127h-740z" />
    <glyph glyph-name="quoteleft" unicode="&#x2018;" horiz-adv-x="333" 
d="M215 456h-186l119 266h134z" />
    <glyph glyph-name="quoteright" unicode="&#x2019;" horiz-adv-x="333" 
d="M106 722h187l-119 -266h-135z" />
    <glyph glyph-name="quotesinglbase" unicode="&#x201a;" horiz-adv-x="333" 
d="M23 -97l60 236h172l-105 -236h-127z" />
    <glyph glyph-name="quotedblleft" unicode="&#x201c;" 
d="M278 456h-187l120 266h134zM520 456h-187l120 266h134z" />
    <glyph glyph-name="quotedblright" unicode="&#x201d;" 
d="M160 722h186l-119 -266h-134zM402 722h186l-119 -266h-134z" />
    <glyph glyph-name="quotedblbase" unicode="&#x201e;" 
d="M95 -97l60 236h171l-104 -236h-127zM332 -97l60 236h172l-105 -236h-127z" />
    <glyph glyph-name="dagger" unicode="&#x2020;" 
d="M250 441h-171v125h171v156h156v-156h168v-125h-168v-441h-156v441z" />
    <glyph glyph-name="daggerdbl" unicode="&#x2021;" 
d="M79 150v125h171v174h-171v125h171v148h156v-148h168v-125h-168v-174h168v-125h-168v-150h-156v150h-171z" />
    <glyph glyph-name="bullet" unicode="&#x2022;" horiz-adv-x="500" 
d="M250 542q74 0 127.5 -53t53.5 -128q0 -74 -53 -127t-128 -53t-128 53t-53 127q0 75 53 128t128 53z" />
    <glyph glyph-name="ellipsis" unicode="&#x2026;" horiz-adv-x="1000" 
d="M79 0v149h176v-149h-176zM412 0v149h176v-149h-176zM745 0v149h176v-149h-176z" />
    <glyph glyph-name="perthousand" unicode="&#x2030;" horiz-adv-x="1000" 
d="M13 553q0 81 37.5 128.5t109.5 47.5q68 0 104.5 -45t36.5 -125q0 -87 -40 -131q-38 -44 -104 -44t-105 42t-39 127zM118 555q0 -95 39 -95q38 0 38 102q0 51 -9.5 70t-28.5 19q-39 0 -39 -96zM357 163q0 81 37.5 128.5t109.5 47.5q68 0 105 -45t37 -125q0 -85 -40 -131
q-39 -44 -104 -44q-67 0 -105 42q-40 43 -40 127zM463 165q0 -95 39 -95q38 0 38 102q0 51 -9.5 70t-28.5 19q-39 0 -39 -96zM692 163q0 81 37.5 128.5t109.5 47.5q68 0 104.5 -45t36.5 -125q0 -87 -40 -131q-38 -44 -104 -44t-105 42t-39 127zM797 165q0 -95 39 -95
q38 0 38 102q0 51 -9.5 70t-28.5 19q-39 0 -39 -96zM46 -20l462 764h98l-460 -764h-100z" />
    <glyph glyph-name="guilsinglleft" unicode="&#x2039;" horiz-adv-x="333" 
d="M150 449h155l-119 -196l119 -194h-154l-125 196z" />
    <glyph glyph-name="guilsinglright" unicode="&#x203a;" horiz-adv-x="333" 
d="M181 59h-155l119 196l-119 194h154l125 -196z" />
    <glyph glyph-name="fraction" unicode="&#x2044;" horiz-adv-x="167" 
d="M-44 0h-109l365 707h109z" />
    <glyph glyph-name="Euro" unicode="&#x20ac;" 
d="M427 211h-124q7 -41 29.5 -67t60.5 -26q62 0 77 51h189q-19 -91 -94 -139q-67 -44 -173 -44q-112 0 -181.5 60.5t-96.5 164.5h-114l42 108h56q0 5 -0.5 13t-0.5 13q0 3 0.5 13t0.5 13h-93l42 108h65q25 107 95 170.5t185 63.5q229 0 262 -187h-187q-6 30 -22 42
q-16 13 -52 13q-75 0 -91 -102h231l-43 -108h-197v-26v-26h177z" />
    <glyph glyph-name="afii61289" unicode="&#x2113;" horiz-adv-x="623" 
d="M529 209l69 -68q-90 -152 -260 -152q-173 0 -210 154q-1 3 -1 9q-10 -6 -28 -18.5t-27 -18.5l-43 81q5 3 41 28t54 39v226q0 141 57.5 210t156.5 69q87 0 132 -53t45 -132q0 -89 -58.5 -171t-176.5 -179l1 -27q3 -41 29.5 -65.5t66.5 -24.5q44 0 83.5 26.5t68.5 66.5z
M280 520v-153q123 123 123 217q0 79 -56 79q-28 0 -47.5 -33.5t-19.5 -109.5z" />
    <glyph glyph-name="trademark" unicode="&#x2122;" horiz-adv-x="950" 
d="M170 361v291h-108v70h320v-70h-112v-291h-100zM412 361v361h155l58 -245l57 245h154v-361h-91l4 304l-85 -304h-89l-79 304v-304h-84z" />
    <glyph glyph-name="Omega" unicode="&#x2126;" horiz-adv-x="854" 
d="M204 122v3q-61 42 -103 110t-42 157q0 134 102.5 226.5t266.5 92.5q166 0 265.5 -94.5t99.5 -221.5q0 -168 -148 -270v-3h163v-122h-331v93q151 86 151 272q0 94 -54 159.5t-145 65.5q-89 0 -146.5 -64.5t-57.5 -165.5q0 -94 42.5 -164.5t108.5 -102.5v-93h-332v122h160z
" />
    <glyph glyph-name="estimated" unicode="&#x212e;" horiz-adv-x="876" 
d="M842 339h-654q-6 0 -6 -4v-198q0 -11 9 -22q103 -108 247 -108q156 0 261 120h58q-55 -65 -139.5 -102.5t-180.5 -37.5q-167 0 -285 106t-118 256q0 151 118 257.5t285 106.5q168 0 286.5 -106.5t118.5 -257.5v-10zM693 365v199q0 14 -10 24q-105 103 -245 103
q-142 0 -246 -106q-10 -12 -10 -25v-195q0 -6 6 -6h501q4 0 4 6z" />
    <glyph glyph-name="partialdiff" unicode="&#x2202;" horiz-adv-x="674" 
d="M114 618l-47 107q90 63 224 63q144 0 239.5 -105.5t95.5 -282.5q0 -183 -93.5 -297t-245.5 -114q-62 0 -112 23.5t-79 60.5t-44.5 78t-15.5 81q0 114 70.5 188t181.5 74q65 0 111 -29.5t66 -60.5h1q1 7 1 28q0 97 -53.5 164.5t-142.5 67.5q-88 0 -157 -46zM304 112h1
q56 0 95.5 53.5t49.5 120.5q-9 30 -43.5 59.5t-81.5 29.5q-55 0 -91.5 -42t-36.5 -103q0 -50 30.5 -84t76.5 -34z" />
    <glyph glyph-name="Delta" unicode="&#x2206;" horiz-adv-x="773" 
d="M26 0v83l264 633h197l258 -632v-84h-719zM200 122h361l-121 293q-7 20 -29 80t-29 84h-5q-5 -17 -25 -73t-27 -77z" />
    <glyph glyph-name="product" unicode="&#x220f;" horiz-adv-x="835" 
d="M812 565h-120v-661h-158v661h-234v-661h-158v661h-120v134h790v-134z" />
    <glyph glyph-name="summation" unicode="&#x2211;" horiz-adv-x="655" 
d="M637 -97h-614v91l271 305l-258 297v103h579v-130h-357v-4l219 -247l-241 -275v-4h401v-136z" />
    <glyph glyph-name="minus" unicode="&#x2212;" horiz-adv-x="660" 
d="M78 191v120h504v-120h-504z" />
    <glyph glyph-name="uni2215" unicode="&#x2215;" horiz-adv-x="167" 
d="M-44 0h-109l365 707h109z" />
    <glyph glyph-name="uni2219" unicode="&#x2219;" horiz-adv-x="333" 
d="M72 204v149h176v-149h-176z" />
    <glyph glyph-name="radical" unicode="&#x221a;" horiz-adv-x="689" 
d="M711 837l-268 -984h-126l-176 435l-83 -33l-27 79l203 83l122 -325q22 -74 25 -84l2 -1q17 81 19 90l195 740h114z" />
    <glyph glyph-name="infinity" unicode="&#x221e;" horiz-adv-x="839" 
d="M788 290v-1q0 -85 -52.5 -137t-123.5 -52q-104 0 -193 120q-48 -59 -93 -89.5t-104 -30.5q-70 0 -121.5 52t-51.5 131q0 82 52.5 134.5t130.5 52.5q58 0 103.5 -29.5t89.5 -86.5q2 2 13 14.5t14.5 16.5t14.5 15.5t16.5 16t17.5 14t20 13.5t20.5 10t23.5 9t25 5t28 2
q72 -1 121 -50.5t49 -129.5zM232 182h2q26 0 54 17t45 34.5t41 46.5q-29 40 -42.5 57t-42 35t-60.5 18q-42 0 -68.5 -29.5t-26.5 -77.5q-1 -42 27.5 -71.5t70.5 -29.5zM609 390h-1q-15 0 -30.5 -5.5t-25.5 -11.5t-26 -20.5t-21.5 -20.5t-21.5 -25t-17 -20q48 -60 79.5 -82.5
t68.5 -22.5q41 0 65 31.5t24 69.5q0 47 -26 77t-68 30z" />
    <glyph glyph-name="integral" unicode="&#x222b;" horiz-adv-x="433" 
d="M421 856l-16 -99q-18 8 -42 8q-39 0 -58 -27q-28 -37 -28 -164q0 -80 9 -229.5t9 -242.5q0 -128 -40 -198q-45 -81 -150 -81q-61 0 -93 17l19 103q26 -11 50 -11q34 0 52 21q31 39 31 150q0 94 -9 248t-9 239q0 87 16.5 141t53.5 90q47 48 135 48q42 0 70 -13z" />
    <glyph glyph-name="approxequal" unicode="&#x2248;" horiz-adv-x="625" 
d="M528 472l56 -56q-68 -108 -158 -108q-33 0 -59 9.5t-68 33.5q-60 34 -96 34q-33 0 -57.5 -19t-53.5 -56l-55 55q27 46 73.5 77t97.5 31q54 0 117 -38q29 -17 38.5 -22t26 -10.5t33.5 -5.5q54 0 105 75zM528 267l56 -55q-69 -108 -159 -108q-52 0 -126 42q-61 35 -95 35
t-58.5 -19t-53.5 -57l-55 56q26 46 73.5 76.5t97.5 30.5t117 -36q4 -2 22 -13t25 -14.5t21.5 -8t28.5 -4.5q31 0 54.5 18t51.5 57z" />
    <glyph glyph-name="notequal" unicode="&#x2260;" horiz-adv-x="625" 
d="M463 530l-41 -90h150v-87h-187l-62 -138h249v-87h-287l-56 -124l-70 32l42 92h-148v87h185l62 138h-247v87h284l55 121z" />
    <glyph glyph-name="lessequal" unicode="&#x2264;" horiz-adv-x="625" 
d="M570 113l-513 232v94l512 231v-98l-420 -179v-2l421 -180v-98zM572 -14h-519v89h519v-89z" />
    <glyph glyph-name="greaterequal" unicode="&#x2265;" horiz-adv-x="625" 
d="M58 670l513 -232v-94l-513 -231v98l420 180v2l-420 179v98zM568 -14h-514v89h514v-89z" />
    <glyph glyph-name="lozenge" unicode="&#x25ca;" horiz-adv-x="689" 
d="M636 349l-232 -400h-123l-229 400l231 400h124zM497 345l-133 240q-15 33 -20 49h-2q-7 -21 -21 -49l-130 -233l133 -242q16 -38 19 -47h4q11 33 18 46z" />
    </font>
</defs>
</svg>
