<?xml version="1.0" encoding="utf-8"?>
<!-- Generator: Adobe Illustrator 19.1.0, SVG Export Plug-In . SVG Version: 6.00 Build 0)  -->
<svg version="1.1" id="Layer_1" xmlns="http://www.w3.org/2000/svg" xmlns:xlink="http://www.w3.org/1999/xlink" x="0px" y="0px"
	 viewBox="0 0 21.7 19.1" style="enable-background:new 0 0 21.7 19.1;" xml:space="preserve">
<style type="text/css">
	.st0{fill:#B3B3B3;}
</style>
<g>
	<path class="st0" d="M15.1,2.4L15.1,2.4l4.2,7.2l-4.2,7.2H6.6L2.4,9.5l4.2-7.2H15.1 M15.1,0H6.6C5.7,0,5,0.4,4.5,1.2L0.3,8.3
		c-0.4,0.7-0.4,1.7,0,2.4l4.2,7.2c0.4,0.7,1.2,1.2,2.1,1.2h8.5c0.8,0,1.6-0.4,2.1-1.2l4.2-7.2c0.4-0.7,0.4-1.7,0-2.4l-4.2-7.2
		C16.7,0.4,15.9,0,15.1,0L15.1,0z"/>
	<polygon class="st0" points="10.8,5.2 12.2,8 15.4,8.5 13.1,10.8 13.7,13.9 10.8,12.4 8,13.9 8.5,10.8 6.2,8.5 9.4,8 	"/>
</g>
</svg>
