<?xml version="1.0" encoding="utf-8"?>
<!-- Generator: Adobe Illustrator 19.1.0, SVG Export Plug-In . SVG Version: 6.00 Build 0)  -->
<svg version="1.1" id="Layer_1" xmlns="http://www.w3.org/2000/svg" xmlns:xlink="http://www.w3.org/1999/xlink" x="0px" y="0px"
	 viewBox="0 0 62.2 74.5" style="enable-background:new 0 0 62.2 74.5;" xml:space="preserve">
<style type="text/css">
	.st0{fill:#E77824;}
</style>
<path class="st0" d="M60.1,10.4c1.2,0,2.1-0.9,2.1-2.1s-0.9-2.1-2.1-2.1H33.1V2.1c0-1.2-0.9-2.1-2.1-2.1C29.9,0,29,0.9,29,2.1v4.1
	H2.1C0.9,6.2,0,7.1,0,8.3s0.9,2.1,2.1,2.1h2.1v33.2C1.8,44.1,0,46.2,0,48.6s1.8,4.6,4.1,5.1v0.2H29v7.5L19.2,71
	c-0.8,0.8-0.8,2.2,0,2.9c0.4,0.4,0.9,0.6,1.5,0.6c0.6,0,1.1-0.2,1.5-0.6l6.8-6.8v3.3c0,1.2,0.9,2.1,2.1,2.1c1.2,0,2.1-0.9,2.1-2.1
	v-3.3l6.8,6.8c0.4,0.4,0.9,0.6,1.5,0.6s1.1-0.2,1.5-0.6c0.8-0.8,0.8-2.2,0-2.9l-9.8-9.7v-7.5H58v-0.1c2.3-0.5,4.1-2.6,4.1-5.1
	s-1.8-4.6-4.1-5.1V10.4H60.1z M8.3,10.4h45.6v33.1H8.3V10.4z M57,49.7h-3.1H8.3H5.1c-0.6,0-1.1-0.5-1.1-1.1s0.5-1.1,1.1-1.1h51.8
	c0.6,0,1.1,0.5,1.1,1.1S57.5,49.7,57,49.7z"/>
</svg>
