<?xml version="1.0" encoding="utf-8"?>
<!-- Generator: Adobe Illustrator 19.1.0, SVG Export Plug-In . SVG Version: 6.00 Build 0)  -->
<svg version="1.1" id="Layer_1" xmlns="http://www.w3.org/2000/svg" xmlns:xlink="http://www.w3.org/1999/xlink" x="0px" y="0px"
	 viewBox="0 0 19.1 23.2" style="enable-background:new 0 0 19.1 23.2;" xml:space="preserve">
<style type="text/css">
	.st0{fill:#8BC53F;}
</style>
<path class="st0" d="M13.5,0.1c-1.3,0-2.9,1-3.5,2.7c-0.1,0-0.2,0-0.4,0c-0.1,0-0.2,0-0.4,0C8.7,1.1,7,0,5.6,0
	C4.3,0,3.4,0.8,3.2,2.2C3.2,2.5,3.4,2.9,3.8,2.9C4.1,3,4.5,2.7,4.5,2.4c0.1-0.7,0.5-1,1.1-1c0.9,0,2.1,0.8,2.4,1.9
	C7.8,3.4,7.7,3.5,7.5,3.7C6.7,4.5,6.2,5.5,6,6.1L5.9,6.2C5.6,6.8,5.4,7.3,5.2,7.9C4,8.6,2.7,9.4,1.8,10.4C0.6,11.5,0,12.7,0,13.8
	c0,1,0.5,1.8,1.4,2.6c0.9,0.8,1.9,1.1,2.8,0.8c0.1,0.3,0.2,0.6,0.3,0.9c1.4,3.6,4.4,4.9,4.5,5l0.2,0.1l0.2-0.1
	c0.1,0,1.4-0.5,2.8-1.9c1-0.9,1.9-2.2,2.4-3.9c0,0,0,0,0.1,0c0.7,0.2,1.7,0.3,2.9-0.7c0.1-0.1,0.2-0.2,0.3-0.3c1-1,1.3-2.1,1-3.2
	c-0.5-2-2.7-3.8-4.9-5.1c-0.2-0.7-0.5-1.4-0.8-2.1c-0.6-1.4-1.3-2.2-2.1-2.6c0.3-1.1,1.4-1.9,2.2-1.8c0.5,0,0.8,0.4,0.9,1
	c0,0.4,0.4,0.6,0.7,0.6c0.1,0,0.3-0.1,0.4-0.2c0.1-0.1,0.2-0.3,0.2-0.6C15.5,0.7,14.4,0.1,13.5,0.1z M17.8,13.4
	c0.2,0.8-0.1,1.5-0.9,2.2c-0.8,0.7-1.3,0.6-1.6,0.5c0,0-0.1,0-0.1-0.1c-0.4-0.2-0.8-0.5-1.2-1c-0.3-0.3-0.5-0.7-0.8-1.1
	c-0.4-0.7-0.8-1.4-1.1-2.2c-0.2-0.6-0.5-1.2-0.7-1.8c-0.3-0.8-0.5-1.6-0.7-2.2l0.1,0c1.2,0.5,2.8,1.4,4.1,2.3
	C16.2,11,17.5,12.3,17.8,13.4z M2.3,15.5c-0.6-0.5-0.9-1.1-0.9-1.7c0-0.7,0.4-1.6,1.4-2.5c0.5-0.5,1.1-1,1.8-1.4
	c1.4-0.9,3-1.7,4.1-2.2l0,0C8.5,8.2,8.2,9,7.9,9.9c-0.2,0.6-0.4,1.2-0.7,1.8c-0.3,0.8-0.7,1.5-1.1,2.2c-0.3,0.5-0.6,0.9-0.9,1.2
	C5.1,15.1,5,15.2,5,15.3c-0.4,0.4-0.7,0.6-1,0.7C3.4,16.1,2.8,16,2.3,15.5z M9.3,9.9l0.5,0c0.2,0.6,0.4,1.2,0.7,1.8l-1.9,0
	C8.9,11,9.1,10.4,9.3,9.9z M7.6,13.8l3.9,0c0.3,0.6,0.7,1.3,1.1,1.8l-6.2-0.1C6.9,15.1,7.2,14.5,7.6,13.8z M12,19.7l-5.1,0
	c-0.4-0.5-0.7-1.1-1-1.8l7.3,0.1C12.8,18.6,12.4,19.2,12,19.7z M12.1,6.4c0.1,0.2,0.2,0.4,0.3,0.6c-1-0.5-1.8-0.8-2.4-1
	C9.9,5.9,9.8,5.9,9.6,5.9c-0.1,0-0.3,0-0.4,0.1C8.7,6.2,7.9,6.5,7.1,6.9c0,0,0-0.1,0-0.1l0.1-0.1c0.2-0.5,0.7-1.4,1.2-2
	c0.4-0.4,0.8-0.6,1.2-0.6C10.6,4.1,11.4,4.9,12.1,6.4z"/>
</svg>
