<?xml version="1.0" encoding="utf-8"?>
<!-- Generator: Adobe Illustrator 19.1.0, SVG Export Plug-In . SVG Version: 6.00 Build 0)  -->
<svg version="1.1" id="Layer_1" xmlns="http://www.w3.org/2000/svg" xmlns:xlink="http://www.w3.org/1999/xlink" x="0px" y="0px"
	 viewBox="0 0 203.5 35.5" style="enable-background:new 0 0 203.5 35.5;" xml:space="preserve">
<style type="text/css">
	.st0{fill:#39A6E2;}
	.st1{fill:#FFFFFF;}
	.st2{font-family:'Univers-Condensed';}
	.st3{font-size:12px;}
</style>
<g>
	<g>
		<path class="st0" d="M3.5,35.5L3.5,35.5c-1.9,0-3.5-1.6-3.5-3.5l0-3.1h7V32C7,33.9,5.4,35.5,3.5,35.5z"/>
		<path class="st0" d="M41.8,35.5L41.8,35.5c-1.9,0-3.5-1.6-3.5-3.5v-3.1h7V32C45.3,33.9,43.7,35.5,41.8,35.5z"/>
		<g>
			<path class="st0" d="M28.3,4.7c-1-2.1-3.1-3.6-5.5-3.6c-2.5,0-4.6,1.5-5.6,3.6L7.3,7.3v2.3h30.5V7.3v0L28.3,4.7z"/>
		</g>
		<circle class="st0" cx="41.2" cy="15" r="1"/>
		<circle class="st0" cx="43.2" cy="21.6" r="1"/>
		<circle class="st0" cx="41.5" cy="5.4" r="1"/>
		<circle class="st0" cx="31.8" cy="2.2" r="1"/>
		<circle class="st0" cx="6" cy="16.5" r="1"/>
		<circle class="st0" cx="2.3" cy="12.6" r="1"/>
		<circle class="st0" cx="5.7" cy="5.4" r="1"/>
		<path class="st0" d="M38.7,25.4c0-0.2,0-0.5-0.1-0.7c-0.1-0.2-0.1-0.5-0.2-0.7c-0.1-0.2-0.1-0.5-0.2-0.8c-0.1-0.3-0.3-0.6-0.5-0.8
			c-0.3-0.5-0.7-0.9-1.1-1.3c-0.4-0.4-0.9-0.7-1.5-0.9c-0.5-0.2-0.9-0.4-1.2-0.4v-8.6h-1.5v11.1c-0.9,1.3-2.1,2.5-3.6,3.3V11.1h-0.3
			h-1.1h-9.7h-0.6h-0.9v14.1c-1.4-0.9-2.7-2.2-3.6-3.7V11.1h-1.5v8.7c-0.1,0-0.2,0.1-0.4,0.2c-0.3,0.1-0.5,0.2-0.8,0.4
			c-0.7,0.4-1.3,1-1.9,1.6c-0.1,0.2-0.3,0.3-0.4,0.5c-0.2,0.6-0.6,1.1-0.7,1.7c-0.1,0.3-0.1,0.7-0.1,1c0,1.5,0,2.9,0,4.4h31.9
			C38.7,28.1,38.7,26.8,38.7,25.4z M27.3,26.2c-1.4,0.6-3,0.9-4.6,0.9c-1.8,0-3.6-0.4-5-1.1V15c0.9,1.8,2.9,3,5,3
			c1.9,0,3.6-0.9,4.6-2.3V26.2z"/>
	</g>
	<g>
		<polygon class="st0" points="57.1,0 57.1,6.6 48.6,10.3 57.1,14 57.1,19.5 67.4,19.5 77.4,19.5 203.5,19.5 203.5,0 		"/>
		<text transform="matrix(1 0 0 1 64.2892 14.436)" class="st1 st2 st3">BEEKEEPER RECOMMENDS</text>
	</g>
</g>
</svg>
