<?xml version="1.0" encoding="utf-8"?>
<!-- Generator: Adobe Illustrator 19.1.0, SVG Export Plug-In . SVG Version: 6.00 Build 0)  -->
<svg version="1.1" id="Layer_1" xmlns="http://www.w3.org/2000/svg" xmlns:xlink="http://www.w3.org/1999/xlink" x="0px" y="0px"
	 viewBox="0 0 102.6 47.3" style="enable-background:new 0 0 102.6 47.3;" xml:space="preserve">
<style type="text/css">
	.st0{fill:#E77824;}
</style>
<g>
	<g>
		<g>
			<path class="st0" d="M102.2,19.2c-1.2-2.7-4.9-4.9-8.8-4.5c-0.1-0.3-0.2-0.5-0.3-0.8c-0.1-0.3-0.2-0.5-0.4-0.7
				C95.7,10.5,96.3,6,95,3.1c-1.2-2.6-3.7-3.7-6.6-2.8c-0.8,0.2-1.2,1.1-1,1.8c0.2,0.8,1.1,1.2,1.8,1c1.5-0.4,2.5,0,3.1,1.2
				c0.9,1.9,0.3,5-1.7,6.7c-0.4-0.3-0.9-0.5-1.4-0.7c-2.2-0.8-4.8-0.9-6.3-0.9l-0.3,0c-1.4,0-2.7,0-4,0.1C76,7.8,73.1,6.1,70.3,5
				c-3.5-1.3-6.5-1.5-8.8-0.3c-1.9,0.9-3.3,2.7-4,5.3c-0.8,2.6-0.4,4.8,1,6.5c-0.5,0.5-1.1,0.9-1.6,1.4c-6.1,6.2-5.9,13.6-5.9,13.9
				l0,0.6l0.4,0.4c0.1,0.1,2.4,2.3,6.4,3.9c2.8,1.1,6.3,1.7,10.3,1.3c0,0,0,0.1,0,0.1c0.2,1.6,1.1,3.8,4.2,5.3
				c0.3,0.1,0.6,0.3,0.8,0.4c2.8,1.1,5.5,0.8,7.6-0.9c3.5-2.8,5.1-9,5.8-14.7c1.2-1.1,2.4-2.4,3.6-3.7c2.3-2.6,3.2-4.8,3.4-6.7
				c2.6-0.3,5,1,5.8,2.7c0.5,1.1,0,2-1.3,2.8c-0.7,0.4-0.9,1.4-0.5,2.1c0.2,0.3,0.4,0.5,0.7,0.6c0.4,0.2,0.9,0.1,1.3-0.1
				C102.8,23.8,103,21.1,102.2,19.2z M79.1,40.4c-1.5,1.1-3.1,1.2-5.3,0.2c-2.1-1-2.4-2.1-2.5-2.9c0-0.1,0-0.2,0-0.3
				c0-1,0.3-2.2,0.9-3.4c0.4-0.8,0.9-1.7,1.5-2.6c1-1.4,2.2-2.9,3.5-4.3c1-1.1,2-2.1,3-3.1c1.4-1.3,2.7-2.5,3.9-3.5l0,0.1
				c0.1,3-0.2,6.9-0.9,10.6C82.4,35.1,81.1,38.8,79.1,40.4z M60.4,10.8c0.5-1.8,1.3-2.9,2.5-3.5c1.5-0.7,3.6-0.6,6.4,0.4
				c1.5,0.6,3.1,1.4,4.6,2.3c3.2,1.9,6.3,4.4,8.4,6.3l0,0.1c-1.4,0.2-3.2,0.4-5.2,0.6c-1.4,0.1-2.8,0.2-4.3,0.2
				c-1.9,0-3.8,0-5.6-0.3c-1.2-0.2-2.3-0.4-3.3-0.7c-0.2-0.1-0.5-0.1-0.7-0.2c-1.1-0.4-1.9-0.9-2.4-1.5C60,13.7,59.9,12.5,60.4,10.8
				z M78.4,20l0.5,1.1c-1,0.9-2,1.9-3,3l-1.7-3.8C75.6,20.2,77.1,20.1,78.4,20z M68.7,20.2l3.6,8c-1,1.3-1.9,2.7-2.6,4L64,19.4
				C65.4,19.8,67,20,68.7,20.2z M60.9,34.4l-4.7-10.5c0.7-1.2,1.5-2.5,2.7-3.7l6.7,14.9C63.9,35,62.3,34.8,60.9,34.4z M88,22.3
				c-0.3,0.4-0.7,0.8-1,1.1c0.1-2.4,0-4.5-0.1-5.8c0-0.3,0-0.6-0.2-0.8c-0.1-0.3-0.3-0.5-0.5-0.7c-0.9-1-2.2-2.3-3.9-3.7
				c0.1,0,0.1,0,0.2,0l0.3,0c1.3,0,3.5,0,5.2,0.7c1.1,0.4,1.9,1.1,2.3,1.9C91.3,17.2,90.5,19.6,88,22.3z"/>
			<g>
				<path class="st0" d="M44.3,35c-0.5-0.2-0.9-0.7-1-1.3c0-0.8,0.6-1.5,1.4-1.6c1.5-0.1,2.4-0.2,2.4-0.2c0.8-0.1,1.6,0.5,1.6,1.3
					c0.1,0.8-0.5,1.6-1.3,1.6c0,0-1,0.1-2.5,0.2C44.7,35.1,44.5,35.1,44.3,35z"/>
				<path class="st0" d="M8.5,47.2c-0.6-0.2-1-0.8-1-1.5c0-0.8,0.7-1.5,1.6-1.4c1.7,0.1,3.3,0,4.8-0.1c0.8-0.1,1.6,0.5,1.6,1.3
					c0.1,0.8-0.5,1.6-1.3,1.6c-1.6,0.2-3.4,0.2-5.2,0.1C8.8,47.2,8.6,47.2,8.5,47.2z M18.4,46c-0.4-0.2-0.7-0.5-0.9-0.9
					c-0.3-0.8,0.1-1.6,0.9-1.9c0.3-0.1,0.5-0.2,0.7-0.3c1.3-0.6,2.5-1.1,3.6-1.7c0.7-0.4,1.6-0.1,2,0.6c0.4,0.7,0.1,1.6-0.6,2
					c-1.2,0.6-2.5,1.3-3.8,1.8c-0.3,0.1-0.6,0.2-0.9,0.4C19.1,46.1,18.7,46.1,18.4,46z M27.3,41.3c-0.3-0.1-0.5-0.3-0.7-0.5
					c-0.5-0.7-0.3-1.6,0.4-2.1c1.4-1,2.6-2,3.7-3c0.6-0.6,1.5-0.6,2.1,0c0.6,0.6,0.6,1.5,0,2.1c-1.2,1.2-2.5,2.3-4.1,3.4
					C28.2,41.4,27.7,41.4,27.3,41.3z M24.3,33.4c-0.7-0.3-1.1-1.1-0.9-1.8c0.2-0.8,1.1-1.3,1.8-1c1.4,0.4,3,0.7,4.7,1
					c0.8,0.1,1.4,0.9,1.2,1.7c-0.1,0.8-0.9,1.4-1.7,1.2c-1.8-0.3-3.6-0.7-5.1-1.1C24.4,33.4,24.4,33.4,24.3,33.4z M19.6,31.5
					c-0.1,0-0.1-0.1-0.2-0.1c-1.8-1-3.3-2.2-4.4-3.5c-0.5-0.6-0.4-1.6,0.2-2.1c0.6-0.5,1.6-0.4,2.1,0.2c0.8,1,2,2,3.4,2.7
					c0.7,0.4,1,1.3,0.6,2C21.1,31.5,20.3,31.8,19.6,31.5z M34.2,35c-0.6-0.2-1-0.8-1-1.5c0-0.1,0-0.2,0.1-0.3
					c-0.1-0.4-0.1-0.8,0.1-1.2c0.4-0.6,0.7-1.3,0.9-2c0.3-0.7,0.5-1.5,0.6-2.2c0.1-0.8,0.9-1.4,1.7-1.2c0.8,0.1,1.4,0.9,1.2,1.7
					c-0.2,0.9-0.4,1.9-0.8,2.8c-0.1,0.4-0.3,0.8-0.5,1.1c1,0,2,0.1,3.1,0.1c0.8,0,1.5,0.7,1.5,1.5c0,0.8-0.7,1.5-1.5,1.5
					c-1.8,0-3.5-0.1-5.1-0.2C34.5,35.1,34.4,35,34.2,35z M13.9,23.8c-0.5-0.2-0.9-0.7-1-1.2c-0.2-1.5,0-3.2,0.5-5
					c0-0.2,0.1-0.4,0.2-0.5c0.2-0.8,1.1-1.2,1.9-1c0.8,0.2,1.2,1.1,1,1.9c0,0.1-0.1,0.3-0.1,0.4c-0.4,1.4-0.5,2.8-0.4,3.9
					c0.1,0.8-0.5,1.6-1.3,1.6C14.3,23.9,14.1,23.9,13.9,23.8z M35.8,24.4c-0.5-0.2-0.8-0.6-0.9-1.1c-0.3-1.4-0.9-2.8-1.7-4.2
					c-0.4-0.7-0.2-1.6,0.5-2.1c0.7-0.4,1.6-0.2,2.1,0.5c1,1.6,1.7,3.3,2.1,5.1c0.2,0.8-0.3,1.6-1.1,1.8
					C36.4,24.5,36.1,24.5,35.8,24.4z M17,14.5c-0.2-0.1-0.4-0.2-0.5-0.4c-0.6-0.6-0.6-1.5,0-2.1c1.5-1.4,3.3-2.2,5.4-2.4
					c0.8-0.1,1.5,0.5,1.6,1.4c0.1,0.8-0.5,1.5-1.4,1.6c-1.4,0.1-2.6,0.7-3.6,1.6C18.1,14.6,17.5,14.7,17,14.5z M30.7,16
					c-0.2-0.1-0.3-0.1-0.4-0.3c-1.2-1-2.5-1.8-3.9-2.4c-0.8-0.3-1.1-1.2-0.8-1.9c0.3-0.8,1.2-1.1,1.9-0.8c1.6,0.7,3.3,1.7,4.7,2.9
					c0.6,0.5,0.7,1.5,0.2,2.1C31.9,16.1,31.2,16.2,30.7,16z"/>
				<path class="st0" d="M1,46.2c-0.7-0.3-1.1-1-0.9-1.7c0.2-0.8,1-1.3,1.8-1.1c0.8,0.2,1.6,0.3,2.4,0.5c0.8,0.1,1.4,0.9,1.2,1.7
					c-0.1,0.8-0.9,1.4-1.7,1.2c-0.9-0.1-1.7-0.3-2.5-0.5C1.1,46.2,1,46.2,1,46.2z"/>
			</g>
		</g>
	</g>
</g>
</svg>
