<?xml version="1.0" encoding="utf-8"?>
<!-- Generator: Adobe Illustrator 19.1.0, SVG Export Plug-In . SVG Version: 6.00 Build 0)  -->
<svg version="1.1" id="Layer_1" xmlns="http://www.w3.org/2000/svg" xmlns:xlink="http://www.w3.org/1999/xlink" x="0px" y="0px"
	 viewBox="0 0 252.7 252.6" style="enable-background:new 0 0 252.7 252.6;" xml:space="preserve">
<style type="text/css">
	.st0{fill:#E67824;}
</style>
<g>
	<g>
		<g>
			<circle class="st0" cx="63.8" cy="12.8" r="4.5"/>
			<path class="st0" d="M154.5,94.2c0,2.5-2,4.5-4.5,4.5c-2.5,0-4.5-2-4.5-4.5c0-2.5,2-4.5,4.5-4.5
				C152.5,89.8,154.5,91.8,154.5,94.2z"/>
			<path class="st0" d="M172.2,91.5c0,2.5-2,4.5-4.5,4.5c-2.5,0-4.5-2-4.5-4.5c0-2.5,2-4.5,4.5-4.5C170.2,87,172.2,89,172.2,91.5z"
				/>
			<path class="st0" d="M236,23c0,2.5-2,4.5-4.5,4.5c-2.5,0-4.5-2-4.5-4.5c0-2.5,2-4.5,4.5-4.5C234,18.5,236,20.5,236,23z"/>
			<circle class="st0" cx="189" cy="60.8" r="4.5"/>
			<path class="st0" d="M203.1,158.1v-32.3c0-7.8-6.4-14.2-14.2-14.2h-59.3V79.1h-7.3v42.2c-1.9,2.4-7.8,9.1-17.2,14.9V79.1H43.7
				v57.2c-9.3-6.2-15.3-13.6-17.2-16.1V79.1h-7.3v39.2c-11.4,7.7-18,21.2-18,34.8v85.2c-0.1,19,24.7,19,24.7,0v-75.6h7.8l0,89.8H34
				h84h0.1V139.9h56.7v18.2h-47.2v94.4h125.1v-94.4H203.1z M78,201.5c-2.5,0-4.5-2-4.5-4.5c0-2.5,2-4.5,4.5-4.5c2.5,0,4.5,2,4.5,4.5
				C82.4,199.5,80.4,201.5,78,201.5z M92.1,180.2c-2.5,0-4.5-2-4.5-4.5c0-2.5,2-4.5,4.5-4.5c2.5,0,4.5,2,4.5,4.5
				C96.6,178.2,94.6,180.2,92.1,180.2z M98,140.1c-6.4,2.9-13.8,5.2-22.5,5.7c-9.4,0.5-17.7-1.8-24.8-5.3v-42
				c5.3,7.9,14.3,13,24.5,13c9.2,0,17.3-4.2,22.7-10.8L98,140.1L98,140.1z M102.8,195c-2.5,0-4.5-2-4.5-4.5c0-2.5,2-4.5,4.5-4.5
				c2.5,0,4.5,2,4.5,4.5C107.2,193,105.2,195,102.8,195z M243.4,243.1H136.9v-75.7h37.9v6.8c0,7.8,6.3,14.2,14.2,14.2
				s14.2-6.3,14.2-14.2v-6.8h40.2L243.4,243.1L243.4,243.1z"/>
			<path class="st0" d="M168.7,61.2c0,2.5-2,4.5-4.5,4.5c-2.5,0-4.5-2-4.5-4.5c0-2.5,2-4.5,4.5-4.5
				C166.6,56.7,168.7,58.7,168.7,61.2z"/>
			<path class="st0" d="M152.1,43.5c0,2.5-2,4.5-4.5,4.5c-2.5,0-4.5-2-4.5-4.5c0-2.5,2-4.5,4.5-4.5C150.1,39,152.1,41,152.1,43.5z"
				/>
			<path class="st0" d="M132,41.1c0,2.5-2,4.5-4.5,4.5c-2.5,0-4.5-2-4.5-4.5c0-2.5,2-4.5,4.5-4.5C130,36.6,132,38.6,132,41.1z"/>
			<circle class="st0" cx="106.3" cy="4.5" r="4.5"/>
			<path class="st0" d="M101.3,26.9c0,2.5-2,4.5-4.5,4.5c-2.5,0-4.5-2-4.5-4.5c0-2.5,2-4.5,4.5-4.5C99.3,22.5,101.3,24.5,101.3,26.9
				z"/>
			<path class="st0" d="M220.6,112c0,2.5-2,4.5-4.5,4.5c-2.5,0-4.5-2-4.5-4.5c0-2.5,2-4.5,4.5-4.5
				C218.6,107.5,220.6,109.5,220.6,112z"/>
			<circle class="st0" cx="213.8" cy="140.3" r="4.5"/>
			<path class="st0" d="M244.2,115.5c0,2.5-2,4.5-4.5,4.5c-2.5,0-4.5-2-4.5-4.5c0-2.5,2-4.5,4.5-4.5
				C242.2,111,244.2,113,244.2,115.5z"/>
			<path class="st0" d="M179.3,192.3c0,2.5-2,4.5-4.5,4.5c-2.5,0-4.5-2-4.5-4.5c0-2.5,2-4.5,4.5-4.5
				C177.3,187.8,179.3,189.8,179.3,192.3z"/>
			<path class="st0" d="M159.2,181.7c0,2.5-2,4.5-4.5,4.5c-2.5,0-4.5-2-4.5-4.5c0-2.5,2-4.5,4.5-4.5
				C157.2,177.2,159.2,179.2,159.2,181.7z"/>
			<circle class="st0" cx="163" cy="198.4" r="4.5"/>
			<path class="st0" d="M152.9,210.8c0,2.5-2,4.5-4.5,4.5c-2.5,0-4.5-2-4.5-4.5c0-2.5,2-4.5,4.5-4.5
				C150.9,206.3,152.9,208.3,152.9,210.8z"/>
			<path class="st0" d="M166.3,213.9c0,2.5-2,4.5-4.5,4.5c-2.5,0-4.5-2-4.5-4.5c0-2.5,2-4.5,4.5-4.5
				C164.3,209.5,166.3,211.5,166.3,213.9z"/>
			<path class="st0" d="M181.1,218.5c0,2.5-2,4.5-4.5,4.5c-2.5,0-4.5-2-4.5-4.5c0-2.5,2-4.5,4.5-4.5C179,214,181.1,216,181.1,218.5z
				"/>
			<path class="st0" d="M181.6,205.5c0,2.5-2,4.5-4.5,4.5c-2.5,0-4.5-2-4.5-4.5c0-2.5,2-4.5,4.5-4.5
				C179.6,201,181.6,203,181.6,205.5z"/>
			<path class="st0" d="M193.5,200.2c0,2.5-2,4.5-4.5,4.5c-2.5,0-4.5-2-4.5-4.5c0-2.5,2-4.5,4.5-4.5
				C191.4,195.7,193.5,197.7,193.5,200.2z"/>
			<path class="st0" d="M207.6,191.9c0,2.5-2,4.5-4.5,4.5c-2.5,0-4.5-2-4.5-4.5c0-2.5,2-4.5,4.5-4.5
				C205.6,187.4,207.6,189.4,207.6,191.9z"/>
			<circle class="st0" cx="209.8" cy="202.9" r="4.5"/>
			<path class="st0" d="M233.6,207.8c0,2.5-2,4.5-4.5,4.5c-2.5,0-4.5-2-4.5-4.5c0-2.5,2-4.5,4.5-4.5
				C231.6,203.3,233.6,205.4,233.6,207.8z"/>
			<path class="st0" d="M221.8,216.7c0,2.5-2,4.5-4.5,4.5c-2.5,0-4.5-2-4.5-4.5c0-2.5,2-4.5,4.5-4.5
				C219.8,212.2,221.8,214.2,221.8,216.7z"/>
			<path class="st0" d="M186,233.6c0,2.5-2,4.5-4.5,4.5c-2.5,0-4.5-2-4.5-4.5c0-2.5,2-4.5,4.5-4.5C184,229.1,186,231.2,186,233.6z"
				/>
			<path class="st0" d="M167.1,228.9c0,2.5-2,4.5-4.5,4.5c-2.5,0-4.5-2-4.5-4.5c0-2.5,2-4.5,4.5-4.5
				C165.1,224.4,167.1,226.4,167.1,228.9z"/>
			<path class="st0" d="M198.2,216.3c0,2.5-2,4.5-4.5,4.5c-2.5,0-4.5-2-4.5-4.5c0-2.5,2-4.5,4.5-4.5
				C196.2,211.8,198.2,213.8,198.2,216.3z"/>
			<path class="st0" d="M195.8,87.4c0,2.5-2,4.5-4.5,4.5c-2.5,0-4.5-2-4.5-4.5c0-2.5,2-4.5,4.5-4.5
				C193.8,82.9,195.8,84.9,195.8,87.4z"/>
			<path class="st0" d="M87.9,130.5c0,2.5-2,4.5-4.5,4.5c-2.5,0-4.5-2-4.5-4.5c0-2.5,2-4.5,4.5-4.5C85.9,126,87.9,128,87.9,130.5z"
				/>
			<path class="st0" d="M117.9,113.1c0,2.5-2,4.5-4.5,4.5c-2.5,0-4.5-2-4.5-4.5c0-2.5,2-4.5,4.5-4.5
				C115.9,108.7,117.9,110.7,117.9,113.1z"/>
			<path class="st0" d="M146.2,9.6c0,2.5-2,4.5-4.5,4.5c-2.5,0-4.5-2-4.5-4.5c0-2.5,2-4.5,4.5-4.5C144.2,5.1,146.2,7.1,146.2,9.6z"
				/>
		</g>
		<g>
			<path class="st0" d="M102.3,50.6c-4.7-10.2-14.9-17.4-26.9-17.4c-12.1,0-22.5,7.3-27.1,17.7L0,63.2v11.4h148.8V63.2v0L102.3,50.6
				z"/>
		</g>
	</g>
</g>
</svg>
