<?xml version="1.0" encoding="utf-8"?>
<!-- Generator: Adobe Illustrator 19.1.0, SVG Export Plug-In . SVG Version: 6.00 Build 0)  -->
<svg version="1.1" id="Layer_1" xmlns="http://www.w3.org/2000/svg" xmlns:xlink="http://www.w3.org/1999/xlink" x="0px" y="0px"
	 viewBox="0 0 320 319.9" style="enable-background:new 0 0 320 319.9;" xml:space="preserve">
<style type="text/css">
	.st0{fill:#EDEFEF;}
</style>
<g>
	<g>
		<circle class="st0" cx="80.8" cy="16.2" r="5.7"/>
		<path class="st0" d="M195.6,119.3c0,3.2-2.6,5.7-5.7,5.7c-3.1,0-5.7-2.5-5.7-5.7c0-3.1,2.5-5.7,5.7-5.7
			C193.1,113.7,195.6,116.2,195.6,119.3z"/>
		<path class="st0" d="M218,115.9c0,3.1-2.6,5.7-5.7,5.7c-3.1,0-5.7-2.5-5.7-5.7c0-3.1,2.5-5.7,5.7-5.7
			C215.5,110.2,218,112.7,218,115.9z"/>
		<path class="st0" d="M298.8,29.1c0,3.1-2.5,5.7-5.7,5.7c-3.1,0-5.7-2.6-5.7-5.7c0-3.1,2.6-5.7,5.7-5.7
			C296.3,23.4,298.8,26,298.8,29.1z"/>
		<circle class="st0" cx="239.3" cy="77" r="5.7"/>
		<path class="st0" d="M257.2,200.2v-40.9c0-9.9-8-17.9-17.9-17.9h-75.1v-41.1h-9.3v53.5c-2.4,3-9.9,11.5-21.8,18.9v-72.4H55.3v72.4
			c-11.7-7.9-19.4-17.2-21.8-20.4v-52h-9.3v49.6C9.9,159.6,1.5,176.7,1.5,194v107.9c-0.1,24,31.2,24,31.2,0v-95.7h9.8l0,113.8H43
			h106.4h0.2V177.2h71.8v23h-59.7v119.5H320V200.2H257.2z M98.7,255.1c-3.1,0-5.7-2.5-5.7-5.7c0-3.1,2.5-5.7,5.7-5.7
			c3.1,0,5.7,2.6,5.7,5.7C104.4,252.6,101.8,255.1,98.7,255.1z M116.7,228.2c-3.1,0-5.7-2.5-5.7-5.7c0-3.1,2.5-5.7,5.7-5.7
			c3.1,0,5.7,2.5,5.7,5.7C122.3,225.7,119.8,228.2,116.7,228.2z M124.1,177.4c-8.1,3.7-17.5,6.6-28.5,7.2
			c-11.9,0.7-22.4-2.3-31.3-6.7v-53.2c6.8,10,18.2,16.5,31.1,16.5c11.6,0,21.9-5.4,28.7-13.7L124.1,177.4L124.1,177.4z M130.1,246.9
			c-3.1,0-5.7-2.5-5.7-5.7c0-3.1,2.5-5.7,5.7-5.7c3.1,0,5.7,2.6,5.7,5.7C135.8,244.4,133.2,246.9,130.1,246.9z M308.2,307.9H173.4
			V212h47.9v8.6c0,9.9,8,17.9,17.9,17.9c9.9,0,17.9-8,17.9-17.9V212h50.9L308.2,307.9L308.2,307.9z"/>
		<path class="st0" d="M213.6,77.5c0,3.1-2.5,5.7-5.7,5.7c-3.1,0-5.7-2.5-5.7-5.7c0-3.1,2.5-5.7,5.7-5.7
			C211,71.8,213.6,74.4,213.6,77.5z"/>
		<path class="st0" d="M192.6,55c0,3.1-2.6,5.7-5.7,5.7c-3.1,0-5.7-2.5-5.7-5.7c0-3.1,2.5-5.7,5.7-5.7
			C190.1,49.4,192.6,51.9,192.6,55z"/>
		<path class="st0" d="M167.2,52c0,3.1-2.5,5.7-5.7,5.7c-3.1,0-5.7-2.5-5.7-5.7c0-3.1,2.5-5.7,5.7-5.7
			C164.7,46.4,167.2,48.9,167.2,52z"/>
		<circle class="st0" cx="134.6" cy="5.7" r="5.7"/>
		<path class="st0" d="M128.3,34.1c0,3.1-2.5,5.7-5.7,5.7c-3.1,0-5.7-2.5-5.7-5.7c0-3.1,2.5-5.7,5.7-5.7
			C125.8,28.4,128.3,31,128.3,34.1z"/>
		<path class="st0" d="M279.4,141.8c0,3.1-2.5,5.7-5.7,5.7c-3.1,0-5.7-2.5-5.7-5.7c0-3.1,2.5-5.7,5.7-5.7
			C276.8,136.1,279.4,138.7,279.4,141.8z"/>
		<circle class="st0" cx="270.7" cy="177.7" r="5.7"/>
		<path class="st0" d="M309.3,146.3c0,3.1-2.5,5.7-5.7,5.7c-3.1,0-5.7-2.5-5.7-5.7c0-3.1,2.5-5.7,5.7-5.7
			C306.7,140.6,309.3,143.1,309.3,146.3z"/>
		<path class="st0" d="M227,243.5c0,3.1-2.5,5.7-5.7,5.7c-3.1,0-5.7-2.5-5.7-5.7c0-3.1,2.5-5.7,5.7-5.7
			C224.5,237.8,227,240.4,227,243.5z"/>
		<path class="st0" d="M201.6,230c0,3.1-2.5,5.7-5.7,5.7c-3.2,0-5.7-2.5-5.7-5.7c0-3.1,2.5-5.7,5.7-5.7
			C199,224.3,201.6,226.9,201.6,230z"/>
		<circle class="st0" cx="206.4" cy="251.3" r="5.7"/>
		<path class="st0" d="M193.6,266.9c0,3.1-2.5,5.7-5.7,5.7c-3.1,0-5.7-2.5-5.7-5.7c0-3.1,2.5-5.7,5.7-5.7
			C191.1,261.2,193.6,263.8,193.6,266.9z"/>
		<path class="st0" d="M210.6,270.9c0,3.1-2.5,5.7-5.7,5.7c-3.1,0-5.7-2.5-5.7-5.7c0-3.1,2.5-5.7,5.7-5.7
			C208,265.2,210.6,267.8,210.6,270.9z"/>
		<path class="st0" d="M229.3,276.6c0,3.1-2.5,5.7-5.7,5.7c-3.1,0-5.7-2.5-5.7-5.7c0-3.1,2.5-5.7,5.7-5.7
			C226.7,271,229.3,273.5,229.3,276.6z"/>
		<path class="st0" d="M230,260.2c0,3.1-2.5,5.7-5.7,5.7c-3.1,0-5.7-2.6-5.7-5.7c0-3.1,2.5-5.7,5.7-5.7
			C227.5,254.5,230,257,230,260.2z"/>
		<path class="st0" d="M245,253.4c0,3.2-2.5,5.7-5.7,5.7c-3.1,0-5.7-2.5-5.7-5.7c0-3.1,2.5-5.7,5.7-5.7
			C242.4,247.8,245,250.3,245,253.4z"/>
		<path class="st0" d="M262.9,243c0,3.1-2.5,5.7-5.7,5.7c-3.1,0-5.7-2.6-5.7-5.7c0-3.1,2.5-5.7,5.7-5.7
			C260.4,237.3,262.9,239.9,262.9,243z"/>
		<circle class="st0" cx="265.7" cy="256.9" r="5.7"/>
		<path class="st0" d="M295.8,263.2c0,3.1-2.5,5.7-5.7,5.7c-3.1,0-5.7-2.5-5.7-5.7c0-3.1,2.5-5.7,5.7-5.7
			C293.3,257.5,295.8,260,295.8,263.2z"/>
		<path class="st0" d="M280.9,274.4c0,3.1-2.5,5.7-5.7,5.7c-3.1,0-5.7-2.5-5.7-5.7c0-3.1,2.5-5.7,5.7-5.7
			C278.3,268.7,280.9,271.3,280.9,274.4z"/>
		<path class="st0" d="M235.5,295.8c0,3.1-2.5,5.7-5.7,5.7c-3.1,0-5.7-2.5-5.7-5.7c0-3.1,2.5-5.7,5.7-5.7
			C232.9,290.1,235.5,292.7,235.5,295.8z"/>
		<path class="st0" d="M211.6,289.8c0,3.1-2.5,5.7-5.7,5.7c-3.1,0-5.7-2.5-5.7-5.7c0-3.1,2.5-5.7,5.7-5.7
			C209,284.2,211.6,286.7,211.6,289.8z"/>
		<path class="st0" d="M250.9,273.9c0,3.1-2.5,5.7-5.7,5.7c-3.1,0-5.7-2.5-5.7-5.7c0-3.1,2.5-5.7,5.7-5.7
			C248.4,268.2,250.9,270.8,250.9,273.9z"/>
		<path class="st0" d="M247.9,110.7c0,3.1-2.5,5.7-5.7,5.7c-3.1,0-5.7-2.5-5.7-5.7c0-3.1,2.5-5.7,5.7-5.7
			C245.4,105,247.9,107.6,247.9,110.7z"/>
		<path class="st0" d="M111.4,165.2c0,3.1-2.5,5.7-5.7,5.7c-3.1,0-5.7-2.5-5.7-5.7c0-3.1,2.5-5.7,5.7-5.7
			C108.8,159.5,111.4,162.1,111.4,165.2z"/>
		<path class="st0" d="M149.3,143.3c0,3.2-2.5,5.7-5.7,5.7c-3.1,0-5.7-2.5-5.7-5.7c0-3.1,2.5-5.7,5.7-5.7
			C146.7,137.6,149.3,140.2,149.3,143.3z"/>
		<path class="st0" d="M185.1,12.2c0,3.1-2.5,5.7-5.7,5.7c-3.1,0-5.7-2.5-5.7-5.7c0-3.1,2.5-5.7,5.7-5.7
			C182.6,6.5,185.1,9,185.1,12.2z"/>
	</g>
	<g>
		<path class="st0" d="M129.5,64.1c-5.9-13-18.9-22-34.1-22c-15.3,0-28.5,9.2-34.3,22.4L0,80v14.4h188.4V80v0L129.5,64.1z"/>
	</g>
</g>
</svg>
