<?xml version="1.0" encoding="utf-8"?>
<!-- Generator: Adobe Illustrator 15.0.0, SVG Export Plug-In  -->
<!DOCTYPE svg PUBLIC "-//W3C//DTD SVG 1.1//EN" "http://www.w3.org/Graphics/SVG/1.1/DTD/svg11.dtd" [
	<!ENTITY ns_flows "http://ns.adobe.com/Flows/1.0/">
]>
<svg version="1.1"
	 xmlns="http://www.w3.org/2000/svg" xmlns:xlink="http://www.w3.org/1999/xlink" xmlns:a="http://ns.adobe.com/AdobeSVGViewerExtensions/3.0/"
	 x="0px" y="0px" width="232px" height="208px" viewBox="-0.647 -0.805 232 208" enable-background="new -0.647 -0.805 232 208"
	 xml:space="preserve">
<defs>
</defs>
<polygon fill="#8CC541" points="173.509,0 57.811,0 35.568,40.02 195.751,40.02 "/>
<polygon fill="#ECEEEE" points="195.751,40.02 35.568,40.02 0,104.016 56.954,206.554 174.364,206.554 231.319,104.016 "/>
<path fill="#ECEEEE" d="M119.581,7.864c-1.332-0.027-2.941,1.056-3.492,2.755c-0.126-0.016-0.249-0.025-0.366-0.025
	c-0.125-0.001-0.248,0.009-0.37,0.024c-0.543-1.712-2.263-2.825-3.716-2.82c-1.282,0.004-2.205,0.838-2.407,2.175
	c-0.056,0.367,0.197,0.71,0.565,0.766s0.71-0.198,0.766-0.564c0.104-0.692,0.458-1.029,1.081-1.031
	c0.948-0.003,2.12,0.82,2.444,1.96c-0.187,0.126-0.368,0.273-0.543,0.445c-0.768,0.755-1.251,1.795-1.539,2.416l-0.061,0.13
	c-0.262,0.558-0.498,1.106-0.71,1.646c-1.249,0.717-2.501,1.578-3.457,2.518c-1.218,1.198-1.819,2.385-1.787,3.528
	c0.027,0.966,0.5,1.859,1.405,2.655c0.911,0.8,1.881,1.067,2.839,0.806c0.086,0.31,0.182,0.616,0.296,0.913
	c1.411,3.653,4.46,4.959,4.59,5.013l0.248,0.104l0.251-0.096c0.057-0.022,1.413-0.55,2.795-1.91c0.976-0.959,1.906-2.26,2.462-3.984
	c0.017,0.006,0.033,0.015,0.05,0.021c0.69,0.228,1.765,0.287,2.958-0.728c0.107-0.092,0.209-0.184,0.303-0.277
	c0.978-0.961,1.341-2.096,1.052-3.281c-0.481-1.975-2.72-3.8-4.936-5.136c-0.24-0.695-0.521-1.417-0.851-2.171
	c-0.621-1.416-1.363-2.214-2.086-2.649c0.348-1.125,1.374-1.872,2.19-1.856c0.522,0.01,0.834,0.363,0.926,1.047
	c0.05,0.369,0.389,0.627,0.757,0.578c0.15-0.021,0.282-0.088,0.382-0.187c0.146-0.144,0.225-0.351,0.195-0.57
	C121.598,8.474,120.519,7.882,119.581,7.864z M123.929,21.34c0.198,0.811-0.097,1.517-0.919,2.214
	c-0.778,0.662-1.323,0.588-1.666,0.475c-0.047-0.016-0.094-0.044-0.141-0.064c-0.426-0.18-0.837-0.53-1.23-1.002
	c-0.271-0.326-0.535-0.704-0.786-1.126c-0.402-0.676-0.775-1.451-1.113-2.252c-0.251-0.597-0.482-1.205-0.691-1.8
	c-0.281-0.804-0.521-1.578-0.71-2.249l0.051,0c1.234,0.534,2.801,1.373,4.166,2.344C122.392,18.95,123.646,20.178,123.929,21.34z
	 M108.28,23.432c-0.622-0.547-0.932-1.097-0.949-1.682c-0.021-0.755,0.445-1.607,1.386-2.531c0.522-0.514,1.15-1.005,1.82-1.461
	c1.4-0.953,2.983-1.745,4.171-2.237h0.036c-0.184,0.61-0.436,1.393-0.746,2.237c-0.213,0.58-0.454,1.187-0.719,1.788
	c-0.346,0.785-0.735,1.554-1.158,2.233c-0.286,0.459-0.588,0.874-0.905,1.223c-0.071,0.079-0.144,0.161-0.216,0.232
	c-0.367,0.36-0.71,0.593-1.046,0.701C109.397,24.111,108.862,23.942,108.28,23.432z M115.426,17.769l0.523,0.004
	c0.191,0.573,0.411,1.182,0.658,1.8l-1.87-0.016C114.995,18.944,115.225,18.337,115.426,17.769z M113.669,21.791l3.976,0.034
	c0.351,0.656,0.735,1.272,1.151,1.803l-6.3-0.052C112.916,23.054,113.308,22.444,113.669,21.791z M118.065,27.66l-5.201-0.044
	c-0.382-0.504-0.738-1.103-1.024-1.803l7.35,0.062C118.871,26.562,118.483,27.154,118.065,27.66z M118.218,14.254
	c0.094,0.214,0.183,0.425,0.268,0.634c-0.977-0.489-1.836-0.848-2.391-1.038c-0.112-0.066-0.239-0.1-0.369-0.095
	c-0.129-0.007-0.258,0.025-0.371,0.09c-0.569,0.182-1.354,0.494-2.235,0.909c0.014-0.029,0.026-0.059,0.04-0.088l0.063-0.135
	c0.25-0.539,0.668-1.439,1.263-2.023c0.393-0.386,0.793-0.572,1.226-0.569C116.704,11.948,117.547,12.726,118.218,14.254z"/>
</svg>
