<?xml version="1.0" encoding="utf-8"?>
<!-- Generator: Adobe Illustrator 19.1.0, SVG Export Plug-In . SVG Version: 6.00 Build 0)  -->
<svg version="1.1" id="Layer_1" xmlns="http://www.w3.org/2000/svg" xmlns:xlink="http://www.w3.org/1999/xlink" x="0px" y="0px"
	 viewBox="0 0 16.1 23" style="enable-background:new 0 0 16.1 23;" xml:space="preserve">
<style type="text/css">
	.st0{fill:#ECEEEE;}
</style>
<g>
	<g class="bookmark_svg">
		<path class="st0" d="M15.9,0.6c-0.2-0.2-0.4-0.4-0.7-0.5C15,0,14.8,0,14.6,0H1.5C1.3,0,1.1,0,0.9,0.1C0.6,0.2,0.4,0.4,0.2,0.6
			C0.1,0.9,0,1.1,0,1.4v20.2c0,0.3,0.1,0.5,0.2,0.8c0.2,0.2,0.4,0.4,0.7,0.5C1.1,23,1.3,23,1.5,23c0.4,0,0.7-0.1,1-0.4l5.5-5.3
			l5.5,5.3c0.3,0.3,0.6,0.4,1,0.4c0.2,0,0.4,0,0.6-0.1c0.3-0.1,0.5-0.3,0.7-0.5c0.2-0.2,0.2-0.5,0.2-0.8V1.4
			C16.1,1.1,16,0.9,15.9,0.6L15.9,0.6z M14.5,21.2l-5.3-5.1l-1.1-1.1l-1.1,1.1l-5.3,5.1V1.6h12.9V21.2z M14.5,21.2"/>
	</g>
</g>
</svg>
