<?xml version="1.0" encoding="utf-8"?>
<!-- Generator: Adobe Illustrator 19.1.0, SVG Export Plug-In . SVG Version: 6.00 Build 0)  -->
<svg version="1.1" id="Layer_1" xmlns="http://www.w3.org/2000/svg" xmlns:xlink="http://www.w3.org/1999/xlink" x="0px" y="0px"
	 viewBox="-471 269 16 23" style="enable-background:new -471 269 16 23;" xml:space="preserve">
<style type="text/css">
	.st0{fill:#EDEFEF;}
</style>
<g>
	<g>
		<path class="st0" d="M-455.1,269.6c-0.2-0.2-0.4-0.4-0.7-0.5c-0.2-0.1-0.4-0.1-0.6-0.1h-13.1c-0.2,0-0.4,0-0.6,0.1
			c-0.3,0.1-0.5,0.3-0.7,0.5c-0.1,0.3-0.2,0.5-0.2,0.8v20.2c0,0.3,0.1,0.5,0.2,0.8c0.2,0.2,0.4,0.4,0.7,0.5c0.2,0.1,0.4,0.1,0.6,0.1
			c0.4,0,0.7-0.1,1-0.4l5.5-5.3l5.5,5.3c0.3,0.3,0.6,0.4,1,0.4c0.2,0,0.4,0,0.6-0.1c0.3-0.1,0.5-0.3,0.7-0.5
			c0.2-0.2,0.2-0.5,0.2-0.8v-20.2C-454.9,270.1-455,269.9-455.1,269.6L-455.1,269.6z M-456.5,290.2l-5.3-5.1l-1.1-1.1l-1.1,1.1
			l-5.3,5.1v-19.6h12.9v19.6H-456.5z"/>
	</g>
</g>
</svg>
