<?xml version="1.0" encoding="utf-8"?>
<!-- Generator: Adobe Illustrator 19.1.0, SVG Export Plug-In . SVG Version: 6.00 Build 0)  -->
<svg version="1.1" id="Layer_1" xmlns="http://www.w3.org/2000/svg" xmlns:xlink="http://www.w3.org/1999/xlink" x="0px" y="0px"
	 viewBox="0 0 15.4 13.2" style="enable-background:new 0 0 15.4 13.2;" xml:space="preserve">
<style type="text/css">
	.st0{fill:none;stroke:#ECBA1D;stroke-width:1.3228;stroke-miterlimit:10;}
	.st1{fill:#ECBA1D;}
</style>
<g>
	<path class="st0" d="M4.8,12.6h5.8c0.5,0,0.9-0.2,1.1-0.6l2.8-4.7c0.3-0.4,0.3-1,0-1.4l-2.8-4.6c-0.2-0.4-0.7-0.6-1.1-0.6H4.8
		c-0.5,0-0.9,0.2-1.1,0.6L0.9,5.9c-0.3,0.4-0.3,1,0,1.4l2.8,4.7C3.9,12.3,4.4,12.6,4.8,12.6z"/>
	<g>
		<g>
			<g>
				<g>
					<g>
						<g>
							<path class="st1" d="M9,10l0.4-0.4c0.1-0.1,0.2-0.3,0.2-0.4c0-0.2-0.1-0.3-0.2-0.4L7,6.5l2.3-2.3c0.1-0.1,0.2-0.3,0.2-0.4
								c0-0.2-0.1-0.3-0.2-0.4L9,3C8.8,2.9,8.7,2.8,8.5,2.8C8.4,2.8,8.2,2.9,8.1,3L5,6.1C4.9,6.2,4.8,6.3,4.8,6.5
								c0,0.2,0.1,0.3,0.2,0.4L8.1,10c0.1,0.1,0.3,0.2,0.4,0.2C8.7,10.2,8.8,10.1,9,10L9,10z M9,10"/>
						</g>
					</g>
				</g>
			</g>
		</g>
	</g>
</g>
</svg>
