<?xml version="1.0" encoding="utf-8"?>
<!-- Generator: Adobe Illustrator 19.1.0, SVG Export Plug-In . SVG Version: 6.00 Build 0)  -->
<svg version="1.1" id="Layer_1" xmlns="http://www.w3.org/2000/svg" xmlns:xlink="http://www.w3.org/1999/xlink" x="0px" y="0px"
	 viewBox="0 0 25.9 20" style="enable-background:new 0 0 25.9 20;" xml:space="preserve">
<style type="text/css">
	.st0{fill:#ECEEEE;}
</style>
<g>
	<g class="checkmark_svg">
<path class="st0" d="M25.4,2.5l-2-2C23.1,0.1,22.8,0,22.4,0c-0.4,0-0.8,0.1-1,0.4L9.4,12.4L4.6,7.5c-0.3-0.3-0.6-0.4-1-0.4
	c-0.4,0-0.8,0.1-1,0.4l-2,2C0.1,9.8,0,10.2,0,10.6c0,0.4,0.1,0.8,0.4,1l7.9,7.9C8.7,19.8,9,20,9.4,20c0.4,0,0.8-0.1,1-0.4l15-15
	c0.3-0.3,0.4-0.6,0.4-1C25.9,3.1,25.7,2.8,25.4,2.5L25.4,2.5z"/>
    </g>
</g>
</svg>
