<?xml version="1.0" encoding="utf-8"?>
<!-- Generator: Adobe Illustrator 19.1.0, SVG Export Plug-In . SVG Version: 6.00 Build 0)  -->
<svg version="1.1" id="Layer_1" xmlns="http://www.w3.org/2000/svg" xmlns:xlink="http://www.w3.org/1999/xlink" x="0px" y="0px"
	 viewBox="0 0 855.6 398.4" style="enable-background:new 0 0 855.6 398.4;" xml:space="preserve">
<style type="text/css">
	.st0{fill:#EDEFEF;}
	.st1{fill:#3F4040;}
	.st2{font-family:'Univers-Condensed';}
	.st3{font-size:14.5181px;}
	.st4{fill:none;}
	.st5{font-family:'Serifa-Roman';}
	.st6{font-size:10px;}
	.st7{fill:#ECBA1D;}
	.st8{fill:#767676;}
	.st9{fill:#FFFFFF;}
	.st10{font-size:15px;}
	.st11{font-family:'Univers-Black';}
	.st12{font-size:23px;}
	.st13{font-size:11.9151px;}
	.st14{font-family:'Serifa-Bold';}
	.st15{font-size:9px;}
</style>
<path class="st0" d="M226,398.4H10c-5.5,0-10-4.5-10-10V10C0,4.5,4.5,0,10,0h216c5.5,0,10,4.5,10,10v378.4
	C236,393.9,231.5,398.4,226,398.4z"/>
<text transform="matrix(1 0 0 1 11.6915 56.3717)" class="st1 st2 st3">Learning with Beo</text>
<g>
	<text transform="matrix(1 0 0 1 11.6907 184.0343)" class="st1 st2 st3">Vocabulary</text>
</g>
<g>
	<defs>
		<rect id="SVGID_1_" x="255" y="0.3" width="580.2" height="397.8"/>
	</defs>
	<clipPath id="SVGID_2_">
		<use xlink:href="#SVGID_1_"  style="overflow:visible;"/>
	</clipPath>
</g>
<rect x="12.6" y="75.9" class="st4" width="208.7" height="58.4"/>
<text transform="matrix(1 0 0 1 12.6484 84.1959)"><tspan x="0" y="0" class="st1 st5 st6">With both video lessons from design </tspan><tspan x="0" y="12" class="st1 st5 st6">professionals, and integrated challenges to </tspan><tspan x="0" y="24" class="st1 st5 st6">practice and perfect your skills, Beo is a fun </tspan><tspan x="0" y="36" class="st1 st5 st6">and interactive way to learn creative skills, </tspan><tspan x="0" y="48" class="st1 st5 st6">efficiently and effectively.</tspan></text>
<path class="st7" d="M512.1,148.2l66,38.1c2,1.2,2,4,0,5.2l-66,38.1c-2,1.2-4.5-0.3-4.5-2.6v-76.2
	C507.6,148.5,510.1,147.1,512.1,148.2z"/>
<rect x="255" y="350.3" class="st8" width="580.2" height="47.9"/>
<path class="st7" d="M269,362.4l18.7,10.8c0.7,0.4,0.7,1.3,0,1.7L269,385.7c-0.7,0.4-1.5-0.1-1.5-0.9v-21.5
	C267.5,362.5,268.4,362.1,269,362.4z"/>
<text transform="matrix(1 0 0 1 660.2389 379.8842)" class="st9 st2 st10">10:20</text>
<g>
	<path class="st7" d="M335,369.3c-3.1,0-5.5,2.2-5.5,5.3v0.1c0,3.1,2.5,5.6,5.5,5.6h91v-11H335z"/>
	<path class="st0" d="M647.5,369.3H426v11h221.5c3.1,0,5.5-2.7,5.5-5.7v0.1C653,371.7,650.5,369.3,647.5,369.3z"/>
</g>
<text transform="matrix(1 0 0 1 11.6902 36.8717)" class="st1 st11 st12">Lesson 1</text>
<text transform="matrix(1 0 0 1 94.1759 364.6217)" class="st9 st11 st13">FORUM</text>
<g>
	<g>
		<path class="st7" d="M729.1,361.8l-10.2,7h-7.2v10.8h7.2l10.2,7V361.8z M713.6,370.7h4.7v7h-4.7V370.7z M727.2,383l-7-4.9v-7.9
			l7-4.9V383z"/>
		<path class="st7" d="M731,381.2c-0.2,0-0.5-0.1-0.7-0.3c-0.4-0.4-0.4-1,0-1.3c1.4-1.4,2.2-3.3,2.2-5.4c0-2-0.8-3.9-2.2-5.4
			c-0.4-0.4-0.4-1,0-1.3s1-0.4,1.3,0c1.8,1.8,2.8,4.2,2.8,6.7c0,2.5-1,4.9-2.8,6.7C731.5,381.1,731.2,381.2,731,381.2z"/>
		<path class="st7" d="M734.4,383.2c-0.2,0-0.5-0.1-0.7-0.3c-0.4-0.4-0.4-1,0-1.3c4.2-4.2,4.2-11.1,0-15.3c-0.4-0.4-0.4-1,0-1.3
			s1-0.4,1.3,0c5,5,5,13,0,18C734.9,383.1,734.6,383.2,734.4,383.2z"/>
	</g>
</g>
<g>
	<g>
		<path class="st7" d="M768.9,363c6.1,0,11.1,5,11.1,11.1c0,6.1-5,11.1-11.1,11.1s-11.1-5-11.1-11.1
			C757.8,367.9,762.8,363,768.9,363 M768.9,361.8c-6.7,0-12.2,5.5-12.2,12.2c0,6.7,5.5,12.2,12.2,12.2s12.2-5.5,12.2-12.2
			C781.1,367.3,775.7,361.8,768.9,361.8L768.9,361.8z"/>
		<path class="st7" d="M770.9,379.2c-0.3,1.3-1.7,2.1-3,1.8c-1.3-0.3-2.1-1.7-1.8-3c0.3-1.3,4.5-7.9,4.5-7.9
			S771.3,377.9,770.9,379.2z"/>
		<g>
			<path class="st7" d="M777.1,378.7c-0.1,0-0.1,0-0.2,0c-0.2-0.1-0.3-0.3-0.2-0.5c0.7-1.3,1.1-2.8,1.1-4.2c0-4.9-4-8.9-8.9-8.9
				c-4.9,0-8.9,4-8.9,8.9c0,1.4,0.4,2.9,1,4.2c0.1,0.2,0,0.4-0.2,0.5c-0.2,0.1-0.4,0-0.5-0.2c-0.7-1.4-1.1-2.9-1.1-4.5
				c0-5.3,4.3-9.6,9.6-9.6c5.3,0,9.6,4.3,9.6,9.6c0,1.6-0.4,3.2-1.2,4.6C777.3,378.7,777.2,378.7,777.1,378.7z"/>
			<path class="st7" d="M768.9,366.6c-0.2,0-0.4-0.2-0.4-0.4v-1.5c0-0.2,0.2-0.4,0.4-0.4c0.2,0,0.4,0.2,0.4,0.4v1.5
				C769.3,366.4,769.1,366.6,768.9,366.6z"/>
			<path class="st7" d="M764.4,368c-0.1,0-0.2-0.1-0.3-0.2l-0.9-1.2c-0.1-0.2-0.1-0.4,0.1-0.5c0.2-0.1,0.4-0.1,0.5,0.1l0.9,1.2
				c0.1,0.2,0.1,0.4-0.1,0.5C764.5,368,764.4,368,764.4,368z"/>
			<path class="st7" d="M761.5,371.9c0,0-0.1,0-0.1,0l-1.4-0.5c-0.2-0.1-0.3-0.3-0.2-0.5c0.1-0.2,0.3-0.3,0.5-0.2l1.4,0.5
				c0.2,0.1,0.3,0.3,0.2,0.5C761.8,371.8,761.7,371.9,761.5,371.9z"/>
			<path class="st7" d="M760.1,377.2c-0.2,0-0.3-0.1-0.4-0.3c-0.1-0.2,0-0.4,0.2-0.5l1.4-0.5c0.2-0.1,0.4,0,0.5,0.2
				c0.1,0.2,0,0.4-0.2,0.5l-1.4,0.5C760.2,377.2,760.1,377.2,760.1,377.2z"/>
			<path class="st7" d="M777.7,377.2c0,0-0.1,0-0.1,0l-1.4-0.5c-0.2-0.1-0.3-0.3-0.2-0.5c0.1-0.2,0.3-0.3,0.5-0.2l1.4,0.5
				c0.2,0.1,0.3,0.3,0.2,0.5C778,377.1,777.9,377.2,777.7,377.2z"/>
			<path class="st7" d="M776.3,371.9c-0.2,0-0.3-0.1-0.4-0.3c-0.1-0.2,0-0.4,0.2-0.5l1.4-0.5c0.2-0.1,0.4,0,0.5,0.2
				c0.1,0.2,0,0.4-0.2,0.5l-1.4,0.5C776.4,371.9,776.3,371.9,776.3,371.9z"/>
			<path class="st7" d="M773.5,368c-0.1,0-0.2,0-0.2-0.1c-0.2-0.1-0.2-0.4-0.1-0.5l0.9-1.2c0.1-0.2,0.4-0.2,0.5-0.1
				c0.2,0.1,0.2,0.4,0.1,0.5l-0.9,1.2C773.7,368,773.6,368,773.5,368z"/>
		</g>
	</g>
</g>
<g>
	<g>
		<path class="st7" d="M823.9,373.9l0.8-11.8l-11.8,0.8c-0.4,0-0.6,0.3-0.6,0.7c0,0.2,0.1,0.3,0.2,0.4c0.1,0.1,0.3,0.2,0.5,0.2
			l9.2-0.6l-8.5,8.5c-0.3,0.3-0.3,0.7,0,0.9c0.3,0.3,0.7,0.3,0.9,0l8.5-8.5l-0.6,9.2c0,0.4,0.3,0.7,0.6,0.7
			C823.6,374.5,823.9,374.2,823.9,373.9z"/>
		<path class="st7" d="M801.3,374.6l-0.8,11.8l11.8-0.8c0.4,0,0.6-0.3,0.6-0.7c0-0.2-0.1-0.3-0.2-0.4c-0.1-0.1-0.3-0.2-0.5-0.2
			l-9.2,0.6l8.5-8.5c0.3-0.3,0.3-0.7,0-0.9c-0.3-0.3-0.7-0.3-0.9,0l-8.5,8.5l0.6-9.2c0-0.4-0.3-0.7-0.6-0.7
			C801.6,373.9,801.3,374.2,801.3,374.6z"/>
	</g>
</g>
<g>
	<path class="st7" d="M221.1,18.5c-0.2-0.2-0.4-0.4-0.7-0.5c-0.2-0.1-0.4-0.1-0.6-0.1h-13.2c-0.2,0-0.4,0-0.6,0.1
		c-0.3,0.1-0.5,0.3-0.7,0.5c-0.2,0.2-0.2,0.5-0.2,0.8v20.2c0,0.3,0.1,0.5,0.2,0.8c0.2,0.2,0.4,0.4,0.7,0.5c0.2,0.1,0.4,0.1,0.6,0.1
		c0.4,0,0.7-0.1,1-0.4l5.5-5.3l5.5,5.3c0.3,0.3,0.6,0.4,1,0.4c0.2,0,0.4,0,0.6-0.1c0.3-0.1,0.5-0.3,0.7-0.5c0.2-0.2,0.2-0.5,0.2-0.8
		V19.3C221.3,19,221.3,18.7,221.1,18.5L221.1,18.5z M219.7,39.1l-5.3-5.1l-1.1-1.1l-1.1,1.1l-5.3,5.1V19.5h12.9V39.1z M219.7,39.1"
		/>
</g>
<g>
	<text transform="matrix(1 0 0 1 40.9974 223.8924)"><tspan x="0" y="0" class="st1 st14 st6">Video  </tspan><tspan x="0" y="10" class="st1 st14 st6">Lesson</tspan></text>
	<rect x="99.6" y="216.7" class="st4" width="123.7" height="31"/>
	<text transform="matrix(1 0 0 1 99.6396 224.1341)"><tspan x="0" y="0" class="st1 st5 st15">An instructor led video </tspan><tspan x="0" y="10.8" class="st1 st5 st15">lesson to learn the theory </tspan><tspan x="0" y="21.6" class="st1 st5 st15">and context of the material.</tspan></text>
	<path class="st1" d="M14.2,210.8l18.7,10.8c0.7,0.4,0.7,1.3,0,1.7L14.2,234c-0.7,0.4-1.5-0.1-1.5-0.9v-21.5
		C12.7,210.9,13.5,210.4,14.2,210.8z"/>
</g>
<g>
	<text transform="matrix(1 0 0 1 41.0028 281.5734)"><tspan x="0" y="0" class="st1 st14 st6">Lesson  </tspan><tspan x="0" y="10" class="st1 st14 st6">Challenge</tspan></text>
	<rect x="99.6" y="274.9" class="st4" width="123.7" height="41.8"/>
	<text transform="matrix(1 0 0 1 99.6455 282.3483)"><tspan x="0" y="0" class="st1 st5 st15">In harmony with Video </tspan><tspan x="0" y="10.8" class="st1 st5 st15">Lessons, Challenges help </tspan><tspan x="0" y="21.6" class="st1 st5 st15">you practice and perfect </tspan><tspan x="0" y="32.4" class="st1 st5 st15">your new skills.</tspan></text>
	<g>
		<g>
			<path class="st1" d="M11.2,285.4v6h6l12.1-12.1l-6-6L11.2,285.4z M16.5,289.6h-1.6v-1.9h-1.9v-1.6l1.3-1.3l3.4,3.4L16.5,289.6z
				 M23.7,275.8c0.2,0,0.3,0.1,0.3,0.3c0,0.1,0,0.2-0.1,0.2l-7.9,7.9c-0.1,0.1-0.1,0.1-0.2,0.1c-0.2,0-0.3-0.1-0.3-0.3
				c0-0.1,0-0.2,0.1-0.2l7.9-7.9C23.6,275.9,23.6,275.8,23.7,275.8L23.7,275.8z M23.7,275.8"/>
			<path class="st1" d="M32.6,273.5l-3.4-3.4c-0.4-0.4-0.8-0.6-1.3-0.6c-0.5,0-1,0.2-1.3,0.6l-2.4,2.4l6,6l2.4-2.4
				c0.4-0.4,0.5-0.8,0.5-1.3C33.2,274.3,33,273.8,32.6,273.5L32.6,273.5z M32.6,273.5"/>
		</g>
	</g>
</g>
</svg>
