<?xml version="1.0" encoding="utf-8"?>
<!-- Generator: Adobe Illustrator 15.0.0, SVG Export Plug-In  -->
<!DOCTYPE svg PUBLIC "-//W3C//DTD SVG 1.1//EN" "http://www.w3.org/Graphics/SVG/1.1/DTD/svg11.dtd" [
	<!ENTITY ns_flows "http://ns.adobe.com/Flows/1.0/">
]>
<svg version="1.1"
	 xmlns="http://www.w3.org/2000/svg" xmlns:xlink="http://www.w3.org/1999/xlink" xmlns:a="http://ns.adobe.com/AdobeSVGViewerExtensions/3.0/"
	 x="0px" y="0px" width="232px" height="207px" viewBox="-0.677 -0.443 232 207" enable-background="new -0.677 -0.443 232 207"
	 xml:space="preserve">
<defs>
</defs>
<polygon fill="#E57826" points="173.508,0 57.811,0 35.568,40.02 195.75,40.02 "/>
<polygon fill="#ECEEEE" points="195.75,40.02 35.568,40.02 0,104.017 56.954,206.554 174.365,206.554 231.318,104.017 "/>
<path fill="#ECEEEE" d="M95.291,8.336c-1.332-0.027-2.941,1.057-3.492,2.756c-0.127-0.016-0.25-0.025-0.367-0.025
	c-0.125-0.001-0.248,0.008-0.369,0.023c-0.544-1.712-2.263-2.825-3.717-2.82c-1.282,0.004-2.205,0.838-2.407,2.176
	c-0.055,0.367,0.197,0.71,0.565,0.766s0.71-0.197,0.766-0.564c0.104-0.692,0.458-1.029,1.081-1.031
	c0.948-0.003,2.119,0.82,2.443,1.961c-0.187,0.125-0.368,0.272-0.543,0.445c-0.768,0.755-1.251,1.795-1.539,2.416l-0.061,0.13
	c-0.262,0.559-0.499,1.106-0.711,1.646c-1.249,0.717-2.501,1.577-3.457,2.518c-1.218,1.197-1.819,2.385-1.787,3.528
	c0.027,0.966,0.5,1.859,1.405,2.655c0.911,0.801,1.881,1.067,2.839,0.806c0.086,0.31,0.182,0.616,0.296,0.913
	c1.411,3.653,4.46,4.959,4.59,5.013l0.248,0.104l0.251-0.096c0.057-0.021,1.413-0.55,2.795-1.91c0.976-0.959,1.906-2.26,2.462-3.984
	c0.017,0.006,0.033,0.015,0.05,0.021c0.69,0.228,1.765,0.287,2.958-0.728c0.107-0.092,0.209-0.184,0.303-0.276
	c0.978-0.962,1.341-2.097,1.052-3.281c-0.481-1.975-2.72-3.801-4.936-5.137c-0.239-0.695-0.521-1.418-0.851-2.171
	c-0.621-1.416-1.363-2.215-2.086-2.65c0.348-1.125,1.374-1.871,2.19-1.855c0.522,0.011,0.834,0.363,0.925,1.048
	c0.05,0.368,0.389,0.627,0.757,0.577c0.15-0.021,0.282-0.088,0.382-0.187c0.146-0.144,0.225-0.352,0.196-0.569
	C97.309,8.946,96.229,8.354,95.291,8.336z M99.64,21.813c0.198,0.812-0.097,1.517-0.919,2.214c-0.778,0.661-1.323,0.588-1.666,0.476
	c-0.047-0.016-0.094-0.045-0.141-0.064c-0.425-0.18-0.837-0.53-1.23-1.003c-0.271-0.326-0.535-0.703-0.786-1.125
	c-0.402-0.676-0.775-1.451-1.112-2.252c-0.251-0.597-0.483-1.205-0.691-1.8c-0.281-0.804-0.521-1.579-0.71-2.25l0.051,0.001
	c1.234,0.534,2.801,1.373,4.166,2.345C98.102,19.423,99.356,20.65,99.64,21.813z M83.99,23.903
	c-0.622-0.546-0.932-1.096-0.949-1.682c-0.021-0.755,0.445-1.606,1.386-2.531c0.522-0.514,1.15-1.005,1.82-1.461
	c1.4-0.953,2.984-1.745,4.171-2.237h0.036c-0.184,0.61-0.436,1.393-0.746,2.237c-0.213,0.579-0.454,1.187-0.719,1.788
	c-0.346,0.785-0.735,1.554-1.158,2.233c-0.286,0.458-0.588,0.873-0.905,1.222c-0.071,0.079-0.144,0.161-0.216,0.232
	c-0.367,0.36-0.71,0.594-1.045,0.701C85.107,24.584,84.572,24.415,83.99,23.903z M91.137,18.241l0.523,0.004
	c0.19,0.573,0.411,1.183,0.658,1.8l-1.87-0.016C90.705,19.416,90.936,18.809,91.137,18.241z M89.38,22.264l3.976,0.033
	c0.352,0.656,0.735,1.272,1.151,1.804l-6.3-0.053C88.626,23.526,89.019,22.917,89.38,22.264z M93.776,28.132l-5.201-0.043
	c-0.381-0.505-0.738-1.104-1.024-1.804l7.35,0.062C94.581,27.034,94.194,27.626,93.776,28.132z M93.928,14.727
	c0.094,0.214,0.183,0.425,0.268,0.633c-0.977-0.489-1.836-0.848-2.391-1.038c-0.112-0.066-0.239-0.099-0.369-0.095
	c-0.13-0.007-0.258,0.025-0.371,0.09c-0.569,0.182-1.354,0.493-2.235,0.909c0.014-0.029,0.026-0.059,0.04-0.088l0.063-0.135
	c0.25-0.538,0.668-1.438,1.263-2.022c0.393-0.387,0.793-0.572,1.226-0.569C92.415,12.42,93.258,13.198,93.928,14.727z"/>
<path fill="#ECEEEE" d="M119.581,8.336c-1.332-0.027-2.941,1.057-3.492,2.756c-0.126-0.016-0.249-0.025-0.366-0.025
	c-0.125-0.001-0.248,0.008-0.37,0.023c-0.543-1.712-2.263-2.825-3.716-2.82c-1.282,0.004-2.205,0.838-2.407,2.176
	c-0.056,0.367,0.197,0.71,0.565,0.766s0.71-0.197,0.766-0.564c0.104-0.692,0.458-1.029,1.081-1.031
	c0.948-0.003,2.12,0.82,2.444,1.961c-0.187,0.125-0.368,0.272-0.543,0.445c-0.768,0.755-1.251,1.795-1.539,2.416l-0.061,0.13
	c-0.262,0.559-0.498,1.106-0.71,1.646c-1.249,0.717-2.501,1.577-3.457,2.518c-1.218,1.197-1.819,2.385-1.787,3.528
	c0.027,0.966,0.5,1.859,1.405,2.655c0.911,0.801,1.881,1.067,2.839,0.806c0.086,0.31,0.182,0.616,0.296,0.913
	c1.411,3.653,4.46,4.959,4.59,5.013l0.248,0.104l0.251-0.096c0.057-0.021,1.413-0.55,2.795-1.91c0.976-0.959,1.906-2.26,2.462-3.984
	c0.017,0.006,0.033,0.015,0.05,0.021c0.69,0.228,1.765,0.287,2.958-0.728c0.107-0.092,0.209-0.184,0.303-0.276
	c0.977-0.962,1.341-2.097,1.052-3.281c-0.481-1.975-2.72-3.801-4.936-5.137c-0.24-0.695-0.521-1.418-0.851-2.171
	c-0.621-1.416-1.363-2.215-2.086-2.65c0.348-1.125,1.374-1.871,2.19-1.855c0.522,0.011,0.834,0.363,0.926,1.048
	c0.05,0.368,0.389,0.627,0.757,0.577c0.15-0.021,0.282-0.088,0.382-0.187c0.146-0.144,0.225-0.352,0.195-0.569
	C121.598,8.946,120.519,8.354,119.581,8.336z M123.929,21.813c0.198,0.812-0.097,1.517-0.919,2.214
	c-0.778,0.661-1.323,0.588-1.666,0.476c-0.048-0.016-0.094-0.045-0.141-0.064c-0.426-0.18-0.837-0.53-1.23-1.003
	c-0.271-0.326-0.535-0.703-0.786-1.125c-0.402-0.676-0.775-1.451-1.113-2.252c-0.251-0.597-0.482-1.205-0.691-1.8
	c-0.281-0.804-0.521-1.579-0.711-2.25l0.052,0.001c1.234,0.534,2.801,1.373,4.166,2.345
	C122.392,19.423,123.646,20.65,123.929,21.813z M108.28,23.903c-0.622-0.546-0.932-1.096-0.949-1.682
	c-0.021-0.755,0.445-1.606,1.386-2.531c0.522-0.514,1.15-1.005,1.819-1.461c1.401-0.953,2.984-1.745,4.172-2.237h0.036
	c-0.184,0.61-0.436,1.393-0.747,2.237c-0.212,0.579-0.453,1.187-0.719,1.788c-0.346,0.785-0.735,1.554-1.158,2.233
	c-0.286,0.458-0.588,0.873-0.905,1.222c-0.071,0.079-0.144,0.161-0.216,0.232c-0.367,0.36-0.71,0.594-1.046,0.701
	C109.397,24.584,108.862,24.415,108.28,23.903z M115.426,18.241l0.523,0.004c0.191,0.573,0.411,1.183,0.658,1.8l-1.869-0.016
	C114.995,19.416,115.226,18.809,115.426,18.241z M113.669,22.264l3.976,0.033c0.351,0.656,0.735,1.272,1.151,1.804l-6.301-0.053
	C112.916,23.526,113.308,22.917,113.669,22.264z M118.065,28.132l-5.201-0.043c-0.382-0.505-0.738-1.104-1.024-1.804l7.35,0.062
	C118.871,27.034,118.483,27.626,118.065,28.132z M118.218,14.727c0.093,0.214,0.183,0.425,0.268,0.633
	c-0.977-0.489-1.836-0.848-2.391-1.038c-0.112-0.066-0.239-0.099-0.369-0.095c-0.129-0.007-0.258,0.025-0.371,0.09
	c-0.569,0.182-1.354,0.493-2.235,0.909c0.014-0.029,0.026-0.059,0.04-0.088l0.063-0.135c0.25-0.538,0.668-1.438,1.262-2.022
	c0.393-0.387,0.794-0.572,1.227-0.569C116.704,12.42,117.547,13.198,118.218,14.727z"/>
<path fill="#ECEEEE" d="M143.87,8.336c-1.332-0.027-2.941,1.057-3.492,2.756c-0.126-0.016-0.25-0.025-0.366-0.025
	c-0.125-0.001-0.248,0.008-0.37,0.023c-0.543-1.712-2.263-2.825-3.716-2.82c-1.282,0.004-2.205,0.838-2.407,2.176
	c-0.056,0.367,0.197,0.71,0.564,0.766c0.368,0.056,0.71-0.197,0.767-0.564c0.104-0.692,0.458-1.029,1.081-1.031
	c0.948-0.003,2.12,0.82,2.444,1.961c-0.187,0.125-0.368,0.272-0.543,0.445c-0.768,0.755-1.251,1.795-1.54,2.416l-0.061,0.13
	c-0.262,0.559-0.498,1.106-0.71,1.646c-1.249,0.717-2.501,1.577-3.458,2.518c-1.218,1.197-1.819,2.385-1.787,3.528
	c0.027,0.966,0.5,1.859,1.405,2.655c0.911,0.801,1.881,1.067,2.839,0.806c0.086,0.31,0.182,0.616,0.296,0.913
	c1.411,3.653,4.46,4.959,4.59,5.013l0.248,0.104l0.251-0.096c0.057-0.021,1.413-0.55,2.795-1.91c0.976-0.959,1.905-2.26,2.461-3.984
	c0.018,0.006,0.033,0.015,0.051,0.021c0.69,0.228,1.764,0.287,2.958-0.728c0.108-0.092,0.209-0.184,0.304-0.276
	c0.977-0.962,1.341-2.097,1.052-3.281c-0.481-1.975-2.72-3.801-4.936-5.137c-0.239-0.695-0.52-1.418-0.851-2.171
	c-0.621-1.416-1.363-2.215-2.086-2.65c0.348-1.125,1.374-1.871,2.19-1.855c0.522,0.011,0.834,0.363,0.926,1.048
	c0.05,0.368,0.389,0.627,0.757,0.577c0.15-0.021,0.282-0.088,0.382-0.187c0.146-0.144,0.225-0.352,0.195-0.569
	C145.888,8.946,144.809,8.354,143.87,8.336z M148.219,21.813c0.198,0.812-0.097,1.517-0.919,2.214
	c-0.778,0.661-1.323,0.588-1.666,0.476c-0.047-0.016-0.093-0.045-0.14-0.064c-0.426-0.18-0.837-0.53-1.23-1.003
	c-0.272-0.326-0.535-0.703-0.786-1.125c-0.402-0.676-0.775-1.451-1.113-2.252c-0.251-0.597-0.483-1.205-0.691-1.8
	c-0.281-0.804-0.521-1.579-0.711-2.25l0.052,0.001c1.234,0.534,2.8,1.373,4.165,2.345C146.681,19.423,147.936,20.65,148.219,21.813z
	 M132.569,23.903c-0.622-0.546-0.933-1.096-0.949-1.682c-0.021-0.755,0.445-1.606,1.386-2.531c0.522-0.514,1.15-1.005,1.819-1.461
	c1.401-0.953,2.984-1.745,4.172-2.237h0.036c-0.184,0.61-0.436,1.393-0.747,2.237c-0.212,0.579-0.453,1.187-0.719,1.788
	c-0.346,0.785-0.735,1.554-1.158,2.233c-0.287,0.458-0.588,0.873-0.905,1.222c-0.072,0.079-0.144,0.161-0.216,0.232
	c-0.367,0.36-0.71,0.594-1.046,0.701C133.687,24.584,133.151,24.415,132.569,23.903z M139.715,18.241l0.523,0.004
	c0.191,0.573,0.411,1.183,0.658,1.8l-1.869-0.016C139.284,19.416,139.515,18.809,139.715,18.241z M137.958,22.264l3.976,0.033
	c0.351,0.656,0.735,1.272,1.151,1.804l-6.301-0.053C137.206,23.526,137.597,22.917,137.958,22.264z M142.354,28.132l-5.2-0.043
	c-0.382-0.505-0.738-1.104-1.024-1.804l7.35,0.062C143.16,27.034,142.772,27.626,142.354,28.132z M142.507,14.727
	c0.094,0.214,0.183,0.425,0.268,0.633c-0.976-0.489-1.836-0.848-2.391-1.038c-0.111-0.066-0.238-0.099-0.369-0.095
	c-0.129-0.007-0.258,0.025-0.371,0.09c-0.569,0.182-1.354,0.493-2.235,0.909c0.014-0.029,0.026-0.059,0.04-0.088l0.063-0.135
	c0.25-0.538,0.668-1.438,1.262-2.022c0.393-0.387,0.793-0.572,1.227-0.569C140.993,12.42,141.837,13.198,142.507,14.727z"/>
</svg>
