<?xml version="1.0" encoding="utf-8"?>
<!-- Generator: Adobe Illustrator 19.1.0, SVG Export Plug-In . SVG Version: 6.00 Build 0)  -->
<svg version="1.1" id="Layer_1" xmlns="http://www.w3.org/2000/svg" xmlns:xlink="http://www.w3.org/1999/xlink" x="0px" y="0px"
	 viewBox="0 0 21.1 13.3" style="enable-background:new 0 0 21.1 13.3;" xml:space="preserve">
<style type="text/css">
	.st0{fill:#EDEFEF;}
</style>
<g>
	<g>
		<path class="st0" d="M20.6,1.5l-1-1C19.2,0.2,18.8,0,18.3,0c-0.5,0-0.9,0.2-1.2,0.5l-6.6,6.6L4,0.5C3.6,0.2,3.2,0,2.7,0
			C2.3,0,1.9,0.2,1.5,0.5l-1,1C0.2,1.9,0,2.3,0,2.7C0,3.2,0.2,3.6,0.5,4l8.8,8.8c0.3,0.3,0.7,0.5,1.2,0.5c0.5,0,0.9-0.2,1.2-0.5
			L20.6,4c0.3-0.3,0.5-0.7,0.5-1.2C21.1,2.3,20.9,1.9,20.6,1.5L20.6,1.5z M20.6,1.5"/>
	</g>
</g>
</svg>
