<?xml version="1.0" encoding="utf-8"?>
<!-- Generator: Adobe Illustrator 19.1.0, SVG Export Plug-In . SVG Version: 6.00 Build 0)  -->
<svg version="1.1" id="Layer_1" xmlns="http://www.w3.org/2000/svg" xmlns:xlink="http://www.w3.org/1999/xlink" x="0px" y="0px"
	 viewBox="0 0 25.7 17.2" style="enable-background:new 0 0 25.7 17.2;" xml:space="preserve">
<style type="text/css">
	.st0{fill:#E67824;}
</style>
<path class="st0" d="M23,0H2.7C1.2,0,0,1.2,0,2.7v11.7c0,1.5,1.2,2.7,2.7,2.7H23c1.5,0,2.7-1.2,2.7-2.7V2.7C25.7,1.2,24.5,0,23,0z
	 M23,1.8c0.1,0,0.2,0,0.3,0.1l-9.4,5.8c-0.7,0.4-1.5,0.4-2.2,0L2.4,1.9c0.1,0,0.2-0.1,0.3-0.1H23z M23,15.4H2.7
	c-0.5,0-0.9-0.4-0.9-0.9V4.2l8.7,5.4c0.7,0.4,1.5,0.7,2.3,0.7c0.8,0,1.6-0.2,2.3-0.6l8.8-5.5v10.3C23.9,14.9,23.5,15.4,23,15.4z"/>
</svg>
