<?xml version="1.0" encoding="utf-8"?>
<!-- Generator: Adobe Illustrator 19.1.0, SVG Export Plug-In . SVG Version: 6.00 Build 0)  -->
<svg version="1.1" id="Layer_1" xmlns="http://www.w3.org/2000/svg" xmlns:xlink="http://www.w3.org/1999/xlink" x="0px" y="0px"
	 viewBox="0 0 71 30.6" style="enable-background:new 0 0 71 30.6;" xml:space="preserve">
<style type="text/css">
	.st0{fill:none;stroke:#3F4040;stroke-width:2;stroke-miterlimit:10;}
	.st1{fill:#3F4040;}
	.st2{font-family:'Univers';}
	.st3{font-size:18px;}
</style>
<path class="st0" d="M23.6,29.6H7c-3.3,0-6-2.7-6-6V7c0-3.3,2.7-6,6-6h16.6c3.3,0,6,2.7,6,6v16.6C29.6,26.9,26.9,29.6,23.6,29.6z"/>
<path class="st0" d="M64,29.6H47.4c-3.3,0-6-2.7-6-6V7c0-3.3,2.7-6,6-6H64c3.3,0,6,2.7,6,6v16.6C70,26.9,67.3,29.6,64,29.6z"/>
<text transform="matrix(1 0 0 1 50.1628 21.4374)" class="st1 st2 st3">Z</text>
<g id="gVF6oY.tif">
	<g>
		<g>
			<path class="st1" d="M22.5,19.4c0,0.1,0,0.2,0,0.2c0,0.1,0,0.1,0,0.2c-0.1,1.3-1.1,2.4-2.5,2.7c-1.3,0.3-2.6-0.4-3.2-1.6
				c-0.2-0.5-0.4-1-0.3-1.5c0-0.4,0-0.9,0-1.3c-0.8,0-1.6,0-2.3,0c0,0.5,0,0.9,0,1.3c0,1.8-1.4,3.1-3.2,3.1
				c-1.5-0.1-2.7-1.3-2.9-2.8C8,18.2,9,16.8,10.4,16.6c0.6-0.1,1.2-0.1,1.8-0.1c0.1,0,0.2,0,0.3,0c0-0.8,0-1.6,0-2.4
				c-0.5,0-1,0-1.4,0c-1.3,0-2.5-0.9-2.9-2.1c-0.4-1.3,0.1-2.6,1.2-3.4c0.4-0.3,0.9-0.4,1.4-0.5c0.2,0,0.4,0,0.6,0c0,0,0.1,0,0.1,0
				c1.3,0.2,2.3,1.1,2.6,2.4c0.1,0.6,0.1,1.1,0.1,1.7c0,0.1,0,0.2,0,0.3c0.8,0,1.6,0,2.3,0c0-0.1,0-0.2,0-0.2c0-0.4,0-0.9,0-1.3
				c0.1-1.2,0.6-2,1.6-2.6c0.3-0.2,0.7-0.2,1.1-0.3c0.2,0,0.4,0,0.6,0c0,0,0.1,0,0.1,0c1.3,0.2,2.1,0.9,2.5,2.1
				c0.1,0.2,0.1,0.5,0.1,0.7c0,0.1,0,0.2,0,0.2c0,0.1,0,0.1,0,0.2c-0.1,1.3-1.1,2.4-2.4,2.7c-0.6,0.1-1.1,0.1-1.7,0.1
				c-0.1,0-0.2,0-0.3,0c0,0.8,0,1.6,0,2.4c0.5,0,0.9,0,1.4,0c1.3,0,2.2,0.6,2.7,1.8C22.4,18.6,22.4,19,22.5,19.4z M12.5,12.5
				c0-0.5,0-0.9,0-1.4c0-0.7-0.6-1.3-1.3-1.4c-0.8,0-1.4,0.5-1.5,1.2c-0.1,0.8,0.4,1.5,1.1,1.6C11.4,12.5,11.9,12.5,12.5,12.5z
				 M18.1,12.5c0.5,0,1,0,1.4,0c0.7,0,1.3-0.6,1.4-1.3c0-0.7-0.5-1.4-1.2-1.5c-0.8-0.1-1.5,0.4-1.6,1.2C18,11.4,18.1,11.9,18.1,12.5
				z M12.5,18.1c-0.5,0-1,0-1.5,0c-0.7,0-1.3,0.7-1.3,1.4c0,0.8,0.6,1.4,1.3,1.4c0.8,0,1.4-0.5,1.5-1.2
				C12.5,19.1,12.5,18.6,12.5,18.1z M18.1,18.1c0,0.5,0,1,0,1.5c0,0.1,0,0.1,0,0.2c0.2,0.8,0.9,1.2,1.6,1.1c0.7-0.1,1.2-0.8,1.2-1.5
				c-0.1-0.7-0.7-1.3-1.4-1.3c-0.4,0-0.8,0-1.2,0C18.2,18.1,18.1,18.1,18.1,18.1z M16.5,14.1c-0.8,0-1.6,0-2.3,0c0,0.8,0,1.5,0,2.3
				c0.8,0,1.6,0,2.3,0C16.5,15.7,16.5,14.9,16.5,14.1z"/>
		</g>
	</g>
</g>
<g>
	<path class="st1" d="M35.9,12.9v2.2h2.2v0.7h-2.2v2.2h-0.7v-2.2h-2.2v-0.7h2.2v-2.2H35.9z"/>
</g>
</svg>
