<?xml version="1.0" encoding="utf-8"?>
<!-- Generator: Adobe Illustrator 19.1.0, SVG Export Plug-In . SVG Version: 6.00 Build 0)  -->
<svg version="1.1" id="Layer_1" xmlns="http://www.w3.org/2000/svg" xmlns:xlink="http://www.w3.org/1999/xlink" x="0px" y="0px"
	 viewBox="0 0 65.5 65.5" style="enable-background:new 0 0 65.5 65.5;" xml:space="preserve">
<style type="text/css">
	.st0{fill:#3B589C;}
	.st1{fill:#ECEEEE;}
</style>
<g>
	<g>
		<path class="st0" d="M57.5,65.5H8c-4.4,0-8-3.6-8-8L0,8c0-4.4,3.6-8,8-8l49.5,0c4.4,0,8,3.6,8,8v49.5C65.5,62,62,65.5,57.5,65.5z"
			/>
	</g>
	<g>
		<path class="st1" d="M47.5,9.2c2.4,0,4.5,0.9,6.3,2.6s2.6,3.8,2.6,6.3v29.5c0,2.4-0.9,4.5-2.6,6.3s-3.8,2.6-6.3,2.6h-5.8V38.1h6.1
			l0.9-7.1h-7v-4.5c0-1.1,0.2-2,0.7-2.6c0.5-0.6,1.4-0.9,2.8-0.9l3.7,0v-6.4c-1.3-0.2-3.1-0.3-5.5-0.3c-2.8,0-5,0.8-6.7,2.5
			c-1.7,1.6-2.5,4-2.5,6.9V31h-6.1v7.1h6.1v18.3H18c-2.4,0-4.5-0.9-6.3-2.6S9.2,50,9.2,47.5V18c0-2.4,0.9-4.5,2.6-6.3
			s3.8-2.6,6.3-2.6H47.5z"/>
	</g>
</g>
</svg>
