<?xml version="1.0" encoding="utf-8"?>
<!-- Generator: Adobe Illustrator 19.1.0, SVG Export Plug-In . SVG Version: 6.00 Build 0)  -->
<svg version="1.1" id="Layer_1" xmlns="http://www.w3.org/2000/svg" xmlns:xlink="http://www.w3.org/1999/xlink" x="0px" y="0px"
	 viewBox="0 0 63.4 61.6" style="enable-background:new 0 0 63.4 61.6;" xml:space="preserve">
<style type="text/css">
	.st0{fill:#39A6E2;}
</style>
<g>
	<g>
		<path class="st0" d="M14.5,61.6c-0.5,0-1-0.1-1.5-0.4c-1-0.5-1.7-1.6-1.7-2.8l0-9H6.2c-3.4,0-6.2-2.8-6.2-6.2V6.2
			C0,2.8,2.8,0,6.2,0h51c3.4,0,6.2,2.8,6.2,6.2v37.1c0,3.4-2.8,6.2-6.2,6.2H33.7L16.2,61.1C15.7,61.5,15.1,61.6,14.5,61.6z
			 M14.5,43.3c0.8,0,1.6,0.3,2.2,0.9c0.6,0.6,0.9,1.4,0.9,2.2l0,6.3L31,43.8c0.5-0.3,1.1-0.5,1.7-0.5h24.4l0-37l-50.9,0l0,37
			L14.5,43.3z"/>
		<g>
			<path class="st0" d="M22.3,24.8c0,2.6-2.1,4.7-4.7,4.7s-4.7-2.1-4.7-4.7c0-2.6,2.1-4.7,4.7-4.7S22.3,22.2,22.3,24.8z"/>
			<path class="st0" d="M36.4,24.8c0,2.6-2.1,4.7-4.7,4.7S27,27.4,27,24.8c0-2.6,2.1-4.7,4.7-4.7S36.4,22.2,36.4,24.8z"/>
			<path class="st0" d="M50.5,24.8c0,2.6-2.1,4.7-4.7,4.7c-2.6,0-4.7-2.1-4.7-4.7c0-2.6,2.1-4.7,4.7-4.7
				C48.4,20.1,50.5,22.2,50.5,24.8z"/>
		</g>
	</g>
</g>
</svg>
