<?xml version="1.0" encoding="utf-8"?>
<!-- Generator: Adobe Illustrator 19.1.0, SVG Export Plug-In . SVG Version: 6.00 Build 0)  -->
<svg version="1.1" id="Layer_1" xmlns="http://www.w3.org/2000/svg" xmlns:xlink="http://www.w3.org/1999/xlink" x="0px" y="0px"
	 viewBox="0 0 46.3 42" style="enable-background:new 0 0 46.3 42;" xml:space="preserve">
<style type="text/css">
	.st0{fill:#3F4040;}
</style>
<g>
	<path class="st0" d="M46.3,23.2C46.3,10.4,35.9,0,23.1,0S0,10.4,0,23.2C0,31,4.8,37.8,9.8,42v-5.8c0-5.2,3.8-9.6,8.9-10.1
		c-3.4-1.7-5.8-5.1-5.8-9.2c0-5.7,4.5-10.2,10.2-10.2c5.7,0,10.2,4.6,10.2,10.2c0,4-2.3,7.5-5.7,9.2c5.1,0.5,9.1,4.8,9.1,10.1V42
		C44.8,37.8,46.3,31,46.3,23.2z"/>
</g>
</svg>
