<?xml version="1.0" encoding="utf-8"?>
<!-- Generator: Adobe Illustrator 19.1.0, SVG Export Plug-In . SVG Version: 6.00 Build 0)  -->
<svg version="1.1" id="Layer_1" xmlns="http://www.w3.org/2000/svg" xmlns:xlink="http://www.w3.org/1999/xlink" x="0px" y="0px"
	 viewBox="-445 249.6 68.2 62.4" style="enable-background:new -445 249.6 68.2 62.4;" xml:space="preserve">
<style type="text/css">
	.st0{fill:#39A5E1;}
	.st1{enable-background:new    ;}
	.st2{fill:#EBEDED;}
</style>
<path class="st0" d="M-398.4,249.6h-25c-3.2,0-6.2,1.7-7.8,4.6l-12.6,22.4c-1.6,2.7-1.6,6.1,0,8.8l12.4,22c1.6,2.8,4.6,4.6,7.8,4.6
	h25.5c3.2,0,6.2-1.7,7.8-4.6l12.4-22c1.5-2.7,1.5-6.1,0-8.8l-12.6-22.4C-392.1,251.3-395.1,249.6-398.4,249.6z"/>
<g>
	<g class="st1">
		<path class="st2" d="M-435.1,287.6l6-15.2h5.1l6,15.2h-4.7l-1-3h-6.2l-1,3H-435.1z M-424.8,281.7l-1.9-6.3h-0.1l-2.1,6.3H-424.8z"
			/>
		<path class="st2" d="M-408.3,276.9c0-0.6-0.2-1-0.5-1.3c-0.4-0.3-0.9-0.5-1.6-0.5c-1,0-1.8,0.6-1.8,1.4c0,1.1,1.3,1.5,2.5,1.8
			c2.5,0.7,6.2,0.9,6.2,5c0,3.2-3.1,4.7-6.7,4.7c-3.5,0-6.6-1-6.7-5.1h4.2c0,1.4,1,2.2,2.5,2.2c1,0,2.2-0.5,2.2-1.5
			c0-2.1-3.1-1.6-6.4-3.1c-1.5-0.7-2.3-2.1-2.3-3.7c0.2-3.6,3.3-4.6,6.5-4.6c3.1,0,6.3,1.1,6.1,4.8H-408.3z"/>
		<path class="st2" d="M-392,272.4h5l-5.2,6.7l5.6,8.5h-5.2l-5-8.1h0v8.1h-4.2v-15.2h4.2v6.7h0L-392,272.4z"/>
	</g>
</g>
</svg>
