<?xml version="1.0" encoding="utf-8"?>
<!-- Generator: Adobe Illustrator 19.1.0, SVG Export Plug-In . SVG Version: 6.00 Build 0)  -->
<svg version="1.1" id="Layer_1" xmlns="http://www.w3.org/2000/svg" xmlns:xlink="http://www.w3.org/1999/xlink" x="0px" y="0px"
	 viewBox="0 0 49.3 43" style="enable-background:new 0 0 49.3 43;" xml:space="preserve">
<style type="text/css">
	.st0{fill:#E57824;}
	.st1{fill:#EBEDED;}
</style>
<polygon class="st0" points="37,-0.2 12.3,-0.2 0,21.6 12.1,43.1 37.2,43.1 49.3,21.6 "/>
<g>
	<path class="st1" d="M17.5,18.8c0-5.4,4.4-9.8,9.8-9.8s9.8,4.4,9.8,9.8s-4.4,9.8-9.8,9.8c-1.8,0-3.5-0.5-4.9-1.3l-6.7,6.7
		c-2,0-3.6-1.6-3.6-3.6l6.7-6.7C18,22.2,17.5,20.5,17.5,18.8z M33.6,18.8c0-3.4-2.8-6.2-6.2-6.2s-6.2,2.8-6.2,6.2s2.8,6.2,6.2,6.2
		S33.6,22.2,33.6,18.8z"/>
</g>
</svg>
