<?xml version="1.0" encoding="utf-8"?>
<!-- Generator: Adobe Illustrator 19.1.0, SVG Export Plug-In . SVG Version: 6.00 Build 0)  -->
<svg version="1.1" id="Layer_1" xmlns="http://www.w3.org/2000/svg" xmlns:xlink="http://www.w3.org/1999/xlink" x="0px" y="0px"
	 viewBox="0 0 18.1 11.4" style="enable-background:new 0 0 18.1 11.4;" xml:space="preserve">
<style type="text/css">
	.st0{fill:#767676;}
</style>
<g>
	<g>
		<g>
			<g>
				<path class="st0" d="M17.6,1.3l-0.9-0.9C16.5,0.1,16.1,0,15.7,0c-0.4,0-0.8,0.1-1,0.4L9,6.1L3.4,0.4C3.1,0.1,2.8,0,2.4,0
					C2,0,1.6,0.1,1.3,0.4L0.4,1.3C0.1,1.6,0,1.9,0,2.4c0,0.4,0.1,0.8,0.4,1L8,11c0.3,0.3,0.6,0.4,1,0.4c0.4,0,0.8-0.1,1.1-0.4
					l7.6-7.6c0.3-0.3,0.4-0.6,0.4-1C18.1,2,17.9,1.6,17.6,1.3L17.6,1.3z M17.6,1.3"/>
			</g>
		</g>
	</g>
</g>
</svg>
