<?xml version="1.0" encoding="utf-8"?>
<!-- Generator: Adobe Illustrator 19.1.0, SVG Export Plug-In . SVG Version: 6.00 Build 0)  -->
<svg version="1.1" id="Layer_1" xmlns="http://www.w3.org/2000/svg" xmlns:xlink="http://www.w3.org/1999/xlink" x="0px" y="0px"
	 viewBox="0 0 9.6 8.6" style="enable-background:new 0 0 9.6 8.6;" xml:space="preserve">
<style type="text/css">
	.st0{fill:#ECEEEE;stroke:#000000;stroke-width:0.25;stroke-miterlimit:10;}
</style>
<g id="I0tXEN.tif">
	<g>
		<path class="st0" d="M2.4,0.1c0.2,0,0.3,0,0.5,0H3c0.4,0.1,0.8,0.2,1.2,0.5c0.2,0.1,0.3,0.3,0.5,0.5c0,0,0,0,0.1-0.1
			c0.3-0.4,0.8-0.7,1.3-0.8c0.2-0.1,0.3-0.1,0.4-0.1c0.2,0,0.3,0,0.5,0c0,0,0,0,0.1,0C8.1,0.2,9,1,9.3,2c0,0.1,0.1,0.3,0.1,0.4
			c0,0.2,0,0.3,0,0.5V3C9.2,3.6,9,4.1,8.6,4.5C7.3,5.8,6.1,7.1,4.8,8.3c0,0,0,0.1-0.1,0.1l0,0c0,0,0-0.1-0.1-0.1
			C3.4,7.1,2.1,5.8,0.8,4.5C0.5,4.2,0.3,3.8,0.2,3.4c0-0.2-0.1-0.3-0.1-0.5s0-0.3,0-0.5c0,0,0,0,0-0.1c0.2-1,0.7-1.7,1.6-2.1
			C2,0.2,2.2,0.2,2.4,0.1z"/>
	</g>
</g>
</svg>
