<?xml version="1.0" encoding="utf-8"?>
<!-- Generator: Adobe Illustrator 19.1.0, SVG Export Plug-In . SVG Version: 6.00 Build 0)  -->
<svg version="1.1" id="Layer_1" xmlns="http://www.w3.org/2000/svg" xmlns:xlink="http://www.w3.org/1999/xlink" x="0px" y="0px"
	 viewBox="0 0 9.2 8.3" style="enable-background:new 0 0 9.2 8.3;" xml:space="preserve">
<style type="text/css">
	.st0{fill:#3F4040;}
</style>
<g id="I0tXEN.tif">
	<g>
		<path class="st0" d="M2.3,0c0.2,0,0.3,0,0.5,0c0,0,0.1,0,0.1,0c0.4,0.1,0.8,0.2,1.2,0.5C4.3,0.6,4.4,0.8,4.6,1c0,0,0,0,0.1-0.1
			C5,0.5,5.5,0.2,6,0.1C6.2,0,6.3,0,6.4,0c0.2,0,0.3,0,0.5,0c0,0,0,0,0.1,0c1,0.1,1.9,0.9,2.2,1.9c0,0.1,0.1,0.3,0.1,0.4
			c0,0.2,0,0.3,0,0.5c0,0,0,0.1,0,0.1C9.1,3.5,8.9,4,8.5,4.4C7.2,5.7,6,7,4.7,8.2c0,0,0,0.1-0.1,0.1c0,0,0,0,0,0c0,0,0-0.1-0.1-0.1
			C3.3,7,2,5.7,0.7,4.4C0.4,4.1,0.2,3.7,0.1,3.3C0.1,3.1,0,3,0,2.8c0-0.2,0-0.3,0-0.5c0,0,0,0,0-0.1c0.2-1,0.7-1.7,1.6-2.1
			C1.9,0.1,2.1,0.1,2.3,0z"/>
	</g>
</g>
</svg>
