<?xml version="1.0" encoding="utf-8"?>
<!-- Generator: Adobe Illustrator 19.1.0, SVG Export Plug-In . SVG Version: 6.00 Build 0)  -->
<svg version="1.1" id="Layer_1" xmlns="http://www.w3.org/2000/svg" xmlns:xlink="http://www.w3.org/1999/xlink" x="0px" y="0px"
	 viewBox="0 0 65.2 65.2" style="enable-background:new 0 0 65.2 65.2;" xml:space="preserve">
<style type="text/css">
	.st0{fill:#D94C29;}
	.st1{fill:#ECEEEE;}
</style>
<g>
	<g>
		<path class="st0" d="M57.2,65.2H8c-4.4,0-8-3.6-8-8L0,8c0-4.4,3.6-8,8-8l49.2,0c4.4,0,8,3.6,8,8v49.2
			C65.2,61.6,61.6,65.2,57.2,65.2z"/>
	</g>
	<g>
		<path class="st1" d="M56.1,17.9v29.3c0,2.4-0.9,4.5-2.6,6.2c-1.7,1.7-3.8,2.6-6.2,2.6H17.9c-2.4,0-4.5-0.9-6.2-2.6
			c-1.7-1.7-2.6-3.8-2.6-6.2V17.9c0-2.4,0.9-4.5,2.6-6.2s3.8-2.6,6.2-2.6h29.3c2.4,0,4.5,0.9,6.2,2.6C55.2,13.4,56.1,15.5,56.1,17.9
			z M35.4,17.9l2.7-2H30c-1.7,0-3.4,0.3-4.9,1c-1.5,0.7-2.8,1.6-3.9,3c-1,1.3-1.6,2.9-1.6,4.7c0,1.9,0.7,3.5,2,4.7
			c1.3,1.3,2.9,1.9,4.8,1.9c0.4,0,0.9,0,1.3-0.1c-0.3,0.6-0.4,1.1-0.4,1.6c0,0.9,0.4,1.9,1.2,2.9c-3.6,0.2-6.2,0.9-7.9,1.9
			c-1,0.6-1.7,1.3-2.3,2.2c-0.6,0.9-0.9,1.9-0.9,2.9c0,0.9,0.2,1.7,0.6,2.4s0.9,1.3,1.5,1.7c0.6,0.4,1.3,0.8,2.1,1.1
			c0.8,0.3,1.6,0.5,2.4,0.6c0.8,0.1,1.6,0.2,2.3,0.2c1.2,0,2.4-0.2,3.7-0.5s2.4-0.8,3.5-1.4c1.1-0.6,2-1.5,2.6-2.5
			c0.7-1.1,1-2.3,1-3.6c0-1-0.2-1.9-0.6-2.7c-0.4-0.8-0.9-1.5-1.5-2c-0.6-0.5-1.2-1-1.8-1.5s-1.1-0.9-1.5-1.3
			c-0.4-0.5-0.6-0.9-0.6-1.4c0-0.4,0.2-0.9,0.5-1.3c0.3-0.4,0.7-0.8,1.1-1.2c0.4-0.4,0.9-0.8,1.3-1.3c0.4-0.5,0.8-1.1,1.1-1.8
			s0.5-1.6,0.5-2.5c0-1.2-0.2-2.2-0.7-3c-0.5-0.8-1.2-1.7-2.2-2.8H35.4z M34.5,42.4c0,1.5-0.6,2.7-1.8,3.4c-1.2,0.7-2.6,1.1-4.3,1.1
			c-0.8,0-1.7-0.1-2.5-0.3s-1.6-0.5-2.3-0.9c-0.7-0.4-1.3-0.9-1.8-1.6s-0.7-1.5-0.7-2.4c0-0.9,0.3-1.8,0.8-2.4
			c0.5-0.7,1.2-1.2,2-1.6c0.8-0.4,1.7-0.6,2.5-0.8s1.7-0.2,2.6-0.2c0.4,0,0.7,0,0.9,0.1c0,0,0.3,0.2,0.7,0.5s0.7,0.5,0.8,0.6
			c0.1,0.1,0.3,0.3,0.7,0.5s0.6,0.5,0.7,0.7c0.1,0.2,0.3,0.4,0.6,0.7c0.3,0.3,0.4,0.6,0.5,0.8c0.1,0.2,0.2,0.5,0.3,0.8
			S34.5,42.1,34.5,42.4z M32.2,25.8c0,1.2-0.3,2.2-1,3c-0.7,0.8-1.6,1.2-2.8,1.2c-1.1,0-2-0.4-2.8-1.3s-1.4-1.8-1.8-2.9
			c-0.4-1.1-0.5-2.2-0.5-3.2c0-1.2,0.3-2.3,1-3.2c0.7-0.9,1.6-1.3,2.8-1.3c1.1,0,2,0.5,2.9,1.4c0.8,0.9,1.4,1.9,1.8,3.1
			C32,23.6,32.2,24.7,32.2,25.8z M44.3,31.6h3.9v-2h-3.9v-3.9h-2v3.9h-3.9v2h3.9v4.9h2V31.6z"/>
	</g>
</g>
</svg>
