<?xml version="1.0" encoding="utf-8"?>
<!-- Generator: Adobe Illustrator 15.0.0, SVG Export Plug-In  -->
<!DOCTYPE svg PUBLIC "-//W3C//DTD SVG 1.1 Basic//EN" "http://www.w3.org/Graphics/SVG/1.1/DTD/svg11-basic.dtd" [
	<!ENTITY ns_flows "http://ns.adobe.com/Flows/1.0/">
]>
<svg version="1.1" baseProfile="basic"
	 xmlns="http://www.w3.org/2000/svg" xmlns:xlink="http://www.w3.org/1999/xlink" xmlns:a="http://ns.adobe.com/AdobeSVGViewerExtensions/3.0/"
	 x="0px" y="0px" width="1028px" height="244px" viewBox="-0.12 -0.687 1028 244" enable-background="new -0.12 -0.687 1028 244"
	 xml:space="preserve">
<defs>
</defs>
<linearGradient id="SVGID_1_" gradientUnits="userSpaceOnUse" x1="0" y1="121.46" x2="1027.0054" y2="121.46">
	<stop  offset="0" style="stop-color:#CBCBCB;stop-opacity:0"/>
	<stop  offset="0.0727" style="stop-color:#CBCBCB"/>
	<stop  offset="0.9333" style="stop-color:#CBCBCB"/>
	<stop  offset="1" style="stop-color:#CBCBCB;stop-opacity:0"/>
</linearGradient>
<path fill="url(#SVGID_1_)" d="M885.811,0h23.414l18.083,32.586l-56.953,102.727h-117.41L695.992,32.586L714.049,0h23.473
	l-18.081,32.588l45.566,82.227h93.285l45.568-82.227L885.811,0z M147.4,12.074h117.41L271.504,0H140.707L147.4,12.074z
	 M499.88,32.588l-45.566,82.227h-93.286l-45.567-82.227L333.542,0h-23.473l-18.057,32.586l56.954,102.727h117.411L523.33,32.586
	L505.247,0h-23.414L499.88,32.588z M551.38,12.074h117.41L675.484,0H544.686L551.38,12.074z M286.197,88.305L263.955,48.19H148.257
	L126.014,88.21l-35.568,64.186l50.188,90.524h130.942l50.189-90.524L286.197,88.305z M252.748,234.625h-93.285l-45.567-82.227
	l30.036-54.136l16.384-29.575h91.581l16.384,29.48l30.034,54.23L252.748,234.625z M345.497,221.502l16.384-29.575h91.582
	l16.383,29.48l11.914,21.512h23.416l-17.412-31.375l-22.242-40.115H349.822L327.58,211.45l-17.439,31.47h23.474L345.497,221.502z
	 M749.476,221.502l16.385-29.575h91.58l16.385,29.48l11.914,21.512h23.414l-17.412-31.375L869.5,171.429H753.802L731.56,211.45
	l-17.439,31.47h23.473L749.476,221.502z M690.177,88.305L667.935,48.19H552.236L529.994,88.21l-35.568,64.186l50.189,90.524h130.941
	l50.189-90.524L690.177,88.305z M656.728,234.625h-93.285l-45.566-82.227l30.035-54.136l16.383-29.575h91.582l16.383,29.48
	l30.035,54.23L656.728,234.625z M63.247,135.313l56.954-102.727L102.117,0H78.702l18.049,32.588l-45.567,82.227H0v20.498H63.247z
	 M62.39,171.429H0v20.498h50.332l16.384,29.48L78.63,242.92h23.415l-17.412-31.375L62.39,171.429z M945.883,0l6.694,12.074h74.428V0
	H945.883z M964.64,234.625l-45.566-82.227l30.035-54.136l16.383-29.575h61.514V48.19h-73.572L931.191,88.21l-35.568,64.186
	l50.189,90.524h81.193v-8.294H964.64z"/>
</svg>
