<?xml version="1.0" encoding="utf-8"?>
<!-- Generator: Adobe Illustrator 15.0.0, SVG Export Plug-In  -->
<!DOCTYPE svg PUBLIC "-//W3C//DTD SVG 1.1//EN" "http://www.w3.org/Graphics/SVG/1.1/DTD/svg11.dtd" [
	<!ENTITY ns_flows "http://ns.adobe.com/Flows/1.0/">
]>
<svg version="1.1"
	 xmlns="http://www.w3.org/2000/svg" xmlns:xlink="http://www.w3.org/1999/xlink" xmlns:a="http://ns.adobe.com/AdobeSVGViewerExtensions/3.0/"
	 x="0px" y="0px" width="1025px" height="1420px" viewBox="-0.73 -0.685 1025 1420" enable-background="new -0.73 -0.685 1025 1420"
	 xml:space="preserve">
<defs>
</defs>
<polygon fill="#BDBCBC" points="364.842,1163.814 318.7,1246.833 363.988,1328.369 456.684,1328.369 501.972,1246.833 
	455.831,1163.814 "/>
<polygon fill="#BDBCBC" points="53.849,1329.06 99.416,1246.833 69.381,1192.603 52.996,1163.123 0,1163.123 0,1329.06 "/>
<polygon fill="#BDBCBC" points="64.332,1419.007 52.996,1398.611 0,1398.611 0,1419.007 "/>
<polygon fill="#BDBCBC" points="53.849,1095.187 99.416,1012.96 69.381,958.73 52.996,929.25 0,929.25 0,1095.187 "/>
<polygon fill="#BDBCBC" points="974.609,802.025 958.226,831.601 928.19,885.738 973.757,967.962 1024,967.962 1024,802.025 "/>
<polygon fill="#BDBCBC" points="455.831,1399.302 364.842,1399.302 353.89,1419.007 466.783,1419.007 "/>
<polygon fill="#BDBCBC" points="974.609,312.353 958.226,341.928 928.19,396.063 973.757,478.291 1024,478.291 1024,312.353 "/>
<polygon fill="#BDBCBC" points="298.942,1364.283 252.802,1281.263 161.813,1281.263 115.672,1364.283 146.068,1419.007 
	268.545,1419.007 "/>
<polygon fill="#BDBCBC" points="764.871,115.18 858.157,115.18 903.724,32.954 885.473,0 737.587,0 719.305,32.954 "/>
<polygon fill="#BDBCBC" points="974.609,68.327 958.226,97.902 928.19,152.038 973.757,234.265 1024,234.265 1024,68.327 "/>
<polygon fill="#BDBCBC" points="363.693,115.18 456.979,115.18 502.546,32.954 484.295,0 336.409,0 318.127,32.954 "/>
<polygon fill="#BDBCBC" points="53.849,358.229 99.416,276.003 69.381,221.772 52.996,192.292 0,192.292 0,358.229 "/>
<polygon fill="#BDBCBC" points="53.849,605.183 99.416,522.957 69.381,468.726 52.996,439.246 0,439.246 0,605.183 "/>
<path fill="#BDBCBC" d="M961.694,498.789L904.74,396.061l35.568-64.186l22.242-40.021H1024v-37.092h-62.306L904.74,152.035
	l35.568-64.186l22.242-40.021H1024V0H908.887l18.287,32.951L870.22,135.678H752.809L695.854,32.951L714.114,0H507.709l18.286,32.951
	l-56.954,102.727h-117.41L294.677,32.951L312.936,0H104.578l18.287,32.951L65.911,135.678H0v36.116h65.055l22.242,40.115
	L122.865,276L65.911,378.728H0v40.021h65.055l22.242,40.115l35.568,64.092L65.911,625.681H0v38.068h65.055l22.242,40.115
	l35.568,64.092L65.911,870.683H0v38.068h65.055l22.242,40.115l35.568,64.09l-56.954,102.729H0v26.939h65.055l22.242,40.115
	l35.568,64.092l-56.954,102.727H0v28.555h65.055l22.242,40.115l0.433,0.779h34.317l-30.399-54.729l57.811-104.016h115.698
	l57.811,104.016l-30.399,54.729h37.297l22.623-40.705h115.698l22.623,40.705h35.344l-30.398-54.729l57.811-104.016h115.697
	l57.811,104.016l-30.398,54.729h36.32l22.623-40.705h115.698l22.623,40.705h41.144l-30.342-54.729l35.568-64.186l22.242-40.021H1024
	v-26.939h-62.306l-56.954-102.727l35.568-64.188l22.242-40.02H1024V988.46h-62.306L904.74,885.734l35.568-64.186l22.242-40.021H1024
	v-37.736h-62.306L904.74,641.062l35.568-64.186l22.242-40.02H1024v-38.068H961.694z M148.602,1232.943l-56.954-102.537
	l57.811-104.018h115.698l57.811,104.018l-56.955,102.537H148.602z M469.041,1349.369h-117.41l-56.954-102.537l57.811-104.018
	h115.698l57.81,104.018L469.041,1349.369z M552.708,1232.943l-56.954-102.537l57.811-104.018h115.697l57.811,104.018
	l-56.954,102.537H552.708z M929.126,1246.832l-56.954,102.537H754.761l-56.954-102.537l57.811-104.018h115.698L929.126,1246.832z"/>
<polygon fill="#BDBCBC" points="767.972,1163.814 721.83,1246.833 767.118,1328.369 859.813,1328.369 905.102,1246.833 
	858.961,1163.814 "/>
<polygon fill="#BDBCBC" points="99.416,32.954 81.164,0 0,0 0,115.18 53.849,115.18 "/>
<polygon fill="#BDBCBC" points="53.849,850.185 99.416,767.958 69.381,713.728 52.996,684.248 0,684.248 0,850.185 "/>
<polygon fill="#BDBCBC" points="974.609,1046.697 958.226,1076.271 928.19,1130.408 973.757,1212.634 1024,1212.634 1024,1046.697 
	"/>
<polygon fill="#BDBCBC" points="703.049,1364.283 656.908,1281.263 565.918,1281.263 519.777,1364.283 550.175,1419.007 
	672.651,1419.007 "/>
<polygon fill="#BDBCBC" points="1024,1280.572 974.609,1280.572 958.226,1310.146 928.19,1364.283 958.518,1419.007 1024,1419.007 
	"/>
<polygon fill="#BDBCBC" points="858.961,1399.302 767.972,1399.302 757.02,1419.007 869.912,1419.007 "/>
<polygon fill="#BDBCBC" points="974.609,557.355 958.226,586.929 928.19,641.066 973.757,723.292 1024,723.292 1024,557.355 "/>
<polygon fill="#CBCBCB" points="265.156,1026.388 149.458,1026.388 91.647,1130.406 148.602,1232.943 266.012,1232.943 
	322.967,1130.406 "/>
<polygon fill="#CBCBCB" points="669.262,1026.388 553.564,1026.388 495.754,1130.406 552.708,1232.943 670.118,1232.943 
	727.072,1130.406 "/>
<polygon fill="#CBCBCB" points="122.865,1012.957 87.297,948.867 65.055,908.751 0,908.751 0,929.25 52.996,929.25 53.046,929.25 
	52.996,929.25 69.381,958.73 99.416,1012.96 53.849,1095.187 0,1095.187 0,1115.685 65.911,1115.685 "/>
<polygon fill="#CBCBCB" points="940.309,821.548 904.74,885.734 961.694,988.46 1024,988.46 1024,967.962 973.757,967.962 
	928.19,885.738 958.226,831.601 974.609,802.025 1024,802.025 1024,781.527 962.551,781.527 "/>
<polygon fill="#CBCBCB" points="940.309,1066.218 904.74,1130.406 961.694,1233.132 1024,1233.132 1024,1212.634 973.757,1212.634 
	928.19,1130.408 958.226,1076.271 974.609,1046.697 1024,1046.697 1024,1026.199 962.551,1026.199 "/>
<polygon fill="#CBCBCB" points="122.865,1246.832 87.297,1182.74 65.055,1142.625 0,1142.625 0,1163.123 52.996,1163.123 
	53.046,1163.123 52.996,1163.123 69.381,1192.603 99.416,1246.833 53.849,1329.06 0,1329.06 0,1349.558 65.911,1349.558 "/>
<polygon fill="#CBCBCB" points="940.309,1300.093 904.74,1364.279 935.082,1419.007 958.518,1419.007 928.19,1364.283 
	958.226,1310.146 974.609,1280.572 1024,1280.572 1024,1260.072 962.551,1260.072 "/>
<path fill="#CBCBCB" d="M352.487,1142.814l-57.811,104.018l56.954,102.537h117.41l56.954-102.537l-57.81-104.018H352.487z
	 M456.684,1328.369h-92.695l-45.288-81.535l46.142-83.02h90.989l46.141,83.02L456.684,1328.369z"/>
<path fill="#CBCBCB" d="M755.617,1142.814l-57.811,104.018l56.954,102.537h117.411l56.954-102.537l-57.811-104.018H755.617z
	 M859.813,1328.369h-92.695l-45.288-81.535l46.142-83.02h90.989l46.141,83.02L859.813,1328.369z"/>
<polygon fill="#CBCBCB" points="65.055,1378.113 0,1378.113 0,1398.611 52.996,1398.611 53.046,1398.611 52.996,1398.611 
	64.332,1419.007 87.729,1419.007 87.297,1418.228 "/>
<polygon fill="#CBCBCB" points="352.487,1378.302 329.864,1419.007 353.89,1419.007 364.842,1399.302 455.831,1399.302 
	466.783,1419.007 490.809,1419.007 468.186,1378.302 "/>
<polygon fill="#CBCBCB" points="755.617,1378.302 732.994,1419.007 757.02,1419.007 767.972,1399.302 858.961,1399.302 
	869.912,1419.007 893.938,1419.007 871.315,1378.302 "/>
<polygon fill="#CBCBCB" points="265.156,1260.263 149.458,1260.263 91.647,1364.279 122.046,1419.007 146.068,1419.007 
	115.672,1364.283 161.813,1281.263 252.802,1281.263 298.942,1364.283 268.545,1419.007 292.567,1419.007 322.967,1364.279 "/>
<polygon fill="#CBCBCB" points="669.262,1260.263 553.564,1260.263 495.754,1364.279 526.152,1419.007 550.175,1419.007 
	519.777,1364.283 565.918,1281.263 656.908,1281.263 703.049,1364.283 672.651,1419.007 696.674,1419.007 727.072,1364.279 "/>
<polygon fill="#CBCBCB" points="351.631,135.678 469.041,135.678 525.995,32.951 507.709,0 484.295,0 502.546,32.954 
	456.979,115.18 363.693,115.18 318.127,32.954 336.409,0 312.936,0 294.677,32.951 "/>
<polygon fill="#CBCBCB" points="752.809,135.678 870.22,135.678 927.174,32.951 908.887,0 885.473,0 903.724,32.954 858.157,115.18 
	764.871,115.18 719.305,32.954 737.587,0 714.114,0 695.854,32.951 "/>
<polygon fill="#CBCBCB" points="122.865,32.951 104.578,0 81.164,0 99.416,32.954 53.849,115.18 0,115.18 0,135.678 65.911,135.678 
	"/>
<polygon fill="#CBCBCB" points="122.865,276 87.297,211.909 65.055,171.794 0,171.794 0,192.292 52.996,192.292 53.046,192.292 
	52.996,192.292 69.381,221.772 99.416,276.003 53.849,358.229 0,358.229 0,378.728 65.911,378.728 "/>
<polygon fill="#CBCBCB" points="122.865,522.955 87.297,458.863 65.055,418.748 0,418.748 0,439.246 52.996,439.246 53.046,439.246 
	52.996,439.246 69.381,468.726 99.416,522.957 53.849,605.183 0,605.183 0,625.681 65.911,625.681 "/>
<polygon fill="#CBCBCB" points="940.309,87.85 904.74,152.035 961.694,254.763 1024,254.763 1024,234.265 973.757,234.265 
	928.19,152.038 958.226,97.902 974.609,68.327 1024,68.327 1024,47.829 962.551,47.829 "/>
<polygon fill="#CBCBCB" points="940.309,331.875 904.74,396.061 961.694,498.789 1024,498.789 1024,478.291 973.757,478.291 
	928.19,396.063 958.226,341.928 974.609,312.353 1024,312.353 1024,291.854 962.551,291.854 "/>
<polygon fill="#CBCBCB" points="122.865,767.957 87.297,703.865 65.055,663.75 0,663.75 0,684.248 52.996,684.248 53.046,684.248 
	52.996,684.248 69.381,713.728 99.416,767.958 53.849,850.185 0,850.185 0,870.683 65.911,870.683 "/>
<polygon fill="#CBCBCB" points="940.309,576.876 904.74,641.062 961.694,743.791 1024,743.791 1024,723.292 973.757,723.292 
	928.19,641.066 958.226,586.929 974.609,557.355 1024,557.355 1024,536.857 962.551,536.857 "/>
</svg>
