<?xml version="1.0" encoding="utf-8"?>
<!-- Generator: Adobe Illustrator 19.1.0, SVG Export Plug-In . SVG Version: 6.00 Build 0)  -->
<svg version="1.1" id="Layer_1" xmlns="http://www.w3.org/2000/svg" xmlns:xlink="http://www.w3.org/1999/xlink" x="0px" y="0px"
	 viewBox="0 0 1027 242.9" style="enable-background:new 0 0 1027 242.9;" xml:space="preserve">
<style type="text/css">
	.st0{fill:url(#SVGID_1_);}
</style>
<linearGradient id="SVGID_1_" gradientUnits="userSpaceOnUse" x1="0" y1="121.46" x2="1027.0054" y2="121.46">
	<stop  offset="0" style="stop-color:#CBCBCB;stop-opacity:0"/>
	<stop  offset="0.1273" style="stop-color:#CBCBCB"/>
	<stop  offset="0.897" style="stop-color:#CBCBCB"/>
	<stop  offset="1" style="stop-color:#CBCBCB;stop-opacity:0"/>
</linearGradient>
<path class="st0" d="M885.8,0h23.4l18.1,32.6l-57,102.7H752.9L696,32.6L714,0h23.5l-18.1,32.6l45.6,82.2h93.3l45.6-82.2L885.8,0z
	 M147.4,12.1h117.4L271.5,0H140.7L147.4,12.1z M499.9,32.6l-45.6,82.2H361l-45.6-82.2L333.5,0h-23.5L292,32.6l57,102.7h117.4
	l57-102.7L505.2,0h-23.4L499.9,32.6z M551.4,12.1h117.4L675.5,0H544.7L551.4,12.1z M286.2,88.3L264,48.2H148.3l-22.2,40l-35.6,64.2
	l50.2,90.5h130.9l50.2-90.5L286.2,88.3z M252.7,234.6h-93.3l-45.6-82.2l30-54.1l16.4-29.6h91.6l16.4,29.5l30,54.2L252.7,234.6z
	 M345.5,221.5l16.4-29.6h91.6l16.4,29.5l11.9,21.5h23.4l-17.4-31.4l-22.2-40.1H349.8l-22.2,40l-17.4,31.5h23.5L345.5,221.5z
	 M749.5,221.5l16.4-29.6h91.6l16.4,29.5l11.9,21.5h23.4l-17.4-31.4l-22.2-40.1H753.8l-22.2,40l-17.4,31.5h23.5L749.5,221.5z
	 M690.2,88.3l-22.2-40.1H552.2l-22.2,40l-35.6,64.2l50.2,90.5h130.9l50.2-90.5L690.2,88.3z M656.7,234.6h-93.3l-45.6-82.2l30-54.1
	l16.4-29.6h91.6l16.4,29.5l30,54.2L656.7,234.6z M63.2,135.3l57-102.7L102.1,0H78.7l18,32.6l-45.6,82.2H0v20.5H63.2z M62.4,171.4H0
	v20.5h50.3l16.4,29.5l11.9,21.5H102l-17.4-31.4L62.4,171.4z M945.9,0l6.7,12.1h74.4V0H945.9z M964.6,234.6l-45.6-82.2l30-54.1
	l16.4-29.6h61.5V48.2h-73.6l-22.2,40l-35.6,64.2l50.2,90.5h81.2v-8.3H964.6z"/>
</svg>
