<?xml version="1.0" encoding="utf-8"?>
<!-- Generator: Adobe Illustrator 19.1.0, SVG Export Plug-In . SVG Version: 6.00 Build 0)  -->
<svg version="1.1" id="Layer_1" xmlns="http://www.w3.org/2000/svg" xmlns:xlink="http://www.w3.org/1999/xlink" x="0px" y="0px"
	 viewBox="0 0 223.7 200.1" style="enable-background:new 0 0 223.7 200.1;" xml:space="preserve">
<style type="text/css">
	.st0{fill:#8BC53F;}
	.st1{fill:#FFFFFF;}
	.st2{fill:#ECEEEE;}
	.st3{fill:#767676;}
	.st4{font-family:'Univers-Black';}
	.st5{font-size:12px;}
	.st6{fill:none;}
	.st7{fill:#231F20;}
	.st8{font-family:'Serifa-Roman';}
	.st9{font-size:11px;}
	.st10{fill:#39A5E1;}
	.st11{fill:#EBEDED;}
	.st12{font-family:'Univers-Condensed';}
	.st13{font-size:11.6065px;}
</style>
<g>
	<polygon class="st0" points="167.8,0.3 55.9,0.3 34.4,39 189.3,39 	"/>
	<polygon class="st1" points="189.3,39 34.4,39 0,100.9 55.1,200.1 168.6,200.1 223.7,100.9 	"/>
</g>
<path class="st2" d="M115.7,7.9c-1.3,0-2.8,1-3.4,2.7c-0.1,0-0.2,0-0.4,0c-0.1,0-0.2,0-0.4,0c-0.5-1.7-2.2-2.7-3.6-2.7
	c-1.2,0-2.1,0.8-2.3,2.1c-0.1,0.4,0.2,0.7,0.5,0.7c0.4,0.1,0.7-0.2,0.7-0.5c0.1-0.7,0.4-1,1-1c0.9,0,2.1,0.8,2.4,1.9
	c-0.2,0.1-0.4,0.3-0.5,0.4c-0.7,0.7-1.2,1.7-1.5,2.3l-0.1,0.1c-0.3,0.5-0.5,1.1-0.7,1.6c-1.2,0.7-2.4,1.5-3.3,2.4
	c-1.2,1.2-1.8,2.3-1.7,3.4c0,0.9,0.5,1.8,1.4,2.6c0.9,0.8,1.8,1,2.7,0.8c0.1,0.3,0.2,0.6,0.3,0.9c1.4,3.5,4.3,4.8,4.4,4.8l0.2,0.1
	l0.2-0.1c0.1,0,1.4-0.5,2.7-1.8c0.9-0.9,1.8-2.2,2.4-3.9c0,0,0,0,0,0c0.7,0.2,1.7,0.3,2.9-0.7c0.1-0.1,0.2-0.2,0.3-0.3
	c0.9-0.9,1.3-2,1-3.2c-0.5-1.9-2.6-3.7-4.8-5c-0.2-0.7-0.5-1.4-0.8-2.1c-0.6-1.4-1.3-2.1-2-2.6c0.3-1.1,1.3-1.8,2.1-1.8
	c0.5,0,0.8,0.4,0.9,1c0,0.4,0.4,0.6,0.7,0.6c0.1,0,0.3-0.1,0.4-0.2c0.1-0.1,0.2-0.3,0.2-0.6C117.6,8.5,116.6,7.9,115.7,7.9z
	 M119.9,20.9c0.2,0.8-0.1,1.5-0.9,2.1c-0.8,0.6-1.3,0.6-1.6,0.5c0,0-0.1,0-0.1-0.1c-0.4-0.2-0.8-0.5-1.2-1c-0.3-0.3-0.5-0.7-0.8-1.1
	c-0.4-0.7-0.7-1.4-1.1-2.2c-0.2-0.6-0.5-1.2-0.7-1.7c-0.3-0.8-0.5-1.5-0.7-2.2l0,0c1.2,0.5,2.7,1.3,4,2.3
	C118.4,18.6,119.6,19.8,119.9,20.9z M104.7,22.9c-0.6-0.5-0.9-1.1-0.9-1.6c0-0.7,0.4-1.6,1.3-2.4c0.5-0.5,1.1-1,1.8-1.4
	c1.4-0.9,2.9-1.7,4-2.2l0,0c-0.2,0.6-0.4,1.3-0.7,2.2c-0.2,0.6-0.4,1.1-0.7,1.7c-0.3,0.8-0.7,1.5-1.1,2.2c-0.3,0.4-0.6,0.8-0.9,1.2
	c-0.1,0.1-0.1,0.2-0.2,0.2c-0.4,0.3-0.7,0.6-1,0.7C105.8,23.6,105.3,23.4,104.7,22.9z M111.6,17.5l0.5,0c0.2,0.6,0.4,1.1,0.6,1.7
	l-1.8,0C111.2,18.6,111.4,18,111.6,17.5z M109.9,21.4l3.8,0c0.3,0.6,0.7,1.2,1.1,1.7l-6.1-0.1C109.2,22.6,109.6,22,109.9,21.4z
	 M114.2,27l-5,0c-0.4-0.5-0.7-1.1-1-1.7l7.1,0.1C115,26,114.6,26.5,114.2,27z M114.3,14.1c0.1,0.2,0.2,0.4,0.3,0.6
	c-0.9-0.5-1.8-0.8-2.3-1c-0.1-0.1-0.2-0.1-0.4-0.1c-0.1,0-0.2,0-0.4,0.1c-0.6,0.2-1.3,0.5-2.2,0.9c0,0,0-0.1,0-0.1l0.1-0.1
	c0.2-0.5,0.6-1.4,1.2-2c0.4-0.4,0.8-0.6,1.2-0.5C112.9,11.8,113.7,12.6,114.3,14.1z"/>
<text transform="matrix(1 0 0 1 32.5238 63.5181)" class="st3 st4 st5">Adobe Photoshop Basics</text>
<rect x="22.5" y="76.8" class="st6" width="174.7" height="51.1"/>
<text transform="matrix(1 0 0 1 26.1259 85.8794)"><tspan x="0" y="0" class="st7 st8 st9">Photoshop is an essential tool in  </tspan><tspan x="0.3" y="13.2" class="st7 st8 st9">the creative realm. From editing  </tspan><tspan x="13.8" y="26.4" class="st7 st8 st9">photos to making beautiful  </tspan><tspan x="3.7" y="39.6" class="st7 st8 st9">compositions, it is a great tool! </tspan></text>
<g>
	<path class="st0" d="M83.4,189.3c-7.2,0-13-5.8-13-13s5.8-13,13-13c7.2,0,13,5.8,13,13S90.6,189.3,83.4,189.3z M83.4,166
		c-5.7,0-10.3,4.6-10.3,10.3c0,5.7,4.6,10.3,10.3,10.3c5.7,0,10.3-4.6,10.3-10.3C93.7,170.6,89.1,166,83.4,166z"/>
	<g>
		<path class="st0" d="M81.3,170.8c0-1.2,1-2.2,2.1-2.2c1.2,0,2.2,0.9,2.2,2.1c0,1.2-0.9,2.2-2.2,2.2
			C82.2,172.9,81.3,172,81.3,170.8z M81.6,183.9v-10h3.7v10H81.6z"/>
	</g>
</g>
<g>
	<path class="st10" d="M142.7,161.5h-12.9c-1.1,0-2.1,0.6-2.7,1.6l-6.5,11.8c-0.5,0.9-0.5,2,0,3l6.4,11.6c0.5,1,1.6,1.6,2.7,1.6
		h13.1c1.1,0,2.1-0.6,2.7-1.6l6.4-11.6c0.5-0.9,0.5-2,0-3l-6.5-11.8C144.8,162.1,143.8,161.5,142.7,161.5z"/>
	<g>
		<g>
			<path class="st11" d="M133.2,167.4l-0.9,0.9c-0.3,0.3-0.4,0.7-0.4,1.1c0,0.4,0.1,0.8,0.4,1.1l5.9,5.9l-5.9,5.9
				c-0.3,0.3-0.4,0.7-0.4,1.1c0,0.4,0.1,0.8,0.4,1.1l0.9,0.9c0.3,0.3,0.7,0.5,1.1,0.5c0.4,0,0.8-0.2,1.1-0.5l7.8-7.8
				c0.3-0.3,0.5-0.7,0.5-1.1c0-0.4-0.2-0.8-0.5-1.1l-7.8-7.8c-0.3-0.3-0.7-0.4-1.1-0.4C133.9,166.9,133.5,167.1,133.2,167.4
				L133.2,167.4z M133.2,167.4"/>
		</g>
	</g>
</g>
<text transform="matrix(1 0 0 1 72.0369 146.1977)" class="st0 st12 st5">2 badges earned</text>
<g>
	<polygon class="st0" points="167.8,0 55.9,0 34.4,38.7 189.3,38.7 	"/>
	<polygon class="st1" points="189.3,38.7 34.4,38.7 0,100.6 55.1,199.8 168.6,199.8 223.7,100.6 	"/>
</g>
<path class="st2" d="M115.7,7.6c-1.3,0-2.8,1-3.4,2.7c-0.1,0-0.2,0-0.4,0c-0.1,0-0.2,0-0.4,0c-0.5-1.7-2.2-2.7-3.6-2.7
	c-1.2,0-2.1,0.8-2.3,2.1c-0.1,0.4,0.2,0.7,0.5,0.7c0.4,0.1,0.7-0.2,0.7-0.5c0.1-0.7,0.4-1,1-1c0.9,0,2.1,0.8,2.4,1.9
	c-0.2,0.1-0.4,0.3-0.5,0.4c-0.7,0.7-1.2,1.7-1.5,2.3l-0.1,0.1c-0.3,0.5-0.5,1.1-0.7,1.6c-1.2,0.7-2.4,1.5-3.3,2.4
	c-1.2,1.2-1.8,2.3-1.7,3.4c0,0.9,0.5,1.8,1.4,2.6c0.9,0.8,1.8,1,2.7,0.8c0.1,0.3,0.2,0.6,0.3,0.9c1.4,3.5,4.3,4.8,4.4,4.8l0.2,0.1
	l0.2-0.1c0.1,0,1.4-0.5,2.7-1.8c0.9-0.9,1.8-2.2,2.4-3.9c0,0,0,0,0,0c0.7,0.2,1.7,0.3,2.9-0.7c0.1-0.1,0.2-0.2,0.3-0.3
	c0.9-0.9,1.3-2,1-3.2c-0.5-1.9-2.6-3.7-4.8-5c-0.2-0.7-0.5-1.4-0.8-2.1c-0.6-1.4-1.3-2.1-2-2.6c0.3-1.1,1.3-1.8,2.1-1.8
	c0.5,0,0.8,0.4,0.9,1c0,0.4,0.4,0.6,0.7,0.6c0.1,0,0.3-0.1,0.4-0.2c0.1-0.1,0.2-0.3,0.2-0.6C117.6,8.2,116.6,7.6,115.7,7.6z
	 M119.9,20.6c0.2,0.8-0.1,1.5-0.9,2.1c-0.8,0.6-1.3,0.6-1.6,0.5c0,0-0.1,0-0.1-0.1c-0.4-0.2-0.8-0.5-1.2-1c-0.3-0.3-0.5-0.7-0.8-1.1
	c-0.4-0.7-0.7-1.4-1.1-2.2c-0.2-0.6-0.5-1.2-0.7-1.7c-0.3-0.8-0.5-1.5-0.7-2.2l0,0c1.2,0.5,2.7,1.3,4,2.3
	C118.4,18.3,119.6,19.5,119.9,20.6z M104.7,22.7c-0.6-0.5-0.9-1.1-0.9-1.6c0-0.7,0.4-1.6,1.3-2.4c0.5-0.5,1.1-1,1.8-1.4
	c1.4-0.9,2.9-1.7,4-2.2l0,0c-0.2,0.6-0.4,1.3-0.7,2.2c-0.2,0.6-0.4,1.1-0.7,1.7c-0.3,0.8-0.7,1.5-1.1,2.2c-0.3,0.4-0.6,0.8-0.9,1.2
	c-0.1,0.1-0.1,0.2-0.2,0.2c-0.4,0.3-0.7,0.6-1,0.7C105.8,23.3,105.3,23.2,104.7,22.7z M111.6,17.2l0.5,0c0.2,0.6,0.4,1.1,0.6,1.7
	l-1.8,0C111.2,18.3,111.4,17.7,111.6,17.2z M109.9,21.1l3.8,0c0.3,0.6,0.7,1.2,1.1,1.7l-6.1-0.1C109.2,22.3,109.6,21.7,109.9,21.1z
	 M114.2,26.8l-5,0c-0.4-0.5-0.7-1.1-1-1.7l7.1,0.1C115,25.7,114.6,26.3,114.2,26.8z M114.3,13.8c0.1,0.2,0.2,0.4,0.3,0.6
	c-0.9-0.5-1.8-0.8-2.3-1c-0.1-0.1-0.2-0.1-0.4-0.1c-0.1,0-0.2,0-0.4,0.1c-0.6,0.2-1.3,0.5-2.2,0.9c0,0,0-0.1,0-0.1l0.1-0.1
	c0.2-0.5,0.6-1.4,1.2-2c0.4-0.4,0.8-0.6,1.2-0.5C112.9,11.6,113.7,12.3,114.3,13.8z"/>
<text transform="matrix(1 0 0 1 66.0851 63.2388)" class="st3 st4 st13">Design an Icon</text>
<rect x="22.5" y="75.4" class="st6" width="174.7" height="51.1"/>
<text transform="matrix(1 0 0 1 26.1259 84.4703)"><tspan x="0" y="0" class="st7 st8 st9">Icons are essential in all aspects </tspan><tspan x="-2.4" y="13.2" class="st7 st8 st9">of design. In this project, you can </tspan><tspan x="-3.4" y="26.4" class="st7 st8 st9">use illustrator to create an icon of </tspan><tspan x="57.8" y="39.6" class="st7 st8 st9">your own.</tspan></text>
<g>
	<path class="st0" d="M83.4,189c-7.2,0-13-5.8-13-13c0-7.2,5.8-13,13-13c7.2,0,13,5.8,13,13C96.5,183.2,90.6,189,83.4,189z
		 M83.4,165.7c-5.7,0-10.3,4.6-10.3,10.3c0,5.7,4.6,10.3,10.3,10.3c5.7,0,10.3-4.6,10.3-10.3C93.7,170.3,89.1,165.7,83.4,165.7z"/>
	<g>
		<path class="st0" d="M81.3,170.5c0-1.2,1-2.2,2.1-2.2c1.2,0,2.2,0.9,2.2,2.1c0,1.2-0.9,2.2-2.2,2.2
			C82.2,172.7,81.3,171.7,81.3,170.5z M81.6,183.6v-10h3.7v10H81.6z"/>
	</g>
</g>
<g>
	<path class="st10" d="M142.7,161.3h-12.9c-1.1,0-2.1,0.6-2.7,1.6l-6.5,11.8c-0.5,0.9-0.5,2,0,3l6.4,11.6c0.5,1,1.6,1.6,2.7,1.6
		h13.1c1.1,0,2.1-0.6,2.7-1.6l6.4-11.6c0.5-0.9,0.5-2,0-3l-6.5-11.8C144.8,161.9,143.8,161.3,142.7,161.3z"/>
	<g>
		<g>
			<path class="st11" d="M133.2,167.1l-0.9,0.9c-0.3,0.3-0.4,0.7-0.4,1.1c0,0.4,0.1,0.8,0.4,1.1l5.9,5.9l-5.9,5.9
				c-0.3,0.3-0.4,0.7-0.4,1.1c0,0.4,0.1,0.8,0.4,1.1l0.9,0.9c0.3,0.3,0.7,0.5,1.1,0.5c0.4,0,0.8-0.2,1.1-0.5l7.8-7.8
				c0.3-0.3,0.5-0.7,0.5-1.1c0-0.4-0.2-0.8-0.5-1.1l-7.8-7.8c-0.3-0.3-0.7-0.4-1.1-0.4C133.9,166.7,133.5,166.8,133.2,167.1
				L133.2,167.1z M133.2,167.1"/>
		</g>
	</g>
</g>
</svg>
