<?xml version="1.0" encoding="utf-8"?>
<!-- Generator: Adobe Illustrator 19.1.0, SVG Export Plug-In . SVG Version: 6.00 Build 0)  -->
<svg version="1.1" id="Layer_1" xmlns="http://www.w3.org/2000/svg" xmlns:xlink="http://www.w3.org/1999/xlink" x="0px" y="0px"
	 viewBox="-369.5 181 223.7 200" style="enable-background:new -369.5 181 223.7 200;" xml:space="preserve">
<style type="text/css">
	.st0{fill:#8BC53F;}
	.st1{fill:#FFFFFF;}
	.st2{fill:#ECEEEE;}
	.st3{enable-background:new    ;}
	.st4{fill:#767676;}
	.st5{fill:none;}
	.st6{fill:#231F20;}
	.st7{fill:#39A5E1;}
	.st8{fill:#EBEDED;}
</style>
<g>
	<polygon class="st0" points="-201.7,181.2 -313.6,181.2 -335.1,220 -180.2,220 	"/>
	<polygon class="st1" points="-180.2,220 -335.1,220 -369.5,281.9 -314.4,381 -200.9,381 -145.8,281.9 	"/>
</g>
<path class="st2" d="M-253.8,188.9c-1.3,0-2.8,1-3.4,2.7c-0.1,0-0.2,0-0.4,0c-0.1,0-0.2,0-0.4,0c-0.5-1.7-2.2-2.7-3.6-2.7
	c-1.2,0-2.1,0.8-2.3,2.1c-0.1,0.4,0.2,0.7,0.5,0.7c0.4,0.1,0.7-0.2,0.7-0.5c0.1-0.7,0.4-1,1-1c0.9,0,2.1,0.8,2.4,1.9
	c-0.2,0.1-0.4,0.3-0.5,0.4c-0.7,0.7-1.2,1.7-1.5,2.3l-0.1,0.1c-0.3,0.5-0.5,1.1-0.7,1.6c-1.2,0.7-2.4,1.5-3.3,2.4
	c-1.2,1.2-1.8,2.3-1.7,3.4c0,0.9,0.5,1.8,1.4,2.6s1.8,1,2.7,0.8c0.1,0.3,0.2,0.6,0.3,0.9c1.4,3.5,4.3,4.8,4.4,4.8l0.2,0.1l0.2-0.1
	c0.1,0,1.4-0.5,2.7-1.8c0.9-0.9,1.8-2.2,2.4-3.9l0,0c0.7,0.2,1.7,0.3,2.9-0.7c0.1-0.1,0.2-0.2,0.3-0.3c0.9-0.9,1.3-2,1-3.2
	c-0.5-1.9-2.6-3.7-4.8-5c-0.2-0.7-0.5-1.4-0.8-2.1c-0.6-1.4-1.3-2.1-2-2.6c0.3-1.1,1.3-1.8,2.1-1.8c0.5,0,0.8,0.4,0.9,1
	c0,0.4,0.4,0.6,0.7,0.6c0.1,0,0.3-0.1,0.4-0.2c0.1-0.1,0.2-0.3,0.2-0.6C-251.9,189.4-252.9,188.9-253.8,188.9z M-249.6,201.9
	c0.2,0.8-0.1,1.5-0.9,2.1s-1.3,0.6-1.6,0.5c0,0-0.1,0-0.1-0.1c-0.4-0.2-0.8-0.5-1.2-1c-0.3-0.3-0.5-0.7-0.8-1.1
	c-0.4-0.7-0.7-1.4-1.1-2.2c-0.2-0.6-0.5-1.2-0.7-1.7c-0.3-0.8-0.5-1.5-0.7-2.2l0,0c1.2,0.5,2.7,1.3,4,2.3
	C-251.1,199.6-249.9,200.8-249.6,201.9z M-264.8,203.9c-0.6-0.5-0.9-1.1-0.9-1.6c0-0.7,0.4-1.6,1.3-2.4c0.5-0.5,1.1-1,1.8-1.4
	c1.4-0.9,2.9-1.7,4-2.2l0,0c-0.2,0.6-0.4,1.3-0.7,2.2c-0.2,0.6-0.4,1.1-0.7,1.7c-0.3,0.8-0.7,1.5-1.1,2.2c-0.3,0.4-0.6,0.8-0.9,1.2
	c-0.1,0.1-0.1,0.2-0.2,0.2c-0.4,0.3-0.7,0.6-1,0.7C-263.7,204.6-264.2,204.4-264.8,203.9z M-257.9,198.4h0.5
	c0.2,0.6,0.4,1.1,0.6,1.7h-1.8C-258.3,199.6-258.1,199-257.9,198.4z M-259.6,202.3h3.8c0.3,0.6,0.7,1.2,1.1,1.7l-6.1-0.1
	C-260.3,203.5-259.9,203-259.6,202.3z M-255.3,208h-5c-0.4-0.5-0.7-1.1-1-1.7l7.1,0.1C-254.5,206.9-254.9,207.5-255.3,208z
	 M-255.2,195c0.1,0.2,0.2,0.4,0.3,0.6c-0.9-0.5-1.8-0.8-2.3-1c-0.1-0.1-0.2-0.1-0.4-0.1c-0.1,0-0.2,0-0.4,0.1
	c-0.6,0.2-1.3,0.5-2.2,0.9v-0.1l0.1-0.1c0.2-0.5,0.6-1.4,1.2-2c0.4-0.4,0.8-0.6,1.2-0.5C-256.6,192.8-255.8,193.6-255.2,195z"/>
<g class="st3">
	<path class="st4" d="M-336.9,244.5l3.4-8.7h2.9l3.4,8.7h-2.7l-0.6-1.7h-3.5l-0.6,1.7H-336.9z M-331,241.1l-1.1-3.6l0,0l-1.2,3.6
		H-331z"/>
	<path class="st4" d="M-321.9,243.6L-321.9,243.6c-0.4,0.7-1.2,1.1-2.1,1.1c-1.7,0-2.5-1.7-2.5-3.2c0-1.6,0.8-3.2,2.6-3.2
		c0.8,0,1.5,0.3,2,0.9l0,0v-3.3h2.3v8.7h-2.2L-321.9,243.6z M-324.1,241.5c0,0.8,0.2,1.9,1.1,1.9s1.1-1.1,1.1-1.9
		c0-0.8-0.1-1.9-1.1-1.9S-324.1,240.7-324.1,241.5z"/>
	<path class="st4" d="M-311.5,241.5c0,2.2-1.6,3.2-3.5,3.2s-3.5-1-3.5-3.2s1.6-3.2,3.5-3.2S-311.5,239.3-311.5,241.5z M-315,243.3
		c1,0,1.2-1,1.2-1.9s-0.2-1.9-1.2-1.9s-1.2,1-1.2,1.9S-315.9,243.3-315,243.3z"/>
	<path class="st4" d="M-310.3,235.8h2.3v3.3l0,0c0.4-0.5,1.2-0.8,1.8-0.8c1.8,0,2.7,1.4,2.7,3.1c0,1.8-0.8,3.3-2.8,3.3
		c-0.7,0-1.5-0.5-1.7-1.1l0,0l-0.1,0.9h-2.2L-310.3,235.8L-310.3,235.8z M-308,241.6c0,0.7,0.2,1.8,1,1.8c1,0,1.2-1.1,1.2-1.9
		c0-0.7-0.1-1.8-1.1-1.8C-307.9,239.6-308,240.8-308,241.6z"/>
	<path class="st4" d="M-300.4,241.9c0,0.8,0.2,1.5,1,1.5c0.6,0,1-0.3,1.1-0.9h2.1c-0.1,0.8-0.6,1.3-1.1,1.7
		c-0.5,0.3-1.2,0.5-1.9,0.5c-2.4,0-3.4-1-3.4-3.4c0-1.9,1.4-3,3.2-3c2.4,0,3.2,1.4,3.2,3.6L-300.4,241.9L-300.4,241.9z
		 M-298.3,240.7c0-0.3-0.1-0.6-0.3-0.9c-0.2-0.3-0.4-0.4-0.8-0.4c-0.8,0-1,0.6-1,1.3L-298.3,240.7L-298.3,240.7z"/>
	<path class="st4" d="M-290.8,244.5v-8.7h4c2.1,0,3.5,0.7,3.5,2.8s-1.4,2.8-3.5,2.8h-1.6v3.1L-290.8,244.5L-290.8,244.5z
		 M-287.1,239.7c0.9,0,1.3-0.5,1.3-1.1s-0.4-1.1-1.3-1.1h-1.2v2.2L-287.1,239.7L-287.1,239.7z"/>
	<path class="st4" d="M-282.2,244.5v-8.7h2.3v3.3c0.5-0.6,1.1-0.8,1.9-0.8c1.3,0,2.3,0.8,2.3,2.2v4h-2.3V241c0-0.6-0.2-1.2-0.9-1.2
		c-1.1,0-1,1.2-1,1.3v3.5h-2.3V244.5z"/>
	<path class="st4" d="M-267.5,241.5c0,2.2-1.6,3.2-3.5,3.2s-3.5-1-3.5-3.2s1.6-3.2,3.5-3.2S-267.5,239.3-267.5,241.5z M-271,243.3
		c1,0,1.2-1,1.2-1.9s-0.2-1.9-1.2-1.9s-1.2,1-1.2,1.9S-271.9,243.3-271,243.3z"/>
	<path class="st4" d="M-265.6,238.5v-0.9l2.3-0.9v1.8h1.3v1.4h-1.3v2.4c0,0.2-0.1,0.9,0.4,0.9c0.3,0,0.6,0,0.9,0v1.4
		c-0.5,0.1-0.9,0.1-1.2,0.1c-1.5,0-2.5-0.2-2.4-2.1v-2.7h-1.2v-1.4H-265.6z"/>
	<path class="st4" d="M-254.1,241.5c0,2.2-1.6,3.2-3.5,3.2s-3.5-1-3.5-3.2s1.6-3.2,3.5-3.2S-254.1,239.3-254.1,241.5z M-257.6,243.3
		c1,0,1.2-1,1.2-1.9s-0.2-1.9-1.2-1.9s-1.2,1-1.2,1.9S-258.6,243.3-257.6,243.3z"/>
	<path class="st4" d="M-249.7,240.3c0-0.2,0-0.4-0.1-0.5s-0.3-0.2-0.6-0.2s-0.5,0.2-0.5,0.5c0,0.4,0.9,0.4,2.4,0.9
		c0.7,0.2,1.2,0.7,1.2,1.7c0,1.6-1.5,2-2.9,2c-1.5,0-2.9-0.3-2.9-2.1h2.2c0,0.2,0,0.4,0.2,0.5c0.1,0.2,0.3,0.3,0.5,0.3
		c0.4,0,0.8-0.2,0.8-0.6c0-1.1-3.6-0.4-3.6-2.6c0-1.5,1.6-1.9,2.8-1.9c1.4,0,2.7,0.4,2.8,2L-249.7,240.3L-249.7,240.3z"/>
	<path class="st4" d="M-246.2,244.5v-8.7h2.3v3.3c0.5-0.6,1.1-0.8,1.9-0.8c1.3,0,2.3,0.8,2.3,2.2v4h-2.3V241c0-0.6-0.2-1.2-0.9-1.2
		c-1.1,0-1,1.2-1,1.3v3.5h-2.3V244.5z"/>
	<path class="st4" d="M-231.5,241.5c0,2.2-1.6,3.2-3.5,3.2s-3.5-1-3.5-3.2s1.6-3.2,3.5-3.2S-231.5,239.3-231.5,241.5z M-235,243.3
		c1,0,1.2-1,1.2-1.9s-0.2-1.9-1.2-1.9s-1.2,1-1.2,1.9S-235.9,243.3-235,243.3z"/>
	<path class="st4" d="M-228,239.3L-228,239.3c0.5-0.7,1.1-1,2-1c1.8,0,2.6,1.5,2.6,3.1c0,1.8-0.9,3.3-2.8,3.3
		c-0.7,0-1.3-0.4-1.7-0.9l0,0v3h-2.3v-8.3h2.3v0.8H-228z M-228,241.5c0,0.8,0.1,1.9,1.1,1.9s1.1-1.1,1.1-1.9s-0.1-1.9-1.1-1.9
		S-228,240.7-228,241.5z"/>
	<path class="st4" d="M-218.1,244.5v-8.7h4.1c1.6,0,3,0.7,3,2.3c0,1.1-0.9,1.7-1.9,1.9l0,0c1.2,0.2,2.1,0.9,2.1,2.1
		c0,2.5-3.2,2.4-3.3,2.4H-218.1z M-215.7,239.3h1.2c0.6,0,1.1-0.3,1.1-0.9c0-0.5-0.4-0.8-1-0.8h-1.3V239.3z M-214.3,242.8
		c0.6,0,1-0.4,1-0.9s-0.3-0.9-0.9-1h-1.6v1.9H-214.3z"/>
	<path class="st4" d="M-205.8,244.5c0-0.2,0-0.4,0-0.8l0,0c-0.3,0.4-0.8,1-1.9,1c-1.4,0-2.2-0.8-2.1-2c0-1.5,1.4-2.1,3.3-2.1h0.7
		c0-0.5,0.1-1.3-0.8-1.3c-0.6,0-0.7,0.6-0.7,0.9h-2.1c0-0.9,0.4-1.3,1-1.6s1.4-0.4,2.1-0.4c1.2,0,2.7,0.5,2.7,1.9v3.1
		c0,0.3,0,0.5,0.1,1.2h-2.3V244.5z M-206.9,243.3c1,0,1.1-0.9,1.1-1.7c-0.5,0-0.9,0-1.2,0.1c-0.3,0.2-0.6,0.4-0.6,0.8
		C-207.7,243-207.4,243.3-206.9,243.3z"/>
	<path class="st4" d="M-199,240.3c0-0.2,0-0.4-0.1-0.5s-0.3-0.2-0.6-0.2s-0.5,0.2-0.5,0.5c0,0.4,0.9,0.4,2.4,0.9
		c0.7,0.2,1.2,0.7,1.2,1.7c0,1.6-1.5,2-2.9,2c-1.5,0-2.9-0.3-2.9-2.1h2.2c0,0.2,0,0.4,0.2,0.5c0.1,0.2,0.3,0.3,0.5,0.3
		c0.4,0,0.8-0.2,0.8-0.6c0-1.1-3.6-0.4-3.6-2.6c0-1.5,1.6-1.9,2.8-1.9c1.4,0,2.7,0.4,2.8,2L-199,240.3L-199,240.3z"/>
	<path class="st4" d="M-195.4,237.4v-1.6h2.3v1.6H-195.4z M-195.4,244.5v-6h2.3v6H-195.4z"/>
	<path class="st4" d="M-187.7,240.6c0-0.3,0-0.5-0.2-0.7c-0.1-0.2-0.4-0.3-0.7-0.3c-0.8,0-0.9,1.2-0.9,1.9c0,0.6,0,1.9,0.9,1.9
		c0.8-0.1,0.9-0.7,0.9-1.2h2.3c0,0.9-0.4,1.5-0.9,1.9c-0.6,0.4-1.3,0.6-2.1,0.6c-2.3,0-3.3-1.1-3.3-3.2c0-2.2,1.5-3.2,3.3-3.2
		c1.5,0,3,0.6,3.1,2.3H-187.7z"/>
	<path class="st4" d="M-181,240.3c0-0.2,0-0.4-0.1-0.5s-0.3-0.2-0.6-0.2s-0.5,0.2-0.5,0.5c0,0.4,0.9,0.4,2.4,0.9
		c0.7,0.2,1.2,0.7,1.2,1.7c0,1.6-1.5,2-2.9,2c-1.5,0-2.9-0.3-2.9-2.1h2.2c0,0.2,0,0.4,0.2,0.5c0.1,0.2,0.3,0.3,0.5,0.3
		c0.4,0,0.8-0.2,0.8-0.6c0-1.1-3.6-0.4-3.6-2.6c0-1.5,1.6-1.9,2.8-1.9c1.4,0,2.7,0.4,2.8,2L-181,240.3L-181,240.3z"/>
</g>
<rect x="-347" y="257.7" class="st5" width="174.7" height="51.1"/>
<g class="st3">
	<path class="st6" d="M-343,266.1h1.1v-5.8h-1.1v-0.7h3.1c1.5,0,2.9,0.3,2.9,2.1s-1.4,2.2-2.9,2.2h-1.1v2.2h1.3v0.7h-3.4v-0.7H-343z
		 M-341,263.2h1.1c0.9,0,1.9-0.1,1.9-1.5s-0.9-1.4-1.9-1.4h-1.1V263.2z"/>
	<path class="st6" d="M-336.2,266.1h0.9v-5.8h-0.9v-0.7h1.8v3.1l0,0c0.2-0.6,0.9-1,1.7-1c1.3,0,1.8,0.6,1.8,1.8v2.6h0.9v0.7h-2.6
		v-0.7h0.9v-2.4c0-0.8-0.3-1.3-1.2-1.3c-1,0-1.4,0.7-1.4,1.6v2.1h0.9v0.7h-2.6v-0.7H-336.2z"/>
	<path class="st6" d="M-326.9,261.7c1.6,0,2.6,1,2.6,2.6s-1,2.6-2.6,2.6s-2.7-1-2.7-2.6C-329.5,262.7-328.5,261.7-326.9,261.7z
		 M-326.9,266.3c1.1,0,1.7-0.9,1.7-1.9s-0.5-1.9-1.7-1.9c-1.1,0-1.7,0.9-1.7,1.9S-328,266.3-326.9,266.3z"/>
	<path class="st6" d="M-320.1,262.5h-1.6v2.9c0,0.4,0.1,0.8,0.6,0.8s0.6-0.5,0.6-0.9h0.8c0,1-0.4,1.7-1.5,1.7
		c-1.3,0-1.3-0.9-1.3-1.9v-2.5h-1v-0.7h1v-1.1l0.9-0.3v1.4h1.6v0.6H-320.1z"/>
	<path class="st6" d="M-316.5,261.7c1.6,0,2.6,1,2.6,2.6s-1,2.6-2.6,2.6s-2.7-1-2.7-2.6C-319.1,262.7-318.1,261.7-316.5,261.7z
		 M-316.5,266.3c1.1,0,1.7-0.9,1.7-1.9s-0.5-1.9-1.7-1.9c-1.1,0-1.7,0.9-1.7,1.9S-317.6,266.3-316.5,266.3z"/>
	<path class="st6" d="M-312.8,266.8v-1.7h0.7c0,1,0.8,1.2,1.6,1.2c0.4,0,1-0.2,1-0.8c0-0.7-0.7-0.7-1.3-0.7c-0.9-0.2-2-0.3-2-1.4
		s1-1.6,1.9-1.6c0.6,0,1.3,0.2,1.5,0.7l0,0v-0.6h0.7v1.7h-0.7c0-0.9-0.6-1.1-1.4-1.1c-0.5,0-1.2,0.1-1.2,0.8c0,0.6,0.9,0.6,1.5,0.7
		c0.9,0.2,1.9,0.3,1.9,1.4c0,1.2-1.1,1.6-2.1,1.6c-0.6,0-1.3-0.2-1.5-0.8l0,0v0.7h-0.6V266.8z"/>
	<path class="st6" d="M-307.5,266.1h0.9v-5.8h-0.9v-0.7h1.8v3.1l0,0c0.2-0.6,0.9-1,1.7-1c1.3,0,1.8,0.6,1.8,1.8v2.6h0.9v0.7h-2.6
		v-0.7h0.9v-2.4c0-0.8-0.3-1.3-1.2-1.3c-1,0-1.4,0.7-1.4,1.6v2.1h0.9v0.7h-2.6v-0.7H-307.5z"/>
	<path class="st6" d="M-298.1,261.7c1.6,0,2.6,1,2.6,2.6s-1,2.6-2.6,2.6s-2.7-1-2.7-2.6C-300.8,262.7-299.7,261.7-298.1,261.7z
		 M-298.1,266.3c1.1,0,1.7-0.9,1.7-1.9s-0.5-1.9-1.7-1.9c-1.1,0-1.7,0.9-1.7,1.9S-299.3,266.3-298.1,266.3z"/>
	<path class="st6" d="M-294.8,268h0.9v-5.4h-0.9v-0.7h1.8v1l0,0c0.3-0.6,0.9-1.1,1.7-1.1c1.6,0,2.5,1,2.5,2.6s-0.9,2.6-2.5,2.6
		c-0.8,0-1.4-0.4-1.7-1.1l0,0v2.1h0.9v0.7h-2.7L-294.8,268L-294.8,268z M-291.3,266.3c1,0,1.5-0.8,1.5-1.9c0-1-0.5-1.9-1.5-1.9
		c-1.2,0-1.8,0.9-1.8,1.9C-293,265.5-292.5,266.3-291.3,266.3z"/>
	<path class="st6" d="M-285,266.1h0.9v-3.6h-0.9v-0.7h1.8v4.3h0.9v0.7h-2.6L-285,266.1L-285,266.1z M-283.2,260.7h-1v-1h1V260.7z"/>
	<path class="st6" d="M-281.7,266.8v-1.7h0.7c0,1,0.8,1.2,1.6,1.2c0.4,0,1-0.2,1-0.8c0-0.7-0.7-0.7-1.3-0.7c-0.9-0.2-2-0.3-2-1.4
		s1-1.6,1.9-1.6c0.6,0,1.3,0.2,1.5,0.7l0,0v-0.6h0.7v1.7h-0.7c0-0.9-0.6-1.1-1.4-1.1c-0.5,0-1.2,0.1-1.2,0.8c0,0.6,0.9,0.6,1.5,0.7
		c0.9,0.2,1.9,0.3,1.9,1.4c0,1.2-1.1,1.6-2.1,1.6c-0.6,0-1.3-0.2-1.5-0.8l0,0v0.7h-0.6V266.8z"/>
	<path class="st6" d="M-269.6,265.8L-269.6,265.8c-0.2,0.8-0.9,1.1-1.7,1.1c-1,0-2-0.4-2-1.6c0-1.5,1.5-1.6,2.7-1.6h1v-0.3
		c0-0.8-0.4-1.1-1.2-1.1c-0.7,0-1.2,0.1-1.3,0.9h-1c0.1-1.2,1.1-1.6,2.2-1.6c1.2,0,2.2,0.3,2.2,1.6v2.9h0.9v0.7h-1.8L-269.6,265.8
		L-269.6,265.8z M-271.2,266.3c1.1,0,1.6-0.8,1.6-1.8h-0.8c-0.6,0-1.9,0-1.9,0.9C-272.3,266.1-271.7,266.3-271.2,266.3z"/>
	<path class="st6" d="M-267.1,266.1h0.9v-3.6h-0.9v-0.7h1.8v0.9l0,0c0.2-0.6,0.9-1,1.7-1c1.3,0,1.8,0.6,1.8,1.8v2.6h0.9v0.7h-2.6
		v-0.7h0.9v-2.4c0-0.8-0.3-1.3-1.2-1.3c-1,0-1.4,0.7-1.4,1.6v2.1h0.9v0.7h-2.6v-0.7H-267.1z"/>
	<path class="st6" d="M-256.3,264.6c0,1.2,0.6,1.7,1.8,1.7c0.6,0,1.4-0.3,1.4-1h0.8c0,1.2-1.3,1.7-2.4,1.7c-1.6,0-2.7-1-2.7-2.6
		s1-2.6,2.7-2.6c1.8,0,2.4,1.3,2.4,2.9h-4V264.6z M-253.1,263.9c-0.1-0.9-0.6-1.5-1.6-1.5c-0.9,0-1.6,0.5-1.6,1.5H-253.1z"/>
	<path class="st6" d="M-251.1,266.8v-1.7h0.7c0,1,0.8,1.2,1.6,1.2c0.4,0,1-0.2,1-0.8c0-0.7-0.7-0.7-1.3-0.7c-0.9-0.2-2-0.3-2-1.4
		s1-1.6,1.9-1.6c0.6,0,1.3,0.2,1.5,0.7l0,0v-0.6h0.7v1.7h-0.7c0-0.9-0.6-1.1-1.4-1.1c-0.5,0-1.2,0.1-1.2,0.8c0,0.6,0.9,0.6,1.5,0.7
		c0.9,0.2,1.9,0.3,1.9,1.4c0,1.2-1.1,1.6-2.1,1.6c-0.6,0-1.3-0.2-1.5-0.8l0,0v0.7h-0.6V266.8z"/>
	<path class="st6" d="M-245.6,266.8v-1.7h0.7c0,1,0.8,1.2,1.6,1.2c0.4,0,1-0.2,1-0.8c0-0.7-0.7-0.7-1.3-0.7c-0.9-0.2-2-0.3-2-1.4
		s1-1.6,1.9-1.6c0.6,0,1.3,0.2,1.5,0.7l0,0v-0.6h0.7v1.7h-0.7c0-0.9-0.6-1.1-1.4-1.1c-0.5,0-1.2,0.1-1.2,0.8c0,0.6,0.9,0.6,1.5,0.7
		c0.9,0.2,1.9,0.3,1.9,1.4c0,1.2-1.1,1.6-2.1,1.6c-0.6,0-1.3-0.2-1.5-0.8l0,0v0.7h-0.6V266.8z"/>
	<path class="st6" d="M-239.2,264.6c0,1.2,0.6,1.7,1.8,1.7c0.6,0,1.4-0.3,1.4-1h0.8c0,1.2-1.3,1.7-2.4,1.7c-1.6,0-2.7-1-2.7-2.6
		s1-2.6,2.7-2.6c1.8,0,2.4,1.3,2.4,2.9h-4V264.6z M-236,263.9c-0.1-0.9-0.6-1.5-1.6-1.5c-0.9,0-1.6,0.5-1.6,1.5H-236z"/>
	<path class="st6" d="M-234.1,266.1h0.9v-3.6h-0.9v-0.7h1.8v0.9l0,0c0.2-0.6,0.9-1,1.7-1c1.3,0,1.8,0.6,1.8,1.8v2.6h0.9v0.7h-2.6
		v-0.7h0.9v-2.4c0-0.8-0.3-1.3-1.2-1.3c-1,0-1.4,0.7-1.4,1.6v2.1h0.9v0.7h-2.6v-0.7H-234.1z"/>
	<path class="st6" d="M-224.1,262.5h-1.6v2.9c0,0.4,0.1,0.8,0.5,0.8c0.5,0,0.6-0.5,0.6-0.9h0.8c0,1-0.4,1.7-1.5,1.7
		c-1.3,0-1.3-0.9-1.3-1.9v-2.5h-1v-0.7h1v-1.1l0.9-0.3v1.4h1.6V262.5z"/>
	<path class="st6" d="M-223.3,266.1h0.9v-3.6h-0.9v-0.7h1.8v4.3h0.9v0.7h-2.6L-223.3,266.1L-223.3,266.1z M-221.5,260.7h-1v-1h1
		V260.7z"/>
	<path class="st6" d="M-216.4,265.8L-216.4,265.8c-0.2,0.8-0.9,1.1-1.7,1.1c-1,0-2-0.4-2-1.6c0-1.5,1.5-1.6,2.7-1.6h1v-0.3
		c0-0.8-0.4-1.1-1.2-1.1c-0.7,0-1.2,0.1-1.3,0.9h-1c0.1-1.2,1.1-1.6,2.2-1.6c1.2,0,2.2,0.3,2.2,1.6v2.9h0.9v0.7h-1.8L-216.4,265.8
		L-216.4,265.8z M-218,266.3c1.1,0,1.6-0.8,1.6-1.8h-0.8c-0.6,0-1.9,0-1.9,0.9C-219.1,266.1-218.5,266.3-218,266.3z"/>
	<path class="st6" d="M-214.1,266.1h0.9v-5.8h-0.9v-0.7h1.8v6.5h0.9v0.7h-2.6L-214.1,266.1L-214.1,266.1z"/>
	<path class="st6" d="M-204.6,262.5h-1.6v2.9c0,0.4,0.1,0.8,0.6,0.8s0.6-0.5,0.6-0.9h0.8c0,1-0.4,1.7-1.5,1.7
		c-1.3,0-1.3-0.9-1.3-1.9v-2.5h-1v-0.7h1v-1.1l0.9-0.3v1.4h1.6v0.6H-204.6z"/>
	<path class="st6" d="M-200.9,261.7c1.6,0,2.6,1,2.6,2.6s-1,2.6-2.6,2.6s-2.7-1-2.7-2.6C-203.6,262.7-202.5,261.7-200.9,261.7z
		 M-200.9,266.3c1.1,0,1.7-0.9,1.7-1.9s-0.5-1.9-1.7-1.9c-1.1,0-1.7,0.9-1.7,1.9S-202,266.3-200.9,266.3z"/>
	<path class="st6" d="M-194.8,261.7c1.6,0,2.6,1,2.6,2.6s-1,2.6-2.6,2.6s-2.7-1-2.7-2.6S-196.4,261.7-194.8,261.7z M-194.8,266.3
		c1.1,0,1.7-0.9,1.7-1.9s-0.5-1.9-1.7-1.9s-1.7,0.9-1.7,1.9S-195.9,266.3-194.8,266.3z"/>
	<path class="st6" d="M-191.5,266.1h0.9v-5.8h-0.9v-0.7h1.8v6.5h0.9v0.7h-2.6L-191.5,266.1L-191.5,266.1z"/>
	<path class="st6" d="M-185.3,266.1h0.9v-3.6h-0.9v-0.7h1.8v4.3h0.9v0.7h-2.6L-185.3,266.1L-185.3,266.1z M-183.6,260.7h-1v-1h1
		V260.7z"/>
	<path class="st6" d="M-182.2,266.1h0.9v-3.6h-0.9v-0.7h1.8v0.9l0,0c0.2-0.6,0.9-1,1.7-1c1.3,0,1.8,0.6,1.8,1.8v2.6h0.9v0.7h-2.6
		v-0.7h0.9v-2.4c0-0.8-0.3-1.3-1.2-1.3c-1,0-1.4,0.7-1.4,1.6v2.1h0.9v0.7h-2.6v-0.7H-182.2z"/>
</g>
<g class="st3">
	<path class="st6" d="M-339.4,275.7h-1.6v2.9c0,0.4,0.1,0.8,0.6,0.8s0.6-0.5,0.6-0.9h0.8c0,1-0.4,1.7-1.5,1.7
		c-1.3,0-1.3-0.9-1.3-1.9v-2.5h-1V275h1v-1.1l0.9-0.3v1.4h1.6v0.7H-339.4z"/>
	<path class="st6" d="M-338.4,279.3h0.9v-5.8h-0.9v-0.7h1.8v3.1l0,0c0.2-0.6,0.9-1,1.7-1c1.3,0,1.8,0.6,1.8,1.8v2.6h0.9v0.7h-2.6
		v-0.7h0.9v-2.4c0-0.8-0.3-1.3-1.2-1.3c-1,0-1.4,0.7-1.4,1.6v2.1h0.9v0.7h-2.6v-0.7H-338.4z"/>
	<path class="st6" d="M-330.6,277.8c0,1.2,0.6,1.7,1.8,1.7c0.6,0,1.4-0.3,1.4-1h0.8c0,1.2-1.3,1.7-2.4,1.7c-1.6,0-2.7-1-2.7-2.6
		s1-2.6,2.7-2.6c1.8,0,2.4,1.3,2.4,2.9h-4V277.8z M-327.4,277.1c-0.1-0.9-0.6-1.5-1.6-1.5c-0.9,0-1.6,0.5-1.6,1.5H-327.4z"/>
	<path class="st6" d="M-317.8,276.9h-0.7c-0.1-0.8-0.6-1.3-1.4-1.3c-1.1,0-1.6,0.9-1.6,1.9s0.6,1.9,1.6,1.9c0.7,0,1.3-0.4,1.4-1.1
		h0.8c0,1.2-1.1,1.8-2.2,1.8c-1.6,0-2.6-1-2.6-2.6s1-2.6,2.6-2.6c0.6,0,1.1,0.2,1.4,0.7l0,0V275h0.7L-317.8,276.9L-317.8,276.9z"/>
	<path class="st6" d="M-317,279.3h0.9v-3.6h-0.9V275h1.8v1l0,0c0.2-0.8,0.8-1.1,1.5-1.1c0.2,0,0.3,0,0.4,0v0.7
		c-0.1,0-0.3-0.1-0.5-0.1c-1.3,0-1.4,1.3-1.4,2.4v1.4h1v0.7h-2.8V279.3z"/>
	<path class="st6" d="M-311.6,277.8c0,1.2,0.6,1.7,1.8,1.7c0.6,0,1.4-0.3,1.4-1h0.8c0,1.2-1.3,1.7-2.4,1.7c-1.6,0-2.7-1-2.7-2.6
		s1-2.6,2.7-2.6c1.8,0,2.4,1.3,2.4,2.9h-4V277.8z M-308.4,277.1c-0.1-0.9-0.6-1.5-1.6-1.5c-0.9,0-1.6,0.5-1.6,1.5H-308.4z"/>
	<path class="st6" d="M-302.9,279L-302.9,279c-0.2,0.8-0.9,1.1-1.7,1.1c-1,0-2-0.4-2-1.6c0-1.5,1.5-1.6,2.7-1.6h1v-0.3
		c0-0.8-0.4-1.1-1.2-1.1c-0.7,0-1.2,0.1-1.3,0.9h-1c0.1-1.2,1.1-1.6,2.2-1.6c1.2,0,2.2,0.3,2.2,1.6v2.9h0.9v0.7h-1.8L-302.9,279
		L-302.9,279z M-304.5,279.5c1.1,0,1.6-0.8,1.6-1.8h-0.8c-0.6,0-1.9,0-1.9,0.9C-305.6,279.3-305,279.5-304.5,279.5z"/>
	<path class="st6" d="M-297.2,275.7h-1.6v2.9c0,0.4,0.1,0.8,0.6,0.8s0.6-0.5,0.6-0.9h0.8c0,1-0.4,1.7-1.5,1.7
		c-1.3,0-1.3-0.9-1.3-1.9v-2.5h-1V275h1v-1.1l0.9-0.3v1.4h1.6v0.7H-297.2z"/>
	<path class="st6" d="M-296.3,279.3h0.9v-3.6h-0.9V275h1.8v4.3h0.9v0.7h-2.6L-296.3,279.3L-296.3,279.3z M-294.5,273.9h-1v-1h1
		V273.9z"/>
	<path class="st6" d="M-287.6,275.7h-0.6l-1.8,4.3h-1.1l-1.7-4.3h-0.6V275h2.5v0.7h-0.9l1.4,3.5l1.4-3.5h-0.9V275h2.4L-287.6,275.7
		L-287.6,275.7z"/>
	<path class="st6" d="M-285.9,277.8c0,1.2,0.6,1.7,1.8,1.7c0.6,0,1.4-0.3,1.4-1h0.8c0,1.2-1.3,1.7-2.4,1.7c-1.6,0-2.7-1-2.7-2.6
		s1-2.6,2.7-2.6c1.8,0,2.4,1.3,2.4,2.9h-4V277.8z M-282.7,277.1c-0.1-0.9-0.6-1.5-1.6-1.5c-0.9,0-1.6,0.5-1.6,1.5H-282.7z"/>
	<path class="st6" d="M-277.9,279.3h0.9v-3.6h-0.9V275h1.8v1l0,0c0.2-0.8,0.8-1.1,1.5-1.1c0.2,0,0.3,0,0.4,0v0.7
		c-0.1,0-0.3-0.1-0.5-0.1c-1.3,0-1.4,1.3-1.4,2.4v1.4h1v0.7h-2.8V279.3z"/>
	<path class="st6" d="M-272.5,277.8c0,1.2,0.6,1.7,1.8,1.7c0.6,0,1.4-0.3,1.4-1h0.8c0,1.2-1.3,1.7-2.4,1.7c-1.6,0-2.7-1-2.7-2.6
		s1-2.6,2.7-2.6c1.8,0,2.4,1.3,2.4,2.9h-4V277.8z M-269.3,277.1c-0.1-0.9-0.6-1.5-1.6-1.5c-0.9,0-1.6,0.5-1.6,1.5H-269.3z"/>
	<path class="st6" d="M-263.7,279L-263.7,279c-0.2,0.8-0.9,1.1-1.7,1.1c-1,0-2-0.4-2-1.6c0-1.5,1.5-1.6,2.7-1.6h1v-0.3
		c0-0.8-0.4-1.1-1.2-1.1c-0.7,0-1.2,0.1-1.3,0.9h-1c0.1-1.2,1.1-1.6,2.2-1.6c1.2,0,2.2,0.3,2.2,1.6v2.9h0.9v0.7h-1.8V279z
		 M-265.3,279.5c1.1,0,1.6-0.8,1.6-1.8h-0.8c-0.6,0-1.9,0-1.9,0.9C-266.4,279.3-265.9,279.5-265.3,279.5z"/>
	<path class="st6" d="M-261.4,279.3h0.9v-5.8h-0.9v-0.7h1.8v6.5h0.9v0.7h-2.6v-0.7H-261.4z"/>
	<path class="st6" d="M-258.4,279.3h0.9v-3.6h-0.9V275h1.8v0.9l0,0c0.2-0.6,0.8-1,1.6-1s1.3,0.3,1.6,1c0.3-0.6,0.9-1,1.6-1
		c1.2,0,1.8,0.6,1.8,1.7v2.7h0.9v0.7h-2.6v-0.7h0.9v-2.1c0-0.8,0-1.6-1.1-1.6c-1,0-1.3,0.8-1.3,1.6v2.1h0.9v0.7h-2.6v-0.7h0.9v-2.1
		c0-0.9,0-1.6-1.1-1.6c-1,0-1.4,0.8-1.4,1.7v2.1h0.9v0.7h-2.6v-0.8H-258.4z"/>
	<path class="st6" d="M-247.9,278.9h1.1v1.1h-1.1V278.9z"/>
	<path class="st6" d="M-242.5,279.3h1.1v-5.8h-1.1v-0.7h6.1v2.3h-0.8v-1.6h-3.2v2.5h1.6v-0.9h0.8v2.7h-0.8v-1.1h-1.6v2.6h1.3v0.7
		h-3.4L-242.5,279.3L-242.5,279.3z"/>
	<path class="st6" d="M-235.7,279.3h0.9v-3.6h-0.9V275h1.8v1l0,0c0.2-0.8,0.8-1.1,1.5-1.1c0.2,0,0.3,0,0.4,0v0.7
		c-0.1,0-0.3-0.1-0.5-0.1c-1.3,0-1.4,1.3-1.4,2.4v1.4h1v0.7h-2.8V279.3z"/>
	<path class="st6" d="M-228.7,274.9c1.6,0,2.6,1,2.6,2.6s-1,2.6-2.6,2.6s-2.7-1-2.7-2.6S-230.3,274.9-228.7,274.9z M-228.7,279.5
		c1.1,0,1.7-0.9,1.7-1.9s-0.5-1.9-1.7-1.9c-1.1,0-1.7,0.9-1.7,1.9S-229.9,279.5-228.7,279.5z"/>
	<path class="st6" d="M-225.4,279.3h0.9v-3.6h-0.9V275h1.8v0.9l0,0c0.2-0.6,0.8-1,1.6-1s1.3,0.3,1.6,1c0.3-0.6,0.9-1,1.6-1
		c1.2,0,1.8,0.6,1.8,1.7v2.7h0.9v0.7h-2.6v-0.7h0.9v-2.1c0-0.8,0-1.6-1.1-1.6c-1,0-1.3,0.8-1.3,1.6v2.1h0.9v0.7h-2.6v-0.7h0.9v-2.1
		c0-0.9,0-1.6-1.1-1.6c-1,0-1.4,0.8-1.4,1.7v2.1h0.9v0.7h-2.6v-0.8H-225.4z"/>
	<path class="st6" d="M-211.3,277.8c0,1.2,0.6,1.7,1.8,1.7c0.6,0,1.4-0.3,1.4-1h0.8c0,1.2-1.3,1.7-2.4,1.7c-1.6,0-2.7-1-2.7-2.6
		s1-2.6,2.7-2.6c1.8,0,2.4,1.3,2.4,2.9h-4V277.8z M-208.1,277.1c-0.1-0.9-0.6-1.5-1.6-1.5c-0.9,0-1.6,0.5-1.6,1.5H-208.1z"/>
	<path class="st6" d="M-202,279.1L-202,279.1c-0.3,0.6-1,1.1-1.8,1.1c-1.7,0-2.4-1.1-2.4-2.6s0.9-2.6,2.4-2.6c0.7,0,1.5,0.4,1.8,1
		l0,0v-2.4h-0.9v-0.7h1.8v6.5h0.9v0.7h-1.8V279.1z M-203.6,275.6c-1.1,0-1.7,0.8-1.7,1.9c0,1,0.5,1.9,1.7,1.9c1.1,0,1.6-0.9,1.6-1.9
		S-202.5,275.6-203.6,275.6z"/>
	<path class="st6" d="M-199.7,279.3h0.9v-3.6h-0.9V275h1.8v4.3h0.9v0.7h-2.6L-199.7,279.3L-199.7,279.3z M-197.9,273.9h-1v-1h1
		V273.9z"/>
	<path class="st6" d="M-193.2,275.7h-1.6v2.9c0,0.4,0.1,0.8,0.6,0.8s0.6-0.5,0.6-0.9h0.8c0,1-0.4,1.7-1.5,1.7
		c-1.3,0-1.3-0.9-1.3-1.9v-2.5h-1V275h1v-1.1l0.9-0.3v1.4h1.6v0.7H-193.2z"/>
	<path class="st6" d="M-192.4,279.3h0.9v-3.6h-0.9V275h1.8v4.3h0.9v0.7h-2.6L-192.4,279.3L-192.4,279.3z M-190.6,273.9h-1v-1h1
		V273.9z"/>
	<path class="st6" d="M-189.2,279.3h0.9v-3.6h-0.9V275h1.8v0.9l0,0c0.2-0.6,0.9-1,1.7-1c1.3,0,1.8,0.6,1.8,1.8v2.6h0.9v0.7h-2.6
		v-0.7h0.9v-2.4c0-0.8-0.3-1.3-1.2-1.3c-1,0-1.4,0.7-1.4,1.6v2.1h0.9v0.7h-2.6v-0.7H-189.2z"/>
	<path class="st6" d="M-176.4,275.7h-0.9v2.7c0,0.8,0.1,1.8-0.3,2.5c-0.4,0.8-1.4,1-2.3,1c-1.1,0-2.4-0.2-2.4-1.5h1
		c0,0.7,0.7,0.8,1.3,0.8c1.3,0,1.7-0.5,1.7-1.8v-0.6l0,0c-0.3,0.7-1.1,1-1.8,1c-1.5,0-2.4-1-2.4-2.6c0-1.5,0.9-2.5,2.4-2.5
		c0.8,0,1.5,0.3,1.9,1l0,0l0,0l0,0V275h1.8V275.7z M-179.8,279.3c1.1,0,1.6-0.8,1.6-1.8s-0.5-1.8-1.6-1.8c-1.2,0-1.8,0.7-1.8,1.8
		C-181.5,278.5-181,279.3-179.8,279.3z"/>
</g>
<g class="st3">
	<path class="st6" d="M-329.3,294.4h0.9V289h-0.9v-0.7h1.8v1l0,0c0.3-0.6,0.9-1.1,1.7-1.1c1.6,0,2.5,1,2.5,2.6s-0.9,2.6-2.5,2.6
		c-0.8,0-1.4-0.4-1.7-1.1l0,0v2.1h0.9v0.7h-2.7L-329.3,294.4L-329.3,294.4z M-325.8,292.7c1,0,1.5-0.8,1.5-1.9c0-1-0.5-1.9-1.5-1.9
		c-1.2,0-1.8,0.9-1.8,1.9C-327.5,291.9-327,292.7-325.8,292.7z"/>
	<path class="st6" d="M-322.4,292.5h0.9v-5.8h-0.9V286h1.8v3.1l0,0c0.2-0.6,0.9-1,1.7-1c1.3,0,1.8,0.6,1.8,1.8v2.6h0.9v0.7h-2.6
		v-0.7h0.9v-2.4c0-0.8-0.3-1.3-1.2-1.3c-1,0-1.4,0.7-1.4,1.6v2.1h0.9v0.7h-2.6v-0.7H-322.4z"/>
	<path class="st6" d="M-313.1,288.1c1.6,0,2.6,1,2.6,2.6s-1,2.6-2.6,2.6s-2.7-1-2.7-2.6C-315.7,289.1-314.7,288.1-313.1,288.1z
		 M-313.1,292.7c1.1,0,1.7-0.9,1.7-1.9s-0.5-1.9-1.7-1.9c-1.1,0-1.7,0.9-1.7,1.9S-314.2,292.7-313.1,292.7z"/>
	<path class="st6" d="M-306.3,288.9h-1.6v2.9c0,0.4,0.1,0.8,0.6,0.8s0.6-0.5,0.6-0.9h0.8c0,1-0.4,1.7-1.5,1.7
		c-1.3,0-1.3-0.9-1.3-1.9V289h-1v-0.7h1v-1.1l0.9-0.3v1.4h1.6v0.6H-306.3z"/>
	<path class="st6" d="M-302.7,288.1c1.6,0,2.6,1,2.6,2.6s-1,2.6-2.6,2.6s-2.7-1-2.7-2.6C-305.3,289.1-304.3,288.1-302.7,288.1z
		 M-302.7,292.7c1.1,0,1.7-0.9,1.7-1.9s-0.5-1.9-1.7-1.9c-1.1,0-1.7,0.9-1.7,1.9S-303.8,292.7-302.7,292.7z"/>
	<path class="st6" d="M-299,293.2v-1.7h0.7c0,1,0.8,1.2,1.6,1.2c0.4,0,1-0.2,1-0.8c0-0.7-0.7-0.7-1.3-0.7c-0.9-0.2-2-0.3-2-1.4
		s1-1.6,1.9-1.6c0.6,0,1.3,0.2,1.5,0.7l0,0v-0.6h0.7v1.7h-0.7c0-0.9-0.6-1.1-1.4-1.1c-0.5,0-1.2,0.1-1.2,0.8c0,0.6,0.9,0.6,1.5,0.7
		c0.9,0.2,1.9,0.3,1.9,1.4c0,1.2-1.1,1.6-2.1,1.6c-0.6,0-1.3-0.2-1.5-0.8l0,0v0.7h-0.6V293.2z"/>
	<path class="st6" d="M-287.3,288.9h-1.6v2.9c0,0.4,0.1,0.8,0.6,0.8s0.6-0.5,0.6-0.9h0.8c0,1-0.4,1.7-1.5,1.7
		c-1.3,0-1.3-0.9-1.3-1.9V289h-1v-0.7h1v-1.1l0.9-0.3v1.4h1.6v0.6H-287.3z"/>
	<path class="st6" d="M-283.7,288.1c1.6,0,2.6,1,2.6,2.6s-1,2.6-2.6,2.6s-2.7-1-2.7-2.6C-286.4,289.1-285.3,288.1-283.7,288.1z
		 M-283.7,292.7c1.1,0,1.7-0.9,1.7-1.9s-0.5-1.9-1.7-1.9c-1.1,0-1.7,0.9-1.7,1.9S-284.8,292.7-283.7,292.7z"/>
	<path class="st6" d="M-277.3,292.5h0.9v-3.6h-0.9v-0.7h1.8v0.9l0,0c0.2-0.6,0.8-1,1.6-1c0.8,0,1.3,0.3,1.6,1c0.3-0.6,0.9-1,1.6-1
		c1.2,0,1.8,0.6,1.8,1.7v2.7h0.9v0.7h-2.6v-0.7h0.9v-2.1c0-0.8,0-1.6-1.1-1.6c-1,0-1.3,0.8-1.3,1.6v2.1h0.9v0.7h-2.6v-0.7h0.9v-2.1
		c0-0.9,0-1.6-1.1-1.6c-1,0-1.4,0.8-1.4,1.7v2.1h0.9v0.7h-2.6v-0.8H-277.3z"/>
	<path class="st6" d="M-263.7,292.2L-263.7,292.2c-0.2,0.8-0.9,1.1-1.7,1.1c-1,0-2-0.4-2-1.6c0-1.5,1.5-1.6,2.7-1.6h1v-0.3
		c0-0.8-0.4-1.1-1.2-1.1c-0.7,0-1.2,0.1-1.3,0.9h-1c0.1-1.2,1.1-1.6,2.2-1.6c1.2,0,2.2,0.3,2.2,1.6v2.9h0.9v0.7h-1.8V292.2z
		 M-265.3,292.7c1.1,0,1.6-0.8,1.6-1.8h-0.8c-0.6,0-1.9,0-1.9,0.9C-266.4,292.5-265.8,292.7-265.3,292.7z"/>
	<path class="st6" d="M-261.4,292.5h0.9v-5.8h-0.9V286h1.8v4.5l2-1.6l0,0h-0.8v-0.7h2.5v0.7h-0.7l-1.4,1.1l1.6,2.5h0.6v0.7h-2.3
		v-0.7h0.7l-1.2-1.9l-1,0.8v1.1h0.8v0.7h-2.6L-261.4,292.5L-261.4,292.5z"/>
	<path class="st6" d="M-255.3,292.5h0.9v-3.6h-0.9v-0.7h1.8v4.3h0.9v0.7h-2.6L-255.3,292.5L-255.3,292.5z M-253.5,287.1h-1v-1h1
		V287.1z"/>
	<path class="st6" d="M-252.1,292.5h0.9v-3.6h-0.9v-0.7h1.8v0.9l0,0c0.2-0.6,0.9-1,1.7-1c1.3,0,1.8,0.6,1.8,1.8v2.6h0.9v0.7h-2.6
		v-0.7h0.9v-2.4c0-0.8-0.3-1.3-1.2-1.3c-1,0-1.4,0.7-1.4,1.6v2.1h0.9v0.7h-2.6v-0.7H-252.1z"/>
	<path class="st6" d="M-239.4,288.9h-0.9v2.7c0,0.8,0.1,1.8-0.3,2.5c-0.4,0.8-1.4,1-2.3,1c-1.1,0-2.4-0.2-2.4-1.5h1
		c0,0.7,0.7,0.8,1.3,0.8c1.3,0,1.7-0.5,1.7-1.8V292l0,0c-0.3,0.7-1.1,1-1.8,1c-1.5,0-2.4-1-2.4-2.6c0-1.5,0.9-2.5,2.4-2.5
		c0.8,0,1.5,0.3,1.9,1l0,0l0,0l0,0V288h1.8V288.9z M-242.8,292.5c1.1,0,1.6-0.8,1.6-1.8s-0.5-1.8-1.6-1.8c-1.2,0-1.8,0.7-1.8,1.8
		C-244.4,291.7-243.9,292.5-242.8,292.5z"/>
	<path class="st6" d="M-235.8,292.5h0.9v-5.8h-0.9V286h1.8v3.1l0,0c0.3-0.6,1.1-1,1.7-1c1.6,0,2.5,1,2.5,2.6s-0.9,2.6-2.5,2.6
		c-0.7,0-1.5-0.4-1.7-1.1l0,0v1h-1.8V292.5z M-232.2,292.7c1,0,1.5-0.8,1.5-1.9c0-1-0.5-1.9-1.5-1.9c-1.2,0-1.8,0.9-1.8,1.9
		C-234,291.9-233.4,292.7-232.2,292.7z"/>
	<path class="st6" d="M-227.8,291c0,1.2,0.6,1.7,1.8,1.7c0.6,0,1.4-0.3,1.4-1h0.8c0,1.2-1.3,1.7-2.4,1.7c-1.6,0-2.7-1-2.7-2.6
		s1-2.6,2.7-2.6c1.8,0,2.4,1.3,2.4,2.9h-4V291z M-224.6,290.3c-0.1-0.9-0.6-1.5-1.6-1.5c-0.9,0-1.6,0.5-1.6,1.5H-224.6z"/>
	<path class="st6" d="M-219.1,292.2L-219.1,292.2c-0.2,0.8-0.9,1.1-1.7,1.1c-1,0-2-0.4-2-1.6c0-1.5,1.5-1.6,2.7-1.6h1v-0.3
		c0-0.8-0.4-1.1-1.2-1.1c-0.7,0-1.2,0.1-1.3,0.9h-1c0.1-1.2,1.1-1.6,2.2-1.6c1.2,0,2.2,0.3,2.2,1.6v2.9h0.9v0.7h-1.8L-219.1,292.2
		L-219.1,292.2z M-220.7,292.7c1.1,0,1.6-0.8,1.6-1.8h-0.8c-0.6,0-1.9,0-1.9,0.9C-221.8,292.5-221.2,292.7-220.7,292.7z"/>
	<path class="st6" d="M-211.6,292.5h0.9v0.7h-1.8v-0.9l0,0c-0.2,0.6-0.9,1-1.6,1c-1.3,0-1.8-0.6-1.8-1.8v-2.6h-0.9v-0.7h1.8v3.1
		c0,0.8,0.3,1.3,1.2,1.3c1,0,1.4-0.7,1.4-1.6v-2.1h-0.9v-0.7h1.8L-211.6,292.5L-211.6,292.5z"/>
	<path class="st6" d="M-206.6,288.9h-1.6v2.9c0,0.4,0.1,0.8,0.6,0.8s0.6-0.5,0.6-0.9h0.8c0,1-0.4,1.7-1.5,1.7
		c-1.3,0-1.3-0.9-1.3-1.9V289h-1v-0.7h1v-1.1l0.9-0.3v1.4h1.6v0.6H-206.6z"/>
	<path class="st6" d="M-205.8,292.5h0.9v-3.6h-0.9v-0.7h1.8v4.3h0.9v0.7h-2.6L-205.8,292.5L-205.8,292.5z M-204,287.1h-1v-1h1V287.1
		z"/>
	<path class="st6" d="M-202.7,292.5h0.9v-3.6h-1v-0.7h1v-0.5c0-1.2,0.5-1.7,1.8-1.7c0.3,0,0.5,0.1,0.8,0.1v0.7
		c-0.3,0-0.6-0.1-0.9-0.1c-0.8,0-0.9,0.5-0.9,1v0.5h1.2v0.7h-1.2v3.6h1.1v0.7h-2.9L-202.7,292.5L-202.7,292.5z"/>
	<path class="st6" d="M-193.9,292.5h0.9v0.7h-1.8v-0.9l0,0c-0.2,0.6-0.9,1-1.6,1c-1.3,0-1.8-0.6-1.8-1.8v-2.6h-0.9v-0.7h1.8v3.1
		c0,0.8,0.3,1.3,1.2,1.3c1,0,1.4-0.7,1.4-1.6v-2.1h-0.9v-0.7h1.8L-193.9,292.5L-193.9,292.5z"/>
	<path class="st6" d="M-192.3,292.5h0.9v-5.8h-0.9V286h1.8v6.5h0.9v0.7h-2.6L-192.3,292.5L-192.3,292.5z"/>
</g>
<g class="st3">
	<path class="st6" d="M-334.5,303.3h-0.7c-0.1-0.8-0.6-1.3-1.4-1.3c-1.1,0-1.6,0.9-1.6,1.9s0.6,1.9,1.6,1.9c0.7,0,1.3-0.4,1.4-1.1
		h0.8c0,1.2-1.1,1.8-2.2,1.8c-1.6,0-2.6-1-2.6-2.6s1-2.6,2.6-2.6c0.6,0,1.1,0.2,1.4,0.7l0,0v-0.6h0.7L-334.5,303.3L-334.5,303.3z"/>
	<path class="st6" d="M-331.1,301.3c1.6,0,2.6,1,2.6,2.6s-1,2.6-2.6,2.6s-2.7-1-2.7-2.6C-333.8,302.3-332.7,301.3-331.1,301.3z
		 M-331.1,305.9c1.1,0,1.7-0.9,1.7-1.9s-0.5-1.9-1.7-1.9c-1.1,0-1.7,0.9-1.7,1.9S-332.2,305.9-331.1,305.9z"/>
	<path class="st6" d="M-327.7,305.7h0.9v-3.6h-0.9v-0.7h1.8v0.9l0,0c0.2-0.6,0.8-1,1.6-1c0.8,0,1.3,0.3,1.6,1c0.3-0.6,0.9-1,1.6-1
		c1.2,0,1.8,0.6,1.8,1.7v2.7h0.9v0.7h-2.6v-0.7h0.9v-2.1c0-0.8,0-1.6-1.1-1.6c-1,0-1.3,0.8-1.3,1.6v2.1h0.9v0.7h-2.6v-0.7h0.9v-2.1
		c0-0.9,0-1.6-1.1-1.6c-1,0-1.4,0.8-1.4,1.7v2.1h0.9v0.7h-2.6v-0.8H-327.7z"/>
	<path class="st6" d="M-318,307.6h0.9v-5.4h-0.9v-0.7h1.8v1l0,0c0.3-0.6,0.9-1.1,1.7-1.1c1.6,0,2.5,1,2.5,2.6s-0.9,2.6-2.5,2.6
		c-0.8,0-1.4-0.4-1.7-1.1l0,0v2.1h0.9v0.7h-2.7L-318,307.6L-318,307.6z M-314.5,305.9c1,0,1.5-0.8,1.5-1.9c0-1-0.5-1.9-1.5-1.9
		c-1.2,0-1.8,0.9-1.8,1.9C-316.2,305.1-315.7,305.9-314.5,305.9z"/>
	<path class="st6" d="M-308.5,301.3c1.6,0,2.6,1,2.6,2.6s-1,2.6-2.6,2.6s-2.7-1-2.7-2.6S-310.1,301.3-308.5,301.3z M-308.5,305.9
		c1.1,0,1.7-0.9,1.7-1.9s-0.5-1.9-1.7-1.9c-1.1,0-1.7,0.9-1.7,1.9S-309.6,305.9-308.5,305.9z"/>
	<path class="st6" d="M-304.8,306.4v-1.7h0.7c0,1,0.8,1.2,1.6,1.2c0.4,0,1-0.2,1-0.8c0-0.7-0.7-0.7-1.3-0.7c-0.9-0.2-2-0.3-2-1.4
		s1-1.6,1.9-1.6c0.6,0,1.3,0.2,1.5,0.7l0,0v-0.6h0.7v1.7h-0.7c0-0.9-0.6-1.1-1.4-1.1c-0.5,0-1.2,0.1-1.2,0.8c0,0.6,0.9,0.6,1.5,0.7
		c0.9,0.2,1.9,0.3,1.9,1.4c0,1.2-1.1,1.6-2.1,1.6c-0.6,0-1.3-0.2-1.5-0.8l0,0v0.7h-0.6V306.4z"/>
	<path class="st6" d="M-299.6,305.7h0.9v-3.6h-0.9v-0.7h1.8v4.3h0.9v0.7h-2.6L-299.6,305.7L-299.6,305.7z M-297.9,300.3h-1v-1h1
		V300.3z"/>
	<path class="st6" d="M-293.2,302.1h-1.6v2.9c0,0.4,0.1,0.8,0.6,0.8s0.6-0.5,0.6-0.9h0.8c0,1-0.4,1.7-1.5,1.7
		c-1.3,0-1.3-0.9-1.3-1.9v-2.5h-1v-0.7h1v-1.1l0.9-0.3v1.4h1.6v0.6H-293.2z"/>
	<path class="st6" d="M-292.3,305.7h0.9v-3.6h-0.9v-0.7h1.8v4.3h0.9v0.7h-2.6L-292.3,305.7L-292.3,305.7z M-290.5,300.3h-1v-1h1
		V300.3z"/>
	<path class="st6" d="M-286.5,301.3c1.6,0,2.6,1,2.6,2.6s-1,2.6-2.6,2.6s-2.7-1-2.7-2.6C-289.1,302.3-288.1,301.3-286.5,301.3z
		 M-286.5,305.9c1.1,0,1.7-0.9,1.7-1.9s-0.5-1.9-1.7-1.9c-1.1,0-1.7,0.9-1.7,1.9S-287.6,305.9-286.5,305.9z"/>
	<path class="st6" d="M-283,305.7h0.9v-3.6h-0.9v-0.7h1.8v0.9l0,0c0.2-0.6,0.9-1,1.7-1c1.3,0,1.8,0.6,1.8,1.8v2.6h0.9v0.7h-2.6v-0.7
		h0.9v-2.4c0-0.8-0.3-1.3-1.2-1.3c-1,0-1.4,0.7-1.4,1.6v2.1h0.9v0.7h-2.6v-0.7H-283z"/>
	<path class="st6" d="M-276.1,306.4v-1.7h0.7c0,1,0.8,1.2,1.6,1.2c0.4,0,1-0.2,1-0.8c0-0.7-0.7-0.7-1.3-0.7c-0.9-0.2-2-0.3-2-1.4
		s1-1.6,1.9-1.6c0.6,0,1.3,0.2,1.5,0.7l0,0v-0.6h0.7v1.7h-0.7c0-0.9-0.6-1.1-1.4-1.1c-0.5,0-1.2,0.1-1.2,0.8c0,0.6,0.9,0.6,1.5,0.7
		c0.9,0.2,1.9,0.3,1.9,1.4c0,1.2-1.1,1.6-2.1,1.6c-0.6,0-1.3-0.2-1.5-0.8l0,0v0.7h-0.6V306.4z"/>
	<path class="st6" d="M-270.2,305.3h1.1v1.1l-0.5,1.4h-0.6l0.5-1.4h-0.5V305.3z"/>
	<path class="st6" d="M-264.8,305.7h0.9v-3.6h-0.9v-0.7h1.8v4.3h0.9v0.7h-2.6v-0.7H-264.8z M-263,300.3h-1v-1h1V300.3z"/>
	<path class="st6" d="M-258.3,302.1h-1.6v2.9c0,0.4,0.1,0.8,0.5,0.8c0.5,0,0.6-0.5,0.6-0.9h0.8c0,1-0.4,1.7-1.5,1.7
		c-1.3,0-1.3-0.9-1.3-1.9v-2.5h-1v-0.7h1v-1.1l0.9-0.3v1.4h1.6V302.1z"/>
	<path class="st6" d="M-254.4,305.7h0.9v-3.6h-0.9v-0.7h1.8v4.3h0.9v0.7h-2.6L-254.4,305.7L-254.4,305.7z M-252.6,300.3h-1v-1h1
		V300.3z"/>
	<path class="st6" d="M-251,306.4v-1.7h0.7c0,1,0.8,1.2,1.6,1.2c0.4,0,1-0.2,1-0.8c0-0.7-0.7-0.7-1.3-0.7c-0.9-0.2-2-0.3-2-1.4
		s1-1.6,1.9-1.6c0.6,0,1.3,0.2,1.5,0.7l0,0v-0.6h0.7v1.7h-0.7c0-0.9-0.6-1.1-1.4-1.1c-0.5,0-1.2,0.1-1.2,0.8c0,0.6,0.9,0.6,1.5,0.7
		c0.9,0.2,1.9,0.3,1.9,1.4c0,1.2-1.1,1.6-2.1,1.6c-0.6,0-1.3-0.2-1.5-0.8l0,0v0.7h-0.6V306.4z"/>
	<path class="st6" d="M-239,305.4L-239,305.4c-0.2,0.8-0.9,1.1-1.7,1.1c-1,0-2-0.4-2-1.6c0-1.5,1.5-1.6,2.7-1.6h1V303
		c0-0.8-0.4-1.1-1.2-1.1c-0.7,0-1.2,0.1-1.3,0.9h-1c0.1-1.2,1.1-1.6,2.2-1.6c1.2,0,2.2,0.3,2.2,1.6v2.9h0.9v0.7h-1.8L-239,305.4
		L-239,305.4z M-240.6,305.9c1.1,0,1.6-0.8,1.6-1.8h-0.8c-0.6,0-1.9,0-1.9,0.9C-241.7,305.7-241.1,305.9-240.6,305.9z"/>
	<path class="st6" d="M-227.4,302.1h-0.9v2.7c0,0.8,0.1,1.8-0.3,2.5c-0.4,0.8-1.4,1-2.3,1c-1.1,0-2.4-0.2-2.4-1.5h1
		c0,0.7,0.7,0.8,1.3,0.8c1.3,0,1.7-0.5,1.7-1.8v-0.6l0,0c-0.3,0.7-1.1,1-1.8,1c-1.5,0-2.4-1-2.4-2.6c0-1.5,0.9-2.5,2.4-2.5
		c0.8,0,1.5,0.3,1.9,1l0,0l0,0l0,0v-0.9h1.8V302.1z M-230.9,305.7c1.1,0,1.6-0.8,1.6-1.8s-0.5-1.8-1.6-1.8c-1.2,0-1.8,0.7-1.8,1.8
		C-232.5,304.9-232,305.7-230.9,305.7z"/>
	<path class="st6" d="M-226.8,305.7h0.9v-3.6h-0.9v-0.7h1.8v1l0,0c0.2-0.8,0.8-1.1,1.5-1.1c0.2,0,0.3,0,0.4,0v0.7
		c-0.1,0-0.3-0.1-0.5-0.1c-1.3,0-1.4,1.3-1.4,2.4v1.4h1v0.7h-2.8V305.7z"/>
	<path class="st6" d="M-221.4,304.2c0,1.2,0.6,1.7,1.8,1.7c0.6,0,1.4-0.3,1.4-1h0.8c0,1.2-1.3,1.7-2.4,1.7c-1.6,0-2.7-1-2.7-2.6
		s1-2.6,2.7-2.6c1.8,0,2.4,1.3,2.4,2.9h-4V304.2z M-218.2,303.5c-0.1-0.9-0.6-1.5-1.6-1.5c-0.9,0-1.6,0.5-1.6,1.5H-218.2z"/>
	<path class="st6" d="M-212.7,305.4L-212.7,305.4c-0.2,0.8-0.9,1.1-1.7,1.1c-1,0-2-0.4-2-1.6c0-1.5,1.5-1.6,2.7-1.6h1V303
		c0-0.8-0.4-1.1-1.2-1.1c-0.7,0-1.2,0.1-1.3,0.9h-1c0.1-1.2,1.1-1.6,2.2-1.6c1.2,0,2.2,0.3,2.2,1.6v2.9h0.9v0.7h-1.8L-212.7,305.4
		L-212.7,305.4z M-214.3,305.9c1.1,0,1.6-0.8,1.6-1.8h-0.8c-0.6,0-1.9,0-1.9,0.9C-215.4,305.7-214.8,305.9-214.3,305.9z"/>
	<path class="st6" d="M-207,302.1h-1.6v2.9c0,0.4,0.1,0.8,0.6,0.8s0.6-0.5,0.6-0.9h0.8c0,1-0.4,1.7-1.5,1.7c-1.3,0-1.3-0.9-1.3-1.9
		v-2.5h-1v-0.7h1v-1.1l0.9-0.3v1.4h1.6v0.6H-207z"/>
	<path class="st6" d="M-199.6,302.1h-1.6v2.9c0,0.4,0.1,0.8,0.6,0.8s0.6-0.5,0.6-0.9h0.8c0,1-0.4,1.7-1.5,1.7
		c-1.3,0-1.3-0.9-1.3-1.9v-2.5h-1v-0.7h1v-1.1l0.9-0.3v1.4h1.6v0.6H-199.6z"/>
	<path class="st6" d="M-196,301.3c1.6,0,2.6,1,2.6,2.6s-1,2.6-2.6,2.6s-2.7-1-2.7-2.6S-197.6,301.3-196,301.3z M-196,305.9
		c1.1,0,1.7-0.9,1.7-1.9s-0.5-1.9-1.7-1.9s-1.7,0.9-1.7,1.9S-197.1,305.9-196,305.9z"/>
	<path class="st6" d="M-189.9,301.3c1.6,0,2.6,1,2.6,2.6s-1,2.6-2.6,2.6s-2.7-1-2.7-2.6C-192.5,302.3-191.5,301.3-189.9,301.3z
		 M-189.9,305.9c1.1,0,1.7-0.9,1.7-1.9s-0.5-1.9-1.7-1.9c-1.1,0-1.7,0.9-1.7,1.9S-191,305.9-189.9,305.9z"/>
	<path class="st6" d="M-186.5,305.7h0.9V300h-0.9v-0.7h1.8v6.5h0.9v0.7h-2.6L-186.5,305.7L-186.5,305.7z"/>
	<path class="st6" d="M-181.3,304.7h-0.7l-0.2-5.5h1.1L-181.3,304.7z M-182.1,305.4h1v1h-1V305.4z"/>
</g>
<g>
	<path class="st0" d="M-286.1,370.3c-7.2,0-13-5.8-13-13s5.8-13,13-13s13,5.8,13,13C-273,364.4-278.9,370.3-286.1,370.3z
		 M-286.1,347c-5.7,0-10.3,4.6-10.3,10.3c0,5.7,4.6,10.3,10.3,10.3c5.7,0,10.3-4.6,10.3-10.3C-275.8,351.6-280.4,347-286.1,347z"/>
	<g>
		<path class="st0" d="M-288.2,351.7c0-1.2,1-2.2,2.1-2.2c1.2,0,2.2,0.9,2.2,2.1s-0.9,2.2-2.2,2.2
			C-287.3,353.9-288.2,353-288.2,351.7z M-287.9,364.9v-10h3.7v10H-287.9z"/>
	</g>
</g>
<g>
	<path class="st7" d="M-226.8,342.5h-12.9c-1.1,0-2.1,0.6-2.7,1.6l-6.5,11.8c-0.5,0.9-0.5,2,0,3l6.4,11.6c0.5,1,1.6,1.6,2.7,1.6
		h13.1c1.1,0,2.1-0.6,2.7-1.6l6.4-11.6c0.5-0.9,0.5-2,0-3l-6.5-11.8C-224.7,343.1-225.7,342.5-226.8,342.5z"/>
	<g>
		<g>
			<path class="st8" d="M-236.3,348.4l-0.9,0.9c-0.3,0.3-0.4,0.7-0.4,1.1s0.1,0.8,0.4,1.1l5.9,5.9l-5.9,5.9
				c-0.3,0.3-0.4,0.7-0.4,1.1s0.1,0.8,0.4,1.1l0.9,0.9c0.3,0.3,0.7,0.5,1.1,0.5c0.4,0,0.8-0.2,1.1-0.5l7.8-7.8
				c0.3-0.3,0.5-0.7,0.5-1.1s-0.2-0.8-0.5-1.1l-7.8-7.8c-0.3-0.3-0.7-0.4-1.1-0.4C-235.6,347.9-236,348.1-236.3,348.4L-236.3,348.4z
				"/>
		</g>
	</g>
</g>
<g class="st3">
	<path class="st0" d="M-296.9,327.2v-1c2.4-3.4,3.2-4,3.2-5.5c0-0.7-0.3-1.1-1-1.1c-0.8,0-1,0.7-1,1.4h-1.1c-0.1-1.4,0.6-2.3,2-2.3
		c1.5,0,2.2,0.7,2.2,2.2c0,1.9-0.9,2.5-3.1,5.3h3.3v1H-296.9z"/>
	<path class="st0" d="M-287.5,327.2h-1v-8.7h1v3.2l0,0c0.3-0.5,0.8-0.7,1.3-0.7c2,0,2,1.7,2,3.2c0,2.7-1,3-2,3
		c-0.6,0-1.1-0.3-1.4-0.8l0,0v0.8H-287.5z M-286.4,326.5c1.2,0,1.2-1.3,1.2-2.2c0-1.6-0.1-2.5-1.2-2.5s-1.1,1.3-1.1,2.1
		C-287.5,324.8-287.6,326.5-286.4,326.5z"/>
	<path class="st0" d="M-279.5,326.3L-279.5,326.3c-0.3,0.7-0.8,1-1.5,1c-1.3,0-1.7-0.8-1.7-2c0-1.8,1.8-1.9,3.2-1.9
		c0-0.8,0-1.7-1-1.7c-0.7,0-1,0.4-0.9,1.1h-1.1c0-1.4,0.8-1.8,2.1-1.8c1.6,0,2,0.8,2,1.8v2.9c0,0.5,0,1,0.1,1.4h-1.1v-0.8H-279.5z
		 M-281.7,325.4c0,0.6,0.3,1.1,0.9,1.1s1.3-0.4,1.2-2.3C-280.4,324.2-281.7,324.1-281.7,325.4z"/>
	<path class="st0" d="M-273.4,318.5h1v8.7h-1v-0.7l0,0c-0.3,0.6-0.8,0.8-1.4,0.8c-1,0-2-0.4-2-3c0-1.5,0-3.2,2-3.2
		c0.6,0,1,0.3,1.3,0.7l0,0v-3.3H-273.4z M-274.5,321.8c-1.1,0-1.2,0.8-1.2,2.5c0,0.9,0,2.2,1.2,2.2c1.1,0,1.1-1.4,1.1-2.6
		C-273.4,323.1-273.5,321.8-274.5,321.8z"/>
	<path class="st0" d="M-267.4,321.1h1v6.7c0,1.4-0.9,1.7-2.2,1.7c-1,0-1.9-0.5-1.8-1.6h1.1c0,0.6,0.4,0.9,0.9,0.9
		c0.7,0,1.1-0.4,1.1-1v-1.3l0,0c-0.3,0.5-0.8,0.8-1.3,0.8c-1.6,0-2-1.4-2-3.2c0-2.8,1.4-3,1.9-3c0.6,0,1.1,0.3,1.4,0.9l0,0v-0.9
		H-267.4z M-268.6,321.8c-1.1,0-1.2,1.3-1.2,2.1c0,1.9,0.4,2.4,1.2,2.4c1.2,0,1.2-1.4,1.2-2.2C-267.4,323.2-267.3,321.8-268.6,321.8
		z"/>
	<path class="st0" d="M-263.6,324.5c0,1.7,0.5,2,1.2,2c0.7,0,1-0.5,1.1-1.2h1.1c0,1.3-0.8,2-2.1,2c-1.3,0-2.3-0.4-2.3-3.1
		c0-1.8,0.2-3.2,2.3-3.2c1.7,0,2.2,0.9,2.2,3v0.5L-263.6,324.5L-263.6,324.5z M-261.3,323.7c0-1.8-0.5-2-1.2-2c-0.6,0-1.1,0.3-1.2,2
		H-261.3z"/>
	<path class="st0" d="M-256.8,327.3c-1.3,0-2.1-0.6-2.1-2h1.1c0,0.3,0,1.2,1,1.2c0.6,0,1-0.3,1-0.9c0-1.1-3-1.1-3-2.9
		c0-0.6,0.4-1.7,2.1-1.7c1.1,0,2,0.5,1.9,1.7h-1.1c0-0.6-0.3-1-0.9-1c-0.5,0-0.9,0.3-0.9,0.8c0,1.1,3,1,3,2.9
		C-254.7,326.8-255.6,327.3-256.8,327.3z"/>
	<path class="st0" d="M-249.7,324.5c0,1.7,0.5,2,1.2,2s1-0.5,1.1-1.2h1.1c0,1.3-0.8,2-2.1,2s-2.3-0.4-2.3-3.1c0-1.8,0.2-3.2,2.3-3.2
		c1.7,0,2.2,0.9,2.2,3v0.5L-249.7,324.5L-249.7,324.5z M-247.3,323.7c0-1.8-0.5-2-1.2-2c-0.6,0-1.1,0.3-1.2,2H-247.3z"/>
	<path class="st0" d="M-241.5,326.3L-241.5,326.3c-0.3,0.7-0.8,1-1.5,1c-1.3,0-1.7-0.8-1.7-2c0-1.8,1.8-1.9,3.2-1.9
		c0-0.8,0-1.7-1-1.7c-0.7,0-1,0.4-0.9,1.1h-1.1c0-1.4,0.8-1.8,2.1-1.8c1.6,0,2,0.8,2,1.8v2.9c0,0.5,0,1,0.1,1.4h-1.1v-0.8H-241.5z
		 M-243.7,325.4c0,0.6,0.3,1.1,0.9,1.1c0.6,0,1.3-0.4,1.2-2.3C-242.5,324.2-243.7,324.1-243.7,325.4z"/>
	<path class="st0" d="M-237.6,322L-237.6,322c0.4-0.9,0.9-1,1.9-1v1c-0.2,0-0.3-0.1-0.5-0.1c-1.1,0-1.4,0.8-1.4,1.6v3.6h-1V321h1
		V322z"/>
	<path class="st0" d="M-231.3,327.2V323c0-0.6-0.2-1.2-1.1-1.2c-1.1,0-1.2,1-1.2,1.8v3.6h-1v-4.8c0-0.4,0-0.8-0.1-1.3h1v0.8l0,0
		c0.4-0.7,0.8-0.9,1.6-0.9c1.3,0,1.6,0.8,1.6,2v4.2H-231.3z"/>
	<path class="st0" d="M-227.7,324.5c0,1.7,0.5,2,1.2,2s1-0.5,1.1-1.2h1.1c0,1.3-0.8,2-2.1,2s-2.3-0.4-2.3-3.1c0-1.8,0.2-3.2,2.3-3.2
		c1.7,0,2.2,0.9,2.2,3v0.5L-227.7,324.5L-227.7,324.5z M-225.3,323.7c0-1.8-0.5-2-1.2-2c-0.6,0-1.1,0.3-1.2,2H-225.3z"/>
	<path class="st0" d="M-219.4,318.5h1v8.7h-1v-0.7l0,0c-0.3,0.6-0.8,0.8-1.4,0.8c-1,0-2-0.4-2-3c0-1.5,0-3.2,2-3.2
		c0.6,0,1,0.3,1.3,0.7l0,0L-219.4,318.5L-219.4,318.5z M-220.6,321.8c-1.1,0-1.2,0.8-1.2,2.5c0,0.9,0,2.2,1.2,2.2
		c1.1,0,1.1-1.4,1.1-2.6C-219.4,323.1-219.5,321.8-220.6,321.8z"/>
</g>
<g>
	<polygon class="st0" points="-201.7,181 -313.6,181 -335.1,219.7 -180.2,219.7 	"/>
	<polygon class="st1" points="-180.2,219.7 -335.1,219.7 -369.5,281.6 -314.4,380.7 -200.9,380.7 -145.8,281.6 	"/>
</g>
<path class="st2" d="M-253.8,188.6c-1.3,0-2.8,1-3.4,2.7c-0.1,0-0.2,0-0.4,0c-0.1,0-0.2,0-0.4,0c-0.5-1.7-2.2-2.7-3.6-2.7
	c-1.2,0-2.1,0.8-2.3,2.1c-0.1,0.4,0.2,0.7,0.5,0.7c0.4,0.1,0.7-0.2,0.7-0.5c0.1-0.7,0.4-1,1-1c0.9,0,2.1,0.8,2.4,1.9
	c-0.2,0.1-0.4,0.3-0.5,0.4c-0.7,0.7-1.2,1.7-1.5,2.3l-0.1,0.1c-0.3,0.5-0.5,1.1-0.7,1.6c-1.2,0.7-2.4,1.5-3.3,2.4
	c-1.2,1.2-1.8,2.3-1.7,3.4c0,0.9,0.5,1.8,1.4,2.6s1.8,1,2.7,0.8c0.1,0.3,0.2,0.6,0.3,0.9c1.4,3.5,4.3,4.8,4.4,4.8l0.2,0.1l0.2-0.1
	c0.1,0,1.4-0.5,2.7-1.8c0.9-0.9,1.8-2.2,2.4-3.9l0,0c0.7,0.2,1.7,0.3,2.9-0.7c0.1-0.1,0.2-0.2,0.3-0.3c0.9-0.9,1.3-2,1-3.2
	c-0.5-1.9-2.6-3.7-4.8-5c-0.2-0.7-0.5-1.4-0.8-2.1c-0.6-1.4-1.3-2.1-2-2.6c0.3-1.1,1.3-1.8,2.1-1.8c0.5,0,0.8,0.4,0.9,1
	c0,0.4,0.4,0.6,0.7,0.6c0.1,0,0.3-0.1,0.4-0.2c0.1-0.1,0.2-0.3,0.2-0.6C-251.9,189.2-252.9,188.6-253.8,188.6z M-249.6,201.6
	c0.2,0.8-0.1,1.5-0.9,2.1s-1.3,0.6-1.6,0.5c0,0-0.1,0-0.1-0.1c-0.4-0.2-0.8-0.5-1.2-1c-0.3-0.3-0.5-0.7-0.8-1.1
	c-0.4-0.7-0.7-1.4-1.1-2.2c-0.2-0.6-0.5-1.2-0.7-1.7c-0.3-0.8-0.5-1.5-0.7-2.2l0,0c1.2,0.5,2.7,1.3,4,2.3
	C-251.1,199.3-249.9,200.5-249.6,201.6z M-264.8,203.6c-0.6-0.5-0.9-1.1-0.9-1.6c0-0.7,0.4-1.6,1.3-2.4c0.5-0.5,1.1-1,1.8-1.4
	c1.4-0.9,2.9-1.7,4-2.2l0,0c-0.2,0.6-0.4,1.3-0.7,2.2c-0.2,0.6-0.4,1.1-0.7,1.7c-0.3,0.8-0.7,1.5-1.1,2.2c-0.3,0.4-0.6,0.8-0.9,1.2
	c-0.1,0.1-0.1,0.2-0.2,0.2c-0.4,0.3-0.7,0.6-1,0.7C-263.7,204.3-264.2,204.1-264.8,203.6z M-257.9,198.2h0.5
	c0.2,0.6,0.4,1.1,0.6,1.7h-1.8C-258.3,199.3-258.1,198.7-257.9,198.2z M-259.6,202h3.8c0.3,0.6,0.7,1.2,1.1,1.7l-6.1-0.1
	C-260.3,203.3-259.9,202.7-259.6,202z M-255.3,207.7h-5c-0.4-0.5-0.7-1.1-1-1.7l7.1,0.1C-254.5,206.7-254.9,207.2-255.3,207.7z
	 M-255.2,194.8c0.1,0.2,0.2,0.4,0.3,0.6c-0.9-0.5-1.8-0.8-2.3-1c-0.1-0.1-0.2-0.1-0.4-0.1c-0.1,0-0.2,0-0.4,0.1
	c-0.6,0.2-1.3,0.5-2.2,0.9v-0.1l0.1-0.1c0.2-0.5,0.6-1.4,1.2-2c0.4-0.4,0.8-0.6,1.2-0.5C-256.6,192.5-255.8,193.3-255.2,194.8z"/>
<rect x="-347" y="256.3" class="st5" width="174.7" height="51.1"/>
<g>
	<path class="st0" d="M-302.8,361c-7.2,0-13-5.8-13-13s5.8-13,13-13s13,5.8,13,13S-295.6,361-302.8,361z M-302.8,337.7
		c-5.7,0-10.3,4.6-10.3,10.3s4.6,10.3,10.3,10.3c5.7,0,10.3-4.6,10.3-10.3S-297.1,337.7-302.8,337.7z"/>
	<g>
		<path class="st0" d="M-304.9,342.5c0-1.2,1-2.2,2.1-2.2c1.2,0,2.2,0.9,2.2,2.1s-0.9,2.2-2.2,2.2
			C-304,344.6-304.9,343.7-304.9,342.5z M-304.6,355.6v-10h3.7v10H-304.6z"/>
	</g>
</g>
<g>
	<path class="st7" d="M-199.8,331.2h-12.9c-1.1,0-2.1,0.6-2.7,1.6l-6.5,11.8c-0.5,0.9-0.5,2,0,3l6.4,11.6c0.5,1,1.6,1.6,2.7,1.6
		h13.1c1.1,0,2.1-0.6,2.7-1.6l6.4-11.6c0.5-0.9,0.5-2,0-3l-6.5-11.8C-197.7,331.8-198.7,331.2-199.8,331.2z"/>
	<g>
		<g>
			<path class="st8" d="M-209.3,337.1l-0.9,0.9c-0.3,0.3-0.4,0.7-0.4,1.1s0.1,0.8,0.4,1.1l5.9,5.9l-5.9,5.9
				c-0.3,0.3-0.4,0.7-0.4,1.1s0.1,0.8,0.4,1.1l0.9,0.9c0.3,0.3,0.7,0.5,1.1,0.5c0.4,0,0.8-0.2,1.1-0.5l7.8-7.8
				c0.3-0.3,0.5-0.7,0.5-1.1s-0.2-0.8-0.5-1.1l-7.8-7.8c-0.3-0.3-0.7-0.4-1.1-0.4C-208.6,336.6-209,336.8-209.3,337.1L-209.3,337.1z
				"/>
		</g>
	</g>
</g>
<g class="st3">
	<path class="st0" d="M-294.4,326.9v-1c2.4-3.4,3.2-4,3.2-5.5c0-0.7-0.3-1.1-1-1.1c-0.8,0-1,0.7-1,1.4h-1.1c-0.1-1.4,0.6-2.3,2-2.3
		c1.5,0,2.2,0.7,2.2,2.2c0,1.9-0.9,2.5-3.1,5.3h3.3v1H-294.4z"/>
	<path class="st0" d="M-285,326.9h-1v-8.7h1v3.2l0,0c0.3-0.5,0.8-0.7,1.3-0.7c2,0,2,1.7,2,3.2c0,2.7-1,3-2,3c-0.6,0-1.1-0.3-1.4-0.8
		l0,0v0.8H-285z M-283.9,326.2c1.2,0,1.2-1.3,1.2-2.2c0-1.6-0.1-2.5-1.2-2.5s-1.1,1.3-1.1,2.1C-285,324.5-285.1,326.2-283.9,326.2z"
		/>
	<path class="st0" d="M-276.9,326L-276.9,326c-0.3,0.7-0.8,1-1.5,1c-1.3,0-1.7-0.8-1.7-2c0-1.8,1.8-1.9,3.2-1.9c0-0.8,0-1.7-1-1.7
		c-0.7,0-1,0.4-0.9,1.1h-1.1c0-1.4,0.8-1.8,2.1-1.8c1.6,0,2,0.8,2,1.8v2.9c0,0.5,0,1,0.1,1.4h-1.1V326H-276.9z M-279.1,325.1
		c0,0.6,0.3,1.1,0.9,1.1s1.3-0.4,1.2-2.3C-277.9,323.9-279.1,323.8-279.1,325.1z"/>
	<path class="st0" d="M-270.8,318.2h1v8.7h-1v-0.7l0,0c-0.3,0.6-0.8,0.8-1.4,0.8c-1,0-2-0.4-2-3c0-1.5,0-3.2,2-3.2
		c0.6,0,1,0.3,1.3,0.7l0,0v-3.3H-270.8z M-272,321.5c-1.1,0-1.2,0.8-1.2,2.5c0,0.9,0,2.2,1.2,2.2c1.1,0,1.1-1.4,1.1-2.6
		C-270.8,322.8-270.9,321.5-272,321.5z"/>
	<path class="st0" d="M-264.8,320.8h1v6.7c0,1.4-0.9,1.7-2.2,1.7c-1,0-1.9-0.5-1.8-1.6h1.1c0,0.6,0.4,0.9,0.9,0.9
		c0.7,0,1.1-0.4,1.1-1v-1.3l0,0c-0.3,0.5-0.8,0.8-1.3,0.8c-1.6,0-2-1.4-2-3.2c0-2.8,1.4-3,1.9-3c0.6,0,1.1,0.3,1.4,0.9l0,0v-0.9
		H-264.8z M-266,321.5c-1.1,0-1.2,1.3-1.2,2.1c0,1.9,0.4,2.4,1.2,2.4c1.2,0,1.2-1.4,1.2-2.2C-264.8,322.9-264.7,321.5-266,321.5z"/>
	<path class="st0" d="M-261.1,324.2c0,1.7,0.5,2,1.2,2c0.7,0,1-0.5,1.1-1.2h1.1c0,1.3-0.8,2-2.1,2c-1.3,0-2.3-0.4-2.3-3.1
		c0-1.8,0.2-3.2,2.3-3.2c1.7,0,2.2,0.9,2.2,3v0.5L-261.1,324.2L-261.1,324.2z M-258.7,323.4c0-1.8-0.5-2-1.2-2c-0.6,0-1.1,0.3-1.2,2
		H-258.7z"/>
	<path class="st0" d="M-254.2,327c-1.3,0-2.1-0.6-2.1-2h1.1c0,0.3,0,1.2,1,1.2c0.6,0,1-0.3,1-0.9c0-1.1-3-1.1-3-2.9
		c0-0.6,0.4-1.7,2.1-1.7c1.1,0,2,0.5,1.9,1.7h-1.1c0-0.6-0.3-1-0.9-1c-0.5,0-0.9,0.3-0.9,0.8c0,1.1,3,1,3,2.9
		C-252.1,326.5-253,327-254.2,327z"/>
	<path class="st0" d="M-247.1,324.2c0,1.7,0.5,2,1.2,2s1-0.5,1.1-1.2h1.1c0,1.3-0.8,2-2.1,2s-2.3-0.4-2.3-3.1c0-1.8,0.2-3.2,2.3-3.2
		c1.7,0,2.2,0.9,2.2,3v0.5L-247.1,324.2L-247.1,324.2z M-244.7,323.4c0-1.8-0.5-2-1.2-2c-0.6,0-1.1,0.3-1.2,2H-244.7z"/>
	<path class="st0" d="M-238.9,326L-238.9,326c-0.3,0.7-0.8,1-1.5,1c-1.3,0-1.7-0.8-1.7-2c0-1.8,1.8-1.9,3.2-1.9c0-0.8,0-1.7-1-1.7
		c-0.7,0-1,0.4-0.9,1.1h-1.1c0-1.4,0.8-1.8,2.1-1.8c1.6,0,2,0.8,2,1.8v2.9c0,0.5,0,1,0.1,1.4h-1.1V326H-238.9z M-241.1,325.1
		c0,0.6,0.3,1.1,0.9,1.1c0.6,0,1.3-0.4,1.2-2.3C-239.9,323.9-241.1,323.8-241.1,325.1z"/>
	<path class="st0" d="M-235,321.7L-235,321.7c0.4-0.9,0.9-1,1.9-1v1c-0.2,0-0.3-0.1-0.5-0.1c-1.1,0-1.4,0.8-1.4,1.6v3.6h-1v-6.1h1
		V321.7z"/>
	<path class="st0" d="M-228.7,326.9v-4.2c0-0.6-0.2-1.2-1.1-1.2c-1.1,0-1.2,1-1.2,1.8v3.6h-1v-4.8c0-0.4,0-0.8-0.1-1.3h1v0.8l0,0
		c0.4-0.7,0.8-0.9,1.6-0.9c1.3,0,1.6,0.8,1.6,2v4.2H-228.7z"/>
	<path class="st0" d="M-225.1,324.2c0,1.7,0.5,2,1.2,2s1-0.5,1.1-1.2h1.1c0,1.3-0.8,2-2.1,2s-2.3-0.4-2.3-3.1c0-1.8,0.2-3.2,2.3-3.2
		c1.7,0,2.2,0.9,2.2,3v0.5L-225.1,324.2L-225.1,324.2z M-222.7,323.4c0-1.8-0.5-2-1.2-2c-0.6,0-1.1,0.3-1.2,2H-222.7z"/>
	<path class="st0" d="M-216.8,318.2h1v8.7h-1v-0.7l0,0c-0.3,0.6-0.8,0.8-1.4,0.8c-1,0-2-0.4-2-3c0-1.5,0-3.2,2-3.2
		c0.6,0,1,0.3,1.3,0.7l0,0L-216.8,318.2L-216.8,318.2z M-218,321.5c-1.1,0-1.2,0.8-1.2,2.5c0,0.9,0,2.2,1.2,2.2
		c1.1,0,1.1-1.4,1.1-2.6C-216.8,322.8-216.9,321.5-218,321.5z"/>
</g>
<g class="st3">
	<path class="st4" d="M-334,244.5l3.4-8.7h2.9l3.4,8.7h-2.7l-0.6-1.7h-3.5l-0.6,1.7H-334z M-328.1,241.1l-1.1-3.6l0,0l-1.2,3.6
		H-328.1z"/>
	<path class="st4" d="M-319,243.6L-319,243.6c-0.4,0.7-1.2,1.1-2.1,1.1c-1.7,0-2.5-1.7-2.5-3.2c0-1.6,0.8-3.2,2.6-3.2
		c0.8,0,1.5,0.3,2,0.9l0,0v-3.3h2.3v8.7h-2.2L-319,243.6z M-321.3,241.5c0,0.8,0.2,1.9,1.1,1.9s1.1-1.1,1.1-1.9
		c0-0.8-0.1-1.9-1.1-1.9S-321.3,240.7-321.3,241.5z"/>
	<path class="st4" d="M-308.6,241.5c0,2.2-1.6,3.2-3.5,3.2s-3.5-1-3.5-3.2s1.6-3.2,3.5-3.2S-308.6,239.3-308.6,241.5z M-312.1,243.3
		c1,0,1.2-1,1.2-1.9s-0.2-1.9-1.2-1.9s-1.2,1-1.2,1.9S-313,243.3-312.1,243.3z"/>
	<path class="st4" d="M-307.4,235.8h2.3v3.3l0,0c0.4-0.5,1.2-0.8,1.8-0.8c1.8,0,2.7,1.4,2.7,3.1c0,1.8-0.8,3.3-2.8,3.3
		c-0.7,0-1.5-0.5-1.7-1.1l0,0l-0.1,0.9h-2.2L-307.4,235.8L-307.4,235.8z M-305.1,241.6c0,0.7,0.2,1.8,1,1.8c1,0,1.2-1.1,1.2-1.9
		c0-0.7-0.1-1.8-1.1-1.8C-305,239.6-305.1,240.8-305.1,241.6z"/>
	<path class="st4" d="M-297.5,241.9c0,0.8,0.2,1.5,1,1.5c0.6,0,1-0.3,1.1-0.9h2.1c-0.1,0.8-0.6,1.3-1.1,1.7
		c-0.5,0.3-1.2,0.5-1.9,0.5c-2.4,0-3.4-1-3.4-3.4c0-1.9,1.4-3,3.2-3c2.4,0,3.2,1.4,3.2,3.6L-297.5,241.9L-297.5,241.9z
		 M-295.4,240.7c0-0.3-0.1-0.6-0.3-0.9c-0.2-0.3-0.4-0.4-0.8-0.4c-0.8,0-1,0.6-1,1.3L-295.4,240.7L-295.4,240.7z"/>
	<path class="st4" d="M-287.9,244.5v-8.7h4c2.1,0,3.5,0.7,3.5,2.8s-1.4,2.8-3.5,2.8h-1.6v3.1L-287.9,244.5L-287.9,244.5z
		 M-284.2,239.7c0.9,0,1.3-0.5,1.3-1.1s-0.4-1.1-1.3-1.1h-1.2v2.2L-284.2,239.7L-284.2,239.7z"/>
	<path class="st4" d="M-279.3,244.5v-8.7h2.3v3.3c0.5-0.6,1.1-0.8,1.9-0.8c1.3,0,2.3,0.8,2.3,2.2v4h-2.3V241c0-0.6-0.2-1.2-0.9-1.2
		c-1.1,0-1,1.2-1,1.3v3.5h-2.3V244.5z"/>
	<path class="st4" d="M-264.6,241.5c0,2.2-1.6,3.2-3.5,3.2s-3.5-1-3.5-3.2s1.6-3.2,3.5-3.2S-264.6,239.3-264.6,241.5z M-268.1,243.3
		c1,0,1.2-1,1.2-1.9s-0.2-1.9-1.2-1.9s-1.2,1-1.2,1.9S-269,243.3-268.1,243.3z"/>
	<path class="st4" d="M-262.7,238.5v-0.9l2.3-0.9v1.8h1.3v1.4h-1.3v2.4c0,0.2-0.1,0.9,0.4,0.9c0.3,0,0.6,0,0.9,0v1.4
		c-0.5,0.1-0.9,0.1-1.2,0.1c-1.5,0-2.5-0.2-2.4-2.1v-2.7h-1.2v-1.4H-262.7z"/>
	<path class="st4" d="M-251.2,241.5c0,2.2-1.6,3.2-3.5,3.2c-1.9,0-3.5-1-3.5-3.2s1.6-3.2,3.5-3.2
		C-252.8,238.3-251.2,239.3-251.2,241.5z M-254.7,243.3c1,0,1.2-1,1.2-1.9s-0.2-1.9-1.2-1.9s-1.2,1-1.2,1.9
		S-255.7,243.3-254.7,243.3z"/>
	<path class="st4" d="M-246.8,240.3c0-0.2,0-0.4-0.1-0.5s-0.3-0.2-0.6-0.2s-0.5,0.2-0.5,0.5c0,0.4,0.9,0.4,2.4,0.9
		c0.7,0.2,1.2,0.7,1.2,1.7c0,1.6-1.5,2-2.9,2c-1.5,0-2.9-0.3-2.9-2.1h2.2c0,0.2,0,0.4,0.2,0.5c0.1,0.2,0.3,0.3,0.5,0.3
		c0.4,0,0.8-0.2,0.8-0.6c0-1.1-3.6-0.4-3.6-2.6c0-1.5,1.6-1.9,2.8-1.9c1.4,0,2.7,0.4,2.8,2L-246.8,240.3L-246.8,240.3z"/>
	<path class="st4" d="M-243.3,244.5v-8.7h2.3v3.3c0.5-0.6,1.1-0.8,1.9-0.8c1.3,0,2.3,0.8,2.3,2.2v4h-2.3V241c0-0.6-0.2-1.2-0.9-1.2
		c-1.1,0-1,1.2-1,1.3v3.5h-2.3V244.5z"/>
	<path class="st4" d="M-228.6,241.5c0,2.2-1.6,3.2-3.5,3.2s-3.5-1-3.5-3.2s1.6-3.2,3.5-3.2S-228.6,239.3-228.6,241.5z M-232.1,243.3
		c1,0,1.2-1,1.2-1.9s-0.2-1.9-1.2-1.9s-1.2,1-1.2,1.9S-233,243.3-232.1,243.3z"/>
	<path class="st4" d="M-225.1,239.3L-225.1,239.3c0.5-0.7,1.1-1,2-1c1.8,0,2.6,1.5,2.6,3.1c0,1.8-0.9,3.3-2.8,3.3
		c-0.7,0-1.3-0.4-1.7-0.9l0,0v3h-2.3v-8.3h2.3v0.8H-225.1z M-225.1,241.5c0,0.8,0.1,1.9,1.1,1.9s1.1-1.1,1.1-1.9s-0.1-1.9-1.1-1.9
		S-225.1,240.7-225.1,241.5z"/>
	<path class="st4" d="M-215.2,244.5v-8.7h4.1c1.6,0,3,0.7,3,2.3c0,1.1-0.9,1.7-1.9,1.9l0,0c1.2,0.2,2.1,0.9,2.1,2.1
		c0,2.5-3.2,2.4-3.3,2.4H-215.2z M-212.8,239.3h1.2c0.6,0,1.1-0.3,1.1-0.9c0-0.5-0.4-0.8-1-0.8h-1.3V239.3z M-211.4,242.8
		c0.6,0,1-0.4,1-0.9s-0.3-0.9-0.9-1h-1.6v1.9H-211.4z"/>
	<path class="st4" d="M-202.9,244.5c0-0.2,0-0.4,0-0.8l0,0c-0.3,0.4-0.8,1-1.9,1c-1.4,0-2.2-0.8-2.1-2c0-1.5,1.4-2.1,3.3-2.1h0.7
		c0-0.5,0.1-1.3-0.8-1.3c-0.6,0-0.7,0.6-0.7,0.9h-2.1c0-0.9,0.4-1.3,1-1.6s1.4-0.4,2.1-0.4c1.2,0,2.7,0.5,2.7,1.9v3.1
		c0,0.3,0,0.5,0.1,1.2h-2.3V244.5z M-204,243.3c1,0,1.1-0.9,1.1-1.7c-0.5,0-0.9,0-1.2,0.1c-0.3,0.2-0.6,0.4-0.6,0.8
		C-204.8,243-204.5,243.3-204,243.3z"/>
	<path class="st4" d="M-196.1,240.3c0-0.2,0-0.4-0.1-0.5s-0.3-0.2-0.6-0.2s-0.5,0.2-0.5,0.5c0,0.4,0.9,0.4,2.4,0.9
		c0.7,0.2,1.2,0.7,1.2,1.7c0,1.6-1.5,2-2.9,2c-1.5,0-2.9-0.3-2.9-2.1h2.2c0,0.2,0,0.4,0.2,0.5c0.1,0.2,0.3,0.3,0.5,0.3
		c0.4,0,0.8-0.2,0.8-0.6c0-1.1-3.6-0.4-3.6-2.6c0-1.5,1.6-1.9,2.8-1.9c1.4,0,2.7,0.4,2.8,2L-196.1,240.3L-196.1,240.3z"/>
	<path class="st4" d="M-192.5,237.4v-1.6h2.3v1.6H-192.5z M-192.5,244.5v-6h2.3v6H-192.5z"/>
	<path class="st4" d="M-184.8,240.6c0-0.3,0-0.5-0.2-0.7c-0.1-0.2-0.4-0.3-0.7-0.3c-0.8,0-0.9,1.2-0.9,1.9c0,0.6,0,1.9,0.9,1.9
		c0.8-0.1,0.9-0.7,0.9-1.2h2.3c0,0.9-0.4,1.5-0.9,1.9c-0.6,0.4-1.3,0.6-2.1,0.6c-2.3,0-3.3-1.1-3.3-3.2c0-2.2,1.5-3.2,3.3-3.2
		c1.5,0,3,0.6,3.1,2.3H-184.8z"/>
	<path class="st4" d="M-178.1,240.3c0-0.2,0-0.4-0.1-0.5s-0.3-0.2-0.6-0.2s-0.5,0.2-0.5,0.5c0,0.4,0.9,0.4,2.4,0.9
		c0.7,0.2,1.2,0.7,1.2,1.7c0,1.6-1.5,2-2.9,2c-1.5,0-2.9-0.3-2.9-2.1h2.2c0,0.2,0,0.4,0.2,0.5c0.1,0.2,0.3,0.3,0.5,0.3
		c0.4,0,0.8-0.2,0.8-0.6c0-1.1-3.6-0.4-3.6-2.6c0-1.5,1.6-1.9,2.8-1.9c1.4,0,2.7,0.4,2.8,2L-178.1,240.3L-178.1,240.3z"/>
</g>
<rect x="-348" y="257" class="st5" width="180.6" height="51.1"/>
<g class="st3">
	<path class="st6" d="M-334.5,265.4h1.1v-5.8h-1.1v-0.7h3.2v0.7h-1.1v5.8h1.1v0.7h-3.2V265.4z"/>
	<path class="st6" d="M-330.8,265.4h0.9v-5.8h-0.9v-0.7h1.8v6.5h0.9v0.7h-2.6L-330.8,265.4L-330.8,265.4z"/>
	<path class="st6" d="M-327.7,265.4h0.9v-5.8h-0.9v-0.7h1.8v6.5h0.9v0.7h-2.6L-327.7,265.4L-327.7,265.4z"/>
	<path class="st6" d="M-319.5,265.4h0.9v0.7h-1.8v-0.9l0,0c-0.2,0.6-0.9,1-1.6,1c-1.3,0-1.8-0.6-1.8-1.8v-2.6h-0.9v-0.7h1.8v3.1
		c0,0.8,0.3,1.3,1.2,1.3c1,0,1.4-0.7,1.4-1.6v-2.1h-0.9v-0.7h1.8v4.3H-319.5z"/>
	<path class="st6" d="M-317.6,266.1v-1.7h0.7c0,1,0.8,1.2,1.6,1.2c0.4,0,1-0.2,1-0.8c0-0.7-0.7-0.7-1.3-0.7c-0.9-0.2-2-0.3-2-1.4
		s1-1.6,1.9-1.6c0.6,0,1.3,0.2,1.5,0.7l0,0v-0.6h0.7v1.7h-0.7c0-0.9-0.6-1.1-1.4-1.1c-0.5,0-1.2,0.1-1.2,0.8c0,0.6,0.9,0.6,1.5,0.7
		c0.9,0.2,1.9,0.3,1.9,1.4c0,1.2-1.1,1.6-2.1,1.6c-0.6,0-1.3-0.2-1.5-0.8l0,0v0.7h-0.6V266.1z"/>
	<path class="st6" d="M-309,261.8h-1.6v2.9c0,0.4,0.1,0.8,0.6,0.8s0.6-0.5,0.6-0.9h0.8c0,1-0.4,1.7-1.5,1.7c-1.3,0-1.3-0.9-1.3-1.9
		v-2.5h-1v-0.7h1V260l0.9-0.3v1.4h1.6v0.7H-309z"/>
	<path class="st6" d="M-308.1,265.4h0.9v-3.6h-0.9v-0.7h1.8v1l0,0c0.2-0.8,0.8-1.1,1.5-1.1c0.2,0,0.3,0,0.4,0v0.7
		c-0.1,0-0.3-0.1-0.5-0.1c-1.3,0-1.4,1.3-1.4,2.4v1.4h1v0.7h-2.8V265.4z"/>
	<path class="st6" d="M-300,265L-300,265c-0.2,0.8-0.9,1.1-1.7,1.1c-1,0-2-0.4-2-1.6c0-1.5,1.5-1.6,2.7-1.6h1v-0.3
		c0-0.8-0.4-1.1-1.2-1.1c-0.7,0-1.2,0.1-1.3,0.9h-1c0.1-1.2,1.1-1.6,2.2-1.6c1.2,0,2.2,0.3,2.2,1.6v2.9h0.9v0.7h-1.8L-300,265
		L-300,265z M-301.6,265.5c1.1,0,1.6-0.8,1.6-1.8h-0.8c-0.6,0-1.9,0-1.9,0.9C-302.7,265.3-302.2,265.5-301.6,265.5z"/>
	<path class="st6" d="M-294.3,261.8h-1.6v2.9c0,0.4,0.1,0.8,0.6,0.8s0.6-0.5,0.6-0.9h0.8c0,1-0.4,1.7-1.5,1.7
		c-1.3,0-1.3-0.9-1.3-1.9v-2.5h-1v-0.7h1V260l0.9-0.3v1.4h1.6v0.7H-294.3z"/>
	<path class="st6" d="M-290.7,260.9c1.6,0,2.6,1,2.6,2.6s-1,2.6-2.6,2.6s-2.7-1-2.7-2.6C-293.4,261.9-292.3,260.9-290.7,260.9z
		 M-290.7,265.5c1.1,0,1.7-0.9,1.7-1.9s-0.5-1.9-1.7-1.9c-1.1,0-1.7,0.9-1.7,1.9S-291.8,265.5-290.7,265.5z"/>
	<path class="st6" d="M-287.3,265.4h0.9v-3.6h-0.9v-0.7h1.8v1l0,0c0.2-0.8,0.8-1.1,1.5-1.1c0.2,0,0.3,0,0.4,0v0.7
		c-0.1,0-0.3-0.1-0.5-0.1c-1.3,0-1.4,1.3-1.4,2.4v1.4h1v0.7h-2.8V265.4z"/>
	<path class="st6" d="M-280,265.4h0.9v-3.6h-0.9v-0.7h1.8v4.3h0.9v0.7h-2.6L-280,265.4L-280,265.4z M-278.2,259.9h-1v-1h1V259.9z"/>
	<path class="st6" d="M-276.7,266.1v-1.7h0.7c0,1,0.8,1.2,1.6,1.2c0.4,0,1-0.2,1-0.8c0-0.7-0.7-0.7-1.3-0.7c-0.9-0.2-2-0.3-2-1.4
		s1-1.6,1.9-1.6c0.6,0,1.3,0.2,1.5,0.7l0,0v-0.6h0.7v1.7h-0.7c0-0.9-0.6-1.1-1.4-1.1c-0.5,0-1.2,0.1-1.2,0.8c0,0.6,0.9,0.6,1.5,0.7
		c0.9,0.2,1.9,0.3,1.9,1.4c0,1.2-1.1,1.6-2.1,1.6c-0.6,0-1.3-0.2-1.5-0.8l0,0v0.7h-0.6V266.1z"/>
	<path class="st6" d="M-264.6,265L-264.6,265c-0.2,0.8-0.9,1.1-1.7,1.1c-1,0-2-0.4-2-1.6c0-1.5,1.5-1.6,2.7-1.6h1v-0.3
		c0-0.8-0.4-1.1-1.2-1.1c-0.7,0-1.2,0.1-1.3,0.9h-1c0.1-1.2,1.1-1.6,2.2-1.6c1.2,0,2.2,0.3,2.2,1.6v2.9h0.9v0.7h-1.8L-264.6,265
		L-264.6,265z M-266.2,265.5c1.1,0,1.6-0.8,1.6-1.8h-0.8c-0.6,0-1.9,0-1.9,0.9C-267.3,265.3-266.7,265.5-266.2,265.5z"/>
	<path class="st6" d="M-253.6,261.8h-0.6l-1.8,4.3h-1.1l-1.7-4.3h-0.6v-0.7h2.5v0.7h-0.9l1.4,3.5l1.4-3.5h-0.9v-0.7h2.4
		L-253.6,261.8L-253.6,261.8z"/>
	<path class="st6" d="M-251.9,263.8c0,1.2,0.6,1.7,1.8,1.7c0.6,0,1.4-0.3,1.4-1h0.8c0,1.2-1.3,1.7-2.4,1.7c-1.6,0-2.7-1-2.7-2.6
		s1-2.6,2.7-2.6c1.8,0,2.4,1.3,2.4,2.9h-4V263.8z M-248.7,263.1c-0.1-0.9-0.6-1.5-1.6-1.5c-0.9,0-1.6,0.5-1.6,1.5H-248.7z"/>
	<path class="st6" d="M-242.2,263h-0.7c-0.1-0.8-0.6-1.3-1.4-1.3c-1.1,0-1.6,0.9-1.6,1.9s0.6,1.9,1.6,1.9c0.7,0,1.3-0.4,1.4-1.1h0.8
		c0,1.2-1.1,1.8-2.2,1.8c-1.6,0-2.6-1-2.6-2.6s1-2.6,2.6-2.6c0.6,0,1.1,0.2,1.4,0.7l0,0v-0.6h0.7V263z"/>
	<path class="st6" d="M-238.1,261.8h-1.6v2.9c0,0.4,0.1,0.8,0.6,0.8s0.6-0.5,0.6-0.9h0.8c0,1-0.4,1.7-1.5,1.7
		c-1.3,0-1.3-0.9-1.3-1.9v-2.5h-1v-0.7h1V260l0.9-0.3v1.4h1.6v0.7H-238.1z"/>
	<path class="st6" d="M-234.4,260.9c1.6,0,2.6,1,2.6,2.6s-1,2.6-2.6,2.6s-2.7-1-2.7-2.6C-237.1,261.9-236.1,260.9-234.4,260.9z
		 M-234.4,265.5c1.1,0,1.7-0.9,1.7-1.9s-0.5-1.9-1.7-1.9c-1.1,0-1.7,0.9-1.7,1.9S-235.6,265.5-234.4,265.5z"/>
	<path class="st6" d="M-231,265.4h0.9v-3.6h-0.9v-0.7h1.8v1l0,0c0.2-0.8,0.8-1.1,1.5-1.1c0.2,0,0.3,0,0.4,0v0.7
		c-0.1,0-0.3-0.1-0.5-0.1c-1.3,0-1.4,1.3-1.4,2.4v1.4h1v0.7h-2.8V265.4z"/>
	<path class="st6" d="M-219.4,265.1L-219.4,265.1c-0.3,0.6-1,1.1-1.8,1.1c-1.7,0-2.4-1.1-2.4-2.6s0.9-2.6,2.4-2.6
		c0.7,0,1.5,0.4,1.8,1l0,0v-2.4h-0.9v-0.7h1.8v6.5h0.9v0.7h-1.8V265.1z M-221,261.7c-1.1,0-1.7,0.8-1.7,1.9c0,1,0.5,1.9,1.7,1.9
		c1.1,0,1.6-0.9,1.6-1.9C-219.4,262.5-219.9,261.7-221,261.7z"/>
	<path class="st6" d="M-217,265.4h0.9v-3.6h-0.9v-0.7h1.8v1l0,0c0.2-0.8,0.8-1.1,1.5-1.1c0.2,0,0.3,0,0.4,0v0.7
		c-0.1,0-0.3-0.1-0.5-0.1c-1.3,0-1.4,1.3-1.4,2.4v1.4h1v0.7h-2.8V265.4z"/>
	<path class="st6" d="M-208.9,265L-208.9,265c-0.2,0.8-0.9,1.1-1.7,1.1c-1,0-2-0.4-2-1.6c0-1.5,1.5-1.6,2.7-1.6h1v-0.3
		c0-0.8-0.4-1.1-1.2-1.1c-0.7,0-1.2,0.1-1.3,0.9h-1c0.1-1.2,1.1-1.6,2.2-1.6c1.2,0,2.2,0.3,2.2,1.6v2.9h0.9v0.7h-1.8L-208.9,265
		L-208.9,265z M-210.5,265.5c1.1,0,1.6-0.8,1.6-1.8h-0.8c-0.6,0-1.9,0-1.9,0.9C-211.6,265.3-211.1,265.5-210.5,265.5z"/>
	<path class="st6" d="M-197.3,261.8h-0.7l-1.5,4.3h-1.2l-1.4-4.2l0,0l-1.4,4.2h-1.2l-1.5-4.3h-0.7v-0.7h2.6v0.7h-1l1.1,3.5l0,0
		l1.4-4.2h1.2l1.4,4.2l0,0l1.2-3.5h-1v-0.7h2.5v0.7H-197.3z"/>
	<path class="st6" d="M-196.9,265.4h0.9v-3.6h-0.9v-0.7h1.8v4.3h0.9v0.7h-2.6L-196.9,265.4L-196.9,265.4z M-195.1,259.9h-1v-1h1
		V259.9z"/>
	<path class="st6" d="M-193.7,265.4h0.9v-3.6h-0.9v-0.7h1.8v0.9l0,0c0.2-0.6,0.9-1,1.7-1c1.3,0,1.8,0.6,1.8,1.8v2.6h0.9v0.7h-2.6
		v-0.7h0.9V263c0-0.8-0.3-1.3-1.2-1.3c-1,0-1.4,0.7-1.4,1.6v2.1h0.9v0.7h-2.6v-0.7H-193.7z"/>
	<path class="st6" d="M-180.9,261.8h-0.9v2.7c0,0.8,0.1,1.8-0.3,2.5c-0.4,0.8-1.4,1-2.3,1c-1.1,0-2.4-0.2-2.4-1.5h1
		c0,0.7,0.7,0.8,1.3,0.8c1.3,0,1.7-0.5,1.7-1.8V265l0,0c-0.3,0.7-1.1,1-1.8,1c-1.5,0-2.4-1-2.4-2.6c0-1.5,0.9-2.5,2.4-2.5
		c0.8,0,1.5,0.3,1.9,1l0,0l0,0l0,0V261h1.8V261.8z M-184.3,265.3c1.1,0,1.6-0.8,1.6-1.8s-0.5-1.8-1.6-1.8c-1.2,0-1.8,0.7-1.8,1.8
		C-186,264.5-185.5,265.3-184.3,265.3z"/>
</g>
<g class="st3">
	<path class="st6" d="M-343.1,280.4h0.9V275h-0.9v-0.7h1.8v1l0,0c0.3-0.6,0.9-1.1,1.7-1.1c1.6,0,2.5,1,2.5,2.6s-0.9,2.6-2.5,2.6
		c-0.8,0-1.4-0.4-1.7-1.1l0,0v2.1h0.9v0.7h-2.7L-343.1,280.4L-343.1,280.4z M-339.5,278.7c1,0,1.5-0.8,1.5-1.9c0-1-0.5-1.9-1.5-1.9
		c-1.2,0-1.8,0.9-1.8,1.9C-341.3,277.9-340.7,278.7-339.5,278.7z"/>
	<path class="st6" d="M-336.2,278.6h0.9V275h-0.9v-0.7h1.8v1l0,0c0.2-0.8,0.8-1.1,1.5-1.1c0.2,0,0.3,0,0.4,0v0.7
		c-0.1,0-0.3-0.1-0.5-0.1c-1.3,0-1.4,1.3-1.4,2.4v1.4h1v0.7h-2.8V278.6z"/>
	<path class="st6" d="M-329.2,274.1c1.6,0,2.6,1,2.6,2.6s-1,2.6-2.6,2.6s-2.7-1-2.7-2.6C-331.9,275.1-330.9,274.1-329.2,274.1z
		 M-329.2,278.7c1.1,0,1.7-0.9,1.7-1.9s-0.5-1.9-1.7-1.9c-1.1,0-1.7,0.9-1.7,1.9S-330.4,278.7-329.2,278.7z"/>
	<path class="st6" d="M-319.7,275h-0.9v2.7c0,0.8,0.1,1.8-0.3,2.5c-0.4,0.8-1.4,1-2.3,1c-1.1,0-2.4-0.2-2.4-1.5h1
		c0,0.7,0.7,0.8,1.3,0.8c1.3,0,1.7-0.5,1.7-1.8v-0.6l0,0c-0.3,0.7-1.1,1-1.8,1c-1.5,0-2.4-1-2.4-2.6c0-1.5,0.9-2.5,2.4-2.5
		c0.8,0,1.5,0.3,1.9,1l0,0l0,0l0,0v-0.9h1.8L-319.7,275L-319.7,275z M-323.2,278.5c1.1,0,1.6-0.8,1.6-1.8s-0.5-1.8-1.6-1.8
		c-1.2,0-1.8,0.7-1.8,1.8C-324.8,277.7-324.3,278.5-323.2,278.5z"/>
	<path class="st6" d="M-319.1,278.6h0.9V275h-0.9v-0.7h1.8v1l0,0c0.2-0.8,0.8-1.1,1.5-1.1c0.2,0,0.3,0,0.4,0v0.7
		c-0.1,0-0.3-0.1-0.5-0.1c-1.3,0-1.4,1.3-1.4,2.4v1.4h1v0.7h-2.8V278.6z"/>
	<path class="st6" d="M-311.1,278.2L-311.1,278.2c-0.2,0.8-0.9,1.1-1.7,1.1c-1,0-2-0.4-2-1.6c0-1.5,1.5-1.6,2.7-1.6h1v-0.3
		c0-0.8-0.4-1.1-1.2-1.1c-0.7,0-1.2,0.1-1.3,0.9h-1c0.1-1.2,1.1-1.6,2.2-1.6c1.2,0,2.2,0.3,2.2,1.6v2.9h0.9v0.7h-1.8L-311.1,278.2
		L-311.1,278.2z M-312.7,278.7c1.1,0,1.6-0.8,1.6-1.8h-0.8c-0.6,0-1.9,0-1.9,0.9C-313.8,278.5-313.2,278.7-312.7,278.7z"/>
	<path class="st6" d="M-308.8,278.6h0.9V275h-0.9v-0.7h1.8v0.9l0,0c0.2-0.6,0.8-1,1.6-1c0.8,0,1.3,0.3,1.6,1c0.3-0.6,0.9-1,1.6-1
		c1.2,0,1.8,0.6,1.8,1.7v2.7h0.9v0.7h-2.6v-0.7h0.9v-2.1c0-0.8,0-1.6-1.1-1.6c-1,0-1.3,0.8-1.3,1.6v2.1h0.9v0.7h-2.6v-0.7h0.9v-2.1
		c0-0.9,0-1.6-1.1-1.6c-1,0-1.4,0.8-1.4,1.7v2.1h0.9v0.7h-2.6v-0.8H-308.8z"/>
	<path class="st6" d="M-298.3,278.2h1.1v1.1h-1.1V278.2z"/>
	<path class="st6" d="M-292.9,278.6h1.1v-5.8h-1.1v-0.7h3.2v0.7h-1.1v5.8h1.1v0.7h-3.2V278.6z"/>
	<path class="st6" d="M-285.8,275h-1.6v2.9c0,0.4,0.1,0.8,0.6,0.8s0.6-0.5,0.6-0.9h0.8c0,1-0.4,1.7-1.5,1.7c-1.3,0-1.3-0.9-1.3-1.9
		V275h-1v-0.7h1v-1.1l0.9-0.3v1.4h1.6v0.7H-285.8z"/>
	<path class="st6" d="M-281.9,278.6h0.9V275h-0.9v-0.7h1.8v4.3h0.9v0.7h-2.6L-281.9,278.6L-281.9,278.6z M-280.1,273.1h-1v-1h1
		V273.1z"/>
	<path class="st6" d="M-278.5,279.3v-1.7h0.7c0,1,0.8,1.2,1.6,1.2c0.4,0,1-0.2,1-0.8c0-0.7-0.7-0.7-1.3-0.7c-0.9-0.2-2-0.3-2-1.4
		s1-1.6,1.9-1.6c0.6,0,1.3,0.2,1.5,0.7l0,0v-0.6h0.7v1.7h-0.7c0-0.9-0.6-1.1-1.4-1.1c-0.5,0-1.2,0.1-1.2,0.8c0,0.6,0.9,0.6,1.5,0.7
		c0.9,0.2,1.9,0.3,1.9,1.4c0,1.2-1.1,1.6-2.1,1.6c-0.6,0-1.3-0.2-1.5-0.8l0,0v0.7h-0.6V279.3z"/>
	<path class="st6" d="M-267.5,274.1c1.6,0,2.6,1,2.6,2.6s-1,2.6-2.6,2.6s-2.7-1-2.7-2.6S-269.1,274.1-267.5,274.1z M-267.5,278.7
		c1.1,0,1.7-0.9,1.7-1.9s-0.5-1.9-1.7-1.9c-1.1,0-1.7,0.9-1.7,1.9S-268.6,278.7-267.5,278.7z"/>
	<path class="st6" d="M-264.1,278.6h0.9V275h-1v-0.7h1v-0.5c0-1.2,0.5-1.7,1.8-1.7c0.3,0,0.5,0.1,0.8,0.1v0.7
		c-0.3,0-0.6-0.1-0.9-0.1c-0.8,0-0.9,0.5-0.9,1v0.5h1.2v0.7h-1.2v3.6h1.1v0.7h-2.9L-264.1,278.6L-264.1,278.6z"/>
	<path class="st6" d="M-257.1,275h-1.6v2.9c0,0.4,0.1,0.8,0.6,0.8s0.6-0.5,0.6-0.9h0.8c0,1-0.4,1.7-1.5,1.7c-1.3,0-1.3-0.9-1.3-1.9
		V275h-1v-0.7h1v-1.1l0.9-0.3v1.4h1.6v0.7H-257.1z"/>
	<path class="st6" d="M-255,277c0,1.2,0.6,1.7,1.8,1.7c0.6,0,1.4-0.3,1.4-1h0.8c0,1.2-1.3,1.7-2.4,1.7c-1.6,0-2.7-1-2.7-2.6
		s1-2.6,2.7-2.6c1.8,0,2.4,1.3,2.4,2.9h-4V277z M-251.8,276.3c-0.1-0.9-0.6-1.5-1.6-1.5c-0.9,0-1.6,0.5-1.6,1.5H-251.8z"/>
	<path class="st6" d="M-250,278.6h0.9V275h-0.9v-0.7h1.8v0.9l0,0c0.2-0.6,0.9-1,1.7-1c1.3,0,1.8,0.6,1.8,1.8v2.6h0.9v0.7h-2.6v-0.7
		h0.9v-2.4c0-0.8-0.3-1.3-1.2-1.3c-1,0-1.4,0.7-1.4,1.6v2.1h0.9v0.7h-2.6v-0.7H-250z"/>
	<path class="st6" d="M-235.1,278.6h0.9v0.7h-1.8v-0.9l0,0c-0.2,0.6-0.9,1-1.6,1c-1.3,0-1.8-0.6-1.8-1.8V275h-0.9v-0.7h1.8v3.1
		c0,0.8,0.3,1.3,1.2,1.3c1,0,1.4-0.7,1.4-1.6V275h-0.9v-0.7h1.8L-235.1,278.6L-235.1,278.6z"/>
	<path class="st6" d="M-233.3,279.3v-1.7h0.7c0,1,0.8,1.2,1.6,1.2c0.4,0,1-0.2,1-0.8c0-0.7-0.7-0.7-1.3-0.7c-0.9-0.2-2-0.3-2-1.4
		s1-1.6,1.9-1.6c0.6,0,1.3,0.2,1.5,0.7l0,0v-0.6h0.7v1.7h-0.7c0-0.9-0.6-1.1-1.4-1.1c-0.5,0-1.2,0.1-1.2,0.8c0,0.6,0.9,0.6,1.5,0.7
		c0.9,0.2,1.9,0.3,1.9,1.4c0,1.2-1.1,1.6-2.1,1.6c-0.6,0-1.3-0.2-1.5-0.8l0,0v0.7h-0.6V279.3z"/>
	<path class="st6" d="M-226.9,277c0,1.2,0.6,1.7,1.8,1.7c0.6,0,1.4-0.3,1.4-1h0.8c0,1.2-1.3,1.7-2.4,1.7c-1.6,0-2.7-1-2.7-2.6
		s1-2.6,2.7-2.6c1.8,0,2.4,1.3,2.4,2.9h-4V277z M-223.7,276.3c-0.1-0.9-0.6-1.5-1.6-1.5c-0.9,0-1.6,0.5-1.6,1.5H-223.7z"/>
	<path class="st6" d="M-217.6,278.3L-217.6,278.3c-0.3,0.6-1,1.1-1.8,1.1c-1.7,0-2.4-1.1-2.4-2.6s0.9-2.6,2.4-2.6
		c0.7,0,1.5,0.4,1.8,1l0,0v-2.4h-0.9v-0.7h1.8v6.5h0.9v0.7h-1.8V278.3z M-219.2,274.9c-1.1,0-1.7,0.8-1.7,1.9c0,1,0.5,1.9,1.7,1.9
		c1.1,0,1.6-0.9,1.6-1.9C-217.6,275.7-218.1,274.9-219.2,274.9z"/>
	<path class="st6" d="M-208.8,275h-1.6v2.9c0,0.4,0.1,0.8,0.5,0.8c0.5,0,0.6-0.5,0.6-0.9h0.8c0,1-0.4,1.7-1.5,1.7
		c-1.3,0-1.3-0.9-1.3-1.9V275h-1v-0.7h1v-1.1l0.9-0.3v1.4h1.6V275z"/>
	<path class="st6" d="M-205.2,274.1c1.6,0,2.6,1,2.6,2.6s-1,2.6-2.6,2.6s-2.7-1-2.7-2.6C-207.8,275.1-206.8,274.1-205.2,274.1z
		 M-205.2,278.7c1.1,0,1.7-0.9,1.7-1.9s-0.5-1.9-1.7-1.9c-1.1,0-1.7,0.9-1.7,1.9S-206.3,278.7-205.2,278.7z"/>
	<path class="st6" d="M-194.4,278.3L-194.4,278.3c-0.3,0.6-1,1.1-1.8,1.1c-1.7,0-2.4-1.1-2.4-2.6s0.9-2.6,2.4-2.6
		c0.7,0,1.5,0.4,1.8,1l0,0v-2.4h-0.9v-0.7h1.8v6.5h0.9v0.7h-1.8V278.3z M-196,274.9c-1.1,0-1.7,0.8-1.7,1.9c0,1,0.5,1.9,1.7,1.9
		c1.1,0,1.6-0.9,1.6-1.9C-194.4,275.7-194.9,274.9-196,274.9z"/>
	<path class="st6" d="M-192,278.6h0.9V275h-0.9v-0.7h1.8v1l0,0c0.2-0.8,0.8-1.1,1.5-1.1c0.2,0,0.3,0,0.4,0v0.7
		c-0.1,0-0.3-0.1-0.5-0.1c-1.3,0-1.4,1.3-1.4,2.4v1.4h1v0.7h-2.8V278.6z"/>
	<path class="st6" d="M-183.9,278.2L-183.9,278.2c-0.2,0.8-0.9,1.1-1.7,1.1c-1,0-2-0.4-2-1.6c0-1.5,1.5-1.6,2.7-1.6h1v-0.3
		c0-0.8-0.4-1.1-1.2-1.1c-0.7,0-1.2,0.1-1.3,0.9h-1c0.1-1.2,1.1-1.6,2.2-1.6c1.2,0,2.2,0.3,2.2,1.6v2.9h0.9v0.7h-1.8L-183.9,278.2
		L-183.9,278.2z M-185.5,278.7c1.1,0,1.6-0.8,1.6-1.8h-0.8c-0.6,0-1.9,0-1.9,0.9C-186.6,278.5-186.1,278.7-185.5,278.7z"/>
	<path class="st6" d="M-172.3,275h-0.7l-1.5,4.3h-1.2l-1.4-4.2l0,0l-1.4,4.2h-1.2l-1.5-4.3h-0.7v-0.7h2.6v0.7h-1l1.1,3.5l0,0
		l1.4-4.2h1.2l1.4,4.2l0,0l1.2-3.5h-1v-0.7h2.5v0.7H-172.3z"/>
</g>
<g class="st3">
	<path class="st6" d="M-342.3,291.8h0.9v-3.6h-0.9v-0.7h1.8v4.3h0.9v0.7h-2.6L-342.3,291.8L-342.3,291.8z M-340.5,286.3h-1v-1h1
		V286.3z"/>
	<path class="st6" d="M-339.3,291.8h0.9V286h-0.9v-0.7h1.8v6.5h0.9v0.7h-2.6L-339.3,291.8L-339.3,291.8z"/>
	<path class="st6" d="M-336.2,291.8h0.9V286h-0.9v-0.7h1.8v6.5h0.9v0.7h-2.6L-336.2,291.8L-336.2,291.8z"/>
	<path class="st6" d="M-328,291.8h0.9v0.7h-1.8v-0.9l0,0c-0.2,0.6-0.9,1-1.6,1c-1.3,0-1.8-0.6-1.8-1.8v-2.6h-0.9v-0.7h1.8v3.1
		c0,0.8,0.3,1.3,1.2,1.3c1,0,1.4-0.7,1.4-1.6v-2.1h-0.9v-0.7h1.8v4.3H-328z"/>
	<path class="st6" d="M-326.1,292.5v-1.7h0.7c0,1,0.8,1.2,1.6,1.2c0.4,0,1-0.2,1-0.8c0-0.7-0.7-0.7-1.3-0.7c-0.9-0.2-2-0.3-2-1.4
		s1-1.6,1.9-1.6c0.6,0,1.3,0.2,1.5,0.7l0,0v-0.6h0.7v1.7h-0.7c0-0.9-0.6-1.1-1.4-1.1c-0.5,0-1.2,0.1-1.2,0.8c0,0.6,0.9,0.6,1.5,0.7
		c0.9,0.2,1.9,0.3,1.9,1.4c0,1.2-1.1,1.6-2.1,1.6c-0.6,0-1.3-0.2-1.5-0.8l0,0v0.7h-0.6V292.5z"/>
	<path class="st6" d="M-317.5,288.2h-1.6v2.9c0,0.4,0.1,0.8,0.6,0.8s0.6-0.5,0.6-0.9h0.8c0,1-0.4,1.7-1.5,1.7
		c-1.3,0-1.3-0.9-1.3-1.9v-2.5h-1v-0.7h1v-1.1l0.9-0.3v1.4h1.6v0.6H-317.5z"/>
	<path class="st6" d="M-316.6,291.8h0.9v-3.6h-0.9v-0.7h1.8v1l0,0c0.2-0.8,0.8-1.1,1.5-1.1c0.2,0,0.3,0,0.4,0v0.7
		c-0.1,0-0.3-0.1-0.5-0.1c-1.3,0-1.4,1.3-1.4,2.4v1.4h1v0.7h-2.8V291.8z"/>
	<path class="st6" d="M-308.5,291.4L-308.5,291.4c-0.2,0.8-0.9,1.1-1.7,1.1c-1,0-2-0.4-2-1.6c0-1.5,1.5-1.6,2.7-1.6h1V289
		c0-0.8-0.4-1.1-1.2-1.1c-0.7,0-1.2,0.1-1.3,0.9h-1c0.1-1.2,1.1-1.6,2.2-1.6c1.2,0,2.2,0.3,2.2,1.6v2.9h0.9v0.7h-1.8L-308.5,291.4
		L-308.5,291.4z M-310.1,291.9c1.1,0,1.6-0.8,1.6-1.8h-0.8c-0.6,0-1.9,0-1.9,0.9C-311.3,291.7-310.7,291.9-310.1,291.9z"/>
	<path class="st6" d="M-302.8,288.2h-1.6v2.9c0,0.4,0.1,0.8,0.6,0.8s0.6-0.5,0.6-0.9h0.8c0,1-0.4,1.7-1.5,1.7
		c-1.3,0-1.3-0.9-1.3-1.9v-2.5h-1v-0.7h1v-1.1l0.9-0.3v1.4h1.6v0.6H-302.8z"/>
	<path class="st6" d="M-302,291.8h0.9v-3.6h-0.9v-0.7h1.8v4.3h0.9v0.7h-2.6L-302,291.8L-302,291.8z M-300.2,286.3h-1v-1h1V286.3z"/>
	<path class="st6" d="M-296.1,287.3c1.6,0,2.6,1,2.6,2.6s-1,2.6-2.6,2.6s-2.7-1-2.7-2.6C-298.8,288.3-297.8,287.3-296.1,287.3z
		 M-296.1,291.9c1.1,0,1.7-0.9,1.7-1.9s-0.5-1.9-1.7-1.9c-1.1,0-1.7,0.9-1.7,1.9S-297.3,291.9-296.1,291.9z"/>
	<path class="st6" d="M-292.7,291.8h0.9v-3.6h-0.9v-0.7h1.8v0.9l0,0c0.2-0.6,0.9-1,1.7-1c1.3,0,1.8,0.6,1.8,1.8v2.6h0.9v0.7h-2.6
		v-0.7h0.9v-2.4c0-0.8-0.3-1.3-1.2-1.3c-1,0-1.4,0.7-1.4,1.6v2.1h0.9v0.7h-2.6v-0.7H-292.7z"/>
	<path class="st6" d="M-285.8,292.5v-1.7h0.7c0,1,0.8,1.2,1.6,1.2c0.4,0,1-0.2,1-0.8c0-0.7-0.7-0.7-1.3-0.7c-0.9-0.2-2-0.3-2-1.4
		s1-1.6,1.9-1.6c0.6,0,1.3,0.2,1.5,0.7l0,0v-0.6h0.7v1.7h-0.7c0-0.9-0.6-1.1-1.4-1.1c-0.5,0-1.2,0.1-1.2,0.8c0,0.6,0.9,0.6,1.5,0.7
		c0.9,0.2,1.9,0.3,1.9,1.4c0,1.2-1.1,1.6-2.1,1.6c-0.6,0-1.3-0.2-1.5-0.8l0,0v0.7h-0.6V292.5z"/>
	<path class="st6" d="M-279.9,291.4h1.1v1.1l-0.5,1.4h-0.6l0.5-1.4h-0.5V291.4z"/>
	<path class="st6" d="M-269.6,289.4h-0.7c-0.1-0.8-0.6-1.3-1.4-1.3c-1.1,0-1.6,0.9-1.6,1.9s0.6,1.9,1.6,1.9c0.7,0,1.3-0.4,1.4-1.1
		h0.8c0,1.2-1.1,1.8-2.2,1.8c-1.6,0-2.6-1-2.6-2.6s1-2.6,2.6-2.6c0.6,0,1.1,0.2,1.4,0.7l0,0v-0.6h0.7L-269.6,289.4L-269.6,289.4z"/>
	<path class="st6" d="M-265.1,291.4L-265.1,291.4c-0.2,0.8-0.9,1.1-1.7,1.1c-1,0-2-0.4-2-1.6c0-1.5,1.5-1.6,2.7-1.6h1V289
		c0-0.8-0.4-1.1-1.2-1.1c-0.7,0-1.2,0.1-1.3,0.9h-1c0.1-1.2,1.1-1.6,2.2-1.6c1.2,0,2.2,0.3,2.2,1.6v2.9h0.9v0.7h-1.8L-265.1,291.4
		L-265.1,291.4z M-266.7,291.9c1.1,0,1.6-0.8,1.6-1.8h-0.8c-0.6,0-1.9,0-1.9,0.9C-267.8,291.7-267.3,291.9-266.7,291.9z"/>
	<path class="st6" d="M-262.8,291.8h0.9v-3.6h-0.9v-0.7h1.8v1l0,0c0.2-0.8,0.8-1.1,1.5-1.1c0.2,0,0.3,0,0.4,0v0.7
		c-0.1,0-0.3-0.1-0.5-0.1c-1.3,0-1.4,1.3-1.4,2.4v1.4h1v0.7h-2.8V291.8z"/>
	<path class="st6" d="M-254.9,288.2h-1.6v2.9c0,0.4,0.1,0.8,0.5,0.8c0.5,0,0.6-0.5,0.6-0.9h0.8c0,1-0.4,1.7-1.5,1.7
		c-1.3,0-1.3-0.9-1.3-1.9v-2.5h-1v-0.7h1v-1.1l0.9-0.3v1.4h1.6V288.2z"/>
	<path class="st6" d="M-251.3,287.3c1.6,0,2.6,1,2.6,2.6s-1,2.6-2.6,2.6s-2.7-1-2.7-2.6C-253.9,288.3-252.9,287.3-251.3,287.3z
		 M-251.3,291.9c1.1,0,1.7-0.9,1.7-1.9s-0.5-1.9-1.7-1.9c-1.1,0-1.7,0.9-1.7,1.9S-252.4,291.9-251.3,291.9z"/>
	<path class="st6" d="M-245.1,287.3c1.6,0,2.6,1,2.6,2.6s-1,2.6-2.6,2.6s-2.7-1-2.7-2.6S-246.8,287.3-245.1,287.3z M-245.1,291.9
		c1.1,0,1.7-0.9,1.7-1.9s-0.5-1.9-1.7-1.9c-1.1,0-1.7,0.9-1.7,1.9S-246.3,291.9-245.1,291.9z"/>
	<path class="st6" d="M-241.7,291.8h0.9v-3.6h-0.9v-0.7h1.8v0.9l0,0c0.2-0.6,0.9-1,1.7-1c1.3,0,1.8,0.6,1.8,1.8v2.6h0.9v0.7h-2.6
		v-0.7h0.9v-2.4c0-0.8-0.3-1.3-1.2-1.3c-1,0-1.4,0.7-1.4,1.6v2.1h0.9v0.7h-2.6v-0.7H-241.7z"/>
	<path class="st6" d="M-234.8,292.5v-1.7h0.7c0,1,0.8,1.2,1.6,1.2c0.4,0,1-0.2,1-0.8c0-0.7-0.7-0.7-1.3-0.7c-0.9-0.2-2-0.3-2-1.4
		s1-1.6,1.9-1.6c0.6,0,1.3,0.2,1.5,0.7l0,0v-0.6h0.7v1.7h-0.7c0-0.9-0.6-1.1-1.4-1.1c-0.5,0-1.2,0.1-1.2,0.8c0,0.6,0.9,0.6,1.5,0.7
		c0.9,0.2,1.9,0.3,1.9,1.4c0,1.2-1.1,1.6-2.1,1.6c-0.6,0-1.3-0.2-1.5-0.8l0,0v0.7h-0.6V292.5z"/>
	<path class="st6" d="M-228.9,291.4h1.1v1.1l-0.5,1.4h-0.6l0.5-1.4h-0.5V291.4z"/>
	<path class="st6" d="M-219.1,291.5L-219.1,291.5c-0.3,0.6-1,1.1-1.8,1.1c-1.7,0-2.4-1.1-2.4-2.6s0.9-2.6,2.4-2.6
		c0.7,0,1.5,0.4,1.8,1l0,0V286h-0.9v-0.7h1.8v6.5h0.9v0.7h-1.8V291.5z M-220.7,288.1c-1.1,0-1.7,0.8-1.7,1.9c0,1,0.5,1.9,1.7,1.9
		c1.1,0,1.6-0.9,1.6-1.9C-219.1,288.9-219.6,288.1-220.7,288.1z"/>
	<path class="st6" d="M-216.7,291.8h0.9v-3.6h-0.9v-0.7h1.8v4.3h0.9v0.7h-2.6L-216.7,291.8L-216.7,291.8z M-215,286.3h-1v-1h1V286.3
		z"/>
	<path class="st6" d="M-209.9,291.4L-209.9,291.4c-0.2,0.8-0.9,1.1-1.7,1.1c-1,0-2-0.4-2-1.6c0-1.5,1.5-1.6,2.7-1.6h1V289
		c0-0.8-0.4-1.1-1.2-1.1c-0.7,0-1.2,0.1-1.3,0.9h-1c0.1-1.2,1.1-1.6,2.2-1.6c1.2,0,2.2,0.3,2.2,1.6v2.9h0.9v0.7h-1.8L-209.9,291.4
		L-209.9,291.4z M-211.5,291.9c1.1,0,1.6-0.8,1.6-1.8h-0.8c-0.6,0-1.9,0-1.9,0.9C-212.6,291.7-212,291.9-211.5,291.9z"/>
	<path class="st6" d="M-201.4,288.2h-0.9v2.7c0,0.8,0.1,1.8-0.3,2.5c-0.4,0.8-1.4,1-2.3,1c-1.1,0-2.4-0.2-2.4-1.5h1
		c0,0.7,0.7,0.8,1.3,0.8c1.3,0,1.7-0.5,1.7-1.8v-0.6l0,0c-0.3,0.7-1.1,1-1.8,1c-1.5,0-2.4-1-2.4-2.6c0-1.5,0.9-2.5,2.4-2.5
		c0.8,0,1.5,0.3,1.9,1l0,0l0,0l0,0v-0.9h1.8V288.2z M-204.8,291.7c1.1,0,1.6-0.8,1.6-1.8s-0.5-1.8-1.6-1.8c-1.2,0-1.8,0.7-1.8,1.8
		C-206.5,290.9-205.9,291.7-204.8,291.7z"/>
	<path class="st6" d="M-200.8,291.8h0.9v-3.6h-0.9v-0.7h1.8v1l0,0c0.2-0.8,0.8-1.1,1.5-1.1c0.2,0,0.3,0,0.4,0v0.7
		c-0.1,0-0.3-0.1-0.5-0.1c-1.3,0-1.4,1.3-1.4,2.4v1.4h1v0.7h-2.8V291.8z"/>
	<path class="st6" d="M-192.7,291.4L-192.7,291.4c-0.2,0.8-0.9,1.1-1.7,1.1c-1,0-2-0.4-2-1.6c0-1.5,1.5-1.6,2.7-1.6h1V289
		c0-0.8-0.4-1.1-1.2-1.1c-0.7,0-1.2,0.1-1.3,0.9h-1c0.1-1.2,1.1-1.6,2.2-1.6c1.2,0,2.2,0.3,2.2,1.6v2.9h0.9v0.7h-1.8L-192.7,291.4
		L-192.7,291.4z M-194.3,291.9c1.1,0,1.6-0.8,1.6-1.8h-0.8c-0.6,0-1.9,0-1.9,0.9C-195.4,291.7-194.9,291.9-194.3,291.9z"/>
	<path class="st6" d="M-190.4,291.8h0.9v-3.6h-0.9v-0.7h1.8v0.9l0,0c0.2-0.6,0.8-1,1.6-1s1.3,0.3,1.6,1c0.3-0.6,0.9-1,1.6-1
		c1.2,0,1.8,0.6,1.8,1.7v2.7h0.9v0.7h-2.6v-0.7h0.9v-2.1c0-0.8,0-1.6-1.1-1.6c-1,0-1.3,0.8-1.3,1.6v2.1h0.9v0.7h-2.6v-0.7h0.9v-2.1
		c0-0.9,0-1.6-1.1-1.6c-1,0-1.4,0.8-1.4,1.7v2.1h0.9v0.7h-2.6v-0.8H-190.4z"/>
	<path class="st6" d="M-180.4,292.5v-1.7h0.7c0,1,0.8,1.2,1.6,1.2c0.4,0,1-0.2,1-0.8c0-0.7-0.7-0.7-1.3-0.7c-0.9-0.2-2-0.3-2-1.4
		s1-1.6,1.9-1.6c0.6,0,1.3,0.2,1.5,0.7l0,0v-0.6h0.7v1.7h-0.7c0-0.9-0.6-1.1-1.4-1.1c-0.5,0-1.2,0.1-1.2,0.8c0,0.6,0.9,0.6,1.5,0.7
		c0.9,0.2,1.9,0.3,1.9,1.4c0,1.2-1.1,1.6-2.1,1.6c-0.6,0-1.3-0.2-1.5-0.8l0,0v0.7h-0.6V292.5z"/>
	<path class="st6" d="M-174.5,291.4h1.1v1.1l-0.5,1.4h-0.6l0.5-1.4h-0.5V291.4z"/>
</g>
<g class="st3">
	<path class="st6" d="M-296.9,302.6h-0.7c-0.1-0.8-0.6-1.3-1.4-1.3c-1.1,0-1.6,0.9-1.6,1.9s0.6,1.9,1.6,1.9c0.7,0,1.3-0.4,1.4-1.1
		h0.8c0,1.2-1.1,1.8-2.2,1.8c-1.6,0-2.6-1-2.6-2.6s1-2.6,2.6-2.6c0.6,0,1.1,0.2,1.4,0.7l0,0v-0.6h0.7L-296.9,302.6L-296.9,302.6z"/>
	<path class="st6" d="M-296.1,305h0.9v-5.8h-0.9v-0.7h1.8v3.1l0,0c0.2-0.6,0.9-1,1.7-1c1.3,0,1.8,0.6,1.8,1.8v2.6h0.9v0.7h-2.6V305
		h0.9v-2.4c0-0.8-0.3-1.3-1.2-1.3c-1,0-1.4,0.7-1.4,1.6v2.1h0.9v0.7h-2.6V305H-296.1z"/>
	<path class="st6" d="M-285.7,304.6L-285.7,304.6c-0.2,0.8-0.9,1.1-1.7,1.1c-1,0-2-0.4-2-1.6c0-1.5,1.5-1.6,2.7-1.6h1v-0.3
		c0-0.8-0.4-1.1-1.2-1.1c-0.7,0-1.2,0.1-1.3,0.9h-1c0.1-1.2,1.1-1.6,2.2-1.6c1.2,0,2.2,0.3,2.2,1.6v2.9h0.9v0.7h-1.8L-285.7,304.6
		L-285.7,304.6z M-287.3,305.1c1.1,0,1.6-0.8,1.6-1.8h-0.8c-0.6,0-1.9,0-1.9,0.9C-288.4,304.9-287.8,305.1-287.3,305.1z"/>
	<path class="st6" d="M-283.3,305h0.9v-3.6h-0.9v-0.7h1.8v1l0,0c0.2-0.8,0.8-1.1,1.5-1.1c0.2,0,0.3,0,0.4,0v0.7
		c-0.1,0-0.3-0.1-0.5-0.1c-1.3,0-1.4,1.3-1.4,2.4v1.4h1v0.7h-2.8V305z"/>
	<path class="st6" d="M-275.4,301.4h-1.6v2.9c0,0.4,0.1,0.8,0.6,0.8s0.6-0.5,0.6-0.9h0.8c0,1-0.4,1.7-1.5,1.7
		c-1.3,0-1.3-0.9-1.3-1.9v-2.5h-1v-0.7h1v-1.1l0.9-0.3v1.4h1.6v0.6H-275.4z"/>
	<path class="st6" d="M-274.3,305.7V304h0.7c0,1,0.8,1.2,1.6,1.2c0.4,0,1-0.2,1-0.8c0-0.7-0.7-0.7-1.3-0.7c-0.9-0.2-2-0.3-2-1.4
		s1-1.6,1.9-1.6c0.6,0,1.3,0.2,1.5,0.7l0,0v-0.6h0.7v1.7h-0.7c0-0.9-0.6-1.1-1.4-1.1c-0.5,0-1.2,0.1-1.2,0.8c0,0.6,0.9,0.6,1.5,0.7
		c0.9,0.2,1.9,0.3,1.9,1.4c0,1.2-1.1,1.6-2.1,1.6c-0.6,0-1.3-0.2-1.5-0.8l0,0v0.7h-0.6V305.7z"/>
	<path class="st6" d="M-262.2,304.6L-262.2,304.6c-0.2,0.8-0.9,1.1-1.7,1.1c-1,0-2-0.4-2-1.6c0-1.5,1.5-1.6,2.7-1.6h1v-0.3
		c0-0.8-0.4-1.1-1.2-1.1c-0.7,0-1.2,0.1-1.3,0.9h-1c0.1-1.2,1.1-1.6,2.2-1.6c1.2,0,2.2,0.3,2.2,1.6v2.9h0.9v0.7h-1.8V304.6z
		 M-263.8,305.1c1.1,0,1.6-0.8,1.6-1.8h-0.8c-0.6,0-1.9,0-1.9,0.9C-264.9,304.9-264.3,305.1-263.8,305.1z"/>
	<path class="st6" d="M-259.8,305h0.9v-3.6h-0.9v-0.7h1.8v0.9l0,0c0.2-0.6,0.9-1,1.7-1c1.3,0,1.8,0.6,1.8,1.8v2.6h0.9v0.7h-2.6V305
		h0.9v-2.4c0-0.8-0.3-1.3-1.2-1.3c-1,0-1.4,0.7-1.4,1.6v2.1h0.9v0.7h-2.6V305H-259.8z"/>
	<path class="st6" d="M-248.8,304.7L-248.8,304.7c-0.3,0.6-1,1.1-1.8,1.1c-1.7,0-2.4-1.1-2.4-2.6s0.9-2.6,2.4-2.6
		c0.7,0,1.5,0.4,1.8,1l0,0v-2.4h-0.9v-0.7h1.8v6.5h0.9v0.7h-1.8V304.7z M-250.4,301.3c-1.1,0-1.7,0.8-1.7,1.9c0,1,0.5,1.9,1.7,1.9
		c1.1,0,1.6-0.9,1.6-1.9C-248.8,302.1-249.3,301.3-250.4,301.3z"/>
	<path class="st6" d="M-243.4,305h0.9v-5.8h-0.9v-0.7h1.8v6.5h0.9v0.7h-2.6L-243.4,305L-243.4,305z"/>
	<path class="st6" d="M-237.6,300.5c1.6,0,2.6,1,2.6,2.6s-1,2.6-2.6,2.6s-2.7-1-2.7-2.6C-240.2,301.5-239.2,300.5-237.6,300.5z
		 M-237.6,305.1c1.1,0,1.7-0.9,1.7-1.9s-0.5-1.9-1.7-1.9c-1.1,0-1.7,0.9-1.7,1.9S-238.7,305.1-237.6,305.1z"/>
	<path class="st6" d="M-228.1,301.4h-0.9v2.7c0,0.8,0.1,1.8-0.3,2.5c-0.4,0.8-1.4,1-2.3,1c-1.1,0-2.4-0.2-2.4-1.5h1
		c0,0.7,0.7,0.8,1.3,0.8c1.3,0,1.7-0.5,1.7-1.8v-0.6l0,0c-0.3,0.7-1.1,1-1.8,1c-1.5,0-2.4-1-2.4-2.6c0-1.5,0.9-2.5,2.4-2.5
		c0.8,0,1.5,0.3,1.9,1l0,0l0,0l0,0v-0.9h1.8V301.4z M-231.5,304.9c1.1,0,1.6-0.8,1.6-1.8s-0.5-1.8-1.6-1.8c-1.2,0-1.8,0.7-1.8,1.8
		C-233.1,304.1-232.6,304.9-231.5,304.9z"/>
	<path class="st6" d="M-224.7,300.5c1.6,0,2.6,1,2.6,2.6s-1,2.6-2.6,2.6s-2.7-1-2.7-2.6S-226.3,300.5-224.7,300.5z M-224.7,305.1
		c1.1,0,1.7-0.9,1.7-1.9s-0.5-1.9-1.7-1.9c-1.1,0-1.7,0.9-1.7,1.9S-225.9,305.1-224.7,305.1z"/>
	<path class="st6" d="M-221.1,305.7V304h0.7c0,1,0.8,1.2,1.6,1.2c0.4,0,1-0.2,1-0.8c0-0.7-0.7-0.7-1.3-0.7c-0.9-0.2-2-0.3-2-1.4
		s1-1.6,1.9-1.6c0.6,0,1.3,0.2,1.5,0.7l0,0v-0.6h0.7v1.7h-0.7c0-0.9-0.6-1.1-1.4-1.1c-0.5,0-1.2,0.1-1.2,0.8c0,0.6,0.9,0.6,1.5,0.7
		c0.9,0.2,1.9,0.3,1.9,1.4c0,1.2-1.1,1.6-2.1,1.6c-0.6,0-1.3-0.2-1.5-0.8l0,0v0.7h-0.6V305.7z"/>
	<path class="st6" d="M-215.2,304.6h1.1v1.1h-1.1V304.6z"/>
</g>
</svg>
