<?xml version="1.0" encoding="utf-8"?>
<!-- Generator: Adobe Illustrator 19.1.0, SVG Export Plug-In . SVG Version: 6.00 Build 0)  -->
<svg version="1.1" id="Layer_1" xmlns="http://www.w3.org/2000/svg" xmlns:xlink="http://www.w3.org/1999/xlink" x="0px" y="0px"
	 viewBox="-363 177.4 231.3 206.6" style="enable-background:new -363 177.4 231.3 206.6;" xml:space="preserve">
<style type="text/css">
	.st0{fill:#8BC53F;}
	.st1{fill:#FFFFFF;}
	.st2{fill:#ECEEEE;}
	.st3{enable-background:new    ;}
	.st4{fill:#767676;}
	.st5{fill:none;}
	.st6{fill:#231F20;}
	.st7{fill:#39A5E1;}
	.st8{fill:#EBEDED;}
	.st9{fill:#BDBBBC;}
	.st10{fill:#8DC34A;}
</style>
<g>
	<g>
		<polygon class="st0" points="-189.5,177.4 -305.2,177.4 -327.4,217.4 -167.2,217.4 		"/>
		<polygon class="st1" points="-167.2,217.4 -327.4,217.4 -363,281.4 -306,384 -188.6,384 -131.7,281.4 		"/>
	</g>
	<path class="st2" d="M-243.4,185.3c-1.3,0-2.9,1.1-3.5,2.8c-0.1,0-0.2,0-0.4,0c-0.1,0-0.2,0-0.4,0c-0.5-1.7-2.3-2.8-3.7-2.8
		c-1.3,0-2.2,0.8-2.4,2.2c-0.1,0.4,0.2,0.7,0.6,0.8c0.4,0.1,0.7-0.2,0.8-0.6c0.1-0.7,0.5-1,1.1-1c0.9,0,2.1,0.8,2.4,2
		c-0.2,0.1-0.4,0.3-0.5,0.4c-0.8,0.8-1.3,1.8-1.5,2.4l-0.1,0.1c-0.3,0.6-0.5,1.1-0.7,1.6c-1.2,0.7-2.5,1.6-3.5,2.5
		c-1.2,1.2-1.8,2.4-1.8,3.5c0,1,0.5,1.9,1.4,2.7c0.9,0.8,1.9,1.1,2.8,0.8c0.1,0.3,0.2,0.6,0.3,0.9c1.4,3.7,4.5,5,4.6,5l0.2,0.1
		l0.3-0.1c0.1,0,1.4-0.5,2.8-1.9c1-1,1.9-2.3,2.5-4c0,0,0,0,0.1,0c0.7,0.2,1.8,0.3,3-0.7c0.1-0.1,0.2-0.2,0.3-0.3
		c1-1,1.3-2.1,1.1-3.3c-0.5-2-2.7-3.8-4.9-5.1c-0.2-0.7-0.5-1.4-0.9-2.2c-0.6-1.4-1.4-2.2-2.1-2.6c0.3-1.1,1.4-1.9,2.2-1.9
		c0.5,0,0.8,0.4,0.9,1c0,0.4,0.4,0.6,0.8,0.6c0.2,0,0.3-0.1,0.4-0.2c0.1-0.1,0.2-0.4,0.2-0.6C-241.4,185.9-242.5,185.3-243.4,185.3z
		 M-239.1,198.7c0.2,0.8-0.1,1.5-0.9,2.2s-1.3,0.6-1.7,0.5c0,0-0.1,0-0.1-0.1c-0.4-0.2-0.8-0.5-1.2-1c-0.3-0.3-0.5-0.7-0.8-1.1
		c-0.4-0.7-0.8-1.5-1.1-2.3c-0.3-0.6-0.5-1.2-0.7-1.8c-0.3-0.8-0.5-1.6-0.7-2.2h0.1c1.2,0.5,2.8,1.4,4.2,2.3
		C-240.6,196.4-239.4,197.6-239.1,198.7z M-254.7,200.8c-0.6-0.5-0.9-1.1-0.9-1.7c0-0.8,0.4-1.6,1.4-2.5c0.5-0.5,1.1-1,1.8-1.5
		c1.4-1,3-1.7,4.2-2.2l0,0c-0.2,0.6-0.4,1.4-0.7,2.2c-0.2,0.6-0.5,1.2-0.7,1.8c-0.3,0.8-0.7,1.6-1.2,2.2c-0.3,0.5-0.6,0.9-0.9,1.2
		c-0.1,0.1-0.1,0.2-0.2,0.2c-0.4,0.4-0.7,0.6-1,0.7C-253.6,201.5-254.1,201.3-254.7,200.8z M-247.6,195.2h0.5
		c0.2,0.6,0.4,1.2,0.7,1.8h-1.9C-248,196.3-247.8,195.7-247.6,195.2z M-249.3,199.2h4c0.4,0.7,0.7,1.3,1.2,1.8l-6.3-0.1
		C-250.1,200.5-249.7,199.8-249.3,199.2z M-244.9,205.1h-5.2c-0.4-0.5-0.7-1.1-1-1.8l7.4,0.1C-244.1,204-244.5,204.6-244.9,205.1z
		 M-244.8,191.7c0.1,0.2,0.2,0.4,0.3,0.6c-1-0.5-1.8-0.8-2.4-1c-0.1-0.1-0.2-0.1-0.4-0.1c-0.1,0-0.3,0-0.4,0.1
		c-0.6,0.2-1.4,0.5-2.2,0.9v-0.1l0.1-0.1c0.3-0.5,0.7-1.4,1.3-2c0.4-0.4,0.8-0.6,1.2-0.6C-246.3,189.3-245.5,190.1-244.8,191.7z"/>
	<g class="st3">
		<path class="st4" d="M-320.3,234.1h2.9l3.4,8.7h-2.7l-0.6-1.7h-3.5l-0.6,1.7h-2.4L-320.3,234.1z M-317.8,239.4l-1.1-3.6h0
			l-1.2,3.6H-317.8z"/>
		<path class="st4" d="M-306.8,234.1v7.2c0,0.5,0,1,0.1,1.5h-2.1l0-0.9c-0.2,0.3-0.7,1-2,1c-2.1,0-2.7-1.7-2.7-3.2
			c0-1.3,0.3-1.9,0.8-2.3c0.6-0.6,1.2-0.8,2-0.8c1,0,1.4,0.4,1.8,0.8v-3.3H-306.8z M-309,239.7c0-1-0.3-1.8-1.1-1.8
			c-1,0-1.1,1.3-1.1,1.8c0,0.6,0.1,1.8,1.1,1.8C-309.3,241.6-309,240.8-309,239.7z"/>
		<path class="st4" d="M-302,236.6c2,0,3.5,1,3.5,3.1c0,0.9-0.3,1.8-0.9,2.4c-0.5,0.5-1.2,0.9-2.5,0.9c-1.3,0-2.2-0.3-2.8-0.9
			c-0.7-0.7-0.9-1.6-0.9-2.3C-305.6,237.9-304.4,236.6-302,236.6z M-302.9,241.2c0.3,0.5,0.7,0.5,0.9,0.5c1,0,1.2-1.1,1.2-1.9
			c0-1-0.3-1.9-1.2-1.9c-1,0-1.2,1-1.2,1.9C-303.2,240.2-303.2,240.7-302.9,241.2z"/>
		<path class="st4" d="M-295,234.1v3.3c0.6-0.8,1.7-0.8,1.9-0.8c1.2,0,1.8,0.6,2.2,1.3c0.3,0.6,0.4,1.2,0.4,1.9
			c0,1.2-0.3,1.8-0.8,2.4c-0.7,0.7-1.4,0.8-1.9,0.8c-0.4,0-1.3,0-2-1l-0.1,0.9h-2.1c0.1-0.7,0.1-1.5,0.1-1.5v-7.2H-295z
			 M-293.9,241.6c1.1,0,1.1-1.4,1.1-1.8c0-0.6-0.1-1.8-1.1-1.8c-1.1,0-1.2,1.4-1.2,1.8C-295.1,240.1-295,241.6-293.9,241.6z"/>
		<path class="st4" d="M-287.5,240.2c0,0.3,0,1.5,1.2,1.5c0.6,0,1-0.3,1-0.9h2.1c-0.2,1.5-1.6,2.1-3.1,2.1c-2.1,0-3.2-1.1-3.2-3
			c0-2,1-3.3,3.2-3.3c1.7,0,2.5,0.7,2.9,1.5c0.3,0.5,0.3,1.1,0.3,2.1H-287.5z M-285.3,239c0-0.3-0.1-1.3-1.1-1.3s-1.1,1-1.1,1.3
			H-285.3z"/>
		<path class="st4" d="M-278,234.1h2.5v8.7h-2.5V234.1z"/>
		<path class="st4" d="M-273.9,234.1h2.3v8.7h-2.3V234.1z"/>
		<path class="st4" d="M-269.9,234.1h2.3v8.7h-2.3V234.1z"/>
		<path class="st4" d="M-263.7,236.8v3.5c0,0.3,0,1.2,0.9,1.2c0.9,0,0.9-0.9,0.9-1.2v-3.5h2.3v5c0,0.5,0,0.6,0,1h-2.2l0-0.9
			c-0.6,1-1.4,1-1.9,1c-2.1,0-2.2-1.6-2.2-2.7v-3.4H-263.7z"/>
		<path class="st4" d="M-256.1,240.8c0,0.1,0,0.3,0.1,0.5c0.1,0.2,0.3,0.4,0.7,0.4c0.5,0,0.7-0.3,0.7-0.6c0-0.4-0.3-0.5-0.9-0.7
			l-1.2-0.3c-0.4-0.1-1.5-0.4-1.5-1.6c0-0.6,0.3-1.1,0.7-1.4c0.5-0.4,1.2-0.5,2.1-0.5c1.3,0,2.7,0.3,2.7,2h-2.1c0-0.2,0-0.4-0.1-0.6
			c-0.1-0.2-0.3-0.3-0.6-0.3c-0.3,0-0.7,0.2-0.7,0.5c0,0.3,0.3,0.5,0.6,0.6l1.6,0.4c0.6,0.2,1.4,0.5,1.4,1.7c0,2-2.4,2-2.9,2
			c-1.2,0-3-0.2-3-2.1H-256.1z"/>
		<path class="st4" d="M-247.1,236.8v1.4h-1.5v2.1c0,0.7,0,1.1,0.9,1.1c0.2,0,0.3,0,0.6,0v1.4c-0.3,0-0.7,0.1-1.5,0.1
			c-1.8,0-2.2-0.6-2.2-1.8v-2.9h-1.1v-1.4h1.2v-0.9l2.2-0.9v1.8H-247.1z"/>
		<path class="st4" d="M-245.9,238l-0.1-1.3h2.2l0,1.2c0.5-1.3,1.6-1.3,2.1-1.3v1.9c-0.3,0-0.3,0-0.5,0c-1.4,0-1.6,1-1.6,1.6v2.6
			h-2.2V238z"/>
		<path class="st4" d="M-236.8,242.8c0-0.2-0.1-0.5-0.1-0.9c-0.3,0.4-0.7,1-2,1c-1.5,0-2.1-0.8-2.1-1.9c0-1.6,1.5-2.2,4.1-2.1
			c0-0.6-0.1-1.2-0.8-1.2c-0.4,0-0.8,0.2-0.8,0.9h-2.2c0-0.3,0-0.8,0.5-1.3c0.5-0.5,1.4-0.8,2.5-0.8c0.5,0,1.7,0.1,2.3,0.7
			c0.4,0.4,0.5,0.9,0.5,1.6v2.8c0,0.4,0,0.6,0.1,1.2H-236.8z M-238.8,240.8c0,0.4,0.3,0.8,0.8,0.8c0.2,0,0.7-0.1,0.9-0.6
			c0.2-0.4,0.2-0.9,0.2-1.1C-237.8,240-238.8,240-238.8,240.8z"/>
		<path class="st4" d="M-229.1,236.8v1.4h-1.5v2.1c0,0.7,0,1.1,0.9,1.1c0.2,0,0.3,0,0.6,0v1.4c-0.3,0-0.7,0.1-1.5,0.1
			c-1.8,0-2.2-0.6-2.2-1.8v-2.9h-1.1v-1.4h1.2v-0.9l2.2-0.9v1.8H-229.1z"/>
		<path class="st4" d="M-224.7,236.6c2,0,3.5,1,3.5,3.1c0,0.9-0.3,1.8-0.9,2.4c-0.5,0.5-1.2,0.9-2.5,0.9c-1.3,0-2.2-0.3-2.8-0.9
			c-0.7-0.7-0.9-1.6-0.9-2.3C-228.2,237.9-227.1,236.6-224.7,236.6z M-225.6,241.2c0.3,0.5,0.7,0.5,0.9,0.5c1,0,1.2-1.1,1.2-1.9
			c0-1-0.3-1.9-1.2-1.9c-1,0-1.2,1-1.2,1.9C-225.9,240.2-225.9,240.7-225.6,241.2z"/>
		<path class="st4" d="M-219.9,238l-0.1-1.3h2.2l0,1.2c0.5-1.3,1.6-1.3,2.1-1.3v1.9c-0.3,0-0.3,0-0.5,0c-1.4,0-1.6,1-1.6,1.6v2.6
			h-2.2V238z"/>
		<path class="st4" d="M-210.6,234.1h3.5c1.1,0,2.2,0,3,0.7c0.3,0.3,0.7,0.7,0.7,1.5c0,1.5-1.4,1.9-1.8,2v0c0.5,0.1,2.1,0.4,2.1,2.1
			c0,0.7-0.3,1.5-1.2,2c-0.7,0.4-1.6,0.4-2.3,0.4h-3.8V234.1z M-208.3,237.6h1.1c0.4,0,0.6,0,0.8-0.1c0.3-0.2,0.5-0.5,0.5-0.8
			c0-0.3-0.1-0.6-0.3-0.8c-0.3-0.2-0.5-0.2-0.8-0.2h-1.3V237.6z M-208.3,241.2h1.3c0.3,0,1.2,0,1.2-1c0-1-1-1-1.3-1h-1.3V241.2z"/>
		<path class="st4" d="M-198.2,242.8c0-0.2-0.1-0.5-0.1-0.9c-0.3,0.4-0.7,1-2,1c-1.5,0-2.1-0.8-2.1-1.9c0-1.6,1.5-2.2,4.1-2.1
			c0-0.6-0.1-1.2-0.8-1.2c-0.4,0-0.8,0.2-0.8,0.9h-2.2c0-0.3,0-0.8,0.5-1.3c0.5-0.5,1.4-0.8,2.5-0.8c0.5,0,1.7,0.1,2.3,0.7
			c0.4,0.4,0.5,0.9,0.5,1.6v2.8c0,0.4,0,0.6,0.1,1.2H-198.2z M-200.1,240.8c0,0.4,0.3,0.8,0.8,0.8c0.2,0,0.7-0.1,0.9-0.6
			c0.2-0.4,0.2-0.9,0.2-1.1C-199.2,240-200.1,240-200.1,240.8z"/>
		<path class="st4" d="M-192.8,240.8c0,0.1,0,0.3,0.1,0.5c0.1,0.2,0.3,0.4,0.7,0.4c0.5,0,0.7-0.3,0.7-0.6c0-0.4-0.3-0.5-0.9-0.7
			l-1.2-0.3c-0.4-0.1-1.5-0.4-1.5-1.6c0-0.6,0.3-1.1,0.7-1.4c0.5-0.4,1.2-0.5,2.1-0.5c1.3,0,2.7,0.3,2.7,2h-2.1c0-0.2,0-0.4-0.1-0.6
			c-0.1-0.2-0.3-0.3-0.6-0.3c-0.3,0-0.7,0.2-0.7,0.5c0,0.3,0.3,0.5,0.6,0.6l1.6,0.4c0.6,0.2,1.4,0.5,1.4,1.7c0,2-2.4,2-2.9,2
			c-1.2,0-3-0.2-3-2.1H-192.8z"/>
		<path class="st4" d="M-187.9,234.1h2.3v1.6h-2.3V234.1z M-187.9,236.8h2.3v6h-2.3V236.8z"/>
		<path class="st4" d="M-180.1,238.9c0-0.6-0.2-1-0.8-1c-0.8,0-1,0.8-1,1.9c0,1.6,0.4,1.9,1,1.9c0.8,0,0.8-0.8,0.8-1.2h2.3
			c0,1.5-1.2,2.5-3,2.5c-1.9,0-3.4-1-3.4-3.2c0-2.4,1.7-3.2,3.4-3.2c0.6,0,1.7,0.1,2.4,0.9c0.5,0.6,0.6,1.1,0.6,1.5H-180.1z"/>
		<path class="st4" d="M-174.8,240.8c0,0.1,0,0.3,0.1,0.5c0.1,0.2,0.3,0.4,0.7,0.4c0.5,0,0.7-0.3,0.7-0.6c0-0.4-0.3-0.5-0.9-0.7
			l-1.2-0.3c-0.4-0.1-1.5-0.4-1.5-1.6c0-0.6,0.3-1.1,0.7-1.4c0.5-0.4,1.2-0.5,2.1-0.5c1.3,0,2.7,0.3,2.7,2h-2.1c0-0.2,0-0.4-0.1-0.6
			c-0.1-0.2-0.3-0.3-0.6-0.3c-0.3,0-0.7,0.2-0.7,0.5c0,0.3,0.3,0.5,0.6,0.6l1.6,0.4c0.6,0.2,1.4,0.5,1.4,1.7c0,2-2.4,2-2.9,2
			c-1.2,0-3-0.2-3-2.1H-174.8z"/>
	</g>
	<rect x="-339.7" y="255.3" class="st5" width="180.6" height="51.1"/>
	<g class="st3">
		<path class="st6" d="M-326.2,263.7h1.1v-5.8h-1.1v-0.7h3.2v0.7h-1.1v5.8h1.1v0.7h-3.2V263.7z"/>
		<path class="st6" d="M-322.5,263.7h0.9v-5.8h-0.9v-0.7h1.8v6.5h0.9v0.7h-2.6V263.7z"/>
		<path class="st6" d="M-319.4,263.7h0.9v-5.8h-0.9v-0.7h1.8v6.5h0.9v0.7h-2.6V263.7z"/>
		<path class="st6" d="M-311.2,263.7h0.9v0.7h-1.8v-0.9h0c-0.2,0.6-0.9,1-1.6,1c-1.3,0-1.8-0.6-1.8-1.8v-2.6h-0.9v-0.7h1.8v3.1
			c0,0.8,0.3,1.3,1.2,1.3c1,0,1.4-0.7,1.4-1.6v-2.1h-0.9v-0.7h1.8V263.7z"/>
		<path class="st6" d="M-309.3,264.4v-1.7h0.7c0,1,0.8,1.2,1.6,1.2c0.4,0,1-0.2,1-0.8c0-0.7-0.7-0.7-1.3-0.7c-0.9-0.2-2-0.3-2-1.4
			c0-1.1,1-1.6,1.9-1.6c0.6,0,1.3,0.2,1.5,0.7h0v-0.6h0.7v1.7h-0.7c0-0.9-0.6-1.1-1.4-1.1c-0.5,0-1.2,0.1-1.2,0.8
			c0,0.6,0.9,0.6,1.5,0.7c0.9,0.2,1.9,0.3,1.9,1.4c0,1.2-1.1,1.6-2.1,1.6c-0.6,0-1.3-0.2-1.5-0.8h0v0.7H-309.3z"/>
		<path class="st6" d="M-300.7,260.1h-1.6v2.9c0,0.4,0.1,0.8,0.6,0.8c0.5,0,0.6-0.5,0.6-0.9h0.8c0,1-0.4,1.7-1.5,1.7
			c-1.3,0-1.3-0.9-1.3-1.9v-2.5h-1v-0.7h1v-1.1l0.9-0.3v1.4h1.6V260.1z"/>
		<path class="st6" d="M-299.8,263.7h0.9v-3.6h-0.9v-0.7h1.8v1h0c0.2-0.8,0.8-1.1,1.5-1.1c0.2,0,0.3,0,0.4,0v0.7
			c-0.1,0-0.3-0.1-0.5-0.1c-1.3,0-1.4,1.3-1.4,2.4v1.4h1v0.7h-2.8V263.7z"/>
		<path class="st6" d="M-291.7,263.3L-291.7,263.3c-0.2,0.8-0.9,1.1-1.7,1.1c-1,0-2-0.4-2-1.6c0-1.5,1.5-1.6,2.7-1.6h1V261
			c0-0.8-0.4-1.1-1.2-1.1c-0.7,0-1.2,0.1-1.3,0.9h-1c0.1-1.2,1.1-1.6,2.2-1.6c1.2,0,2.2,0.3,2.2,1.6v2.9h0.9v0.7h-1.8V263.3z
			 M-293.3,263.8c1.1,0,1.6-0.8,1.6-1.8h-0.8c-0.6,0-1.9,0-1.9,0.9C-294.4,263.6-293.9,263.8-293.3,263.8z"/>
		<path class="st6" d="M-286,260.1h-1.6v2.9c0,0.4,0.1,0.8,0.6,0.8c0.5,0,0.6-0.5,0.6-0.9h0.8c0,1-0.4,1.7-1.5,1.7
			c-1.3,0-1.3-0.9-1.3-1.9v-2.5h-1v-0.7h1v-1.1l0.9-0.3v1.4h1.6V260.1z"/>
		<path class="st6" d="M-282.4,259.2c1.6,0,2.6,1,2.6,2.6c0,1.6-1,2.6-2.6,2.6c-1.6,0-2.7-1-2.7-2.6
			C-285.1,260.2-284,259.2-282.4,259.2z M-282.4,263.8c1.1,0,1.7-0.9,1.7-1.9s-0.5-1.9-1.7-1.9c-1.1,0-1.7,0.9-1.7,1.9
			S-283.5,263.8-282.4,263.8z"/>
		<path class="st6" d="M-279,263.7h0.9v-3.6h-0.9v-0.7h1.8v1h0c0.2-0.8,0.8-1.1,1.5-1.1c0.2,0,0.3,0,0.4,0v0.7
			c-0.1,0-0.3-0.1-0.5-0.1c-1.3,0-1.4,1.3-1.4,2.4v1.4h1v0.7h-2.8V263.7z"/>
		<path class="st6" d="M-271.7,263.7h0.9v-3.6h-0.9v-0.7h1.8v4.3h0.9v0.7h-2.6V263.7z M-269.9,258.2h-1v-1h1V258.2z"/>
		<path class="st6" d="M-268.4,264.4v-1.7h0.7c0,1,0.8,1.2,1.6,1.2c0.4,0,1-0.2,1-0.8c0-0.7-0.7-0.7-1.3-0.7c-0.9-0.2-2-0.3-2-1.4
			c0-1.1,1-1.6,1.9-1.6c0.6,0,1.3,0.2,1.5,0.7h0v-0.6h0.7v1.7h-0.7c0-0.9-0.6-1.1-1.4-1.1c-0.5,0-1.2,0.1-1.2,0.8
			c0,0.6,0.9,0.6,1.5,0.7c0.9,0.2,1.9,0.3,1.9,1.4c0,1.2-1.1,1.6-2.1,1.6c-0.6,0-1.3-0.2-1.5-0.8h0v0.7H-268.4z"/>
		<path class="st6" d="M-256.3,263.3L-256.3,263.3c-0.2,0.8-0.9,1.1-1.7,1.1c-1,0-2-0.4-2-1.6c0-1.5,1.5-1.6,2.7-1.6h1V261
			c0-0.8-0.4-1.1-1.2-1.1c-0.7,0-1.2,0.1-1.3,0.9h-1c0.1-1.2,1.1-1.6,2.2-1.6c1.2,0,2.2,0.3,2.2,1.6v2.9h0.9v0.7h-1.8V263.3z
			 M-257.9,263.8c1.1,0,1.6-0.8,1.6-1.8h-0.8c-0.6,0-1.9,0-1.9,0.9C-259,263.6-258.4,263.8-257.9,263.8z"/>
		<path class="st6" d="M-245.3,260.1h-0.6l-1.8,4.3h-1.1l-1.7-4.3h-0.6v-0.7h2.5v0.7h-0.9l1.4,3.5l1.4-3.5h-0.9v-0.7h2.4V260.1z"/>
		<path class="st6" d="M-243.6,262.1c0,1.2,0.6,1.7,1.8,1.7c0.6,0,1.4-0.3,1.4-1h0.8c0,1.2-1.3,1.7-2.4,1.7c-1.6,0-2.7-1-2.7-2.6
			c0-1.6,1-2.6,2.7-2.6c1.8,0,2.4,1.3,2.4,2.9H-243.6z M-240.4,261.4c-0.1-0.9-0.6-1.5-1.6-1.5c-0.9,0-1.6,0.5-1.6,1.5H-240.4z"/>
		<path class="st6" d="M-233.8,261.3h-0.7c-0.1-0.8-0.6-1.3-1.4-1.3c-1.1,0-1.6,0.9-1.6,1.9s0.6,1.9,1.6,1.9c0.7,0,1.3-0.4,1.4-1.1
			h0.8c0,1.2-1.1,1.8-2.2,1.8c-1.6,0-2.6-1-2.6-2.6c0-1.6,1-2.6,2.6-2.6c0.6,0,1.1,0.2,1.4,0.7h0v-0.6h0.7V261.3z"/>
		<path class="st6" d="M-229.8,260.1h-1.6v2.9c0,0.4,0.1,0.8,0.5,0.8c0.5,0,0.6-0.5,0.6-0.9h0.8c0,1-0.4,1.7-1.5,1.7
			c-1.3,0-1.3-0.9-1.3-1.9v-2.5h-1v-0.7h1v-1.1l0.9-0.3v1.4h1.6V260.1z"/>
		<path class="st6" d="M-226.1,259.2c1.6,0,2.6,1,2.6,2.6c0,1.6-1,2.6-2.6,2.6s-2.7-1-2.7-2.6C-228.8,260.2-227.8,259.2-226.1,259.2
			z M-226.1,263.8c1.1,0,1.7-0.9,1.7-1.9s-0.5-1.9-1.7-1.9s-1.7,0.9-1.7,1.9S-227.3,263.8-226.1,263.8z"/>
		<path class="st6" d="M-222.7,263.7h0.9v-3.6h-0.9v-0.7h1.8v1h0c0.2-0.8,0.8-1.1,1.5-1.1c0.2,0,0.3,0,0.4,0v0.7
			c-0.1,0-0.3-0.1-0.5-0.1c-1.3,0-1.4,1.3-1.4,2.4v1.4h1v0.7h-2.8V263.7z"/>
		<path class="st6" d="M-211.1,263.4L-211.1,263.4c-0.3,0.6-1,1.1-1.8,1.1c-1.7,0-2.4-1.1-2.4-2.6c0-1.5,0.9-2.6,2.4-2.6
			c0.7,0,1.5,0.4,1.8,1h0v-2.4h-0.9v-0.7h1.8v6.5h0.9v0.7h-1.8V263.4z M-212.7,260c-1.1,0-1.7,0.8-1.7,1.9c0,1,0.5,1.9,1.7,1.9
			c1.1,0,1.6-0.9,1.6-1.9C-211.1,260.8-211.6,260-212.7,260z"/>
		<path class="st6" d="M-208.7,263.7h0.9v-3.6h-0.9v-0.7h1.8v1h0c0.2-0.8,0.8-1.1,1.5-1.1c0.2,0,0.3,0,0.4,0v0.7
			c-0.1,0-0.3-0.1-0.5-0.1c-1.3,0-1.4,1.3-1.4,2.4v1.4h1v0.7h-2.8V263.7z"/>
		<path class="st6" d="M-200.6,263.3L-200.6,263.3c-0.2,0.8-0.9,1.1-1.7,1.1c-1,0-2-0.4-2-1.6c0-1.5,1.5-1.6,2.7-1.6h1V261
			c0-0.8-0.4-1.1-1.2-1.1c-0.7,0-1.2,0.1-1.3,0.9h-1c0.1-1.2,1.1-1.6,2.2-1.6c1.2,0,2.2,0.3,2.2,1.6v2.9h0.9v0.7h-1.8V263.3z
			 M-202.2,263.8c1.1,0,1.6-0.8,1.6-1.8h-0.8c-0.6,0-1.9,0-1.9,0.9C-203.3,263.6-202.8,263.8-202.2,263.8z"/>
		<path class="st6" d="M-189,260.1h-0.7l-1.5,4.3h-1.2l-1.4-4.2h0l-1.4,4.2h-1.2l-1.5-4.3h-0.7v-0.7h2.6v0.7h-1l1.1,3.5h0l1.4-4.2
			h1.2l1.4,4.2h0l1.2-3.5h-1v-0.7h2.5V260.1z"/>
		<path class="st6" d="M-188.6,263.7h0.9v-3.6h-0.9v-0.7h1.8v4.3h0.9v0.7h-2.6V263.7z M-186.8,258.2h-1v-1h1V258.2z"/>
		<path class="st6" d="M-185.4,263.7h0.9v-3.6h-0.9v-0.7h1.8v0.9h0c0.2-0.6,0.9-1,1.7-1c1.3,0,1.8,0.6,1.8,1.8v2.6h0.9v0.7h-2.6
			v-0.7h0.9v-2.4c0-0.8-0.3-1.3-1.2-1.3c-1,0-1.4,0.7-1.4,1.6v2.1h0.9v0.7h-2.6V263.7z"/>
		<path class="st6" d="M-172.6,260.1h-0.9v2.7c0,0.8,0.1,1.8-0.3,2.5c-0.4,0.8-1.4,1-2.3,1c-1.1,0-2.4-0.2-2.4-1.5h1
			c0,0.7,0.7,0.8,1.3,0.8c1.3,0,1.7-0.5,1.7-1.8v-0.6h0c-0.3,0.7-1.1,1-1.8,1c-1.5,0-2.4-1-2.4-2.6c0-1.5,0.9-2.5,2.4-2.5
			c0.8,0,1.5,0.3,1.9,1l0,0v0h0v-0.9h1.8V260.1z M-176,263.6c1.1,0,1.6-0.8,1.6-1.8c0-1-0.5-1.8-1.6-1.8c-1.2,0-1.8,0.7-1.8,1.8
			C-177.7,262.8-177.2,263.6-176,263.6z"/>
	</g>
	<g class="st3">
		<path class="st6" d="M-334.8,278.7h0.9v-5.4h-0.9v-0.7h1.8v1h0c0.3-0.6,0.9-1.1,1.7-1.1c1.6,0,2.5,1,2.5,2.6
			c0,1.6-0.9,2.6-2.5,2.6c-0.8,0-1.4-0.4-1.7-1.1h0v2.1h0.9v0.7h-2.7V278.7z M-331.2,277c1,0,1.5-0.8,1.5-1.9c0-1-0.5-1.9-1.5-1.9
			c-1.2,0-1.8,0.9-1.8,1.9C-333,276.2-332.4,277-331.2,277z"/>
		<path class="st6" d="M-327.9,276.9h0.9v-3.6h-0.9v-0.7h1.8v1h0c0.2-0.8,0.8-1.1,1.5-1.1c0.2,0,0.3,0,0.4,0v0.7
			c-0.1,0-0.3-0.1-0.5-0.1c-1.3,0-1.4,1.3-1.4,2.4v1.4h1v0.7h-2.8V276.9z"/>
		<path class="st6" d="M-320.9,272.4c1.6,0,2.6,1,2.6,2.6c0,1.6-1,2.6-2.6,2.6c-1.6,0-2.7-1-2.7-2.6
			C-323.6,273.4-322.6,272.4-320.9,272.4z M-320.9,277c1.1,0,1.7-0.9,1.7-1.9s-0.5-1.9-1.7-1.9c-1.1,0-1.7,0.9-1.7,1.9
			S-322.1,277-320.9,277z"/>
		<path class="st6" d="M-311.4,273.3h-0.9v2.7c0,0.8,0.1,1.8-0.3,2.5c-0.4,0.8-1.4,1-2.3,1c-1.1,0-2.4-0.2-2.4-1.5h1
			c0,0.7,0.7,0.8,1.3,0.8c1.3,0,1.7-0.5,1.7-1.8v-0.6h0c-0.3,0.7-1.1,1-1.8,1c-1.5,0-2.4-1-2.4-2.6c0-1.5,0.9-2.5,2.4-2.5
			c0.8,0,1.5,0.3,1.9,1l0,0v0h0v-0.9h1.8V273.3z M-314.9,276.8c1.1,0,1.6-0.8,1.6-1.8c0-1-0.5-1.8-1.6-1.8c-1.2,0-1.8,0.7-1.8,1.8
			C-316.5,276-316,276.8-314.9,276.8z"/>
		<path class="st6" d="M-310.8,276.9h0.9v-3.6h-0.9v-0.7h1.8v1h0c0.2-0.8,0.8-1.1,1.5-1.1c0.2,0,0.3,0,0.4,0v0.7
			c-0.1,0-0.3-0.1-0.5-0.1c-1.3,0-1.4,1.3-1.4,2.4v1.4h1v0.7h-2.8V276.9z"/>
		<path class="st6" d="M-302.8,276.5L-302.8,276.5c-0.2,0.8-0.9,1.1-1.7,1.1c-1,0-2-0.4-2-1.6c0-1.5,1.5-1.6,2.7-1.6h1v-0.3
			c0-0.8-0.4-1.1-1.2-1.1c-0.7,0-1.2,0.1-1.3,0.9h-1c0.1-1.2,1.1-1.6,2.2-1.6c1.2,0,2.2,0.3,2.2,1.6v2.9h0.9v0.7h-1.8V276.5z
			 M-304.4,277c1.1,0,1.6-0.8,1.6-1.8h-0.8c-0.6,0-1.9,0-1.9,0.9C-305.5,276.8-304.9,277-304.4,277z"/>
		<path class="st6" d="M-300.5,276.9h0.9v-3.6h-0.9v-0.7h1.8v0.9h0c0.2-0.6,0.8-1,1.6-1c0.8,0,1.3,0.3,1.6,1c0.3-0.6,0.9-1,1.6-1
			c1.2,0,1.8,0.6,1.8,1.7v2.7h0.9v0.7h-2.6v-0.7h0.9v-2.1c0-0.8,0-1.6-1.1-1.6c-1,0-1.3,0.8-1.3,1.6v2.1h0.9v0.7h-2.6v-0.7h0.9v-2.1
			c0-0.9,0-1.6-1.1-1.6c-1,0-1.4,0.8-1.4,1.7v2.1h0.9v0.7h-2.6V276.9z"/>
		<path class="st6" d="M-290,276.5h1.1v1.1h-1.1V276.5z"/>
		<path class="st6" d="M-284.6,276.9h1.1v-5.8h-1.1v-0.7h3.2v0.7h-1.1v5.8h1.1v0.7h-3.2V276.9z"/>
		<path class="st6" d="M-277.5,273.3h-1.6v2.9c0,0.4,0.1,0.8,0.6,0.8c0.5,0,0.6-0.5,0.6-0.9h0.8c0,1-0.4,1.7-1.5,1.7
			c-1.3,0-1.3-0.9-1.3-1.9v-2.5h-1v-0.7h1v-1.1l0.9-0.3v1.4h1.6V273.3z"/>
		<path class="st6" d="M-273.6,276.9h0.9v-3.6h-0.9v-0.7h1.8v4.3h0.9v0.7h-2.6V276.9z M-271.8,271.4h-1v-1h1V271.4z"/>
		<path class="st6" d="M-270.2,277.6v-1.7h0.7c0,1,0.8,1.2,1.6,1.2c0.4,0,1-0.2,1-0.8c0-0.7-0.7-0.7-1.3-0.7c-0.9-0.2-2-0.3-2-1.4
			c0-1.1,1-1.6,1.9-1.6c0.6,0,1.3,0.2,1.5,0.7h0v-0.6h0.7v1.7h-0.7c0-0.9-0.6-1.1-1.4-1.1c-0.5,0-1.2,0.1-1.2,0.8
			c0,0.6,0.9,0.6,1.5,0.7c0.9,0.2,1.9,0.3,1.9,1.4c0,1.2-1.1,1.6-2.1,1.6c-0.6,0-1.3-0.2-1.5-0.8h0v0.7H-270.2z"/>
		<path class="st6" d="M-259.2,272.4c1.6,0,2.6,1,2.6,2.6c0,1.6-1,2.6-2.6,2.6c-1.6,0-2.7-1-2.7-2.6
			C-261.9,273.4-260.8,272.4-259.2,272.4z M-259.2,277c1.1,0,1.7-0.9,1.7-1.9s-0.5-1.9-1.7-1.9c-1.1,0-1.7,0.9-1.7,1.9
			S-260.3,277-259.2,277z"/>
		<path class="st6" d="M-255.8,276.9h0.9v-3.6h-1v-0.7h1V272c0-1.2,0.5-1.7,1.8-1.7c0.3,0,0.5,0.1,0.8,0.1v0.7
			c-0.3,0-0.6-0.1-0.9-0.1c-0.8,0-0.9,0.5-0.9,1v0.5h1.2v0.7h-1.2v3.6h1.1v0.7h-2.9V276.9z"/>
		<path class="st6" d="M-248.8,273.3h-1.6v2.9c0,0.4,0.1,0.8,0.6,0.8c0.5,0,0.6-0.5,0.6-0.9h0.8c0,1-0.4,1.7-1.5,1.7
			c-1.3,0-1.3-0.9-1.3-1.9v-2.5h-1v-0.7h1v-1.1l0.9-0.3v1.4h1.6V273.3z"/>
		<path class="st6" d="M-246.7,275.3c0,1.2,0.6,1.7,1.8,1.7c0.6,0,1.4-0.3,1.4-1h0.8c0,1.2-1.3,1.7-2.4,1.7c-1.6,0-2.7-1-2.7-2.6
			c0-1.6,1-2.6,2.7-2.6c1.8,0,2.4,1.3,2.4,2.9H-246.7z M-243.5,274.6c-0.1-0.9-0.6-1.5-1.6-1.5c-0.9,0-1.6,0.5-1.6,1.5H-243.5z"/>
		<path class="st6" d="M-241.7,276.9h0.9v-3.6h-0.9v-0.7h1.8v0.9h0c0.2-0.6,0.9-1,1.7-1c1.3,0,1.8,0.6,1.8,1.8v2.6h0.9v0.7h-2.6
			v-0.7h0.9v-2.4c0-0.8-0.3-1.3-1.2-1.3c-1,0-1.4,0.7-1.4,1.6v2.1h0.9v0.7h-2.6V276.9z"/>
		<path class="st6" d="M-226.8,276.9h0.9v0.7h-1.8v-0.9h0c-0.2,0.6-0.9,1-1.6,1c-1.3,0-1.8-0.6-1.8-1.8v-2.6h-0.9v-0.7h1.8v3.1
			c0,0.8,0.3,1.3,1.2,1.3c1,0,1.4-0.7,1.4-1.6v-2.1h-0.9v-0.7h1.8V276.9z"/>
		<path class="st6" d="M-225,277.6v-1.7h0.7c0,1,0.8,1.2,1.6,1.2c0.4,0,1-0.2,1-0.8c0-0.7-0.7-0.7-1.3-0.7c-0.9-0.2-2-0.3-2-1.4
			c0-1.1,1-1.6,1.9-1.6c0.6,0,1.3,0.2,1.5,0.7h0v-0.6h0.7v1.7h-0.7c0-0.9-0.6-1.1-1.4-1.1c-0.5,0-1.2,0.1-1.2,0.8
			c0,0.6,0.9,0.6,1.5,0.7c0.9,0.2,1.9,0.3,1.9,1.4c0,1.2-1.1,1.6-2.1,1.6c-0.6,0-1.3-0.2-1.5-0.8h0v0.7H-225z"/>
		<path class="st6" d="M-218.6,275.3c0,1.2,0.6,1.7,1.8,1.7c0.6,0,1.4-0.3,1.4-1h0.8c0,1.2-1.3,1.7-2.4,1.7c-1.6,0-2.7-1-2.7-2.6
			c0-1.6,1-2.6,2.7-2.6c1.8,0,2.4,1.3,2.4,2.9H-218.6z M-215.4,274.6c-0.1-0.9-0.6-1.5-1.6-1.5c-0.9,0-1.6,0.5-1.6,1.5H-215.4z"/>
		<path class="st6" d="M-209.3,276.6L-209.3,276.6c-0.3,0.6-1,1.1-1.8,1.1c-1.7,0-2.4-1.1-2.4-2.6c0-1.5,0.9-2.6,2.4-2.6
			c0.7,0,1.5,0.4,1.8,1h0v-2.4h-0.9v-0.7h1.8v6.5h0.9v0.7h-1.8V276.6z M-210.9,273.2c-1.1,0-1.7,0.8-1.7,1.9c0,1,0.5,1.9,1.7,1.9
			c1.1,0,1.6-0.9,1.6-1.9C-209.3,274-209.8,273.2-210.9,273.2z"/>
		<path class="st6" d="M-200.5,273.3h-1.6v2.9c0,0.4,0.1,0.8,0.5,0.8c0.5,0,0.6-0.5,0.6-0.9h0.8c0,1-0.4,1.7-1.5,1.7
			c-1.3,0-1.3-0.9-1.3-1.9v-2.5h-1v-0.7h1v-1.1l0.9-0.3v1.4h1.6V273.3z"/>
		<path class="st6" d="M-196.9,272.4c1.6,0,2.6,1,2.6,2.6c0,1.6-1,2.6-2.6,2.6c-1.6,0-2.7-1-2.7-2.6
			C-199.5,273.4-198.5,272.4-196.9,272.4z M-196.9,277c1.1,0,1.7-0.9,1.7-1.9s-0.5-1.9-1.7-1.9c-1.1,0-1.7,0.9-1.7,1.9
			S-198,277-196.9,277z"/>
		<path class="st6" d="M-186.1,276.6L-186.1,276.6c-0.3,0.6-1,1.1-1.8,1.1c-1.7,0-2.4-1.1-2.4-2.6c0-1.5,0.9-2.6,2.4-2.6
			c0.7,0,1.5,0.4,1.8,1h0v-2.4h-0.9v-0.7h1.8v6.5h0.9v0.7h-1.8V276.6z M-187.7,273.2c-1.1,0-1.7,0.8-1.7,1.9c0,1,0.5,1.9,1.7,1.9
			c1.1,0,1.6-0.9,1.6-1.9C-186.1,274-186.6,273.2-187.7,273.2z"/>
		<path class="st6" d="M-183.7,276.9h0.9v-3.6h-0.9v-0.7h1.8v1h0c0.2-0.8,0.8-1.1,1.5-1.1c0.2,0,0.3,0,0.4,0v0.7
			c-0.1,0-0.3-0.1-0.5-0.1c-1.3,0-1.4,1.3-1.4,2.4v1.4h1v0.7h-2.8V276.9z"/>
		<path class="st6" d="M-175.6,276.5L-175.6,276.5c-0.2,0.8-0.9,1.1-1.7,1.1c-1,0-2-0.4-2-1.6c0-1.5,1.5-1.6,2.7-1.6h1v-0.3
			c0-0.8-0.4-1.1-1.2-1.1c-0.7,0-1.2,0.1-1.3,0.9h-1c0.1-1.2,1.1-1.6,2.2-1.6c1.2,0,2.2,0.3,2.2,1.6v2.9h0.9v0.7h-1.8V276.5z
			 M-177.2,277c1.1,0,1.6-0.8,1.6-1.8h-0.8c-0.6,0-1.9,0-1.9,0.9C-178.3,276.8-177.8,277-177.2,277z"/>
		<path class="st6" d="M-164,273.3h-0.7l-1.5,4.3h-1.2l-1.4-4.2h0l-1.4,4.2h-1.2l-1.5-4.3h-0.7v-0.7h2.6v0.7h-1l1.1,3.5h0l1.4-4.2
			h1.2l1.4,4.2h0l1.2-3.5h-1v-0.7h2.5V273.3z"/>
	</g>
	<g class="st3">
		<path class="st6" d="M-334,290.1h0.9v-3.6h-0.9v-0.7h1.8v4.3h0.9v0.7h-2.6V290.1z M-332.2,284.6h-1v-1h1V284.6z"/>
		<path class="st6" d="M-331,290.1h0.9v-5.8h-0.9v-0.7h1.8v6.5h0.9v0.7h-2.6V290.1z"/>
		<path class="st6" d="M-327.9,290.1h0.9v-5.8h-0.9v-0.7h1.8v6.5h0.9v0.7h-2.6V290.1z"/>
		<path class="st6" d="M-319.7,290.1h0.9v0.7h-1.8v-0.9h0c-0.2,0.6-0.9,1-1.6,1c-1.3,0-1.8-0.6-1.8-1.8v-2.6h-0.9v-0.7h1.8v3.1
			c0,0.8,0.3,1.3,1.2,1.3c1,0,1.4-0.7,1.4-1.6v-2.1h-0.9v-0.7h1.8V290.1z"/>
		<path class="st6" d="M-317.8,290.8V289h0.7c0,1,0.8,1.2,1.6,1.2c0.4,0,1-0.2,1-0.8c0-0.7-0.7-0.7-1.3-0.7c-0.9-0.2-2-0.3-2-1.4
			c0-1.1,1-1.6,1.9-1.6c0.6,0,1.3,0.2,1.5,0.7h0v-0.6h0.7v1.7h-0.7c0-0.9-0.6-1.1-1.4-1.1c-0.5,0-1.2,0.1-1.2,0.8
			c0,0.6,0.9,0.6,1.5,0.7c0.9,0.2,1.9,0.3,1.9,1.4c0,1.2-1.1,1.6-2.1,1.6c-0.6,0-1.3-0.2-1.5-0.8h0v0.7H-317.8z"/>
		<path class="st6" d="M-309.2,286.5h-1.6v2.9c0,0.4,0.1,0.8,0.6,0.8c0.5,0,0.6-0.5,0.6-0.9h0.8c0,1-0.4,1.7-1.5,1.7
			c-1.3,0-1.3-0.9-1.3-1.9v-2.5h-1v-0.7h1v-1.1l0.9-0.3v1.4h1.6V286.5z"/>
		<path class="st6" d="M-308.3,290.1h0.9v-3.6h-0.9v-0.7h1.8v1h0c0.2-0.8,0.8-1.1,1.5-1.1c0.2,0,0.3,0,0.4,0v0.7
			c-0.1,0-0.3-0.1-0.5-0.1c-1.3,0-1.4,1.3-1.4,2.4v1.4h1v0.7h-2.8V290.1z"/>
		<path class="st6" d="M-300.2,289.7L-300.2,289.7c-0.2,0.8-0.9,1.1-1.7,1.1c-1,0-2-0.4-2-1.6c0-1.5,1.5-1.6,2.7-1.6h1v-0.3
			c0-0.8-0.4-1.1-1.2-1.1c-0.7,0-1.2,0.1-1.3,0.9h-1c0.1-1.2,1.1-1.6,2.2-1.6c1.2,0,2.2,0.3,2.2,1.6v2.9h0.9v0.7h-1.8V289.7z
			 M-301.8,290.2c1.1,0,1.6-0.8,1.6-1.8h-0.8c-0.6,0-1.9,0-1.9,0.9C-303,290-302.4,290.2-301.8,290.2z"/>
		<path class="st6" d="M-294.5,286.5h-1.6v2.9c0,0.4,0.1,0.8,0.6,0.8c0.5,0,0.6-0.5,0.6-0.9h0.8c0,1-0.4,1.7-1.5,1.7
			c-1.3,0-1.3-0.9-1.3-1.9v-2.5h-1v-0.7h1v-1.1l0.9-0.3v1.4h1.6V286.5z"/>
		<path class="st6" d="M-293.7,290.1h0.9v-3.6h-0.9v-0.7h1.8v4.3h0.9v0.7h-2.6V290.1z M-291.9,284.6h-1v-1h1V284.6z"/>
		<path class="st6" d="M-287.8,285.6c1.6,0,2.6,1,2.6,2.6c0,1.6-1,2.6-2.6,2.6c-1.6,0-2.7-1-2.7-2.6
			C-290.5,286.6-289.5,285.6-287.8,285.6z M-287.8,290.2c1.1,0,1.7-0.9,1.7-1.9s-0.5-1.9-1.7-1.9c-1.1,0-1.7,0.9-1.7,1.9
			S-289,290.2-287.8,290.2z"/>
		<path class="st6" d="M-284.4,290.1h0.9v-3.6h-0.9v-0.7h1.8v0.9h0c0.2-0.6,0.9-1,1.7-1c1.3,0,1.8,0.6,1.8,1.8v2.6h0.9v0.7h-2.6
			v-0.7h0.9v-2.4c0-0.8-0.3-1.3-1.2-1.3c-1,0-1.4,0.7-1.4,1.6v2.1h0.9v0.7h-2.6V290.1z"/>
		<path class="st6" d="M-277.5,290.8V289h0.7c0,1,0.8,1.2,1.6,1.2c0.4,0,1-0.2,1-0.8c0-0.7-0.7-0.7-1.3-0.7c-0.9-0.2-2-0.3-2-1.4
			c0-1.1,1-1.6,1.9-1.6c0.6,0,1.3,0.2,1.5,0.7h0v-0.6h0.7v1.7h-0.7c0-0.9-0.6-1.1-1.4-1.1c-0.5,0-1.2,0.1-1.2,0.8
			c0,0.6,0.9,0.6,1.5,0.7c0.9,0.2,1.9,0.3,1.9,1.4c0,1.2-1.1,1.6-2.1,1.6c-0.6,0-1.3-0.2-1.5-0.8h0v0.7H-277.5z"/>
		<path class="st6" d="M-271.6,289.7h1.1v1.1l-0.5,1.4h-0.6l0.5-1.4h-0.5V289.7z"/>
		<path class="st6" d="M-261.3,287.7h-0.7c-0.1-0.8-0.6-1.3-1.4-1.3c-1.1,0-1.6,0.9-1.6,1.9s0.6,1.9,1.6,1.9c0.7,0,1.3-0.4,1.4-1.1
			h0.8c0,1.2-1.1,1.8-2.2,1.8c-1.6,0-2.6-1-2.6-2.6c0-1.6,1-2.6,2.6-2.6c0.6,0,1.1,0.2,1.4,0.7h0v-0.6h0.7V287.7z"/>
		<path class="st6" d="M-256.8,289.7L-256.8,289.7c-0.2,0.8-0.9,1.1-1.7,1.1c-1,0-2-0.4-2-1.6c0-1.5,1.5-1.6,2.7-1.6h1v-0.3
			c0-0.8-0.4-1.1-1.2-1.1c-0.7,0-1.2,0.1-1.3,0.9h-1c0.1-1.2,1.1-1.6,2.2-1.6c1.2,0,2.2,0.3,2.2,1.6v2.9h0.9v0.7h-1.8V289.7z
			 M-258.4,290.2c1.1,0,1.6-0.8,1.6-1.8h-0.8c-0.6,0-1.9,0-1.9,0.9C-259.5,290-259,290.2-258.4,290.2z"/>
		<path class="st6" d="M-254.5,290.1h0.9v-3.6h-0.9v-0.7h1.8v1h0c0.2-0.8,0.8-1.1,1.5-1.1c0.2,0,0.3,0,0.4,0v0.7
			c-0.1,0-0.3-0.1-0.5-0.1c-1.3,0-1.4,1.3-1.4,2.4v1.4h1v0.7h-2.8V290.1z"/>
		<path class="st6" d="M-246.6,286.5h-1.6v2.9c0,0.4,0.1,0.8,0.6,0.8c0.5,0,0.6-0.5,0.6-0.9h0.8c0,1-0.4,1.7-1.5,1.7
			c-1.3,0-1.3-0.9-1.3-1.9v-2.5h-1v-0.7h1v-1.1l0.9-0.3v1.4h1.6V286.5z"/>
		<path class="st6" d="M-242.9,285.6c1.6,0,2.6,1,2.6,2.6c0,1.6-1,2.6-2.6,2.6c-1.6,0-2.7-1-2.7-2.6
			C-245.6,286.6-244.6,285.6-242.9,285.6z M-242.9,290.2c1.1,0,1.7-0.9,1.7-1.9s-0.5-1.9-1.7-1.9c-1.1,0-1.7,0.9-1.7,1.9
			S-244.1,290.2-242.9,290.2z"/>
		<path class="st6" d="M-236.8,285.6c1.6,0,2.6,1,2.6,2.6c0,1.6-1,2.6-2.6,2.6c-1.6,0-2.7-1-2.7-2.6
			C-239.5,286.6-238.5,285.6-236.8,285.6z M-236.8,290.2c1.1,0,1.7-0.9,1.7-1.9s-0.5-1.9-1.7-1.9c-1.1,0-1.7,0.9-1.7,1.9
			S-238,290.2-236.8,290.2z"/>
		<path class="st6" d="M-233.4,290.1h0.9v-3.6h-0.9v-0.7h1.8v0.9h0c0.2-0.6,0.9-1,1.7-1c1.3,0,1.8,0.6,1.8,1.8v2.6h0.9v0.7h-2.6
			v-0.7h0.9v-2.4c0-0.8-0.3-1.3-1.2-1.3c-1,0-1.4,0.7-1.4,1.6v2.1h0.9v0.7h-2.6V290.1z"/>
		<path class="st6" d="M-226.5,290.8V289h0.7c0,1,0.8,1.2,1.6,1.2c0.4,0,1-0.2,1-0.8c0-0.7-0.7-0.7-1.3-0.7c-0.9-0.2-2-0.3-2-1.4
			c0-1.1,1-1.6,1.9-1.6c0.6,0,1.3,0.2,1.5,0.7h0v-0.6h0.7v1.7h-0.7c0-0.9-0.6-1.1-1.4-1.1c-0.5,0-1.2,0.1-1.2,0.8
			c0,0.6,0.9,0.6,1.5,0.7c0.9,0.2,1.9,0.3,1.9,1.4c0,1.2-1.1,1.6-2.1,1.6c-0.6,0-1.3-0.2-1.5-0.8h0v0.7H-226.5z"/>
		<path class="st6" d="M-220.6,289.7h1.1v1.1l-0.5,1.4h-0.6l0.5-1.4h-0.5V289.7z"/>
		<path class="st6" d="M-210.8,289.8L-210.8,289.8c-0.3,0.6-1,1.1-1.8,1.1c-1.7,0-2.4-1.1-2.4-2.6c0-1.5,0.9-2.6,2.4-2.6
			c0.7,0,1.5,0.4,1.8,1h0v-2.4h-0.9v-0.7h1.8v6.5h0.9v0.7h-1.8V289.8z M-212.4,286.4c-1.1,0-1.7,0.8-1.7,1.9c0,1,0.5,1.9,1.7,1.9
			c1.1,0,1.6-0.9,1.6-1.9C-210.8,287.2-211.3,286.4-212.4,286.4z"/>
		<path class="st6" d="M-208.4,290.1h0.9v-3.6h-0.9v-0.7h1.8v4.3h0.9v0.7h-2.6V290.1z M-206.7,284.6h-1v-1h1V284.6z"/>
		<path class="st6" d="M-201.6,289.7L-201.6,289.7c-0.2,0.8-0.9,1.1-1.7,1.1c-1,0-2-0.4-2-1.6c0-1.5,1.5-1.6,2.7-1.6h1v-0.3
			c0-0.8-0.4-1.1-1.2-1.1c-0.7,0-1.2,0.1-1.3,0.9h-1c0.1-1.2,1.1-1.6,2.2-1.6c1.2,0,2.2,0.3,2.2,1.6v2.9h0.9v0.7h-1.8V289.7z
			 M-203.1,290.2c1.1,0,1.6-0.8,1.6-1.8h-0.8c-0.6,0-1.9,0-1.9,0.9C-204.3,290-203.7,290.2-203.1,290.2z"/>
		<path class="st6" d="M-193.1,286.5h-0.9v2.7c0,0.8,0.1,1.8-0.3,2.5c-0.4,0.8-1.4,1-2.3,1c-1.1,0-2.4-0.2-2.4-1.5h1
			c0,0.7,0.7,0.8,1.3,0.8c1.3,0,1.7-0.5,1.7-1.8v-0.6h0c-0.3,0.7-1.1,1-1.8,1c-1.5,0-2.4-1-2.4-2.6c0-1.5,0.9-2.5,2.4-2.5
			c0.8,0,1.5,0.3,1.9,1l0,0v0h0v-0.9h1.8V286.5z M-196.5,290c1.1,0,1.6-0.8,1.6-1.8c0-1-0.5-1.8-1.6-1.8c-1.2,0-1.8,0.7-1.8,1.8
			C-198.2,289.2-197.6,290-196.5,290z"/>
		<path class="st6" d="M-192.5,290.1h0.9v-3.6h-0.9v-0.7h1.8v1h0c0.2-0.8,0.8-1.1,1.5-1.1c0.2,0,0.3,0,0.4,0v0.7
			c-0.1,0-0.3-0.1-0.5-0.1c-1.3,0-1.4,1.3-1.4,2.4v1.4h1v0.7h-2.8V290.1z"/>
		<path class="st6" d="M-184.4,289.7L-184.4,289.7c-0.2,0.8-0.9,1.1-1.7,1.1c-1,0-2-0.4-2-1.6c0-1.5,1.5-1.6,2.7-1.6h1v-0.3
			c0-0.8-0.4-1.1-1.2-1.1c-0.7,0-1.2,0.1-1.3,0.9h-1c0.1-1.2,1.1-1.6,2.2-1.6c1.2,0,2.2,0.3,2.2,1.6v2.9h0.9v0.7h-1.8V289.7z
			 M-186,290.2c1.1,0,1.6-0.8,1.6-1.8h-0.8c-0.6,0-1.9,0-1.9,0.9C-187.1,290-186.6,290.2-186,290.2z"/>
		<path class="st6" d="M-182.1,290.1h0.9v-3.6h-0.9v-0.7h1.8v0.9h0c0.2-0.6,0.8-1,1.6-1c0.8,0,1.3,0.3,1.6,1c0.3-0.6,0.9-1,1.6-1
			c1.2,0,1.8,0.6,1.8,1.7v2.7h0.9v0.7h-2.6v-0.7h0.9V288c0-0.8,0-1.6-1.1-1.6c-1,0-1.3,0.8-1.3,1.6v2.1h0.9v0.7h-2.6v-0.7h0.9V288
			c0-0.9,0-1.6-1.1-1.6c-1,0-1.4,0.8-1.4,1.7v2.1h0.9v0.7h-2.6V290.1z"/>
		<path class="st6" d="M-172.1,290.8V289h0.7c0,1,0.8,1.2,1.6,1.2c0.4,0,1-0.2,1-0.8c0-0.7-0.7-0.7-1.3-0.7c-0.9-0.2-2-0.3-2-1.4
			c0-1.1,1-1.6,1.9-1.6c0.6,0,1.3,0.2,1.5,0.7h0v-0.6h0.7v1.7h-0.7c0-0.9-0.6-1.1-1.4-1.1c-0.5,0-1.2,0.1-1.2,0.8
			c0,0.6,0.9,0.6,1.5,0.7c0.9,0.2,1.9,0.3,1.9,1.4c0,1.2-1.1,1.6-2.1,1.6c-0.6,0-1.3-0.2-1.5-0.8h0v0.7H-172.1z"/>
		<path class="st6" d="M-166.2,289.7h1.1v1.1l-0.5,1.4h-0.6l0.5-1.4h-0.5V289.7z"/>
	</g>
	<g class="st3">
		<path class="st6" d="M-288.6,300.9h-0.7c-0.1-0.8-0.6-1.3-1.4-1.3c-1.1,0-1.6,0.9-1.6,1.9s0.6,1.9,1.6,1.9c0.7,0,1.3-0.4,1.4-1.1
			h0.8c0,1.2-1.1,1.8-2.2,1.8c-1.6,0-2.6-1-2.6-2.6c0-1.6,1-2.6,2.6-2.6c0.6,0,1.1,0.2,1.4,0.7h0V299h0.7V300.9z"/>
		<path class="st6" d="M-287.8,303.3h0.9v-5.8h-0.9v-0.7h1.8v3.1h0c0.2-0.6,0.9-1,1.7-1c1.3,0,1.8,0.6,1.8,1.8v2.6h0.9v0.7h-2.6
			v-0.7h0.9v-2.4c0-0.8-0.3-1.3-1.2-1.3c-1,0-1.4,0.7-1.4,1.6v2.1h0.9v0.7h-2.6V303.3z"/>
		<path class="st6" d="M-277.4,302.9L-277.4,302.9c-0.2,0.8-0.9,1.1-1.7,1.1c-1,0-2-0.4-2-1.6c0-1.5,1.5-1.6,2.7-1.6h1v-0.3
			c0-0.8-0.4-1.1-1.2-1.1c-0.7,0-1.2,0.1-1.3,0.9h-1c0.1-1.2,1.1-1.6,2.2-1.6c1.2,0,2.2,0.3,2.2,1.6v2.9h0.9v0.7h-1.8V302.9z
			 M-279,303.4c1.1,0,1.6-0.8,1.6-1.8h-0.8c-0.6,0-1.9,0-1.9,0.9C-280.1,303.2-279.5,303.4-279,303.4z"/>
		<path class="st6" d="M-275,303.3h0.9v-3.6h-0.9V299h1.8v1h0c0.2-0.8,0.8-1.1,1.5-1.1c0.2,0,0.3,0,0.4,0v0.7
			c-0.1,0-0.3-0.1-0.5-0.1c-1.3,0-1.4,1.3-1.4,2.4v1.4h1v0.7h-2.8V303.3z"/>
		<path class="st6" d="M-267.1,299.7h-1.6v2.9c0,0.4,0.1,0.8,0.6,0.8c0.5,0,0.6-0.5,0.6-0.9h0.8c0,1-0.4,1.7-1.5,1.7
			c-1.3,0-1.3-0.9-1.3-1.9v-2.5h-1V299h1v-1.1l0.9-0.3v1.4h1.6V299.7z"/>
		<path class="st6" d="M-266,304v-1.7h0.7c0,1,0.8,1.2,1.6,1.2c0.4,0,1-0.2,1-0.8c0-0.7-0.7-0.7-1.3-0.7c-0.9-0.2-2-0.3-2-1.4
			c0-1.1,1-1.6,1.9-1.6c0.6,0,1.3,0.2,1.5,0.7h0V299h0.7v1.7h-0.7c0-0.9-0.6-1.1-1.4-1.1c-0.5,0-1.2,0.1-1.2,0.8
			c0,0.6,0.9,0.6,1.5,0.7c0.9,0.2,1.9,0.3,1.9,1.4c0,1.2-1.1,1.6-2.1,1.6c-0.6,0-1.3-0.2-1.5-0.8h0v0.7H-266z"/>
		<path class="st6" d="M-253.9,302.9L-253.9,302.9c-0.2,0.8-0.9,1.1-1.7,1.1c-1,0-2-0.4-2-1.6c0-1.5,1.5-1.6,2.7-1.6h1v-0.3
			c0-0.8-0.4-1.1-1.2-1.1c-0.7,0-1.2,0.1-1.3,0.9h-1c0.1-1.2,1.1-1.6,2.2-1.6c1.2,0,2.2,0.3,2.2,1.6v2.9h0.9v0.7h-1.8V302.9z
			 M-255.5,303.4c1.1,0,1.6-0.8,1.6-1.8h-0.8c-0.6,0-1.9,0-1.9,0.9C-256.6,303.2-256,303.4-255.5,303.4z"/>
		<path class="st6" d="M-251.5,303.3h0.9v-3.6h-0.9V299h1.8v0.9h0c0.2-0.6,0.9-1,1.7-1c1.3,0,1.8,0.6,1.8,1.8v2.6h0.9v0.7h-2.6v-0.7
			h0.9v-2.4c0-0.8-0.3-1.3-1.2-1.3c-1,0-1.4,0.7-1.4,1.6v2.1h0.9v0.7h-2.6V303.3z"/>
		<path class="st6" d="M-240.5,303L-240.5,303c-0.3,0.6-1,1.1-1.8,1.1c-1.7,0-2.4-1.1-2.4-2.6c0-1.5,0.9-2.6,2.4-2.6
			c0.7,0,1.5,0.4,1.8,1h0v-2.4h-0.9v-0.7h1.8v6.5h0.9v0.7h-1.8V303z M-242.1,299.6c-1.1,0-1.7,0.8-1.7,1.9c0,1,0.5,1.9,1.7,1.9
			c1.1,0,1.6-0.9,1.6-1.9C-240.5,300.4-241,299.6-242.1,299.6z"/>
		<path class="st6" d="M-235.1,303.3h0.9v-5.8h-0.9v-0.7h1.8v6.5h0.9v0.7h-2.6V303.3z"/>
		<path class="st6" d="M-229.3,298.8c1.6,0,2.6,1,2.6,2.6c0,1.6-1,2.6-2.6,2.6c-1.6,0-2.7-1-2.7-2.6
			C-231.9,299.8-230.9,298.8-229.3,298.8z M-229.3,303.4c1.1,0,1.7-0.9,1.7-1.9s-0.5-1.9-1.7-1.9c-1.1,0-1.7,0.9-1.7,1.9
			S-230.4,303.4-229.3,303.4z"/>
		<path class="st6" d="M-219.7,299.7h-0.9v2.7c0,0.8,0.1,1.8-0.3,2.5c-0.4,0.8-1.4,1-2.3,1c-1.1,0-2.4-0.2-2.4-1.5h1
			c0,0.7,0.7,0.8,1.3,0.8c1.3,0,1.7-0.5,1.7-1.8v-0.6h0c-0.3,0.7-1.1,1-1.8,1c-1.5,0-2.4-1-2.4-2.6c0-1.5,0.9-2.5,2.4-2.5
			c0.8,0,1.5,0.3,1.9,1l0,0v0h0V299h1.8V299.7z M-223.2,303.2c1.1,0,1.6-0.8,1.6-1.8c0-1-0.5-1.8-1.6-1.8c-1.2,0-1.8,0.7-1.8,1.8
			C-224.8,302.4-224.3,303.2-223.2,303.2z"/>
		<path class="st6" d="M-216.4,298.8c1.6,0,2.6,1,2.6,2.6c0,1.6-1,2.6-2.6,2.6c-1.6,0-2.7-1-2.7-2.6
			C-219.1,299.8-218,298.8-216.4,298.8z M-216.4,303.4c1.1,0,1.7-0.9,1.7-1.9s-0.5-1.9-1.7-1.9c-1.1,0-1.7,0.9-1.7,1.9
			S-217.5,303.4-216.4,303.4z"/>
		<path class="st6" d="M-212.8,304v-1.7h0.7c0,1,0.8,1.2,1.6,1.2c0.4,0,1-0.2,1-0.8c0-0.7-0.7-0.7-1.3-0.7c-0.9-0.2-2-0.3-2-1.4
			c0-1.1,1-1.6,1.9-1.6c0.6,0,1.3,0.2,1.5,0.7h0V299h0.7v1.7h-0.7c0-0.9-0.6-1.1-1.4-1.1c-0.5,0-1.2,0.1-1.2,0.8
			c0,0.6,0.9,0.6,1.5,0.7c0.9,0.2,1.9,0.3,1.9,1.4c0,1.2-1.1,1.6-2.1,1.6c-0.6,0-1.3-0.2-1.5-0.8h0v0.7H-212.8z"/>
		<path class="st6" d="M-206.9,302.9h1.1v1.1h-1.1V302.9z"/>
	</g>
	<g>
		<path class="st7" d="M-240.3,338.2h-14.2c-1.5,0-2.8,0.8-3.5,2.1l-7.2,13c-0.7,1.2-0.7,2.7,0,3.9l7.1,12.8c0.7,1.3,2,2.1,3.5,2.1
			h14.4c1.5,0,2.8-0.8,3.5-2.1l7.1-12.8c0.7-1.2,0.7-2.7,0-3.9l-7.2-13C-237.5,339-238.8,338.2-240.3,338.2z"/>
		<g>
			<g>
				<path class="st8" d="M-250.8,344.9l-1,1c-0.3,0.4-0.5,0.8-0.5,1.3s0.2,0.9,0.5,1.2l6.7,6.7l-6.7,6.7c-0.3,0.3-0.5,0.8-0.5,1.2
					c0,0.5,0.2,0.9,0.5,1.3l1,1c0.4,0.4,0.8,0.5,1.3,0.5s0.9-0.2,1.2-0.5l9-9c0.4-0.3,0.5-0.7,0.5-1.2s-0.2-0.9-0.5-1.3l-9-9
					c-0.3-0.3-0.8-0.5-1.2-0.5C-250.1,344.4-250.5,344.6-250.8,344.9L-250.8,344.9z"/>
			</g>
		</g>
	</g>
	<path class="st9" d="M-207.1,330.6h-77c-2.6,0-4.8-2.2-4.8-4.8l0,0c0-2.6,2.2-4.8,4.8-4.8h77c2.6,0,4.8,2.2,4.8,4.8l0,0
		C-202.3,328.4-204.4,330.6-207.1,330.6z"/>
	<path class="st10" d="M-232.5,325.8l-4.8,4.8h-46.8c-1.3,0-2.5-0.5-3.4-1.4c-0.9-0.9-1.4-2.1-1.4-3.4c0-2.6,2.2-4.8,4.8-4.8h46.8
		L-232.5,325.8z"/>
	<polygon class="st10" points="-232.5,321 -232.5,325.8 -237.3,321 	"/>
	<polygon class="st10" points="-232.5,323.4 -232.5,328.2 -237.3,328.2 	"/>
</g>
</svg>
