<?xml version="1.0" encoding="utf-8"?>
<!-- Generator: Adobe Illustrator 19.1.0, SVG Export Plug-In . SVG Version: 6.00 Build 0)  -->
<svg version="1.1" id="Layer_1" xmlns="http://www.w3.org/2000/svg" xmlns:xlink="http://www.w3.org/1999/xlink" x="0px" y="0px"
	 viewBox="-363 177.4 231.3 206.6" style="enable-background:new -363 177.4 231.3 206.6;" xml:space="preserve">
<style type="text/css">
	.st0{fill:#8BC53F;}
	.st1{fill:#FFFFFF;}
	.st2{fill:#ECEEEE;}
	.st3{fill:#767676;}
	.st4{font-family:'UniversLTStd-Black';}
	.st5{font-size:12px;}
	.st6{fill:none;}
	.st7{fill:#231F20;}
	.st8{font-family:'Serifa-Roman';}
	.st9{font-size:11px;}
	.st10{fill:#39A5E1;}
	.st11{fill:#EBEDED;}
	.st12{fill:#BDBBBC;}
	.st13{fill:#8DC34A;}
</style>
<g>
	<g>
		<polygon class="st0" points="-189.5,177.4 -305.2,177.4 -327.4,217.4 -167.2,217.4 		"/>
		<polygon class="st1" points="-167.2,217.4 -327.4,217.4 -363,281.4 -306,384 -188.6,384 -131.7,281.4 		"/>
	</g>
	<path class="st2" d="M-243.4,185.3c-1.3,0-2.9,1.1-3.5,2.8c-0.1,0-0.2,0-0.4,0c-0.1,0-0.2,0-0.4,0c-0.5-1.7-2.3-2.8-3.7-2.8
		c-1.3,0-2.2,0.8-2.4,2.2c-0.1,0.4,0.2,0.7,0.6,0.8c0.4,0.1,0.7-0.2,0.8-0.6c0.1-0.7,0.5-1,1.1-1c0.9,0,2.1,0.8,2.4,2
		c-0.2,0.1-0.4,0.3-0.5,0.4c-0.8,0.8-1.3,1.8-1.5,2.4l-0.1,0.1c-0.3,0.6-0.5,1.1-0.7,1.6c-1.2,0.7-2.5,1.6-3.5,2.5
		c-1.2,1.2-1.8,2.4-1.8,3.5c0,1,0.5,1.9,1.4,2.7c0.9,0.8,1.9,1.1,2.8,0.8c0.1,0.3,0.2,0.6,0.3,0.9c1.4,3.7,4.5,5,4.6,5l0.2,0.1
		l0.3-0.1c0.1,0,1.4-0.5,2.8-1.9c1-1,1.9-2.3,2.5-4c0,0,0,0,0.1,0c0.7,0.2,1.8,0.3,3-0.7c0.1-0.1,0.2-0.2,0.3-0.3
		c1-1,1.3-2.1,1.1-3.3c-0.5-2-2.7-3.8-4.9-5.1c-0.2-0.7-0.5-1.4-0.9-2.2c-0.6-1.4-1.4-2.2-2.1-2.6c0.3-1.1,1.4-1.9,2.2-1.9
		c0.5,0,0.8,0.4,0.9,1c0,0.4,0.4,0.6,0.8,0.6c0.2,0,0.3-0.1,0.4-0.2c0.1-0.1,0.2-0.4,0.2-0.6C-241.4,185.9-242.5,185.3-243.4,185.3z
		 M-239.1,198.7c0.2,0.8-0.1,1.5-0.9,2.2s-1.3,0.6-1.7,0.5c0,0-0.1,0-0.1-0.1c-0.4-0.2-0.8-0.5-1.2-1c-0.3-0.3-0.5-0.7-0.8-1.1
		c-0.4-0.7-0.8-1.5-1.1-2.3c-0.3-0.6-0.5-1.2-0.7-1.8c-0.3-0.8-0.5-1.6-0.7-2.2h0.1c1.2,0.5,2.8,1.4,4.2,2.3
		C-240.6,196.4-239.4,197.6-239.1,198.7z M-254.7,200.8c-0.6-0.5-0.9-1.1-0.9-1.7c0-0.8,0.4-1.6,1.4-2.5c0.5-0.5,1.1-1,1.8-1.5
		c1.4-1,3-1.7,4.2-2.2l0,0c-0.2,0.6-0.4,1.4-0.7,2.2c-0.2,0.6-0.5,1.2-0.7,1.8c-0.3,0.8-0.7,1.6-1.2,2.2c-0.3,0.5-0.6,0.9-0.9,1.2
		c-0.1,0.1-0.1,0.2-0.2,0.2c-0.4,0.4-0.7,0.6-1,0.7C-253.6,201.5-254.1,201.3-254.7,200.8z M-247.6,195.2h0.5
		c0.2,0.6,0.4,1.2,0.7,1.8h-1.9C-248,196.3-247.8,195.7-247.6,195.2z M-249.3,199.2h4c0.4,0.7,0.7,1.3,1.2,1.8l-6.3-0.1
		C-250.1,200.5-249.7,199.8-249.3,199.2z M-244.9,205.1h-5.2c-0.4-0.5-0.7-1.1-1-1.8l7.4,0.1C-244.1,204-244.5,204.6-244.9,205.1z
		 M-244.8,191.7c0.1,0.2,0.2,0.4,0.3,0.6c-1-0.5-1.8-0.8-2.4-1c-0.1-0.1-0.2-0.1-0.4-0.1c-0.1,0-0.3,0-0.4,0.1
		c-0.6,0.2-1.4,0.5-2.2,0.9v-0.1l0.1-0.1c0.3-0.5,0.7-1.4,1.3-2c0.4-0.4,0.8-0.6,1.2-0.6C-246.3,189.3-245.5,190.1-244.8,191.7z"/>
	<text transform="matrix(1 0 0 1 -323.7744 242.7824)" class="st3 st4 st5">Adobe Illustrator Basics</text>
	<rect x="-339.7" y="255.3" class="st6" width="180.6" height="51.1"/>
	<text transform="matrix(1 0 0 1 -326.4224 264.3752)" class="st7 st8 st9">Illustrator is a vector drawing </text>
	<text transform="matrix(1 0 0 1 -335.0224 277.5752)" class="st7 st8 st9">program. It is often used to draw </text>
	<text transform="matrix(1 0 0 1 -334.3224 290.7752)" class="st7 st8 st9">illustrations, cartoons, diagrams, </text>
	<text transform="matrix(1 0 0 1 -293.7224 303.9752)" class="st7 st8 st9">charts and logos.</text>
	<g>
		<path class="st10" d="M-240.3,338.2h-14.2c-1.5,0-2.8,0.8-3.5,2.1l-7.2,13c-0.7,1.2-0.7,2.7,0,3.9l7.1,12.8c0.7,1.3,2,2.1,3.5,2.1
			h14.4c1.5,0,2.8-0.8,3.5-2.1l7.1-12.8c0.7-1.2,0.7-2.7,0-3.9l-7.2-13C-237.5,339-238.8,338.2-240.3,338.2z"/>
		<g>
			<g>
				<path class="st11" d="M-250.8,344.9l-1,1c-0.3,0.4-0.5,0.8-0.5,1.3s0.2,0.9,0.5,1.2l6.7,6.7l-6.7,6.7c-0.3,0.3-0.5,0.8-0.5,1.2
					c0,0.5,0.2,0.9,0.5,1.3l1,1c0.4,0.4,0.8,0.5,1.3,0.5s0.9-0.2,1.2-0.5l9-9c0.4-0.3,0.5-0.7,0.5-1.2s-0.2-0.9-0.5-1.3l-9-9
					c-0.3-0.3-0.8-0.5-1.2-0.5C-250.1,344.4-250.5,344.6-250.8,344.9L-250.8,344.9z"/>
			</g>
		</g>
	</g>
	<path class="st12" d="M-207.1,330.6h-77c-2.6,0-4.8-2.2-4.8-4.8l0,0c0-2.6,2.2-4.8,4.8-4.8h77c2.6,0,4.8,2.2,4.8,4.8l0,0
		C-202.3,328.4-204.4,330.6-207.1,330.6z"/>
	<path class="st13" d="M-232.5,325.8l-4.8,4.8h-46.8c-1.3,0-2.5-0.5-3.4-1.4c-0.9-0.9-1.4-2.1-1.4-3.4c0-2.6,2.2-4.8,4.8-4.8h46.8
		L-232.5,325.8z"/>
	<polygon class="st13" points="-232.5,321 -232.5,325.8 -237.3,321 	"/>
	<polygon class="st13" points="-232.5,323.4 -232.5,328.2 -237.3,328.2 	"/>
</g>
</svg>
