<?xml version="1.0" encoding="utf-8"?>
<!-- Generator: Adobe Illustrator 19.1.0, SVG Export Plug-In . SVG Version: 6.00 Build 0)  -->
<svg version="1.1" id="Layer_1" xmlns="http://www.w3.org/2000/svg" xmlns:xlink="http://www.w3.org/1999/xlink" x="0px" y="0px"
	 viewBox="-351 172 255.1 217" style="enable-background:new -351 172 255.1 217;" xml:space="preserve">
<style type="text/css">
	.st0{fill:#8BC53F;}
	.st1{fill:#FFFFFF;}
	.st2{fill:#ECEEEE;}
	.st3{fill:#767676;}
	.st4{font-family:'Univers-Black';}
	.st5{font-size:12px;}
	.st6{fill:none;}
	.st7{fill:#231F20;}
	.st8{font-family:'Serifa-Roman';}
	.st9{font-size:11px;}
	.st10{fill:#39A5E1;}
	.st11{fill:#EBEDED;}
	.st12{font-family:'Univers-Condensed';}
	.st13{font-size:11.6065px;}
	.st14{fill:#C1272D;}
	.st15{font-size:8px;}
</style>
<g>
	<polygon class="st0" points="-183.2,189.2 -295.1,189.2 -316.6,228 -161.7,228 	"/>
	<polygon class="st1" points="-161.7,228 -316.6,228 -351,289.9 -295.9,389 -182.4,389 -127.3,289.9 	"/>
</g>
<path class="st2" d="M-235.3,196.9c-1.3,0-2.8,1-3.4,2.7c-0.1,0-0.2,0-0.4,0c-0.1,0-0.2,0-0.4,0c-0.5-1.7-2.2-2.7-3.6-2.7
	c-1.2,0-2.1,0.8-2.3,2.1c-0.1,0.4,0.2,0.7,0.5,0.7c0.4,0.1,0.7-0.2,0.7-0.5c0.1-0.7,0.4-1,1-1c0.9,0,2.1,0.8,2.4,1.9
	c-0.2,0.1-0.4,0.3-0.5,0.4c-0.7,0.7-1.2,1.7-1.5,2.3l-0.1,0.1c-0.3,0.5-0.5,1.1-0.7,1.6c-1.2,0.7-2.4,1.5-3.3,2.4
	c-1.2,1.2-1.8,2.3-1.7,3.4c0,0.9,0.5,1.8,1.4,2.6c0.9,0.8,1.8,1,2.7,0.8c0.1,0.3,0.2,0.6,0.3,0.9c1.4,3.5,4.3,4.8,4.4,4.8l0.2,0.1
	l0.2-0.1c0.1,0,1.4-0.5,2.7-1.8c0.9-0.9,1.8-2.2,2.4-3.9l0,0c0.7,0.2,1.7,0.3,2.9-0.7c0.1-0.1,0.2-0.2,0.3-0.3c0.9-0.9,1.3-2,1-3.2
	c-0.5-1.9-2.6-3.7-4.8-5c-0.2-0.7-0.5-1.4-0.8-2.1c-0.6-1.4-1.3-2.1-2-2.6c0.3-1.1,1.3-1.8,2.1-1.8c0.5,0,0.8,0.4,0.9,1
	c0,0.4,0.4,0.6,0.7,0.6c0.1,0,0.3-0.1,0.4-0.2c0.1-0.1,0.2-0.3,0.2-0.6C-233.4,197.4-234.4,196.9-235.3,196.9z M-231.1,209.9
	c0.2,0.8-0.1,1.5-0.9,2.1s-1.3,0.6-1.6,0.5c0,0-0.1,0-0.1-0.1c-0.4-0.2-0.8-0.5-1.2-1c-0.3-0.3-0.5-0.7-0.8-1.1
	c-0.4-0.7-0.7-1.4-1.1-2.2c-0.2-0.6-0.5-1.2-0.7-1.7c-0.3-0.8-0.5-1.5-0.7-2.2l0,0c1.2,0.5,2.7,1.3,4,2.3
	C-232.6,207.6-231.4,208.8-231.1,209.9z M-246.3,211.9c-0.6-0.5-0.9-1.1-0.9-1.6c0-0.7,0.4-1.6,1.3-2.4c0.5-0.5,1.1-1,1.8-1.4
	c1.4-0.9,2.9-1.7,4-2.2l0,0c-0.2,0.6-0.4,1.3-0.7,2.2c-0.2,0.6-0.4,1.1-0.7,1.7c-0.3,0.8-0.7,1.5-1.1,2.2c-0.3,0.4-0.6,0.8-0.9,1.2
	c-0.1,0.1-0.1,0.2-0.2,0.2c-0.4,0.3-0.7,0.6-1,0.7C-245.2,212.6-245.7,212.4-246.3,211.9z M-239.4,206.4h0.5
	c0.2,0.6,0.4,1.1,0.6,1.7h-1.8C-239.8,207.6-239.6,207-239.4,206.4z M-241.1,210.3h3.8c0.3,0.6,0.7,1.2,1.1,1.7l-6.1-0.1
	C-241.8,211.5-241.4,211-241.1,210.3z M-236.8,216h-5c-0.4-0.5-0.7-1.1-1-1.7l7.1,0.1C-236,214.9-236.4,215.5-236.8,216z
	 M-236.7,203c0.1,0.2,0.2,0.4,0.3,0.6c-0.9-0.5-1.8-0.8-2.3-1c-0.1-0.1-0.2-0.1-0.4-0.1c-0.1,0-0.2,0-0.4,0.1
	c-0.6,0.2-1.3,0.5-2.2,0.9v-0.1l0.1-0.1c0.2-0.5,0.6-1.4,1.2-2c0.4-0.4,0.8-0.6,1.2-0.5C-238.1,200.8-237.3,201.6-236.7,203z"/>
<text transform="matrix(1 0 0 1 -318.4762 252.4833)" class="st3 st4 st5">Adobe Photoshop Basics</text>
<rect x="-328.5" y="265.7" class="st6" width="174.7" height="51.1"/>
<text transform="matrix(1 0 0 1 -324.8741 274.8447)" class="st7 st8 st9">Photoshop is an essential tool in  </text>
<text transform="matrix(1 0 0 1 -324.5741 288.0447)" class="st7 st8 st9">the creative realm. From editing  </text>
<text transform="matrix(1 0 0 1 -311.0741 301.2447)" class="st7 st8 st9">photos to making beautiful  </text>
<text transform="matrix(1 0 0 1 -321.1741 314.4447)" class="st7 st8 st9">compositions, it is a great tool! </text>
<g>
	<path class="st0" d="M-267.6,378.3c-7.2,0-13-5.8-13-13c0-7.2,5.8-13,13-13c7.2,0,13,5.8,13,13
		C-254.5,372.4-260.4,378.3-267.6,378.3z M-267.6,355c-5.7,0-10.3,4.6-10.3,10.3c0,5.7,4.6,10.3,10.3,10.3c5.7,0,10.3-4.6,10.3-10.3
		C-257.3,359.6-261.9,355-267.6,355z"/>
	<g>
		<path class="st0" d="M-269.7,359.7c0-1.2,1-2.2,2.1-2.2c1.2,0,2.2,0.9,2.2,2.1c0,1.2-0.9,2.2-2.2,2.2
			C-268.8,361.9-269.7,361-269.7,359.7z M-269.4,372.9v-10h3.7v10H-269.4z"/>
	</g>
</g>
<g>
	<path class="st10" d="M-208.3,350.5h-12.9c-1.1,0-2.1,0.6-2.7,1.6l-6.5,11.8c-0.5,0.9-0.5,2,0,3l6.4,11.6c0.5,1,1.6,1.6,2.7,1.6
		h13.1c1.1,0,2.1-0.6,2.7-1.6l6.4-11.6c0.5-0.9,0.5-2,0-3l-6.5-11.8C-206.2,351.1-207.2,350.5-208.3,350.5z"/>
	<g>
		<g>
			<path class="st11" d="M-217.8,356.4l-0.9,0.9c-0.3,0.3-0.4,0.7-0.4,1.1s0.1,0.8,0.4,1.1l5.9,5.9l-5.9,5.9
				c-0.3,0.3-0.4,0.7-0.4,1.1s0.1,0.8,0.4,1.1l0.9,0.9c0.3,0.3,0.7,0.5,1.1,0.5c0.4,0,0.8-0.2,1.1-0.5l7.8-7.8
				c0.3-0.3,0.5-0.7,0.5-1.1c0-0.4-0.2-0.8-0.5-1.1l-7.8-7.8c-0.3-0.3-0.7-0.4-1.1-0.4C-217.1,355.9-217.5,356.1-217.8,356.4
				L-217.8,356.4z"/>
		</g>
	</g>
</g>
<text transform="matrix(1 0 0 1 -278.9631 335.163)" class="st0 st12 st5">2 badges earned</text>
<g>
	<polygon class="st0" points="-183.2,189 -295.1,189 -316.6,227.7 -161.7,227.7 	"/>
	<polygon class="st1" points="-161.7,227.7 -316.6,227.7 -351,289.6 -295.9,388.7 -182.4,388.7 -127.3,289.6 	"/>
</g>
<path class="st2" d="M-235.3,196.6c-1.3,0-2.8,1-3.4,2.7c-0.1,0-0.2,0-0.4,0c-0.1,0-0.2,0-0.4,0c-0.5-1.7-2.2-2.7-3.6-2.7
	c-1.2,0-2.1,0.8-2.3,2.1c-0.1,0.4,0.2,0.7,0.5,0.7c0.4,0.1,0.7-0.2,0.7-0.5c0.1-0.7,0.4-1,1-1c0.9,0,2.1,0.8,2.4,1.9
	c-0.2,0.1-0.4,0.3-0.5,0.4c-0.7,0.7-1.2,1.7-1.5,2.3l-0.1,0.1c-0.3,0.5-0.5,1.1-0.7,1.6c-1.2,0.7-2.4,1.5-3.3,2.4
	c-1.2,1.2-1.8,2.3-1.7,3.4c0,0.9,0.5,1.8,1.4,2.6c0.9,0.8,1.8,1,2.7,0.8c0.1,0.3,0.2,0.6,0.3,0.9c1.4,3.5,4.3,4.8,4.4,4.8l0.2,0.1
	l0.2-0.1c0.1,0,1.4-0.5,2.7-1.8c0.9-0.9,1.8-2.2,2.4-3.9l0,0c0.7,0.2,1.7,0.3,2.9-0.7c0.1-0.1,0.2-0.2,0.3-0.3c0.9-0.9,1.3-2,1-3.2
	c-0.5-1.9-2.6-3.7-4.8-5c-0.2-0.7-0.5-1.4-0.8-2.1c-0.6-1.4-1.3-2.1-2-2.6c0.3-1.1,1.3-1.8,2.1-1.8c0.5,0,0.8,0.4,0.9,1
	c0,0.4,0.4,0.6,0.7,0.6c0.1,0,0.3-0.1,0.4-0.2c0.1-0.1,0.2-0.3,0.2-0.6C-233.4,197.2-234.4,196.6-235.3,196.6z M-231.1,209.6
	c0.2,0.8-0.1,1.5-0.9,2.1s-1.3,0.6-1.6,0.5c0,0-0.1,0-0.1-0.1c-0.4-0.2-0.8-0.5-1.2-1c-0.3-0.3-0.5-0.7-0.8-1.1
	c-0.4-0.7-0.7-1.4-1.1-2.2c-0.2-0.6-0.5-1.2-0.7-1.7c-0.3-0.8-0.5-1.5-0.7-2.2l0,0c1.2,0.5,2.7,1.3,4,2.3
	C-232.6,207.3-231.4,208.5-231.1,209.6z M-246.3,211.6c-0.6-0.5-0.9-1.1-0.9-1.6c0-0.7,0.4-1.6,1.3-2.4c0.5-0.5,1.1-1,1.8-1.4
	c1.4-0.9,2.9-1.7,4-2.2l0,0c-0.2,0.6-0.4,1.3-0.7,2.2c-0.2,0.6-0.4,1.1-0.7,1.7c-0.3,0.8-0.7,1.5-1.1,2.2c-0.3,0.4-0.6,0.8-0.9,1.2
	c-0.1,0.1-0.1,0.2-0.2,0.2c-0.4,0.3-0.7,0.6-1,0.7C-245.2,212.3-245.7,212.1-246.3,211.6z M-239.4,206.2h0.5
	c0.2,0.6,0.4,1.1,0.6,1.7h-1.8C-239.8,207.3-239.6,206.7-239.4,206.2z M-241.1,210h3.8c0.3,0.6,0.7,1.2,1.1,1.7l-6.1-0.1
	C-241.8,211.3-241.4,210.7-241.1,210z M-236.8,215.7h-5c-0.4-0.5-0.7-1.1-1-1.7l7.1,0.1C-236,214.7-236.4,215.2-236.8,215.7z
	 M-236.7,202.8c0.1,0.2,0.2,0.4,0.3,0.6c-0.9-0.5-1.8-0.8-2.3-1c-0.1-0.1-0.2-0.1-0.4-0.1c-0.1,0-0.2,0-0.4,0.1
	c-0.6,0.2-1.3,0.5-2.2,0.9v-0.1l0.1-0.1c0.2-0.5,0.6-1.4,1.2-2c0.4-0.4,0.8-0.6,1.2-0.5C-238.1,200.5-237.3,201.3-236.7,202.8z"/>
<text transform="matrix(1 0 0 1 -284.9149 252.2041)" class="st3 st4 st13">Design an Icon</text>
<rect x="-328.5" y="264.3" class="st6" width="174.7" height="51.1"/>
<text transform="matrix(1 0 0 1 -324.8741 273.4355)" class="st7 st8 st9">Icons are essential in all aspects </text>
<text transform="matrix(1 0 0 1 -327.2741 286.6355)" class="st7 st8 st9">of design. In this project, you can </text>
<text transform="matrix(1 0 0 1 -328.2741 299.8355)" class="st7 st8 st9">use illustrator to create an icon of </text>
<text transform="matrix(1 0 0 1 -267.0741 313.0355)" class="st7 st8 st9">your own.</text>
<g>
	<path class="st0" d="M-267.6,378c-7.2,0-13-5.8-13-13s5.8-13,13-13c7.2,0,13,5.8,13,13S-260.4,378-267.6,378z M-267.6,354.7
		c-5.7,0-10.3,4.6-10.3,10.3s4.6,10.3,10.3,10.3c5.7,0,10.3-4.6,10.3-10.3S-261.9,354.7-267.6,354.7z"/>
	<g>
		<path class="st0" d="M-269.7,359.5c0-1.2,1-2.2,2.1-2.2c1.2,0,2.2,0.9,2.2,2.1c0,1.2-0.9,2.2-2.2,2.2
			C-268.8,361.6-269.7,360.7-269.7,359.5z M-269.4,372.6v-10h3.7v10H-269.4z"/>
	</g>
</g>
<g>
	<path class="st10" d="M-208.3,350.2h-12.9c-1.1,0-2.1,0.6-2.7,1.6l-6.5,11.8c-0.5,0.9-0.5,2,0,3l6.4,11.6c0.5,1,1.6,1.6,2.7,1.6
		h13.1c1.1,0,2.1-0.6,2.7-1.6l6.4-11.6c0.5-0.9,0.5-2,0-3l-6.5-11.8C-206.2,350.8-207.2,350.2-208.3,350.2z"/>
	<g>
		<g>
			<path class="st11" d="M-217.8,356.1l-0.9,0.9c-0.3,0.3-0.4,0.7-0.4,1.1s0.1,0.8,0.4,1.1l5.9,5.9l-5.9,5.9
				c-0.3,0.3-0.4,0.7-0.4,1.1s0.1,0.8,0.4,1.1l0.9,0.9c0.3,0.3,0.7,0.5,1.1,0.5c0.4,0,0.8-0.2,1.1-0.5l7.8-7.8
				c0.3-0.3,0.5-0.7,0.5-1.1c0-0.4-0.2-0.8-0.5-1.1l-7.8-7.8c-0.3-0.3-0.7-0.4-1.1-0.4C-217.1,355.6-217.5,355.8-217.8,356.1
				L-217.8,356.1z"/>
		</g>
	</g>
</g>
<text transform="matrix(1 0 0 1 -276.3765 334.8837)" class="st0 st12 st5">1 badge earned</text>
<circle class="st14" cx="-184.3" cy="188.7" r="16.7"/>
<path class="st2" d="M-176.7,182.2H-192c-1.1,0-2.1,0.9-2.1,2.1v8.9c0,1.1,0.9,2.1,2.1,2.1h15.3c1.1,0,2.1-0.9,2.1-2.1v-8.9
	C-174.6,183.2-175.5,182.2-176.7,182.2z M-176.7,183.6c0.1,0,0.2,0,0.2,0l-7.1,4.4c-0.5,0.3-1.1,0.3-1.6,0l-7-4.4c0.1,0,0.2,0,0.2,0
	H-176.7z M-176.7,193.9H-192c-0.4,0-0.7-0.3-0.7-0.7v-7.7l6.6,4.1c0.5,0.3,1.1,0.5,1.7,0.5c0.6,0,1.2-0.2,1.7-0.5l6.6-4.1v7.8
	C-176,193.6-176.3,193.9-176.7,193.9z"/>
<polygon class="st14" points="-164.8,188.3 -158.9,190.8 -158.9,195.3 -95.9,195.3 -95.9,181.3 -158.9,181.3 -158.9,185.8 "/>
<text transform="matrix(1 0 0 1 -152.3219 191.4696)" class="st1 st12 st15">NEW MESSAGE</text>
</svg>
