<?xml version="1.0" encoding="utf-8"?>
<!-- Generator: Adobe Illustrator 19.1.0, SVG Export Plug-In . SVG Version: 6.00 Build 0)  -->
<svg version="1.1" id="Layer_1" xmlns="http://www.w3.org/2000/svg" xmlns:xlink="http://www.w3.org/1999/xlink" x="0px" y="0px"
	 viewBox="-360 177.4 231.3 206.6" style="enable-background:new -360 177.4 231.3 206.6;" xml:space="preserve">
<style type="text/css">
	.st0{fill:#EBB91D;}
	.st1{fill:#FFFFFF;}
	.st2{enable-background:new    ;}
	.st3{fill:#767676;}
	.st4{fill:none;}
	.st5{fill:#231F20;}
	.st6{fill:#ECEEEE;}
	.st7{fill:#39A5E1;}
	.st8{fill:#EBEDED;}
	.st9{fill:#BDBBBC;}
</style>
<g>
	<g>
		<polygon class="st0" points="-186.5,177.4 -302.2,177.4 -324.4,217.4 -164.2,217.4 		"/>
		<polygon class="st1" points="-164.2,217.4 -324.4,217.4 -360,281.4 -303,384 -185.6,384 -128.7,281.4 		"/>
	</g>
	<g>
		<g class="st2">
			<path class="st3" d="M-310.2,235.8h-2.7v-1.7h7.8v1.7h-2.7v7h-2.4V235.8z"/>
			<path class="st3" d="M-298.7,236.8l-3.3,8.3h-2.1l0.9-2.1l-2.5-6.2h2.4l1.2,4.2h0l1.3-4.2H-298.7z"/>
			<path class="st3" d="M-295.6,237.6L-295.6,237.6c0.5-0.7,1.1-1,2-1c1.8,0,2.6,1.5,2.6,3.1c0,1.8-0.9,3.3-2.8,3.3
				c-0.7,0-1.3-0.4-1.7-0.9h0v3h-2.3v-8.3h2.3V237.6z M-295.6,239.8c0,0.8,0.1,1.9,1.1,1.9s1.1-1.1,1.1-1.9s-0.1-1.9-1.1-1.9
				S-295.6,239-295.6,239.8z"/>
			<path class="st3" d="M-283,239.8c0,2.2-1.6,3.2-3.5,3.2s-3.5-1-3.5-3.2s1.6-3.2,3.5-3.2S-283,237.6-283,239.8z M-286.5,241.6
				c1,0,1.2-1,1.2-1.9s-0.2-1.9-1.2-1.9s-1.2,1-1.2,1.9S-287.5,241.6-286.5,241.6z"/>
			<path class="st3" d="M-275.1,241.9c0,1-0.1,1.7-0.8,2.4c-0.6,0.6-1.9,0.8-2.6,0.8c-1.3,0-3.1-0.3-3.1-2.1h2.1
				c0,0.3,0.1,0.5,0.3,0.6c0.2,0.1,0.4,0.2,0.7,0.2c1,0,1.2-0.6,1.2-1.5v-0.7h0c-0.4,0.7-1.2,1-2,1c-1.7,0-2.6-1.4-2.6-3
				c0-1.8,1-3,2.8-3c0.8,0,1.5,0.3,1.8,1.1h0l0.1-0.9h2.2V241.9z M-278.6,237.9c-0.9,0-1.1,0.9-1.1,1.7c0,0.7,0.2,1.7,1.1,1.7
				s1.1-0.9,1.1-1.7C-277.4,238.8-277.6,237.9-278.6,237.9z"/>
			<path class="st3" d="M-271.4,237.9L-271.4,237.9c0.3-1,1-1.3,2-1.3v1.9c-0.2,0-0.3,0-0.5,0c-1.2,0-1.6,0.7-1.6,1.9v2.4h-2.3v-4.5
				c0-0.5,0-0.9-0.1-1.5h2.3L-271.4,237.9z"/>
			<path class="st3" d="M-264.7,242.8c0-0.2,0-0.4,0-0.8h0c-0.3,0.4-0.8,1-1.9,1c-1.4,0-2.2-0.8-2.1-2c0-1.5,1.4-2.1,3.3-2.1h0.7
				c0-0.5,0.1-1.3-0.8-1.3c-0.6,0-0.7,0.6-0.7,0.9h-2.1c0-0.9,0.4-1.3,1-1.6c0.6-0.3,1.4-0.4,2.1-0.4c1.2,0,2.7,0.5,2.7,1.9v3.1
				c0,0.3,0,0.5,0.1,1.2H-264.7z M-265.8,241.6c1,0,1.1-0.9,1.1-1.7c-0.5,0-0.9,0-1.2,0.1c-0.3,0.2-0.6,0.4-0.6,0.8
				C-266.6,241.3-266.2,241.6-265.8,241.6z"/>
			<path class="st3" d="M-258.9,237.6L-258.9,237.6c0.5-0.7,1.1-1,2-1c1.8,0,2.6,1.5,2.6,3.1c0,1.8-0.9,3.3-2.8,3.3
				c-0.7,0-1.3-0.4-1.7-0.9h0v3h-2.3v-8.3h2.3V237.6z M-258.9,239.8c0,0.8,0.1,1.9,1.1,1.9s1.1-1.1,1.1-1.9s-0.1-1.9-1.1-1.9
				S-258.9,239-258.9,239.8z"/>
			<path class="st3" d="M-253.1,242.8v-8.7h2.3v3.3c0.5-0.6,1.1-0.8,1.9-0.8c1.3,0,2.3,0.8,2.3,2.2v4h-2.3v-3.5
				c0-0.6-0.2-1.2-0.9-1.2c-1.1,0-1,1.2-1,1.3v3.5H-253.1z"/>
			<path class="st3" d="M-238.7,236.8l-3.3,8.3h-2.1l0.9-2.1l-2.5-6.2h2.4l1.2,4.2h0l1.3-4.2H-238.7z"/>
			<path class="st3" d="M-233.7,235.7v-1.6h2.3v1.6H-233.7z M-233.6,242.8v-6h2.3v6H-233.6z"/>
			<path class="st3" d="M-227.4,237.4c0.5-0.6,1.1-0.8,1.9-0.8c1.3,0,2.3,0.8,2.3,2.2v4h-2.3v-3.5c0-0.6-0.2-1.2-0.9-1.2
				c-1.1,0-1,1.2-1,1.3v3.5h-2.3v-4.5c0-0.5,0-0.9-0.1-1.5h2.3L-227.4,237.4z"/>
			<path class="st3" d="M-214.1,234.1c3,0,4.9,1.1,4.9,4.3c0,3.2-2,4.3-4.9,4.3h-3.7v-8.7H-214.1z M-215.3,241.1h1.1
				c1.3,0,2.5-0.9,2.5-2.7c0-1.8-1.2-2.7-2.5-2.7h-1.1V241.1z"/>
			<path class="st3" d="M-206,240.2c0,0.8,0.2,1.5,1,1.5c0.6,0,1-0.3,1.1-0.9h2.1c-0.1,0.8-0.6,1.3-1.1,1.7
				c-0.5,0.3-1.2,0.5-1.9,0.5c-2.4,0-3.4-1-3.4-3.4c0-1.9,1.4-3,3.2-3c2.4,0,3.2,1.4,3.2,3.6H-206z M-203.8,239
				c0-0.3-0.1-0.6-0.3-0.9s-0.4-0.4-0.8-0.4c-0.8,0-1,0.6-1,1.3H-203.8z"/>
			<path class="st3" d="M-198.2,237.6L-198.2,237.6c0.5-0.7,1.1-1,2-1c1.8,0,2.6,1.5,2.6,3.1c0,1.8-0.9,3.3-2.8,3.3
				c-0.7,0-1.3-0.4-1.7-0.9h0v3h-2.3v-8.3h2.3V237.6z M-198.2,239.8c0,0.8,0.1,1.9,1.1,1.9c1,0,1.1-1.1,1.1-1.9s-0.1-1.9-1.1-1.9
				C-198.1,237.9-198.2,239-198.2,239.8z"/>
			<path class="st3" d="M-191.9,236.8v-0.9l2.3-0.9v1.8h1.3v1.4h-1.3v2.4c0,0.2-0.1,0.9,0.4,0.9c0.3,0,0.6,0,0.9,0v1.4
				c-0.5,0.1-0.9,0.1-1.2,0.1c-1.5,0-2.5-0.2-2.4-2.1v-2.7h-1.2v-1.4H-191.9z"/>
			<path class="st3" d="M-187.1,242.8v-8.7h2.3v3.3c0.5-0.6,1.1-0.8,1.9-0.8c1.3,0,2.3,0.8,2.3,2.2v4h-2.3v-3.5
				c0-0.6-0.2-1.2-0.9-1.2c-1.1,0-1,1.2-1,1.3v3.5H-187.1z"/>
		</g>
	</g>
	<g>
		<rect x="-336.7" y="255.6" class="st4" width="180.6" height="51.1"/>
		<g class="st2">
			<path class="st5" d="M-333.7,264h0.8l2.8-6.5h1.2l2.7,6.5h0.8v0.7h-3V264h1.1l-0.7-1.7h-3.2l-0.7,1.7h1.1v0.7h-2.9V264z
				 M-329.6,258.4l-1.3,3.2h2.6L-329.6,258.4z"/>
			<path class="st5" d="M-324.9,264h0.9v-3.6h-1v-0.7h1v-0.5c0-1.2,0.5-1.7,1.8-1.7c0.3,0,0.5,0.1,0.8,0.1v0.7
				c-0.3,0-0.6-0.1-0.9-0.1c-0.8,0-0.9,0.5-0.9,1v0.5h1.2v0.7h-1.2v3.6h1.1v0.7h-2.9V264z"/>
			<path class="st5" d="M-317.9,260.4h-1.6v2.9c0,0.4,0.1,0.8,0.6,0.8c0.5,0,0.6-0.5,0.6-0.9h0.8c0,1-0.4,1.7-1.5,1.7
				c-1.3,0-1.3-0.9-1.3-1.9v-2.5h-1v-0.7h1v-1.1l0.9-0.3v1.4h1.6V260.4z"/>
			<path class="st5" d="M-315.8,262.4c0,1.2,0.6,1.7,1.8,1.7c0.6,0,1.4-0.3,1.4-1h0.8c0,1.2-1.3,1.7-2.4,1.7c-1.6,0-2.7-1-2.7-2.6
				c0-1.6,1-2.6,2.7-2.6c1.8,0,2.4,1.3,2.4,2.9H-315.8z M-312.6,261.7c-0.1-0.9-0.6-1.5-1.6-1.5c-0.9,0-1.6,0.5-1.6,1.5H-312.6z"/>
			<path class="st5" d="M-310.8,264h0.9v-3.6h-0.9v-0.7h1.8v1h0c0.2-0.8,0.8-1.1,1.5-1.1c0.2,0,0.3,0,0.4,0v0.7
				c-0.1,0-0.3-0.1-0.5-0.1c-1.3,0-1.4,1.3-1.4,2.4v1.4h1v0.7h-2.8V264z"/>
			<path class="st5" d="M-297.9,260.4h-0.6l-2.1,4.8c-0.4,0.9-0.6,1.5-1.6,1.5c-0.2,0-0.5,0-0.7-0.1v-0.7c0.2,0,0.3,0,0.5,0
				c0.8,0,0.8-0.6,1.1-1.2l-1.9-4.3h-0.6v-0.7h2.5v0.7h-1l1.4,3.4l1.4-3.4h-1v-0.7h2.4V260.4z"/>
			<path class="st5" d="M-294.7,259.5c1.6,0,2.6,1,2.6,2.6c0,1.6-1,2.6-2.6,2.6c-1.6,0-2.7-1-2.7-2.6
				C-297.3,260.5-296.3,259.5-294.7,259.5z M-294.7,264.1c1.1,0,1.7-0.9,1.7-1.9s-0.5-1.9-1.7-1.9c-1.1,0-1.7,0.9-1.7,1.9
				S-295.8,264.1-294.7,264.1z"/>
			<path class="st5" d="M-286.1,264h0.9v0.7h-1.8v-0.9h0c-0.2,0.6-0.9,1-1.6,1c-1.3,0-1.8-0.6-1.8-1.8v-2.6h-0.9v-0.7h1.8v3.1
				c0,0.8,0.3,1.3,1.2,1.3c1,0,1.4-0.7,1.4-1.6v-2.1h-0.9v-0.7h1.8V264z"/>
			<path class="st5" d="M-283.9,257.5h1.1v1.1l-0.5,1.4h-0.6l0.5-1.4h-0.5V257.5z"/>
			<path class="st5" d="M-275.9,260.4h-0.6l-1.8,4.3h-1.1l-1.7-4.3h-0.6v-0.7h2.5v0.7h-0.9l1.4,3.5l1.4-3.5h-0.9v-0.7h2.4V260.4z"/>
			<path class="st5" d="M-274.2,262.4c0,1.2,0.6,1.7,1.8,1.7c0.6,0,1.4-0.3,1.4-1h0.8c0,1.2-1.3,1.7-2.4,1.7c-1.6,0-2.7-1-2.7-2.6
				c0-1.6,1-2.6,2.7-2.6c1.8,0,2.4,1.3,2.4,2.9H-274.2z M-271,261.7c-0.1-0.9-0.6-1.5-1.6-1.5c-0.9,0-1.6,0.5-1.6,1.5H-271z"/>
			<path class="st5" d="M-266.3,264h0.9v-5.8h-0.9v-0.7h1.8v6.5h0.9v0.7h-2.6V264z"/>
			<path class="st5" d="M-262,262.4c0,1.2,0.6,1.7,1.8,1.7c0.6,0,1.4-0.3,1.4-1h0.8c0,1.2-1.3,1.7-2.4,1.7c-1.6,0-2.7-1-2.7-2.6
				c0-1.6,1-2.6,2.7-2.6c1.8,0,2.4,1.3,2.4,2.9H-262z M-258.8,261.7c-0.1-0.9-0.6-1.5-1.6-1.5c-0.9,0-1.6,0.5-1.6,1.5H-258.8z"/>
			<path class="st5" d="M-253.3,263.6L-253.3,263.6c-0.2,0.8-0.9,1.1-1.7,1.1c-1,0-2-0.4-2-1.6c0-1.5,1.5-1.6,2.7-1.6h1v-0.3
				c0-0.8-0.4-1.1-1.2-1.1c-0.7,0-1.2,0.1-1.3,0.9h-1c0.1-1.2,1.1-1.6,2.2-1.6c1.2,0,2.2,0.3,2.2,1.6v2.9h0.9v0.7h-1.8V263.6z
				 M-254.9,264.1c1.1,0,1.6-0.8,1.6-1.8h-0.8c-0.6,0-1.9,0-1.9,0.9C-256,263.9-255.4,264.1-254.9,264.1z"/>
			<path class="st5" d="M-250.9,264h0.9v-3.6h-0.9v-0.7h1.8v1h0c0.2-0.8,0.8-1.1,1.5-1.1c0.2,0,0.3,0,0.4,0v0.7
				c-0.1,0-0.3-0.1-0.5-0.1c-1.3,0-1.4,1.3-1.4,2.4v1.4h1v0.7h-2.8V264z"/>
			<path class="st5" d="M-246.6,264h0.9v-3.6h-0.9v-0.7h1.8v0.9h0c0.2-0.6,0.9-1,1.7-1c1.3,0,1.8,0.6,1.8,1.8v2.6h0.9v0.7h-2.6V264
				h0.9v-2.4c0-0.8-0.3-1.3-1.2-1.3c-1,0-1.4,0.7-1.4,1.6v2.1h0.9v0.7h-2.6V264z"/>
			<path class="st5" d="M-238.8,262.4c0,1.2,0.6,1.7,1.8,1.7c0.6,0,1.4-0.3,1.4-1h0.8c0,1.2-1.3,1.7-2.4,1.7c-1.6,0-2.7-1-2.7-2.6
				c0-1.6,1-2.6,2.7-2.6c1.8,0,2.4,1.3,2.4,2.9H-238.8z M-235.6,261.7c-0.1-0.9-0.6-1.5-1.6-1.5c-0.9,0-1.6,0.5-1.6,1.5H-235.6z"/>
			<path class="st5" d="M-229.5,263.7L-229.5,263.7c-0.3,0.6-1,1.1-1.8,1.1c-1.7,0-2.4-1.1-2.4-2.6c0-1.5,0.9-2.6,2.4-2.6
				c0.7,0,1.5,0.4,1.8,1h0v-2.4h-0.9v-0.7h1.8v6.5h0.9v0.7h-1.8V263.7z M-231.1,260.2c-1.1,0-1.7,0.8-1.7,1.9c0,1,0.5,1.9,1.7,1.9
				c1.1,0,1.6-0.9,1.6-1.9C-229.5,261.1-230,260.2-231.1,260.2z"/>
			<path class="st5" d="M-220.7,260.4h-1.6v2.9c0,0.4,0.1,0.8,0.5,0.8c0.5,0,0.6-0.5,0.6-0.9h0.8c0,1-0.4,1.7-1.5,1.7
				c-1.3,0-1.3-0.9-1.3-1.9v-2.5h-1v-0.7h1v-1.1l0.9-0.3v1.4h1.6V260.4z"/>
			<path class="st5" d="M-219.7,264h0.9v-5.8h-0.9v-0.7h1.8v3.1h0c0.2-0.6,0.9-1,1.7-1c1.3,0,1.8,0.6,1.8,1.8v2.6h0.9v0.7h-2.6V264
				h0.9v-2.4c0-0.8-0.3-1.3-1.2-1.3c-1,0-1.4,0.7-1.4,1.6v2.1h0.9v0.7h-2.6V264z"/>
			<path class="st5" d="M-211.9,262.4c0,1.2,0.6,1.7,1.8,1.7c0.6,0,1.4-0.3,1.4-1h0.8c0,1.2-1.3,1.7-2.4,1.7c-1.6,0-2.7-1-2.7-2.6
				c0-1.6,1-2.6,2.7-2.6c1.8,0,2.4,1.3,2.4,2.9H-211.9z M-208.7,261.7c-0.1-0.9-0.6-1.5-1.6-1.5c-0.9,0-1.6,0.5-1.6,1.5H-208.7z"/>
			<path class="st5" d="M-204,264h0.9v-5.8h-0.9v-0.7h1.8v3.1h0c0.3-0.6,1.1-1,1.7-1c1.6,0,2.5,1,2.5,2.6c0,1.6-0.9,2.6-2.5,2.6
				c-0.7,0-1.5-0.4-1.7-1.1h0v1h-1.8V264z M-200.4,264.1c1,0,1.5-0.8,1.5-1.9c0-1-0.5-1.9-1.5-1.9c-1.2,0-1.8,0.9-1.8,1.9
				C-202.2,263.3-201.6,264.1-200.4,264.1z"/>
			<path class="st5" d="M-193.4,263.6L-193.4,263.6c-0.2,0.8-0.9,1.1-1.7,1.1c-1,0-2-0.4-2-1.6c0-1.5,1.5-1.6,2.7-1.6h1v-0.3
				c0-0.8-0.4-1.1-1.2-1.1c-0.7,0-1.2,0.1-1.3,0.9h-1c0.1-1.2,1.1-1.6,2.2-1.6c1.2,0,2.2,0.3,2.2,1.6v2.9h0.9v0.7h-1.8V263.6z
				 M-195,264.1c1.1,0,1.6-0.8,1.6-1.8h-0.8c-0.6,0-1.9,0-1.9,0.9C-196.1,263.9-195.5,264.1-195,264.1z"/>
			<path class="st5" d="M-190.8,264.7v-1.7h0.7c0,1,0.8,1.2,1.6,1.2c0.4,0,1-0.2,1-0.8c0-0.7-0.7-0.7-1.3-0.7c-0.9-0.2-2-0.3-2-1.4
				c0-1.1,1-1.6,1.9-1.6c0.6,0,1.3,0.2,1.5,0.7h0v-0.6h0.7v1.7h-0.7c0-0.9-0.6-1.1-1.4-1.1c-0.5,0-1.2,0.1-1.2,0.8
				c0,0.6,0.9,0.6,1.5,0.7c0.9,0.2,1.9,0.3,1.9,1.4c0,1.2-1.1,1.6-2.1,1.6c-0.6,0-1.3-0.2-1.5-0.8h0v0.7H-190.8z"/>
			<path class="st5" d="M-185.6,264h0.9v-3.6h-0.9v-0.7h1.8v4.3h0.9v0.7h-2.6V264z M-183.8,258.5h-1v-1h1V258.5z"/>
			<path class="st5" d="M-177.7,261.5h-0.7c-0.1-0.8-0.6-1.3-1.4-1.3c-1.1,0-1.6,0.9-1.6,1.9s0.6,1.9,1.6,1.9c0.7,0,1.3-0.4,1.4-1.1
				h0.8c0,1.2-1.1,1.8-2.2,1.8c-1.6,0-2.6-1-2.6-2.6c0-1.6,1-2.6,2.6-2.6c0.6,0,1.1,0.2,1.4,0.7h0v-0.6h0.7V261.5z"/>
			<path class="st5" d="M-176.7,264.7v-1.7h0.7c0,1,0.8,1.2,1.6,1.2c0.4,0,1-0.2,1-0.8c0-0.7-0.7-0.7-1.3-0.7c-0.9-0.2-2-0.3-2-1.4
				c0-1.1,1-1.6,1.9-1.6c0.6,0,1.3,0.2,1.5,0.7h0v-0.6h0.7v1.7h-0.7c0-0.9-0.6-1.1-1.4-1.1c-0.5,0-1.2,0.1-1.2,0.8
				c0,0.6,0.9,0.6,1.5,0.7c0.9,0.2,1.9,0.3,1.9,1.4c0,1.2-1.1,1.6-2.1,1.6c-0.6,0-1.3-0.2-1.5-0.8h0v0.7H-176.7z"/>
			<path class="st5" d="M-165.7,259.5c1.6,0,2.6,1,2.6,2.6c0,1.6-1,2.6-2.6,2.6c-1.6,0-2.7-1-2.7-2.6
				C-168.3,260.5-167.3,259.5-165.7,259.5z M-165.7,264.1c1.1,0,1.7-0.9,1.7-1.9s-0.5-1.9-1.7-1.9c-1.1,0-1.7,0.9-1.7,1.9
				S-166.8,264.1-165.7,264.1z"/>
			<path class="st5" d="M-162.3,264h0.9v-3.6h-1v-0.7h1v-0.5c0-1.2,0.5-1.7,1.8-1.7c0.3,0,0.5,0.1,0.8,0.1v0.7
				c-0.3,0-0.6-0.1-0.9-0.1c-0.8,0-0.9,0.5-0.9,1v0.5h1.2v0.7h-1.2v3.6h1.1v0.7h-2.9V264z"/>
		</g>
		<g class="st2">
			<path class="st5" d="M-332.5,273.6h-1.6v2.9c0,0.4,0.1,0.8,0.6,0.8c0.5,0,0.6-0.5,0.6-0.9h0.8c0,1-0.4,1.7-1.5,1.7
				c-1.3,0-1.3-0.9-1.3-1.9v-2.5h-1v-0.7h1v-1.1l0.9-0.3v1.4h1.6V273.6z"/>
			<path class="st5" d="M-326,273.6h-0.6l-2.1,4.8c-0.4,0.9-0.6,1.5-1.6,1.5c-0.2,0-0.5,0-0.7-0.1V279c0.2,0,0.3,0,0.5,0
				c0.8,0,0.8-0.6,1.1-1.2l-1.9-4.3h-0.6v-0.7h2.5v0.7h-1l1.4,3.4l1.4-3.4h-1v-0.7h2.4V273.6z"/>
			<path class="st5" d="M-325.6,279h0.9v-5.4h-0.9v-0.7h1.8v1h0c0.3-0.6,0.9-1.1,1.7-1.1c1.6,0,2.5,1,2.5,2.6c0,1.6-0.9,2.6-2.5,2.6
				c-0.8,0-1.4-0.4-1.7-1.1h0v2.1h0.9v0.7h-2.7V279z M-322,277.3c1,0,1.5-0.8,1.5-1.9c0-1-0.5-1.9-1.5-1.9c-1.2,0-1.8,0.9-1.8,1.9
				C-323.8,276.5-323.2,277.3-322,277.3z"/>
			<path class="st5" d="M-316,272.7c1.6,0,2.6,1,2.6,2.6c0,1.6-1,2.6-2.6,2.6c-1.6,0-2.7-1-2.7-2.6
				C-318.7,273.7-317.6,272.7-316,272.7z M-316,277.3c1.1,0,1.7-0.9,1.7-1.9s-0.5-1.9-1.7-1.9c-1.1,0-1.7,0.9-1.7,1.9
				S-317.2,277.3-316,277.3z"/>
			<path class="st5" d="M-306.5,273.6h-0.9v2.7c0,0.8,0.1,1.8-0.3,2.5c-0.4,0.8-1.4,1-2.3,1c-1.1,0-2.4-0.2-2.4-1.5h1
				c0,0.7,0.7,0.8,1.3,0.8c1.3,0,1.7-0.5,1.7-1.8v-0.6h0c-0.3,0.7-1.1,1-1.8,1c-1.5,0-2.4-1-2.4-2.6c0-1.5,0.9-2.5,2.4-2.5
				c0.8,0,1.5,0.3,1.9,1l0,0v0h0v-0.9h1.8V273.6z M-309.9,277.1c1.1,0,1.6-0.8,1.6-1.8c0-1-0.5-1.8-1.6-1.8c-1.2,0-1.8,0.7-1.8,1.8
				C-311.6,276.3-311.1,277.1-309.9,277.1z"/>
			<path class="st5" d="M-305.9,277.2h0.9v-3.6h-0.9v-0.7h1.8v1h0c0.2-0.8,0.8-1.1,1.5-1.1c0.2,0,0.3,0,0.4,0v0.7
				c-0.1,0-0.3-0.1-0.5-0.1c-1.3,0-1.4,1.3-1.4,2.4v1.4h1v0.7h-2.8V277.2z"/>
			<path class="st5" d="M-297.9,276.8L-297.9,276.8c-0.2,0.8-0.9,1.1-1.7,1.1c-1,0-2-0.4-2-1.6c0-1.5,1.5-1.6,2.7-1.6h1v-0.3
				c0-0.8-0.4-1.1-1.2-1.1c-0.7,0-1.2,0.1-1.3,0.9h-1c0.1-1.2,1.1-1.6,2.2-1.6c1.2,0,2.2,0.3,2.2,1.6v2.9h0.9v0.7h-1.8V276.8z
				 M-299.5,277.3c1.1,0,1.6-0.8,1.6-1.8h-0.8c-0.6,0-1.9,0-1.9,0.9C-300.6,277.1-300,277.3-299.5,277.3z"/>
			<path class="st5" d="M-295.6,279h0.9v-5.4h-0.9v-0.7h1.8v1h0c0.3-0.6,0.9-1.1,1.7-1.1c1.6,0,2.5,1,2.5,2.6c0,1.6-0.9,2.6-2.5,2.6
				c-0.8,0-1.4-0.4-1.7-1.1h0v2.1h0.9v0.7h-2.7V279z M-292.1,277.3c1,0,1.5-0.8,1.5-1.9c0-1-0.5-1.9-1.5-1.9c-1.2,0-1.8,0.9-1.8,1.9
				C-293.8,276.5-293.3,277.3-292.1,277.3z"/>
			<path class="st5" d="M-288.7,277.2h0.9v-5.8h-0.9v-0.7h1.8v3.1h0c0.2-0.6,0.9-1,1.7-1c1.3,0,1.8,0.6,1.8,1.8v2.6h0.9v0.7h-2.6
				v-0.7h0.9v-2.4c0-0.8-0.3-1.3-1.2-1.3c-1,0-1.4,0.7-1.4,1.6v2.1h0.9v0.7h-2.6V277.2z"/>
			<path class="st5" d="M-276.4,273.6h-0.6l-2.1,4.8c-0.4,0.9-0.6,1.5-1.6,1.5c-0.2,0-0.5,0-0.7-0.1V279c0.2,0,0.3,0,0.5,0
				c0.8,0,0.8-0.6,1.1-1.2l-1.9-4.3h-0.6v-0.7h2.5v0.7h-1l1.4,3.4l1.4-3.4h-1v-0.7h2.4V273.6z"/>
			<path class="st5" d="M-276.1,276.8h1.1v1.1l-0.5,1.4h-0.6l0.5-1.4h-0.5V276.8z"/>
			<path class="st5" d="M-267.3,273.6h-1.6v2.9c0,0.4,0.1,0.8,0.6,0.8c0.5,0,0.6-0.5,0.6-0.9h0.8c0,1-0.4,1.7-1.5,1.7
				c-1.3,0-1.3-0.9-1.3-1.9v-2.5h-1v-0.7h1v-1.1l0.9-0.3v1.4h1.6V273.6z"/>
			<path class="st5" d="M-266.3,277.2h0.9v-5.8h-0.9v-0.7h1.8v3.1h0c0.2-0.6,0.9-1,1.7-1c1.3,0,1.8,0.6,1.8,1.8v2.6h0.9v0.7h-2.6
				v-0.7h0.9v-2.4c0-0.8-0.3-1.3-1.2-1.3c-1,0-1.4,0.7-1.4,1.6v2.1h0.9v0.7h-2.6V277.2z"/>
			<path class="st5" d="M-258.5,275.6c0,1.2,0.6,1.7,1.8,1.7c0.6,0,1.4-0.3,1.4-1h0.8c0,1.2-1.3,1.7-2.4,1.7c-1.6,0-2.7-1-2.7-2.6
				c0-1.6,1-2.6,2.7-2.6c1.8,0,2.4,1.3,2.4,2.9H-258.5z M-255.3,274.9c-0.1-0.9-0.6-1.5-1.6-1.5c-0.9,0-1.6,0.5-1.6,1.5H-255.3z"/>
			<path class="st5" d="M-253.5,277.2h0.9v-3.6h-0.9v-0.7h1.8v1h0c0.2-0.8,0.8-1.1,1.5-1.1c0.2,0,0.3,0,0.4,0v0.7
				c-0.1,0-0.3-0.1-0.5-0.1c-1.3,0-1.4,1.3-1.4,2.4v1.4h1v0.7h-2.8V277.2z"/>
			<path class="st5" d="M-248.1,275.6c0,1.2,0.6,1.7,1.8,1.7c0.6,0,1.4-0.3,1.4-1h0.8c0,1.2-1.3,1.7-2.4,1.7c-1.6,0-2.7-1-2.7-2.6
				c0-1.6,1-2.6,2.7-2.6c1.8,0,2.4,1.3,2.4,2.9H-248.1z M-244.9,274.9c-0.1-0.9-0.6-1.5-1.6-1.5c-0.9,0-1.6,0.5-1.6,1.5H-244.9z"/>
			<path class="st5" d="M-240.1,277.2h0.9v-3.6h-0.9v-0.7h1.8v4.3h0.9v0.7h-2.6V277.2z M-238.4,271.7h-1v-1h1V271.7z"/>
			<path class="st5" d="M-236.8,277.9v-1.7h0.7c0,1,0.8,1.2,1.6,1.2c0.4,0,1-0.2,1-0.8c0-0.7-0.7-0.7-1.3-0.7c-0.9-0.2-2-0.3-2-1.4
				c0-1.1,1-1.6,1.9-1.6c0.6,0,1.3,0.2,1.5,0.7h0v-0.6h0.7v1.7h-0.7c0-0.9-0.6-1.1-1.4-1.1c-0.5,0-1.2,0.1-1.2,0.8
				c0,0.6,0.9,0.6,1.5,0.7c0.9,0.2,1.9,0.3,1.9,1.4c0,1.2-1.1,1.6-2.1,1.6c-0.6,0-1.3-0.2-1.5-0.8h0v0.7H-236.8z"/>
			<path class="st5" d="M-228.5,277.2h0.9v-3.6h-0.9v-0.7h1.8v0.9h0c0.2-0.6,0.8-1,1.6-1c0.8,0,1.3,0.3,1.6,1c0.3-0.6,0.9-1,1.6-1
				c1.2,0,1.8,0.6,1.8,1.7v2.7h0.9v0.7h-2.6v-0.7h0.9v-2.1c0-0.8,0-1.6-1.1-1.6c-1,0-1.3,0.8-1.3,1.6v2.1h0.9v0.7h-2.6v-0.7h0.9
				v-2.1c0-0.9,0-1.6-1.1-1.6c-1,0-1.4,0.8-1.4,1.7v2.1h0.9v0.7h-2.6V277.2z"/>
			<path class="st5" d="M-213.6,277.2h0.9v0.7h-1.8V277h0c-0.2,0.6-0.9,1-1.6,1c-1.3,0-1.8-0.6-1.8-1.8v-2.6h-0.9v-0.7h1.8v3.1
				c0,0.8,0.3,1.3,1.2,1.3c1,0,1.4-0.7,1.4-1.6v-2.1h-0.9v-0.7h1.8V277.2z"/>
			<path class="st5" d="M-207.2,274.7h-0.7c-0.1-0.8-0.6-1.3-1.4-1.3c-1.1,0-1.6,0.9-1.6,1.9s0.6,1.9,1.6,1.9c0.7,0,1.3-0.4,1.4-1.1
				h0.8c0,1.2-1.1,1.8-2.2,1.8c-1.6,0-2.6-1-2.6-2.6c0-1.6,1-2.6,2.6-2.6c0.6,0,1.1,0.2,1.4,0.7h0v-0.6h0.7V274.7z"/>
			<path class="st5" d="M-206.4,277.2h0.9v-5.8h-0.9v-0.7h1.8v3.1h0c0.2-0.6,0.9-1,1.7-1c1.3,0,1.8,0.6,1.8,1.8v2.6h0.9v0.7h-2.6
				v-0.7h0.9v-2.4c0-0.8-0.3-1.3-1.2-1.3c-1,0-1.4,0.7-1.4,1.6v2.1h0.9v0.7h-2.6V277.2z"/>
			<path class="st5" d="M-196.7,277.2h0.9v-3.6h-0.9v-0.7h1.8v0.9h0c0.2-0.6,0.8-1,1.6-1c0.8,0,1.3,0.3,1.6,1c0.3-0.6,0.9-1,1.6-1
				c1.2,0,1.8,0.6,1.8,1.7v2.7h0.9v0.7h-2.6v-0.7h0.9v-2.1c0-0.8,0-1.6-1.1-1.6c-1,0-1.3,0.8-1.3,1.6v2.1h0.9v0.7h-2.6v-0.7h0.9
				v-2.1c0-0.9,0-1.6-1.1-1.6c-1,0-1.4,0.8-1.4,1.7v2.1h0.9v0.7h-2.6V277.2z"/>
			<path class="st5" d="M-184.2,272.7c1.6,0,2.6,1,2.6,2.6c0,1.6-1,2.6-2.6,2.6c-1.6,0-2.7-1-2.7-2.6
				C-186.9,273.7-185.8,272.7-184.2,272.7z M-184.2,277.3c1.1,0,1.7-0.9,1.7-1.9s-0.5-1.9-1.7-1.9c-1.1,0-1.7,0.9-1.7,1.9
				S-185.3,277.3-184.2,277.3z"/>
			<path class="st5" d="M-180.8,277.2h0.9v-3.6h-0.9v-0.7h1.8v1h0c0.2-0.8,0.8-1.1,1.5-1.1c0.2,0,0.3,0,0.4,0v0.7
				c-0.1,0-0.3-0.1-0.5-0.1c-1.3,0-1.4,1.3-1.4,2.4v1.4h1v0.7h-2.8V277.2z"/>
			<path class="st5" d="M-175.4,275.6c0,1.2,0.6,1.7,1.8,1.7c0.6,0,1.4-0.3,1.4-1h0.8c0,1.2-1.3,1.7-2.4,1.7c-1.6,0-2.7-1-2.7-2.6
				c0-1.6,1-2.6,2.7-2.6c1.8,0,2.4,1.3,2.4,2.9H-175.4z M-172.2,274.9c-0.1-0.9-0.6-1.5-1.6-1.5c-0.9,0-1.6,0.5-1.6,1.5H-172.2z"/>
			<path class="st5" d="M-164,273.6h-1.6v2.9c0,0.4,0.1,0.8,0.5,0.8c0.5,0,0.6-0.5,0.6-0.9h0.8c0,1-0.4,1.7-1.5,1.7
				c-1.3,0-1.3-0.9-1.3-1.9v-2.5h-1v-0.7h1v-1.1l0.9-0.3v1.4h1.6V273.6z"/>
			<path class="st5" d="M-160.3,272.7c1.6,0,2.6,1,2.6,2.6c0,1.6-1,2.6-2.6,2.6c-1.6,0-2.7-1-2.7-2.6
				C-163,273.7-162,272.7-160.3,272.7z M-160.3,277.3c1.1,0,1.7-0.9,1.7-1.9s-0.5-1.9-1.7-1.9c-1.1,0-1.7,0.9-1.7,1.9
				S-161.5,277.3-160.3,277.3z"/>
		</g>
		<g class="st2">
			<path class="st5" d="M-333.5,290.4h0.9v-5.8h-0.9v-0.7h1.8v6.5h0.9v0.7h-2.6V290.4z"/>
			<path class="st5" d="M-329.3,288.8c0,1.2,0.6,1.7,1.8,1.7c0.6,0,1.4-0.3,1.4-1h0.8c0,1.2-1.3,1.7-2.4,1.7c-1.6,0-2.7-1-2.7-2.6
				c0-1.6,1-2.6,2.7-2.6c1.8,0,2.4,1.3,2.4,2.9H-329.3z M-326,288.1c-0.1-0.9-0.6-1.5-1.6-1.5c-0.9,0-1.6,0.5-1.6,1.5H-326z"/>
			<path class="st5" d="M-320.5,290L-320.5,290c-0.2,0.8-0.9,1.1-1.7,1.1c-1,0-2-0.4-2-1.6c0-1.5,1.5-1.6,2.7-1.6h1v-0.3
				c0-0.8-0.4-1.1-1.2-1.1c-0.7,0-1.2,0.1-1.3,0.9h-1c0.1-1.2,1.1-1.6,2.2-1.6c1.2,0,2.2,0.3,2.2,1.6v2.9h0.9v0.7h-1.8V290z
				 M-322.1,290.5c1.1,0,1.6-0.8,1.6-1.8h-0.8c-0.6,0-1.9,0-1.9,0.9C-323.2,290.3-322.7,290.5-322.1,290.5z"/>
			<path class="st5" d="M-318.1,290.4h0.9v-3.6h-0.9v-0.7h1.8v1h0c0.2-0.8,0.8-1.1,1.5-1.1c0.2,0,0.3,0,0.4,0v0.7
				c-0.1,0-0.3-0.1-0.5-0.1c-1.3,0-1.4,1.3-1.4,2.4v1.4h1v0.7h-2.8V290.4z"/>
			<path class="st5" d="M-313.8,290.4h0.9v-3.6h-0.9v-0.7h1.8v0.9h0c0.2-0.6,0.9-1,1.7-1c1.3,0,1.8,0.6,1.8,1.8v2.6h0.9v0.7h-2.6
				v-0.7h0.9V288c0-0.8-0.3-1.3-1.2-1.3c-1,0-1.4,0.7-1.4,1.6v2.1h0.9v0.7h-2.6V290.4z"/>
			<path class="st5" d="M-300.8,286.8h-1.6v2.9c0,0.4,0.1,0.8,0.6,0.8c0.5,0,0.6-0.5,0.6-0.9h0.8c0,1-0.4,1.7-1.5,1.7
				c-1.3,0-1.3-0.9-1.3-1.9v-2.5h-1v-0.7h1V285l0.9-0.3v1.4h1.6V286.8z"/>
			<path class="st5" d="M-297.1,285.9c1.6,0,2.6,1,2.6,2.6c0,1.6-1,2.6-2.6,2.6c-1.6,0-2.7-1-2.7-2.6
				C-299.8,286.9-298.7,285.9-297.1,285.9z M-297.1,290.5c1.1,0,1.7-0.9,1.7-1.9s-0.5-1.9-1.7-1.9c-1.1,0-1.7,0.9-1.7,1.9
				S-298.2,290.5-297.1,290.5z"/>
			<path class="st5" d="M-290.8,290.4h0.9v-5.8h-0.9v-0.7h1.8v3.1h0c0.3-0.6,1.1-1,1.7-1c1.6,0,2.5,1,2.5,2.6c0,1.6-0.9,2.6-2.5,2.6
				c-0.7,0-1.5-0.4-1.7-1.1h0v1h-1.8V290.4z M-287.2,290.5c1,0,1.5-0.8,1.5-1.9c0-1-0.5-1.9-1.5-1.9c-1.2,0-1.8,0.9-1.8,1.9
				C-289,289.7-288.4,290.5-287.2,290.5z"/>
			<path class="st5" d="M-282.8,288.8c0,1.2,0.6,1.7,1.8,1.7c0.6,0,1.4-0.3,1.4-1h0.8c0,1.2-1.3,1.7-2.4,1.7c-1.6,0-2.7-1-2.7-2.6
				c0-1.6,1-2.6,2.7-2.6c1.8,0,2.4,1.3,2.4,2.9H-282.8z M-279.6,288.1c-0.1-0.9-0.6-1.5-1.6-1.5c-0.9,0-1.6,0.5-1.6,1.5H-279.6z"/>
			<path class="st5" d="M-273,287.9h-0.7c-0.1-0.8-0.6-1.3-1.4-1.3c-1.1,0-1.6,0.9-1.6,1.9s0.6,1.9,1.6,1.9c0.7,0,1.3-0.4,1.4-1.1
				h0.8c0,1.2-1.1,1.8-2.2,1.8c-1.6,0-2.6-1-2.6-2.6c0-1.6,1-2.6,2.6-2.6c0.6,0,1.1,0.2,1.4,0.7h0v-0.6h0.7V287.9z"/>
			<path class="st5" d="M-269.6,285.9c1.6,0,2.6,1,2.6,2.6c0,1.6-1,2.6-2.6,2.6c-1.6,0-2.7-1-2.7-2.6
				C-272.3,286.9-271.2,285.9-269.6,285.9z M-269.6,290.5c1.1,0,1.7-0.9,1.7-1.9s-0.5-1.9-1.7-1.9c-1.1,0-1.7,0.9-1.7,1.9
				S-270.7,290.5-269.6,290.5z"/>
			<path class="st5" d="M-266.2,290.4h0.9v-3.6h-0.9v-0.7h1.8v0.9h0c0.2-0.6,0.8-1,1.6-1c0.8,0,1.3,0.3,1.6,1c0.3-0.6,0.9-1,1.6-1
				c1.2,0,1.8,0.6,1.8,1.7v2.7h0.9v0.7h-2.6v-0.7h0.9v-2.1c0-0.8,0-1.6-1.1-1.6c-1,0-1.3,0.8-1.3,1.6v2.1h0.9v0.7h-2.6v-0.7h0.9
				v-2.1c0-0.9,0-1.6-1.1-1.6c-1,0-1.4,0.8-1.4,1.7v2.1h0.9v0.7h-2.6V290.4z"/>
			<path class="st5" d="M-255.3,288.8c0,1.2,0.6,1.7,1.8,1.7c0.6,0,1.4-0.3,1.4-1h0.8c0,1.2-1.3,1.7-2.4,1.7c-1.6,0-2.7-1-2.7-2.6
				c0-1.6,1-2.6,2.7-2.6c1.8,0,2.4,1.3,2.4,2.9H-255.3z M-252.1,288.1c-0.1-0.9-0.6-1.5-1.6-1.5c-0.9,0-1.6,0.5-1.6,1.5H-252.1z"/>
			<path class="st5" d="M-243.5,290L-243.5,290c-0.2,0.8-0.9,1.1-1.7,1.1c-1,0-2-0.4-2-1.6c0-1.5,1.5-1.6,2.7-1.6h1v-0.3
				c0-0.8-0.4-1.1-1.2-1.1c-0.7,0-1.2,0.1-1.3,0.9h-1c0.1-1.2,1.1-1.6,2.2-1.6c1.2,0,2.2,0.3,2.2,1.6v2.9h0.9v0.7h-1.8V290z
				 M-245.1,290.5c1.1,0,1.6-0.8,1.6-1.8h-0.8c-0.6,0-1.9,0-1.9,0.9C-246.2,290.3-245.6,290.5-245.1,290.5z"/>
			<path class="st5" d="M-238.1,290.4h0.9v-5.8h-0.9v-0.7h1.8v4.5l2-1.6v0h-0.8v-0.7h2.5v0.7h-0.7l-1.4,1.1l1.6,2.5h0.6v0.7h-2.3
				v-0.7h0.7l-1.2-1.9l-1,0.8v1.1h0.8v0.7h-2.6V290.4z"/>
			<path class="st5" d="M-231.9,290.4h0.9v-3.6h-0.9v-0.7h1.8v0.9h0c0.2-0.6,0.9-1,1.7-1c1.3,0,1.8,0.6,1.8,1.8v2.6h0.9v0.7h-2.6
				v-0.7h0.9V288c0-0.8-0.3-1.3-1.2-1.3c-1,0-1.4,0.7-1.4,1.6v2.1h0.9v0.7h-2.6V290.4z"/>
			<path class="st5" d="M-222.5,285.9c1.6,0,2.6,1,2.6,2.6c0,1.6-1,2.6-2.6,2.6c-1.6,0-2.7-1-2.7-2.6
				C-225.2,286.9-224.1,285.9-222.5,285.9z M-222.5,290.5c1.1,0,1.7-0.9,1.7-1.9s-0.5-1.9-1.7-1.9c-1.1,0-1.7,0.9-1.7,1.9
				S-223.7,290.5-222.5,290.5z"/>
			<path class="st5" d="M-209.9,286.8h-0.7l-1.5,4.3h-1.2l-1.4-4.2h0l-1.4,4.2h-1.2l-1.5-4.3h-0.7v-0.7h2.6v0.7h-1l1.1,3.5h0
				l1.4-4.2h1.2l1.4,4.2h0l1.2-3.5h-1v-0.7h2.5V286.8z"/>
			<path class="st5" d="M-209.4,290.4h0.9v-5.8h-0.9v-0.7h1.8v6.5h0.9v0.7h-2.6V290.4z"/>
			<path class="st5" d="M-205.2,288.8c0,1.2,0.6,1.7,1.8,1.7c0.6,0,1.4-0.3,1.4-1h0.8c0,1.2-1.3,1.7-2.4,1.7c-1.6,0-2.7-1-2.7-2.6
				c0-1.6,1-2.6,2.7-2.6c1.8,0,2.4,1.3,2.4,2.9H-205.2z M-201.9,288.1c-0.1-0.9-0.6-1.5-1.6-1.5c-0.9,0-1.6,0.5-1.6,1.5H-201.9z"/>
			<path class="st5" d="M-195.8,290.1L-195.8,290.1c-0.3,0.6-1,1.1-1.8,1.1c-1.7,0-2.4-1.1-2.4-2.6c0-1.5,0.9-2.6,2.4-2.6
				c0.7,0,1.5,0.4,1.8,1h0v-2.4h-0.9v-0.7h1.8v6.5h0.9v0.7h-1.8V290.1z M-197.5,286.6c-1.1,0-1.7,0.8-1.7,1.9c0,1,0.5,1.9,1.7,1.9
				c1.1,0,1.6-0.9,1.6-1.9C-195.8,287.5-196.4,286.6-197.5,286.6z"/>
			<path class="st5" d="M-187.3,286.8h-0.9v2.7c0,0.8,0.1,1.8-0.3,2.5c-0.4,0.8-1.4,1-2.3,1c-1.1,0-2.4-0.2-2.4-1.5h1
				c0,0.7,0.7,0.8,1.3,0.8c1.3,0,1.7-0.5,1.7-1.8V290h0c-0.3,0.7-1.1,1-1.8,1c-1.5,0-2.4-1-2.4-2.6c0-1.5,0.9-2.5,2.4-2.5
				c0.8,0,1.5,0.3,1.9,1l0,0v0h0v-0.9h1.8V286.8z M-190.8,290.3c1.1,0,1.6-0.8,1.6-1.8c0-1-0.5-1.8-1.6-1.8c-1.2,0-1.8,0.7-1.8,1.8
				C-192.4,289.5-191.9,290.3-190.8,290.3z"/>
			<path class="st5" d="M-185.6,288.8c0,1.2,0.6,1.7,1.8,1.7c0.6,0,1.4-0.3,1.4-1h0.8c0,1.2-1.3,1.7-2.4,1.7c-1.6,0-2.7-1-2.7-2.6
				c0-1.6,1-2.6,2.7-2.6c1.8,0,2.4,1.3,2.4,2.9H-185.6z M-182.4,288.1c-0.1-0.9-0.6-1.5-1.6-1.5c-0.9,0-1.6,0.5-1.6,1.5H-182.4z"/>
			<path class="st5" d="M-176.8,290L-176.8,290c-0.2,0.8-0.9,1.1-1.7,1.1c-1,0-2-0.4-2-1.6c0-1.5,1.5-1.6,2.7-1.6h1v-0.3
				c0-0.8-0.4-1.1-1.2-1.1c-0.7,0-1.2,0.1-1.3,0.9h-1c0.1-1.2,1.1-1.6,2.2-1.6c1.2,0,2.2,0.3,2.2,1.6v2.9h0.9v0.7h-1.8V290z
				 M-178.4,290.5c1.1,0,1.6-0.8,1.6-1.8h-0.8c-0.6,0-1.9,0-1.9,0.9C-179.6,290.3-179,290.5-178.4,290.5z"/>
			<path class="st5" d="M-174.6,290.4h0.9v-5.8h-0.9v-0.7h1.8v3.1h0c0.3-0.6,1.1-1,1.7-1c1.6,0,2.5,1,2.5,2.6c0,1.6-0.9,2.6-2.5,2.6
				c-0.7,0-1.5-0.4-1.7-1.1h0v1h-1.8V290.4z M-171.1,290.5c1,0,1.5-0.8,1.5-1.9c0-1-0.5-1.9-1.5-1.9c-1.2,0-1.8,0.9-1.8,1.9
				C-172.8,289.7-172.3,290.5-171.1,290.5z"/>
			<path class="st5" d="M-167.8,290.4h0.9v-5.8h-0.9v-0.7h1.8v6.5h0.9v0.7h-2.6V290.4z"/>
			<path class="st5" d="M-163.6,288.8c0,1.2,0.6,1.7,1.8,1.7c0.6,0,1.4-0.3,1.4-1h0.8c0,1.2-1.3,1.7-2.4,1.7c-1.6,0-2.7-1-2.7-2.6
				c0-1.6,1-2.6,2.7-2.6c1.8,0,2.4,1.3,2.4,2.9H-163.6z M-160.4,288.1c-0.1-0.9-0.6-1.5-1.6-1.5c-0.9,0-1.6,0.5-1.6,1.5H-160.4z"/>
		</g>
		<g class="st2">
			<path class="st5" d="M-311,303.2L-311,303.2c-0.2,0.8-0.9,1.1-1.7,1.1c-1,0-2-0.4-2-1.6c0-1.5,1.5-1.6,2.7-1.6h1v-0.3
				c0-0.8-0.4-1.1-1.2-1.1c-0.7,0-1.2,0.1-1.3,0.9h-1c0.1-1.2,1.1-1.6,2.2-1.6c1.2,0,2.2,0.3,2.2,1.6v2.9h0.9v0.7h-1.8V303.2z
				 M-312.6,303.7c1.1,0,1.6-0.8,1.6-1.8h-0.8c-0.6,0-1.9,0-1.9,0.9C-313.7,303.5-313.1,303.7-312.6,303.7z"/>
			<path class="st5" d="M-308.6,303.6h0.9V300h-0.9v-0.7h1.8v0.9h0c0.2-0.6,0.9-1,1.7-1c1.3,0,1.8,0.6,1.8,1.8v2.6h0.9v0.7h-2.6
				v-0.7h0.9v-2.4c0-0.8-0.3-1.3-1.2-1.3c-1,0-1.4,0.7-1.4,1.6v2.1h0.9v0.7h-2.6V303.6z"/>
			<path class="st5" d="M-297.6,303.3L-297.6,303.3c-0.3,0.6-1,1.1-1.8,1.1c-1.7,0-2.4-1.1-2.4-2.6c0-1.5,0.9-2.6,2.4-2.6
				c0.7,0,1.5,0.4,1.8,1h0v-2.4h-0.9v-0.7h1.8v6.5h0.9v0.7h-1.8V303.3z M-299.2,299.8c-1.1,0-1.7,0.8-1.7,1.9c0,1,0.5,1.9,1.7,1.9
				c1.1,0,1.6-0.9,1.6-1.9C-297.6,300.7-298.1,299.8-299.2,299.8z"/>
			<path class="st5" d="M-291,302c0,1.2,0.6,1.7,1.8,1.7c0.6,0,1.4-0.3,1.4-1h0.8c0,1.2-1.3,1.7-2.4,1.7c-1.6,0-2.7-1-2.7-2.6
				c0-1.6,1-2.6,2.7-2.6c1.8,0,2.4,1.3,2.4,2.9H-291z M-287.8,301.3c-0.1-0.9-0.6-1.5-1.6-1.5c-0.9,0-1.6,0.5-1.6,1.5H-287.8z"/>
			<path class="st5" d="M-286.2,303.6h0.6l1.8-1.9l-1.7-1.7h-0.5v-0.7h2.4v0.7h-0.7l1.2,1.3l1.2-1.3h-0.8v-0.7h2.3v0.7h-0.6
				l-1.7,1.7l1.7,1.9h0.6v0.7h-2.5v-0.7h0.8l-1.3-1.4l-1.3,1.4h0.9v0.7h-2.4V303.6z"/>
			<path class="st5" d="M-280,305.4h0.9V300h-0.9v-0.7h1.8v1h0c0.3-0.6,0.9-1.1,1.7-1.1c1.6,0,2.5,1,2.5,2.6c0,1.6-0.9,2.6-2.5,2.6
				c-0.8,0-1.4-0.4-1.7-1.1h0v2.1h0.9v0.7h-2.7V305.4z M-276.5,303.7c1,0,1.5-0.8,1.5-1.9c0-1-0.5-1.9-1.5-1.9
				c-1.2,0-1.8,0.9-1.8,1.9C-278.2,302.9-277.7,303.7-276.5,303.7z"/>
			<path class="st5" d="M-272.1,302c0,1.2,0.6,1.7,1.8,1.7c0.6,0,1.4-0.3,1.4-1h0.8c0,1.2-1.3,1.7-2.4,1.7c-1.6,0-2.7-1-2.7-2.6
				c0-1.6,1-2.6,2.7-2.6c1.8,0,2.4,1.3,2.4,2.9H-272.1z M-268.8,301.3c-0.1-0.9-0.6-1.5-1.6-1.5c-0.9,0-1.6,0.5-1.6,1.5H-268.8z"/>
			<path class="st5" d="M-267,303.6h0.9V300h-0.9v-0.7h1.8v1h0c0.2-0.8,0.8-1.1,1.5-1.1c0.2,0,0.3,0,0.4,0v0.7
				c-0.1,0-0.3-0.1-0.5-0.1c-1.3,0-1.4,1.3-1.4,2.4v1.4h1v0.7h-2.8V303.6z"/>
			<path class="st5" d="M-262.8,303.6h0.9V300h-0.9v-0.7h1.8v4.3h0.9v0.7h-2.6V303.6z M-261.1,298.1h-1v-1h1V298.1z"/>
			<path class="st5" d="M-258.6,302c0,1.2,0.6,1.7,1.8,1.7c0.6,0,1.4-0.3,1.4-1h0.8c0,1.2-1.3,1.7-2.4,1.7c-1.6,0-2.7-1-2.7-2.6
				c0-1.6,1-2.6,2.7-2.6c1.8,0,2.4,1.3,2.4,2.9H-258.6z M-255.4,301.3c-0.1-0.9-0.6-1.5-1.6-1.5c-0.9,0-1.6,0.5-1.6,1.5H-255.4z"/>
			<path class="st5" d="M-253.6,303.6h0.9V300h-0.9v-0.7h1.8v0.9h0c0.2-0.6,0.9-1,1.7-1c1.3,0,1.8,0.6,1.8,1.8v2.6h0.9v0.7h-2.6
				v-0.7h0.9v-2.4c0-0.8-0.3-1.3-1.2-1.3c-1,0-1.4,0.7-1.4,1.6v2.1h0.9v0.7h-2.6V303.6z"/>
			<path class="st5" d="M-242.1,301.1h-0.7c-0.1-0.8-0.6-1.3-1.4-1.3c-1.1,0-1.6,0.9-1.6,1.9s0.6,1.9,1.6,1.9c0.7,0,1.3-0.4,1.4-1.1
				h0.8c0,1.2-1.1,1.8-2.2,1.8c-1.6,0-2.6-1-2.6-2.6c0-1.6,1-2.6,2.6-2.6c0.6,0,1.1,0.2,1.4,0.7h0v-0.6h0.7V301.1z"/>
			<path class="st5" d="M-240.3,302c0,1.2,0.6,1.7,1.8,1.7c0.6,0,1.4-0.3,1.4-1h0.8c0,1.2-1.3,1.7-2.4,1.7c-1.6,0-2.7-1-2.7-2.6
				c0-1.6,1-2.6,2.7-2.6c1.8,0,2.4,1.3,2.4,2.9H-240.3z M-237,301.3c-0.1-0.9-0.6-1.5-1.6-1.5c-0.9,0-1.6,0.5-1.6,1.5H-237z"/>
			<path class="st5" d="M-231,303.3L-231,303.3c-0.3,0.6-1,1.1-1.8,1.1c-1.7,0-2.4-1.1-2.4-2.6c0-1.5,0.9-2.6,2.4-2.6
				c0.7,0,1.5,0.4,1.8,1h0v-2.4h-0.9v-0.7h1.8v6.5h0.9v0.7h-1.8V303.3z M-232.6,299.8c-1.1,0-1.7,0.8-1.7,1.9c0,1,0.5,1.9,1.7,1.9
				c1.1,0,1.6-0.9,1.6-1.9C-231,300.7-231.5,299.8-232.6,299.8z"/>
			<path class="st5" d="M-221.2,303.3L-221.2,303.3c-0.3,0.6-1,1.1-1.8,1.1c-1.7,0-2.4-1.1-2.4-2.6c0-1.5,0.9-2.6,2.4-2.6
				c0.7,0,1.5,0.4,1.8,1h0v-2.4h-0.9v-0.7h1.8v6.5h0.9v0.7h-1.8V303.3z M-222.8,299.8c-1.1,0-1.7,0.8-1.7,1.9c0,1,0.5,1.9,1.7,1.9
				c1.1,0,1.6-0.9,1.6-1.9C-221.2,300.7-221.7,299.8-222.8,299.8z"/>
			<path class="st5" d="M-217.6,302c0,1.2,0.6,1.7,1.8,1.7c0.6,0,1.4-0.3,1.4-1h0.8c0,1.2-1.3,1.7-2.4,1.7c-1.6,0-2.7-1-2.7-2.6
				c0-1.6,1-2.6,2.7-2.6c1.8,0,2.4,1.3,2.4,2.9H-217.6z M-214.4,301.3c-0.1-0.9-0.6-1.5-1.6-1.5c-0.9,0-1.6,0.5-1.6,1.5H-214.4z"/>
			<path class="st5" d="M-212.4,304.3v-1.7h0.7c0,1,0.8,1.2,1.6,1.2c0.4,0,1-0.2,1-0.8c0-0.7-0.7-0.7-1.3-0.7c-0.9-0.2-2-0.3-2-1.4
				c0-1.1,1-1.6,1.9-1.6c0.6,0,1.3,0.2,1.5,0.7h0v-0.6h0.7v1.7h-0.7c0-0.9-0.6-1.1-1.4-1.1c-0.5,0-1.2,0.1-1.2,0.8
				c0,0.6,0.9,0.6,1.5,0.7c0.9,0.2,1.9,0.3,1.9,1.4c0,1.2-1.1,1.6-2.1,1.6c-0.6,0-1.3-0.2-1.5-0.8h0v0.7H-212.4z"/>
			<path class="st5" d="M-207.2,303.6h0.9V300h-0.9v-0.7h1.8v4.3h0.9v0.7h-2.6V303.6z M-205.4,298.1h-1v-1h1V298.1z"/>
			<path class="st5" d="M-198,300h-0.9v2.7c0,0.8,0.1,1.8-0.3,2.5c-0.4,0.8-1.4,1-2.3,1c-1.1,0-2.4-0.2-2.4-1.5h1
				c0,0.7,0.7,0.8,1.3,0.8c1.3,0,1.7-0.5,1.7-1.8v-0.6h0c-0.3,0.7-1.1,1-1.8,1c-1.5,0-2.4-1-2.4-2.6c0-1.5,0.9-2.5,2.4-2.5
				c0.8,0,1.5,0.3,1.9,1l0,0v0h0v-0.9h1.8V300z M-201.4,303.5c1.1,0,1.6-0.8,1.6-1.8c0-1-0.5-1.8-1.6-1.8c-1.2,0-1.8,0.7-1.8,1.8
				C-203.1,302.7-202.5,303.5-201.4,303.5z"/>
			<path class="st5" d="M-197.3,303.6h0.9V300h-0.9v-0.7h1.8v0.9h0c0.2-0.6,0.9-1,1.7-1c1.3,0,1.8,0.6,1.8,1.8v2.6h0.9v0.7h-2.6
				v-0.7h0.9v-2.4c0-0.8-0.3-1.3-1.2-1.3c-1,0-1.4,0.7-1.4,1.6v2.1h0.9v0.7h-2.6V303.6z"/>
			<path class="st5" d="M-189.5,302c0,1.2,0.6,1.7,1.8,1.7c0.6,0,1.4-0.3,1.4-1h0.8c0,1.2-1.3,1.7-2.4,1.7c-1.6,0-2.7-1-2.7-2.6
				c0-1.6,1-2.6,2.7-2.6c1.8,0,2.4,1.3,2.4,2.9H-189.5z M-186.3,301.3c-0.1-0.9-0.6-1.5-1.6-1.5c-0.9,0-1.6,0.5-1.6,1.5H-186.3z"/>
			<path class="st5" d="M-184.5,303.6h0.9V300h-0.9v-0.7h1.8v1h0c0.2-0.8,0.8-1.1,1.5-1.1c0.2,0,0.3,0,0.4,0v0.7
				c-0.1,0-0.3-0.1-0.5-0.1c-1.3,0-1.4,1.3-1.4,2.4v1.4h1v0.7h-2.8V303.6z"/>
			<path class="st5" d="M-180.3,303.2h1.1v1.1h-1.1V303.2z"/>
		</g>
	</g>
	<path class="st6" d="M-254.1,185.9c-1.3,0-2.9,1.1-3.5,2.8c-0.1,0-0.2,0-0.4,0c-0.1,0-0.2,0-0.4,0c-0.5-1.7-2.3-2.8-3.7-2.8
		c-1.3,0-2.2,0.8-2.4,2.2c-0.1,0.4,0.2,0.7,0.6,0.8s0.7-0.2,0.8-0.6c0.1-0.7,0.5-1,1.1-1c0.9,0,2.1,0.8,2.4,2
		c-0.2,0.1-0.4,0.3-0.5,0.4c-0.8,0.8-1.3,1.8-1.5,2.4l-0.1,0.1c-0.3,0.6-0.5,1.1-0.7,1.6c-1.2,0.7-2.5,1.6-3.5,2.5
		c-1.2,1.2-1.8,2.4-1.8,3.5c0,1,0.5,1.9,1.4,2.7s1.9,1.1,2.8,0.8c0.1,0.3,0.2,0.6,0.3,0.9c1.4,3.7,4.5,5,4.6,5l0.2,0.1l0.3-0.1
		c0.1,0,1.4-0.5,2.8-1.9c1-1,1.9-2.3,2.5-4c0,0,0,0,0.1,0c0.7,0.2,1.8,0.3,3-0.7c0.1-0.1,0.2-0.2,0.3-0.3c1-1,1.3-2.1,1.1-3.3
		c-0.5-2-2.7-3.8-4.9-5.1c-0.2-0.7-0.5-1.4-0.9-2.2c-0.6-1.4-1.4-2.2-2.1-2.6c0.3-1.1,1.4-1.9,2.2-1.9c0.5,0,0.8,0.4,0.9,1
		c0,0.4,0.4,0.6,0.8,0.6c0.2,0,0.3-0.1,0.4-0.2c0.1-0.1,0.2-0.4,0.2-0.6C-252.1,186.5-253.2,185.9-254.1,185.9z M-249.8,199.4
		c0.2,0.8-0.1,1.5-0.9,2.2c-0.8,0.7-1.3,0.6-1.7,0.5c0,0-0.1,0-0.1-0.1c-0.4-0.2-0.8-0.5-1.2-1c-0.3-0.3-0.5-0.7-0.8-1.1
		c-0.4-0.7-0.8-1.5-1.1-2.3c-0.3-0.6-0.5-1.2-0.7-1.8c-0.3-0.8-0.5-1.6-0.7-2.2h0.1c1.2,0.5,2.8,1.4,4.2,2.3
		C-251.3,197-250.1,198.2-249.8,199.4z M-265.4,201.5c-0.6-0.5-0.9-1.1-0.9-1.7c0-0.8,0.4-1.6,1.4-2.5c0.5-0.5,1.1-1,1.8-1.5
		c1.4-1,3-1.7,4.2-2.2l0,0c-0.2,0.6-0.4,1.4-0.7,2.2c-0.2,0.6-0.5,1.2-0.7,1.8c-0.3,0.8-0.7,1.6-1.2,2.2c-0.3,0.5-0.6,0.9-0.9,1.2
		c-0.1,0.1-0.1,0.2-0.2,0.2c-0.4,0.4-0.7,0.6-1,0.7C-264.3,202.2-264.8,202-265.4,201.5z M-258.3,195.8h0.5c0.2,0.6,0.4,1.2,0.7,1.8
		h-1.9C-258.7,197-258.5,196.4-258.3,195.8z M-260,199.8h4c0.4,0.7,0.7,1.3,1.2,1.8l-6.3-0.1C-260.8,201.1-260.4,200.5-260,199.8z
		 M-255.6,205.7h-5.2c-0.4-0.5-0.7-1.1-1-1.8l7.4,0.1C-254.8,204.6-255.2,205.2-255.6,205.7z M-255.5,192.3c0.1,0.2,0.2,0.4,0.3,0.6
		c-1-0.5-1.8-0.8-2.4-1c-0.1-0.1-0.2-0.1-0.4-0.1c-0.1,0-0.3,0-0.4,0.1c-0.6,0.2-1.4,0.5-2.2,0.9v-0.1l0.1-0.1
		c0.3-0.5,0.7-1.4,1.3-2c0.4-0.4,0.8-0.6,1.2-0.6C-257,190-256.2,190.8-255.5,192.3z"/>
	<path class="st6" d="M-228.6,185.9c-1.3,0-2.9,1.1-3.5,2.8c-0.1,0-0.2,0-0.4,0c-0.1,0-0.2,0-0.4,0c-0.5-1.7-2.3-2.8-3.7-2.8
		c-1.3,0-2.2,0.8-2.4,2.2c-0.1,0.4,0.2,0.7,0.6,0.8s0.7-0.2,0.8-0.6c0.1-0.7,0.5-1,1.1-1c0.9,0,2.1,0.8,2.4,2
		c-0.2,0.1-0.4,0.3-0.5,0.4c-0.8,0.8-1.3,1.8-1.5,2.4l-0.1,0.1c-0.3,0.6-0.5,1.1-0.7,1.6c-1.2,0.7-2.5,1.6-3.5,2.5
		c-1.2,1.2-1.8,2.4-1.8,3.5c0,1,0.5,1.9,1.4,2.7s1.9,1.1,2.8,0.8c0.1,0.3,0.2,0.6,0.3,0.9c1.4,3.7,4.5,5,4.6,5l0.2,0.1l0.3-0.1
		c0.1,0,1.4-0.5,2.8-1.9c1-1,1.9-2.3,2.5-4c0,0,0,0,0.1,0c0.7,0.2,1.8,0.3,3-0.7c0.1-0.1,0.2-0.2,0.3-0.3c1-1,1.3-2.1,1.1-3.3
		c-0.5-2-2.7-3.8-4.9-5.1c-0.2-0.7-0.5-1.4-0.9-2.2c-0.6-1.4-1.4-2.2-2.1-2.6c0.3-1.1,1.4-1.9,2.2-1.9c0.5,0,0.8,0.4,0.9,1
		c0,0.4,0.4,0.6,0.8,0.6c0.2,0,0.3-0.1,0.4-0.2c0.1-0.1,0.2-0.4,0.2-0.6C-226.5,186.5-227.6,185.9-228.6,185.9z M-224.2,199.4
		c0.2,0.8-0.1,1.5-0.9,2.2c-0.8,0.7-1.3,0.6-1.7,0.5c0,0-0.1,0-0.1-0.1c-0.4-0.2-0.8-0.5-1.2-1c-0.3-0.3-0.5-0.7-0.8-1.1
		c-0.4-0.7-0.8-1.5-1.1-2.3c-0.3-0.6-0.5-1.2-0.7-1.8c-0.3-0.8-0.5-1.6-0.7-2.2h0.1c1.2,0.5,2.8,1.4,4.2,2.3
		C-225.7,197-224.5,198.2-224.2,199.4z M-239.9,201.5c-0.6-0.5-0.9-1.1-0.9-1.7c0-0.8,0.4-1.6,1.4-2.5c0.5-0.5,1.1-1,1.8-1.5
		c1.4-1,3-1.7,4.2-2.2l0,0c-0.2,0.6-0.4,1.4-0.7,2.2c-0.2,0.6-0.5,1.2-0.7,1.8c-0.3,0.8-0.7,1.6-1.2,2.2c-0.3,0.5-0.6,0.9-0.9,1.2
		c-0.1,0.1-0.1,0.2-0.2,0.2c-0.4,0.4-0.7,0.6-1,0.7C-238.7,202.2-239.3,202-239.9,201.5z M-232.7,195.8h0.5c0.2,0.6,0.4,1.2,0.7,1.8
		h-1.9C-233.1,197-232.9,196.4-232.7,195.8z M-234.5,199.8h4c0.4,0.7,0.7,1.3,1.2,1.8l-6.3-0.1
		C-235.2,201.1-234.8,200.5-234.5,199.8z M-230.1,205.7h-5.2c-0.4-0.5-0.7-1.1-1-1.8l7.4,0.1C-229.3,204.6-229.7,205.2-230.1,205.7z
		 M-229.9,192.3c0.1,0.2,0.2,0.4,0.3,0.6c-1-0.5-1.8-0.8-2.4-1c-0.1-0.1-0.2-0.1-0.4-0.1c-0.1,0-0.3,0-0.4,0.1
		c-0.6,0.2-1.4,0.5-2.2,0.9v-0.1l0.1-0.1c0.3-0.5,0.7-1.4,1.3-2c0.4-0.4,0.8-0.6,1.2-0.6C-231.4,190-230.6,190.8-229.9,192.3z"/>
	<g>
		<path class="st7" d="M-237.3,338.8h-14.2c-1.5,0-2.8,0.8-3.5,2.1l-7.2,13c-0.7,1.2-0.7,2.7,0,3.9l7.1,12.8c0.7,1.3,2,2.1,3.5,2.1
			h14.4c1.5,0,2.8-0.8,3.5-2.1l7.1-12.8c0.7-1.2,0.7-2.7,0-3.9l-7.2-13C-234.5,339.5-235.8,338.8-237.3,338.8z"/>
		<g>
			<g>
				<path class="st8" d="M-247.8,345.5l-1,1c-0.3,0.4-0.5,0.8-0.5,1.3s0.2,0.9,0.5,1.2l6.7,6.7l-6.7,6.7c-0.3,0.3-0.5,0.8-0.5,1.2
					c0,0.5,0.2,0.9,0.5,1.3l1,1c0.4,0.4,0.8,0.5,1.3,0.5s0.9-0.2,1.2-0.5l9-9c0.4-0.3,0.5-0.7,0.5-1.2s-0.2-0.9-0.5-1.3l-9-9
					c-0.3-0.3-0.8-0.5-1.2-0.5C-247.1,345-247.5,345.1-247.8,345.5L-247.8,345.5z"/>
			</g>
		</g>
	</g>
	<path class="st9" d="M-204.1,330.7h-77c-2.6,0-4.8-2.2-4.8-4.8l0,0c0-2.6,2.2-4.8,4.8-4.8h77c2.6,0,4.8,2.2,4.8,4.8l0,0
		C-199.3,328.6-201.4,330.7-204.1,330.7z"/>
	<path class="st0" d="M-259.3,325.9l-2.3,4.8h-22.1c-0.6,0-1.2-0.5-1.6-1.4s-0.7-2.1-0.7-3.4c0-2.6,1-4.8,2.3-4.8h22.1L-259.3,325.9
		z"/>
	<polygon class="st0" points="-259.3,321.1 -259.3,325.9 -261.5,321.1 	"/>
	<polygon class="st0" points="-259.3,325.9 -259.3,330.7 -261.5,330.7 	"/>
</g>
</svg>
