<?xml version="1.0" encoding="utf-8"?>
<!-- Generator: Adobe Illustrator 19.1.0, SVG Export Plug-In . SVG Version: 6.00 Build 0)  -->
<svg version="1.1" id="Layer_1" xmlns="http://www.w3.org/2000/svg" xmlns:xlink="http://www.w3.org/1999/xlink" x="0px" y="0px"
	 viewBox="0 0 642 339.5" style="enable-background:new 0 0 642 339.5;" xml:space="preserve">
<style type="text/css">
	.st0{fill:#8BC53F;}
	.st1{fill:#ECEEEE;}
	.st2{fill:#767676;}
	.st3{font-family:'Univers-Black';}
	.st4{font-size:12px;}
	.st5{fill:none;}
	.st6{fill:#231F20;}
	.st7{font-family:'Serifa-Roman';}
	.st8{font-size:11px;}
	.st9{font-family:'Univers-Condensed';}
	.st10{font-size:11.6521px;}
	.st11{fill:#39A5E1;}
	.st12{fill:#EBEDED;}
	.st13{fill:#EBB91D;}
	.st14{fill:#E67824;}
	.st15{fill:#39A6E2;}
	.st16{fill:#FFFFFF;}
</style>
<g>
	<g>
		<polygon class="st0" points="173.5,29.3 57.8,29.3 35.6,69.3 195.8,69.3 		"/>
		<polygon class="st1" points="195.8,69.3 35.6,69.3 0,133.3 57,235.8 174.4,235.8 231.3,133.3 		"/>
	</g>
	<path class="st1" d="M119.6,37.1c-1.3,0-2.9,1.1-3.5,2.8c-0.1,0-0.2,0-0.4,0c-0.1,0-0.2,0-0.4,0c-0.5-1.7-2.3-2.8-3.7-2.8
		c-1.3,0-2.2,0.8-2.4,2.2c-0.1,0.4,0.2,0.7,0.6,0.8c0.4,0.1,0.7-0.2,0.8-0.6c0.1-0.7,0.5-1,1.1-1c0.9,0,2.1,0.8,2.4,2
		c-0.2,0.1-0.4,0.3-0.5,0.4c-0.8,0.8-1.3,1.8-1.5,2.4l-0.1,0.1c-0.3,0.6-0.5,1.1-0.7,1.6c-1.2,0.7-2.5,1.6-3.5,2.5
		c-1.2,1.2-1.8,2.4-1.8,3.5c0,1,0.5,1.9,1.4,2.7c0.9,0.8,1.9,1.1,2.8,0.8c0.1,0.3,0.2,0.6,0.3,0.9c1.4,3.7,4.5,5,4.6,5l0.2,0.1
		l0.3-0.1c0.1,0,1.4-0.5,2.8-1.9c1-1,1.9-2.3,2.5-4c0,0,0,0,0.1,0c0.7,0.2,1.8,0.3,3-0.7c0.1-0.1,0.2-0.2,0.3-0.3
		c1-1,1.3-2.1,1.1-3.3c-0.5-2-2.7-3.8-4.9-5.1c-0.2-0.7-0.5-1.4-0.9-2.2c-0.6-1.4-1.4-2.2-2.1-2.6c0.3-1.1,1.4-1.9,2.2-1.9
		c0.5,0,0.8,0.4,0.9,1c0,0.4,0.4,0.6,0.8,0.6c0.2,0,0.3-0.1,0.4-0.2c0.1-0.1,0.2-0.4,0.2-0.6C121.6,37.8,120.5,37.2,119.6,37.1z
		 M123.9,50.6c0.2,0.8-0.1,1.5-0.9,2.2c-0.8,0.7-1.3,0.6-1.7,0.5c0,0-0.1,0-0.1-0.1c-0.4-0.2-0.8-0.5-1.2-1
		c-0.3-0.3-0.5-0.7-0.8-1.1c-0.4-0.7-0.8-1.5-1.1-2.3c-0.3-0.6-0.5-1.2-0.7-1.8c-0.3-0.8-0.5-1.6-0.7-2.2l0.1,0
		c1.2,0.5,2.8,1.4,4.2,2.3C122.4,48.2,123.6,49.5,123.9,50.6z M108.3,52.7c-0.6-0.5-0.9-1.1-0.9-1.7c0-0.8,0.4-1.6,1.4-2.5
		c0.5-0.5,1.1-1,1.8-1.5c1.4-1,3-1.7,4.2-2.2l0,0c-0.2,0.6-0.4,1.4-0.7,2.2c-0.2,0.6-0.5,1.2-0.7,1.8c-0.3,0.8-0.7,1.6-1.2,2.2
		c-0.3,0.5-0.6,0.9-0.9,1.2c-0.1,0.1-0.1,0.2-0.2,0.2c-0.4,0.4-0.7,0.6-1,0.7C109.4,53.4,108.9,53.2,108.3,52.7z M115.4,47.1l0.5,0
		c0.2,0.6,0.4,1.2,0.7,1.8l-1.9,0C115,48.2,115.2,47.6,115.4,47.1z M113.7,51.1l4,0c0.4,0.7,0.7,1.3,1.2,1.8l-6.3-0.1
		C112.9,52.3,113.3,51.7,113.7,51.1z M118.1,56.9l-5.2,0c-0.4-0.5-0.7-1.1-1-1.8l7.4,0.1C118.9,55.8,118.5,56.4,118.1,56.9z
		 M118.2,43.5c0.1,0.2,0.2,0.4,0.3,0.6c-1-0.5-1.8-0.8-2.4-1c-0.1-0.1-0.2-0.1-0.4-0.1c-0.1,0-0.3,0-0.4,0.1
		c-0.6,0.2-1.4,0.5-2.2,0.9c0,0,0-0.1,0-0.1l0.1-0.1c0.3-0.5,0.7-1.4,1.3-2c0.4-0.4,0.8-0.6,1.2-0.6C116.7,41.2,117.5,42,118.2,43.5
		z"/>
	<text transform="matrix(1 0 0 1 39.2256 94.6655)" class="st2 st3 st4">Adobe Illustrator Basics</text>
	<rect x="23.3" y="107.2" class="st5" width="180.6" height="51.1"/>
	<text transform="matrix(1 0 0 1 36.5776 116.2583)"><tspan x="0" y="0" class="st6 st7 st8">Illustrator is a vector drawing </tspan><tspan x="-8.6" y="13.2" class="st6 st7 st8">program. It is often used to draw </tspan><tspan x="-7.9" y="26.4" class="st6 st7 st8">illustrations, cartoons, diagrams, </tspan><tspan x="32.7" y="39.6" class="st6 st7 st8">charts and logos.</tspan></text>
	<g>
		<path class="st0" d="M63.1,190.1c-6.4,0-11.6-5.2-11.6-11.6s5.2-11.6,11.6-11.6s11.6,5.2,11.6,11.6S69.5,190.1,63.1,190.1z
			 M63.1,169.4c-5,0-9.1,4.1-9.1,9.1s4.1,9.1,9.1,9.1c5,0,9.1-4.1,9.1-9.1S68.1,169.4,63.1,169.4z"/>
		<g>
			<path class="st0" d="M61.2,173.7c0-1,0.9-1.9,1.9-1.9c1.1,0,1.9,0.8,1.9,1.9c0,1.1-0.8,1.9-1.9,1.9
				C62,175.6,61.2,174.7,61.2,173.7z M61.4,185.3v-8.9h3.3v8.9H61.4z"/>
		</g>
	</g>
	<text transform="matrix(1 0 0 1 145.52 182.0893)" class="st0 st9 st10">2 hours</text>
	<g>
		<path class="st11" d="M122.7,190.1h-14.2c-1.5,0-2.8,0.8-3.5,2.1l-7.2,13c-0.7,1.2-0.7,2.7,0,3.9l7.1,12.8c0.7,1.3,2,2.1,3.5,2.1
			h14.4c1.5,0,2.8-0.8,3.5-2.1l7.1-12.8c0.7-1.2,0.7-2.7,0-3.9l-7.2-13C125.5,190.9,124.2,190.1,122.7,190.1z"/>
		<g>
			<g>
				<path class="st12" d="M112.2,196.8l-1,1c-0.3,0.4-0.5,0.8-0.5,1.3c0,0.5,0.2,0.9,0.5,1.2l6.7,6.7l-6.7,6.7
					c-0.3,0.3-0.5,0.8-0.5,1.2c0,0.5,0.2,0.9,0.5,1.3l1,1c0.4,0.4,0.8,0.5,1.3,0.5c0.5,0,0.9-0.2,1.2-0.5l9-9
					c0.4-0.3,0.5-0.7,0.5-1.2c0-0.5-0.2-0.9-0.5-1.3l-9-9c-0.3-0.3-0.8-0.5-1.2-0.5C112.9,196.3,112.5,196.5,112.2,196.8
					L112.2,196.8z M112.2,196.8"/>
			</g>
		</g>
	</g>
</g>
<g>
	<g>
		<polygon class="st13" points="379.1,133 263.4,133 241.1,173 401.3,173 		"/>
		<polygon class="st1" points="401.3,173 241.1,173 205.6,237 262.5,339.5 379.9,339.5 436.9,237 		"/>
	</g>
	<g>
		<text transform="matrix(1 0 0 1 252.61 198.3635)" class="st2 st3 st4">Typography in Depth</text>
	</g>
	<g>
		<rect x="228.9" y="211.2" class="st5" width="180.6" height="51.1"/>
		<text transform="matrix(1 0 0 1 231.7579 220.2502)"><tspan x="0" y="0" class="st6 st7 st8">After you’ve learned the basics of </tspan><tspan x="-2.4" y="13.2" class="st6 st7 st8">typography, there is much more to </tspan><tspan x="0" y="26.4" class="st6 st7 st8">learn to become a knowledgeable </tspan><tspan x="18.7" y="39.6" class="st6 st7 st8">and experienced designer.</tspan></text>
	</g>
	<g>
		<path class="st13" d="M268.7,293.8c-6.4,0-11.6-5.2-11.6-11.6s5.2-11.6,11.6-11.6s11.6,5.2,11.6,11.6S275.1,293.8,268.7,293.8z
			 M268.7,273.1c-5,0-9.1,4.1-9.1,9.1s4.1,9.1,9.1,9.1c5,0,9.1-4.1,9.1-9.1S273.7,273.1,268.7,273.1z"/>
		<g>
			<path class="st13" d="M266.7,277.4c0-1,0.9-1.9,1.9-1.9c1.1,0,1.9,0.8,1.9,1.9c0,1.1-0.8,1.9-1.9,1.9
				C267.6,279.3,266.7,278.4,266.7,277.4z M267,289v-8.9h3.3v8.9H267z"/>
		</g>
	</g>
	<text transform="matrix(1 0 0 1 351.0953 285.7863)" class="st13 st9 st10">3 hours</text>
	<path class="st1" d="M311.5,141.5c-1.3,0-2.9,1.1-3.5,2.8c-0.1,0-0.2,0-0.4,0c-0.1,0-0.2,0-0.4,0c-0.5-1.7-2.3-2.8-3.7-2.8
		c-1.3,0-2.2,0.8-2.4,2.2c-0.1,0.4,0.2,0.7,0.6,0.8c0.4,0.1,0.7-0.2,0.8-0.6c0.1-0.7,0.5-1,1.1-1c0.9,0,2.1,0.8,2.4,2
		c-0.2,0.1-0.4,0.3-0.5,0.4c-0.8,0.8-1.3,1.8-1.5,2.4l-0.1,0.1c-0.3,0.6-0.5,1.1-0.7,1.6c-1.2,0.7-2.5,1.6-3.5,2.5
		c-1.2,1.2-1.8,2.4-1.8,3.5c0,1,0.5,1.9,1.4,2.7c0.9,0.8,1.9,1.1,2.8,0.8c0.1,0.3,0.2,0.6,0.3,0.9c1.4,3.7,4.5,5,4.6,5l0.2,0.1
		l0.3-0.1c0.1,0,1.4-0.5,2.8-1.9c1-1,1.9-2.3,2.5-4c0,0,0,0,0.1,0c0.7,0.2,1.8,0.3,3-0.7c0.1-0.1,0.2-0.2,0.3-0.3
		c1-1,1.3-2.1,1.1-3.3c-0.5-2-2.7-3.8-4.9-5.1c-0.2-0.7-0.5-1.4-0.9-2.2c-0.6-1.4-1.4-2.2-2.1-2.6c0.3-1.1,1.4-1.9,2.2-1.9
		c0.5,0,0.8,0.4,0.9,1c0,0.4,0.4,0.6,0.8,0.6c0.2,0,0.3-0.1,0.4-0.2c0.1-0.1,0.2-0.4,0.2-0.6C313.5,142.1,312.4,141.5,311.5,141.5z
		 M315.8,155c0.2,0.8-0.1,1.5-0.9,2.2c-0.8,0.7-1.3,0.6-1.7,0.5c0,0-0.1,0-0.1-0.1c-0.4-0.2-0.8-0.5-1.2-1c-0.3-0.3-0.5-0.7-0.8-1.1
		c-0.4-0.7-0.8-1.5-1.1-2.3c-0.3-0.6-0.5-1.2-0.7-1.8c-0.3-0.8-0.5-1.6-0.7-2.2l0.1,0c1.2,0.5,2.8,1.4,4.2,2.3
		C314.3,152.6,315.5,153.8,315.8,155z M300.2,157.1c-0.6-0.5-0.9-1.1-0.9-1.7c0-0.8,0.4-1.6,1.4-2.5c0.5-0.5,1.1-1,1.8-1.5
		c1.4-1,3-1.7,4.2-2.2l0,0c-0.2,0.6-0.4,1.4-0.7,2.2c-0.2,0.6-0.5,1.2-0.7,1.8c-0.3,0.8-0.7,1.6-1.2,2.2c-0.3,0.5-0.6,0.9-0.9,1.2
		c-0.1,0.1-0.1,0.2-0.2,0.2c-0.4,0.4-0.7,0.6-1,0.7C301.3,157.7,300.7,157.6,300.2,157.1z M307.3,151.4l0.5,0
		c0.2,0.6,0.4,1.2,0.7,1.8l-1.9,0C306.9,152.6,307.1,152,307.3,151.4z M305.5,155.4l4,0c0.4,0.7,0.7,1.3,1.2,1.8l-6.3-0.1
		C304.8,156.7,305.2,156.1,305.5,155.4z M309.9,161.3l-5.2,0c-0.4-0.5-0.7-1.1-1-1.8l7.4,0.1C310.7,160.2,310.4,160.8,309.9,161.3z
		 M310.1,147.9c0.1,0.2,0.2,0.4,0.3,0.6c-1-0.5-1.8-0.8-2.4-1c-0.1-0.1-0.2-0.1-0.4-0.1c-0.1,0-0.3,0-0.4,0.1
		c-0.6,0.2-1.4,0.5-2.2,0.9c0,0,0-0.1,0-0.1l0.1-0.1c0.2-0.5,0.7-1.4,1.3-2c0.4-0.4,0.8-0.6,1.2-0.6
		C308.6,145.6,309.4,146.4,310.1,147.9z"/>
	<path class="st1" d="M337,141.5c-1.3,0-2.9,1.1-3.5,2.8c-0.1,0-0.2,0-0.4,0c-0.1,0-0.2,0-0.4,0c-0.5-1.7-2.3-2.8-3.7-2.8
		c-1.3,0-2.2,0.8-2.4,2.2c-0.1,0.4,0.2,0.7,0.6,0.8c0.4,0.1,0.7-0.2,0.8-0.6c0.1-0.7,0.5-1,1.1-1c0.9,0,2.1,0.8,2.4,2
		c-0.2,0.1-0.4,0.3-0.5,0.4c-0.8,0.8-1.3,1.8-1.5,2.4l-0.1,0.1c-0.3,0.6-0.5,1.1-0.7,1.6c-1.2,0.7-2.5,1.6-3.5,2.5
		c-1.2,1.2-1.8,2.4-1.8,3.5c0,1,0.5,1.9,1.4,2.7c0.9,0.8,1.9,1.1,2.8,0.8c0.1,0.3,0.2,0.6,0.3,0.9c1.4,3.7,4.5,5,4.6,5l0.2,0.1
		l0.3-0.1c0.1,0,1.4-0.5,2.8-1.9c1-1,1.9-2.3,2.5-4c0,0,0,0,0.1,0c0.7,0.2,1.8,0.3,3-0.7c0.1-0.1,0.2-0.2,0.3-0.3
		c1-1,1.3-2.1,1.1-3.3c-0.5-2-2.7-3.8-4.9-5.1c-0.2-0.7-0.5-1.4-0.9-2.2c-0.6-1.4-1.4-2.2-2.1-2.6c0.3-1.1,1.4-1.9,2.2-1.9
		c0.5,0,0.8,0.4,0.9,1c0,0.4,0.4,0.6,0.8,0.6c0.2,0,0.3-0.1,0.4-0.2c0.1-0.1,0.2-0.4,0.2-0.6C339,142.1,338,141.5,337,141.5z
		 M341.4,155c0.2,0.8-0.1,1.5-0.9,2.2c-0.8,0.7-1.3,0.6-1.7,0.5c0,0-0.1,0-0.1-0.1c-0.4-0.2-0.8-0.5-1.2-1c-0.3-0.3-0.5-0.7-0.8-1.1
		c-0.4-0.7-0.8-1.5-1.1-2.3c-0.3-0.6-0.5-1.2-0.7-1.8c-0.3-0.8-0.5-1.6-0.7-2.2l0.1,0c1.2,0.5,2.8,1.4,4.2,2.3
		C339.8,152.6,341.1,153.8,341.4,155z M325.7,157.1c-0.6-0.5-0.9-1.1-0.9-1.7c0-0.8,0.4-1.6,1.4-2.5c0.5-0.5,1.1-1,1.8-1.5
		c1.4-1,3-1.7,4.2-2.2l0,0c-0.2,0.6-0.4,1.4-0.7,2.2c-0.2,0.6-0.5,1.2-0.7,1.8c-0.3,0.8-0.7,1.6-1.2,2.2c-0.3,0.5-0.6,0.9-0.9,1.2
		c-0.1,0.1-0.1,0.2-0.2,0.2c-0.4,0.4-0.7,0.6-1,0.7C326.8,157.7,326.3,157.6,325.7,157.1z M332.9,151.4l0.5,0
		c0.2,0.6,0.4,1.2,0.7,1.8l-1.9,0C332.4,152.6,332.7,152,332.9,151.4z M331.1,155.4l4,0c0.4,0.7,0.7,1.3,1.2,1.8l-6.3-0.1
		C330.4,156.7,330.7,156.1,331.1,155.4z M335.5,161.3l-5.2,0c-0.4-0.5-0.7-1.1-1-1.8l7.4,0.1C336.3,160.2,335.9,160.8,335.5,161.3z
		 M335.7,147.9c0.1,0.2,0.2,0.4,0.3,0.6c-1-0.5-1.8-0.8-2.4-1c-0.1-0.1-0.2-0.1-0.4-0.1c-0.1,0-0.3,0-0.4,0.1
		c-0.6,0.2-1.4,0.5-2.2,0.9c0,0,0-0.1,0-0.1l0.1-0.1c0.2-0.5,0.7-1.4,1.3-2c0.4-0.4,0.8-0.6,1.2-0.6
		C334.1,145.6,335,146.4,335.7,147.9z"/>
	<g>
		<path class="st11" d="M328.3,294.3h-14.2c-1.5,0-2.8,0.8-3.5,2.1l-7.2,13c-0.7,1.2-0.7,2.7,0,3.9l7.1,12.8c0.7,1.3,2,2.1,3.5,2.1
			h14.4c1.5,0,2.8-0.8,3.5-2.1l7.1-12.8c0.7-1.2,0.7-2.7,0-3.9l-7.2-13C331.1,295.1,329.8,294.3,328.3,294.3z"/>
		<g>
			<g>
				<path class="st12" d="M317.7,301.1l-1,1c-0.3,0.4-0.5,0.8-0.5,1.3c0,0.5,0.2,0.9,0.5,1.2l6.7,6.7l-6.7,6.7
					c-0.3,0.3-0.5,0.8-0.5,1.2c0,0.5,0.2,0.9,0.5,1.3l1,1c0.4,0.4,0.8,0.5,1.3,0.5c0.5,0,0.9-0.2,1.2-0.5l9-9
					c0.4-0.3,0.5-0.7,0.5-1.2c0-0.5-0.2-0.9-0.5-1.3l-9-9c-0.3-0.3-0.8-0.5-1.2-0.5C318.5,300.5,318.1,300.7,317.7,301.1
					L317.7,301.1z M317.7,301.1"/>
			</g>
		</g>
	</g>
</g>
<g>
	<g>
		<polygon class="st14" points="584.2,29.4 468.5,29.4 446.3,69.4 606.5,69.4 		"/>
		<polygon class="st1" points="606.5,69.4 446.3,69.4 410.7,133.4 467.7,236 585.1,236 642,133.4 		"/>
	</g>
	<path class="st1" d="M502.7,37.3c-1.3,0-2.9,1.1-3.5,2.8c-0.1,0-0.2,0-0.4,0c-0.1,0-0.2,0-0.4,0c-0.5-1.7-2.3-2.8-3.7-2.8
		c-1.3,0-2.2,0.8-2.4,2.2c-0.1,0.4,0.2,0.7,0.6,0.8c0.4,0.1,0.7-0.2,0.8-0.6c0.1-0.7,0.5-1,1.1-1c0.9,0,2.1,0.8,2.4,2
		c-0.2,0.1-0.4,0.3-0.5,0.4c-0.8,0.8-1.3,1.8-1.5,2.4l-0.1,0.1c-0.3,0.6-0.5,1.1-0.7,1.6c-1.2,0.7-2.5,1.6-3.5,2.5
		c-1.2,1.2-1.8,2.4-1.8,3.5c0,1,0.5,1.9,1.4,2.7c0.9,0.8,1.9,1.1,2.8,0.8c0.1,0.3,0.2,0.6,0.3,0.9c1.4,3.7,4.5,5,4.6,5l0.2,0.1
		l0.3-0.1c0.1,0,1.4-0.5,2.8-1.9c1-1,1.9-2.3,2.5-4c0,0,0,0,0.1,0c0.7,0.2,1.8,0.3,3-0.7c0.1-0.1,0.2-0.2,0.3-0.3
		c1-1,1.3-2.1,1.1-3.3c-0.5-2-2.7-3.8-4.9-5.1c-0.2-0.7-0.5-1.4-0.9-2.2c-0.6-1.4-1.4-2.2-2.1-2.6c0.3-1.1,1.4-1.9,2.2-1.9
		c0.5,0,0.8,0.4,0.9,1c0,0.4,0.4,0.6,0.8,0.6c0.2,0,0.3-0.1,0.4-0.2c0.1-0.1,0.2-0.4,0.2-0.6C504.7,37.9,503.6,37.3,502.7,37.3z
		 M507,50.8c0.2,0.8-0.1,1.5-0.9,2.2c-0.8,0.7-1.3,0.6-1.7,0.5c0,0-0.1,0-0.1-0.1c-0.4-0.2-0.8-0.5-1.2-1c-0.3-0.3-0.5-0.7-0.8-1.1
		c-0.4-0.7-0.8-1.5-1.1-2.3c-0.3-0.6-0.5-1.2-0.7-1.8c-0.3-0.8-0.5-1.6-0.7-2.2l0.1,0c1.2,0.5,2.8,1.4,4.2,2.3
		C505.5,48.4,506.8,49.6,507,50.8z M491.4,52.8c-0.6-0.5-0.9-1.1-0.9-1.7c0-0.8,0.4-1.6,1.4-2.5c0.5-0.5,1.1-1,1.8-1.5
		c1.4-1,3-1.7,4.2-2.2l0,0c-0.2,0.6-0.4,1.4-0.7,2.2c-0.2,0.6-0.5,1.2-0.7,1.8c-0.3,0.8-0.7,1.6-1.2,2.2c-0.3,0.5-0.6,0.9-0.9,1.2
		c-0.1,0.1-0.1,0.2-0.2,0.2c-0.4,0.4-0.7,0.6-1,0.7C492.5,53.5,492,53.4,491.4,52.8z M498.5,47.2l0.5,0c0.2,0.6,0.4,1.2,0.7,1.8
		l-1.9,0C498.1,48.4,498.3,47.7,498.5,47.2z M496.8,51.2l4,0c0.4,0.7,0.7,1.3,1.2,1.8l-6.3-0.1C496,52.5,496.4,51.9,496.8,51.2z
		 M501.2,57.1l-5.2,0c-0.4-0.5-0.7-1.1-1-1.8l7.4,0.1C502,56,501.6,56.6,501.2,57.1z M501.3,43.7c0.1,0.2,0.2,0.4,0.3,0.6
		c-1-0.5-1.8-0.8-2.4-1c-0.1-0.1-0.2-0.1-0.4-0.1c-0.1,0-0.3,0-0.4,0.1c-0.6,0.2-1.4,0.5-2.2,0.9c0,0,0-0.1,0-0.1l0.1-0.1
		c0.2-0.5,0.7-1.4,1.3-2c0.4-0.4,0.8-0.6,1.2-0.6C499.8,41.4,500.7,42.1,501.3,43.7z"/>
	<path class="st1" d="M528.3,37.3c-1.3,0-2.9,1.1-3.5,2.8c-0.1,0-0.2,0-0.4,0c-0.1,0-0.2,0-0.4,0c-0.5-1.7-2.3-2.8-3.7-2.8
		c-1.3,0-2.2,0.8-2.4,2.2c-0.1,0.4,0.2,0.7,0.6,0.8c0.4,0.1,0.7-0.2,0.8-0.6c0.1-0.7,0.5-1,1.1-1c0.9,0,2.1,0.8,2.4,2
		c-0.2,0.1-0.4,0.3-0.5,0.4c-0.8,0.8-1.3,1.8-1.5,2.4l-0.1,0.1c-0.3,0.6-0.5,1.1-0.7,1.6c-1.2,0.7-2.5,1.6-3.5,2.5
		c-1.2,1.2-1.8,2.4-1.8,3.5c0,1,0.5,1.9,1.4,2.7c0.9,0.8,1.9,1.1,2.8,0.8c0.1,0.3,0.2,0.6,0.3,0.9c1.4,3.7,4.5,5,4.6,5l0.2,0.1
		l0.3-0.1c0.1,0,1.4-0.5,2.8-1.9c1-1,1.9-2.3,2.5-4c0,0,0,0,0.1,0c0.7,0.2,1.8,0.3,3-0.7c0.1-0.1,0.2-0.2,0.3-0.3
		c1-1,1.3-2.1,1.1-3.3c-0.5-2-2.7-3.8-4.9-5.1c-0.2-0.7-0.5-1.4-0.9-2.2c-0.6-1.4-1.4-2.2-2.1-2.6c0.3-1.1,1.4-1.9,2.2-1.9
		c0.5,0,0.8,0.4,0.9,1c0,0.4,0.4,0.6,0.8,0.6c0.2,0,0.3-0.1,0.4-0.2c0.1-0.1,0.2-0.4,0.2-0.6C530.3,37.9,529.2,37.3,528.3,37.3z
		 M532.6,50.8c0.2,0.8-0.1,1.5-0.9,2.2c-0.8,0.7-1.3,0.6-1.7,0.5c0,0-0.1,0-0.1-0.1c-0.4-0.2-0.8-0.5-1.2-1
		c-0.3-0.3-0.5-0.7-0.8-1.1c-0.4-0.7-0.8-1.5-1.1-2.3c-0.3-0.6-0.5-1.2-0.7-1.8c-0.3-0.8-0.5-1.6-0.7-2.2l0.1,0
		c1.2,0.5,2.8,1.4,4.2,2.3C531.1,48.4,532.3,49.6,532.6,50.8z M517,52.8c-0.6-0.5-0.9-1.1-0.9-1.7c0-0.8,0.4-1.6,1.4-2.5
		c0.5-0.5,1.1-1,1.8-1.5c1.4-1,3-1.7,4.2-2.2l0,0c-0.2,0.6-0.4,1.4-0.7,2.2c-0.2,0.6-0.5,1.2-0.7,1.8c-0.3,0.8-0.7,1.6-1.2,2.2
		c-0.3,0.5-0.6,0.9-0.9,1.2c-0.1,0.1-0.1,0.2-0.2,0.2c-0.4,0.4-0.7,0.6-1,0.7C518.1,53.5,517.5,53.4,517,52.8z M524.1,47.2l0.5,0
		c0.2,0.6,0.4,1.2,0.7,1.8l-1.9,0C523.7,48.4,523.9,47.7,524.1,47.2z M522.3,51.2l4,0c0.4,0.7,0.7,1.3,1.2,1.8l-6.3-0.1
		C521.6,52.5,522,51.9,522.3,51.2z M526.7,57.1l-5.2,0c-0.4-0.5-0.7-1.1-1-1.8l7.4,0.1C527.5,56,527.2,56.6,526.7,57.1z M526.9,43.7
		c0.1,0.2,0.2,0.4,0.3,0.6c-1-0.5-1.8-0.8-2.4-1c-0.1-0.1-0.2-0.1-0.4-0.1c-0.1,0-0.3,0-0.4,0.1c-0.6,0.2-1.4,0.5-2.2,0.9
		c0,0,0-0.1,0-0.1l0.1-0.1c0.2-0.5,0.7-1.4,1.3-2c0.4-0.4,0.8-0.6,1.2-0.6C525.4,41.4,526.2,42.1,526.9,43.7z"/>
	<path class="st1" d="M553.8,37.3c-1.3,0-2.9,1.1-3.5,2.8c-0.1,0-0.2,0-0.4,0c-0.1,0-0.2,0-0.4,0c-0.5-1.7-2.3-2.8-3.7-2.8
		c-1.3,0-2.2,0.8-2.4,2.2c-0.1,0.4,0.2,0.7,0.6,0.8c0.4,0.1,0.7-0.2,0.8-0.6c0.1-0.7,0.5-1,1.1-1c0.9,0,2.1,0.8,2.4,2
		c-0.2,0.1-0.4,0.3-0.5,0.4c-0.8,0.8-1.3,1.8-1.5,2.4l-0.1,0.1c-0.3,0.6-0.5,1.1-0.7,1.6c-1.2,0.7-2.5,1.6-3.5,2.5
		c-1.2,1.2-1.8,2.4-1.8,3.5c0,1,0.5,1.9,1.4,2.7c0.9,0.8,1.9,1.1,2.8,0.8c0.1,0.3,0.2,0.6,0.3,0.9c1.4,3.7,4.5,5,4.6,5l0.2,0.1
		l0.3-0.1c0.1,0,1.4-0.5,2.8-1.9c1-1,1.9-2.3,2.5-4c0,0,0,0,0.1,0c0.7,0.2,1.8,0.3,3-0.7c0.1-0.1,0.2-0.2,0.3-0.3
		c1-1,1.3-2.1,1.1-3.3c-0.5-2-2.7-3.8-4.9-5.1c-0.2-0.7-0.5-1.4-0.9-2.2c-0.6-1.4-1.4-2.2-2.1-2.6c0.3-1.1,1.4-1.9,2.2-1.9
		c0.5,0,0.8,0.4,0.9,1c0,0.4,0.4,0.6,0.8,0.6c0.2,0,0.3-0.1,0.4-0.2c0.1-0.1,0.2-0.4,0.2-0.6C555.8,37.9,554.8,37.3,553.8,37.3z
		 M558.2,50.8c0.2,0.8-0.1,1.5-0.9,2.2c-0.8,0.7-1.3,0.6-1.7,0.5c0,0-0.1,0-0.1-0.1c-0.4-0.2-0.8-0.5-1.2-1
		c-0.3-0.3-0.5-0.7-0.8-1.1c-0.4-0.7-0.8-1.5-1.1-2.3c-0.3-0.6-0.5-1.2-0.7-1.8c-0.3-0.8-0.5-1.6-0.7-2.2l0.1,0
		c1.2,0.5,2.8,1.4,4.2,2.3C556.6,48.4,557.9,49.6,558.2,50.8z M542.5,52.8c-0.6-0.5-0.9-1.1-0.9-1.7c0-0.8,0.4-1.6,1.4-2.5
		c0.5-0.5,1.1-1,1.8-1.5c1.4-1,3-1.7,4.2-2.2l0,0c-0.2,0.6-0.4,1.4-0.7,2.2c-0.2,0.6-0.5,1.2-0.7,1.8c-0.3,0.8-0.7,1.6-1.2,2.2
		c-0.3,0.5-0.6,0.9-0.9,1.2c-0.1,0.1-0.1,0.2-0.2,0.2c-0.4,0.4-0.7,0.6-1,0.7C543.6,53.5,543.1,53.4,542.5,52.8z M549.7,47.2l0.5,0
		c0.2,0.6,0.4,1.2,0.7,1.8l-1.9,0C549.2,48.4,549.5,47.7,549.7,47.2z M547.9,51.2l4,0c0.4,0.7,0.7,1.3,1.2,1.8l-6.3-0.1
		C547.2,52.5,547.5,51.9,547.9,51.2z M552.3,57.1l-5.2,0c-0.4-0.5-0.7-1.1-1-1.8l7.4,0.1C553.1,56,552.7,56.6,552.3,57.1z
		 M552.5,43.7c0.1,0.2,0.2,0.4,0.3,0.6c-1-0.5-1.8-0.8-2.4-1c-0.1-0.1-0.2-0.1-0.4-0.1c-0.1,0-0.3,0-0.4,0.1
		c-0.6,0.2-1.4,0.5-2.2,0.9c0,0,0-0.1,0-0.1l0.1-0.1c0.2-0.5,0.7-1.4,1.3-2c0.4-0.4,0.8-0.6,1.2-0.6
		C550.9,41.4,551.8,42.1,552.5,43.7z"/>
	<g>
		<text transform="matrix(1 0 0 1 458.3416 94.7923)" class="st2 st3 st4">Mobile Game Design</text>
	</g>
	<g>
		<rect x="434" y="107.5" class="st5" width="180.6" height="51.1"/>
		<text transform="matrix(1 0 0 1 441.808 116.6057)"><tspan x="0" y="0" class="st6 st7 st8">Learn how to design a game for </tspan><tspan x="-5.5" y="13.2" class="st6 st7 st8">mobile devices. Sketch, build, and </tspan><tspan x="5.2" y="26.4" class="st6 st7 st8">animate the entire game from </tspan><tspan x="36.7" y="39.6" class="st6 st7 st8">beginning to end. </tspan></text>
	</g>
	<g>
		<path class="st14" d="M473.8,190.2c-6.4,0-11.6-5.2-11.6-11.6s5.2-11.6,11.6-11.6c6.4,0,11.6,5.2,11.6,11.6
			S480.2,190.2,473.8,190.2z M473.8,169.5c-5,0-9.1,4.1-9.1,9.1s4.1,9.1,9.1,9.1c5,0,9.1-4.1,9.1-9.1S478.8,169.5,473.8,169.5z"/>
		<g>
			<path class="st14" d="M471.9,173.8c0-1,0.9-1.9,1.9-1.9c1.1,0,1.9,0.8,1.9,1.9c0,1.1-0.8,1.9-1.9,1.9
				C472.8,175.7,471.9,174.9,471.9,173.8z M472.2,185.4v-8.9h3.3v8.9H472.2z"/>
		</g>
	</g>
	<text transform="matrix(1 0 0 1 556.2504 182.2161)" class="st14 st9 st10">2 hours</text>
	<g>
		<path class="st11" d="M533.5,191.3h-14.2c-1.5,0-2.8,0.8-3.5,2.1l-7.2,13c-0.7,1.2-0.7,2.7,0,3.9l7.1,12.8c0.7,1.3,2,2.1,3.5,2.1
			h14.4c1.5,0,2.8-0.8,3.5-2.1l7.1-12.8c0.7-1.2,0.7-2.7,0-3.9l-7.2-13C536.3,192.1,534.9,191.3,533.5,191.3z"/>
		<g>
			<g>
				<path class="st12" d="M522.9,198l-1,1c-0.3,0.4-0.5,0.8-0.5,1.3c0,0.5,0.2,0.9,0.5,1.2l6.7,6.7l-6.7,6.7
					c-0.3,0.3-0.5,0.8-0.5,1.2c0,0.5,0.2,0.9,0.5,1.3l1,1c0.4,0.4,0.8,0.5,1.3,0.5c0.5,0,0.9-0.2,1.2-0.5l9-9
					c0.4-0.3,0.5-0.7,0.5-1.2c0-0.5-0.2-0.9-0.5-1.3l-9-9c-0.3-0.3-0.8-0.5-1.2-0.5C523.7,197.5,523.2,197.7,522.9,198L522.9,198z
					 M522.9,198"/>
			</g>
		</g>
	</g>
</g>
<g>
	<g>
		<path class="st15" d="M62,35.5L62,35.5c-1.9,0-3.5-1.6-3.5-3.5v-3.1h7V32C65.5,33.9,64,35.5,62,35.5z"/>
		<path class="st15" d="M100.3,35.5L100.3,35.5c-1.9,0-3.5-1.6-3.5-3.5v-3.1h7V32C103.8,33.9,102.2,35.5,100.3,35.5z"/>
		<g>
			<path class="st15" d="M86.8,4.7c-1-2.1-3.1-3.6-5.5-3.6c-2.5,0-4.6,1.5-5.6,3.6l-9.9,2.5v2.3h30.5V7.3v0L86.8,4.7z"/>
		</g>
		<circle class="st15" cx="99.7" cy="15" r="1"/>
		<circle class="st15" cx="101.7" cy="21.6" r="1"/>
		<circle class="st15" cx="100" cy="5.4" r="1"/>
		<circle class="st15" cx="90.4" cy="2.2" r="1"/>
		<circle class="st15" cx="64.6" cy="16.5" r="1"/>
		<circle class="st15" cx="60.8" cy="12.6" r="1"/>
		<circle class="st15" cx="64.3" cy="5.4" r="1"/>
		<path class="st15" d="M97.2,25.4c0-0.2,0-0.5-0.1-0.7C97,24.5,97,24.2,96.9,24c-0.1-0.2-0.1-0.5-0.2-0.8c-0.1-0.3-0.3-0.6-0.5-0.8
			c-0.3-0.5-0.7-0.9-1.1-1.3c-0.4-0.4-0.9-0.7-1.5-0.9c-0.5-0.2-0.9-0.4-1.2-0.4v-8.6h-1.5v11.1c-0.9,1.3-2.1,2.5-3.6,3.3V11.1H87
			H86h-9.7h-0.6h-0.9v14.1c-1.4-0.9-2.7-2.2-3.6-3.7V11.1h-1.5v8.7c-0.1,0-0.2,0.1-0.4,0.2c-0.3,0.1-0.5,0.2-0.8,0.4
			c-0.7,0.4-1.3,1-1.9,1.6c-0.1,0.2-0.3,0.3-0.4,0.5c-0.2,0.6-0.6,1.1-0.7,1.7c-0.1,0.3-0.1,0.7-0.1,1c0,1.5,0,2.9,0,4.4h31.9
			C97.2,28.1,97.2,26.8,97.2,25.4z M85.8,26.2c-1.4,0.6-3,0.9-4.6,0.9c-1.8,0-3.6-0.4-5-1.1V15c0.9,1.8,2.9,3,5,3
			c1.9,0,3.6-0.9,4.6-2.3V26.2z"/>
	</g>
	<g>
		<polygon class="st15" points="115.6,0 115.6,6.6 107.1,10.3 115.6,14 115.6,19.5 126,19.5 135.9,19.5 262,19.5 262,0 		"/>
		<text transform="matrix(1 0 0 1 122.8227 14.436)" class="st16 st9 st4">BEEKEEPER RECOMMENDS</text>
	</g>
</g>
</svg>
