<?xml version="1.0" encoding="utf-8"?>
<!-- Generator: Adobe Illustrator 19.1.0, SVG Export Plug-In . SVG Version: 6.00 Build 0)  -->
<svg version="1.1" id="Layer_1" xmlns="http://www.w3.org/2000/svg" xmlns:xlink="http://www.w3.org/1999/xlink" x="0px" y="0px"
	 viewBox="-726 354.8 231.3 206.6" style="enable-background:new -726 354.8 231.3 206.6;" xml:space="preserve">
<style type="text/css">
	.st0{fill:#8BC53F;}
	.st1{fill:#FFFFFF;}
	.st2{fill:#ECEEEE;}
	.st3{enable-background:new    ;}
	.st4{fill:#767676;}
	.st5{fill:none;}
	.st6{fill:#231F20;}
	.st7{fill:#39A5E1;}
	.st8{fill:#EBEDED;}
</style>
<g>
	<g>
		<polygon class="st0" points="-552.5,354.8 -668.2,354.8 -690.4,394.8 -530.2,394.8 		"/>
		<polygon class="st1" points="-530.2,394.8 -690.4,394.8 -726,458.8 -669,561.4 -551.6,561.4 -494.7,458.8 		"/>
	</g>
	<path class="st2" d="M-606.4,362.7c-1.3,0-2.9,1.1-3.5,2.8c-0.1,0-0.2,0-0.4,0c-0.1,0-0.2,0-0.4,0c-0.5-1.7-2.3-2.8-3.7-2.8
		c-1.3,0-2.2,0.8-2.4,2.2c-0.1,0.4,0.2,0.7,0.6,0.8c0.4,0.1,0.7-0.2,0.8-0.6c0.1-0.7,0.5-1,1.1-1c0.9,0,2.1,0.8,2.4,2
		c-0.2,0.1-0.4,0.3-0.5,0.4c-0.8,0.8-1.3,1.8-1.5,2.4l-0.1,0.1c-0.3,0.6-0.5,1.1-0.7,1.6c-1.2,0.7-2.5,1.6-3.5,2.5
		c-1.2,1.2-1.8,2.4-1.8,3.5c0,1,0.5,1.9,1.4,2.7s1.9,1.1,2.8,0.8c0.1,0.3,0.2,0.6,0.3,0.9c1.4,3.7,4.5,5,4.6,5l0.2,0.1l0.3-0.1
		c0.1,0,1.4-0.5,2.8-1.9c1-1,1.9-2.3,2.5-4c0,0,0,0,0.1,0c0.7,0.2,1.8,0.3,3-0.7c0.1-0.1,0.2-0.2,0.3-0.3c1-1,1.3-2.1,1.1-3.3
		c-0.5-2-2.7-3.8-4.9-5.1c-0.2-0.7-0.5-1.4-0.9-2.2c-0.6-1.4-1.4-2.2-2.1-2.6c0.3-1.1,1.4-1.9,2.2-1.9c0.5,0,0.8,0.4,0.9,1
		c0,0.4,0.4,0.6,0.8,0.6c0.2,0,0.3-0.1,0.4-0.2s0.2-0.4,0.2-0.6C-604.4,363.3-605.5,362.7-606.4,362.7z M-602.1,376.1
		c0.2,0.8-0.1,1.5-0.9,2.2s-1.3,0.6-1.7,0.5c0,0-0.1,0-0.1-0.1c-0.4-0.2-0.8-0.5-1.2-1c-0.3-0.3-0.5-0.7-0.8-1.1
		c-0.4-0.7-0.8-1.5-1.1-2.3c-0.3-0.6-0.5-1.2-0.7-1.8c-0.3-0.8-0.5-1.6-0.7-2.2h0.1c1.2,0.5,2.8,1.4,4.2,2.3
		C-603.6,373.8-602.4,375-602.1,376.1z M-617.7,378.2c-0.6-0.5-0.9-1.1-0.9-1.7c0-0.8,0.4-1.6,1.4-2.5c0.5-0.5,1.1-1,1.8-1.5
		c1.4-1,3-1.7,4.2-2.2l0,0c-0.2,0.6-0.4,1.4-0.7,2.2c-0.2,0.6-0.5,1.2-0.7,1.8c-0.3,0.8-0.7,1.6-1.2,2.2c-0.3,0.5-0.6,0.9-0.9,1.2
		c-0.1,0.1-0.1,0.2-0.2,0.2c-0.4,0.4-0.7,0.6-1,0.7C-616.6,378.9-617.1,378.7-617.7,378.2z M-610.6,372.6h0.5
		c0.2,0.6,0.4,1.2,0.7,1.8h-1.9C-611,373.7-610.8,373.1-610.6,372.6z M-612.3,376.6h4c0.4,0.7,0.7,1.3,1.2,1.8l-6.3-0.1
		C-613.1,377.9-612.7,377.2-612.3,376.6z M-607.9,382.5h-5.2c-0.4-0.5-0.7-1.1-1-1.8l7.4,0.1C-607.1,381.4-607.5,382-607.9,382.5z
		 M-607.8,369.1c0.1,0.2,0.2,0.4,0.3,0.6c-1-0.5-1.8-0.8-2.4-1c-0.1-0.1-0.2-0.1-0.4-0.1c-0.1,0-0.3,0-0.4,0.1
		c-0.6,0.2-1.4,0.5-2.2,0.9v-0.1l0.1-0.1c0.3-0.5,0.7-1.4,1.3-2c0.4-0.4,0.8-0.6,1.2-0.6C-609.3,366.7-608.5,367.5-607.8,369.1z"/>
	<g class="st3">
		<path class="st4" d="M-683.3,411.5h2.9l3.4,8.7h-2.7l-0.6-1.7h-3.5l-0.6,1.7h-2.4L-683.3,411.5z M-680.8,416.8l-1.1-3.6l0,0
			l-1.2,3.6H-680.8z"/>
		<path class="st4" d="M-669.8,411.5v7.2c0,0.5,0,1,0.1,1.5h-2.1v-0.9c-0.2,0.3-0.7,1-2,1c-2.1,0-2.7-1.7-2.7-3.2
			c0-1.3,0.3-1.9,0.8-2.3c0.6-0.6,1.2-0.8,2-0.8c1,0,1.4,0.4,1.8,0.8v-3.3H-669.8z M-672,417.1c0-1-0.3-1.8-1.1-1.8
			c-1,0-1.1,1.3-1.1,1.8c0,0.6,0.1,1.8,1.1,1.8C-672.3,419-672,418.2-672,417.1z"/>
		<path class="st4" d="M-665,414c2,0,3.5,1,3.5,3.1c0,0.9-0.3,1.8-0.9,2.4c-0.5,0.5-1.2,0.9-2.5,0.9c-1.3,0-2.2-0.3-2.8-0.9
			c-0.7-0.7-0.9-1.6-0.9-2.3C-668.6,415.3-667.4,414-665,414z M-665.9,418.6c0.3,0.5,0.7,0.5,0.9,0.5c1,0,1.2-1.1,1.2-1.9
			c0-1-0.3-1.9-1.2-1.9c-1,0-1.2,1-1.2,1.9C-666.2,417.6-666.2,418.1-665.9,418.6z"/>
		<path class="st4" d="M-658,411.5v3.3c0.6-0.8,1.7-0.8,1.9-0.8c1.2,0,1.8,0.6,2.2,1.3c0.3,0.6,0.4,1.2,0.4,1.9
			c0,1.2-0.3,1.8-0.8,2.4c-0.7,0.7-1.4,0.8-1.9,0.8c-0.4,0-1.3,0-2-1l-0.1,0.9h-2.1c0.1-0.7,0.1-1.5,0.1-1.5v-7.2L-658,411.5
			L-658,411.5z M-656.9,419c1.1,0,1.1-1.4,1.1-1.8c0-0.6-0.1-1.8-1.1-1.8c-1.1,0-1.2,1.4-1.2,1.8C-658.1,417.5-658,419-656.9,419z"
			/>
		<path class="st4" d="M-650.5,417.6c0,0.3,0,1.5,1.2,1.5c0.6,0,1-0.3,1-0.9h2.1c-0.2,1.5-1.6,2.1-3.1,2.1c-2.1,0-3.2-1.1-3.2-3
			c0-2,1-3.3,3.2-3.3c1.7,0,2.5,0.7,2.9,1.5c0.3,0.5,0.3,1.1,0.3,2.1L-650.5,417.6L-650.5,417.6z M-648.3,416.4
			c0-0.3-0.1-1.3-1.1-1.3s-1.1,1-1.1,1.3H-648.3z"/>
		<path class="st4" d="M-641,411.5h2.5v8.7h-2.5V411.5z"/>
		<path class="st4" d="M-636.9,411.5h2.3v8.7h-2.3V411.5z"/>
		<path class="st4" d="M-632.9,411.5h2.3v8.7h-2.3V411.5z"/>
		<path class="st4" d="M-626.7,414.2v3.5c0,0.3,0,1.2,0.9,1.2c0.9,0,0.9-0.9,0.9-1.2v-3.5h2.3v5c0,0.5,0,0.6,0,1h-2.2v-0.9
			c-0.6,1-1.4,1-1.9,1c-2.1,0-2.2-1.6-2.2-2.7v-3.4H-626.7L-626.7,414.2z"/>
		<path class="st4" d="M-619.1,418.2c0,0.1,0,0.3,0.1,0.5c0.1,0.2,0.3,0.4,0.7,0.4c0.5,0,0.7-0.3,0.7-0.6c0-0.4-0.3-0.5-0.9-0.7
			l-1.2-0.3c-0.4-0.1-1.5-0.4-1.5-1.6c0-0.6,0.3-1.1,0.7-1.4c0.5-0.4,1.2-0.5,2.1-0.5c1.3,0,2.7,0.3,2.7,2h-2.1c0-0.2,0-0.4-0.1-0.6
			c-0.1-0.2-0.3-0.3-0.6-0.3c-0.3,0-0.7,0.2-0.7,0.5s0.3,0.5,0.6,0.6l1.6,0.4c0.6,0.2,1.4,0.5,1.4,1.7c0,2-2.4,2-2.9,2
			c-1.2,0-3-0.2-3-2.1L-619.1,418.2L-619.1,418.2z"/>
		<path class="st4" d="M-610.1,414.2v1.4h-1.5v2.1c0,0.7,0,1.1,0.9,1.1c0.2,0,0.3,0,0.6,0v1.4c-0.3,0-0.7,0.1-1.5,0.1
			c-1.8,0-2.2-0.6-2.2-1.8v-2.9h-1.1v-1.4h1.2v-0.9l2.2-0.9v1.8H-610.1L-610.1,414.2z"/>
		<path class="st4" d="M-608.9,415.4l-0.1-1.3h2.2v1.2c0.5-1.3,1.6-1.3,2.1-1.3v1.9c-0.3,0-0.3,0-0.5,0c-1.4,0-1.6,1-1.6,1.6v2.6
			h-2.2L-608.9,415.4L-608.9,415.4z"/>
		<path class="st4" d="M-599.8,420.2c0-0.2-0.1-0.5-0.1-0.9c-0.3,0.4-0.7,1-2,1c-1.5,0-2.1-0.8-2.1-1.9c0-1.6,1.5-2.2,4.1-2.1
			c0-0.6-0.1-1.2-0.8-1.2c-0.4,0-0.8,0.2-0.8,0.9h-2.2c0-0.3,0-0.8,0.5-1.3s1.4-0.8,2.5-0.8c0.5,0,1.7,0.1,2.3,0.7
			c0.4,0.4,0.5,0.9,0.5,1.6v2.8c0,0.4,0,0.6,0.1,1.2H-599.8z M-601.8,418.2c0,0.4,0.3,0.8,0.8,0.8c0.2,0,0.7-0.1,0.9-0.6
			c0.2-0.4,0.2-0.9,0.2-1.1C-600.8,417.4-601.8,417.4-601.8,418.2z"/>
		<path class="st4" d="M-592.1,414.2v1.4h-1.5v2.1c0,0.7,0,1.1,0.9,1.1c0.2,0,0.3,0,0.6,0v1.4c-0.3,0-0.7,0.1-1.5,0.1
			c-1.8,0-2.2-0.6-2.2-1.8v-2.9h-1.1v-1.4h1.2v-0.9l2.2-0.9v1.8H-592.1L-592.1,414.2z"/>
		<path class="st4" d="M-587.7,414c2,0,3.5,1,3.5,3.1c0,0.9-0.3,1.8-0.9,2.4c-0.5,0.5-1.2,0.9-2.5,0.9c-1.3,0-2.2-0.3-2.8-0.9
			c-0.7-0.7-0.9-1.6-0.9-2.3C-591.2,415.3-590.1,414-587.7,414z M-588.6,418.6c0.3,0.5,0.7,0.5,0.9,0.5c1,0,1.2-1.1,1.2-1.9
			c0-1-0.3-1.9-1.2-1.9c-1,0-1.2,1-1.2,1.9C-588.9,417.6-588.9,418.1-588.6,418.6z"/>
		<path class="st4" d="M-582.9,415.4l-0.1-1.3h2.2v1.2c0.5-1.3,1.6-1.3,2.1-1.3v1.9c-0.3,0-0.3,0-0.5,0c-1.4,0-1.6,1-1.6,1.6v2.6
			h-2.2L-582.9,415.4L-582.9,415.4z"/>
		<path class="st4" d="M-573.6,411.5h3.5c1.1,0,2.2,0,3,0.7c0.3,0.3,0.7,0.7,0.7,1.5c0,1.5-1.4,1.9-1.8,2l0,0
			c0.5,0.1,2.1,0.4,2.1,2.1c0,0.7-0.3,1.5-1.2,2c-0.7,0.4-1.6,0.4-2.3,0.4h-3.8v-8.7H-573.6z M-571.3,415h1.1c0.4,0,0.6,0,0.8-0.1
			c0.3-0.2,0.5-0.5,0.5-0.8c0-0.3-0.1-0.6-0.3-0.8c-0.3-0.2-0.5-0.2-0.8-0.2h-1.3V415z M-571.3,418.6h1.3c0.3,0,1.2,0,1.2-1
			s-1-1-1.3-1h-1.3v2H-571.3z"/>
		<path class="st4" d="M-561.2,420.2c0-0.2-0.1-0.5-0.1-0.9c-0.3,0.4-0.7,1-2,1c-1.5,0-2.1-0.8-2.1-1.9c0-1.6,1.5-2.2,4.1-2.1
			c0-0.6-0.1-1.2-0.8-1.2c-0.4,0-0.8,0.2-0.8,0.9h-2.2c0-0.3,0-0.8,0.5-1.3s1.4-0.8,2.5-0.8c0.5,0,1.7,0.1,2.3,0.7
			c0.4,0.4,0.5,0.9,0.5,1.6v2.8c0,0.4,0,0.6,0.1,1.2H-561.2z M-563.1,418.2c0,0.4,0.3,0.8,0.8,0.8c0.2,0,0.7-0.1,0.9-0.6
			c0.2-0.4,0.2-0.9,0.2-1.1C-562.2,417.4-563.1,417.4-563.1,418.2z"/>
		<path class="st4" d="M-555.8,418.2c0,0.1,0,0.3,0.1,0.5c0.1,0.2,0.3,0.4,0.7,0.4c0.5,0,0.7-0.3,0.7-0.6c0-0.4-0.3-0.5-0.9-0.7
			l-1.2-0.3c-0.4-0.1-1.5-0.4-1.5-1.6c0-0.6,0.3-1.1,0.7-1.4c0.5-0.4,1.2-0.5,2.1-0.5c1.3,0,2.7,0.3,2.7,2h-2.1c0-0.2,0-0.4-0.1-0.6
			c-0.1-0.2-0.3-0.3-0.6-0.3s-0.7,0.2-0.7,0.5s0.3,0.5,0.6,0.6l1.6,0.4c0.6,0.2,1.4,0.5,1.4,1.7c0,2-2.4,2-2.9,2c-1.2,0-3-0.2-3-2.1
			L-555.8,418.2L-555.8,418.2z"/>
		<path class="st4" d="M-550.9,411.5h2.3v1.6h-2.3V411.5z M-550.9,414.2h2.3v6h-2.3V414.2z"/>
		<path class="st4" d="M-543.1,416.3c0-0.6-0.2-1-0.8-1c-0.8,0-1,0.8-1,1.9c0,1.6,0.4,1.9,1,1.9c0.8,0,0.8-0.8,0.8-1.2h2.3
			c0,1.5-1.2,2.5-3,2.5c-1.9,0-3.4-1-3.4-3.2c0-2.4,1.7-3.2,3.4-3.2c0.6,0,1.7,0.1,2.4,0.9c0.5,0.6,0.6,1.1,0.6,1.5L-543.1,416.3
			L-543.1,416.3z"/>
		<path class="st4" d="M-537.8,418.2c0,0.1,0,0.3,0.1,0.5c0.1,0.2,0.3,0.4,0.7,0.4c0.5,0,0.7-0.3,0.7-0.6c0-0.4-0.3-0.5-0.9-0.7
			l-1.2-0.3c-0.4-0.1-1.5-0.4-1.5-1.6c0-0.6,0.3-1.1,0.7-1.4c0.5-0.4,1.2-0.5,2.1-0.5c1.3,0,2.7,0.3,2.7,2h-2.1c0-0.2,0-0.4-0.1-0.6
			c-0.1-0.2-0.3-0.3-0.6-0.3s-0.7,0.2-0.7,0.5s0.3,0.5,0.6,0.6l1.6,0.4c0.6,0.2,1.4,0.5,1.4,1.7c0,2-2.4,2-2.9,2c-1.2,0-3-0.2-3-2.1
			L-537.8,418.2L-537.8,418.2z"/>
	</g>
	<rect x="-702.7" y="432.7" class="st5" width="180.6" height="51.1"/>
	<g class="st3">
		<path class="st6" d="M-689.2,441.1h1.1v-5.8h-1.1v-0.7h3.2v0.7h-1.1v5.8h1.1v0.7h-3.2V441.1z"/>
		<path class="st6" d="M-685.5,441.1h0.9v-5.8h-0.9v-0.7h1.8v6.5h0.9v0.7h-2.6L-685.5,441.1L-685.5,441.1z"/>
		<path class="st6" d="M-682.4,441.1h0.9v-5.8h-0.9v-0.7h1.8v6.5h0.9v0.7h-2.6L-682.4,441.1L-682.4,441.1z"/>
		<path class="st6" d="M-674.2,441.1h0.9v0.7h-1.8v-0.9l0,0c-0.2,0.6-0.9,1-1.6,1c-1.3,0-1.8-0.6-1.8-1.8v-2.6h-0.9v-0.7h1.8v3.1
			c0,0.8,0.3,1.3,1.2,1.3c1,0,1.4-0.7,1.4-1.6v-2.1h-0.9v-0.7h1.8v4.3H-674.2z"/>
		<path class="st6" d="M-672.3,441.8v-1.7h0.7c0,1,0.8,1.2,1.6,1.2c0.4,0,1-0.2,1-0.8c0-0.7-0.7-0.7-1.3-0.7c-0.9-0.2-2-0.3-2-1.4
			s1-1.6,1.9-1.6c0.6,0,1.3,0.2,1.5,0.7l0,0v-0.6h0.7v1.7h-0.7c0-0.9-0.6-1.1-1.4-1.1c-0.5,0-1.2,0.1-1.2,0.8c0,0.6,0.9,0.6,1.5,0.7
			c0.9,0.2,1.9,0.3,1.9,1.4c0,1.2-1.1,1.6-2.1,1.6c-0.6,0-1.3-0.2-1.5-0.8l0,0v0.7h-0.6V441.8z"/>
		<path class="st6" d="M-663.7,437.5h-1.6v2.9c0,0.4,0.1,0.8,0.6,0.8s0.6-0.5,0.6-0.9h0.8c0,1-0.4,1.7-1.5,1.7
			c-1.3,0-1.3-0.9-1.3-1.9v-2.5h-1v-0.7h1v-1.1l0.9-0.3v1.4h1.6v0.6H-663.7z"/>
		<path class="st6" d="M-662.8,441.1h0.9v-3.6h-0.9v-0.7h1.8v1l0,0c0.2-0.8,0.8-1.1,1.5-1.1c0.2,0,0.3,0,0.4,0v0.7
			c-0.1,0-0.3-0.1-0.5-0.1c-1.3,0-1.4,1.3-1.4,2.4v1.4h1v0.7h-2.8V441.1z"/>
		<path class="st6" d="M-654.7,440.7L-654.7,440.7c-0.2,0.8-0.9,1.1-1.7,1.1c-1,0-2-0.4-2-1.6c0-1.5,1.5-1.6,2.7-1.6h1v-0.2
			c0-0.8-0.4-1.1-1.2-1.1c-0.7,0-1.2,0.1-1.3,0.9h-1c0.1-1.2,1.1-1.6,2.2-1.6c1.2,0,2.2,0.3,2.2,1.6v2.9h0.9v0.7h-1.8L-654.7,440.7
			L-654.7,440.7z M-656.3,441.2c1.1,0,1.6-0.8,1.6-1.8h-0.8c-0.6,0-1.9,0-1.9,0.9C-657.4,441-656.9,441.2-656.3,441.2z"/>
		<path class="st6" d="M-649,437.5h-1.6v2.9c0,0.4,0.1,0.8,0.6,0.8s0.6-0.5,0.6-0.9h0.8c0,1-0.4,1.7-1.5,1.7c-1.3,0-1.3-0.9-1.3-1.9
			v-2.5h-1v-0.7h1v-1.1l0.9-0.3v1.4h1.6L-649,437.5L-649,437.5z"/>
		<path class="st6" d="M-645.4,436.6c1.6,0,2.6,1,2.6,2.6s-1,2.6-2.6,2.6c-1.6,0-2.7-1-2.7-2.6S-647,436.6-645.4,436.6z
			 M-645.4,441.2c1.1,0,1.7-0.9,1.7-1.9s-0.5-1.9-1.7-1.9c-1.1,0-1.7,0.9-1.7,1.9S-646.5,441.2-645.4,441.2z"/>
		<path class="st6" d="M-642,441.1h0.9v-3.6h-0.9v-0.7h1.8v1l0,0c0.2-0.8,0.8-1.1,1.5-1.1c0.2,0,0.3,0,0.4,0v0.7
			c-0.1,0-0.3-0.1-0.5-0.1c-1.3,0-1.4,1.3-1.4,2.4v1.4h1v0.7h-2.8V441.1z"/>
		<path class="st6" d="M-634.7,441.1h0.9v-3.6h-0.9v-0.7h1.8v4.3h0.9v0.7h-2.6L-634.7,441.1L-634.7,441.1z M-632.9,435.6h-1v-1h1
			V435.6z"/>
		<path class="st6" d="M-631.4,441.8v-1.7h0.7c0,1,0.8,1.2,1.6,1.2c0.4,0,1-0.2,1-0.8c0-0.7-0.7-0.7-1.3-0.7c-0.9-0.2-2-0.3-2-1.4
			s1-1.6,1.9-1.6c0.6,0,1.3,0.2,1.5,0.7l0,0v-0.6h0.7v1.7h-0.7c0-0.9-0.6-1.1-1.4-1.1c-0.5,0-1.2,0.1-1.2,0.8c0,0.6,0.9,0.6,1.5,0.7
			c0.9,0.2,1.9,0.3,1.9,1.4c0,1.2-1.1,1.6-2.1,1.6c-0.6,0-1.3-0.2-1.5-0.8l0,0v0.7h-0.6V441.8z"/>
		<path class="st6" d="M-619.3,440.7L-619.3,440.7c-0.2,0.8-0.9,1.1-1.7,1.1c-1,0-2-0.4-2-1.6c0-1.5,1.5-1.6,2.7-1.6h1v-0.2
			c0-0.8-0.4-1.1-1.2-1.1c-0.7,0-1.2,0.1-1.3,0.9h-1c0.1-1.2,1.1-1.6,2.2-1.6c1.2,0,2.2,0.3,2.2,1.6v2.9h0.9v0.7h-1.8V440.7z
			 M-620.9,441.2c1.1,0,1.6-0.8,1.6-1.8h-0.8c-0.6,0-1.9,0-1.9,0.9C-622,441-621.4,441.2-620.9,441.2z"/>
		<path class="st6" d="M-608.3,437.5h-0.6l-1.8,4.3h-1.1l-1.7-4.3h-0.6v-0.7h2.5v0.7h-0.9l1.4,3.5l1.4-3.5h-0.9v-0.7h2.4
			L-608.3,437.5L-608.3,437.5z"/>
		<path class="st6" d="M-606.6,439.5c0,1.2,0.6,1.7,1.8,1.7c0.6,0,1.4-0.3,1.4-1h0.8c0,1.2-1.3,1.7-2.4,1.7c-1.6,0-2.7-1-2.7-2.6
			s1-2.6,2.7-2.6c1.8,0,2.4,1.3,2.4,2.9h-4V439.5z M-603.4,438.8c-0.1-0.9-0.6-1.5-1.6-1.5c-0.9,0-1.6,0.5-1.6,1.5H-603.4z"/>
		<path class="st6" d="M-596.8,438.7h-0.7c-0.1-0.8-0.6-1.3-1.4-1.3c-1.1,0-1.6,0.9-1.6,1.9s0.6,1.9,1.6,1.9c0.7,0,1.3-0.4,1.4-1.1
			h0.8c0,1.2-1.1,1.8-2.2,1.8c-1.6,0-2.6-1-2.6-2.6s1-2.6,2.6-2.6c0.6,0,1.1,0.2,1.4,0.7l0,0v-0.6h0.7V438.7z"/>
		<path class="st6" d="M-592.8,437.5h-1.6v2.9c0,0.4,0.1,0.8,0.5,0.8c0.5,0,0.6-0.5,0.6-0.9h0.8c0,1-0.4,1.7-1.5,1.7
			c-1.3,0-1.3-0.9-1.3-1.9v-2.5h-1v-0.7h1v-1.1l0.9-0.3v1.4h1.6V437.5z"/>
		<path class="st6" d="M-589.1,436.6c1.6,0,2.6,1,2.6,2.6s-1,2.6-2.6,2.6c-1.6,0-2.7-1-2.7-2.6S-590.8,436.6-589.1,436.6z
			 M-589.1,441.2c1.1,0,1.7-0.9,1.7-1.9s-0.5-1.9-1.7-1.9c-1.2,0-1.7,0.9-1.7,1.9S-590.3,441.2-589.1,441.2z"/>
		<path class="st6" d="M-585.7,441.1h0.9v-3.6h-0.9v-0.7h1.8v1l0,0c0.2-0.8,0.8-1.1,1.5-1.1c0.2,0,0.3,0,0.4,0v0.7
			c-0.1,0-0.3-0.1-0.5-0.1c-1.3,0-1.4,1.3-1.4,2.4v1.4h1v0.7h-2.8V441.1z"/>
		<path class="st6" d="M-574.1,440.8L-574.1,440.8c-0.3,0.6-1,1.1-1.8,1.1c-1.7,0-2.4-1.1-2.4-2.6s0.9-2.6,2.4-2.6
			c0.7,0,1.5,0.4,1.8,1l0,0v-2.4h-0.9v-0.7h1.8v6.5h0.9v0.7h-1.8V440.8z M-575.7,437.4c-1.1,0-1.7,0.8-1.7,1.9c0,1,0.5,1.9,1.7,1.9
			c1.1,0,1.6-0.9,1.6-1.9C-574.1,438.2-574.6,437.4-575.7,437.4z"/>
		<path class="st6" d="M-571.7,441.1h0.9v-3.6h-0.9v-0.7h1.8v1l0,0c0.2-0.8,0.8-1.1,1.5-1.1c0.2,0,0.3,0,0.4,0v0.7
			c-0.1,0-0.3-0.1-0.5-0.1c-1.3,0-1.4,1.3-1.4,2.4v1.4h1v0.7h-2.8V441.1z"/>
		<path class="st6" d="M-563.6,440.7L-563.6,440.7c-0.2,0.8-0.9,1.1-1.7,1.1c-1,0-2-0.4-2-1.6c0-1.5,1.5-1.6,2.7-1.6h1v-0.2
			c0-0.8-0.4-1.1-1.2-1.1c-0.7,0-1.2,0.1-1.3,0.9h-1c0.1-1.2,1.1-1.6,2.2-1.6c1.2,0,2.2,0.3,2.2,1.6v2.9h0.9v0.7h-1.8L-563.6,440.7
			L-563.6,440.7z M-565.2,441.2c1.1,0,1.6-0.8,1.6-1.8h-0.8c-0.6,0-1.9,0-1.9,0.9C-566.3,441-565.8,441.2-565.2,441.2z"/>
		<path class="st6" d="M-552,437.5h-0.7l-1.5,4.3h-1.2l-1.4-4.2l0,0l-1.4,4.2h-1.2l-1.5-4.3h-0.7v-0.7h2.6v0.7h-1l1.1,3.5l0,0
			l1.4-4.2h1.2l1.4,4.2l0,0l1.2-3.5h-1v-0.7h2.5v0.7H-552z"/>
		<path class="st6" d="M-551.6,441.1h0.9v-3.6h-0.9v-0.7h1.8v4.3h0.9v0.7h-2.6L-551.6,441.1L-551.6,441.1z M-549.8,435.6h-1v-1h1
			V435.6z"/>
		<path class="st6" d="M-548.4,441.1h0.9v-3.6h-0.9v-0.7h1.8v0.9l0,0c0.2-0.6,0.9-1,1.7-1c1.3,0,1.8,0.6,1.8,1.8v2.6h0.9v0.7h-2.6
			v-0.7h0.9v-2.4c0-0.8-0.3-1.3-1.2-1.3c-1,0-1.4,0.7-1.4,1.6v2.1h0.9v0.7h-2.6v-0.7H-548.4z"/>
		<path class="st6" d="M-535.6,437.5h-0.9v2.7c0,0.8,0.1,1.8-0.3,2.5c-0.4,0.8-1.4,1-2.3,1c-1.1,0-2.4-0.2-2.4-1.5h1
			c0,0.7,0.7,0.8,1.3,0.8c1.3,0,1.7-0.5,1.7-1.8v-0.6l0,0c-0.3,0.7-1.1,1-1.8,1c-1.5,0-2.4-1-2.4-2.6c0-1.5,0.9-2.5,2.4-2.5
			c0.8,0,1.5,0.3,1.9,1l0,0l0,0l0,0v-0.9h1.8V437.5z M-539,441c1.1,0,1.6-0.8,1.6-1.8s-0.5-1.8-1.6-1.8c-1.2,0-1.8,0.7-1.8,1.8
			C-540.7,440.2-540.2,441-539,441z"/>
	</g>
	<g class="st3">
		<path class="st6" d="M-697.8,456.1h0.9v-5.4h-0.9V450h1.8v1l0,0c0.3-0.6,0.9-1.1,1.7-1.1c1.6,0,2.5,1,2.5,2.6s-0.9,2.6-2.5,2.6
			c-0.8,0-1.4-0.4-1.7-1.1l0,0v2.1h0.9v0.7h-2.7L-697.8,456.1L-697.8,456.1z M-694.2,454.4c1,0,1.5-0.8,1.5-1.9c0-1-0.5-1.9-1.5-1.9
			c-1.2,0-1.8,0.9-1.8,1.9C-696,453.6-695.4,454.4-694.2,454.4z"/>
		<path class="st6" d="M-690.9,454.3h0.9v-3.6h-0.9V450h1.8v1l0,0c0.2-0.8,0.8-1.1,1.5-1.1c0.2,0,0.3,0,0.4,0v0.7
			c-0.1,0-0.3-0.1-0.5-0.1c-1.3,0-1.4,1.3-1.4,2.4v1.4h1v0.7h-2.8V454.3z"/>
		<path class="st6" d="M-683.9,449.8c1.6,0,2.6,1,2.6,2.6s-1,2.6-2.6,2.6c-1.6,0-2.7-1-2.7-2.6S-685.6,449.8-683.9,449.8z
			 M-683.9,454.4c1.1,0,1.7-0.9,1.7-1.9s-0.5-1.9-1.7-1.9c-1.1,0-1.7,0.9-1.7,1.9S-685.1,454.4-683.9,454.4z"/>
		<path class="st6" d="M-674.4,450.7h-0.9v2.7c0,0.8,0.1,1.8-0.3,2.5c-0.4,0.8-1.4,1-2.3,1c-1.1,0-2.4-0.2-2.4-1.5h1
			c0,0.7,0.7,0.8,1.3,0.8c1.3,0,1.7-0.5,1.7-1.8v-0.6l0,0c-0.3,0.7-1.1,1-1.8,1c-1.5,0-2.4-1-2.4-2.6c0-1.5,0.9-2.5,2.4-2.5
			c0.8,0,1.5,0.3,1.9,1l0,0l0,0l0,0v-0.9h1.8L-674.4,450.7L-674.4,450.7z M-677.9,454.2c1.1,0,1.6-0.8,1.6-1.8s-0.5-1.8-1.6-1.8
			c-1.2,0-1.8,0.7-1.8,1.8C-679.5,453.4-679,454.2-677.9,454.2z"/>
		<path class="st6" d="M-673.8,454.3h0.9v-3.6h-0.9V450h1.8v1l0,0c0.2-0.8,0.8-1.1,1.5-1.1c0.2,0,0.3,0,0.4,0v0.7
			c-0.1,0-0.3-0.1-0.5-0.1c-1.3,0-1.4,1.3-1.4,2.4v1.4h1v0.7h-2.8V454.3z"/>
		<path class="st6" d="M-665.8,453.9L-665.8,453.9c-0.2,0.8-0.9,1.1-1.7,1.1c-1,0-2-0.4-2-1.6c0-1.5,1.5-1.6,2.7-1.6h1v-0.3
			c0-0.8-0.4-1.1-1.2-1.1c-0.7,0-1.2,0.1-1.3,0.9h-1c0.1-1.2,1.1-1.6,2.2-1.6c1.2,0,2.2,0.3,2.2,1.6v2.9h0.9v0.7h-1.8L-665.8,453.9
			L-665.8,453.9z M-667.4,454.4c1.1,0,1.6-0.8,1.6-1.8h-0.8c-0.6,0-1.9,0-1.9,0.9C-668.5,454.2-667.9,454.4-667.4,454.4z"/>
		<path class="st6" d="M-663.5,454.3h0.9v-3.6h-0.9V450h1.8v0.9l0,0c0.2-0.6,0.8-1,1.6-1c0.8,0,1.3,0.3,1.6,1c0.3-0.6,0.9-1,1.6-1
			c1.2,0,1.8,0.6,1.8,1.7v2.7h0.9v0.7h-2.6v-0.7h0.9v-2.1c0-0.8,0-1.6-1.1-1.6c-1,0-1.3,0.8-1.3,1.6v2.1h0.9v0.7h-2.6v-0.7h0.9v-2.1
			c0-0.9,0-1.6-1.1-1.6c-1,0-1.4,0.8-1.4,1.7v2.1h0.9v0.7h-2.6v-0.8H-663.5z"/>
		<path class="st6" d="M-653,453.9h1.1v1.1h-1.1V453.9z"/>
		<path class="st6" d="M-647.6,454.3h1.1v-5.8h-1.1v-0.7h3.2v0.7h-1.1v5.8h1.1v0.7h-3.2V454.3z"/>
		<path class="st6" d="M-640.5,450.7h-1.6v2.9c0,0.4,0.1,0.8,0.6,0.8s0.6-0.5,0.6-0.9h0.8c0,1-0.4,1.7-1.5,1.7
			c-1.3,0-1.3-0.9-1.3-1.9v-2.5h-1v-0.7h1V449l0.9-0.3v1.4h1.6L-640.5,450.7L-640.5,450.7z"/>
		<path class="st6" d="M-636.6,454.3h0.9v-3.6h-0.9V450h1.8v4.3h0.9v0.7h-2.6L-636.6,454.3L-636.6,454.3z M-634.8,448.8h-1v-1h1
			V448.8z"/>
		<path class="st6" d="M-633.2,455v-1.7h0.7c0,1,0.8,1.2,1.6,1.2c0.4,0,1-0.2,1-0.8c0-0.7-0.7-0.7-1.3-0.7c-0.9-0.2-2-0.3-2-1.4
			s1-1.6,1.9-1.6c0.6,0,1.3,0.2,1.5,0.7l0,0v-0.6h0.7v1.7h-0.7c0-0.9-0.6-1.1-1.4-1.1c-0.5,0-1.2,0.1-1.2,0.8c0,0.6,0.9,0.6,1.5,0.7
			c0.9,0.2,1.9,0.3,1.9,1.4c0,1.2-1.1,1.6-2.1,1.6c-0.6,0-1.3-0.2-1.5-0.8l0,0v0.7h-0.6V455z"/>
		<path class="st6" d="M-622.2,449.8c1.6,0,2.6,1,2.6,2.6s-1,2.6-2.6,2.6s-2.7-1-2.7-2.6S-623.8,449.8-622.2,449.8z M-622.2,454.4
			c1.1,0,1.7-0.9,1.7-1.9s-0.5-1.9-1.7-1.9c-1.1,0-1.7,0.9-1.7,1.9S-623.3,454.4-622.2,454.4z"/>
		<path class="st6" d="M-618.8,454.3h0.9v-3.6h-1V450h1v-0.6c0-1.2,0.5-1.7,1.8-1.7c0.3,0,0.5,0.1,0.8,0.1v0.7
			c-0.3,0-0.6-0.1-0.9-0.1c-0.8,0-0.9,0.5-0.9,1v0.5h1.2v0.7h-1.2v3.6h1.1v0.7h-2.9L-618.8,454.3L-618.8,454.3z"/>
		<path class="st6" d="M-611.8,450.7h-1.6v2.9c0,0.4,0.1,0.8,0.6,0.8s0.6-0.5,0.6-0.9h0.8c0,1-0.4,1.7-1.5,1.7
			c-1.3,0-1.3-0.9-1.3-1.9v-2.5h-1v-0.7h1V449l0.9-0.3v1.4h1.6L-611.8,450.7L-611.8,450.7z"/>
		<path class="st6" d="M-609.7,452.7c0,1.2,0.6,1.7,1.8,1.7c0.6,0,1.4-0.3,1.4-1h0.8c0,1.2-1.3,1.7-2.4,1.7c-1.6,0-2.7-1-2.7-2.6
			s1-2.6,2.7-2.6c1.8,0,2.4,1.3,2.4,2.9h-4V452.7z M-606.5,452c-0.1-0.9-0.6-1.5-1.6-1.5c-0.9,0-1.6,0.5-1.6,1.5H-606.5z"/>
		<path class="st6" d="M-604.7,454.3h0.9v-3.6h-0.9V450h1.8v0.9l0,0c0.2-0.6,0.9-1,1.7-1c1.3,0,1.8,0.6,1.8,1.8v2.6h0.9v0.7h-2.6
			v-0.7h0.9v-2.4c0-0.8-0.3-1.3-1.2-1.3c-1,0-1.4,0.7-1.4,1.6v2.1h0.9v0.7h-2.6v-0.7H-604.7z"/>
		<path class="st6" d="M-589.8,454.3h0.9v0.7h-1.8v-0.9l0,0c-0.2,0.6-0.9,1-1.6,1c-1.3,0-1.8-0.6-1.8-1.8v-2.6h-0.9V450h1.8v3.1
			c0,0.8,0.3,1.3,1.2,1.3c1,0,1.4-0.7,1.4-1.6v-2.1h-0.9V450h1.8L-589.8,454.3L-589.8,454.3z"/>
		<path class="st6" d="M-588,455v-1.7h0.7c0,1,0.8,1.2,1.6,1.2c0.4,0,1-0.2,1-0.8c0-0.7-0.7-0.7-1.3-0.7c-0.9-0.2-2-0.3-2-1.4
			s1-1.6,1.9-1.6c0.6,0,1.3,0.2,1.5,0.7l0,0v-0.6h0.7v1.7h-0.7c0-0.9-0.6-1.1-1.4-1.1c-0.5,0-1.2,0.1-1.2,0.8c0,0.6,0.9,0.6,1.5,0.7
			c0.9,0.2,1.9,0.3,1.9,1.4c0,1.2-1.1,1.6-2.1,1.6c-0.6,0-1.3-0.2-1.5-0.8l0,0v0.7h-0.6V455z"/>
		<path class="st6" d="M-581.6,452.7c0,1.2,0.6,1.7,1.8,1.7c0.6,0,1.4-0.3,1.4-1h0.8c0,1.2-1.3,1.7-2.4,1.7c-1.6,0-2.7-1-2.7-2.6
			s1-2.6,2.7-2.6c1.8,0,2.4,1.3,2.4,2.9h-4V452.7z M-578.4,452c-0.1-0.9-0.6-1.5-1.6-1.5c-0.9,0-1.6,0.5-1.6,1.5H-578.4z"/>
		<path class="st6" d="M-572.3,454L-572.3,454c-0.3,0.6-1,1.1-1.8,1.1c-1.7,0-2.4-1.1-2.4-2.6s0.9-2.6,2.4-2.6c0.7,0,1.5,0.4,1.8,1
			l0,0v-2.4h-0.9v-0.7h1.8v6.5h0.9v0.7h-1.8V454z M-573.9,450.6c-1.1,0-1.7,0.8-1.7,1.9c0,1,0.5,1.9,1.7,1.9c1.1,0,1.6-0.9,1.6-1.9
			C-572.3,451.4-572.8,450.6-573.9,450.6z"/>
		<path class="st6" d="M-563.5,450.7h-1.6v2.9c0,0.4,0.1,0.8,0.5,0.8c0.5,0,0.6-0.5,0.6-0.9h0.8c0,1-0.4,1.7-1.5,1.7
			c-1.3,0-1.3-0.9-1.3-1.9v-2.5h-1v-0.7h1V449l0.9-0.3v1.4h1.6V450.7z"/>
		<path class="st6" d="M-559.9,449.8c1.6,0,2.6,1,2.6,2.6s-1,2.6-2.6,2.6c-1.6,0-2.7-1-2.7-2.6
			C-562.5,450.8-561.5,449.8-559.9,449.8z M-559.9,454.4c1.1,0,1.7-0.9,1.7-1.9s-0.5-1.9-1.7-1.9c-1.1,0-1.7,0.9-1.7,1.9
			S-561,454.4-559.9,454.4z"/>
		<path class="st6" d="M-549.1,454L-549.1,454c-0.3,0.6-1,1.1-1.8,1.1c-1.7,0-2.4-1.1-2.4-2.6s0.9-2.6,2.4-2.6c0.7,0,1.5,0.4,1.8,1
			l0,0v-2.4h-0.9v-0.7h1.8v6.5h0.9v0.7h-1.8V454z M-550.7,450.6c-1.1,0-1.7,0.8-1.7,1.9c0,1,0.5,1.9,1.7,1.9c1.1,0,1.6-0.9,1.6-1.9
			C-549.1,451.4-549.6,450.6-550.7,450.6z"/>
		<path class="st6" d="M-546.7,454.3h0.9v-3.6h-0.9V450h1.8v1l0,0c0.2-0.8,0.8-1.1,1.5-1.1c0.2,0,0.3,0,0.4,0v0.7
			c-0.1,0-0.3-0.1-0.5-0.1c-1.3,0-1.4,1.3-1.4,2.4v1.4h1v0.7h-2.8V454.3z"/>
		<path class="st6" d="M-538.6,453.9L-538.6,453.9c-0.2,0.8-0.9,1.1-1.7,1.1c-1,0-2-0.4-2-1.6c0-1.5,1.5-1.6,2.7-1.6h1v-0.3
			c0-0.8-0.4-1.1-1.2-1.1c-0.7,0-1.2,0.1-1.3,0.9h-1c0.1-1.2,1.1-1.6,2.2-1.6c1.2,0,2.2,0.3,2.2,1.6v2.9h0.9v0.7h-1.8L-538.6,453.9
			L-538.6,453.9z M-540.2,454.4c1.1,0,1.6-0.8,1.6-1.8h-0.8c-0.6,0-1.9,0-1.9,0.9C-541.3,454.2-540.8,454.4-540.2,454.4z"/>
		<path class="st6" d="M-527,450.7h-0.7l-1.5,4.3h-1.2l-1.4-4.2l0,0l-1.4,4.2h-1.2l-1.5-4.3h-0.7V450h2.6v0.7h-1l1.1,3.5l0,0
			l1.4-4.2h1.2l1.4,4.2l0,0l1.2-3.5h-1V450h2.5v0.7H-527z"/>
	</g>
	<g class="st3">
		<path class="st6" d="M-697,467.5h0.9v-3.6h-0.9v-0.7h1.8v4.3h0.9v0.7h-2.6L-697,467.5L-697,467.5z M-695.2,462h-1v-1h1V462z"/>
		<path class="st6" d="M-694,467.5h0.9v-5.8h-0.9V461h1.8v6.5h0.9v0.7h-2.6L-694,467.5L-694,467.5z"/>
		<path class="st6" d="M-690.9,467.5h0.9v-5.8h-0.9V461h1.8v6.5h0.9v0.7h-2.6L-690.9,467.5L-690.9,467.5z"/>
		<path class="st6" d="M-682.7,467.5h0.9v0.7h-1.8v-0.9l0,0c-0.2,0.6-0.9,1-1.6,1c-1.3,0-1.8-0.6-1.8-1.8v-2.6h-0.9v-0.7h1.8v3.1
			c0,0.8,0.3,1.3,1.2,1.3c1,0,1.4-0.7,1.4-1.6v-2.1h-0.9v-0.7h1.8v4.3H-682.7z"/>
		<path class="st6" d="M-680.8,468.2v-1.8h0.7c0,1,0.8,1.2,1.6,1.2c0.4,0,1-0.2,1-0.8c0-0.7-0.7-0.7-1.3-0.7c-0.9-0.2-2-0.3-2-1.4
			s1-1.6,1.9-1.6c0.6,0,1.3,0.2,1.5,0.7l0,0v-0.6h0.7v1.7h-0.7c0-0.9-0.6-1.1-1.4-1.1c-0.5,0-1.2,0.1-1.2,0.8c0,0.6,0.9,0.6,1.5,0.7
			c0.9,0.2,1.9,0.3,1.9,1.4c0,1.2-1.1,1.6-2.1,1.6c-0.6,0-1.3-0.2-1.5-0.8l0,0v0.7L-680.8,468.2L-680.8,468.2z"/>
		<path class="st6" d="M-672.2,463.9h-1.6v2.9c0,0.4,0.1,0.8,0.6,0.8s0.6-0.5,0.6-0.9h0.8c0,1-0.4,1.7-1.5,1.7
			c-1.3,0-1.3-0.9-1.3-1.9V464h-1v-0.7h1v-1.1l0.9-0.3v1.4h1.6v0.6H-672.2z"/>
		<path class="st6" d="M-671.3,467.5h0.9v-3.6h-0.9v-0.7h1.8v1l0,0c0.2-0.8,0.8-1.1,1.5-1.1c0.2,0,0.3,0,0.4,0v0.7
			c-0.1,0-0.3-0.1-0.5-0.1c-1.3,0-1.4,1.3-1.4,2.4v1.4h1v0.7h-2.8V467.5z"/>
		<path class="st6" d="M-663.2,467.1L-663.2,467.1c-0.2,0.8-0.9,1.1-1.7,1.1c-1,0-2-0.4-2-1.6c0-1.5,1.5-1.6,2.7-1.6h1v-0.3
			c0-0.8-0.4-1.1-1.2-1.1c-0.7,0-1.2,0.1-1.3,0.9h-1c0.1-1.2,1.1-1.6,2.2-1.6c1.2,0,2.2,0.3,2.2,1.6v2.9h0.9v0.7h-1.8L-663.2,467.1
			L-663.2,467.1z M-664.8,467.6c1.1,0,1.6-0.8,1.6-1.8h-0.8c-0.6,0-1.9,0-1.9,0.9C-666,467.4-665.4,467.6-664.8,467.6z"/>
		<path class="st6" d="M-657.5,463.9h-1.6v2.9c0,0.4,0.1,0.8,0.6,0.8s0.6-0.5,0.6-0.9h0.8c0,1-0.4,1.7-1.5,1.7
			c-1.3,0-1.3-0.9-1.3-1.9V464h-1v-0.7h1v-1.1l0.9-0.3v1.4h1.6L-657.5,463.9L-657.5,463.9z"/>
		<path class="st6" d="M-656.7,467.5h0.9v-3.6h-0.9v-0.7h1.8v4.3h0.9v0.7h-2.6L-656.7,467.5L-656.7,467.5z M-654.9,462h-1v-1h1V462z
			"/>
		<path class="st6" d="M-650.8,463c1.6,0,2.6,1,2.6,2.6s-1,2.6-2.6,2.6s-2.7-1-2.7-2.6S-652.5,463-650.8,463z M-650.8,467.6
			c1.1,0,1.7-0.9,1.7-1.9s-0.5-1.9-1.7-1.9c-1.1,0-1.7,0.9-1.7,1.9S-652,467.6-650.8,467.6z"/>
		<path class="st6" d="M-647.4,467.5h0.9v-3.6h-0.9v-0.7h1.8v0.9l0,0c0.2-0.6,0.9-1,1.7-1c1.3,0,1.8,0.6,1.8,1.8v2.6h0.9v0.7h-2.6
			v-0.7h0.9v-2.4c0-0.8-0.3-1.3-1.2-1.3c-1,0-1.4,0.7-1.4,1.6v2.1h0.9v0.7h-2.6v-0.7H-647.4z"/>
		<path class="st6" d="M-640.5,468.2v-1.8h0.7c0,1,0.8,1.2,1.6,1.2c0.4,0,1-0.2,1-0.8c0-0.7-0.7-0.7-1.3-0.7c-0.9-0.2-2-0.3-2-1.4
			s1-1.6,1.9-1.6c0.6,0,1.3,0.2,1.5,0.7l0,0v-0.6h0.7v1.7h-0.7c0-0.9-0.6-1.1-1.4-1.1c-0.5,0-1.2,0.1-1.2,0.8c0,0.6,0.9,0.6,1.5,0.7
			c0.9,0.2,1.9,0.3,1.9,1.4c0,1.2-1.1,1.6-2.1,1.6c-0.6,0-1.3-0.2-1.5-0.8l0,0v0.7L-640.5,468.2L-640.5,468.2z"/>
		<path class="st6" d="M-634.6,467.1h1.1v1.1l-0.5,1.4h-0.6l0.5-1.4h-0.5V467.1z"/>
		<path class="st6" d="M-624.3,465.1h-0.7c-0.1-0.8-0.6-1.3-1.4-1.3c-1.1,0-1.6,0.9-1.6,1.9s0.6,1.9,1.6,1.9c0.7,0,1.3-0.4,1.4-1.1
			h0.8c0,1.2-1.1,1.8-2.2,1.8c-1.6,0-2.6-1-2.6-2.6s1-2.6,2.6-2.6c0.6,0,1.1,0.2,1.4,0.7l0,0v-0.6h0.7L-624.3,465.1L-624.3,465.1z"
			/>
		<path class="st6" d="M-619.8,467.1L-619.8,467.1c-0.2,0.8-0.9,1.1-1.7,1.1c-1,0-2-0.4-2-1.6c0-1.5,1.5-1.6,2.7-1.6h1v-0.3
			c0-0.8-0.4-1.1-1.2-1.1c-0.7,0-1.2,0.1-1.3,0.9h-1c0.1-1.2,1.1-1.6,2.2-1.6c1.2,0,2.2,0.3,2.2,1.6v2.9h0.9v0.7h-1.8V467.1z
			 M-621.4,467.6c1.1,0,1.6-0.8,1.6-1.8h-0.8c-0.6,0-1.9,0-1.9,0.9C-622.5,467.4-622,467.6-621.4,467.6z"/>
		<path class="st6" d="M-617.5,467.5h0.9v-3.6h-0.9v-0.7h1.8v1l0,0c0.2-0.8,0.8-1.1,1.5-1.1c0.2,0,0.3,0,0.4,0v0.7
			c-0.1,0-0.3-0.1-0.5-0.1c-1.3,0-1.4,1.3-1.4,2.4v1.4h1v0.7h-2.8V467.5z"/>
		<path class="st6" d="M-609.6,463.9h-1.6v2.9c0,0.4,0.1,0.8,0.6,0.8s0.6-0.5,0.6-0.9h0.8c0,1-0.4,1.7-1.5,1.7
			c-1.3,0-1.3-0.9-1.3-1.9V464h-1v-0.7h1v-1.1l0.9-0.3v1.4h1.6L-609.6,463.9L-609.6,463.9z"/>
		<path class="st6" d="M-605.9,463c1.6,0,2.6,1,2.6,2.6s-1,2.6-2.6,2.6c-1.6,0-2.7-1-2.7-2.6S-607.6,463-605.9,463z M-605.9,467.6
			c1.1,0,1.7-0.9,1.7-1.9s-0.5-1.9-1.7-1.9c-1.1,0-1.7,0.9-1.7,1.9S-607.1,467.6-605.9,467.6z"/>
		<path class="st6" d="M-599.8,463c1.6,0,2.6,1,2.6,2.6s-1,2.6-2.6,2.6c-1.6,0-2.7-1-2.7-2.6S-601.5,463-599.8,463z M-599.8,467.6
			c1.1,0,1.7-0.9,1.7-1.9s-0.5-1.9-1.7-1.9c-1.1,0-1.7,0.9-1.7,1.9S-601,467.6-599.8,467.6z"/>
		<path class="st6" d="M-596.4,467.5h0.9v-3.6h-0.9v-0.7h1.8v0.9l0,0c0.2-0.6,0.9-1,1.7-1c1.3,0,1.8,0.6,1.8,1.8v2.6h0.9v0.7h-2.6
			v-0.7h0.9v-2.4c0-0.8-0.3-1.3-1.2-1.3c-1,0-1.4,0.7-1.4,1.6v2.1h0.9v0.7h-2.6v-0.7H-596.4z"/>
		<path class="st6" d="M-589.5,468.2v-1.8h0.7c0,1,0.8,1.2,1.6,1.2c0.4,0,1-0.2,1-0.8c0-0.7-0.7-0.7-1.3-0.7c-0.9-0.2-2-0.3-2-1.4
			s1-1.6,1.9-1.6c0.6,0,1.3,0.2,1.5,0.7l0,0v-0.6h0.7v1.7h-0.7c0-0.9-0.6-1.1-1.4-1.1c-0.5,0-1.2,0.1-1.2,0.8c0,0.6,0.9,0.6,1.5,0.7
			c0.9,0.2,1.9,0.3,1.9,1.4c0,1.2-1.1,1.6-2.1,1.6c-0.6,0-1.3-0.2-1.5-0.8l0,0v0.7L-589.5,468.2L-589.5,468.2z"/>
		<path class="st6" d="M-583.6,467.1h1.1v1.1l-0.5,1.4h-0.6l0.5-1.4h-0.5V467.1z"/>
		<path class="st6" d="M-573.8,467.2L-573.8,467.2c-0.3,0.6-1,1.1-1.8,1.1c-1.7,0-2.4-1.1-2.4-2.6s0.9-2.6,2.4-2.6
			c0.7,0,1.5,0.4,1.8,1l0,0v-2.4h-0.9V461h1.8v6.5h0.9v0.7h-1.8V467.2z M-575.4,463.8c-1.1,0-1.7,0.8-1.7,1.9c0,1,0.5,1.9,1.7,1.9
			c1.1,0,1.6-0.9,1.6-1.9C-573.8,464.6-574.3,463.8-575.4,463.8z"/>
		<path class="st6" d="M-571.4,467.5h0.9v-3.6h-0.9v-0.7h1.8v4.3h0.9v0.7h-2.6v-0.7H-571.4z M-569.7,462h-1v-1h1V462z"/>
		<path class="st6" d="M-564.6,467.1L-564.6,467.1c-0.2,0.8-0.9,1.1-1.7,1.1c-1,0-2-0.4-2-1.6c0-1.5,1.5-1.6,2.7-1.6h1v-0.3
			c0-0.8-0.4-1.1-1.2-1.1c-0.7,0-1.2,0.1-1.3,0.9h-1c0.1-1.2,1.1-1.6,2.2-1.6c1.2,0,2.2,0.3,2.2,1.6v2.9h0.9v0.7h-1.8L-564.6,467.1
			L-564.6,467.1z M-566.1,467.6c1.1,0,1.6-0.8,1.6-1.8h-0.8c-0.6,0-1.9,0-1.9,0.9C-567.3,467.4-566.7,467.6-566.1,467.6z"/>
		<path class="st6" d="M-556.1,463.9h-0.9v2.7c0,0.8,0.1,1.8-0.3,2.5c-0.4,0.8-1.4,1-2.3,1c-1.1,0-2.4-0.2-2.4-1.5h1
			c0,0.7,0.7,0.8,1.3,0.8c1.3,0,1.7-0.5,1.7-1.8V467l0,0c-0.3,0.7-1.1,1-1.8,1c-1.5,0-2.4-1-2.4-2.6c0-1.5,0.9-2.5,2.4-2.5
			c0.8,0,1.5,0.3,1.9,1l0,0l0,0l0,0V463h1.8V463.9z M-559.5,467.4c1.1,0,1.6-0.8,1.6-1.8s-0.5-1.8-1.6-1.8c-1.2,0-1.8,0.7-1.8,1.8
			C-561.2,466.6-560.6,467.4-559.5,467.4z"/>
		<path class="st6" d="M-555.5,467.5h0.9v-3.6h-0.9v-0.7h1.8v1l0,0c0.2-0.8,0.8-1.1,1.5-1.1c0.2,0,0.3,0,0.4,0v0.7
			c-0.1,0-0.3-0.1-0.5-0.1c-1.3,0-1.4,1.3-1.4,2.4v1.4h1v0.7h-2.8V467.5z"/>
		<path class="st6" d="M-547.4,467.1L-547.4,467.1c-0.2,0.8-0.9,1.1-1.7,1.1c-1,0-2-0.4-2-1.6c0-1.5,1.5-1.6,2.7-1.6h1v-0.3
			c0-0.8-0.4-1.1-1.2-1.1c-0.7,0-1.2,0.1-1.3,0.9h-1c0.1-1.2,1.1-1.6,2.2-1.6c1.2,0,2.2,0.3,2.2,1.6v2.9h0.9v0.7h-1.8V467.1
			L-547.4,467.1z M-549,467.6c1.1,0,1.6-0.8,1.6-1.8h-0.8c-0.6,0-1.9,0-1.9,0.9C-550.1,467.4-549.6,467.6-549,467.6z"/>
		<path class="st6" d="M-545.1,467.5h0.9v-3.6h-0.9v-0.7h1.8v0.9l0,0c0.2-0.6,0.8-1,1.6-1s1.3,0.3,1.6,1c0.3-0.6,0.9-1,1.6-1
			c1.2,0,1.8,0.6,1.8,1.7v2.7h0.9v0.7h-2.6v-0.7h0.9v-2.1c0-0.8,0-1.6-1.1-1.6c-1,0-1.3,0.8-1.3,1.6v2.1h0.9v0.7h-2.6v-0.7h0.9v-2.1
			c0-0.9,0-1.6-1.1-1.6c-1,0-1.4,0.8-1.4,1.7v2.1h0.9v0.7h-2.6v-0.8H-545.1z"/>
		<path class="st6" d="M-535.1,468.2v-1.8h0.7c0,1,0.8,1.2,1.6,1.2c0.4,0,1-0.2,1-0.8c0-0.7-0.7-0.7-1.3-0.7c-0.9-0.2-2-0.3-2-1.4
			s1-1.6,1.9-1.6c0.6,0,1.3,0.2,1.5,0.7l0,0v-0.6h0.7v1.7h-0.7c0-0.9-0.6-1.1-1.4-1.1c-0.5,0-1.2,0.1-1.2,0.8c0,0.6,0.9,0.6,1.5,0.7
			c0.9,0.2,1.9,0.3,1.9,1.4c0,1.2-1.1,1.6-2.1,1.6c-0.6,0-1.3-0.2-1.5-0.8l0,0v0.7L-535.1,468.2L-535.1,468.2z"/>
		<path class="st6" d="M-529.2,467.1h1.1v1.1l-0.5,1.4h-0.6l0.5-1.4h-0.5V467.1z"/>
	</g>
	<g class="st3">
		<path class="st6" d="M-651.6,478.3h-0.7c-0.1-0.8-0.6-1.3-1.4-1.3c-1.1,0-1.6,0.9-1.6,1.9s0.6,1.9,1.6,1.9c0.7,0,1.3-0.4,1.4-1.1
			h0.8c0,1.2-1.1,1.8-2.2,1.8c-1.6,0-2.6-1-2.6-2.6s1-2.6,2.6-2.6c0.6,0,1.1,0.2,1.4,0.7l0,0v-0.6h0.7L-651.6,478.3L-651.6,478.3z"
			/>
		<path class="st6" d="M-650.8,480.7h0.9v-5.8h-0.9v-0.7h1.8v3.1l0,0c0.2-0.6,0.9-1,1.7-1c1.3,0,1.8,0.6,1.8,1.8v2.6h0.9v0.7h-2.6
			v-0.7h0.9v-2.4c0-0.8-0.3-1.3-1.2-1.3c-1,0-1.4,0.7-1.4,1.6v2.1h0.9v0.7h-2.6v-0.7H-650.8z"/>
		<path class="st6" d="M-640.4,480.3L-640.4,480.3c-0.2,0.8-0.9,1.1-1.7,1.1c-1,0-2-0.4-2-1.6c0-1.5,1.5-1.6,2.7-1.6h1v-0.3
			c0-0.8-0.4-1.1-1.2-1.1c-0.7,0-1.2,0.1-1.3,0.9h-1c0.1-1.2,1.1-1.6,2.2-1.6c1.2,0,2.2,0.3,2.2,1.6v2.9h0.9v0.7h-1.8L-640.4,480.3
			L-640.4,480.3z M-642,480.8c1.1,0,1.6-0.8,1.6-1.8h-0.8c-0.6,0-1.9,0-1.9,0.9C-643.1,480.6-642.5,480.8-642,480.8z"/>
		<path class="st6" d="M-638,480.7h0.9v-3.6h-0.9v-0.7h1.8v1l0,0c0.2-0.8,0.8-1.1,1.5-1.1c0.2,0,0.3,0,0.4,0v0.7
			c-0.1,0-0.3-0.1-0.5-0.1c-1.3,0-1.4,1.3-1.4,2.4v1.4h1v0.7h-2.8V480.7z"/>
		<path class="st6" d="M-630.1,477.1h-1.6v2.9c0,0.4,0.1,0.8,0.6,0.8s0.6-0.5,0.6-0.9h0.8c0,1-0.4,1.7-1.5,1.7
			c-1.3,0-1.3-0.9-1.3-1.9v-2.5h-1v-0.8h1v-1.1l0.9-0.3v1.4h1.6L-630.1,477.1L-630.1,477.1z"/>
		<path class="st6" d="M-629,481.4v-1.7h0.7c0,1,0.8,1.2,1.6,1.2c0.4,0,1-0.2,1-0.8c0-0.7-0.7-0.7-1.3-0.7c-0.9-0.2-2-0.3-2-1.4
			s1-1.6,1.9-1.6c0.6,0,1.3,0.2,1.5,0.7l0,0v-0.7h0.7v1.7h-0.7c0-0.9-0.6-1.1-1.4-1.1c-0.5,0-1.2,0.1-1.2,0.8c0,0.6,0.9,0.6,1.5,0.7
			c0.9,0.2,1.9,0.3,1.9,1.4c0,1.2-1.1,1.6-2.1,1.6c-0.6,0-1.3-0.2-1.5-0.8l0,0v0.7L-629,481.4L-629,481.4z"/>
		<path class="st6" d="M-616.9,480.3L-616.9,480.3c-0.2,0.8-0.9,1.1-1.7,1.1c-1,0-2-0.4-2-1.6c0-1.5,1.5-1.6,2.7-1.6h1v-0.3
			c0-0.8-0.4-1.1-1.2-1.1c-0.7,0-1.2,0.1-1.3,0.9h-1c0.1-1.2,1.1-1.6,2.2-1.6c1.2,0,2.2,0.3,2.2,1.6v2.9h0.9v0.7h-1.8L-616.9,480.3
			L-616.9,480.3z M-618.5,480.8c1.1,0,1.6-0.8,1.6-1.8h-0.8c-0.6,0-1.9,0-1.9,0.9C-619.6,480.6-619,480.8-618.5,480.8z"/>
		<path class="st6" d="M-614.5,480.7h0.9v-3.6h-0.9v-0.7h1.8v0.9l0,0c0.2-0.6,0.9-1,1.7-1c1.3,0,1.8,0.6,1.8,1.8v2.6h0.9v0.7h-2.6
			v-0.7h0.9v-2.4c0-0.8-0.3-1.3-1.2-1.3c-1,0-1.4,0.7-1.4,1.6v2.1h0.9v0.7h-2.6v-0.7H-614.5z"/>
		<path class="st6" d="M-603.5,480.4L-603.5,480.4c-0.3,0.6-1,1.1-1.8,1.1c-1.7,0-2.4-1.1-2.4-2.6s0.9-2.6,2.4-2.6
			c0.7,0,1.5,0.4,1.8,1l0,0v-2.4h-0.9v-0.7h1.8v6.5h0.9v0.7h-1.8V480.4z M-605.1,477c-1.1,0-1.7,0.8-1.7,1.9c0,1,0.5,1.9,1.7,1.9
			c1.1,0,1.6-0.9,1.6-1.9C-603.5,477.8-604,477-605.1,477z"/>
		<path class="st6" d="M-598.1,480.7h0.9v-5.8h-0.9v-0.7h1.8v6.5h0.9v0.7h-2.6L-598.1,480.7L-598.1,480.7z"/>
		<path class="st6" d="M-592.3,476.2c1.6,0,2.6,1,2.6,2.6s-1,2.6-2.6,2.6c-1.6,0-2.7-1-2.7-2.6
			C-594.9,477.2-593.9,476.2-592.3,476.2z M-592.3,480.8c1.1,0,1.7-0.9,1.7-1.9s-0.5-1.9-1.7-1.9c-1.1,0-1.7,0.9-1.7,1.9
			S-593.4,480.8-592.3,480.8z"/>
		<path class="st6" d="M-582.7,477.1h-0.9v2.7c0,0.8,0.1,1.8-0.3,2.5c-0.4,0.8-1.4,1-2.3,1c-1.1,0-2.4-0.2-2.4-1.5h1
			c0,0.7,0.7,0.8,1.3,0.8c1.3,0,1.7-0.5,1.7-1.8v-0.6l0,0c-0.3,0.7-1.1,1-1.8,1c-1.5,0-2.4-1-2.4-2.6c0-1.5,0.9-2.5,2.4-2.5
			c0.8,0,1.5,0.3,1.9,1l0,0l0,0l0,0v-0.7h1.8V477.1z M-586.2,480.6c1.1,0,1.6-0.8,1.6-1.8s-0.5-1.8-1.6-1.8c-1.2,0-1.8,0.7-1.8,1.8
			C-587.8,479.8-587.3,480.6-586.2,480.6z"/>
		<path class="st6" d="M-579.4,476.2c1.6,0,2.6,1,2.6,2.6s-1,2.6-2.6,2.6c-1.6,0-2.7-1-2.7-2.6S-581,476.2-579.4,476.2z
			 M-579.4,480.8c1.1,0,1.7-0.9,1.7-1.9s-0.5-1.9-1.7-1.9c-1.1,0-1.7,0.9-1.7,1.9S-580.5,480.8-579.4,480.8z"/>
		<path class="st6" d="M-575.8,481.4v-1.7h0.7c0,1,0.8,1.2,1.6,1.2c0.4,0,1-0.2,1-0.8c0-0.7-0.7-0.7-1.3-0.7c-0.9-0.2-2-0.3-2-1.4
			s1-1.6,1.9-1.6c0.6,0,1.3,0.2,1.5,0.7l0,0v-0.7h0.7v1.7h-0.7c0-0.9-0.6-1.1-1.4-1.1c-0.5,0-1.2,0.1-1.2,0.8c0,0.6,0.9,0.6,1.5,0.7
			c0.9,0.2,1.9,0.3,1.9,1.4c0,1.2-1.1,1.6-2.1,1.6c-0.6,0-1.3-0.2-1.5-0.8l0,0v0.7L-575.8,481.4L-575.8,481.4z"/>
		<path class="st6" d="M-569.9,480.3h1.1v1.1h-1.1V480.3z"/>
	</g>
	<g>
		<path class="st7" d="M-603.3,515.6h-14.2c-1.5,0-2.8,0.8-3.5,2.1l-7.2,13c-0.7,1.2-0.7,2.7,0,3.9l7.1,12.8c0.7,1.3,2,2.1,3.5,2.1
			h14.4c1.5,0,2.8-0.8,3.5-2.1l7.1-12.8c0.7-1.2,0.7-2.7,0-3.9l-7.2-13C-600.5,516.4-601.8,515.6-603.3,515.6z"/>
		<g>
			<g>
				<path class="st8" d="M-613.8,522.3l-1,1c-0.3,0.4-0.5,0.8-0.5,1.3s0.2,0.9,0.5,1.2l6.7,6.7l-6.7,6.7c-0.3,0.3-0.5,0.8-0.5,1.2
					c0,0.5,0.2,0.9,0.5,1.3l1,1c0.4,0.4,0.8,0.5,1.3,0.5s0.9-0.2,1.2-0.5l9-9c0.4-0.3,0.5-0.7,0.5-1.2s-0.2-0.9-0.5-1.3l-9-9
					c-0.3-0.3-0.8-0.5-1.2-0.5C-613.1,521.8-613.5,522-613.8,522.3L-613.8,522.3z"/>
			</g>
		</g>
	</g>
</g>
</svg>
