<?xml version="1.0" encoding="utf-8"?>
<!-- Generator: Adobe Illustrator 19.1.0, SVG Export Plug-In . SVG Version: 6.00 Build 0)  -->
<svg version="1.1" id="Layer_1" xmlns="http://www.w3.org/2000/svg" xmlns:xlink="http://www.w3.org/1999/xlink" x="0px" y="0px"
	 viewBox="-372 181 223.7 200" style="enable-background:new -372 181 223.7 200;" xml:space="preserve">
<style type="text/css">
	.st0{fill:#8BC53F;}
	.st1{fill:#FFFFFF;}
	.st2{fill:#ECEEEE;}
	.st3{enable-background:new    ;}
	.st4{fill:#767676;}
	.st5{fill:none;}
	.st6{fill:#231F20;}
	.st7{fill:#39A5E1;}
	.st8{fill:#EBEDED;}
</style>
<g>
	<polygon class="st0" points="-204.2,181.2 -316.1,181.2 -337.6,220 -182.7,220 	"/>
	<polygon class="st1" points="-182.7,220 -337.6,220 -372,281.9 -316.9,381 -203.4,381 -148.3,281.9 	"/>
</g>
<path class="st2" d="M-256.3,188.9c-1.3,0-2.8,1-3.4,2.7c-0.1,0-0.2,0-0.4,0c-0.1,0-0.2,0-0.4,0c-0.5-1.7-2.2-2.7-3.6-2.7
	c-1.2,0-2.1,0.8-2.3,2.1c-0.1,0.4,0.2,0.7,0.5,0.7c0.4,0.1,0.7-0.2,0.7-0.5c0.1-0.7,0.4-1,1-1c0.9,0,2.1,0.8,2.4,1.9
	c-0.2,0.1-0.4,0.3-0.5,0.4c-0.7,0.7-1.2,1.7-1.5,2.3l-0.1,0.1c-0.3,0.5-0.5,1.1-0.7,1.6c-1.2,0.7-2.4,1.5-3.3,2.4
	c-1.2,1.2-1.8,2.3-1.7,3.4c0,0.9,0.5,1.8,1.4,2.6s1.8,1,2.7,0.8c0.1,0.3,0.2,0.6,0.3,0.9c1.4,3.5,4.3,4.8,4.4,4.8l0.2,0.1l0.2-0.1
	c0.1,0,1.4-0.5,2.7-1.8c0.9-0.9,1.8-2.2,2.4-3.9l0,0c0.7,0.2,1.7,0.3,2.9-0.7c0.1-0.1,0.2-0.2,0.3-0.3c0.9-0.9,1.3-2,1-3.2
	c-0.5-1.9-2.6-3.7-4.8-5c-0.2-0.7-0.5-1.4-0.8-2.1c-0.6-1.4-1.3-2.1-2-2.6c0.3-1.1,1.3-1.8,2.1-1.8c0.5,0,0.8,0.4,0.9,1
	c0,0.4,0.4,0.6,0.7,0.6c0.1,0,0.3-0.1,0.4-0.2c0.1-0.1,0.2-0.3,0.2-0.6C-254.4,189.4-255.4,188.9-256.3,188.9z M-252.1,201.9
	c0.2,0.8-0.1,1.5-0.9,2.1s-1.3,0.6-1.6,0.5c0,0-0.1,0-0.1-0.1c-0.4-0.2-0.8-0.5-1.2-1c-0.3-0.3-0.5-0.7-0.8-1.1
	c-0.4-0.7-0.7-1.4-1.1-2.2c-0.2-0.6-0.5-1.2-0.7-1.7c-0.3-0.8-0.5-1.5-0.7-2.2l0,0c1.2,0.5,2.7,1.3,4,2.3
	C-253.6,199.6-252.4,200.8-252.1,201.9z M-267.3,203.9c-0.6-0.5-0.9-1.1-0.9-1.6c0-0.7,0.4-1.6,1.3-2.4c0.5-0.5,1.1-1,1.8-1.4
	c1.4-0.9,2.9-1.7,4-2.2l0,0c-0.2,0.6-0.4,1.3-0.7,2.2c-0.2,0.6-0.4,1.1-0.7,1.7c-0.3,0.8-0.7,1.5-1.1,2.2c-0.3,0.4-0.6,0.8-0.9,1.2
	c-0.1,0.1-0.1,0.2-0.2,0.2c-0.4,0.3-0.7,0.6-1,0.7C-266.2,204.6-266.7,204.4-267.3,203.9z M-260.4,198.4h0.5
	c0.2,0.6,0.4,1.1,0.6,1.7h-1.8C-260.8,199.6-260.6,199-260.4,198.4z M-262.1,202.3h3.8c0.3,0.6,0.7,1.2,1.1,1.7l-6.1-0.1
	C-262.8,203.5-262.4,203-262.1,202.3z M-257.8,208h-5c-0.4-0.5-0.7-1.1-1-1.7l7.1,0.1C-257,206.9-257.4,207.5-257.8,208z
	 M-257.7,195c0.1,0.2,0.2,0.4,0.3,0.6c-0.9-0.5-1.8-0.8-2.3-1c-0.1-0.1-0.2-0.1-0.4-0.1c-0.1,0-0.2,0-0.4,0.1
	c-0.6,0.2-1.3,0.5-2.2,0.9v-0.1l0.1-0.1c0.2-0.5,0.6-1.4,1.2-2c0.4-0.4,0.8-0.6,1.2-0.5C-259.1,192.8-258.3,193.6-257.7,195z"/>
<g class="st3">
	<path class="st4" d="M-339.4,244.5l3.4-8.7h2.9l3.4,8.7h-2.7l-0.6-1.7h-3.5l-0.6,1.7H-339.4z M-333.5,241.1l-1.1-3.6h0l-1.2,3.6
		H-333.5z"/>
	<path class="st4" d="M-324.4,243.6L-324.4,243.6c-0.4,0.7-1.2,1.1-2.1,1.1c-1.7,0-2.5-1.7-2.5-3.2c0-1.6,0.8-3.2,2.6-3.2
		c0.8,0,1.5,0.3,2,0.9h0v-3.3h2.3v8.7h-2.2L-324.4,243.6z M-326.6,241.5c0,0.8,0.2,1.9,1.1,1.9s1.1-1.1,1.1-1.9
		c0-0.8-0.1-1.9-1.1-1.9S-326.6,240.7-326.6,241.5z"/>
	<path class="st4" d="M-314,241.5c0,2.2-1.6,3.2-3.5,3.2s-3.5-1-3.5-3.2s1.6-3.2,3.5-3.2S-314,239.3-314,241.5z M-317.5,243.3
		c1,0,1.2-1,1.2-1.9s-0.2-1.9-1.2-1.9s-1.2,1-1.2,1.9S-318.4,243.3-317.5,243.3z"/>
	<path class="st4" d="M-312.8,235.8h2.3v3.3h0c0.4-0.5,1.2-0.8,1.8-0.8c1.8,0,2.7,1.4,2.7,3.1c0,1.8-0.8,3.3-2.8,3.3
		c-0.7,0-1.5-0.5-1.7-1.1h0l-0.1,0.9h-2.2V235.8z M-310.5,241.6c0,0.7,0.2,1.8,1,1.8c1,0,1.2-1.1,1.2-1.9c0-0.7-0.1-1.8-1.1-1.8
		C-310.4,239.6-310.5,240.8-310.5,241.6z"/>
	<path class="st4" d="M-302.9,241.9c0,0.8,0.2,1.5,1,1.5c0.6,0,1-0.3,1.1-0.9h2.1c-0.1,0.8-0.6,1.3-1.1,1.7
		c-0.5,0.3-1.2,0.5-1.9,0.5c-2.4,0-3.4-1-3.4-3.4c0-1.9,1.4-3,3.2-3c2.4,0,3.2,1.4,3.2,3.6H-302.9z M-300.8,240.7
		c0-0.3-0.1-0.6-0.3-0.9c-0.2-0.3-0.4-0.4-0.8-0.4c-0.8,0-1,0.6-1,1.3H-300.8z"/>
	<path class="st4" d="M-293.3,244.5v-8.7h4c2.1,0,3.5,0.7,3.5,2.8s-1.4,2.8-3.5,2.8h-1.6v3.1H-293.3z M-289.6,239.7
		c0.9,0,1.3-0.5,1.3-1.1s-0.4-1.1-1.3-1.1h-1.2v2.2H-289.6z"/>
	<path class="st4" d="M-284.7,244.5v-8.7h2.3v3.3c0.5-0.6,1.1-0.8,1.9-0.8c1.3,0,2.3,0.8,2.3,2.2v4h-2.3v-3.5c0-0.6-0.2-1.2-0.9-1.2
		c-1.1,0-1,1.2-1,1.3v3.5H-284.7z"/>
	<path class="st4" d="M-270,241.5c0,2.2-1.6,3.2-3.5,3.2s-3.5-1-3.5-3.2s1.6-3.2,3.5-3.2S-270,239.3-270,241.5z M-273.5,243.3
		c1,0,1.2-1,1.2-1.9s-0.2-1.9-1.2-1.9s-1.2,1-1.2,1.9S-274.4,243.3-273.5,243.3z"/>
	<path class="st4" d="M-268.1,238.5v-0.9l2.3-0.9v1.8h1.3v1.4h-1.3v2.4c0,0.2-0.1,0.9,0.4,0.9c0.3,0,0.6,0,0.9,0v1.4
		c-0.5,0.1-0.9,0.1-1.2,0.1c-1.5,0-2.5-0.2-2.4-2.1v-2.7h-1.2v-1.4H-268.1z"/>
	<path class="st4" d="M-256.6,241.5c0,2.2-1.6,3.2-3.5,3.2s-3.5-1-3.5-3.2s1.6-3.2,3.5-3.2S-256.6,239.3-256.6,241.5z M-260.1,243.3
		c1,0,1.2-1,1.2-1.9s-0.2-1.9-1.2-1.9s-1.2,1-1.2,1.9S-261.1,243.3-260.1,243.3z"/>
	<path class="st4" d="M-252.2,240.3c0-0.2,0-0.4-0.1-0.5c-0.1-0.1-0.3-0.2-0.6-0.2c-0.3,0-0.5,0.2-0.5,0.5c0,0.4,0.9,0.4,2.4,0.9
		c0.7,0.2,1.2,0.7,1.2,1.7c0,1.6-1.5,2-2.9,2c-1.5,0-2.9-0.3-2.9-2.1h2.2c0,0.2,0,0.4,0.2,0.5c0.1,0.2,0.3,0.3,0.5,0.3
		c0.4,0,0.8-0.2,0.8-0.6c0-1.1-3.6-0.4-3.6-2.6c0-1.5,1.6-1.9,2.8-1.9c1.4,0,2.7,0.4,2.8,2H-252.2z"/>
	<path class="st4" d="M-248.7,244.5v-8.7h2.3v3.3c0.5-0.6,1.1-0.8,1.9-0.8c1.3,0,2.3,0.8,2.3,2.2v4h-2.3v-3.5c0-0.6-0.2-1.2-0.9-1.2
		c-1.1,0-1,1.2-1,1.3v3.5H-248.7z"/>
	<path class="st4" d="M-234,241.5c0,2.2-1.6,3.2-3.5,3.2s-3.5-1-3.5-3.2s1.6-3.2,3.5-3.2S-234,239.3-234,241.5z M-237.5,243.3
		c1,0,1.2-1,1.2-1.9s-0.2-1.9-1.2-1.9c-1,0-1.2,1-1.2,1.9S-238.4,243.3-237.5,243.3z"/>
	<path class="st4" d="M-230.5,239.3L-230.5,239.3c0.5-0.7,1.1-1,2-1c1.8,0,2.6,1.5,2.6,3.1c0,1.8-0.9,3.3-2.8,3.3
		c-0.7,0-1.3-0.4-1.7-0.9h0v3h-2.3v-8.3h2.3V239.3z M-230.5,241.5c0,0.8,0.1,1.9,1.1,1.9c1,0,1.1-1.1,1.1-1.9s-0.1-1.9-1.1-1.9
		C-230.4,239.6-230.5,240.7-230.5,241.5z"/>
	<path class="st4" d="M-220.6,244.5v-8.7h4.1c1.6,0,3,0.7,3,2.3c0,1.1-0.9,1.7-1.9,1.9v0c1.2,0.2,2.1,0.9,2.1,2.1
		c0,2.5-3.2,2.4-3.3,2.4H-220.6z M-218.2,239.3l1.2,0c0.6,0,1.1-0.3,1.1-0.9c0-0.5-0.4-0.8-1-0.8h-1.3V239.3z M-216.8,242.8
		c0.6,0,1-0.4,1-0.9c0-0.5-0.3-0.9-0.9-1h-1.6v1.9H-216.8z"/>
	<path class="st4" d="M-208.3,244.5c0-0.2,0-0.4,0-0.8h0c-0.3,0.4-0.8,1-1.9,1c-1.4,0-2.2-0.8-2.1-2c0-1.5,1.4-2.1,3.3-2.1h0.7
		c0-0.5,0.1-1.3-0.8-1.3c-0.6,0-0.7,0.6-0.7,0.9h-2.1c0-0.9,0.4-1.3,1-1.6c0.6-0.3,1.4-0.4,2.1-0.4c1.2,0,2.7,0.5,2.7,1.9v3.1
		c0,0.3,0,0.5,0.1,1.2H-208.3z M-209.4,243.3c1,0,1.1-0.9,1.1-1.7c-0.5,0-0.9,0-1.2,0.1c-0.3,0.2-0.6,0.4-0.6,0.8
		C-210.2,243-209.9,243.3-209.4,243.3z"/>
	<path class="st4" d="M-201.5,240.3c0-0.2,0-0.4-0.1-0.5c-0.1-0.1-0.3-0.2-0.6-0.2c-0.3,0-0.5,0.2-0.5,0.5c0,0.4,0.9,0.4,2.4,0.9
		c0.7,0.2,1.2,0.7,1.2,1.7c0,1.6-1.5,2-2.9,2c-1.5,0-2.9-0.3-2.9-2.1h2.2c0,0.2,0,0.4,0.2,0.5c0.1,0.2,0.3,0.3,0.5,0.3
		c0.4,0,0.8-0.2,0.8-0.6c0-1.1-3.6-0.4-3.6-2.6c0-1.5,1.6-1.9,2.8-1.9c1.4,0,2.7,0.4,2.8,2H-201.5z"/>
	<path class="st4" d="M-197.9,237.4v-1.6h2.3v1.6H-197.9z M-197.9,244.5v-6h2.3v6H-197.9z"/>
	<path class="st4" d="M-190.2,240.6c0-0.3,0-0.5-0.2-0.7c-0.1-0.2-0.4-0.3-0.7-0.3c-0.8,0-0.9,1.2-0.9,1.9c0,0.6,0,1.9,0.9,1.9
		c0.8-0.1,0.9-0.7,0.9-1.2h2.3c0,0.9-0.4,1.5-0.9,1.9c-0.6,0.4-1.3,0.6-2.1,0.6c-2.3,0-3.3-1.1-3.3-3.2c0-2.2,1.5-3.2,3.3-3.2
		c1.5,0,3,0.6,3.1,2.3H-190.2z"/>
	<path class="st4" d="M-183.5,240.3c0-0.2,0-0.4-0.1-0.5c-0.1-0.1-0.3-0.2-0.6-0.2c-0.3,0-0.5,0.2-0.5,0.5c0,0.4,0.9,0.4,2.4,0.9
		c0.7,0.2,1.2,0.7,1.2,1.7c0,1.6-1.5,2-2.9,2c-1.5,0-2.9-0.3-2.9-2.1h2.2c0,0.2,0,0.4,0.2,0.5c0.1,0.2,0.3,0.3,0.5,0.3
		c0.4,0,0.8-0.2,0.8-0.6c0-1.1-3.6-0.4-3.6-2.6c0-1.5,1.6-1.9,2.8-1.9c1.4,0,2.7,0.4,2.8,2H-183.5z"/>
</g>
<rect x="-349.5" y="257.7" class="st5" width="174.7" height="51.1"/>
<g class="st3">
	<path class="st6" d="M-345.5,266.1h1.1v-5.8h-1.1v-0.7h3.1c1.5,0,2.9,0.3,2.9,2.1s-1.4,2.2-2.9,2.2h-1.1v2.2h1.3v0.7h-3.4V266.1z
		 M-343.5,263.2h1.1c0.9,0,1.9-0.1,1.9-1.5c0-1.4-0.9-1.4-1.9-1.4h-1.1V263.2z"/>
	<path class="st6" d="M-338.7,266.1h0.9v-5.8h-0.9v-0.7h1.8v3.1h0c0.2-0.6,0.9-1,1.7-1c1.3,0,1.8,0.6,1.8,1.8v2.6h0.9v0.7h-2.6v-0.7
		h0.9v-2.4c0-0.8-0.3-1.3-1.2-1.3c-1,0-1.4,0.7-1.4,1.6v2.1h0.9v0.7h-2.6V266.1z"/>
	<path class="st6" d="M-329.4,261.7c1.6,0,2.6,1,2.6,2.6c0,1.6-1,2.6-2.6,2.6c-1.6,0-2.7-1-2.7-2.6
		C-332,262.7-331,261.7-329.4,261.7z M-329.4,266.3c1.1,0,1.7-0.9,1.7-1.9s-0.5-1.9-1.7-1.9c-1.1,0-1.7,0.9-1.7,1.9
		S-330.5,266.3-329.4,266.3z"/>
	<path class="st6" d="M-322.6,262.5h-1.6v2.9c0,0.4,0.1,0.8,0.6,0.8c0.5,0,0.6-0.5,0.6-0.9h0.8c0,1-0.4,1.7-1.5,1.7
		c-1.3,0-1.3-0.9-1.3-1.9v-2.5h-1v-0.7h1v-1.1l0.9-0.3v1.4h1.6V262.5z"/>
	<path class="st6" d="M-319,261.7c1.6,0,2.6,1,2.6,2.6c0,1.6-1,2.6-2.6,2.6c-1.6,0-2.7-1-2.7-2.6
		C-321.6,262.7-320.6,261.7-319,261.7z M-319,266.3c1.1,0,1.7-0.9,1.7-1.9s-0.5-1.9-1.7-1.9c-1.1,0-1.7,0.9-1.7,1.9
		S-320.1,266.3-319,266.3z"/>
	<path class="st6" d="M-315.3,266.8v-1.7h0.7c0,1,0.8,1.2,1.6,1.2c0.4,0,1-0.2,1-0.8c0-0.7-0.7-0.7-1.3-0.7c-0.9-0.2-2-0.3-2-1.4
		c0-1.1,1-1.6,1.9-1.6c0.6,0,1.3,0.2,1.5,0.7h0v-0.6h0.7v1.7h-0.7c0-0.9-0.6-1.1-1.4-1.1c-0.5,0-1.2,0.1-1.2,0.8
		c0,0.6,0.9,0.6,1.5,0.7c0.9,0.2,1.9,0.3,1.9,1.4c0,1.2-1.1,1.6-2.1,1.6c-0.6,0-1.3-0.2-1.5-0.8h0v0.7H-315.3z"/>
	<path class="st6" d="M-310,266.1h0.9v-5.8h-0.9v-0.7h1.8v3.1h0c0.2-0.6,0.9-1,1.7-1c1.3,0,1.8,0.6,1.8,1.8v2.6h0.9v0.7h-2.6v-0.7
		h0.9v-2.4c0-0.8-0.3-1.3-1.2-1.3c-1,0-1.4,0.7-1.4,1.6v2.1h0.9v0.7h-2.6V266.1z"/>
	<path class="st6" d="M-300.6,261.7c1.6,0,2.6,1,2.6,2.6c0,1.6-1,2.6-2.6,2.6c-1.6,0-2.7-1-2.7-2.6
		C-303.3,262.7-302.2,261.7-300.6,261.7z M-300.6,266.3c1.1,0,1.7-0.9,1.7-1.9s-0.5-1.9-1.7-1.9c-1.1,0-1.7,0.9-1.7,1.9
		S-301.8,266.3-300.6,266.3z"/>
	<path class="st6" d="M-297.3,268h0.9v-5.4h-0.9v-0.7h1.8v1h0c0.3-0.6,0.9-1.1,1.7-1.1c1.6,0,2.5,1,2.5,2.6c0,1.6-0.9,2.6-2.5,2.6
		c-0.8,0-1.4-0.4-1.7-1.1h0v2.1h0.9v0.7h-2.7V268z M-293.8,266.3c1,0,1.5-0.8,1.5-1.9c0-1-0.5-1.9-1.5-1.9c-1.2,0-1.8,0.9-1.8,1.9
		C-295.5,265.5-295,266.3-293.8,266.3z"/>
	<path class="st6" d="M-287.5,266.1h0.9v-3.6h-0.9v-0.7h1.8v4.3h0.9v0.7h-2.6V266.1z M-285.7,260.7h-1v-1h1V260.7z"/>
	<path class="st6" d="M-284.2,266.8v-1.7h0.7c0,1,0.8,1.2,1.6,1.2c0.4,0,1-0.2,1-0.8c0-0.7-0.7-0.7-1.3-0.7c-0.9-0.2-2-0.3-2-1.4
		c0-1.1,1-1.6,1.9-1.6c0.6,0,1.3,0.2,1.5,0.7h0v-0.6h0.7v1.7h-0.7c0-0.9-0.6-1.1-1.4-1.1c-0.5,0-1.2,0.1-1.2,0.8
		c0,0.6,0.9,0.6,1.5,0.7c0.9,0.2,1.9,0.3,1.9,1.4c0,1.2-1.1,1.6-2.1,1.6c-0.6,0-1.3-0.2-1.5-0.8h0v0.7H-284.2z"/>
	<path class="st6" d="M-272.1,265.8L-272.1,265.8c-0.2,0.8-0.9,1.1-1.7,1.1c-1,0-2-0.4-2-1.6c0-1.5,1.5-1.6,2.7-1.6h1v-0.3
		c0-0.8-0.4-1.1-1.2-1.1c-0.7,0-1.2,0.1-1.3,0.9h-1c0.1-1.2,1.1-1.6,2.2-1.6c1.2,0,2.2,0.3,2.2,1.6v2.9h0.9v0.7h-1.8V265.8z
		 M-273.7,266.3c1.1,0,1.6-0.8,1.6-1.8h-0.8c-0.6,0-1.9,0-1.9,0.9C-274.8,266.1-274.2,266.3-273.7,266.3z"/>
	<path class="st6" d="M-269.6,266.1h0.9v-3.6h-0.9v-0.7h1.8v0.9h0c0.2-0.6,0.9-1,1.7-1c1.3,0,1.8,0.6,1.8,1.8v2.6h0.9v0.7h-2.6v-0.7
		h0.9v-2.4c0-0.8-0.3-1.3-1.2-1.3c-1,0-1.4,0.7-1.4,1.6v2.1h0.9v0.7h-2.6V266.1z"/>
	<path class="st6" d="M-258.8,264.6c0,1.2,0.6,1.7,1.8,1.7c0.6,0,1.4-0.3,1.4-1h0.8c0,1.2-1.3,1.7-2.4,1.7c-1.6,0-2.7-1-2.7-2.6
		c0-1.6,1-2.6,2.7-2.6c1.8,0,2.4,1.3,2.4,2.9H-258.8z M-255.6,263.9c-0.1-0.9-0.6-1.5-1.6-1.5c-0.9,0-1.6,0.5-1.6,1.5H-255.6z"/>
	<path class="st6" d="M-253.6,266.8v-1.7h0.7c0,1,0.8,1.2,1.6,1.2c0.4,0,1-0.2,1-0.8c0-0.7-0.7-0.7-1.3-0.7c-0.9-0.2-2-0.3-2-1.4
		c0-1.1,1-1.6,1.9-1.6c0.6,0,1.3,0.2,1.5,0.7h0v-0.6h0.7v1.7h-0.7c0-0.9-0.6-1.1-1.4-1.1c-0.5,0-1.2,0.1-1.2,0.8
		c0,0.6,0.9,0.6,1.5,0.7c0.9,0.2,1.9,0.3,1.9,1.4c0,1.2-1.1,1.6-2.1,1.6c-0.6,0-1.3-0.2-1.5-0.8h0v0.7H-253.6z"/>
	<path class="st6" d="M-248.1,266.8v-1.7h0.7c0,1,0.8,1.2,1.6,1.2c0.4,0,1-0.2,1-0.8c0-0.7-0.7-0.7-1.3-0.7c-0.9-0.2-2-0.3-2-1.4
		c0-1.1,1-1.6,1.9-1.6c0.6,0,1.3,0.2,1.5,0.7h0v-0.6h0.7v1.7h-0.7c0-0.9-0.6-1.1-1.4-1.1c-0.5,0-1.2,0.1-1.2,0.8
		c0,0.6,0.9,0.6,1.5,0.7c0.9,0.2,1.9,0.3,1.9,1.4c0,1.2-1.1,1.6-2.1,1.6c-0.6,0-1.3-0.2-1.5-0.8h0v0.7H-248.1z"/>
	<path class="st6" d="M-241.7,264.6c0,1.2,0.6,1.7,1.8,1.7c0.6,0,1.4-0.3,1.4-1h0.8c0,1.2-1.3,1.7-2.4,1.7c-1.6,0-2.7-1-2.7-2.6
		c0-1.6,1-2.6,2.7-2.6c1.8,0,2.4,1.3,2.4,2.9H-241.7z M-238.5,263.9c-0.1-0.9-0.6-1.5-1.6-1.5c-0.9,0-1.6,0.5-1.6,1.5H-238.5z"/>
	<path class="st6" d="M-236.6,266.1h0.9v-3.6h-0.9v-0.7h1.8v0.9h0c0.2-0.6,0.9-1,1.7-1c1.3,0,1.8,0.6,1.8,1.8v2.6h0.9v0.7h-2.6v-0.7
		h0.9v-2.4c0-0.8-0.3-1.3-1.2-1.3c-1,0-1.4,0.7-1.4,1.6v2.1h0.9v0.7h-2.6V266.1z"/>
	<path class="st6" d="M-226.6,262.5h-1.6v2.9c0,0.4,0.1,0.8,0.5,0.8c0.5,0,0.6-0.5,0.6-0.9h0.8c0,1-0.4,1.7-1.5,1.7
		c-1.3,0-1.3-0.9-1.3-1.9v-2.5h-1v-0.7h1v-1.1l0.9-0.3v1.4h1.6V262.5z"/>
	<path class="st6" d="M-225.8,266.1h0.9v-3.6h-0.9v-0.7h1.8v4.3h0.9v0.7h-2.6V266.1z M-224,260.7h-1v-1h1V260.7z"/>
	<path class="st6" d="M-218.9,265.8L-218.9,265.8c-0.2,0.8-0.9,1.1-1.7,1.1c-1,0-2-0.4-2-1.6c0-1.5,1.5-1.6,2.7-1.6h1v-0.3
		c0-0.8-0.4-1.1-1.2-1.1c-0.7,0-1.2,0.1-1.3,0.9h-1c0.1-1.2,1.1-1.6,2.2-1.6c1.2,0,2.2,0.3,2.2,1.6v2.9h0.9v0.7h-1.8V265.8z
		 M-220.5,266.3c1.1,0,1.6-0.8,1.6-1.8h-0.8c-0.6,0-1.9,0-1.9,0.9C-221.6,266.1-221,266.3-220.5,266.3z"/>
	<path class="st6" d="M-216.6,266.1h0.9v-5.8h-0.9v-0.7h1.8v6.5h0.9v0.7h-2.6V266.1z"/>
	<path class="st6" d="M-207.1,262.5h-1.6v2.9c0,0.4,0.1,0.8,0.6,0.8c0.5,0,0.6-0.5,0.6-0.9h0.8c0,1-0.4,1.7-1.5,1.7
		c-1.3,0-1.3-0.9-1.3-1.9v-2.5h-1v-0.7h1v-1.1l0.9-0.3v1.4h1.6V262.5z"/>
	<path class="st6" d="M-203.4,261.7c1.6,0,2.6,1,2.6,2.6c0,1.6-1,2.6-2.6,2.6c-1.6,0-2.7-1-2.7-2.6
		C-206.1,262.7-205,261.7-203.4,261.7z M-203.4,266.3c1.1,0,1.7-0.9,1.7-1.9s-0.5-1.9-1.7-1.9c-1.1,0-1.7,0.9-1.7,1.9
		S-204.5,266.3-203.4,266.3z"/>
	<path class="st6" d="M-197.3,261.7c1.6,0,2.6,1,2.6,2.6c0,1.6-1,2.6-2.6,2.6s-2.7-1-2.7-2.6C-200,262.7-198.9,261.7-197.3,261.7z
		 M-197.3,266.3c1.1,0,1.7-0.9,1.7-1.9s-0.5-1.9-1.7-1.9s-1.7,0.9-1.7,1.9S-198.4,266.3-197.3,266.3z"/>
	<path class="st6" d="M-194,266.1h0.9v-5.8h-0.9v-0.7h1.8v6.5h0.9v0.7h-2.6V266.1z"/>
	<path class="st6" d="M-187.8,266.1h0.9v-3.6h-0.9v-0.7h1.8v4.3h0.9v0.7h-2.6V266.1z M-186.1,260.7h-1v-1h1V260.7z"/>
	<path class="st6" d="M-184.7,266.1h0.9v-3.6h-0.9v-0.7h1.8v0.9h0c0.2-0.6,0.9-1,1.7-1c1.3,0,1.8,0.6,1.8,1.8v2.6h0.9v0.7h-2.6v-0.7
		h0.9v-2.4c0-0.8-0.3-1.3-1.2-1.3c-1,0-1.4,0.7-1.4,1.6v2.1h0.9v0.7h-2.6V266.1z"/>
</g>
<g class="st3">
	<path class="st6" d="M-341.9,275.7h-1.6v2.9c0,0.4,0.1,0.8,0.6,0.8c0.5,0,0.6-0.5,0.6-0.9h0.8c0,1-0.4,1.7-1.5,1.7
		c-1.3,0-1.3-0.9-1.3-1.9v-2.5h-1V275h1v-1.1l0.9-0.3v1.4h1.6V275.7z"/>
	<path class="st6" d="M-340.9,279.3h0.9v-5.8h-0.9v-0.7h1.8v3.1h0c0.2-0.6,0.9-1,1.7-1c1.3,0,1.8,0.6,1.8,1.8v2.6h0.9v0.7h-2.6v-0.7
		h0.9v-2.4c0-0.8-0.3-1.3-1.2-1.3c-1,0-1.4,0.7-1.4,1.6v2.1h0.9v0.7h-2.6V279.3z"/>
	<path class="st6" d="M-333.1,277.8c0,1.2,0.6,1.7,1.8,1.7c0.6,0,1.4-0.3,1.4-1h0.8c0,1.2-1.3,1.7-2.4,1.7c-1.6,0-2.7-1-2.7-2.6
		c0-1.6,1-2.6,2.7-2.6c1.8,0,2.4,1.3,2.4,2.9H-333.1z M-329.9,277.1c-0.1-0.9-0.6-1.5-1.6-1.5c-0.9,0-1.6,0.5-1.6,1.5H-329.9z"/>
	<path class="st6" d="M-320.3,276.9h-0.7c-0.1-0.8-0.6-1.3-1.4-1.3c-1.1,0-1.6,0.9-1.6,1.9s0.6,1.9,1.6,1.9c0.7,0,1.3-0.4,1.4-1.1
		h0.8c0,1.2-1.1,1.8-2.2,1.8c-1.6,0-2.6-1-2.6-2.6c0-1.6,1-2.6,2.6-2.6c0.6,0,1.1,0.2,1.4,0.7h0V275h0.7V276.9z"/>
	<path class="st6" d="M-319.5,279.3h0.9v-3.6h-0.9V275h1.8v1h0c0.2-0.8,0.8-1.1,1.5-1.1c0.2,0,0.3,0,0.4,0v0.7
		c-0.1,0-0.3-0.1-0.5-0.1c-1.3,0-1.4,1.3-1.4,2.4v1.4h1v0.7h-2.8V279.3z"/>
	<path class="st6" d="M-314.1,277.8c0,1.2,0.6,1.7,1.8,1.7c0.6,0,1.4-0.3,1.4-1h0.8c0,1.2-1.3,1.7-2.4,1.7c-1.6,0-2.7-1-2.7-2.6
		c0-1.6,1-2.6,2.7-2.6c1.8,0,2.4,1.3,2.4,2.9H-314.1z M-310.9,277.1c-0.1-0.9-0.6-1.5-1.6-1.5c-0.9,0-1.6,0.5-1.6,1.5H-310.9z"/>
	<path class="st6" d="M-305.4,279L-305.4,279c-0.2,0.8-0.9,1.1-1.7,1.1c-1,0-2-0.4-2-1.6c0-1.5,1.5-1.6,2.7-1.6h1v-0.3
		c0-0.8-0.4-1.1-1.2-1.1c-0.7,0-1.2,0.1-1.3,0.9h-1c0.1-1.2,1.1-1.6,2.2-1.6c1.2,0,2.2,0.3,2.2,1.6v2.9h0.9v0.7h-1.8V279z
		 M-307,279.5c1.1,0,1.6-0.8,1.6-1.8h-0.8c-0.6,0-1.9,0-1.9,0.9C-308.1,279.3-307.5,279.5-307,279.5z"/>
	<path class="st6" d="M-299.7,275.7h-1.6v2.9c0,0.4,0.1,0.8,0.6,0.8c0.5,0,0.6-0.5,0.6-0.9h0.8c0,1-0.4,1.7-1.5,1.7
		c-1.3,0-1.3-0.9-1.3-1.9v-2.5h-1V275h1v-1.1l0.9-0.3v1.4h1.6V275.7z"/>
	<path class="st6" d="M-298.8,279.3h0.9v-3.6h-0.9V275h1.8v4.3h0.9v0.7h-2.6V279.3z M-297,273.9h-1v-1h1V273.9z"/>
	<path class="st6" d="M-290.1,275.7h-0.6l-1.8,4.3h-1.1l-1.7-4.3h-0.6V275h2.5v0.7h-0.9l1.4,3.5l1.4-3.5h-0.9V275h2.4V275.7z"/>
	<path class="st6" d="M-288.4,277.8c0,1.2,0.6,1.7,1.8,1.7c0.6,0,1.4-0.3,1.4-1h0.8c0,1.2-1.3,1.7-2.4,1.7c-1.6,0-2.7-1-2.7-2.6
		c0-1.6,1-2.6,2.7-2.6c1.8,0,2.4,1.3,2.4,2.9H-288.4z M-285.2,277.1c-0.1-0.9-0.6-1.5-1.6-1.5c-0.9,0-1.6,0.5-1.6,1.5H-285.2z"/>
	<path class="st6" d="M-280.4,279.3h0.9v-3.6h-0.9V275h1.8v1h0c0.2-0.8,0.8-1.1,1.5-1.1c0.2,0,0.3,0,0.4,0v0.7
		c-0.1,0-0.3-0.1-0.5-0.1c-1.3,0-1.4,1.3-1.4,2.4v1.4h1v0.7h-2.8V279.3z"/>
	<path class="st6" d="M-275,277.8c0,1.2,0.6,1.7,1.8,1.7c0.6,0,1.4-0.3,1.4-1h0.8c0,1.2-1.3,1.7-2.4,1.7c-1.6,0-2.7-1-2.7-2.6
		c0-1.6,1-2.6,2.7-2.6c1.8,0,2.4,1.3,2.4,2.9H-275z M-271.8,277.1c-0.1-0.9-0.6-1.5-1.6-1.5c-0.9,0-1.6,0.5-1.6,1.5H-271.8z"/>
	<path class="st6" d="M-266.2,279L-266.2,279c-0.2,0.8-0.9,1.1-1.7,1.1c-1,0-2-0.4-2-1.6c0-1.5,1.5-1.6,2.7-1.6h1v-0.3
		c0-0.8-0.4-1.1-1.2-1.1c-0.7,0-1.2,0.1-1.3,0.9h-1c0.1-1.2,1.1-1.6,2.2-1.6c1.2,0,2.2,0.3,2.2,1.6v2.9h0.9v0.7h-1.8V279z
		 M-267.8,279.5c1.1,0,1.6-0.8,1.6-1.8h-0.8c-0.6,0-1.9,0-1.9,0.9C-268.9,279.3-268.4,279.5-267.8,279.5z"/>
	<path class="st6" d="M-263.9,279.3h0.9v-5.8h-0.9v-0.7h1.8v6.5h0.9v0.7h-2.6V279.3z"/>
	<path class="st6" d="M-260.9,279.3h0.9v-3.6h-0.9V275h1.8v0.9h0c0.2-0.6,0.8-1,1.6-1c0.8,0,1.3,0.3,1.6,1c0.3-0.6,0.9-1,1.6-1
		c1.2,0,1.8,0.6,1.8,1.7v2.7h0.9v0.7h-2.6v-0.7h0.9v-2.1c0-0.8,0-1.6-1.1-1.6c-1,0-1.3,0.8-1.3,1.6v2.1h0.9v0.7h-2.6v-0.7h0.9v-2.1
		c0-0.9,0-1.6-1.1-1.6c-1,0-1.4,0.8-1.4,1.7v2.1h0.9v0.7h-2.6V279.3z"/>
	<path class="st6" d="M-250.4,278.9h1.1v1.1h-1.1V278.9z"/>
	<path class="st6" d="M-245,279.3h1.1v-5.8h-1.1v-0.7h6.1v2.3h-0.8v-1.6h-3.2v2.5h1.6v-0.9h0.8v2.7h-0.8v-1.1h-1.6v2.6h1.3v0.7h-3.4
		V279.3z"/>
	<path class="st6" d="M-238.2,279.3h0.9v-3.6h-0.9V275h1.8v1h0c0.2-0.8,0.8-1.1,1.5-1.1c0.2,0,0.3,0,0.4,0v0.7
		c-0.1,0-0.3-0.1-0.5-0.1c-1.3,0-1.4,1.3-1.4,2.4v1.4h1v0.7h-2.8V279.3z"/>
	<path class="st6" d="M-231.2,274.9c1.6,0,2.6,1,2.6,2.6c0,1.6-1,2.6-2.6,2.6c-1.6,0-2.7-1-2.7-2.6
		C-233.9,275.9-232.8,274.9-231.2,274.9z M-231.2,279.5c1.1,0,1.7-0.9,1.7-1.9s-0.5-1.9-1.7-1.9c-1.1,0-1.7,0.9-1.7,1.9
		S-232.4,279.5-231.2,279.5z"/>
	<path class="st6" d="M-227.9,279.3h0.9v-3.6h-0.9V275h1.8v0.9h0c0.2-0.6,0.8-1,1.6-1c0.8,0,1.3,0.3,1.6,1c0.3-0.6,0.9-1,1.6-1
		c1.2,0,1.8,0.6,1.8,1.7v2.7h0.9v0.7h-2.6v-0.7h0.9v-2.1c0-0.8,0-1.6-1.1-1.6c-1,0-1.3,0.8-1.3,1.6v2.1h0.9v0.7h-2.6v-0.7h0.9v-2.1
		c0-0.9,0-1.6-1.1-1.6c-1,0-1.4,0.8-1.4,1.7v2.1h0.9v0.7h-2.6V279.3z"/>
	<path class="st6" d="M-213.8,277.8c0,1.2,0.6,1.7,1.8,1.7c0.6,0,1.4-0.3,1.4-1h0.8c0,1.2-1.3,1.7-2.4,1.7c-1.6,0-2.7-1-2.7-2.6
		c0-1.6,1-2.6,2.7-2.6c1.8,0,2.4,1.3,2.4,2.9H-213.8z M-210.6,277.1c-0.1-0.9-0.6-1.5-1.6-1.5c-0.9,0-1.6,0.5-1.6,1.5H-210.6z"/>
	<path class="st6" d="M-204.5,279.1L-204.5,279.1c-0.3,0.6-1,1.1-1.8,1.1c-1.7,0-2.4-1.1-2.4-2.6c0-1.5,0.9-2.6,2.4-2.6
		c0.7,0,1.5,0.4,1.8,1h0v-2.4h-0.9v-0.7h1.8v6.5h0.9v0.7h-1.8V279.1z M-206.1,275.6c-1.1,0-1.7,0.8-1.7,1.9c0,1,0.5,1.9,1.7,1.9
		c1.1,0,1.6-0.9,1.6-1.9C-204.5,276.5-205,275.6-206.1,275.6z"/>
	<path class="st6" d="M-202.2,279.3h0.9v-3.6h-0.9V275h1.8v4.3h0.9v0.7h-2.6V279.3z M-200.4,273.9h-1v-1h1V273.9z"/>
	<path class="st6" d="M-195.7,275.7h-1.6v2.9c0,0.4,0.1,0.8,0.6,0.8c0.5,0,0.6-0.5,0.6-0.9h0.8c0,1-0.4,1.7-1.5,1.7
		c-1.3,0-1.3-0.9-1.3-1.9v-2.5h-1V275h1v-1.1l0.9-0.3v1.4h1.6V275.7z"/>
	<path class="st6" d="M-194.9,279.3h0.9v-3.6h-0.9V275h1.8v4.3h0.9v0.7h-2.6V279.3z M-193.1,273.9h-1v-1h1V273.9z"/>
	<path class="st6" d="M-191.7,279.3h0.9v-3.6h-0.9V275h1.8v0.9h0c0.2-0.6,0.9-1,1.7-1c1.3,0,1.8,0.6,1.8,1.8v2.6h0.9v0.7h-2.6v-0.7
		h0.9v-2.4c0-0.8-0.3-1.3-1.2-1.3c-1,0-1.4,0.7-1.4,1.6v2.1h0.9v0.7h-2.6V279.3z"/>
	<path class="st6" d="M-178.9,275.7h-0.9v2.7c0,0.8,0.1,1.8-0.3,2.5c-0.4,0.8-1.4,1-2.3,1c-1.1,0-2.4-0.2-2.4-1.5h1
		c0,0.7,0.7,0.8,1.3,0.8c1.3,0,1.7-0.5,1.7-1.8v-0.6h0c-0.3,0.7-1.1,1-1.8,1c-1.5,0-2.4-1-2.4-2.6c0-1.5,0.9-2.5,2.4-2.5
		c0.8,0,1.5,0.3,1.9,1l0,0v0h0V275h1.8V275.7z M-182.3,279.3c1.1,0,1.6-0.8,1.6-1.8c0-1-0.5-1.8-1.6-1.8c-1.2,0-1.8,0.7-1.8,1.8
		C-184,278.5-183.5,279.3-182.3,279.3z"/>
</g>
<g class="st3">
	<path class="st6" d="M-331.8,294.4h0.9v-5.4h-0.9v-0.7h1.8v1h0c0.3-0.6,0.9-1.1,1.7-1.1c1.6,0,2.5,1,2.5,2.6c0,1.6-0.9,2.6-2.5,2.6
		c-0.8,0-1.4-0.4-1.7-1.1h0v2.1h0.9v0.7h-2.7V294.4z M-328.3,292.7c1,0,1.5-0.8,1.5-1.9c0-1-0.5-1.9-1.5-1.9c-1.2,0-1.8,0.9-1.8,1.9
		C-330,291.9-329.5,292.7-328.3,292.7z"/>
	<path class="st6" d="M-324.9,292.5h0.9v-5.8h-0.9V286h1.8v3.1h0c0.2-0.6,0.9-1,1.7-1c1.3,0,1.8,0.6,1.8,1.8v2.6h0.9v0.7h-2.6v-0.7
		h0.9v-2.4c0-0.8-0.3-1.3-1.2-1.3c-1,0-1.4,0.7-1.4,1.6v2.1h0.9v0.7h-2.6V292.5z"/>
	<path class="st6" d="M-315.6,288.1c1.6,0,2.6,1,2.6,2.6c0,1.6-1,2.6-2.6,2.6c-1.6,0-2.7-1-2.7-2.6
		C-318.2,289.1-317.2,288.1-315.6,288.1z M-315.6,292.7c1.1,0,1.7-0.9,1.7-1.9s-0.5-1.9-1.7-1.9c-1.1,0-1.7,0.9-1.7,1.9
		S-316.7,292.7-315.6,292.7z"/>
	<path class="st6" d="M-308.8,288.9h-1.6v2.9c0,0.4,0.1,0.8,0.6,0.8c0.5,0,0.6-0.5,0.6-0.9h0.8c0,1-0.4,1.7-1.5,1.7
		c-1.3,0-1.3-0.9-1.3-1.9v-2.5h-1v-0.7h1v-1.1l0.9-0.3v1.4h1.6V288.9z"/>
	<path class="st6" d="M-305.2,288.1c1.6,0,2.6,1,2.6,2.6c0,1.6-1,2.6-2.6,2.6c-1.6,0-2.7-1-2.7-2.6
		C-307.8,289.1-306.8,288.1-305.2,288.1z M-305.2,292.7c1.1,0,1.7-0.9,1.7-1.9s-0.5-1.9-1.7-1.9c-1.1,0-1.7,0.9-1.7,1.9
		S-306.3,292.7-305.2,292.7z"/>
	<path class="st6" d="M-301.5,293.2v-1.7h0.7c0,1,0.8,1.2,1.6,1.2c0.4,0,1-0.2,1-0.8c0-0.7-0.7-0.7-1.3-0.7c-0.9-0.2-2-0.3-2-1.4
		c0-1.1,1-1.6,1.9-1.6c0.6,0,1.3,0.2,1.5,0.7h0v-0.6h0.7v1.7h-0.7c0-0.9-0.6-1.1-1.4-1.1c-0.5,0-1.2,0.1-1.2,0.8
		c0,0.6,0.9,0.6,1.5,0.7c0.9,0.2,1.9,0.3,1.9,1.4c0,1.2-1.1,1.6-2.1,1.6c-0.6,0-1.3-0.2-1.5-0.8h0v0.7H-301.5z"/>
	<path class="st6" d="M-289.8,288.9h-1.6v2.9c0,0.4,0.1,0.8,0.6,0.8c0.5,0,0.6-0.5,0.6-0.9h0.8c0,1-0.4,1.7-1.5,1.7
		c-1.3,0-1.3-0.9-1.3-1.9v-2.5h-1v-0.7h1v-1.1l0.9-0.3v1.4h1.6V288.9z"/>
	<path class="st6" d="M-286.2,288.1c1.6,0,2.6,1,2.6,2.6c0,1.6-1,2.6-2.6,2.6c-1.6,0-2.7-1-2.7-2.6
		C-288.9,289.1-287.8,288.1-286.2,288.1z M-286.2,292.7c1.1,0,1.7-0.9,1.7-1.9s-0.5-1.9-1.7-1.9c-1.1,0-1.7,0.9-1.7,1.9
		S-287.3,292.7-286.2,292.7z"/>
	<path class="st6" d="M-279.8,292.5h0.9v-3.6h-0.9v-0.7h1.8v0.9h0c0.2-0.6,0.8-1,1.6-1c0.8,0,1.3,0.3,1.6,1c0.3-0.6,0.9-1,1.6-1
		c1.2,0,1.8,0.6,1.8,1.7v2.7h0.9v0.7h-2.6v-0.7h0.9v-2.1c0-0.8,0-1.6-1.1-1.6c-1,0-1.3,0.8-1.3,1.6v2.1h0.9v0.7h-2.6v-0.7h0.9v-2.1
		c0-0.9,0-1.6-1.1-1.6c-1,0-1.4,0.8-1.4,1.7v2.1h0.9v0.7h-2.6V292.5z"/>
	<path class="st6" d="M-266.2,292.2L-266.2,292.2c-0.2,0.8-0.9,1.1-1.7,1.1c-1,0-2-0.4-2-1.6c0-1.5,1.5-1.6,2.7-1.6h1v-0.3
		c0-0.8-0.4-1.1-1.2-1.1c-0.7,0-1.2,0.1-1.3,0.9h-1c0.1-1.2,1.1-1.6,2.2-1.6c1.2,0,2.2,0.3,2.2,1.6v2.9h0.9v0.7h-1.8V292.2z
		 M-267.8,292.7c1.1,0,1.6-0.8,1.6-1.8h-0.8c-0.6,0-1.9,0-1.9,0.9C-268.9,292.5-268.3,292.7-267.8,292.7z"/>
	<path class="st6" d="M-263.9,292.5h0.9v-5.8h-0.9V286h1.8v4.5l2-1.6v0h-0.8v-0.7h2.5v0.7h-0.7l-1.4,1.1l1.6,2.5h0.6v0.7h-2.3v-0.7
		h0.7l-1.2-1.9l-1,0.8v1.1h0.8v0.7h-2.6V292.5z"/>
	<path class="st6" d="M-257.8,292.5h0.9v-3.6h-0.9v-0.7h1.8v4.3h0.9v0.7h-2.6V292.5z M-256,287.1h-1v-1h1V287.1z"/>
	<path class="st6" d="M-254.6,292.5h0.9v-3.6h-0.9v-0.7h1.8v0.9h0c0.2-0.6,0.9-1,1.7-1c1.3,0,1.8,0.6,1.8,1.8v2.6h0.9v0.7h-2.6v-0.7
		h0.9v-2.4c0-0.8-0.3-1.3-1.2-1.3c-1,0-1.4,0.7-1.4,1.6v2.1h0.9v0.7h-2.6V292.5z"/>
	<path class="st6" d="M-241.9,288.9h-0.9v2.7c0,0.8,0.1,1.8-0.3,2.5c-0.4,0.8-1.4,1-2.3,1c-1.1,0-2.4-0.2-2.4-1.5h1
		c0,0.7,0.7,0.8,1.3,0.8c1.3,0,1.7-0.5,1.7-1.8v-0.6h0c-0.3,0.7-1.1,1-1.8,1c-1.5,0-2.4-1-2.4-2.6c0-1.5,0.9-2.5,2.4-2.5
		c0.8,0,1.5,0.3,1.9,1l0,0v0h0v-0.9h1.8V288.9z M-245.3,292.5c1.1,0,1.6-0.8,1.6-1.8c0-1-0.5-1.8-1.6-1.8c-1.2,0-1.8,0.7-1.8,1.8
		C-246.9,291.7-246.4,292.5-245.3,292.5z"/>
	<path class="st6" d="M-238.3,292.5h0.9v-5.8h-0.9V286h1.8v3.1h0c0.3-0.6,1.1-1,1.7-1c1.6,0,2.5,1,2.5,2.6c0,1.6-0.9,2.6-2.5,2.6
		c-0.7,0-1.5-0.4-1.7-1.1h0v1h-1.8V292.5z M-234.7,292.7c1,0,1.5-0.8,1.5-1.9c0-1-0.5-1.9-1.5-1.9c-1.2,0-1.8,0.9-1.8,1.9
		C-236.5,291.9-235.9,292.7-234.7,292.7z"/>
	<path class="st6" d="M-230.3,291c0,1.2,0.6,1.7,1.8,1.7c0.6,0,1.4-0.3,1.4-1h0.8c0,1.2-1.3,1.7-2.4,1.7c-1.6,0-2.7-1-2.7-2.6
		c0-1.6,1-2.6,2.7-2.6c1.8,0,2.4,1.3,2.4,2.9H-230.3z M-227.1,290.3c-0.1-0.9-0.6-1.5-1.6-1.5c-0.9,0-1.6,0.5-1.6,1.5H-227.1z"/>
	<path class="st6" d="M-221.6,292.2L-221.6,292.2c-0.2,0.8-0.9,1.1-1.7,1.1c-1,0-2-0.4-2-1.6c0-1.5,1.5-1.6,2.7-1.6h1v-0.3
		c0-0.8-0.4-1.1-1.2-1.1c-0.7,0-1.2,0.1-1.3,0.9h-1c0.1-1.2,1.1-1.6,2.2-1.6c1.2,0,2.2,0.3,2.2,1.6v2.9h0.9v0.7h-1.8V292.2z
		 M-223.2,292.7c1.1,0,1.6-0.8,1.6-1.8h-0.8c-0.6,0-1.9,0-1.9,0.9C-224.3,292.5-223.7,292.7-223.2,292.7z"/>
	<path class="st6" d="M-214.1,292.5h0.9v0.7h-1.8v-0.9h0c-0.2,0.6-0.9,1-1.6,1c-1.3,0-1.8-0.6-1.8-1.8v-2.6h-0.9v-0.7h1.8v3.1
		c0,0.8,0.3,1.3,1.2,1.3c1,0,1.4-0.7,1.4-1.6v-2.1h-0.9v-0.7h1.8V292.5z"/>
	<path class="st6" d="M-209.1,288.9h-1.6v2.9c0,0.4,0.1,0.8,0.6,0.8c0.5,0,0.6-0.5,0.6-0.9h0.8c0,1-0.4,1.7-1.5,1.7
		c-1.3,0-1.3-0.9-1.3-1.9v-2.5h-1v-0.7h1v-1.1l0.9-0.3v1.4h1.6V288.9z"/>
	<path class="st6" d="M-208.3,292.5h0.9v-3.6h-0.9v-0.7h1.8v4.3h0.9v0.7h-2.6V292.5z M-206.5,287.1h-1v-1h1V287.1z"/>
	<path class="st6" d="M-205.2,292.5h0.9v-3.6h-1v-0.7h1v-0.5c0-1.2,0.5-1.7,1.8-1.7c0.3,0,0.5,0.1,0.8,0.1v0.7
		c-0.3,0-0.6-0.1-0.9-0.1c-0.8,0-0.9,0.5-0.9,1v0.5h1.2v0.7h-1.2v3.6h1.1v0.7h-2.9V292.5z"/>
	<path class="st6" d="M-196.4,292.5h0.9v0.7h-1.8v-0.9h0c-0.2,0.6-0.9,1-1.6,1c-1.3,0-1.8-0.6-1.8-1.8v-2.6h-0.9v-0.7h1.8v3.1
		c0,0.8,0.3,1.3,1.2,1.3c1,0,1.4-0.7,1.4-1.6v-2.1h-0.9v-0.7h1.8V292.5z"/>
	<path class="st6" d="M-194.8,292.5h0.9v-5.8h-0.9V286h1.8v6.5h0.9v0.7h-2.6V292.5z"/>
</g>
<g class="st3">
	<path class="st6" d="M-337,303.3h-0.7c-0.1-0.8-0.6-1.3-1.4-1.3c-1.1,0-1.6,0.9-1.6,1.9s0.6,1.9,1.6,1.9c0.7,0,1.3-0.4,1.4-1.1h0.8
		c0,1.2-1.1,1.8-2.2,1.8c-1.6,0-2.6-1-2.6-2.6c0-1.6,1-2.6,2.6-2.6c0.6,0,1.1,0.2,1.4,0.7h0v-0.6h0.7V303.3z"/>
	<path class="st6" d="M-333.6,301.3c1.6,0,2.6,1,2.6,2.6c0,1.6-1,2.6-2.6,2.6c-1.6,0-2.7-1-2.7-2.6
		C-336.3,302.3-335.2,301.3-333.6,301.3z M-333.6,305.9c1.1,0,1.7-0.9,1.7-1.9s-0.5-1.9-1.7-1.9c-1.1,0-1.7,0.9-1.7,1.9
		S-334.7,305.9-333.6,305.9z"/>
	<path class="st6" d="M-330.2,305.7h0.9v-3.6h-0.9v-0.7h1.8v0.9h0c0.2-0.6,0.8-1,1.6-1c0.8,0,1.3,0.3,1.6,1c0.3-0.6,0.9-1,1.6-1
		c1.2,0,1.8,0.6,1.8,1.7v2.7h0.9v0.7h-2.6v-0.7h0.9v-2.1c0-0.8,0-1.6-1.1-1.6c-1,0-1.3,0.8-1.3,1.6v2.1h0.9v0.7h-2.6v-0.7h0.9v-2.1
		c0-0.9,0-1.6-1.1-1.6c-1,0-1.4,0.8-1.4,1.7v2.1h0.9v0.7h-2.6V305.7z"/>
	<path class="st6" d="M-320.5,307.6h0.9v-5.4h-0.9v-0.7h1.8v1h0c0.3-0.6,0.9-1.1,1.7-1.1c1.6,0,2.5,1,2.5,2.6c0,1.6-0.9,2.6-2.5,2.6
		c-0.8,0-1.4-0.4-1.7-1.1h0v2.1h0.9v0.7h-2.7V307.6z M-317,305.9c1,0,1.5-0.8,1.5-1.9c0-1-0.5-1.9-1.5-1.9c-1.2,0-1.8,0.9-1.8,1.9
		C-318.7,305.1-318.2,305.9-317,305.9z"/>
	<path class="st6" d="M-311,301.3c1.6,0,2.6,1,2.6,2.6c0,1.6-1,2.6-2.6,2.6c-1.6,0-2.7-1-2.7-2.6
		C-313.7,302.3-312.6,301.3-311,301.3z M-311,305.9c1.1,0,1.7-0.9,1.7-1.9s-0.5-1.9-1.7-1.9c-1.1,0-1.7,0.9-1.7,1.9
		S-312.1,305.9-311,305.9z"/>
	<path class="st6" d="M-307.3,306.4v-1.7h0.7c0,1,0.8,1.2,1.6,1.2c0.4,0,1-0.2,1-0.8c0-0.7-0.7-0.7-1.3-0.7c-0.9-0.2-2-0.3-2-1.4
		c0-1.1,1-1.6,1.9-1.6c0.6,0,1.3,0.2,1.5,0.7h0v-0.6h0.7v1.7h-0.7c0-0.9-0.6-1.1-1.4-1.1c-0.5,0-1.2,0.1-1.2,0.8
		c0,0.6,0.9,0.6,1.5,0.7c0.9,0.2,1.9,0.3,1.9,1.4c0,1.2-1.1,1.6-2.1,1.6c-0.6,0-1.3-0.2-1.5-0.8h0v0.7H-307.3z"/>
	<path class="st6" d="M-302.1,305.7h0.9v-3.6h-0.9v-0.7h1.8v4.3h0.9v0.7h-2.6V305.7z M-300.4,300.3h-1v-1h1V300.3z"/>
	<path class="st6" d="M-295.7,302.1h-1.6v2.9c0,0.4,0.1,0.8,0.6,0.8c0.5,0,0.6-0.5,0.6-0.9h0.8c0,1-0.4,1.7-1.5,1.7
		c-1.3,0-1.3-0.9-1.3-1.9v-2.5h-1v-0.7h1v-1.1l0.9-0.3v1.4h1.6V302.1z"/>
	<path class="st6" d="M-294.8,305.7h0.9v-3.6h-0.9v-0.7h1.8v4.3h0.9v0.7h-2.6V305.7z M-293,300.3h-1v-1h1V300.3z"/>
	<path class="st6" d="M-289,301.3c1.6,0,2.6,1,2.6,2.6c0,1.6-1,2.6-2.6,2.6c-1.6,0-2.7-1-2.7-2.6
		C-291.6,302.3-290.6,301.3-289,301.3z M-289,305.9c1.1,0,1.7-0.9,1.7-1.9s-0.5-1.9-1.7-1.9c-1.1,0-1.7,0.9-1.7,1.9
		S-290.1,305.9-289,305.9z"/>
	<path class="st6" d="M-285.5,305.7h0.9v-3.6h-0.9v-0.7h1.8v0.9h0c0.2-0.6,0.9-1,1.7-1c1.3,0,1.8,0.6,1.8,1.8v2.6h0.9v0.7h-2.6v-0.7
		h0.9v-2.4c0-0.8-0.3-1.3-1.2-1.3c-1,0-1.4,0.7-1.4,1.6v2.1h0.9v0.7h-2.6V305.7z"/>
	<path class="st6" d="M-278.6,306.4v-1.7h0.7c0,1,0.8,1.2,1.6,1.2c0.4,0,1-0.2,1-0.8c0-0.7-0.7-0.7-1.3-0.7c-0.9-0.2-2-0.3-2-1.4
		c0-1.1,1-1.6,1.9-1.6c0.6,0,1.3,0.2,1.5,0.7h0v-0.6h0.7v1.7h-0.7c0-0.9-0.6-1.1-1.4-1.1c-0.5,0-1.2,0.1-1.2,0.8
		c0,0.6,0.9,0.6,1.5,0.7c0.9,0.2,1.9,0.3,1.9,1.4c0,1.2-1.1,1.6-2.1,1.6c-0.6,0-1.3-0.2-1.5-0.8h0v0.7H-278.6z"/>
	<path class="st6" d="M-272.7,305.3h1.1v1.1l-0.5,1.4h-0.6l0.5-1.4h-0.5V305.3z"/>
	<path class="st6" d="M-267.3,305.7h0.9v-3.6h-0.9v-0.7h1.8v4.3h0.9v0.7h-2.6V305.7z M-265.5,300.3h-1v-1h1V300.3z"/>
	<path class="st6" d="M-260.8,302.1h-1.6v2.9c0,0.4,0.1,0.8,0.6,0.8c0.5,0,0.6-0.5,0.6-0.9h0.8c0,1-0.4,1.7-1.5,1.7
		c-1.3,0-1.3-0.9-1.3-1.9v-2.5h-1v-0.7h1v-1.1l0.9-0.3v1.4h1.6V302.1z"/>
	<path class="st6" d="M-256.9,305.7h0.9v-3.6h-0.9v-0.7h1.8v4.3h0.9v0.7h-2.6V305.7z M-255.1,300.3h-1v-1h1V300.3z"/>
	<path class="st6" d="M-253.5,306.4v-1.7h0.7c0,1,0.8,1.2,1.6,1.2c0.4,0,1-0.2,1-0.8c0-0.7-0.7-0.7-1.3-0.7c-0.9-0.2-2-0.3-2-1.4
		c0-1.1,1-1.6,1.9-1.6c0.6,0,1.3,0.2,1.5,0.7h0v-0.6h0.7v1.7h-0.7c0-0.9-0.6-1.1-1.4-1.1c-0.5,0-1.2,0.1-1.2,0.8
		c0,0.6,0.9,0.6,1.5,0.7c0.9,0.2,1.9,0.3,1.9,1.4c0,1.2-1.1,1.6-2.1,1.6c-0.6,0-1.3-0.2-1.5-0.8h0v0.7H-253.5z"/>
	<path class="st6" d="M-241.5,305.4L-241.5,305.4c-0.2,0.8-0.9,1.1-1.7,1.1c-1,0-2-0.4-2-1.6c0-1.5,1.5-1.6,2.7-1.6h1v-0.3
		c0-0.8-0.4-1.1-1.2-1.1c-0.7,0-1.2,0.1-1.3,0.9h-1c0.1-1.2,1.1-1.6,2.2-1.6c1.2,0,2.2,0.3,2.2,1.6v2.9h0.9v0.7h-1.8V305.4z
		 M-243.1,305.9c1.1,0,1.6-0.8,1.6-1.8h-0.8c-0.6,0-1.9,0-1.9,0.9C-244.2,305.7-243.6,305.9-243.1,305.9z"/>
	<path class="st6" d="M-229.9,302.1h-0.9v2.7c0,0.8,0.1,1.8-0.3,2.5c-0.4,0.8-1.4,1-2.3,1c-1.1,0-2.4-0.2-2.4-1.5h1
		c0,0.7,0.7,0.8,1.3,0.8c1.3,0,1.7-0.5,1.7-1.8v-0.6h0c-0.3,0.7-1.1,1-1.8,1c-1.5,0-2.4-1-2.4-2.6c0-1.5,0.9-2.5,2.4-2.5
		c0.8,0,1.5,0.3,1.9,1l0,0v0h0v-0.9h1.8V302.1z M-233.4,305.7c1.1,0,1.6-0.8,1.6-1.8c0-1-0.5-1.8-1.6-1.8c-1.2,0-1.8,0.7-1.8,1.8
		C-235,304.9-234.5,305.7-233.4,305.7z"/>
	<path class="st6" d="M-229.3,305.7h0.9v-3.6h-0.9v-0.7h1.8v1h0c0.2-0.8,0.8-1.1,1.5-1.1c0.2,0,0.3,0,0.4,0v0.7
		c-0.1,0-0.3-0.1-0.5-0.1c-1.3,0-1.4,1.3-1.4,2.4v1.4h1v0.7h-2.8V305.7z"/>
	<path class="st6" d="M-223.9,304.2c0,1.2,0.6,1.7,1.8,1.7c0.6,0,1.4-0.3,1.4-1h0.8c0,1.2-1.3,1.7-2.4,1.7c-1.6,0-2.7-1-2.7-2.6
		c0-1.6,1-2.6,2.7-2.6c1.8,0,2.4,1.3,2.4,2.9H-223.9z M-220.7,303.5c-0.1-0.9-0.6-1.5-1.6-1.5c-0.9,0-1.6,0.5-1.6,1.5H-220.7z"/>
	<path class="st6" d="M-215.2,305.4L-215.2,305.4c-0.2,0.8-0.9,1.1-1.7,1.1c-1,0-2-0.4-2-1.6c0-1.5,1.5-1.6,2.7-1.6h1v-0.3
		c0-0.8-0.4-1.1-1.2-1.1c-0.7,0-1.2,0.1-1.3,0.9h-1c0.1-1.2,1.1-1.6,2.2-1.6c1.2,0,2.2,0.3,2.2,1.6v2.9h0.9v0.7h-1.8V305.4z
		 M-216.8,305.9c1.1,0,1.6-0.8,1.6-1.8h-0.8c-0.6,0-1.9,0-1.9,0.9C-217.9,305.7-217.3,305.9-216.8,305.9z"/>
	<path class="st6" d="M-209.5,302.1h-1.6v2.9c0,0.4,0.1,0.8,0.6,0.8c0.5,0,0.6-0.5,0.6-0.9h0.8c0,1-0.4,1.7-1.5,1.7
		c-1.3,0-1.3-0.9-1.3-1.9v-2.5h-1v-0.7h1v-1.1l0.9-0.3v1.4h1.6V302.1z"/>
	<path class="st6" d="M-202.1,302.1h-1.6v2.9c0,0.4,0.1,0.8,0.6,0.8c0.5,0,0.6-0.5,0.6-0.9h0.8c0,1-0.4,1.7-1.5,1.7
		c-1.3,0-1.3-0.9-1.3-1.9v-2.5h-1v-0.7h1v-1.1l0.9-0.3v1.4h1.6V302.1z"/>
	<path class="st6" d="M-198.5,301.3c1.6,0,2.6,1,2.6,2.6c0,1.6-1,2.6-2.6,2.6s-2.7-1-2.7-2.6C-201.2,302.3-200.1,301.3-198.5,301.3z
		 M-198.5,305.9c1.1,0,1.7-0.9,1.7-1.9s-0.5-1.9-1.7-1.9s-1.7,0.9-1.7,1.9S-199.6,305.9-198.5,305.9z"/>
	<path class="st6" d="M-192.4,301.3c1.6,0,2.6,1,2.6,2.6c0,1.6-1,2.6-2.6,2.6c-1.6,0-2.7-1-2.7-2.6
		C-195,302.3-194,301.3-192.4,301.3z M-192.4,305.9c1.1,0,1.7-0.9,1.7-1.9s-0.5-1.9-1.7-1.9c-1.1,0-1.7,0.9-1.7,1.9
		S-193.5,305.9-192.4,305.9z"/>
	<path class="st6" d="M-189,305.7h0.9V300h-0.9v-0.7h1.8v6.5h0.9v0.7h-2.6V305.7z"/>
	<path class="st6" d="M-183.8,304.7h-0.7l-0.2-5.5h1.1L-183.8,304.7z M-184.6,305.4h1v1h-1V305.4z"/>
</g>
<g>
	<path class="st0" d="M-288.6,370.3c-7.2,0-13-5.8-13-13s5.8-13,13-13s13,5.8,13,13C-275.5,364.4-281.4,370.3-288.6,370.3z
		 M-288.6,347c-5.7,0-10.3,4.6-10.3,10.3c0,5.7,4.6,10.3,10.3,10.3c5.7,0,10.3-4.6,10.3-10.3S-282.9,347-288.6,347z"/>
	<g>
		<path class="st0" d="M-290.7,351.7c0-1.2,1-2.2,2.1-2.2c1.2,0,2.2,0.9,2.2,2.1s-0.9,2.2-2.2,2.2
			C-289.8,353.9-290.7,353-290.7,351.7z M-290.4,364.9v-10h3.7v10H-290.4z"/>
	</g>
</g>
<g>
	<path class="st7" d="M-229.3,342.5h-12.9c-1.1,0-2.1,0.6-2.7,1.6l-6.5,11.8c-0.5,0.9-0.5,2,0,3l6.4,11.6c0.5,1,1.6,1.6,2.7,1.6
		h13.1c1.1,0,2.1-0.6,2.7-1.6l6.4-11.6c0.5-0.9,0.5-2,0-3l-6.5-11.8C-227.2,343.1-228.2,342.5-229.3,342.5z"/>
	<g>
		<g>
			<path class="st8" d="M-238.8,348.4l-0.9,0.9c-0.3,0.3-0.4,0.7-0.4,1.1s0.1,0.8,0.4,1.1l5.9,5.9l-5.9,5.9
				c-0.3,0.3-0.4,0.7-0.4,1.1s0.1,0.8,0.4,1.1l0.9,0.9c0.3,0.3,0.7,0.5,1.1,0.5c0.4,0,0.8-0.2,1.1-0.5l7.8-7.8
				c0.3-0.3,0.5-0.7,0.5-1.1s-0.2-0.8-0.5-1.1l-7.8-7.8c-0.3-0.3-0.7-0.4-1.1-0.4C-238.1,347.9-238.5,348.1-238.8,348.4
				L-238.8,348.4z"/>
		</g>
	</g>
</g>
<g class="st3">
	<path class="st0" d="M-299.4,327.2v-1c2.4-3.4,3.2-4,3.2-5.5c0-0.7-0.3-1.1-1-1.1c-0.8,0-1,0.7-1,1.4h-1.1c-0.1-1.4,0.6-2.3,2-2.3
		c1.5,0,2.2,0.7,2.2,2.2c0,1.9-0.9,2.5-3.1,5.3h3.3v1H-299.4z"/>
	<path class="st0" d="M-290,327.2h-1v-8.7h1v3.2h0c0.3-0.5,0.8-0.7,1.3-0.7c2,0,2,1.7,2,3.2c0,2.7-1,3-2,3c-0.6,0-1.1-0.3-1.4-0.8h0
		V327.2z M-288.9,326.5c1.2,0,1.2-1.3,1.2-2.2c0-1.6-0.1-2.5-1.2-2.5c-1.1,0-1.1,1.3-1.1,2.1C-290,324.8-290.1,326.5-288.9,326.5z"
		/>
	<path class="st0" d="M-282,326.3L-282,326.3c-0.3,0.7-0.8,1-1.5,1c-1.3,0-1.7-0.8-1.7-2c0-1.8,1.8-1.9,3.2-1.9c0-0.8,0-1.7-1-1.7
		c-0.7,0-1,0.4-0.9,1.1h-1.1c0-1.4,0.8-1.8,2.1-1.8c1.6,0,2,0.8,2,1.8v2.9c0,0.5,0,1,0.1,1.4h-1.1V326.3z M-284.2,325.4
		c0,0.6,0.3,1.1,0.9,1.1c0.6,0,1.3-0.4,1.2-2.3C-282.9,324.2-284.2,324.1-284.2,325.4z"/>
	<path class="st0" d="M-275.9,318.5h1v8.7h-1v-0.7h0c-0.3,0.6-0.8,0.8-1.4,0.8c-1,0-2-0.4-2-3c0-1.5,0-3.2,2-3.2
		c0.6,0,1,0.3,1.3,0.7h0V318.5z M-277,321.8c-1.1,0-1.2,0.8-1.2,2.5c0,0.9,0,2.2,1.2,2.2c1.1,0,1.1-1.4,1.1-2.6
		C-275.9,323.1-276,321.8-277,321.8z"/>
	<path class="st0" d="M-269.9,321.1h1v6.7c0,1.4-0.9,1.7-2.2,1.7c-1,0-1.9-0.5-1.8-1.6h1.1c0,0.6,0.4,0.9,0.9,0.9
		c0.7,0,1.1-0.4,1.1-1v-1.3h0c-0.3,0.5-0.8,0.8-1.3,0.8c-1.6,0-2-1.4-2-3.2c0-2.8,1.4-3,1.9-3c0.6,0,1.1,0.3,1.4,0.9h0V321.1z
		 M-271.1,321.8c-1.1,0-1.2,1.3-1.2,2.1c0,1.9,0.4,2.4,1.2,2.4c1.2,0,1.2-1.4,1.2-2.2C-269.9,323.2-269.8,321.8-271.1,321.8z"/>
	<path class="st0" d="M-266.1,324.5c0,1.7,0.5,2,1.2,2c0.7,0,1-0.5,1.1-1.2h1.1c0,1.3-0.8,2-2.1,2c-1.3,0-2.3-0.4-2.3-3.1
		c0-1.8,0.2-3.2,2.3-3.2c1.7,0,2.2,0.9,2.2,3v0.5H-266.1z M-263.8,323.7c0-1.8-0.5-2-1.2-2c-0.6,0-1.1,0.3-1.2,2H-263.8z"/>
	<path class="st0" d="M-259.3,327.3c-1.3,0-2.1-0.6-2.1-2h1.1c0,0.3,0,1.2,1,1.2c0.6,0,1-0.3,1-0.9c0-1.1-3-1.1-3-2.9
		c0-0.6,0.4-1.7,2.1-1.7c1.1,0,2,0.5,1.9,1.7h-1.1c0-0.6-0.3-1-0.9-1c-0.5,0-0.9,0.3-0.9,0.8c0,1.1,3,1,3,2.9
		C-257.2,326.8-258.1,327.3-259.3,327.3z"/>
	<path class="st0" d="M-252.2,324.5c0,1.7,0.5,2,1.2,2c0.7,0,1-0.5,1.1-1.2h1.1c0,1.3-0.8,2-2.1,2c-1.3,0-2.3-0.4-2.3-3.1
		c0-1.8,0.2-3.2,2.3-3.2c1.7,0,2.2,0.9,2.2,3v0.5H-252.2z M-249.8,323.7c0-1.8-0.5-2-1.2-2c-0.6,0-1.1,0.3-1.2,2H-249.8z"/>
	<path class="st0" d="M-244,326.3L-244,326.3c-0.3,0.7-0.8,1-1.5,1c-1.3,0-1.7-0.8-1.7-2c0-1.8,1.8-1.9,3.2-1.9c0-0.8,0-1.7-1-1.7
		c-0.7,0-1,0.4-0.9,1.1h-1.1c0-1.4,0.8-1.8,2.1-1.8c1.6,0,2,0.8,2,1.8v2.9c0,0.5,0,1,0.1,1.4h-1.1V326.3z M-246.2,325.4
		c0,0.6,0.3,1.1,0.9,1.1c0.6,0,1.3-0.4,1.2-2.3C-245,324.2-246.2,324.1-246.2,325.4z"/>
	<path class="st0" d="M-240.1,322L-240.1,322c0.4-0.9,0.9-1,1.9-1v1c-0.2,0-0.3-0.1-0.5-0.1c-1.1,0-1.4,0.8-1.4,1.6v3.6h-1v-6.1h1
		V322z"/>
	<path class="st0" d="M-233.8,327.2V323c0-0.6-0.2-1.2-1.1-1.2c-1.1,0-1.2,1-1.2,1.8v3.6h-1v-4.8c0-0.4,0-0.8-0.1-1.3h1v0.8h0
		c0.4-0.7,0.8-0.9,1.6-0.9c1.3,0,1.6,0.8,1.6,2v4.2H-233.8z"/>
	<path class="st0" d="M-230.2,324.5c0,1.7,0.5,2,1.2,2c0.7,0,1-0.5,1.1-1.2h1.1c0,1.3-0.8,2-2.1,2c-1.3,0-2.3-0.4-2.3-3.1
		c0-1.8,0.2-3.2,2.3-3.2c1.7,0,2.2,0.9,2.2,3v0.5H-230.2z M-227.8,323.7c0-1.8-0.5-2-1.2-2c-0.6,0-1.1,0.3-1.2,2H-227.8z"/>
	<path class="st0" d="M-221.9,318.5h1v8.7h-1v-0.7h0c-0.3,0.6-0.8,0.8-1.4,0.8c-1,0-2-0.4-2-3c0-1.5,0-3.2,2-3.2
		c0.6,0,1,0.3,1.3,0.7h0V318.5z M-223.1,321.8c-1.1,0-1.2,0.8-1.2,2.5c0,0.9,0,2.2,1.2,2.2c1.1,0,1.1-1.4,1.1-2.6
		C-221.9,323.1-222,321.8-223.1,321.8z"/>
</g>
<g>
	<polygon class="st0" points="-204.2,181 -316.1,181 -337.6,219.7 -182.7,219.7 	"/>
	<polygon class="st1" points="-182.7,219.7 -337.6,219.7 -372,281.6 -316.9,380.7 -203.4,380.7 -148.3,281.6 	"/>
</g>
<path class="st2" d="M-256.3,188.6c-1.3,0-2.8,1-3.4,2.7c-0.1,0-0.2,0-0.4,0c-0.1,0-0.2,0-0.4,0c-0.5-1.7-2.2-2.7-3.6-2.7
	c-1.2,0-2.1,0.8-2.3,2.1c-0.1,0.4,0.2,0.7,0.5,0.7c0.4,0.1,0.7-0.2,0.7-0.5c0.1-0.7,0.4-1,1-1c0.9,0,2.1,0.8,2.4,1.9
	c-0.2,0.1-0.4,0.3-0.5,0.4c-0.7,0.7-1.2,1.7-1.5,2.3l-0.1,0.1c-0.3,0.5-0.5,1.1-0.7,1.6c-1.2,0.7-2.4,1.5-3.3,2.4
	c-1.2,1.2-1.8,2.3-1.7,3.4c0,0.9,0.5,1.8,1.4,2.6s1.8,1,2.7,0.8c0.1,0.3,0.2,0.6,0.3,0.9c1.4,3.5,4.3,4.8,4.4,4.8l0.2,0.1l0.2-0.1
	c0.1,0,1.4-0.5,2.7-1.8c0.9-0.9,1.8-2.2,2.4-3.9l0,0c0.7,0.2,1.7,0.3,2.9-0.7c0.1-0.1,0.2-0.2,0.3-0.3c0.9-0.9,1.3-2,1-3.2
	c-0.5-1.9-2.6-3.7-4.8-5c-0.2-0.7-0.5-1.4-0.8-2.1c-0.6-1.4-1.3-2.1-2-2.6c0.3-1.1,1.3-1.8,2.1-1.8c0.5,0,0.8,0.4,0.9,1
	c0,0.4,0.4,0.6,0.7,0.6c0.1,0,0.3-0.1,0.4-0.2c0.1-0.1,0.2-0.3,0.2-0.6C-254.4,189.2-255.4,188.6-256.3,188.6z M-252.1,201.6
	c0.2,0.8-0.1,1.5-0.9,2.1s-1.3,0.6-1.6,0.5c0,0-0.1,0-0.1-0.1c-0.4-0.2-0.8-0.5-1.2-1c-0.3-0.3-0.5-0.7-0.8-1.1
	c-0.4-0.7-0.7-1.4-1.1-2.2c-0.2-0.6-0.5-1.2-0.7-1.7c-0.3-0.8-0.5-1.5-0.7-2.2l0,0c1.2,0.5,2.7,1.3,4,2.3
	C-253.6,199.3-252.4,200.5-252.1,201.6z M-267.3,203.6c-0.6-0.5-0.9-1.1-0.9-1.6c0-0.7,0.4-1.6,1.3-2.4c0.5-0.5,1.1-1,1.8-1.4
	c1.4-0.9,2.9-1.7,4-2.2l0,0c-0.2,0.6-0.4,1.3-0.7,2.2c-0.2,0.6-0.4,1.1-0.7,1.7c-0.3,0.8-0.7,1.5-1.1,2.2c-0.3,0.4-0.6,0.8-0.9,1.2
	c-0.1,0.1-0.1,0.2-0.2,0.2c-0.4,0.3-0.7,0.6-1,0.7C-266.2,204.3-266.7,204.1-267.3,203.6z M-260.4,198.2h0.5
	c0.2,0.6,0.4,1.1,0.6,1.7h-1.8C-260.8,199.3-260.6,198.7-260.4,198.2z M-262.1,202h3.8c0.3,0.6,0.7,1.2,1.1,1.7l-6.1-0.1
	C-262.8,203.3-262.4,202.7-262.1,202z M-257.8,207.7h-5c-0.4-0.5-0.7-1.1-1-1.7l7.1,0.1C-257,206.7-257.4,207.2-257.8,207.7z
	 M-257.7,194.8c0.1,0.2,0.2,0.4,0.3,0.6c-0.9-0.5-1.8-0.8-2.3-1c-0.1-0.1-0.2-0.1-0.4-0.1c-0.1,0-0.2,0-0.4,0.1
	c-0.6,0.2-1.3,0.5-2.2,0.9v-0.1l0.1-0.1c0.2-0.5,0.6-1.4,1.2-2c0.4-0.4,0.8-0.6,1.2-0.5C-259.1,192.5-258.3,193.3-257.7,194.8z"/>
<g class="st3">
	<path class="st4" d="M-305.1,244.2v-8.4h2.3v6.8h3.8v1.6H-305.1z"/>
	<path class="st4" d="M-294.4,244.2c0-0.2,0-0.4,0-0.8h0c-0.3,0.4-0.8,1-1.9,1c-1.4,0-2.1-0.7-2.1-1.9c0-1.4,1.3-2,3.2-2h0.7
		c0-0.5,0.1-1.3-0.8-1.2c-0.5,0-0.7,0.5-0.7,0.9h-2.1c0-0.8,0.4-1.3,1-1.6c0.6-0.3,1.4-0.3,2-0.3c1.2,0,2.6,0.5,2.6,1.8v3
		c0,0.2,0,0.5,0.1,1.2H-294.4z M-295.6,243.1c1,0,1-0.9,1-1.7c-0.5,0-0.9,0-1.2,0.1c-0.3,0.2-0.6,0.4-0.6,0.8
		C-296.3,242.8-296,243.1-295.6,243.1z"/>
	<path class="st4" d="M-284.8,238.4l-3.2,8.1h-2l0.8-2.1l-2.4-6h2.4l1.1,4.1h0l1.3-4.1H-284.8z"/>
	<path class="st4" d="M-282.2,241.7c0,0.8,0.2,1.4,1,1.4c0.6,0,1-0.3,1.1-0.8h2c-0.1,0.8-0.5,1.3-1.1,1.6c-0.5,0.3-1.2,0.5-1.8,0.5
		c-2.3,0-3.3-1-3.3-3.3c0-1.8,1.4-2.9,3.1-2.9c2.4,0,3.1,1.4,3.1,3.5H-282.2z M-280.1,240.5c0-0.3-0.1-0.6-0.3-0.9
		c-0.2-0.2-0.4-0.4-0.8-0.4c-0.8,0-1,0.6-1,1.2H-280.1z"/>
	<path class="st4" d="M-274.6,239.5L-274.6,239.5c0.3-1,1-1.3,2-1.3v1.9c-0.2,0-0.3,0-0.5,0c-1.1,0-1.5,0.7-1.5,1.8v2.3h-2.2v-4.3
		c0-0.5,0-0.9-0.1-1.5h2.2L-274.6,239.5z"/>
	<path class="st4" d="M-268.6,240.2c0-0.2,0-0.4-0.1-0.5c-0.1-0.1-0.3-0.2-0.6-0.2c-0.3,0-0.5,0.2-0.5,0.5c0,0.4,0.9,0.4,2.3,0.8
		c0.7,0.2,1.2,0.7,1.2,1.6c0,1.5-1.5,1.9-2.8,1.9c-1.4,0-2.8-0.3-2.8-2.1h2.1c0,0.2,0,0.4,0.2,0.5c0.1,0.2,0.3,0.3,0.5,0.3
		c0.4,0,0.7-0.2,0.7-0.5c0-1-3.4-0.4-3.4-2.5c0-1.4,1.5-1.8,2.7-1.8c1.4,0,2.7,0.4,2.8,2H-268.6z"/>
	<path class="st4" d="M-255.2,243.7c-0.9,0.5-1.9,0.7-2.9,0.7c-1.6,0-3.4-0.6-3.4-2.5c0-1.2,1-1.9,2-2.3c-0.6-0.5-1.2-1.2-1.2-2
		c0-1.5,1.9-2,3.1-2c1.5,0,3.3,0.4,3.3,2.1c0,1-1,1.7-1.7,2.2l1.2,1.2c0.3-0.5,0.6-1,0.6-1.5h2c-0.1,0.8-0.6,2.3-1.3,2.8l1.7,1.8
		h-2.8L-255.2,243.7z M-258.1,240.9c-0.6,0.3-1,0.5-1,1.2c0,0.5,0.8,0.8,1.3,0.8c0.4,0,1-0.1,1.3-0.4L-258.1,240.9z M-256.7,237.6
		c0-0.5-0.4-0.7-0.9-0.7c-0.3,0-0.8,0.2-0.8,0.7c0,0.3,0.6,0.8,0.8,1C-257.3,238.5-256.7,238-256.7,237.6z"/>
	<path class="st4" d="M-247.2,244.2v-8.4h3.7l1.4,5.7h0l1.3-5.7h3.6v8.4h-2v-7l0,0l-2,7h-2.1l-1.8-7.1l0,0v7.1H-247.2z"/>
	<path class="st4" d="M-231.9,244.2c0-0.2,0-0.4,0-0.8h0c-0.3,0.4-0.8,1-1.9,1c-1.4,0-2.1-0.7-2.1-1.9c0-1.4,1.3-2,3.2-2h0.7
		c0-0.5,0.1-1.3-0.8-1.2c-0.5,0-0.7,0.5-0.7,0.9h-2.1c0-0.8,0.4-1.3,1-1.6c0.6-0.3,1.4-0.3,2-0.3c1.2,0,2.6,0.5,2.6,1.8v3
		c0,0.2,0,0.5,0.1,1.2H-231.9z M-233,243.1c1,0,1-0.9,1-1.7c-0.5,0-0.9,0-1.2,0.1c-0.3,0.2-0.6,0.4-0.6,0.8
		C-233.8,242.8-233.4,243.1-233,243.1z"/>
	<path class="st4" d="M-225.4,240.2c0-0.2,0-0.4-0.1-0.5c-0.1-0.1-0.3-0.2-0.6-0.2c-0.3,0-0.5,0.2-0.5,0.5c0,0.4,0.9,0.4,2.3,0.8
		c0.7,0.2,1.2,0.7,1.2,1.6c0,1.5-1.5,1.9-2.8,1.9c-1.4,0-2.8-0.3-2.8-2.1h2.1c0,0.2,0,0.4,0.2,0.5c0.1,0.2,0.3,0.3,0.5,0.3
		c0.4,0,0.7-0.2,0.7-0.5c0-1-3.4-0.4-3.4-2.5c0-1.4,1.5-1.8,2.7-1.8c1.4,0,2.7,0.4,2.8,2H-225.4z"/>
	<path class="st4" d="M-222,244.2v-8.4h2.2v8.4H-222z M-219.7,241l2-2.6h2.4l-2,2.5l2.3,3.4h-2.6L-219.7,241z"/>
	<path class="st4" d="M-211.2,240.2c0-0.2,0-0.4-0.1-0.5c-0.1-0.1-0.3-0.2-0.6-0.2c-0.3,0-0.5,0.2-0.5,0.5c0,0.4,0.9,0.4,2.3,0.8
		c0.7,0.2,1.2,0.7,1.2,1.6c0,1.5-1.5,1.9-2.8,1.9c-1.4,0-2.8-0.3-2.8-2.1h2.1c0,0.2,0,0.4,0.2,0.5c0.1,0.2,0.3,0.3,0.5,0.3
		c0.4,0,0.7-0.2,0.7-0.5c0-1-3.4-0.4-3.4-2.5c0-1.4,1.5-1.8,2.7-1.8c1.4,0,2.7,0.4,2.8,2H-211.2z"/>
</g>
<rect x="-349.5" y="256.3" class="st5" width="174.7" height="51.1"/>
<g class="st3">
	<path class="st6" d="M-345.6,264.7h1.1v-5.8h-1.1v-0.7h3.2v0.7h-1.1v5.8h1.1v0.7h-3.2V264.7z"/>
	<path class="st6" d="M-337.1,262.3h-0.7c-0.1-0.8-0.6-1.3-1.4-1.3c-1.1,0-1.6,0.9-1.6,1.9s0.6,1.9,1.6,1.9c0.7,0,1.3-0.4,1.4-1.1
		h0.8c0,1.2-1.1,1.8-2.2,1.8c-1.6,0-2.6-1-2.6-2.6c0-1.6,1-2.6,2.6-2.6c0.6,0,1.1,0.2,1.4,0.7h0v-0.6h0.7V262.3z"/>
	<path class="st6" d="M-333.6,260.3c1.6,0,2.6,1,2.6,2.6c0,1.6-1,2.6-2.6,2.6c-1.6,0-2.7-1-2.7-2.6
		C-336.3,261.3-335.3,260.3-333.6,260.3z M-333.6,264.8c1.1,0,1.7-0.9,1.7-1.9s-0.5-1.9-1.7-1.9c-1.1,0-1.7,0.9-1.7,1.9
		S-334.8,264.8-333.6,264.8z"/>
	<path class="st6" d="M-330.2,264.7h0.9v-3.6h-0.9v-0.7h1.8v0.9h0c0.2-0.6,0.9-1,1.7-1c1.3,0,1.8,0.6,1.8,1.8v2.6h0.9v0.7h-2.6v-0.7
		h0.9v-2.4c0-0.8-0.3-1.3-1.2-1.3c-1,0-1.4,0.7-1.4,1.6v2.1h0.9v0.7h-2.6V264.7z"/>
	<path class="st6" d="M-323.3,265.4v-1.7h0.7c0,1,0.8,1.2,1.6,1.2c0.4,0,1-0.2,1-0.8c0-0.7-0.7-0.7-1.3-0.7c-0.9-0.2-2-0.3-2-1.4
		c0-1.1,1-1.6,1.9-1.6c0.6,0,1.3,0.2,1.5,0.7h0v-0.6h0.7v1.7h-0.7c0-0.9-0.6-1.1-1.4-1.1c-0.5,0-1.2,0.1-1.2,0.8
		c0,0.6,0.9,0.6,1.5,0.7c0.9,0.2,1.9,0.3,1.9,1.4c0,1.2-1.1,1.6-2.1,1.6c-0.6,0-1.3-0.2-1.5-0.8h0v0.7H-323.3z"/>
	<path class="st6" d="M-311.2,264.4L-311.2,264.4c-0.2,0.8-0.9,1.1-1.7,1.1c-1,0-2-0.4-2-1.6c0-1.5,1.5-1.6,2.7-1.6h1v-0.3
		c0-0.8-0.4-1.1-1.2-1.1c-0.7,0-1.2,0.1-1.3,0.9h-1c0.1-1.2,1.1-1.6,2.2-1.6c1.2,0,2.2,0.3,2.2,1.6v2.9h0.9v0.7h-1.8V264.4z
		 M-312.8,264.8c1.1,0,1.6-0.8,1.6-1.8h-0.8c-0.6,0-1.9,0-1.9,0.9C-313.9,264.7-313.3,264.8-312.8,264.8z"/>
	<path class="st6" d="M-308.8,264.7h0.9v-3.6h-0.9v-0.7h1.8v1h0c0.2-0.8,0.8-1.1,1.5-1.1c0.2,0,0.3,0,0.4,0v0.7
		c-0.1,0-0.3-0.1-0.5-0.1c-1.3,0-1.4,1.3-1.4,2.4v1.4h1v0.7h-2.8V264.7z"/>
	<path class="st6" d="M-303.4,263.2c0,1.2,0.6,1.7,1.8,1.7c0.6,0,1.4-0.3,1.4-1h0.8c0,1.2-1.3,1.7-2.4,1.7c-1.6,0-2.7-1-2.7-2.6
		c0-1.6,1-2.6,2.7-2.6c1.8,0,2.4,1.3,2.4,2.9H-303.4z M-300.2,262.5c-0.1-0.9-0.6-1.5-1.6-1.5c-0.9,0-1.6,0.5-1.6,1.5H-300.2z"/>
	<path class="st6" d="M-294.3,263.2c0,1.2,0.6,1.7,1.8,1.7c0.6,0,1.4-0.3,1.4-1h0.8c0,1.2-1.3,1.7-2.4,1.7c-1.6,0-2.7-1-2.7-2.6
		c0-1.6,1-2.6,2.7-2.6c1.8,0,2.4,1.3,2.4,2.9H-294.3z M-291,262.5c-0.1-0.9-0.6-1.5-1.6-1.5c-0.9,0-1.6,0.5-1.6,1.5H-291z"/>
	<path class="st6" d="M-289,265.4v-1.7h0.7c0,1,0.8,1.2,1.6,1.2c0.4,0,1-0.2,1-0.8c0-0.7-0.7-0.7-1.3-0.7c-0.9-0.2-2-0.3-2-1.4
		c0-1.1,1-1.6,1.9-1.6c0.6,0,1.3,0.2,1.5,0.7h0v-0.6h0.7v1.7h-0.7c0-0.9-0.6-1.1-1.4-1.1c-0.5,0-1.2,0.1-1.2,0.8
		c0,0.6,0.9,0.6,1.5,0.7c0.9,0.2,1.9,0.3,1.9,1.4c0,1.2-1.1,1.6-2.1,1.6c-0.6,0-1.3-0.2-1.5-0.8h0v0.7H-289z"/>
	<path class="st6" d="M-283.5,265.4v-1.7h0.7c0,1,0.8,1.2,1.6,1.2c0.4,0,1-0.2,1-0.8c0-0.7-0.7-0.7-1.3-0.7c-0.9-0.2-2-0.3-2-1.4
		c0-1.1,1-1.6,1.9-1.6c0.6,0,1.3,0.2,1.5,0.7h0v-0.6h0.7v1.7h-0.7c0-0.9-0.6-1.1-1.4-1.1c-0.5,0-1.2,0.1-1.2,0.8
		c0,0.6,0.9,0.6,1.5,0.7c0.9,0.2,1.9,0.3,1.9,1.4c0,1.2-1.1,1.6-2.1,1.6c-0.6,0-1.3-0.2-1.5-0.8h0v0.7H-283.5z"/>
	<path class="st6" d="M-277.1,263.2c0,1.2,0.6,1.7,1.8,1.7c0.6,0,1.4-0.3,1.4-1h0.8c0,1.2-1.3,1.7-2.4,1.7c-1.6,0-2.7-1-2.7-2.6
		c0-1.6,1-2.6,2.7-2.6c1.8,0,2.4,1.3,2.4,2.9H-277.1z M-273.9,262.5c-0.1-0.9-0.6-1.5-1.6-1.5c-0.9,0-1.6,0.5-1.6,1.5H-273.9z"/>
	<path class="st6" d="M-272.1,264.7h0.9v-3.6h-0.9v-0.7h1.8v0.9h0c0.2-0.6,0.9-1,1.7-1c1.3,0,1.8,0.6,1.8,1.8v2.6h0.9v0.7h-2.6v-0.7
		h0.9v-2.4c0-0.8-0.3-1.3-1.2-1.3c-1,0-1.4,0.7-1.4,1.6v2.1h0.9v0.7h-2.6V264.7z"/>
	<path class="st6" d="M-262.1,261.1h-1.6v2.9c0,0.4,0.1,0.8,0.6,0.8c0.5,0,0.6-0.5,0.6-0.9h0.8c0,1-0.4,1.7-1.5,1.7
		c-1.3,0-1.3-0.9-1.3-1.9v-2.5h-1v-0.7h1v-1.1l0.9-0.3v1.4h1.6V261.1z"/>
	<path class="st6" d="M-261.2,264.7h0.9v-3.6h-0.9v-0.7h1.8v4.3h0.9v0.7h-2.6V264.7z M-259.4,259.3h-1v-1h1V259.3z"/>
	<path class="st6" d="M-254.3,264.4L-254.3,264.4c-0.2,0.8-0.9,1.1-1.7,1.1c-1,0-2-0.4-2-1.6c0-1.5,1.5-1.6,2.7-1.6h1v-0.3
		c0-0.8-0.4-1.1-1.2-1.1c-0.7,0-1.2,0.1-1.3,0.9h-1c0.1-1.2,1.1-1.6,2.2-1.6c1.2,0,2.2,0.3,2.2,1.6v2.9h0.9v0.7h-1.8V264.4z
		 M-255.9,264.8c1.1,0,1.6-0.8,1.6-1.8h-0.8c-0.6,0-1.9,0-1.9,0.9C-257,264.7-256.5,264.8-255.9,264.8z"/>
	<path class="st6" d="M-252,264.7h0.9v-5.8h-0.9v-0.7h1.8v6.5h0.9v0.7h-2.6V264.7z"/>
	<path class="st6" d="M-245.9,264.7h0.9v-3.6h-0.9v-0.7h1.8v4.3h0.9v0.7h-2.6V264.7z M-244.1,259.3h-1v-1h1V259.3z"/>
	<path class="st6" d="M-242.7,264.7h0.9v-3.6h-0.9v-0.7h1.8v0.9h0c0.2-0.6,0.9-1,1.7-1c1.3,0,1.8,0.6,1.8,1.8v2.6h0.9v0.7h-2.6v-0.7
		h0.9v-2.4c0-0.8-0.3-1.3-1.2-1.3c-1,0-1.4,0.7-1.4,1.6v2.1h0.9v0.7h-2.6V264.7z"/>
	<path class="st6" d="M-229.3,264.4L-229.3,264.4c-0.2,0.8-0.9,1.1-1.7,1.1c-1,0-2-0.4-2-1.6c0-1.5,1.5-1.6,2.7-1.6h1v-0.3
		c0-0.8-0.4-1.1-1.2-1.1c-0.7,0-1.2,0.1-1.3,0.9h-1c0.1-1.2,1.1-1.6,2.2-1.6c1.2,0,2.2,0.3,2.2,1.6v2.9h0.9v0.7h-1.8V264.4z
		 M-230.9,264.8c1.1,0,1.6-0.8,1.6-1.8h-0.8c-0.6,0-1.9,0-1.9,0.9C-232,264.7-231.4,264.8-230.9,264.8z"/>
	<path class="st6" d="M-227,264.7h0.9v-5.8h-0.9v-0.7h1.8v6.5h0.9v0.7h-2.6V264.7z"/>
	<path class="st6" d="M-223.9,264.7h0.9v-5.8h-0.9v-0.7h1.8v6.5h0.9v0.7h-2.6V264.7z"/>
	<path class="st6" d="M-214,264.4L-214,264.4c-0.2,0.8-0.9,1.1-1.7,1.1c-1,0-2-0.4-2-1.6c0-1.5,1.5-1.6,2.7-1.6h1v-0.3
		c0-0.8-0.4-1.1-1.2-1.1c-0.7,0-1.2,0.1-1.3,0.9h-1c0.1-1.2,1.1-1.6,2.2-1.6c1.2,0,2.2,0.3,2.2,1.6v2.9h0.9v0.7h-1.8V264.4z
		 M-215.6,264.8c1.1,0,1.6-0.8,1.6-1.8h-0.8c-0.6,0-1.9,0-1.9,0.9C-216.7,264.7-216.1,264.8-215.6,264.8z"/>
	<path class="st6" d="M-211.4,265.4v-1.7h0.7c0,1,0.8,1.2,1.6,1.2c0.4,0,1-0.2,1-0.8c0-0.7-0.7-0.7-1.3-0.7c-0.9-0.2-2-0.3-2-1.4
		c0-1.1,1-1.6,1.9-1.6c0.6,0,1.3,0.2,1.5,0.7h0v-0.6h0.7v1.7h-0.7c0-0.9-0.6-1.1-1.4-1.1c-0.5,0-1.2,0.1-1.2,0.8
		c0,0.6,0.9,0.6,1.5,0.7c0.9,0.2,1.9,0.3,1.9,1.4c0,1.2-1.1,1.6-2.1,1.6c-0.6,0-1.3-0.2-1.5-0.8h0v0.7H-211.4z"/>
	<path class="st6" d="M-206.2,266.5h0.9v-5.4h-0.9v-0.7h1.8v1h0c0.3-0.6,0.9-1.1,1.7-1.1c1.6,0,2.5,1,2.5,2.6c0,1.6-0.9,2.6-2.5,2.6
		c-0.8,0-1.4-0.4-1.7-1.1h0v2.1h0.9v0.7h-2.7V266.5z M-202.7,264.8c1,0,1.5-0.8,1.5-1.9c0-1-0.5-1.9-1.5-1.9c-1.2,0-1.8,0.9-1.8,1.9
		C-204.4,264.1-203.9,264.8-202.7,264.8z"/>
	<path class="st6" d="M-198.3,263.2c0,1.2,0.6,1.7,1.8,1.7c0.6,0,1.4-0.3,1.4-1h0.8c0,1.2-1.3,1.7-2.4,1.7c-1.6,0-2.7-1-2.7-2.6
		c0-1.6,1-2.6,2.7-2.6c1.8,0,2.4,1.3,2.4,2.9H-198.3z M-195,262.5c-0.1-0.9-0.6-1.5-1.6-1.5c-0.9,0-1.6,0.5-1.6,1.5H-195z"/>
	<path class="st6" d="M-188.5,262.3h-0.7c-0.1-0.8-0.6-1.3-1.4-1.3c-1.1,0-1.6,0.9-1.6,1.9s0.6,1.9,1.6,1.9c0.7,0,1.3-0.4,1.4-1.1
		h0.8c0,1.2-1.1,1.8-2.2,1.8c-1.6,0-2.6-1-2.6-2.6c0-1.6,1-2.6,2.6-2.6c0.6,0,1.1,0.2,1.4,0.7h0v-0.6h0.7V262.3z"/>
	<path class="st6" d="M-184.4,261.1h-1.6v2.9c0,0.4,0.1,0.8,0.5,0.8c0.5,0,0.6-0.5,0.6-0.9h0.8c0,1-0.4,1.7-1.5,1.7
		c-1.3,0-1.3-0.9-1.3-1.9v-2.5h-1v-0.7h1v-1.1l0.9-0.3v1.4h1.6V261.1z"/>
	<path class="st6" d="M-183.3,265.4v-1.7h0.7c0,1,0.8,1.2,1.6,1.2c0.4,0,1-0.2,1-0.8c0-0.7-0.7-0.7-1.3-0.7c-0.9-0.2-2-0.3-2-1.4
		c0-1.1,1-1.6,1.9-1.6c0.6,0,1.3,0.2,1.5,0.7h0v-0.6h0.7v1.7h-0.7c0-0.9-0.6-1.1-1.4-1.1c-0.5,0-1.2,0.1-1.2,0.8
		c0,0.6,0.9,0.6,1.5,0.7c0.9,0.2,1.9,0.3,1.9,1.4c0,1.2-1.1,1.6-2.1,1.6c-0.6,0-1.3-0.2-1.5-0.8h0v0.7H-183.3z"/>
</g>
<g class="st3">
	<path class="st6" d="M-345.2,273.5c1.6,0,2.6,1,2.6,2.6c0,1.6-1,2.6-2.6,2.6c-1.6,0-2.7-1-2.7-2.6
		C-347.9,274.5-346.8,273.5-345.2,273.5z M-345.2,278c1.1,0,1.7-0.9,1.7-1.9s-0.5-1.9-1.7-1.9c-1.1,0-1.7,0.9-1.7,1.9
		S-346.3,278-345.2,278z"/>
	<path class="st6" d="M-341.8,277.9h0.9v-3.6h-1v-0.7h1v-0.5c0-1.2,0.5-1.7,1.8-1.7c0.3,0,0.5,0.1,0.8,0.1v0.7
		c-0.3,0-0.6-0.1-0.9-0.1c-0.8,0-0.9,0.5-0.9,1v0.5h1.2v0.7h-1.2v3.6h1.1v0.7h-2.9V277.9z"/>
	<path class="st6" d="M-330.8,277.7L-330.8,277.7c-0.3,0.6-1,1.1-1.8,1.1c-1.7,0-2.4-1.1-2.4-2.6c0-1.5,0.9-2.6,2.4-2.6
		c0.7,0,1.5,0.4,1.8,1h0v-2.4h-0.9v-0.7h1.8v6.5h0.9v0.7h-1.8V277.7z M-332.4,274.2c-1.1,0-1.7,0.8-1.7,1.9c0,1,0.5,1.9,1.7,1.9
		c1.1,0,1.6-0.9,1.6-1.9C-330.8,275.1-331.3,274.2-332.4,274.2z"/>
	<path class="st6" d="M-327.2,276.4c0,1.2,0.6,1.7,1.8,1.7c0.6,0,1.4-0.3,1.4-1h0.8c0,1.2-1.3,1.7-2.4,1.7c-1.6,0-2.7-1-2.7-2.6
		c0-1.6,1-2.6,2.7-2.6c1.8,0,2.4,1.3,2.4,2.9H-327.2z M-324,275.7c-0.1-0.9-0.6-1.5-1.6-1.5c-0.9,0-1.6,0.5-1.6,1.5H-324z"/>
	<path class="st6" d="M-322,278.6v-1.7h0.7c0,1,0.8,1.2,1.6,1.2c0.4,0,1-0.2,1-0.8c0-0.7-0.7-0.7-1.3-0.7c-0.9-0.2-2-0.3-2-1.4
		c0-1.1,1-1.6,1.9-1.6c0.6,0,1.3,0.2,1.5,0.7h0v-0.6h0.7v1.7h-0.7c0-0.9-0.6-1.1-1.4-1.1c-0.5,0-1.2,0.1-1.2,0.8
		c0,0.6,0.9,0.6,1.5,0.7c0.9,0.2,1.9,0.3,1.9,1.4c0,1.2-1.1,1.6-2.1,1.6c-0.6,0-1.3-0.2-1.5-0.8h0v0.7H-322z"/>
	<path class="st6" d="M-316.8,277.9h0.9v-3.6h-0.9v-0.7h1.8v4.3h0.9v0.7h-2.6V277.9z M-315,272.5h-1v-1h1V272.5z"/>
	<path class="st6" d="M-307.6,274.3h-0.9v2.7c0,0.8,0.1,1.8-0.3,2.5c-0.4,0.8-1.4,1-2.3,1c-1.1,0-2.4-0.2-2.4-1.5h1
		c0,0.7,0.7,0.8,1.3,0.8c1.3,0,1.7-0.5,1.7-1.8v-0.6h0c-0.3,0.7-1.1,1-1.8,1c-1.5,0-2.4-1-2.4-2.6c0-1.5,0.9-2.5,2.4-2.5
		c0.8,0,1.5,0.3,1.9,1l0,0v0h0v-0.9h1.8V274.3z M-311,277.9c1.1,0,1.6-0.8,1.6-1.8c0-1-0.5-1.8-1.6-1.8c-1.2,0-1.8,0.7-1.8,1.8
		C-312.7,277.1-312.1,277.9-311,277.9z"/>
	<path class="st6" d="M-306.9,277.9h0.9v-3.6h-0.9v-0.7h1.8v0.9h0c0.2-0.6,0.9-1,1.7-1c1.3,0,1.8,0.6,1.8,1.8v2.6h0.9v0.7h-2.6v-0.7
		h0.9v-2.4c0-0.8-0.3-1.3-1.2-1.3c-1,0-1.4,0.7-1.4,1.6v2.1h0.9v0.7h-2.6V277.9z"/>
	<path class="st6" d="M-299.6,277.5h1.1v1.1h-1.1V277.5z"/>
	<path class="st6" d="M-294.2,277.9h1.1v-5.8h-1.1v-0.7h3.2v0.7h-1.1v5.8h1.1v0.7h-3.2V277.9z"/>
	<path class="st6" d="M-290.4,277.9h0.9v-3.6h-0.9v-0.7h1.8v0.9h0c0.2-0.6,0.9-1,1.7-1c1.3,0,1.8,0.6,1.8,1.8v2.6h0.9v0.7h-2.6v-0.7
		h0.9v-2.4c0-0.8-0.3-1.3-1.2-1.3c-1,0-1.4,0.7-1.4,1.6v2.1h0.9v0.7h-2.6V277.9z"/>
	<path class="st6" d="M-277.3,274.3h-1.6v2.9c0,0.4,0.1,0.8,0.6,0.8c0.5,0,0.6-0.5,0.6-0.9h0.8c0,1-0.4,1.7-1.5,1.7
		c-1.3,0-1.3-0.9-1.3-1.9v-2.5h-1v-0.7h1v-1.1l0.9-0.3v1.4h1.6V274.3z"/>
	<path class="st6" d="M-276.3,277.9h0.9v-5.8h-0.9v-0.7h1.8v3.1h0c0.2-0.6,0.9-1,1.7-1c1.3,0,1.8,0.6,1.8,1.8v2.6h0.9v0.7h-2.6v-0.7
		h0.9v-2.4c0-0.8-0.3-1.3-1.2-1.3c-1,0-1.4,0.7-1.4,1.6v2.1h0.9v0.7h-2.6V277.9z"/>
	<path class="st6" d="M-269.7,277.9h0.9v-3.6h-0.9v-0.7h1.8v4.3h0.9v0.7h-2.6V277.9z M-268,272.5h-1v-1h1V272.5z"/>
	<path class="st6" d="M-266.4,278.6v-1.7h0.7c0,1,0.8,1.2,1.6,1.2c0.4,0,1-0.2,1-0.8c0-0.7-0.7-0.7-1.3-0.7c-0.9-0.2-2-0.3-2-1.4
		c0-1.1,1-1.6,1.9-1.6c0.6,0,1.3,0.2,1.5,0.7h0v-0.6h0.7v1.7h-0.7c0-0.9-0.6-1.1-1.4-1.1c-0.5,0-1.2,0.1-1.2,0.8
		c0,0.6,0.9,0.6,1.5,0.7c0.9,0.2,1.9,0.3,1.9,1.4c0,1.2-1.1,1.6-2.1,1.6c-0.6,0-1.3-0.2-1.5-0.8h0v0.7H-266.4z"/>
	<path class="st6" d="M-258.2,279.7h0.9v-5.4h-0.9v-0.7h1.8v1h0c0.3-0.6,0.9-1.1,1.7-1.1c1.6,0,2.5,1,2.5,2.6c0,1.6-0.9,2.6-2.5,2.6
		c-0.8,0-1.4-0.4-1.7-1.1h0v2.1h0.9v0.7h-2.7V279.7z M-254.6,278c1,0,1.5-0.8,1.5-1.9c0-1-0.5-1.9-1.5-1.9c-1.2,0-1.8,0.9-1.8,1.9
		C-256.4,277.3-255.8,278-254.6,278z"/>
	<path class="st6" d="M-251.3,277.9h0.9v-3.6h-0.9v-0.7h1.8v1h0c0.2-0.8,0.8-1.1,1.5-1.1c0.2,0,0.3,0,0.4,0v0.7
		c-0.1,0-0.3-0.1-0.5-0.1c-1.3,0-1.4,1.3-1.4,2.4v1.4h1v0.7h-2.8V277.9z"/>
	<path class="st6" d="M-244.3,273.5c1.6,0,2.6,1,2.6,2.6c0,1.6-1,2.6-2.6,2.6s-2.7-1-2.7-2.6C-247,274.5-246,273.5-244.3,273.5z
		 M-244.3,278c1.1,0,1.7-0.9,1.7-1.9s-0.5-1.9-1.7-1.9s-1.7,0.9-1.7,1.9S-245.5,278-244.3,278z"/>
	<path class="st6" d="M-239.2,278.8c0,1.3-0.3,1.8-1.4,1.8c-0.3,0-0.5-0.1-0.8-0.1v-0.7c0.2,0.1,0.4,0.1,0.7,0.1
		c0.4,0,0.6-0.1,0.6-1.1v-4.5h-0.9v-0.7h1.8V278.8z M-239.2,272.5h-1v-1h1V272.5z"/>
	<path class="st6" d="M-236.8,276.4c0,1.2,0.6,1.7,1.8,1.7c0.6,0,1.4-0.3,1.4-1h0.8c0,1.2-1.3,1.7-2.4,1.7c-1.6,0-2.7-1-2.7-2.6
		c0-1.6,1-2.6,2.7-2.6c1.8,0,2.4,1.3,2.4,2.9H-236.8z M-233.5,275.7c-0.1-0.9-0.6-1.5-1.6-1.5c-0.9,0-1.6,0.5-1.6,1.5H-233.5z"/>
	<path class="st6" d="M-227,275.5h-0.7c-0.1-0.8-0.6-1.3-1.4-1.3c-1.1,0-1.6,0.9-1.6,1.9s0.6,1.9,1.6,1.9c0.7,0,1.3-0.4,1.4-1.1h0.8
		c0,1.2-1.1,1.8-2.2,1.8c-1.6,0-2.6-1-2.6-2.6c0-1.6,1-2.6,2.6-2.6c0.6,0,1.1,0.2,1.4,0.7h0v-0.6h0.7V275.5z"/>
	<path class="st6" d="M-222.9,274.3h-1.6v2.9c0,0.4,0.1,0.8,0.5,0.8c0.5,0,0.6-0.5,0.6-0.9h0.8c0,1-0.4,1.7-1.5,1.7
		c-1.3,0-1.3-0.9-1.3-1.9v-2.5h-1v-0.7h1v-1.1l0.9-0.3v1.4h1.6V274.3z"/>
	<path class="st6" d="M-221.4,277.5h1.1v1.1l-0.5,1.4h-0.6l0.5-1.4h-0.5V277.5z"/>
	<path class="st6" d="M-210.3,274.3h-0.6l-2.1,4.8c-0.4,0.9-0.6,1.5-1.6,1.5c-0.2,0-0.5,0-0.7-0.1v-0.7c0.2,0,0.3,0,0.5,0
		c0.8,0,0.8-0.6,1.1-1.2l-1.9-4.3h-0.5v-0.7h2.5v0.7h-1l1.4,3.4l1.4-3.4h-1v-0.7h2.4V274.3z"/>
	<path class="st6" d="M-207,273.5c1.6,0,2.6,1,2.6,2.6c0,1.6-1,2.6-2.6,2.6s-2.7-1-2.7-2.6C-209.7,274.5-208.7,273.5-207,273.5z
		 M-207,278c1.1,0,1.7-0.9,1.7-1.9s-0.5-1.9-1.7-1.9s-1.7,0.9-1.7,1.9S-208.2,278-207,278z"/>
	<path class="st6" d="M-198.5,277.9h0.9v0.7h-1.8v-0.9h0c-0.2,0.6-0.9,1-1.6,1c-1.3,0-1.8-0.6-1.8-1.8v-2.6h-0.9v-0.7h1.8v3.1
		c0,0.8,0.3,1.3,1.2,1.3c1,0,1.4-0.7,1.4-1.6v-2.1h-0.9v-0.7h1.8V277.9z"/>
	<path class="st6" d="M-189.1,275.5h-0.7c-0.1-0.8-0.6-1.3-1.4-1.3c-1.1,0-1.6,0.9-1.6,1.9s0.6,1.9,1.6,1.9c0.7,0,1.3-0.4,1.4-1.1
		h0.8c0,1.2-1.1,1.8-2.2,1.8c-1.6,0-2.6-1-2.6-2.6c0-1.6,1-2.6,2.6-2.6c0.6,0,1.1,0.2,1.4,0.7h0v-0.6h0.7V275.5z"/>
	<path class="st6" d="M-184.6,277.6L-184.6,277.6c-0.2,0.8-0.9,1.1-1.7,1.1c-1,0-2-0.4-2-1.6c0-1.5,1.5-1.6,2.7-1.6h1v-0.3
		c0-0.8-0.4-1.1-1.2-1.1c-0.7,0-1.2,0.1-1.3,0.9h-1c0.1-1.2,1.1-1.6,2.2-1.6c1.2,0,2.2,0.3,2.2,1.6v2.9h0.9v0.7h-1.8V277.6z
		 M-186.2,278c1.1,0,1.6-0.8,1.6-1.8h-0.8c-0.6,0-1.9,0-1.9,0.9C-187.3,277.9-186.7,278-186.2,278z"/>
	<path class="st6" d="M-182.2,277.9h0.9v-3.6h-0.9v-0.7h1.8v0.9h0c0.2-0.6,0.9-1,1.7-1c1.3,0,1.8,0.6,1.8,1.8v2.6h0.9v0.7h-2.6v-0.7
		h0.9v-2.4c0-0.8-0.3-1.3-1.2-1.3c-1,0-1.4,0.7-1.4,1.6v2.1h0.9v0.7h-2.6V277.9z"/>
</g>
<g class="st3">
	<path class="st6" d="M-343.8,291.1h0.9v0.7h-1.8V291h0c-0.2,0.6-0.9,1-1.6,1c-1.3,0-1.8-0.6-1.8-1.8v-2.6h-0.9v-0.7h1.8v3.1
		c0,0.8,0.3,1.3,1.2,1.3c1,0,1.4-0.7,1.4-1.6v-2.1h-0.9v-0.7h1.8V291.1z"/>
	<path class="st6" d="M-342,291.8v-1.7h0.7c0,1,0.8,1.2,1.6,1.2c0.4,0,1-0.2,1-0.8c0-0.7-0.7-0.7-1.3-0.7c-0.9-0.2-2-0.3-2-1.4
		c0-1.1,1-1.6,1.9-1.6c0.6,0,1.3,0.2,1.5,0.7h0v-0.6h0.7v1.7h-0.7c0-0.9-0.6-1.1-1.4-1.1c-0.5,0-1.2,0.1-1.2,0.8
		c0,0.6,0.9,0.6,1.5,0.7c0.9,0.2,1.9,0.3,1.9,1.4c0,1.2-1.1,1.6-2.1,1.6c-0.6,0-1.3-0.2-1.5-0.8h0v0.7H-342z"/>
	<path class="st6" d="M-335.6,289.6c0,1.2,0.6,1.7,1.8,1.7c0.6,0,1.4-0.3,1.4-1h0.8c0,1.2-1.3,1.7-2.4,1.7c-1.6,0-2.7-1-2.7-2.6
		c0-1.6,1-2.6,2.7-2.6c1.8,0,2.4,1.3,2.4,2.9H-335.6z M-332.3,288.9c-0.1-0.9-0.6-1.5-1.6-1.5c-0.9,0-1.6,0.5-1.6,1.5H-332.3z"/>
	<path class="st6" d="M-327.6,291.1h0.9v-3.6h-0.9v-0.7h1.8v4.3h0.9v0.7h-2.6V291.1z M-325.8,285.7h-1v-1h1V285.7z"/>
	<path class="st6" d="M-324.5,291.1h0.9v-5.8h-0.9v-0.7h1.8v6.5h0.9v0.7h-2.6V291.1z"/>
	<path class="st6" d="M-321.5,291.1h0.9v-5.8h-0.9v-0.7h1.8v6.5h0.9v0.7h-2.6V291.1z"/>
	<path class="st6" d="M-313.2,291.1h0.9v0.7h-1.8V291h0c-0.2,0.6-0.9,1-1.6,1c-1.3,0-1.8-0.6-1.8-1.8v-2.6h-0.9v-0.7h1.8v3.1
		c0,0.8,0.3,1.3,1.2,1.3c1,0,1.4-0.7,1.4-1.6v-2.1h-0.9v-0.7h1.8V291.1z"/>
	<path class="st6" d="M-311.4,291.8v-1.7h0.7c0,1,0.8,1.2,1.6,1.2c0.4,0,1-0.2,1-0.8c0-0.7-0.7-0.7-1.3-0.7c-0.9-0.2-2-0.3-2-1.4
		c0-1.1,1-1.6,1.9-1.6c0.6,0,1.3,0.2,1.5,0.7h0v-0.6h0.7v1.7h-0.7c0-0.9-0.6-1.1-1.4-1.1c-0.5,0-1.2,0.1-1.2,0.8
		c0,0.6,0.9,0.6,1.5,0.7c0.9,0.2,1.9,0.3,1.9,1.4c0,1.2-1.1,1.6-2.1,1.6c-0.6,0-1.3-0.2-1.5-0.8h0v0.7H-311.4z"/>
	<path class="st6" d="M-302.8,287.5h-1.6v2.9c0,0.4,0.1,0.8,0.6,0.8c0.5,0,0.6-0.5,0.6-0.9h0.8c0,1-0.4,1.7-1.5,1.7
		c-1.3,0-1.3-0.9-1.3-1.9v-2.5h-1v-0.7h1v-1.1l0.9-0.3v1.4h1.6V287.5z"/>
	<path class="st6" d="M-301.8,291.1h0.9v-3.6h-0.9v-0.7h1.8v1h0c0.2-0.8,0.8-1.1,1.5-1.1c0.2,0,0.3,0,0.4,0v0.7
		c-0.1,0-0.3-0.1-0.5-0.1c-1.3,0-1.4,1.3-1.4,2.4v1.4h1v0.7h-2.8V291.1z"/>
	<path class="st6" d="M-293.8,290.8L-293.8,290.8c-0.2,0.8-0.9,1.1-1.7,1.1c-1,0-2-0.4-2-1.6c0-1.5,1.5-1.6,2.7-1.6h1v-0.3
		c0-0.8-0.4-1.1-1.2-1.1c-0.7,0-1.2,0.1-1.3,0.9h-1c0.1-1.2,1.1-1.6,2.2-1.6c1.2,0,2.2,0.3,2.2,1.6v2.9h0.9v0.7h-1.8V290.8z
		 M-295.4,291.2c1.1,0,1.6-0.8,1.6-1.8h-0.8c-0.6,0-1.9,0-1.9,0.9C-296.5,291.1-295.9,291.2-295.4,291.2z"/>
	<path class="st6" d="M-288.1,287.5h-1.6v2.9c0,0.4,0.1,0.8,0.6,0.8c0.5,0,0.6-0.5,0.6-0.9h0.8c0,1-0.4,1.7-1.5,1.7
		c-1.3,0-1.3-0.9-1.3-1.9v-2.5h-1v-0.7h1v-1.1l0.9-0.3v1.4h1.6V287.5z"/>
	<path class="st6" d="M-284.5,286.7c1.6,0,2.6,1,2.6,2.6c0,1.6-1,2.6-2.6,2.6c-1.6,0-2.7-1-2.7-2.6
		C-287.1,287.7-286.1,286.7-284.5,286.7z M-284.5,291.2c1.1,0,1.7-0.9,1.7-1.9s-0.5-1.9-1.7-1.9c-1.1,0-1.7,0.9-1.7,1.9
		S-285.6,291.2-284.5,291.2z"/>
	<path class="st6" d="M-281,291.1h0.9v-3.6h-0.9v-0.7h1.8v1h0c0.2-0.8,0.8-1.1,1.5-1.1c0.2,0,0.3,0,0.4,0v0.7
		c-0.1,0-0.3-0.1-0.5-0.1c-1.3,0-1.4,1.3-1.4,2.4v1.4h1v0.7h-2.8V291.1z"/>
	<path class="st6" d="M-270.4,287.5h-1.6v2.9c0,0.4,0.1,0.8,0.6,0.8c0.5,0,0.6-0.5,0.6-0.9h0.8c0,1-0.4,1.7-1.5,1.7
		c-1.3,0-1.3-0.9-1.3-1.9v-2.5h-1v-0.7h1v-1.1l0.9-0.3v1.4h1.6V287.5z"/>
	<path class="st6" d="M-266.7,286.7c1.6,0,2.6,1,2.6,2.6c0,1.6-1,2.6-2.6,2.6c-1.6,0-2.7-1-2.7-2.6
		C-269.4,287.7-268.3,286.7-266.7,286.7z M-266.7,291.2c1.1,0,1.7-0.9,1.7-1.9s-0.5-1.9-1.7-1.9c-1.1,0-1.7,0.9-1.7,1.9
		S-267.9,291.2-266.7,291.2z"/>
	<path class="st6" d="M-255.5,288.7h-0.7c-0.1-0.8-0.6-1.3-1.4-1.3c-1.1,0-1.6,0.9-1.6,1.9s0.6,1.9,1.6,1.9c0.7,0,1.3-0.4,1.4-1.1
		h0.8c0,1.2-1.1,1.8-2.2,1.8c-1.6,0-2.6-1-2.6-2.6c0-1.6,1-2.6,2.6-2.6c0.6,0,1.1,0.2,1.4,0.7h0v-0.6h0.7V288.7z"/>
	<path class="st6" d="M-254.7,291.1h0.9v-3.6h-0.9v-0.7h1.8v1h0c0.2-0.8,0.8-1.1,1.5-1.1c0.2,0,0.3,0,0.4,0v0.7
		c-0.1,0-0.3-0.1-0.5-0.1c-1.3,0-1.4,1.3-1.4,2.4v1.4h1v0.7h-2.8V291.1z"/>
	<path class="st6" d="M-249.4,289.6c0,1.2,0.6,1.7,1.8,1.7c0.6,0,1.4-0.3,1.4-1h0.8c0,1.2-1.3,1.7-2.4,1.7c-1.6,0-2.7-1-2.7-2.6
		c0-1.6,1-2.6,2.7-2.6c1.8,0,2.4,1.3,2.4,2.9H-249.4z M-246.1,288.9c-0.1-0.9-0.6-1.5-1.6-1.5c-0.9,0-1.6,0.5-1.6,1.5H-246.1z"/>
	<path class="st6" d="M-240.6,290.8L-240.6,290.8c-0.2,0.8-0.9,1.1-1.7,1.1c-1,0-2-0.4-2-1.6c0-1.5,1.5-1.6,2.7-1.6h1v-0.3
		c0-0.8-0.4-1.1-1.2-1.1c-0.7,0-1.2,0.1-1.3,0.9h-1c0.1-1.2,1.1-1.6,2.2-1.6c1.2,0,2.2,0.3,2.2,1.6v2.9h0.9v0.7h-1.8V290.8z
		 M-242.2,291.2c1.1,0,1.6-0.8,1.6-1.8h-0.8c-0.6,0-1.9,0-1.9,0.9C-243.3,291.1-242.7,291.2-242.2,291.2z"/>
	<path class="st6" d="M-234.9,287.5h-1.6v2.9c0,0.4,0.1,0.8,0.6,0.8c0.5,0,0.6-0.5,0.6-0.9h0.8c0,1-0.4,1.7-1.5,1.7
		c-1.3,0-1.3-0.9-1.3-1.9v-2.5h-1v-0.7h1v-1.1l0.9-0.3v1.4h1.6V287.5z"/>
	<path class="st6" d="M-232.8,289.6c0,1.2,0.6,1.7,1.8,1.7c0.6,0,1.4-0.3,1.4-1h0.8c0,1.2-1.3,1.7-2.4,1.7c-1.6,0-2.7-1-2.7-2.6
		c0-1.6,1-2.6,2.7-2.6c1.8,0,2.4,1.3,2.4,2.9H-232.8z M-229.6,288.9c-0.1-0.9-0.6-1.5-1.6-1.5c-0.9,0-1.6,0.5-1.6,1.5H-229.6z"/>
	<path class="st6" d="M-221,290.8L-221,290.8c-0.2,0.8-0.9,1.1-1.7,1.1c-1,0-2-0.4-2-1.6c0-1.5,1.5-1.6,2.7-1.6h1v-0.3
		c0-0.8-0.4-1.1-1.2-1.1c-0.7,0-1.2,0.1-1.3,0.9h-1c0.1-1.2,1.1-1.6,2.2-1.6c1.2,0,2.2,0.3,2.2,1.6v2.9h0.9v0.7h-1.8V290.8z
		 M-222.6,291.2c1.1,0,1.6-0.8,1.6-1.8h-0.8c-0.6,0-1.9,0-1.9,0.9C-223.7,291.1-223.2,291.2-222.6,291.2z"/>
	<path class="st6" d="M-218.6,291.1h0.9v-3.6h-0.9v-0.7h1.8v0.9h0c0.2-0.6,0.9-1,1.7-1c1.3,0,1.8,0.6,1.8,1.8v2.6h0.9v0.7h-2.6v-0.7
		h0.9v-2.4c0-0.8-0.3-1.3-1.2-1.3c-1,0-1.4,0.7-1.4,1.6v2.1h0.9v0.7h-2.6V291.1z"/>
	<path class="st6" d="M-209,291.1h0.9v-3.6h-0.9v-0.7h1.8v4.3h0.9v0.7h-2.6V291.1z M-207.2,285.7h-1v-1h1V285.7z"/>
	<path class="st6" d="M-201.1,288.7h-0.7c-0.1-0.8-0.6-1.3-1.4-1.3c-1.1,0-1.6,0.9-1.6,1.9s0.6,1.9,1.6,1.9c0.7,0,1.3-0.4,1.4-1.1
		h0.8c0,1.2-1.1,1.8-2.2,1.8c-1.6,0-2.6-1-2.6-2.6c0-1.6,1-2.6,2.6-2.6c0.6,0,1.1,0.2,1.4,0.7h0v-0.6h0.7V288.7z"/>
	<path class="st6" d="M-197.6,286.7c1.6,0,2.6,1,2.6,2.6c0,1.6-1,2.6-2.6,2.6s-2.7-1-2.7-2.6C-200.3,287.7-199.3,286.7-197.6,286.7z
		 M-197.6,291.2c1.1,0,1.7-0.9,1.7-1.9s-0.5-1.9-1.7-1.9s-1.7,0.9-1.7,1.9S-198.8,291.2-197.6,291.2z"/>
	<path class="st6" d="M-194.2,291.1h0.9v-3.6h-0.9v-0.7h1.8v0.9h0c0.2-0.6,0.9-1,1.7-1c1.3,0,1.8,0.6,1.8,1.8v2.6h0.9v0.7h-2.6v-0.7
		h0.9v-2.4c0-0.8-0.3-1.3-1.2-1.3c-1,0-1.4,0.7-1.4,1.6v2.1h0.9v0.7h-2.6V291.1z"/>
	<path class="st6" d="M-181.7,286.7c1.6,0,2.6,1,2.6,2.6c0,1.6-1,2.6-2.6,2.6c-1.6,0-2.7-1-2.7-2.6
		C-184.4,287.7-183.4,286.7-181.7,286.7z M-181.7,291.2c1.1,0,1.7-0.9,1.7-1.9s-0.5-1.9-1.7-1.9c-1.1,0-1.7,0.9-1.7,1.9
		S-182.9,291.2-181.7,291.2z"/>
	<path class="st6" d="M-178.3,291.1h0.9v-3.6h-1v-0.7h1v-0.5c0-1.2,0.5-1.7,1.8-1.7c0.3,0,0.5,0.1,0.8,0.1v0.7
		c-0.3,0-0.6-0.1-0.9-0.1c-0.8,0-0.9,0.5-0.9,1v0.5h1.2v0.7h-1.2v3.6h1.1v0.7h-2.9V291.1z"/>
</g>
<g class="st3">
	<path class="st6" d="M-282.1,300.7h-0.6l-2.1,4.8c-0.4,0.9-0.6,1.5-1.6,1.5c-0.2,0-0.5,0-0.7-0.1v-0.7c0.2,0,0.3,0,0.5,0
		c0.8,0,0.8-0.6,1.1-1.2l-1.9-4.3h-0.6V300h2.5v0.7h-1l1.4,3.4l1.4-3.4h-1V300h2.4V300.7z"/>
	<path class="st6" d="M-278.9,299.9c1.6,0,2.6,1,2.6,2.6c0,1.6-1,2.6-2.6,2.6c-1.6,0-2.7-1-2.7-2.6
		C-281.6,300.9-280.5,299.9-278.9,299.9z M-278.9,304.4c1.1,0,1.7-0.9,1.7-1.9s-0.5-1.9-1.7-1.9c-1.1,0-1.7,0.9-1.7,1.9
		S-280,304.4-278.9,304.4z"/>
	<path class="st6" d="M-270.4,304.3h0.9v0.7h-1.8v-0.9h0c-0.2,0.6-0.9,1-1.6,1c-1.3,0-1.8-0.6-1.8-1.8v-2.6h-0.9V300h1.8v3.1
		c0,0.8,0.3,1.3,1.2,1.3c1,0,1.4-0.7,1.4-1.6v-2.1h-0.9V300h1.8V304.3z"/>
	<path class="st6" d="M-268.7,304.3h0.9v-3.6h-0.9V300h1.8v1h0c0.2-0.8,0.8-1.1,1.5-1.1c0.2,0,0.3,0,0.4,0v0.7
		c-0.1,0-0.3-0.1-0.5-0.1c-1.3,0-1.4,1.3-1.4,2.4v1.4h1v0.7h-2.8V304.3z"/>
	<path class="st6" d="M-258.7,299.9c1.6,0,2.6,1,2.6,2.6c0,1.6-1,2.6-2.6,2.6c-1.6,0-2.7-1-2.7-2.6
		C-261.4,300.9-260.3,299.9-258.7,299.9z M-258.7,304.4c1.1,0,1.7-0.9,1.7-1.9s-0.5-1.9-1.7-1.9c-1.1,0-1.7,0.9-1.7,1.9
		S-259.8,304.4-258.7,304.4z"/>
	<path class="st6" d="M-246.1,300.7h-0.7l-1.5,4.3h-1.2l-1.4-4.2h0l-1.4,4.2h-1.2l-1.5-4.3h-0.7V300h2.6v0.7h-1l1.1,3.5h0l1.4-4.2
		h1.2l1.4,4.2h0l1.2-3.5h-1V300h2.5V300.7z"/>
	<path class="st6" d="M-245.5,304.3h0.9v-3.6h-0.9V300h1.8v0.9h0c0.2-0.6,0.9-1,1.7-1c1.3,0,1.8,0.6,1.8,1.8v2.6h0.9v0.7h-2.6v-0.7
		h0.9v-2.4c0-0.8-0.3-1.3-1.2-1.3c-1,0-1.4,0.7-1.4,1.6v2.1h0.9v0.7h-2.6V304.3z"/>
	<path class="st6" d="M-238.2,303.9h1.1v1.1h-1.1V303.9z"/>
</g>
<g>
	<path class="st0" d="M-308.9,362.4c-7.2,0-13-5.8-13-13s5.8-13,13-13s13,5.8,13,13S-301.7,362.4-308.9,362.4z M-308.9,339.1
		c-5.7,0-10.3,4.6-10.3,10.3s4.6,10.3,10.3,10.3s10.3-4.6,10.3-10.3S-303.2,339.1-308.9,339.1z"/>
	<g>
		<path class="st0" d="M-311,343.9c0-1.2,1-2.2,2.1-2.2c1.2,0,2.2,0.9,2.2,2.1s-0.9,2.2-2.2,2.2C-310.1,346-311,345.1-311,343.9z
			 M-310.7,357v-10h3.7v10H-310.7z"/>
	</g>
</g>
<g>
	<path class="st7" d="M-201.6,331h-12.9c-1.1,0-2.1,0.6-2.7,1.6l-6.5,11.8c-0.5,0.9-0.5,2,0,3l6.4,11.6c0.5,1,1.6,1.6,2.7,1.6h13.1
		c1.1,0,2.1-0.6,2.7-1.6l6.4-11.6c0.5-0.9,0.5-2,0-3l-6.5-11.8C-199.5,331.6-200.5,331-201.6,331z"/>
	<g>
		<g>
			<path class="st8" d="M-211.1,336.9l-0.9,0.9c-0.3,0.3-0.4,0.7-0.4,1.1s0.1,0.8,0.4,1.1l5.9,5.9l-5.9,5.9
				c-0.3,0.3-0.4,0.7-0.4,1.1s0.1,0.8,0.4,1.1l0.9,0.9c0.3,0.3,0.7,0.5,1.1,0.5c0.4,0,0.8-0.2,1.1-0.5l7.8-7.8
				c0.3-0.3,0.5-0.7,0.5-1.1s-0.2-0.8-0.5-1.1l-7.8-7.8c-0.3-0.3-0.7-0.4-1.1-0.4C-210.4,336.4-210.8,336.6-211.1,336.9
				L-211.1,336.9z"/>
		</g>
	</g>
</g>
<g class="st3">
	<path class="st0" d="M-293.9,326.9h-1.1v-7.1l-1.2,0.8v-1.1c0.3-0.1,1.1-0.7,1.4-1h0.9V326.9z"/>
	<path class="st0" d="M-287.5,326.9h-1v-8.7h1v3.2h0c0.3-0.5,0.8-0.7,1.3-0.7c2,0,2,1.7,2,3.2c0,2.7-1,3-2,3c-0.6,0-1.1-0.3-1.4-0.8
		h0V326.9z M-286.4,326.2c1.2,0,1.2-1.3,1.2-2.2c0-1.6-0.1-2.5-1.2-2.5c-1.1,0-1.1,1.3-1.1,2.1
		C-287.5,324.5-287.6,326.2-286.4,326.2z"/>
	<path class="st0" d="M-279.4,326L-279.4,326c-0.3,0.7-0.8,1-1.5,1c-1.3,0-1.7-0.8-1.7-2c0-1.8,1.8-1.9,3.2-1.9c0-0.8,0-1.7-1-1.7
		c-0.7,0-1,0.4-0.9,1.1h-1.1c0-1.4,0.8-1.8,2.1-1.8c1.6,0,2,0.8,2,1.8v2.9c0,0.5,0,1,0.1,1.4h-1.1V326z M-281.6,325.1
		c0,0.6,0.3,1.1,0.9,1.1c0.6,0,1.3-0.4,1.2-2.3C-280.4,323.9-281.6,323.8-281.6,325.1z"/>
	<path class="st0" d="M-273.3,318.2h1v8.7h-1v-0.7h0c-0.3,0.6-0.8,0.8-1.4,0.8c-1,0-2-0.4-2-3c0-1.5,0-3.2,2-3.2
		c0.6,0,1,0.3,1.3,0.7h0V318.2z M-274.5,321.5c-1.1,0-1.2,0.8-1.2,2.5c0,0.9,0,2.2,1.2,2.2c1.1,0,1.1-1.4,1.1-2.6
		C-273.3,322.8-273.4,321.5-274.5,321.5z"/>
	<path class="st0" d="M-267.3,320.8h1v6.7c0,1.4-0.9,1.7-2.2,1.7c-1,0-1.9-0.5-1.8-1.6h1.1c0,0.6,0.4,0.9,0.9,0.9
		c0.7,0,1.1-0.4,1.1-1v-1.3h0c-0.3,0.5-0.8,0.8-1.3,0.8c-1.6,0-2-1.4-2-3.2c0-2.8,1.4-3,1.9-3c0.6,0,1.1,0.3,1.4,0.9h0V320.8z
		 M-268.5,321.5c-1.1,0-1.2,1.3-1.2,2.1c0,1.9,0.4,2.4,1.2,2.4c1.2,0,1.2-1.4,1.2-2.2C-267.3,322.9-267.2,321.5-268.5,321.5z"/>
	<path class="st0" d="M-263.6,324.2c0,1.7,0.5,2,1.2,2c0.7,0,1-0.5,1.1-1.2h1.1c0,1.3-0.8,2-2.1,2c-1.3,0-2.3-0.4-2.3-3.1
		c0-1.8,0.2-3.2,2.3-3.2c1.7,0,2.2,0.9,2.2,3v0.5H-263.6z M-261.2,323.4c0-1.8-0.5-2-1.2-2c-0.6,0-1.1,0.3-1.2,2H-261.2z"/>
	<path class="st0" d="M-254.9,324.2c0,1.7,0.5,2,1.2,2c0.7,0,1-0.5,1.1-1.2h1.1c0,1.3-0.8,2-2.1,2c-1.3,0-2.3-0.4-2.3-3.1
		c0-1.8,0.2-3.2,2.3-3.2c1.7,0,2.2,0.9,2.2,3v0.5H-254.9z M-252.5,323.4c0-1.8-0.5-2-1.2-2c-0.6,0-1.1,0.3-1.2,2H-252.5z"/>
	<path class="st0" d="M-246.7,326L-246.7,326c-0.3,0.7-0.8,1-1.5,1c-1.3,0-1.7-0.8-1.7-2c0-1.8,1.8-1.9,3.2-1.9c0-0.8,0-1.7-1-1.7
		c-0.7,0-1,0.4-0.9,1.1h-1.1c0-1.4,0.8-1.8,2.1-1.8c1.6,0,2,0.8,2,1.8v2.9c0,0.5,0,1,0.1,1.4h-1.1V326z M-249,325.1
		c0,0.6,0.3,1.1,0.9,1.1c0.6,0,1.3-0.4,1.2-2.3C-247.7,323.9-249,323.8-249,325.1z"/>
	<path class="st0" d="M-242.8,321.7L-242.8,321.7c0.4-0.9,0.9-1,1.9-1v1c-0.2,0-0.3-0.1-0.5-0.1c-1.1,0-1.4,0.8-1.4,1.6v3.6h-1v-6.1
		h1V321.7z"/>
	<path class="st0" d="M-236.6,326.9v-4.2c0-0.6-0.2-1.2-1.1-1.2c-1.1,0-1.2,1-1.2,1.8v3.6h-1v-4.8c0-0.4,0-0.8-0.1-1.3h1v0.8h0
		c0.4-0.7,0.8-0.9,1.6-0.9c1.3,0,1.6,0.8,1.6,2v4.2H-236.6z"/>
	<path class="st0" d="M-232.9,324.2c0,1.7,0.5,2,1.2,2c0.7,0,1-0.5,1.1-1.2h1.1c0,1.3-0.8,2-2.1,2c-1.3,0-2.3-0.4-2.3-3.1
		c0-1.8,0.2-3.2,2.3-3.2c1.7,0,2.2,0.9,2.2,3v0.5H-232.9z M-230.5,323.4c0-1.8-0.5-2-1.2-2c-0.6,0-1.1,0.3-1.2,2H-230.5z"/>
	<path class="st0" d="M-224.7,318.2h1v8.7h-1v-0.7h0c-0.3,0.6-0.8,0.8-1.4,0.8c-1,0-2-0.4-2-3c0-1.5,0-3.2,2-3.2
		c0.6,0,1,0.3,1.3,0.7h0V318.2z M-225.8,321.5c-1.1,0-1.2,0.8-1.2,2.5c0,0.9,0,2.2,1.2,2.2c1.1,0,1.1-1.4,1.1-2.6
		C-224.7,322.8-224.7,321.5-225.8,321.5z"/>
</g>
</svg>
