<?xml version="1.0" encoding="utf-8"?>
<!-- Generator: Adobe Illustrator 19.1.0, SVG Export Plug-In . SVG Version: 6.00 Build 0)  -->
<svg version="1.1" id="Layer_1" xmlns="http://www.w3.org/2000/svg" xmlns:xlink="http://www.w3.org/1999/xlink" x="0px" y="0px"
	 viewBox="-158 111.5 642 339.5" style="enable-background:new -158 111.5 642 339.5;" xml:space="preserve">
<style type="text/css">
	.st0{fill:#8BC53F;}
	.st1{fill:#ECEEEE;}
	.st2{fill:#767676;}
	.st3{font-family:'Univers-Black';}
	.st4{font-size:12px;}
	.st5{fill:none;}
	.st6{fill:#231F20;}
	.st7{font-family:'Serifa-Roman';}
	.st8{font-size:11px;}
	.st9{font-family:'Univers-Condensed';}
	.st10{font-size:11.6521px;}
	.st11{fill:#EBB91D;}
	.st12{fill:#E67824;}
	.st13{fill:#39A6E2;}
	.st14{fill:#FFFFFF;}
</style>
<g>
	<g>
		<polygon class="st0" points="15.5,140.8 -100.2,140.8 -122.4,180.8 37.8,180.8 		"/>
		<polygon class="st1" points="37.8,180.8 -122.4,180.8 -158,244.8 -101,347.3 16.4,347.3 73.3,244.8 		"/>
	</g>
	<path class="st1" d="M-38.4,148.6c-1.3,0-2.9,1.1-3.5,2.8c-0.1,0-0.2,0-0.4,0c-0.1,0-0.2,0-0.4,0c-0.5-1.7-2.3-2.8-3.7-2.8
		c-1.3,0-2.2,0.8-2.4,2.2c-0.1,0.4,0.2,0.7,0.6,0.8c0.4,0.1,0.7-0.2,0.8-0.6c0.1-0.7,0.5-1,1.1-1c0.9,0,2.1,0.8,2.4,2
		c-0.2,0.1-0.4,0.3-0.5,0.4c-0.8,0.8-1.3,1.8-1.5,2.4l-0.1,0.1c-0.3,0.6-0.5,1.1-0.7,1.6c-1.2,0.7-2.5,1.6-3.5,2.5
		c-1.2,1.2-1.8,2.4-1.8,3.5c0,1,0.5,1.9,1.4,2.7s1.9,1.1,2.8,0.8c0.1,0.3,0.2,0.6,0.3,0.9c1.4,3.7,4.5,5,4.6,5l0.2,0.1l0.3-0.1
		c0.1,0,1.4-0.5,2.8-1.9c1-1,1.9-2.3,2.5-4c0,0,0,0,0.1,0c0.7,0.2,1.8,0.3,3-0.7c0.1-0.1,0.2-0.2,0.3-0.3c1-1,1.3-2.1,1.1-3.3
		c-0.5-2-2.7-3.8-4.9-5.1c-0.2-0.7-0.5-1.4-0.9-2.2c-0.6-1.4-1.4-2.2-2.1-2.6c0.3-1.1,1.4-1.9,2.2-1.9c0.5,0,0.8,0.4,0.9,1
		c0,0.4,0.4,0.6,0.8,0.6c0.2,0,0.3-0.1,0.4-0.2c0.1-0.1,0.2-0.4,0.2-0.6C-36.4,149.3-37.5,148.7-38.4,148.6z M-34.1,162.1
		c0.2,0.8-0.1,1.5-0.9,2.2s-1.3,0.6-1.7,0.5c0,0-0.1,0-0.1-0.1c-0.4-0.2-0.8-0.5-1.2-1c-0.3-0.3-0.5-0.7-0.8-1.1
		c-0.4-0.7-0.8-1.5-1.1-2.3c-0.3-0.6-0.5-1.2-0.7-1.8c-0.3-0.8-0.5-1.6-0.7-2.2h0.1c1.2,0.5,2.8,1.4,4.2,2.3
		C-35.6,159.7-34.4,161-34.1,162.1z M-49.7,164.2c-0.6-0.5-0.9-1.1-0.9-1.7c0-0.8,0.4-1.6,1.4-2.5c0.5-0.5,1.1-1,1.8-1.5
		c1.4-1,3-1.7,4.2-2.2l0,0c-0.2,0.6-0.4,1.4-0.7,2.2c-0.2,0.6-0.5,1.2-0.7,1.8c-0.3,0.8-0.7,1.6-1.2,2.2c-0.3,0.5-0.6,0.9-0.9,1.2
		c-0.1,0.1-0.1,0.2-0.2,0.2c-0.4,0.4-0.7,0.6-1,0.7C-48.6,164.9-49.1,164.7-49.7,164.2z M-42.6,158.6h0.5c0.2,0.6,0.4,1.2,0.7,1.8
		h-1.9C-43,159.7-42.8,159.1-42.6,158.6z M-44.3,162.6h4c0.4,0.7,0.7,1.3,1.2,1.8l-6.3-0.1C-45.1,163.8-44.7,163.2-44.3,162.6z
		 M-39.9,168.4h-5.2c-0.4-0.5-0.7-1.1-1-1.8l7.4,0.1C-39.1,167.3-39.5,167.9-39.9,168.4z M-39.8,155c0.1,0.2,0.2,0.4,0.3,0.6
		c-1-0.5-1.8-0.8-2.4-1c-0.1-0.1-0.2-0.1-0.4-0.1c-0.1,0-0.3,0-0.4,0.1c-0.6,0.2-1.4,0.5-2.2,0.9v-0.1l0.1-0.1
		c0.3-0.5,0.7-1.4,1.3-2c0.4-0.4,0.8-0.6,1.2-0.6C-41.3,152.7-40.5,153.5-39.8,155z"/>
	<text transform="matrix(1 0 0 1 -118.7744 206.1655)" class="st2 st3 st4">Adobe Illustrator Basics</text>
	<rect x="-134.7" y="218.7" class="st5" width="180.6" height="51.1"/>
	<text transform="matrix(1 0 0 1 -121.4224 227.7583)" class="st6 st7 st8">Illustrator is a vector drawing </text>
	<text transform="matrix(1 0 0 1 -130.0224 240.9583)" class="st6 st7 st8">program. It is often used to draw </text>
	<text transform="matrix(1 0 0 1 -129.3224 254.1583)" class="st6 st7 st8">illustrations, cartoons, diagrams, </text>
	<text transform="matrix(1 0 0 1 -88.7224 267.3583)" class="st6 st7 st8">charts and logos.</text>
	<g>
		<path class="st0" d="M-94.9,301.6c-6.4,0-11.6-5.2-11.6-11.6s5.2-11.6,11.6-11.6s11.6,5.2,11.6,11.6S-88.5,301.6-94.9,301.6z
			 M-94.9,280.9c-5,0-9.1,4.1-9.1,9.1s4.1,9.1,9.1,9.1s9.1-4.1,9.1-9.1S-89.9,280.9-94.9,280.9z"/>
		<g>
			<path class="st0" d="M-96.8,285.2c0-1,0.9-1.9,1.9-1.9c1.1,0,1.9,0.8,1.9,1.9c0,1.1-0.8,1.9-1.9,1.9
				C-96,287.1-96.8,286.2-96.8,285.2z M-96.6,296.8v-8.9h3.3v8.9H-96.6z"/>
		</g>
	</g>
	<text transform="matrix(1 0 0 1 -12.48 293.5893)" class="st0 st9 st10">2 hours</text>
</g>
<g>
	<g>
		<polygon class="st11" points="221.1,244.5 105.4,244.5 83.1,284.5 243.3,284.5 		"/>
		<polygon class="st1" points="243.3,284.5 83.1,284.5 47.6,348.5 104.5,451 221.9,451 278.9,348.5 		"/>
	</g>
	<g>
		<text transform="matrix(1 0 0 1 94.61 309.8635)" class="st2 st3 st4">Typography in Depth</text>
	</g>
	<g>
		<rect x="70.9" y="322.7" class="st5" width="180.6" height="51.1"/>
		<text transform="matrix(1 0 0 1 73.7579 331.7502)" class="st6 st7 st8">After you’ve learned the basics of </text>
		<text transform="matrix(1 0 0 1 71.3579 344.9502)" class="st6 st7 st8">typography, there is much more to </text>
		<text transform="matrix(1 0 0 1 73.7579 358.1502)" class="st6 st7 st8">learn to become a knowledgeable </text>
		<text transform="matrix(1 0 0 1 92.4579 371.3502)" class="st6 st7 st8">and experienced designer.</text>
	</g>
	<g>
		<path class="st11" d="M110.7,405.3c-6.4,0-11.6-5.2-11.6-11.6s5.2-11.6,11.6-11.6s11.6,5.2,11.6,11.6S117.1,405.3,110.7,405.3z
			 M110.7,384.6c-5,0-9.1,4.1-9.1,9.1s4.1,9.1,9.1,9.1s9.1-4.1,9.1-9.1S115.7,384.6,110.7,384.6z"/>
		<g>
			<path class="st11" d="M108.7,388.9c0-1,0.9-1.9,1.9-1.9c1.1,0,1.9,0.8,1.9,1.9s-0.8,1.9-1.9,1.9
				C109.6,390.8,108.7,389.9,108.7,388.9z M109,400.5v-8.9h3.3v8.9H109z"/>
		</g>
	</g>
	<text transform="matrix(1 0 0 1 193.0953 397.2863)" class="st11 st9 st10">3 hours</text>
	<path class="st1" d="M153.5,253c-1.3,0-2.9,1.1-3.5,2.8c-0.1,0-0.2,0-0.4,0c-0.1,0-0.2,0-0.4,0c-0.5-1.7-2.3-2.8-3.7-2.8
		c-1.3,0-2.2,0.8-2.4,2.2c-0.1,0.4,0.2,0.7,0.6,0.8s0.7-0.2,0.8-0.6c0.1-0.7,0.5-1,1.1-1c0.9,0,2.1,0.8,2.4,2
		c-0.2,0.1-0.4,0.3-0.5,0.4c-0.8,0.8-1.3,1.8-1.5,2.4l-0.1,0.1c-0.3,0.6-0.5,1.1-0.7,1.6c-1.2,0.7-2.5,1.6-3.5,2.5
		c-1.2,1.2-1.8,2.4-1.8,3.5c0,1,0.5,1.9,1.4,2.7c0.9,0.8,1.9,1.1,2.8,0.8c0.1,0.3,0.2,0.6,0.3,0.9c1.4,3.7,4.5,5,4.6,5l0.2,0.1
		l0.3-0.1c0.1,0,1.4-0.5,2.8-1.9c1-1,1.9-2.3,2.5-4c0,0,0,0,0.1,0c0.7,0.2,1.8,0.3,3-0.7c0.1-0.1,0.2-0.2,0.3-0.3
		c1-1,1.3-2.1,1.1-3.3c-0.5-2-2.7-3.8-4.9-5.1c-0.2-0.7-0.5-1.4-0.9-2.2c-0.6-1.4-1.4-2.2-2.1-2.6c0.3-1.1,1.4-1.9,2.2-1.9
		c0.5,0,0.8,0.4,0.9,1c0,0.4,0.4,0.6,0.8,0.6c0.2,0,0.3-0.1,0.4-0.2c0.1-0.1,0.2-0.4,0.2-0.6C155.5,253.6,154.4,253,153.5,253z
		 M157.8,266.5c0.2,0.8-0.1,1.5-0.9,2.2c-0.8,0.7-1.3,0.6-1.7,0.5c0,0-0.1,0-0.1-0.1c-0.4-0.2-0.8-0.5-1.2-1
		c-0.3-0.3-0.5-0.7-0.8-1.1c-0.4-0.7-0.8-1.5-1.1-2.3c-0.3-0.6-0.5-1.2-0.7-1.8c-0.3-0.8-0.5-1.6-0.7-2.2h0.1
		c1.2,0.5,2.8,1.4,4.2,2.3C156.3,264.1,157.5,265.3,157.8,266.5z M142.2,268.6c-0.6-0.5-0.9-1.1-0.9-1.7c0-0.8,0.4-1.6,1.4-2.5
		c0.5-0.5,1.1-1,1.8-1.5c1.4-1,3-1.7,4.2-2.2l0,0c-0.2,0.6-0.4,1.4-0.7,2.2c-0.2,0.6-0.5,1.2-0.7,1.8c-0.3,0.8-0.7,1.6-1.2,2.2
		c-0.3,0.5-0.6,0.9-0.9,1.2c-0.1,0.1-0.1,0.2-0.2,0.2c-0.4,0.4-0.7,0.6-1,0.7C143.3,269.2,142.7,269.1,142.2,268.6z M149.3,262.9
		h0.5c0.2,0.6,0.4,1.2,0.7,1.8h-1.9C148.9,264.1,149.1,263.5,149.3,262.9z M147.5,266.9h4c0.4,0.7,0.7,1.3,1.2,1.8l-6.3-0.1
		C146.8,268.2,147.2,267.6,147.5,266.9z M151.9,272.8h-5.2c-0.4-0.5-0.7-1.1-1-1.8l7.4,0.1C152.7,271.7,152.4,272.3,151.9,272.8z
		 M152.1,259.4c0.1,0.2,0.2,0.4,0.3,0.6c-1-0.5-1.8-0.8-2.4-1c-0.1-0.1-0.2-0.1-0.4-0.1c-0.1,0-0.3,0-0.4,0.1
		c-0.6,0.2-1.4,0.5-2.2,0.9v-0.1l0.1-0.1c0.2-0.5,0.7-1.4,1.3-2c0.4-0.4,0.8-0.6,1.2-0.6C150.6,257.1,151.4,257.9,152.1,259.4z"/>
	<path class="st1" d="M179,253c-1.3,0-2.9,1.1-3.5,2.8c-0.1,0-0.2,0-0.4,0c-0.1,0-0.2,0-0.4,0c-0.5-1.7-2.3-2.8-3.7-2.8
		c-1.3,0-2.2,0.8-2.4,2.2c-0.1,0.4,0.2,0.7,0.6,0.8s0.7-0.2,0.8-0.6c0.1-0.7,0.5-1,1.1-1c0.9,0,2.1,0.8,2.4,2
		c-0.2,0.1-0.4,0.3-0.5,0.4c-0.8,0.8-1.3,1.8-1.5,2.4l-0.1,0.1c-0.3,0.6-0.5,1.1-0.7,1.6c-1.2,0.7-2.5,1.6-3.5,2.5
		c-1.2,1.2-1.8,2.4-1.8,3.5c0,1,0.5,1.9,1.4,2.7c0.9,0.8,1.9,1.1,2.8,0.8c0.1,0.3,0.2,0.6,0.3,0.9c1.4,3.7,4.5,5,4.6,5l0.2,0.1
		l0.3-0.1c0.1,0,1.4-0.5,2.8-1.9c1-1,1.9-2.3,2.5-4c0,0,0,0,0.1,0c0.7,0.2,1.8,0.3,3-0.7c0.1-0.1,0.2-0.2,0.3-0.3
		c1-1,1.3-2.1,1.1-3.3c-0.5-2-2.7-3.8-4.9-5.1c-0.2-0.7-0.5-1.4-0.9-2.2c-0.6-1.4-1.4-2.2-2.1-2.6c0.3-1.1,1.4-1.9,2.2-1.9
		c0.5,0,0.8,0.4,0.9,1c0,0.4,0.4,0.6,0.8,0.6c0.2,0,0.3-0.1,0.4-0.2c0.1-0.1,0.2-0.4,0.2-0.6C181,253.6,180,253,179,253z
		 M183.4,266.5c0.2,0.8-0.1,1.5-0.9,2.2c-0.8,0.7-1.3,0.6-1.7,0.5c0,0-0.1,0-0.1-0.1c-0.4-0.2-0.8-0.5-1.2-1
		c-0.3-0.3-0.5-0.7-0.8-1.1c-0.4-0.7-0.8-1.5-1.1-2.3c-0.3-0.6-0.5-1.2-0.7-1.8c-0.3-0.8-0.5-1.6-0.7-2.2h0.1
		c1.2,0.5,2.8,1.4,4.2,2.3C181.8,264.1,183.1,265.3,183.4,266.5z M167.7,268.6c-0.6-0.5-0.9-1.1-0.9-1.7c0-0.8,0.4-1.6,1.4-2.5
		c0.5-0.5,1.1-1,1.8-1.5c1.4-1,3-1.7,4.2-2.2l0,0c-0.2,0.6-0.4,1.4-0.7,2.2c-0.2,0.6-0.5,1.2-0.7,1.8c-0.3,0.8-0.7,1.6-1.2,2.2
		c-0.3,0.5-0.6,0.9-0.9,1.2c-0.1,0.1-0.1,0.2-0.2,0.2c-0.4,0.4-0.7,0.6-1,0.7C168.8,269.2,168.3,269.1,167.7,268.6z M174.9,262.9
		h0.5c0.2,0.6,0.4,1.2,0.7,1.8h-1.9C174.4,264.1,174.7,263.5,174.9,262.9z M173.1,266.9h4c0.4,0.7,0.7,1.3,1.2,1.8l-6.3-0.1
		C172.4,268.2,172.7,267.6,173.1,266.9z M177.5,272.8h-5.2c-0.4-0.5-0.7-1.1-1-1.8l7.4,0.1C178.3,271.7,177.9,272.3,177.5,272.8z
		 M177.7,259.4c0.1,0.2,0.2,0.4,0.3,0.6c-1-0.5-1.8-0.8-2.4-1c-0.1-0.1-0.2-0.1-0.4-0.1c-0.1,0-0.3,0-0.4,0.1
		c-0.6,0.2-1.4,0.5-2.2,0.9v-0.1l0.1-0.1c0.2-0.5,0.7-1.4,1.3-2c0.4-0.4,0.8-0.6,1.2-0.6C176.1,257.1,177,257.9,177.7,259.4z"/>
</g>
<g>
	<g>
		<polygon class="st12" points="426.2,140.9 310.5,140.9 288.3,180.9 448.5,180.9 		"/>
		<polygon class="st1" points="448.5,180.9 288.3,180.9 252.7,244.9 309.7,347.5 427.1,347.5 484,244.9 		"/>
	</g>
	<path class="st1" d="M344.7,148.8c-1.3,0-2.9,1.1-3.5,2.8c-0.1,0-0.2,0-0.4,0c-0.1,0-0.2,0-0.4,0c-0.5-1.7-2.3-2.8-3.7-2.8
		c-1.3,0-2.2,0.8-2.4,2.2c-0.1,0.4,0.2,0.7,0.6,0.8c0.4,0.1,0.7-0.2,0.8-0.6c0.1-0.7,0.5-1,1.1-1c0.9,0,2.1,0.8,2.4,2
		c-0.2,0.1-0.4,0.3-0.5,0.4c-0.8,0.8-1.3,1.8-1.5,2.4l-0.1,0.1c-0.3,0.6-0.5,1.1-0.7,1.6c-1.2,0.7-2.5,1.6-3.5,2.5
		c-1.2,1.2-1.8,2.4-1.8,3.5c0,1,0.5,1.9,1.4,2.7c0.9,0.8,1.9,1.1,2.8,0.8c0.1,0.3,0.2,0.6,0.3,0.9c1.4,3.7,4.5,5,4.6,5l0.2,0.1
		l0.3-0.1c0.1,0,1.4-0.5,2.8-1.9c1-1,1.9-2.3,2.5-4c0,0,0,0,0.1,0c0.7,0.2,1.8,0.3,3-0.7c0.1-0.1,0.2-0.2,0.3-0.3
		c1-1,1.3-2.1,1.1-3.3c-0.5-2-2.7-3.8-4.9-5.1c-0.2-0.7-0.5-1.4-0.9-2.2c-0.6-1.4-1.4-2.2-2.1-2.6c0.3-1.1,1.4-1.9,2.2-1.9
		c0.5,0,0.8,0.4,0.9,1c0,0.4,0.4,0.6,0.8,0.6c0.2,0,0.3-0.1,0.4-0.2s0.2-0.4,0.2-0.6C346.7,149.4,345.6,148.8,344.7,148.8z
		 M349,162.3c0.2,0.8-0.1,1.5-0.9,2.2s-1.3,0.6-1.7,0.5c0,0-0.1,0-0.1-0.1c-0.4-0.2-0.8-0.5-1.2-1c-0.3-0.3-0.5-0.7-0.8-1.1
		c-0.4-0.7-0.8-1.5-1.1-2.3c-0.3-0.6-0.5-1.2-0.7-1.8c-0.3-0.8-0.5-1.6-0.7-2.2h0.1c1.2,0.5,2.8,1.4,4.2,2.3
		C347.5,159.9,348.8,161.1,349,162.3z M333.4,164.3c-0.6-0.5-0.9-1.1-0.9-1.7c0-0.8,0.4-1.6,1.4-2.5c0.5-0.5,1.1-1,1.8-1.5
		c1.4-1,3-1.7,4.2-2.2l0,0c-0.2,0.6-0.4,1.4-0.7,2.2c-0.2,0.6-0.5,1.2-0.7,1.8c-0.3,0.8-0.7,1.6-1.2,2.2c-0.3,0.5-0.6,0.9-0.9,1.2
		c-0.1,0.1-0.1,0.2-0.2,0.2c-0.4,0.4-0.7,0.6-1,0.7C334.5,165,334,164.9,333.4,164.3z M340.5,158.7h0.5c0.2,0.6,0.4,1.2,0.7,1.8
		h-1.9C340.1,159.9,340.3,159.2,340.5,158.7z M338.8,162.7h4c0.4,0.7,0.7,1.3,1.2,1.8l-6.3-0.1C338,164,338.4,163.4,338.8,162.7z
		 M343.2,168.6H338c-0.4-0.5-0.7-1.1-1-1.8l7.4,0.1C344,167.5,343.6,168.1,343.2,168.6z M343.3,155.2c0.1,0.2,0.2,0.4,0.3,0.6
		c-1-0.5-1.8-0.8-2.4-1c-0.1-0.1-0.2-0.1-0.4-0.1c-0.1,0-0.3,0-0.4,0.1c-0.6,0.2-1.4,0.5-2.2,0.9v-0.1l0.1-0.1
		c0.2-0.5,0.7-1.4,1.3-2c0.4-0.4,0.8-0.6,1.2-0.6C341.8,152.9,342.7,153.6,343.3,155.2z"/>
	<path class="st1" d="M370.3,148.8c-1.3,0-2.9,1.1-3.5,2.8c-0.1,0-0.2,0-0.4,0c-0.1,0-0.2,0-0.4,0c-0.5-1.7-2.3-2.8-3.7-2.8
		c-1.3,0-2.2,0.8-2.4,2.2c-0.1,0.4,0.2,0.7,0.6,0.8c0.4,0.1,0.7-0.2,0.8-0.6c0.1-0.7,0.5-1,1.1-1c0.9,0,2.1,0.8,2.4,2
		c-0.2,0.1-0.4,0.3-0.5,0.4c-0.8,0.8-1.3,1.8-1.5,2.4l-0.1,0.1c-0.3,0.6-0.5,1.1-0.7,1.6c-1.2,0.7-2.5,1.6-3.5,2.5
		c-1.2,1.2-1.8,2.4-1.8,3.5c0,1,0.5,1.9,1.4,2.7c0.9,0.8,1.9,1.1,2.8,0.8c0.1,0.3,0.2,0.6,0.3,0.9c1.4,3.7,4.5,5,4.6,5l0.2,0.1
		l0.3-0.1c0.1,0,1.4-0.5,2.8-1.9c1-1,1.9-2.3,2.5-4c0,0,0,0,0.1,0c0.7,0.2,1.8,0.3,3-0.7c0.1-0.1,0.2-0.2,0.3-0.3
		c1-1,1.3-2.1,1.1-3.3c-0.5-2-2.7-3.8-4.9-5.1c-0.2-0.7-0.5-1.4-0.9-2.2c-0.6-1.4-1.4-2.2-2.1-2.6c0.3-1.1,1.4-1.9,2.2-1.9
		c0.5,0,0.8,0.4,0.9,1c0,0.4,0.4,0.6,0.8,0.6c0.2,0,0.3-0.1,0.4-0.2c0.1-0.1,0.2-0.4,0.2-0.6C372.3,149.4,371.2,148.8,370.3,148.8z
		 M374.6,162.3c0.2,0.8-0.1,1.5-0.9,2.2c-0.8,0.7-1.3,0.6-1.7,0.5c0,0-0.1,0-0.1-0.1c-0.4-0.2-0.8-0.5-1.2-1
		c-0.3-0.3-0.5-0.7-0.8-1.1c-0.4-0.7-0.8-1.5-1.1-2.3c-0.3-0.6-0.5-1.2-0.7-1.8c-0.3-0.8-0.5-1.6-0.7-2.2h0.1
		c1.2,0.5,2.8,1.4,4.2,2.3C373.1,159.9,374.3,161.1,374.6,162.3z M359,164.3c-0.6-0.5-0.9-1.1-0.9-1.7c0-0.8,0.4-1.6,1.4-2.5
		c0.5-0.5,1.1-1,1.8-1.5c1.4-1,3-1.7,4.2-2.2l0,0c-0.2,0.6-0.4,1.4-0.7,2.2c-0.2,0.6-0.5,1.2-0.7,1.8c-0.3,0.8-0.7,1.6-1.2,2.2
		c-0.3,0.5-0.6,0.9-0.9,1.2c-0.1,0.1-0.1,0.2-0.2,0.2c-0.4,0.4-0.7,0.6-1,0.7C360.1,165,359.5,164.9,359,164.3z M366.1,158.7h0.5
		c0.2,0.6,0.4,1.2,0.7,1.8h-1.9C365.7,159.9,365.9,159.2,366.1,158.7z M364.3,162.7h4c0.4,0.7,0.7,1.3,1.2,1.8l-6.3-0.1
		C363.6,164,364,163.4,364.3,162.7z M368.7,168.6h-5.2c-0.4-0.5-0.7-1.1-1-1.8l7.4,0.1C369.5,167.5,369.2,168.1,368.7,168.6z
		 M368.9,155.2c0.1,0.2,0.2,0.4,0.3,0.6c-1-0.5-1.8-0.8-2.4-1c-0.1-0.1-0.2-0.1-0.4-0.1c-0.1,0-0.3,0-0.4,0.1
		c-0.6,0.2-1.4,0.5-2.2,0.9v-0.1l0.1-0.1c0.2-0.5,0.7-1.4,1.3-2c0.4-0.4,0.8-0.6,1.2-0.6C367.4,152.9,368.2,153.6,368.9,155.2z"/>
	<path class="st1" d="M395.8,148.8c-1.3,0-2.9,1.1-3.5,2.8c-0.1,0-0.2,0-0.4,0c-0.1,0-0.2,0-0.4,0c-0.5-1.7-2.3-2.8-3.7-2.8
		c-1.3,0-2.2,0.8-2.4,2.2c-0.1,0.4,0.2,0.7,0.6,0.8c0.4,0.1,0.7-0.2,0.8-0.6c0.1-0.7,0.5-1,1.1-1c0.9,0,2.1,0.8,2.4,2
		c-0.2,0.1-0.4,0.3-0.5,0.4c-0.8,0.8-1.3,1.8-1.5,2.4l-0.1,0.1c-0.3,0.6-0.5,1.1-0.7,1.6c-1.2,0.7-2.5,1.6-3.5,2.5
		c-1.2,1.2-1.8,2.4-1.8,3.5c0,1,0.5,1.9,1.4,2.7c0.9,0.8,1.9,1.1,2.8,0.8c0.1,0.3,0.2,0.6,0.3,0.9c1.4,3.7,4.5,5,4.6,5l0.2,0.1
		l0.3-0.1c0.1,0,1.4-0.5,2.8-1.9c1-1,1.9-2.3,2.5-4c0,0,0,0,0.1,0c0.7,0.2,1.8,0.3,3-0.7c0.1-0.1,0.2-0.2,0.3-0.3
		c1-1,1.3-2.1,1.1-3.3c-0.5-2-2.7-3.8-4.9-5.1c-0.2-0.7-0.5-1.4-0.9-2.2c-0.6-1.4-1.4-2.2-2.1-2.6c0.3-1.1,1.4-1.9,2.2-1.9
		c0.5,0,0.8,0.4,0.9,1c0,0.4,0.4,0.6,0.8,0.6c0.2,0,0.3-0.1,0.4-0.2c0.1-0.1,0.2-0.4,0.2-0.6C397.8,149.4,396.8,148.8,395.8,148.8z
		 M400.2,162.3c0.2,0.8-0.1,1.5-0.9,2.2c-0.8,0.7-1.3,0.6-1.7,0.5c0,0-0.1,0-0.1-0.1c-0.4-0.2-0.8-0.5-1.2-1
		c-0.3-0.3-0.5-0.7-0.8-1.1c-0.4-0.7-0.8-1.5-1.1-2.3c-0.3-0.6-0.5-1.2-0.7-1.8c-0.3-0.8-0.5-1.6-0.7-2.2h0.1
		c1.2,0.5,2.8,1.4,4.2,2.3C398.6,159.9,399.9,161.1,400.2,162.3z M384.5,164.3c-0.6-0.5-0.9-1.1-0.9-1.7c0-0.8,0.4-1.6,1.4-2.5
		c0.5-0.5,1.1-1,1.8-1.5c1.4-1,3-1.7,4.2-2.2l0,0c-0.2,0.6-0.4,1.4-0.7,2.2c-0.2,0.6-0.5,1.2-0.7,1.8c-0.3,0.8-0.7,1.6-1.2,2.2
		c-0.3,0.5-0.6,0.9-0.9,1.2c-0.1,0.1-0.1,0.2-0.2,0.2c-0.4,0.4-0.7,0.6-1,0.7C385.6,165,385.1,164.9,384.5,164.3z M391.7,158.7h0.5
		c0.2,0.6,0.4,1.2,0.7,1.8H391C391.2,159.9,391.5,159.2,391.7,158.7z M389.9,162.7h4c0.4,0.7,0.7,1.3,1.2,1.8l-6.3-0.1
		C389.2,164,389.5,163.4,389.9,162.7z M394.3,168.6h-5.2c-0.4-0.5-0.7-1.1-1-1.8l7.4,0.1C395.1,167.5,394.7,168.1,394.3,168.6z
		 M394.5,155.2c0.1,0.2,0.2,0.4,0.3,0.6c-1-0.5-1.8-0.8-2.4-1c-0.1-0.1-0.2-0.1-0.4-0.1c-0.1,0-0.3,0-0.4,0.1
		c-0.6,0.2-1.4,0.5-2.2,0.9v-0.1l0.1-0.1c0.2-0.5,0.7-1.4,1.3-2c0.4-0.4,0.8-0.6,1.2-0.6C392.9,152.9,393.8,153.6,394.5,155.2z"/>
	<g>
		<text transform="matrix(1 0 0 1 300.3416 206.2923)" class="st2 st3 st4">Mobile Game Design</text>
	</g>
	<g>
		<rect x="276" y="219" class="st5" width="180.6" height="51.1"/>
		<text transform="matrix(1 0 0 1 283.808 228.1057)" class="st6 st7 st8">Learn how to design a game for </text>
		<text transform="matrix(1 0 0 1 278.308 241.3057)" class="st6 st7 st8">mobile devices. Sketch, build, and </text>
		<text transform="matrix(1 0 0 1 289.0081 254.5057)" class="st6 st7 st8">animate the entire game from </text>
		<text transform="matrix(1 0 0 1 320.5081 267.7057)" class="st6 st7 st8">beginning to end. </text>
	</g>
	<g>
		<path class="st12" d="M315.8,301.7c-6.4,0-11.6-5.2-11.6-11.6c0-6.4,5.2-11.6,11.6-11.6s11.6,5.2,11.6,11.6
			C327.4,296.5,322.2,301.7,315.8,301.7z M315.8,281c-5,0-9.1,4.1-9.1,9.1s4.1,9.1,9.1,9.1s9.1-4.1,9.1-9.1S320.8,281,315.8,281z"/>
		<g>
			<path class="st12" d="M313.9,285.3c0-1,0.9-1.9,1.9-1.9c1.1,0,1.9,0.8,1.9,1.9c0,1.1-0.8,1.9-1.9,1.9
				C314.8,287.2,313.9,286.4,313.9,285.3z M314.2,296.9V288h3.3v8.9H314.2z"/>
		</g>
	</g>
	<text transform="matrix(1 0 0 1 398.2504 293.7161)" class="st12 st9 st10">2 hours</text>
</g>
<g>
	<g>
		<path class="st13" d="M-96,147L-96,147c-1.9,0-3.5-1.6-3.5-3.5v-3.1h7v3.1C-92.5,145.4-94,147-96,147z"/>
		<path class="st13" d="M-57.7,147L-57.7,147c-1.9,0-3.5-1.6-3.5-3.5v-3.1h7v3.1C-54.2,145.4-55.8,147-57.7,147z"/>
		<g>
			<path class="st13" d="M-71.2,116.2c-1-2.1-3.1-3.6-5.5-3.6c-2.5,0-4.6,1.5-5.6,3.6l-9.9,2.5v2.3h30.5v-2.2l0,0L-71.2,116.2z"/>
		</g>
		<circle class="st13" cx="-58.3" cy="126.5" r="1"/>
		<circle class="st13" cx="-56.3" cy="133.1" r="1"/>
		<circle class="st13" cx="-58" cy="116.9" r="1"/>
		<circle class="st13" cx="-67.6" cy="113.7" r="1"/>
		<circle class="st13" cx="-93.4" cy="128" r="1"/>
		<circle class="st13" cx="-97.2" cy="124.1" r="1"/>
		<circle class="st13" cx="-93.7" cy="116.9" r="1"/>
		<path class="st13" d="M-60.8,136.9c0-0.2,0-0.5-0.1-0.7s-0.1-0.5-0.2-0.7s-0.1-0.5-0.2-0.8s-0.3-0.6-0.5-0.8
			c-0.3-0.5-0.7-0.9-1.1-1.3c-0.4-0.4-0.9-0.7-1.5-0.9c-0.5-0.2-0.9-0.4-1.2-0.4v-8.6h-1.5v11.1c-0.9,1.3-2.1,2.5-3.6,3.3v-14.5H-71
			h-1h-9.7h-0.6h-0.9v14.1c-1.4-0.9-2.7-2.2-3.6-3.7v-10.4h-1.5v8.7c-0.1,0-0.2,0.1-0.4,0.2c-0.3,0.1-0.5,0.2-0.8,0.4
			c-0.7,0.4-1.3,1-1.9,1.6c-0.1,0.2-0.3,0.3-0.4,0.5c-0.2,0.6-0.6,1.1-0.7,1.7c-0.1,0.3-0.1,0.7-0.1,1c0,1.5,0,2.9,0,4.4h31.9
			C-60.8,139.6-60.8,138.3-60.8,136.9z M-72.2,137.7c-1.4,0.6-3,0.9-4.6,0.9c-1.8,0-3.6-0.4-5-1.1v-11c0.9,1.8,2.9,3,5,3
			c1.9,0,3.6-0.9,4.6-2.3V137.7z"/>
	</g>
	<g>
		<polygon class="st13" points="-42.4,111.5 -42.4,118.1 -50.9,121.8 -42.4,125.5 -42.4,131 -32,131 -22.1,131 104,131 104,111.5 		
			"/>
		<text transform="matrix(1 0 0 1 -35.1773 125.936)" class="st14 st9 st4">BEEKEEPER RECOMMENDS</text>
	</g>
</g>
</svg>
