<?xml version="1.0" encoding="utf-8"?>
<!-- Generator: Adobe Illustrator 19.1.0, SVG Export Plug-In . SVG Version: 6.00 Build 0)  -->
<svg version="1.1" id="Layer_1" xmlns="http://www.w3.org/2000/svg" xmlns:xlink="http://www.w3.org/1999/xlink" x="0px" y="0px"
	 viewBox="-367 180.9 223.7 200.1" style="enable-background:new -367 180.9 223.7 200.1;" xml:space="preserve">
<style type="text/css">
	.st0{fill:#8BC53F;}
	.st1{fill:#FFFFFF;}
	.st2{fill:#ECEEEE;}
	.st3{enable-background:new    ;}
	.st4{fill:#767676;}
	.st5{fill:none;}
	.st6{fill:#231F20;}
	.st7{fill:#39A5E1;}
	.st8{fill:#EBEDED;}
</style>
<g>
	<polygon class="st0" points="-199.2,181.2 -311.1,181.2 -332.6,219.9 -177.7,219.9 	"/>
	<polygon class="st1" points="-177.7,219.9 -332.6,219.9 -367,281.8 -311.9,381 -198.4,381 -143.3,281.8 	"/>
</g>
<path class="st2" d="M-251.3,188.8c-1.3,0-2.8,1-3.4,2.7c-0.1,0-0.2,0-0.4,0c-0.1,0-0.2,0-0.4,0c-0.5-1.7-2.2-2.7-3.6-2.7
	c-1.2,0-2.1,0.8-2.3,2.1c-0.1,0.4,0.2,0.7,0.5,0.7c0.4,0.1,0.7-0.2,0.7-0.5c0.1-0.7,0.4-1,1-1c0.9,0,2.1,0.8,2.4,1.9
	c-0.2,0.1-0.4,0.3-0.5,0.4c-0.7,0.7-1.2,1.7-1.5,2.3l-0.1,0.1c-0.3,0.5-0.5,1.1-0.7,1.6c-1.2,0.7-2.4,1.5-3.3,2.4
	c-1.2,1.2-1.8,2.3-1.7,3.4c0,0.9,0.5,1.8,1.4,2.6c0.9,0.8,1.8,1,2.7,0.8c0.1,0.3,0.2,0.6,0.3,0.9c1.4,3.5,4.3,4.8,4.4,4.8l0.2,0.1
	l0.2-0.1c0.1,0,1.4-0.5,2.7-1.8c0.9-0.9,1.8-2.2,2.4-3.9l0,0c0.7,0.2,1.7,0.3,2.9-0.7c0.1-0.1,0.2-0.2,0.3-0.3c0.9-0.9,1.3-2,1-3.2
	c-0.5-1.9-2.6-3.7-4.8-5c-0.2-0.7-0.5-1.4-0.8-2.1c-0.6-1.4-1.3-2.1-2-2.6c0.3-1.1,1.3-1.8,2.1-1.8c0.5,0,0.8,0.4,0.9,1
	c0,0.4,0.4,0.6,0.7,0.6c0.1,0,0.3-0.1,0.4-0.2c0.1-0.1,0.2-0.3,0.2-0.6C-249.4,189.4-250.4,188.8-251.3,188.8z M-247.1,201.8
	c0.2,0.8-0.1,1.5-0.9,2.1s-1.3,0.6-1.6,0.5c0,0-0.1,0-0.1-0.1c-0.4-0.2-0.8-0.5-1.2-1c-0.3-0.3-0.5-0.7-0.8-1.1
	c-0.4-0.7-0.7-1.4-1.1-2.2c-0.2-0.6-0.5-1.2-0.7-1.7c-0.3-0.8-0.5-1.5-0.7-2.2l0,0c1.2,0.5,2.7,1.3,4,2.3
	C-248.6,199.5-247.4,200.7-247.1,201.8z M-262.3,203.8c-0.6-0.5-0.9-1.1-0.9-1.6c0-0.7,0.4-1.6,1.3-2.4c0.5-0.5,1.1-1,1.8-1.4
	c1.4-0.9,2.9-1.7,4-2.2l0,0c-0.2,0.6-0.4,1.3-0.7,2.2c-0.2,0.6-0.4,1.1-0.7,1.7c-0.3,0.8-0.7,1.5-1.1,2.2c-0.3,0.4-0.6,0.8-0.9,1.2
	c-0.1,0.1-0.1,0.2-0.2,0.2c-0.4,0.3-0.7,0.6-1,0.7C-261.2,204.5-261.7,204.3-262.3,203.8z M-255.4,198.4h0.5
	c0.2,0.6,0.4,1.1,0.6,1.7h-1.8C-255.8,199.5-255.6,198.9-255.4,198.4z M-257.1,202.3h3.8c0.3,0.6,0.7,1.2,1.1,1.7l-6.1-0.1
	C-257.8,203.5-257.4,202.9-257.1,202.3z M-252.8,207.9h-5c-0.4-0.5-0.7-1.1-1-1.7l7.1,0.1C-252,206.9-252.4,207.4-252.8,207.9z
	 M-252.7,195c0.1,0.2,0.2,0.4,0.3,0.6c-0.9-0.5-1.8-0.8-2.3-1c-0.1-0.1-0.2-0.1-0.4-0.1c-0.1,0-0.2,0-0.4,0.1
	c-0.6,0.2-1.3,0.5-2.2,0.9v-0.1l0.1-0.1c0.2-0.5,0.6-1.4,1.2-2c0.4-0.4,0.8-0.6,1.2-0.5C-254.1,192.7-253.3,193.5-252.7,195z"/>
<g class="st3">
	<path class="st4" d="M-334.4,244.4l3.4-8.7h2.9l3.4,8.7h-2.7l-0.6-1.7h-3.5l-0.6,1.7H-334.4z M-328.5,241l-1.1-3.6h0l-1.2,3.6
		H-328.5z"/>
	<path class="st4" d="M-319.4,243.5L-319.4,243.5c-0.4,0.7-1.2,1.1-2.1,1.1c-1.7,0-2.5-1.7-2.5-3.2c0-1.6,0.8-3.2,2.6-3.2
		c0.8,0,1.5,0.3,2,0.9h0v-3.3h2.3v8.7h-2.2L-319.4,243.5z M-321.6,241.4c0,0.8,0.2,1.9,1.1,1.9s1.1-1.1,1.1-1.9
		c0-0.8-0.1-1.9-1.1-1.9S-321.6,240.6-321.6,241.4z"/>
	<path class="st4" d="M-309,241.4c0,2.2-1.6,3.2-3.5,3.2s-3.5-1-3.5-3.2s1.6-3.2,3.5-3.2S-309,239.2-309,241.4z M-312.5,243.3
		c1,0,1.2-1,1.2-1.9s-0.2-1.9-1.2-1.9s-1.2,1-1.2,1.9S-313.4,243.3-312.5,243.3z"/>
	<path class="st4" d="M-307.8,235.8h2.3v3.3h0c0.4-0.5,1.2-0.8,1.8-0.8c1.8,0,2.7,1.4,2.7,3.1c0,1.8-0.8,3.3-2.8,3.3
		c-0.7,0-1.5-0.5-1.7-1.1h0l-0.1,0.9h-2.2V235.8z M-305.5,241.5c0,0.7,0.2,1.8,1,1.8c1,0,1.2-1.1,1.2-1.9c0-0.7-0.1-1.8-1.1-1.8
		C-305.4,239.5-305.5,240.7-305.5,241.5z"/>
	<path class="st4" d="M-297.9,241.9c0,0.8,0.2,1.5,1,1.5c0.6,0,1-0.3,1.1-0.9h2.1c-0.1,0.8-0.6,1.3-1.1,1.7
		c-0.5,0.3-1.2,0.5-1.9,0.5c-2.4,0-3.4-1-3.4-3.4c0-1.9,1.4-3,3.2-3c2.4,0,3.2,1.4,3.2,3.6H-297.9z M-295.8,240.6
		c0-0.3-0.1-0.6-0.3-0.9c-0.2-0.3-0.4-0.4-0.8-0.4c-0.8,0-1,0.6-1,1.3H-295.8z"/>
	<path class="st4" d="M-288.3,244.4v-8.7h4c2.1,0,3.5,0.7,3.5,2.8s-1.4,2.8-3.5,2.8h-1.6v3.1H-288.3z M-284.6,239.6
		c0.9,0,1.3-0.5,1.3-1.1s-0.4-1.1-1.3-1.1h-1.2v2.2H-284.6z"/>
	<path class="st4" d="M-279.7,244.4v-8.7h2.3v3.3c0.5-0.6,1.1-0.8,1.9-0.8c1.3,0,2.3,0.8,2.3,2.2v4h-2.3v-3.5c0-0.6-0.2-1.2-0.9-1.2
		c-1.1,0-1,1.2-1,1.3v3.5H-279.7z"/>
	<path class="st4" d="M-265,241.4c0,2.2-1.6,3.2-3.5,3.2s-3.5-1-3.5-3.2s1.6-3.2,3.5-3.2S-265,239.2-265,241.4z M-268.5,243.3
		c1,0,1.2-1,1.2-1.9s-0.2-1.9-1.2-1.9s-1.2,1-1.2,1.9S-269.4,243.3-268.5,243.3z"/>
	<path class="st4" d="M-263.1,238.4v-0.9l2.3-0.9v1.8h1.3v1.4h-1.3v2.4c0,0.2-0.1,0.9,0.4,0.9c0.3,0,0.6,0,0.9,0v1.4
		c-0.5,0.1-0.9,0.1-1.2,0.1c-1.5,0-2.5-0.2-2.4-2.1v-2.7h-1.2v-1.4H-263.1z"/>
	<path class="st4" d="M-251.6,241.4c0,2.2-1.6,3.2-3.5,3.2c-1.9,0-3.5-1-3.5-3.2s1.6-3.2,3.5-3.2
		C-253.3,238.2-251.6,239.2-251.6,241.4z M-255.1,243.3c1,0,1.2-1,1.2-1.9s-0.2-1.9-1.2-1.9s-1.2,1-1.2,1.9
		S-256.1,243.3-255.1,243.3z"/>
	<path class="st4" d="M-247.2,240.3c0-0.2,0-0.4-0.1-0.5c-0.1-0.1-0.3-0.2-0.6-0.2c-0.3,0-0.5,0.2-0.5,0.5c0,0.4,0.9,0.4,2.4,0.9
		c0.7,0.2,1.2,0.7,1.2,1.7c0,1.6-1.5,2-2.9,2c-1.5,0-2.9-0.3-2.9-2.1h2.2c0,0.2,0,0.4,0.2,0.5c0.1,0.2,0.3,0.3,0.5,0.3
		c0.4,0,0.8-0.2,0.8-0.6c0-1.1-3.6-0.4-3.6-2.6c0-1.5,1.6-1.9,2.8-1.9c1.4,0,2.7,0.4,2.8,2H-247.2z"/>
	<path class="st4" d="M-243.7,244.4v-8.7h2.3v3.3c0.5-0.6,1.1-0.8,1.9-0.8c1.3,0,2.3,0.8,2.3,2.2v4h-2.3v-3.5c0-0.6-0.2-1.2-0.9-1.2
		c-1.1,0-1,1.2-1,1.3v3.5H-243.7z"/>
	<path class="st4" d="M-229,241.4c0,2.2-1.6,3.2-3.5,3.2s-3.5-1-3.5-3.2s1.6-3.2,3.5-3.2S-229,239.2-229,241.4z M-232.5,243.3
		c1,0,1.2-1,1.2-1.9s-0.2-1.9-1.2-1.9c-1,0-1.2,1-1.2,1.9S-233.4,243.3-232.5,243.3z"/>
	<path class="st4" d="M-225.5,239.2L-225.5,239.2c0.5-0.7,1.1-1,2-1c1.8,0,2.6,1.5,2.6,3.1c0,1.8-0.9,3.3-2.8,3.3
		c-0.7,0-1.3-0.4-1.7-0.9h0v3h-2.3v-8.3h2.3V239.2z M-225.5,241.4c0,0.8,0.1,1.9,1.1,1.9c1,0,1.1-1.1,1.1-1.9s-0.1-1.9-1.1-1.9
		C-225.4,239.5-225.5,240.6-225.5,241.4z"/>
	<path class="st4" d="M-215.6,244.4v-8.7h4.1c1.6,0,3,0.7,3,2.3c0,1.1-0.9,1.7-1.9,1.9v0c1.2,0.2,2.1,0.9,2.1,2.1
		c0,2.5-3.2,2.4-3.3,2.4H-215.6z M-213.2,239.2l1.2,0c0.6,0,1.1-0.3,1.1-0.9c0-0.5-0.4-0.8-1-0.8h-1.3V239.2z M-211.8,242.7
		c0.6,0,1-0.4,1-0.9c0-0.5-0.3-0.9-0.9-1h-1.6v1.9H-211.8z"/>
	<path class="st4" d="M-203.3,244.4c0-0.2,0-0.4,0-0.8h0c-0.3,0.4-0.8,1-1.9,1c-1.4,0-2.2-0.8-2.1-2c0-1.5,1.4-2.1,3.3-2.1h0.7
		c0-0.5,0.1-1.3-0.8-1.3c-0.6,0-0.7,0.6-0.7,0.9h-2.1c0-0.9,0.4-1.3,1-1.6c0.6-0.3,1.4-0.4,2.1-0.4c1.2,0,2.7,0.5,2.7,1.9v3.1
		c0,0.3,0,0.5,0.1,1.2H-203.3z M-204.4,243.3c1,0,1.1-0.9,1.1-1.7c-0.5,0-0.9,0-1.2,0.1c-0.3,0.2-0.6,0.4-0.6,0.8
		C-205.2,242.9-204.9,243.3-204.4,243.3z"/>
	<path class="st4" d="M-196.5,240.3c0-0.2,0-0.4-0.1-0.5c-0.1-0.1-0.3-0.2-0.6-0.2c-0.3,0-0.5,0.2-0.5,0.5c0,0.4,0.9,0.4,2.4,0.9
		c0.7,0.2,1.2,0.7,1.2,1.7c0,1.6-1.5,2-2.9,2c-1.5,0-2.9-0.3-2.9-2.1h2.2c0,0.2,0,0.4,0.2,0.5c0.1,0.2,0.3,0.3,0.5,0.3
		c0.4,0,0.8-0.2,0.8-0.6c0-1.1-3.6-0.4-3.6-2.6c0-1.5,1.6-1.9,2.8-1.9c1.4,0,2.7,0.4,2.8,2H-196.5z"/>
	<path class="st4" d="M-192.9,237.4v-1.6h2.3v1.6H-192.9z M-192.9,244.4v-6h2.3v6H-192.9z"/>
	<path class="st4" d="M-185.2,240.5c0-0.3,0-0.5-0.2-0.7c-0.1-0.2-0.4-0.3-0.7-0.3c-0.8,0-0.9,1.2-0.9,1.9c0,0.6,0,1.9,0.9,1.9
		c0.8-0.1,0.9-0.7,0.9-1.2h2.3c0,0.9-0.4,1.5-0.9,1.9c-0.6,0.4-1.3,0.6-2.1,0.6c-2.3,0-3.3-1.1-3.3-3.2c0-2.2,1.5-3.2,3.3-3.2
		c1.5,0,3,0.6,3.1,2.3H-185.2z"/>
	<path class="st4" d="M-178.5,240.3c0-0.2,0-0.4-0.1-0.5c-0.1-0.1-0.3-0.2-0.6-0.2c-0.3,0-0.5,0.2-0.5,0.5c0,0.4,0.9,0.4,2.4,0.9
		c0.7,0.2,1.2,0.7,1.2,1.7c0,1.6-1.5,2-2.9,2c-1.5,0-2.9-0.3-2.9-2.1h2.2c0,0.2,0,0.4,0.2,0.5c0.1,0.2,0.3,0.3,0.5,0.3
		c0.4,0,0.8-0.2,0.8-0.6c0-1.1-3.6-0.4-3.6-2.6c0-1.5,1.6-1.9,2.8-1.9c1.4,0,2.7,0.4,2.8,2H-178.5z"/>
</g>
<rect x="-344.5" y="257.7" class="st5" width="174.7" height="51.1"/>
<g class="st3">
	<path class="st6" d="M-340.5,266.1h1.1v-5.8h-1.1v-0.7h3.1c1.5,0,2.9,0.3,2.9,2.1s-1.4,2.2-2.9,2.2h-1.1v2.2h1.3v0.7h-3.4V266.1z
		 M-338.5,263.2h1.1c0.9,0,1.9-0.1,1.9-1.5c0-1.4-0.9-1.4-1.9-1.4h-1.1V263.2z"/>
	<path class="st6" d="M-333.7,266.1h0.9v-5.8h-0.9v-0.7h1.8v3.1h0c0.2-0.6,0.9-1,1.7-1c1.3,0,1.8,0.6,1.8,1.8v2.6h0.9v0.7h-2.6v-0.7
		h0.9v-2.4c0-0.8-0.3-1.3-1.2-1.3c-1,0-1.4,0.7-1.4,1.6v2.1h0.9v0.7h-2.6V266.1z"/>
	<path class="st6" d="M-324.4,261.7c1.6,0,2.6,1,2.6,2.6c0,1.6-1,2.6-2.6,2.6c-1.6,0-2.7-1-2.7-2.6
		C-327,262.6-326,261.7-324.4,261.7z M-324.4,266.2c1.1,0,1.7-0.9,1.7-1.9s-0.5-1.9-1.7-1.9c-1.1,0-1.7,0.9-1.7,1.9
		S-325.5,266.2-324.4,266.2z"/>
	<path class="st6" d="M-317.6,262.5h-1.6v2.9c0,0.4,0.1,0.8,0.6,0.8c0.5,0,0.6-0.5,0.6-0.9h0.8c0,1-0.4,1.7-1.5,1.7
		c-1.3,0-1.3-0.9-1.3-1.9v-2.5h-1v-0.7h1v-1.1l0.9-0.3v1.4h1.6V262.5z"/>
	<path class="st6" d="M-314,261.7c1.6,0,2.6,1,2.6,2.6c0,1.6-1,2.6-2.6,2.6c-1.6,0-2.7-1-2.7-2.6
		C-316.6,262.6-315.6,261.7-314,261.7z M-314,266.2c1.1,0,1.7-0.9,1.7-1.9s-0.5-1.9-1.7-1.9c-1.1,0-1.7,0.9-1.7,1.9
		S-315.1,266.2-314,266.2z"/>
	<path class="st6" d="M-310.3,266.8V265h0.7c0,1,0.8,1.2,1.6,1.2c0.4,0,1-0.2,1-0.8c0-0.7-0.7-0.7-1.3-0.7c-0.9-0.2-2-0.3-2-1.4
		c0-1.1,1-1.6,1.9-1.6c0.6,0,1.3,0.2,1.5,0.7h0v-0.6h0.7v1.7h-0.7c0-0.9-0.6-1.1-1.4-1.1c-0.5,0-1.2,0.1-1.2,0.8
		c0,0.6,0.9,0.6,1.5,0.7c0.9,0.2,1.9,0.3,1.9,1.4c0,1.2-1.1,1.6-2.1,1.6c-0.6,0-1.3-0.2-1.5-0.8h0v0.7H-310.3z"/>
	<path class="st6" d="M-305,266.1h0.9v-5.8h-0.9v-0.7h1.8v3.1h0c0.2-0.6,0.9-1,1.7-1c1.3,0,1.8,0.6,1.8,1.8v2.6h0.9v0.7h-2.6v-0.7
		h0.9v-2.4c0-0.8-0.3-1.3-1.2-1.3c-1,0-1.4,0.7-1.4,1.6v2.1h0.9v0.7h-2.6V266.1z"/>
	<path class="st6" d="M-295.6,261.7c1.6,0,2.6,1,2.6,2.6c0,1.6-1,2.6-2.6,2.6c-1.6,0-2.7-1-2.7-2.6
		C-298.3,262.6-297.2,261.7-295.6,261.7z M-295.6,266.2c1.1,0,1.7-0.9,1.7-1.9s-0.5-1.9-1.7-1.9c-1.1,0-1.7,0.9-1.7,1.9
		S-296.8,266.2-295.6,266.2z"/>
	<path class="st6" d="M-292.3,267.9h0.9v-5.4h-0.9v-0.7h1.8v1h0c0.3-0.6,0.9-1.1,1.7-1.1c1.6,0,2.5,1,2.5,2.6c0,1.6-0.9,2.6-2.5,2.6
		c-0.8,0-1.4-0.4-1.7-1.1h0v2.1h0.9v0.7h-2.7V267.9z M-288.8,266.2c1,0,1.5-0.8,1.5-1.9c0-1-0.5-1.9-1.5-1.9c-1.2,0-1.8,0.9-1.8,1.9
		C-290.5,265.4-290,266.2-288.8,266.2z"/>
	<path class="st6" d="M-282.5,266.1h0.9v-3.6h-0.9v-0.7h1.8v4.3h0.9v0.7h-2.6V266.1z M-280.7,260.6h-1v-1h1V260.6z"/>
	<path class="st6" d="M-279.2,266.8V265h0.7c0,1,0.8,1.2,1.6,1.2c0.4,0,1-0.2,1-0.8c0-0.7-0.7-0.7-1.3-0.7c-0.9-0.2-2-0.3-2-1.4
		c0-1.1,1-1.6,1.9-1.6c0.6,0,1.3,0.2,1.5,0.7h0v-0.6h0.7v1.7h-0.7c0-0.9-0.6-1.1-1.4-1.1c-0.5,0-1.2,0.1-1.2,0.8
		c0,0.6,0.9,0.6,1.5,0.7c0.9,0.2,1.9,0.3,1.9,1.4c0,1.2-1.1,1.6-2.1,1.6c-0.6,0-1.3-0.2-1.5-0.8h0v0.7H-279.2z"/>
	<path class="st6" d="M-267.1,265.7L-267.1,265.7c-0.2,0.8-0.9,1.1-1.7,1.1c-1,0-2-0.4-2-1.6c0-1.5,1.5-1.6,2.7-1.6h1v-0.3
		c0-0.8-0.4-1.1-1.2-1.1c-0.7,0-1.2,0.1-1.3,0.9h-1c0.1-1.2,1.1-1.6,2.2-1.6c1.2,0,2.2,0.3,2.2,1.6v2.9h0.9v0.7h-1.8V265.7z
		 M-268.7,266.2c1.1,0,1.6-0.8,1.6-1.8h-0.8c-0.6,0-1.9,0-1.9,0.9C-269.8,266-269.2,266.2-268.7,266.2z"/>
	<path class="st6" d="M-264.6,266.1h0.9v-3.6h-0.9v-0.7h1.8v0.9h0c0.2-0.6,0.9-1,1.7-1c1.3,0,1.8,0.6,1.8,1.8v2.6h0.9v0.7h-2.6v-0.7
		h0.9v-2.4c0-0.8-0.3-1.3-1.2-1.3c-1,0-1.4,0.7-1.4,1.6v2.1h0.9v0.7h-2.6V266.1z"/>
	<path class="st6" d="M-253.8,264.5c0,1.2,0.6,1.7,1.8,1.7c0.6,0,1.4-0.3,1.4-1h0.8c0,1.2-1.3,1.7-2.4,1.7c-1.6,0-2.7-1-2.7-2.6
		c0-1.6,1-2.6,2.7-2.6c1.8,0,2.4,1.3,2.4,2.9H-253.8z M-250.6,263.8c-0.1-0.9-0.6-1.5-1.6-1.5c-0.9,0-1.6,0.5-1.6,1.5H-250.6z"/>
	<path class="st6" d="M-248.6,266.8V265h0.7c0,1,0.8,1.2,1.6,1.2c0.4,0,1-0.2,1-0.8c0-0.7-0.7-0.7-1.3-0.7c-0.9-0.2-2-0.3-2-1.4
		c0-1.1,1-1.6,1.9-1.6c0.6,0,1.3,0.2,1.5,0.7h0v-0.6h0.7v1.7h-0.7c0-0.9-0.6-1.1-1.4-1.1c-0.5,0-1.2,0.1-1.2,0.8
		c0,0.6,0.9,0.6,1.5,0.7c0.9,0.2,1.9,0.3,1.9,1.4c0,1.2-1.1,1.6-2.1,1.6c-0.6,0-1.3-0.2-1.5-0.8h0v0.7H-248.6z"/>
	<path class="st6" d="M-243.1,266.8V265h0.7c0,1,0.8,1.2,1.6,1.2c0.4,0,1-0.2,1-0.8c0-0.7-0.7-0.7-1.3-0.7c-0.9-0.2-2-0.3-2-1.4
		c0-1.1,1-1.6,1.9-1.6c0.6,0,1.3,0.2,1.5,0.7h0v-0.6h0.7v1.7h-0.7c0-0.9-0.6-1.1-1.4-1.1c-0.5,0-1.2,0.1-1.2,0.8
		c0,0.6,0.9,0.6,1.5,0.7c0.9,0.2,1.9,0.3,1.9,1.4c0,1.2-1.1,1.6-2.1,1.6c-0.6,0-1.3-0.2-1.5-0.8h0v0.7H-243.1z"/>
	<path class="st6" d="M-236.7,264.5c0,1.2,0.6,1.7,1.8,1.7c0.6,0,1.4-0.3,1.4-1h0.8c0,1.2-1.3,1.7-2.4,1.7c-1.6,0-2.7-1-2.7-2.6
		c0-1.6,1-2.6,2.7-2.6c1.8,0,2.4,1.3,2.4,2.9H-236.7z M-233.5,263.8c-0.1-0.9-0.6-1.5-1.6-1.5c-0.9,0-1.6,0.5-1.6,1.5H-233.5z"/>
	<path class="st6" d="M-231.6,266.1h0.9v-3.6h-0.9v-0.7h1.8v0.9h0c0.2-0.6,0.9-1,1.7-1c1.3,0,1.8,0.6,1.8,1.8v2.6h0.9v0.7h-2.6v-0.7
		h0.9v-2.4c0-0.8-0.3-1.3-1.2-1.3c-1,0-1.4,0.7-1.4,1.6v2.1h0.9v0.7h-2.6V266.1z"/>
	<path class="st6" d="M-221.6,262.5h-1.6v2.9c0,0.4,0.1,0.8,0.5,0.8c0.5,0,0.6-0.5,0.6-0.9h0.8c0,1-0.4,1.7-1.5,1.7
		c-1.3,0-1.3-0.9-1.3-1.9v-2.5h-1v-0.7h1v-1.1l0.9-0.3v1.4h1.6V262.5z"/>
	<path class="st6" d="M-220.8,266.1h0.9v-3.6h-0.9v-0.7h1.8v4.3h0.9v0.7h-2.6V266.1z M-219,260.6h-1v-1h1V260.6z"/>
	<path class="st6" d="M-213.9,265.7L-213.9,265.7c-0.2,0.8-0.9,1.1-1.7,1.1c-1,0-2-0.4-2-1.6c0-1.5,1.5-1.6,2.7-1.6h1v-0.3
		c0-0.8-0.4-1.1-1.2-1.1c-0.7,0-1.2,0.1-1.3,0.9h-1c0.1-1.2,1.1-1.6,2.2-1.6c1.2,0,2.2,0.3,2.2,1.6v2.9h0.9v0.7h-1.8V265.7z
		 M-215.5,266.2c1.1,0,1.6-0.8,1.6-1.8h-0.8c-0.6,0-1.9,0-1.9,0.9C-216.6,266-216,266.2-215.5,266.2z"/>
	<path class="st6" d="M-211.6,266.1h0.9v-5.8h-0.9v-0.7h1.8v6.5h0.9v0.7h-2.6V266.1z"/>
	<path class="st6" d="M-202.1,262.5h-1.6v2.9c0,0.4,0.1,0.8,0.6,0.8c0.5,0,0.6-0.5,0.6-0.9h0.8c0,1-0.4,1.7-1.5,1.7
		c-1.3,0-1.3-0.9-1.3-1.9v-2.5h-1v-0.7h1v-1.1l0.9-0.3v1.4h1.6V262.5z"/>
	<path class="st6" d="M-198.4,261.7c1.6,0,2.6,1,2.6,2.6c0,1.6-1,2.6-2.6,2.6c-1.6,0-2.7-1-2.7-2.6
		C-201.1,262.6-200,261.7-198.4,261.7z M-198.4,266.2c1.1,0,1.7-0.9,1.7-1.9s-0.5-1.9-1.7-1.9c-1.1,0-1.7,0.9-1.7,1.9
		S-199.5,266.2-198.4,266.2z"/>
	<path class="st6" d="M-192.3,261.7c1.6,0,2.6,1,2.6,2.6c0,1.6-1,2.6-2.6,2.6s-2.7-1-2.7-2.6C-195,262.6-193.9,261.7-192.3,261.7z
		 M-192.3,266.2c1.1,0,1.7-0.9,1.7-1.9s-0.5-1.9-1.7-1.9s-1.7,0.9-1.7,1.9S-193.4,266.2-192.3,266.2z"/>
	<path class="st6" d="M-189,266.1h0.9v-5.8h-0.9v-0.7h1.8v6.5h0.9v0.7h-2.6V266.1z"/>
	<path class="st6" d="M-182.8,266.1h0.9v-3.6h-0.9v-0.7h1.8v4.3h0.9v0.7h-2.6V266.1z M-181.1,260.6h-1v-1h1V260.6z"/>
	<path class="st6" d="M-179.7,266.1h0.9v-3.6h-0.9v-0.7h1.8v0.9h0c0.2-0.6,0.9-1,1.7-1c1.3,0,1.8,0.6,1.8,1.8v2.6h0.9v0.7h-2.6v-0.7
		h0.9v-2.4c0-0.8-0.3-1.3-1.2-1.3c-1,0-1.4,0.7-1.4,1.6v2.1h0.9v0.7h-2.6V266.1z"/>
</g>
<g class="st3">
	<path class="st6" d="M-336.9,275.7h-1.6v2.9c0,0.4,0.1,0.8,0.6,0.8c0.5,0,0.6-0.5,0.6-0.9h0.8c0,1-0.4,1.7-1.5,1.7
		c-1.3,0-1.3-0.9-1.3-1.9v-2.5h-1V275h1v-1.1l0.9-0.3v1.4h1.6V275.7z"/>
	<path class="st6" d="M-335.9,279.3h0.9v-5.8h-0.9v-0.7h1.8v3.1h0c0.2-0.6,0.9-1,1.7-1c1.3,0,1.8,0.6,1.8,1.8v2.6h0.9v0.7h-2.6v-0.7
		h0.9v-2.4c0-0.8-0.3-1.3-1.2-1.3c-1,0-1.4,0.7-1.4,1.6v2.1h0.9v0.7h-2.6V279.3z"/>
	<path class="st6" d="M-328.1,277.7c0,1.2,0.6,1.7,1.8,1.7c0.6,0,1.4-0.3,1.4-1h0.8c0,1.2-1.3,1.7-2.4,1.7c-1.6,0-2.7-1-2.7-2.6
		c0-1.6,1-2.6,2.7-2.6c1.8,0,2.4,1.3,2.4,2.9H-328.1z M-324.9,277c-0.1-0.9-0.6-1.5-1.6-1.5c-0.9,0-1.6,0.5-1.6,1.5H-324.9z"/>
	<path class="st6" d="M-315.3,276.9h-0.7c-0.1-0.8-0.6-1.3-1.4-1.3c-1.1,0-1.6,0.9-1.6,1.9s0.6,1.9,1.6,1.9c0.7,0,1.3-0.4,1.4-1.1
		h0.8c0,1.2-1.1,1.8-2.2,1.8c-1.6,0-2.6-1-2.6-2.6c0-1.6,1-2.6,2.6-2.6c0.6,0,1.1,0.2,1.4,0.7h0V275h0.7V276.9z"/>
	<path class="st6" d="M-314.5,279.3h0.9v-3.6h-0.9V275h1.8v1h0c0.2-0.8,0.8-1.1,1.5-1.1c0.2,0,0.3,0,0.4,0v0.7
		c-0.1,0-0.3-0.1-0.5-0.1c-1.3,0-1.4,1.3-1.4,2.4v1.4h1v0.7h-2.8V279.3z"/>
	<path class="st6" d="M-309.1,277.7c0,1.2,0.6,1.7,1.8,1.7c0.6,0,1.4-0.3,1.4-1h0.8c0,1.2-1.3,1.7-2.4,1.7c-1.6,0-2.7-1-2.7-2.6
		c0-1.6,1-2.6,2.7-2.6c1.8,0,2.4,1.3,2.4,2.9H-309.1z M-305.9,277c-0.1-0.9-0.6-1.5-1.6-1.5c-0.9,0-1.6,0.5-1.6,1.5H-305.9z"/>
	<path class="st6" d="M-300.4,278.9L-300.4,278.9c-0.2,0.8-0.9,1.1-1.7,1.1c-1,0-2-0.4-2-1.6c0-1.5,1.5-1.6,2.7-1.6h1v-0.3
		c0-0.8-0.4-1.1-1.2-1.1c-0.7,0-1.2,0.1-1.3,0.9h-1c0.1-1.2,1.1-1.6,2.2-1.6c1.2,0,2.2,0.3,2.2,1.6v2.9h0.9v0.7h-1.8V278.9z
		 M-302,279.4c1.1,0,1.6-0.8,1.6-1.8h-0.8c-0.6,0-1.9,0-1.9,0.9C-303.1,279.2-302.5,279.4-302,279.4z"/>
	<path class="st6" d="M-294.7,275.7h-1.6v2.9c0,0.4,0.1,0.8,0.6,0.8c0.5,0,0.6-0.5,0.6-0.9h0.8c0,1-0.4,1.7-1.5,1.7
		c-1.3,0-1.3-0.9-1.3-1.9v-2.5h-1V275h1v-1.1l0.9-0.3v1.4h1.6V275.7z"/>
	<path class="st6" d="M-293.8,279.3h0.9v-3.6h-0.9V275h1.8v4.3h0.9v0.7h-2.6V279.3z M-292,273.8h-1v-1h1V273.8z"/>
	<path class="st6" d="M-285.1,275.7h-0.6l-1.8,4.3h-1.1l-1.7-4.3h-0.6V275h2.5v0.7h-0.9l1.4,3.5l1.4-3.5h-0.9V275h2.4V275.7z"/>
	<path class="st6" d="M-283.4,277.7c0,1.2,0.6,1.7,1.8,1.7c0.6,0,1.4-0.3,1.4-1h0.8c0,1.2-1.3,1.7-2.4,1.7c-1.6,0-2.7-1-2.7-2.6
		c0-1.6,1-2.6,2.7-2.6c1.8,0,2.4,1.3,2.4,2.9H-283.4z M-280.2,277c-0.1-0.9-0.6-1.5-1.6-1.5c-0.9,0-1.6,0.5-1.6,1.5H-280.2z"/>
	<path class="st6" d="M-275.4,279.3h0.9v-3.6h-0.9V275h1.8v1h0c0.2-0.8,0.8-1.1,1.5-1.1c0.2,0,0.3,0,0.4,0v0.7
		c-0.1,0-0.3-0.1-0.5-0.1c-1.3,0-1.4,1.3-1.4,2.4v1.4h1v0.7h-2.8V279.3z"/>
	<path class="st6" d="M-270,277.7c0,1.2,0.6,1.7,1.8,1.7c0.6,0,1.4-0.3,1.4-1h0.8c0,1.2-1.3,1.7-2.4,1.7c-1.6,0-2.7-1-2.7-2.6
		c0-1.6,1-2.6,2.7-2.6c1.8,0,2.4,1.3,2.4,2.9H-270z M-266.8,277c-0.1-0.9-0.6-1.5-1.6-1.5c-0.9,0-1.6,0.5-1.6,1.5H-266.8z"/>
	<path class="st6" d="M-261.2,278.9L-261.2,278.9c-0.2,0.8-0.9,1.1-1.7,1.1c-1,0-2-0.4-2-1.6c0-1.5,1.5-1.6,2.7-1.6h1v-0.3
		c0-0.8-0.4-1.1-1.2-1.1c-0.7,0-1.2,0.1-1.3,0.9h-1c0.1-1.2,1.1-1.6,2.2-1.6c1.2,0,2.2,0.3,2.2,1.6v2.9h0.9v0.7h-1.8V278.9z
		 M-262.8,279.4c1.1,0,1.6-0.8,1.6-1.8h-0.8c-0.6,0-1.9,0-1.9,0.9C-263.9,279.2-263.4,279.4-262.8,279.4z"/>
	<path class="st6" d="M-258.9,279.3h0.9v-5.8h-0.9v-0.7h1.8v6.5h0.9v0.7h-2.6V279.3z"/>
	<path class="st6" d="M-255.9,279.3h0.9v-3.6h-0.9V275h1.8v0.9h0c0.2-0.6,0.8-1,1.6-1c0.8,0,1.3,0.3,1.6,1c0.3-0.6,0.9-1,1.6-1
		c1.2,0,1.8,0.6,1.8,1.7v2.7h0.9v0.7h-2.6v-0.7h0.9v-2.1c0-0.8,0-1.6-1.1-1.6c-1,0-1.3,0.8-1.3,1.6v2.1h0.9v0.7h-2.6v-0.7h0.9v-2.1
		c0-0.9,0-1.6-1.1-1.6c-1,0-1.4,0.8-1.4,1.7v2.1h0.9v0.7h-2.6V279.3z"/>
	<path class="st6" d="M-245.4,278.9h1.1v1.1h-1.1V278.9z"/>
	<path class="st6" d="M-240,279.3h1.1v-5.8h-1.1v-0.7h6.1v2.3h-0.8v-1.6h-3.2v2.5h1.6v-0.9h0.8v2.7h-0.8v-1.1h-1.6v2.6h1.3v0.7h-3.4
		V279.3z"/>
	<path class="st6" d="M-233.2,279.3h0.9v-3.6h-0.9V275h1.8v1h0c0.2-0.8,0.8-1.1,1.5-1.1c0.2,0,0.3,0,0.4,0v0.7
		c-0.1,0-0.3-0.1-0.5-0.1c-1.3,0-1.4,1.3-1.4,2.4v1.4h1v0.7h-2.8V279.3z"/>
	<path class="st6" d="M-226.2,274.9c1.6,0,2.6,1,2.6,2.6c0,1.6-1,2.6-2.6,2.6c-1.6,0-2.7-1-2.7-2.6
		C-228.9,275.8-227.8,274.9-226.2,274.9z M-226.2,279.4c1.1,0,1.7-0.9,1.7-1.9s-0.5-1.9-1.7-1.9c-1.1,0-1.7,0.9-1.7,1.9
		S-227.4,279.4-226.2,279.4z"/>
	<path class="st6" d="M-222.9,279.3h0.9v-3.6h-0.9V275h1.8v0.9h0c0.2-0.6,0.8-1,1.6-1c0.8,0,1.3,0.3,1.6,1c0.3-0.6,0.9-1,1.6-1
		c1.2,0,1.8,0.6,1.8,1.7v2.7h0.9v0.7h-2.6v-0.7h0.9v-2.1c0-0.8,0-1.6-1.1-1.6c-1,0-1.3,0.8-1.3,1.6v2.1h0.9v0.7h-2.6v-0.7h0.9v-2.1
		c0-0.9,0-1.6-1.1-1.6c-1,0-1.4,0.8-1.4,1.7v2.1h0.9v0.7h-2.6V279.3z"/>
	<path class="st6" d="M-208.8,277.7c0,1.2,0.6,1.7,1.8,1.7c0.6,0,1.4-0.3,1.4-1h0.8c0,1.2-1.3,1.7-2.4,1.7c-1.6,0-2.7-1-2.7-2.6
		c0-1.6,1-2.6,2.7-2.6c1.8,0,2.4,1.3,2.4,2.9H-208.8z M-205.6,277c-0.1-0.9-0.6-1.5-1.6-1.5c-0.9,0-1.6,0.5-1.6,1.5H-205.6z"/>
	<path class="st6" d="M-199.5,279L-199.5,279c-0.3,0.6-1,1.1-1.8,1.1c-1.7,0-2.4-1.1-2.4-2.6c0-1.5,0.9-2.6,2.4-2.6
		c0.7,0,1.5,0.4,1.8,1h0v-2.4h-0.9v-0.7h1.8v6.5h0.9v0.7h-1.8V279z M-201.1,275.6c-1.1,0-1.7,0.8-1.7,1.9c0,1,0.5,1.9,1.7,1.9
		c1.1,0,1.6-0.9,1.6-1.9C-199.5,276.4-200,275.6-201.1,275.6z"/>
	<path class="st6" d="M-197.2,279.3h0.9v-3.6h-0.9V275h1.8v4.3h0.9v0.7h-2.6V279.3z M-195.4,273.8h-1v-1h1V273.8z"/>
	<path class="st6" d="M-190.7,275.7h-1.6v2.9c0,0.4,0.1,0.8,0.6,0.8c0.5,0,0.6-0.5,0.6-0.9h0.8c0,1-0.4,1.7-1.5,1.7
		c-1.3,0-1.3-0.9-1.3-1.9v-2.5h-1V275h1v-1.1l0.9-0.3v1.4h1.6V275.7z"/>
	<path class="st6" d="M-189.9,279.3h0.9v-3.6h-0.9V275h1.8v4.3h0.9v0.7h-2.6V279.3z M-188.1,273.8h-1v-1h1V273.8z"/>
	<path class="st6" d="M-186.7,279.3h0.9v-3.6h-0.9V275h1.8v0.9h0c0.2-0.6,0.9-1,1.7-1c1.3,0,1.8,0.6,1.8,1.8v2.6h0.9v0.7h-2.6v-0.7
		h0.9v-2.4c0-0.8-0.3-1.3-1.2-1.3c-1,0-1.4,0.7-1.4,1.6v2.1h0.9v0.7h-2.6V279.3z"/>
	<path class="st6" d="M-173.9,275.7h-0.9v2.7c0,0.8,0.1,1.8-0.3,2.5c-0.4,0.8-1.4,1-2.3,1c-1.1,0-2.4-0.2-2.4-1.5h1
		c0,0.7,0.7,0.8,1.3,0.8c1.3,0,1.7-0.5,1.7-1.8v-0.6h0c-0.3,0.7-1.1,1-1.8,1c-1.5,0-2.4-1-2.4-2.6c0-1.5,0.9-2.5,2.4-2.5
		c0.8,0,1.5,0.3,1.9,1l0,0v0h0V275h1.8V275.7z M-177.3,279.2c1.1,0,1.6-0.8,1.6-1.8c0-1-0.5-1.8-1.6-1.8c-1.2,0-1.8,0.7-1.8,1.8
		C-179,278.4-178.5,279.2-177.3,279.2z"/>
</g>
<g class="st3">
	<path class="st6" d="M-326.8,294.3h0.9v-5.4h-0.9v-0.7h1.8v1h0c0.3-0.6,0.9-1.1,1.7-1.1c1.6,0,2.5,1,2.5,2.6c0,1.6-0.9,2.6-2.5,2.6
		c-0.8,0-1.4-0.4-1.7-1.1h0v2.1h0.9v0.7h-2.7V294.3z M-323.3,292.6c1,0,1.5-0.8,1.5-1.9c0-1-0.5-1.9-1.5-1.9c-1.2,0-1.8,0.9-1.8,1.9
		C-325,291.8-324.5,292.6-323.3,292.6z"/>
	<path class="st6" d="M-319.9,292.5h0.9v-5.8h-0.9V286h1.8v3.1h0c0.2-0.6,0.9-1,1.7-1c1.3,0,1.8,0.6,1.8,1.8v2.6h0.9v0.7h-2.6v-0.7
		h0.9v-2.4c0-0.8-0.3-1.3-1.2-1.3c-1,0-1.4,0.7-1.4,1.6v2.1h0.9v0.7h-2.6V292.5z"/>
	<path class="st6" d="M-310.6,288.1c1.6,0,2.6,1,2.6,2.6c0,1.6-1,2.6-2.6,2.6c-1.6,0-2.7-1-2.7-2.6
		C-313.2,289-312.2,288.1-310.6,288.1z M-310.6,292.6c1.1,0,1.7-0.9,1.7-1.9s-0.5-1.9-1.7-1.9c-1.1,0-1.7,0.9-1.7,1.9
		S-311.7,292.6-310.6,292.6z"/>
	<path class="st6" d="M-303.8,288.9h-1.6v2.9c0,0.4,0.1,0.8,0.6,0.8c0.5,0,0.6-0.5,0.6-0.9h0.8c0,1-0.4,1.7-1.5,1.7
		c-1.3,0-1.3-0.9-1.3-1.9v-2.5h-1v-0.7h1v-1.1l0.9-0.3v1.4h1.6V288.9z"/>
	<path class="st6" d="M-300.2,288.1c1.6,0,2.6,1,2.6,2.6c0,1.6-1,2.6-2.6,2.6c-1.6,0-2.7-1-2.7-2.6
		C-302.8,289-301.8,288.1-300.2,288.1z M-300.2,292.6c1.1,0,1.7-0.9,1.7-1.9s-0.5-1.9-1.7-1.9c-1.1,0-1.7,0.9-1.7,1.9
		S-301.3,292.6-300.2,292.6z"/>
	<path class="st6" d="M-296.5,293.2v-1.7h0.7c0,1,0.8,1.2,1.6,1.2c0.4,0,1-0.2,1-0.8c0-0.7-0.7-0.7-1.3-0.7c-0.9-0.2-2-0.3-2-1.4
		c0-1.1,1-1.6,1.9-1.6c0.6,0,1.3,0.2,1.5,0.7h0v-0.6h0.7v1.7h-0.7c0-0.9-0.6-1.1-1.4-1.1c-0.5,0-1.2,0.1-1.2,0.8
		c0,0.6,0.9,0.6,1.5,0.7c0.9,0.2,1.9,0.3,1.9,1.4c0,1.2-1.1,1.6-2.1,1.6c-0.6,0-1.3-0.2-1.5-0.8h0v0.7H-296.5z"/>
	<path class="st6" d="M-284.8,288.9h-1.6v2.9c0,0.4,0.1,0.8,0.6,0.8c0.5,0,0.6-0.5,0.6-0.9h0.8c0,1-0.4,1.7-1.5,1.7
		c-1.3,0-1.3-0.9-1.3-1.9v-2.5h-1v-0.7h1v-1.1l0.9-0.3v1.4h1.6V288.9z"/>
	<path class="st6" d="M-281.2,288.1c1.6,0,2.6,1,2.6,2.6c0,1.6-1,2.6-2.6,2.6c-1.6,0-2.7-1-2.7-2.6
		C-283.9,289-282.8,288.1-281.2,288.1z M-281.2,292.6c1.1,0,1.7-0.9,1.7-1.9s-0.5-1.9-1.7-1.9c-1.1,0-1.7,0.9-1.7,1.9
		S-282.3,292.6-281.2,292.6z"/>
	<path class="st6" d="M-274.8,292.5h0.9v-3.6h-0.9v-0.7h1.8v0.9h0c0.2-0.6,0.8-1,1.6-1c0.8,0,1.3,0.3,1.6,1c0.3-0.6,0.9-1,1.6-1
		c1.2,0,1.8,0.6,1.8,1.7v2.7h0.9v0.7h-2.6v-0.7h0.9v-2.1c0-0.8,0-1.6-1.1-1.6c-1,0-1.3,0.8-1.3,1.6v2.1h0.9v0.7h-2.6v-0.7h0.9v-2.1
		c0-0.9,0-1.6-1.1-1.6c-1,0-1.4,0.8-1.4,1.7v2.1h0.9v0.7h-2.6V292.5z"/>
	<path class="st6" d="M-261.2,292.1L-261.2,292.1c-0.2,0.8-0.9,1.1-1.7,1.1c-1,0-2-0.4-2-1.6c0-1.5,1.5-1.6,2.7-1.6h1v-0.3
		c0-0.8-0.4-1.1-1.2-1.1c-0.7,0-1.2,0.1-1.3,0.9h-1c0.1-1.2,1.1-1.6,2.2-1.6c1.2,0,2.2,0.3,2.2,1.6v2.9h0.9v0.7h-1.8V292.1z
		 M-262.8,292.6c1.1,0,1.6-0.8,1.6-1.8h-0.8c-0.6,0-1.9,0-1.9,0.9C-263.9,292.4-263.3,292.6-262.8,292.6z"/>
	<path class="st6" d="M-258.9,292.5h0.9v-5.8h-0.9V286h1.8v4.5l2-1.6v0h-0.8v-0.7h2.5v0.7h-0.7l-1.4,1.1l1.6,2.5h0.6v0.7h-2.3v-0.7
		h0.7l-1.2-1.9l-1,0.8v1.1h0.8v0.7h-2.6V292.5z"/>
	<path class="st6" d="M-252.8,292.5h0.9v-3.6h-0.9v-0.7h1.8v4.3h0.9v0.7h-2.6V292.5z M-251,287h-1v-1h1V287z"/>
	<path class="st6" d="M-249.6,292.5h0.9v-3.6h-0.9v-0.7h1.8v0.9h0c0.2-0.6,0.9-1,1.7-1c1.3,0,1.8,0.6,1.8,1.8v2.6h0.9v0.7h-2.6v-0.7
		h0.9v-2.4c0-0.8-0.3-1.3-1.2-1.3c-1,0-1.4,0.7-1.4,1.6v2.1h0.9v0.7h-2.6V292.5z"/>
	<path class="st6" d="M-236.9,288.9h-0.9v2.7c0,0.8,0.1,1.8-0.3,2.5c-0.4,0.8-1.4,1-2.3,1c-1.1,0-2.4-0.2-2.4-1.5h1
		c0,0.7,0.7,0.8,1.3,0.8c1.3,0,1.7-0.5,1.7-1.8v-0.6h0c-0.3,0.7-1.1,1-1.8,1c-1.5,0-2.4-1-2.4-2.6c0-1.5,0.9-2.5,2.4-2.5
		c0.8,0,1.5,0.3,1.9,1l0,0v0h0v-0.9h1.8V288.9z M-240.3,292.4c1.1,0,1.6-0.8,1.6-1.8c0-1-0.5-1.8-1.6-1.8c-1.2,0-1.8,0.7-1.8,1.8
		C-241.9,291.6-241.4,292.4-240.3,292.4z"/>
	<path class="st6" d="M-233.3,292.5h0.9v-5.8h-0.9V286h1.8v3.1h0c0.3-0.6,1.1-1,1.7-1c1.6,0,2.5,1,2.5,2.6c0,1.6-0.9,2.6-2.5,2.6
		c-0.7,0-1.5-0.4-1.7-1.1h0v1h-1.8V292.5z M-229.7,292.6c1,0,1.5-0.8,1.5-1.9c0-1-0.5-1.9-1.5-1.9c-1.2,0-1.8,0.9-1.8,1.9
		C-231.5,291.8-230.9,292.6-229.7,292.6z"/>
	<path class="st6" d="M-225.3,290.9c0,1.2,0.6,1.7,1.8,1.7c0.6,0,1.4-0.3,1.4-1h0.8c0,1.2-1.3,1.7-2.4,1.7c-1.6,0-2.7-1-2.7-2.6
		c0-1.6,1-2.6,2.7-2.6c1.8,0,2.4,1.3,2.4,2.9H-225.3z M-222.1,290.2c-0.1-0.9-0.6-1.5-1.6-1.5c-0.9,0-1.6,0.5-1.6,1.5H-222.1z"/>
	<path class="st6" d="M-216.6,292.1L-216.6,292.1c-0.2,0.8-0.9,1.1-1.7,1.1c-1,0-2-0.4-2-1.6c0-1.5,1.5-1.6,2.7-1.6h1v-0.3
		c0-0.8-0.4-1.1-1.2-1.1c-0.7,0-1.2,0.1-1.3,0.9h-1c0.1-1.2,1.1-1.6,2.2-1.6c1.2,0,2.2,0.3,2.2,1.6v2.9h0.9v0.7h-1.8V292.1z
		 M-218.2,292.6c1.1,0,1.6-0.8,1.6-1.8h-0.8c-0.6,0-1.9,0-1.9,0.9C-219.3,292.4-218.7,292.6-218.2,292.6z"/>
	<path class="st6" d="M-209.1,292.5h0.9v0.7h-1.8v-0.9h0c-0.2,0.6-0.9,1-1.6,1c-1.3,0-1.8-0.6-1.8-1.8v-2.6h-0.9v-0.7h1.8v3.1
		c0,0.8,0.3,1.3,1.2,1.3c1,0,1.4-0.7,1.4-1.6v-2.1h-0.9v-0.7h1.8V292.5z"/>
	<path class="st6" d="M-204.1,288.9h-1.6v2.9c0,0.4,0.1,0.8,0.6,0.8c0.5,0,0.6-0.5,0.6-0.9h0.8c0,1-0.4,1.7-1.5,1.7
		c-1.3,0-1.3-0.9-1.3-1.9v-2.5h-1v-0.7h1v-1.1l0.9-0.3v1.4h1.6V288.9z"/>
	<path class="st6" d="M-203.3,292.5h0.9v-3.6h-0.9v-0.7h1.8v4.3h0.9v0.7h-2.6V292.5z M-201.5,287h-1v-1h1V287z"/>
	<path class="st6" d="M-200.2,292.5h0.9v-3.6h-1v-0.7h1v-0.5c0-1.2,0.5-1.7,1.8-1.7c0.3,0,0.5,0.1,0.8,0.1v0.7
		c-0.3,0-0.6-0.1-0.9-0.1c-0.8,0-0.9,0.5-0.9,1v0.5h1.2v0.7h-1.2v3.6h1.1v0.7h-2.9V292.5z"/>
	<path class="st6" d="M-191.4,292.5h0.9v0.7h-1.8v-0.9h0c-0.2,0.6-0.9,1-1.6,1c-1.3,0-1.8-0.6-1.8-1.8v-2.6h-0.9v-0.7h1.8v3.1
		c0,0.8,0.3,1.3,1.2,1.3c1,0,1.4-0.7,1.4-1.6v-2.1h-0.9v-0.7h1.8V292.5z"/>
	<path class="st6" d="M-189.8,292.5h0.9v-5.8h-0.9V286h1.8v6.5h0.9v0.7h-2.6V292.5z"/>
</g>
<g class="st3">
	<path class="st6" d="M-332,303.3h-0.7c-0.1-0.8-0.6-1.3-1.4-1.3c-1.1,0-1.6,0.9-1.6,1.9s0.6,1.9,1.6,1.9c0.7,0,1.3-0.4,1.4-1.1h0.8
		c0,1.2-1.1,1.8-2.2,1.8c-1.6,0-2.6-1-2.6-2.6c0-1.6,1-2.6,2.6-2.6c0.6,0,1.1,0.2,1.4,0.7h0v-0.6h0.7V303.3z"/>
	<path class="st6" d="M-328.6,301.3c1.6,0,2.6,1,2.6,2.6c0,1.6-1,2.6-2.6,2.6c-1.6,0-2.7-1-2.7-2.6
		C-331.3,302.2-330.2,301.3-328.6,301.3z M-328.6,305.8c1.1,0,1.7-0.9,1.7-1.9s-0.5-1.9-1.7-1.9c-1.1,0-1.7,0.9-1.7,1.9
		S-329.7,305.8-328.6,305.8z"/>
	<path class="st6" d="M-325.2,305.7h0.9v-3.6h-0.9v-0.7h1.8v0.9h0c0.2-0.6,0.8-1,1.6-1c0.8,0,1.3,0.3,1.6,1c0.3-0.6,0.9-1,1.6-1
		c1.2,0,1.8,0.6,1.8,1.7v2.7h0.9v0.7h-2.6v-0.7h0.9v-2.1c0-0.8,0-1.6-1.1-1.6c-1,0-1.3,0.8-1.3,1.6v2.1h0.9v0.7h-2.6v-0.7h0.9v-2.1
		c0-0.9,0-1.6-1.1-1.6c-1,0-1.4,0.8-1.4,1.7v2.1h0.9v0.7h-2.6V305.7z"/>
	<path class="st6" d="M-315.5,307.5h0.9v-5.4h-0.9v-0.7h1.8v1h0c0.3-0.6,0.9-1.1,1.7-1.1c1.6,0,2.5,1,2.5,2.6c0,1.6-0.9,2.6-2.5,2.6
		c-0.8,0-1.4-0.4-1.7-1.1h0v2.1h0.9v0.7h-2.7V307.5z M-312,305.8c1,0,1.5-0.8,1.5-1.9c0-1-0.5-1.9-1.5-1.9c-1.2,0-1.8,0.9-1.8,1.9
		C-313.7,305-313.2,305.8-312,305.8z"/>
	<path class="st6" d="M-306,301.3c1.6,0,2.6,1,2.6,2.6c0,1.6-1,2.6-2.6,2.6c-1.6,0-2.7-1-2.7-2.6
		C-308.7,302.2-307.6,301.3-306,301.3z M-306,305.8c1.1,0,1.7-0.9,1.7-1.9s-0.5-1.9-1.7-1.9c-1.1,0-1.7,0.9-1.7,1.9
		S-307.1,305.8-306,305.8z"/>
	<path class="st6" d="M-302.3,306.4v-1.7h0.7c0,1,0.8,1.2,1.6,1.2c0.4,0,1-0.2,1-0.8c0-0.7-0.7-0.7-1.3-0.7c-0.9-0.2-2-0.3-2-1.4
		c0-1.1,1-1.6,1.9-1.6c0.6,0,1.3,0.2,1.5,0.7h0v-0.6h0.7v1.7h-0.7c0-0.9-0.6-1.1-1.4-1.1c-0.5,0-1.2,0.1-1.2,0.8
		c0,0.6,0.9,0.6,1.5,0.7c0.9,0.2,1.9,0.3,1.9,1.4c0,1.2-1.1,1.6-2.1,1.6c-0.6,0-1.3-0.2-1.5-0.8h0v0.7H-302.3z"/>
	<path class="st6" d="M-297.1,305.7h0.9v-3.6h-0.9v-0.7h1.8v4.3h0.9v0.7h-2.6V305.7z M-295.4,300.2h-1v-1h1V300.2z"/>
	<path class="st6" d="M-290.7,302.1h-1.6v2.9c0,0.4,0.1,0.8,0.6,0.8c0.5,0,0.6-0.5,0.6-0.9h0.8c0,1-0.4,1.7-1.5,1.7
		c-1.3,0-1.3-0.9-1.3-1.9v-2.5h-1v-0.7h1v-1.1l0.9-0.3v1.4h1.6V302.1z"/>
	<path class="st6" d="M-289.8,305.7h0.9v-3.6h-0.9v-0.7h1.8v4.3h0.9v0.7h-2.6V305.7z M-288,300.2h-1v-1h1V300.2z"/>
	<path class="st6" d="M-284,301.3c1.6,0,2.6,1,2.6,2.6c0,1.6-1,2.6-2.6,2.6c-1.6,0-2.7-1-2.7-2.6
		C-286.6,302.2-285.6,301.3-284,301.3z M-284,305.8c1.1,0,1.7-0.9,1.7-1.9s-0.5-1.9-1.7-1.9c-1.1,0-1.7,0.9-1.7,1.9
		S-285.1,305.8-284,305.8z"/>
	<path class="st6" d="M-280.5,305.7h0.9v-3.6h-0.9v-0.7h1.8v0.9h0c0.2-0.6,0.9-1,1.7-1c1.3,0,1.8,0.6,1.8,1.8v2.6h0.9v0.7h-2.6v-0.7
		h0.9v-2.4c0-0.8-0.3-1.3-1.2-1.3c-1,0-1.4,0.7-1.4,1.6v2.1h0.9v0.7h-2.6V305.7z"/>
	<path class="st6" d="M-273.6,306.4v-1.7h0.7c0,1,0.8,1.2,1.6,1.2c0.4,0,1-0.2,1-0.8c0-0.7-0.7-0.7-1.3-0.7c-0.9-0.2-2-0.3-2-1.4
		c0-1.1,1-1.6,1.9-1.6c0.6,0,1.3,0.2,1.5,0.7h0v-0.6h0.7v1.7h-0.7c0-0.9-0.6-1.1-1.4-1.1c-0.5,0-1.2,0.1-1.2,0.8
		c0,0.6,0.9,0.6,1.5,0.7c0.9,0.2,1.9,0.3,1.9,1.4c0,1.2-1.1,1.6-2.1,1.6c-0.6,0-1.3-0.2-1.5-0.8h0v0.7H-273.6z"/>
	<path class="st6" d="M-267.7,305.3h1.1v1.1l-0.5,1.4h-0.6l0.5-1.4h-0.5V305.3z"/>
	<path class="st6" d="M-262.3,305.7h0.9v-3.6h-0.9v-0.7h1.8v4.3h0.9v0.7h-2.6V305.7z M-260.5,300.2h-1v-1h1V300.2z"/>
	<path class="st6" d="M-255.8,302.1h-1.6v2.9c0,0.4,0.1,0.8,0.6,0.8c0.5,0,0.6-0.5,0.6-0.9h0.8c0,1-0.4,1.7-1.5,1.7
		c-1.3,0-1.3-0.9-1.3-1.9v-2.5h-1v-0.7h1v-1.1l0.9-0.3v1.4h1.6V302.1z"/>
	<path class="st6" d="M-251.9,305.7h0.9v-3.6h-0.9v-0.7h1.8v4.3h0.9v0.7h-2.6V305.7z M-250.1,300.2h-1v-1h1V300.2z"/>
	<path class="st6" d="M-248.5,306.4v-1.7h0.7c0,1,0.8,1.2,1.6,1.2c0.4,0,1-0.2,1-0.8c0-0.7-0.7-0.7-1.3-0.7c-0.9-0.2-2-0.3-2-1.4
		c0-1.1,1-1.6,1.9-1.6c0.6,0,1.3,0.2,1.5,0.7h0v-0.6h0.7v1.7h-0.7c0-0.9-0.6-1.1-1.4-1.1c-0.5,0-1.2,0.1-1.2,0.8
		c0,0.6,0.9,0.6,1.5,0.7c0.9,0.2,1.9,0.3,1.9,1.4c0,1.2-1.1,1.6-2.1,1.6c-0.6,0-1.3-0.2-1.5-0.8h0v0.7H-248.5z"/>
	<path class="st6" d="M-236.5,305.3L-236.5,305.3c-0.2,0.8-0.9,1.1-1.7,1.1c-1,0-2-0.4-2-1.6c0-1.5,1.5-1.6,2.7-1.6h1V303
		c0-0.8-0.4-1.1-1.2-1.1c-0.7,0-1.2,0.1-1.3,0.9h-1c0.1-1.2,1.1-1.6,2.2-1.6c1.2,0,2.2,0.3,2.2,1.6v2.9h0.9v0.7h-1.8V305.3z
		 M-238.1,305.8c1.1,0,1.6-0.8,1.6-1.8h-0.8c-0.6,0-1.9,0-1.9,0.9C-239.2,305.6-238.6,305.8-238.1,305.8z"/>
	<path class="st6" d="M-224.9,302.1h-0.9v2.7c0,0.8,0.1,1.8-0.3,2.5c-0.4,0.8-1.4,1-2.3,1c-1.1,0-2.4-0.2-2.4-1.5h1
		c0,0.7,0.7,0.8,1.3,0.8c1.3,0,1.7-0.5,1.7-1.8v-0.6h0c-0.3,0.7-1.1,1-1.8,1c-1.5,0-2.4-1-2.4-2.6c0-1.5,0.9-2.5,2.4-2.5
		c0.8,0,1.5,0.3,1.9,1l0,0v0h0v-0.9h1.8V302.1z M-228.4,305.6c1.1,0,1.6-0.8,1.6-1.8c0-1-0.5-1.8-1.6-1.8c-1.2,0-1.8,0.7-1.8,1.8
		C-230,304.8-229.5,305.6-228.4,305.6z"/>
	<path class="st6" d="M-224.3,305.7h0.9v-3.6h-0.9v-0.7h1.8v1h0c0.2-0.8,0.8-1.1,1.5-1.1c0.2,0,0.3,0,0.4,0v0.7
		c-0.1,0-0.3-0.1-0.5-0.1c-1.3,0-1.4,1.3-1.4,2.4v1.4h1v0.7h-2.8V305.7z"/>
	<path class="st6" d="M-218.9,304.1c0,1.2,0.6,1.7,1.8,1.7c0.6,0,1.4-0.3,1.4-1h0.8c0,1.2-1.3,1.7-2.4,1.7c-1.6,0-2.7-1-2.7-2.6
		c0-1.6,1-2.6,2.7-2.6c1.8,0,2.4,1.3,2.4,2.9H-218.9z M-215.7,303.4c-0.1-0.9-0.6-1.5-1.6-1.5c-0.9,0-1.6,0.5-1.6,1.5H-215.7z"/>
	<path class="st6" d="M-210.2,305.3L-210.2,305.3c-0.2,0.8-0.9,1.1-1.7,1.1c-1,0-2-0.4-2-1.6c0-1.5,1.5-1.6,2.7-1.6h1V303
		c0-0.8-0.4-1.1-1.2-1.1c-0.7,0-1.2,0.1-1.3,0.9h-1c0.1-1.2,1.1-1.6,2.2-1.6c1.2,0,2.2,0.3,2.2,1.6v2.9h0.9v0.7h-1.8V305.3z
		 M-211.8,305.8c1.1,0,1.6-0.8,1.6-1.8h-0.8c-0.6,0-1.9,0-1.9,0.9C-212.9,305.6-212.3,305.8-211.8,305.8z"/>
	<path class="st6" d="M-204.5,302.1h-1.6v2.9c0,0.4,0.1,0.8,0.6,0.8c0.5,0,0.6-0.5,0.6-0.9h0.8c0,1-0.4,1.7-1.5,1.7
		c-1.3,0-1.3-0.9-1.3-1.9v-2.5h-1v-0.7h1v-1.1l0.9-0.3v1.4h1.6V302.1z"/>
	<path class="st6" d="M-197.1,302.1h-1.6v2.9c0,0.4,0.1,0.8,0.6,0.8c0.5,0,0.6-0.5,0.6-0.9h0.8c0,1-0.4,1.7-1.5,1.7
		c-1.3,0-1.3-0.9-1.3-1.9v-2.5h-1v-0.7h1v-1.1l0.9-0.3v1.4h1.6V302.1z"/>
	<path class="st6" d="M-193.5,301.3c1.6,0,2.6,1,2.6,2.6c0,1.6-1,2.6-2.6,2.6s-2.7-1-2.7-2.6C-196.2,302.2-195.1,301.3-193.5,301.3z
		 M-193.5,305.8c1.1,0,1.7-0.9,1.7-1.9s-0.5-1.9-1.7-1.9s-1.7,0.9-1.7,1.9S-194.6,305.8-193.5,305.8z"/>
	<path class="st6" d="M-187.4,301.3c1.6,0,2.6,1,2.6,2.6c0,1.6-1,2.6-2.6,2.6c-1.6,0-2.7-1-2.7-2.6
		C-190,302.2-189,301.3-187.4,301.3z M-187.4,305.8c1.1,0,1.7-0.9,1.7-1.9s-0.5-1.9-1.7-1.9c-1.1,0-1.7,0.9-1.7,1.9
		S-188.5,305.8-187.4,305.8z"/>
	<path class="st6" d="M-184,305.7h0.9v-5.8h-0.9v-0.7h1.8v6.5h0.9v0.7h-2.6V305.7z"/>
	<path class="st6" d="M-178.8,304.7h-0.7l-0.2-5.5h1.1L-178.8,304.7z M-179.6,305.3h1v1h-1V305.3z"/>
</g>
<g>
	<path class="st0" d="M-283.6,370.2c-7.2,0-13-5.8-13-13c0-7.2,5.8-13,13-13c7.2,0,13,5.8,13,13
		C-270.6,364.4-276.4,370.2-283.6,370.2z M-283.6,346.9c-5.7,0-10.3,4.6-10.3,10.3c0,5.7,4.6,10.3,10.3,10.3
		c5.7,0,10.3-4.6,10.3-10.3C-273.3,351.5-277.9,346.9-283.6,346.9z"/>
	<g>
		<path class="st0" d="M-285.7,351.7c0-1.2,1-2.2,2.1-2.2c1.2,0,2.2,0.9,2.2,2.1c0,1.2-0.9,2.2-2.2,2.2
			C-284.8,353.8-285.7,352.9-285.7,351.7z M-285.4,364.8v-10h3.7v10H-285.4z"/>
	</g>
</g>
<g>
	<path class="st7" d="M-224.3,342.4h-12.9c-1.1,0-2.1,0.6-2.7,1.6l-6.5,11.8c-0.5,0.9-0.5,2,0,3l6.4,11.6c0.5,1,1.6,1.6,2.7,1.6
		h13.1c1.1,0,2.1-0.6,2.7-1.6l6.4-11.6c0.5-0.9,0.5-2,0-3l-6.5-11.8C-222.2,343-223.2,342.4-224.3,342.4z"/>
	<g>
		<g>
			<path class="st8" d="M-233.8,348.3l-0.9,0.9c-0.3,0.3-0.4,0.7-0.4,1.1c0,0.4,0.1,0.8,0.4,1.1l5.9,5.9l-5.9,5.9
				c-0.3,0.3-0.4,0.7-0.4,1.1c0,0.4,0.1,0.8,0.4,1.1l0.9,0.9c0.3,0.3,0.7,0.5,1.1,0.5c0.4,0,0.8-0.2,1.1-0.5l7.8-7.8
				c0.3-0.3,0.5-0.7,0.5-1.1c0-0.4-0.2-0.8-0.5-1.1l-7.8-7.8c-0.3-0.3-0.7-0.4-1.1-0.4C-233.1,347.8-233.5,348-233.8,348.3
				L-233.8,348.3z"/>
		</g>
	</g>
</g>
<g class="st3">
	<path class="st0" d="M-294.4,327.1v-1c2.4-3.4,3.2-4,3.2-5.5c0-0.7-0.3-1.1-1-1.1c-0.8,0-1,0.7-1,1.4h-1.1c-0.1-1.4,0.6-2.3,2-2.3
		c1.5,0,2.2,0.7,2.2,2.2c0,1.9-0.9,2.5-3.1,5.3h3.3v1H-294.4z"/>
	<path class="st0" d="M-285,327.1h-1v-8.7h1v3.2h0c0.3-0.5,0.8-0.7,1.3-0.7c2,0,2,1.7,2,3.2c0,2.7-1,3-2,3c-0.6,0-1.1-0.3-1.4-0.8h0
		V327.1z M-283.9,326.4c1.2,0,1.2-1.3,1.2-2.2c0-1.6-0.1-2.5-1.2-2.5c-1.1,0-1.1,1.3-1.1,2.1C-285,324.7-285.1,326.4-283.9,326.4z"
		/>
	<path class="st0" d="M-277,326.2L-277,326.2c-0.3,0.7-0.8,1-1.5,1c-1.3,0-1.7-0.8-1.7-2c0-1.8,1.8-1.9,3.2-1.9c0-0.8,0-1.7-1-1.7
		c-0.7,0-1,0.4-0.9,1.1h-1.1c0-1.4,0.8-1.8,2.1-1.8c1.6,0,2,0.8,2,1.8v2.9c0,0.5,0,1,0.1,1.4h-1.1V326.2z M-279.2,325.3
		c0,0.6,0.3,1.1,0.9,1.1c0.6,0,1.3-0.4,1.2-2.3C-277.9,324.1-279.2,324-279.2,325.3z"/>
	<path class="st0" d="M-270.9,318.4h1v8.7h-1v-0.7h0c-0.3,0.6-0.8,0.8-1.4,0.8c-1,0-2-0.4-2-3c0-1.5,0-3.2,2-3.2
		c0.6,0,1,0.3,1.3,0.7h0V318.4z M-272,321.7c-1.1,0-1.2,0.8-1.2,2.5c0,0.9,0,2.2,1.2,2.2c1.1,0,1.1-1.4,1.1-2.6
		C-270.9,323-271,321.7-272,321.7z"/>
	<path class="st0" d="M-264.9,321h1v6.7c0,1.4-0.9,1.7-2.2,1.7c-1,0-1.9-0.5-1.8-1.6h1.1c0,0.6,0.4,0.9,0.9,0.9c0.7,0,1.1-0.4,1.1-1
		v-1.3h0c-0.3,0.5-0.8,0.8-1.3,0.8c-1.6,0-2-1.4-2-3.2c0-2.8,1.4-3,1.9-3c0.6,0,1.1,0.3,1.4,0.9h0V321z M-266.1,321.7
		c-1.1,0-1.2,1.3-1.2,2.1c0,1.9,0.4,2.4,1.2,2.4c1.2,0,1.2-1.4,1.2-2.2C-264.9,323.1-264.8,321.7-266.1,321.7z"/>
	<path class="st0" d="M-261.1,324.4c0,1.7,0.5,2,1.2,2c0.7,0,1-0.5,1.1-1.2h1.1c0,1.3-0.8,2-2.1,2c-1.3,0-2.3-0.4-2.3-3.1
		c0-1.8,0.2-3.2,2.3-3.2c1.7,0,2.2,0.9,2.2,3v0.5H-261.1z M-258.8,323.6c0-1.8-0.5-2-1.2-2c-0.6,0-1.1,0.3-1.2,2H-258.8z"/>
	<path class="st0" d="M-254.3,327.2c-1.3,0-2.1-0.6-2.1-2h1.1c0,0.3,0,1.2,1,1.2c0.6,0,1-0.3,1-0.9c0-1.1-3-1.1-3-2.9
		c0-0.6,0.4-1.7,2.1-1.7c1.1,0,2,0.5,1.9,1.7h-1.1c0-0.6-0.3-1-0.9-1c-0.5,0-0.9,0.3-0.9,0.8c0,1.1,3,1,3,2.9
		C-252.2,326.7-253.1,327.2-254.3,327.2z"/>
	<path class="st0" d="M-247.2,324.4c0,1.7,0.5,2,1.2,2c0.7,0,1-0.5,1.1-1.2h1.1c0,1.3-0.8,2-2.1,2c-1.3,0-2.3-0.4-2.3-3.1
		c0-1.8,0.2-3.2,2.3-3.2c1.7,0,2.2,0.9,2.2,3v0.5H-247.2z M-244.8,323.6c0-1.8-0.5-2-1.2-2c-0.6,0-1.1,0.3-1.2,2H-244.8z"/>
	<path class="st0" d="M-239,326.2L-239,326.2c-0.3,0.7-0.8,1-1.5,1c-1.3,0-1.7-0.8-1.7-2c0-1.8,1.8-1.9,3.2-1.9c0-0.8,0-1.7-1-1.7
		c-0.7,0-1,0.4-0.9,1.1h-1.1c0-1.4,0.8-1.8,2.1-1.8c1.6,0,2,0.8,2,1.8v2.9c0,0.5,0,1,0.1,1.4h-1.1V326.2z M-241.2,325.3
		c0,0.6,0.3,1.1,0.9,1.1c0.6,0,1.3-0.4,1.2-2.3C-240,324.1-241.2,324-241.2,325.3z"/>
	<path class="st0" d="M-235.1,322L-235.1,322c0.4-0.9,0.9-1,1.9-1v1c-0.2,0-0.3-0.1-0.5-0.1c-1.1,0-1.4,0.8-1.4,1.6v3.6h-1V321h1
		V322z"/>
	<path class="st0" d="M-228.8,327.1v-4.2c0-0.6-0.2-1.2-1.1-1.2c-1.1,0-1.2,1-1.2,1.8v3.6h-1v-4.8c0-0.4,0-0.8-0.1-1.3h1v0.8h0
		c0.4-0.7,0.8-0.9,1.6-0.9c1.3,0,1.6,0.8,1.6,2v4.2H-228.8z"/>
	<path class="st0" d="M-225.2,324.4c0,1.7,0.5,2,1.2,2c0.7,0,1-0.5,1.1-1.2h1.1c0,1.3-0.8,2-2.1,2c-1.3,0-2.3-0.4-2.3-3.1
		c0-1.8,0.2-3.2,2.3-3.2c1.7,0,2.2,0.9,2.2,3v0.5H-225.2z M-222.8,323.6c0-1.8-0.5-2-1.2-2c-0.6,0-1.1,0.3-1.2,2H-222.8z"/>
	<path class="st0" d="M-216.9,318.4h1v8.7h-1v-0.7h0c-0.3,0.6-0.8,0.8-1.4,0.8c-1,0-2-0.4-2-3c0-1.5,0-3.2,2-3.2
		c0.6,0,1,0.3,1.3,0.7h0V318.4z M-218.1,321.7c-1.1,0-1.2,0.8-1.2,2.5c0,0.9,0,2.2,1.2,2.2c1.1,0,1.1-1.4,1.1-2.6
		C-216.9,323-217,321.7-218.1,321.7z"/>
</g>
<g>
	<polygon class="st0" points="-199.2,180.9 -311.1,180.9 -332.6,219.6 -177.7,219.6 	"/>
	<polygon class="st1" points="-177.7,219.6 -332.6,219.6 -367,281.5 -311.9,380.7 -198.4,380.7 -143.3,281.5 	"/>
</g>
<path class="st2" d="M-251.3,188.5c-1.3,0-2.8,1-3.4,2.7c-0.1,0-0.2,0-0.4,0c-0.1,0-0.2,0-0.4,0c-0.5-1.7-2.2-2.7-3.6-2.7
	c-1.2,0-2.1,0.8-2.3,2.1c-0.1,0.4,0.2,0.7,0.5,0.7c0.4,0.1,0.7-0.2,0.7-0.5c0.1-0.7,0.4-1,1-1c0.9,0,2.1,0.8,2.4,1.9
	c-0.2,0.1-0.4,0.3-0.5,0.4c-0.7,0.7-1.2,1.7-1.5,2.3l-0.1,0.1c-0.3,0.5-0.5,1.1-0.7,1.6c-1.2,0.7-2.4,1.5-3.3,2.4
	c-1.2,1.2-1.8,2.3-1.7,3.4c0,0.9,0.5,1.8,1.4,2.6c0.9,0.8,1.8,1,2.7,0.8c0.1,0.3,0.2,0.6,0.3,0.9c1.4,3.5,4.3,4.8,4.4,4.8l0.2,0.1
	l0.2-0.1c0.1,0,1.4-0.5,2.7-1.8c0.9-0.9,1.8-2.2,2.4-3.9l0,0c0.7,0.2,1.7,0.3,2.9-0.7c0.1-0.1,0.2-0.2,0.3-0.3c0.9-0.9,1.3-2,1-3.2
	c-0.5-1.9-2.6-3.7-4.8-5c-0.2-0.7-0.5-1.4-0.8-2.1c-0.6-1.4-1.3-2.1-2-2.6c0.3-1.1,1.3-1.8,2.1-1.8c0.5,0,0.8,0.4,0.9,1
	c0,0.4,0.4,0.6,0.7,0.6c0.1,0,0.3-0.1,0.4-0.2c0.1-0.1,0.2-0.3,0.2-0.6C-249.4,189.1-250.4,188.5-251.3,188.5z M-247.1,201.5
	c0.2,0.8-0.1,1.5-0.9,2.1c-0.8,0.6-1.3,0.6-1.6,0.5c0,0-0.1,0-0.1-0.1c-0.4-0.2-0.8-0.5-1.2-1c-0.3-0.3-0.5-0.7-0.8-1.1
	c-0.4-0.7-0.7-1.4-1.1-2.2c-0.2-0.6-0.5-1.2-0.7-1.7c-0.3-0.8-0.5-1.5-0.7-2.2l0,0c1.2,0.5,2.7,1.3,4,2.3
	C-248.6,199.2-247.4,200.4-247.1,201.5z M-262.3,203.6c-0.6-0.5-0.9-1.1-0.9-1.6c0-0.7,0.4-1.6,1.3-2.4c0.5-0.5,1.1-1,1.8-1.4
	c1.4-0.9,2.9-1.7,4-2.2l0,0c-0.2,0.6-0.4,1.3-0.7,2.2c-0.2,0.6-0.4,1.1-0.7,1.7c-0.3,0.8-0.7,1.5-1.1,2.2c-0.3,0.4-0.6,0.8-0.9,1.2
	c-0.1,0.1-0.1,0.2-0.2,0.2c-0.4,0.3-0.7,0.6-1,0.7C-261.2,204.2-261.7,204.1-262.3,203.6z M-255.4,198.1h0.5
	c0.2,0.6,0.4,1.1,0.6,1.7h-1.8C-255.8,199.2-255.6,198.6-255.4,198.1z M-257.1,202h3.8c0.3,0.6,0.7,1.2,1.1,1.7l-6.1-0.1
	C-257.8,203.2-257.4,202.6-257.1,202z M-252.8,207.7h-5c-0.4-0.5-0.7-1.1-1-1.7l7.1,0.1C-252,206.6-252.4,207.2-252.8,207.7z
	 M-252.7,194.7c0.1,0.2,0.2,0.4,0.3,0.6c-0.9-0.5-1.8-0.8-2.3-1c-0.1-0.1-0.2-0.1-0.4-0.1c-0.1,0-0.2,0-0.4,0.1
	c-0.6,0.2-1.3,0.5-2.2,0.9v-0.1l0.1-0.1c0.2-0.5,0.6-1.4,1.2-2c0.4-0.4,0.8-0.6,1.2-0.5C-254.1,192.5-253.3,193.2-252.7,194.7z"/>
<g class="st3">
	<path class="st4" d="M-296.6,235.8c2.9,0,4.8,1.1,4.8,4.2c0,3.1-1.9,4.2-4.8,4.2h-3.5v-8.4H-296.6z M-297.8,242.5h1.1
		c1.3,0,2.5-0.8,2.5-2.6c0-1.7-1.2-2.6-2.5-2.6h-1.1V242.5z"/>
	<path class="st4" d="M-288.8,241.7c0,0.8,0.2,1.4,1,1.4c0.6,0,1-0.3,1.1-0.8h2c-0.1,0.8-0.5,1.3-1.1,1.6c-0.5,0.3-1.2,0.5-1.8,0.5
		c-2.3,0-3.3-1-3.3-3.3c0-1.8,1.4-2.9,3.1-2.9c2.4,0,3.1,1.4,3.1,3.5H-288.8z M-286.7,240.5c0-0.3-0.1-0.6-0.3-0.9
		c-0.2-0.2-0.4-0.4-0.8-0.4c-0.8,0-1,0.6-1,1.2H-286.7z"/>
	<path class="st4" d="M-280.3,240.1c0-0.2,0-0.4-0.1-0.5c-0.1-0.1-0.3-0.2-0.6-0.2c-0.3,0-0.5,0.2-0.5,0.5c0,0.4,0.9,0.4,2.3,0.8
		c0.7,0.2,1.2,0.7,1.2,1.6c0,1.5-1.5,1.9-2.8,1.9c-1.4,0-2.8-0.3-2.8-2.1h2.1c0,0.2,0,0.4,0.2,0.5c0.1,0.2,0.3,0.3,0.5,0.3
		c0.4,0,0.7-0.2,0.7-0.5c0-1-3.4-0.4-3.4-2.5c0-1.4,1.5-1.8,2.7-1.8c1.4,0,2.7,0.4,2.8,2H-280.3z"/>
	<path class="st4" d="M-276.9,237.3v-1.6h2.2v1.6H-276.9z M-276.9,244.1v-5.8h2.2v5.8H-276.9z"/>
	<path class="st4" d="M-266.7,243.3c0,1-0.1,1.6-0.8,2.3c-0.6,0.6-1.8,0.8-2.5,0.8c-1.3,0-3-0.3-3-2h2.1c0,0.3,0.1,0.5,0.3,0.6
		c0.2,0.1,0.4,0.2,0.6,0.2c1,0,1.1-0.6,1.1-1.5V243h0c-0.4,0.6-1.1,0.9-1.9,0.9c-1.7,0-2.6-1.3-2.6-2.9c0-1.7,1-2.9,2.7-2.9
		c0.8,0,1.4,0.3,1.8,1h0l0.1-0.8h2.1V243.3z M-270,239.4c-0.9,0-1.1,0.9-1.1,1.6s0.2,1.6,1.1,1.6s1.1-0.9,1.1-1.6
		S-269.1,239.4-270,239.4z"/>
	<path class="st4" d="M-263.1,238.9c0.5-0.6,1.1-0.8,1.8-0.8c1.3,0,2.2,0.8,2.2,2.1v3.9h-2.2v-3.4c0-0.6-0.2-1.2-0.8-1.2
		c-1.1,0-1,1.2-1,1.3v3.3h-2.2v-4.3c0-0.5,0-0.9-0.1-1.5h2.2L-263.1,238.9z"/>
	<path class="st4" d="M-250.1,244.1c0-0.2,0-0.4,0-0.8h0c-0.3,0.4-0.8,1-1.9,1c-1.4,0-2.1-0.7-2.1-1.9c0-1.4,1.3-2,3.2-2h0.7
		c0-0.5,0.1-1.3-0.8-1.2c-0.5,0-0.7,0.5-0.7,0.9h-2.1c0-0.8,0.4-1.3,1-1.6c0.6-0.3,1.4-0.3,2-0.3c1.2,0,2.6,0.5,2.6,1.8v3
		c0,0.2,0,0.5,0.1,1.2H-250.1z M-251.2,243c1,0,1-0.9,1-1.7c-0.5,0-0.9,0-1.2,0.1c-0.3,0.2-0.6,0.4-0.6,0.8
		C-252,242.7-251.6,243-251.2,243z"/>
	<path class="st4" d="M-244.4,238.9c0.5-0.6,1.1-0.8,1.8-0.8c1.3,0,2.2,0.8,2.2,2.1v3.9h-2.2v-3.4c0-0.6-0.2-1.2-0.8-1.2
		c-1.1,0-1,1.2-1,1.3v3.3h-2.2v-4.3c0-0.5,0-0.9-0.1-1.5h2.2L-244.4,238.9z"/>
	<path class="st4" d="M-235,244.1v-8.4h2.3v8.4H-235z"/>
	<path class="st4" d="M-227.5,240.4c0-0.3,0-0.5-0.2-0.7c-0.1-0.2-0.3-0.3-0.7-0.3c-0.8,0-0.8,1.2-0.8,1.8c0,0.6,0,1.8,0.8,1.8
		c0.8-0.1,0.9-0.6,0.9-1.2h2.2c0,0.8-0.4,1.4-0.9,1.8c-0.6,0.4-1.3,0.6-2.1,0.6c-2.2,0-3.2-1.1-3.2-3.1c0-2.1,1.5-3.1,3.2-3.1
		c1.5,0,2.9,0.6,3,2.2H-227.5z"/>
	<path class="st4" d="M-217.6,241.2c0,2.1-1.6,3.1-3.4,3.1s-3.4-0.9-3.4-3.1c0-2.1,1.6-3.1,3.4-3.1S-217.6,239.1-217.6,241.2z
		 M-221,243c0.9,0,1.1-1,1.1-1.8c0-0.8-0.2-1.8-1.1-1.8s-1.1,1-1.1,1.8C-222.1,242-221.9,243-221,243z"/>
	<path class="st4" d="M-214.1,238.9c0.5-0.6,1.1-0.8,1.8-0.8c1.3,0,2.2,0.8,2.2,2.1v3.9h-2.2v-3.4c0-0.6-0.2-1.2-0.8-1.2
		c-1.1,0-1,1.2-1,1.3v3.3h-2.2v-4.3c0-0.5,0-0.9-0.1-1.5h2.2L-214.1,238.9z"/>
</g>
<rect x="-344.5" y="256.3" class="st5" width="174.7" height="51.1"/>
<g class="st3">
	<path class="st6" d="M-340.6,264.7h1.1v-5.8h-1.1v-0.7h3.2v0.7h-1.1v5.8h1.1v0.7h-3.2V264.7z"/>
	<path class="st6" d="M-332.1,262.2h-0.7c-0.1-0.8-0.6-1.3-1.4-1.3c-1.1,0-1.6,0.9-1.6,1.9s0.6,1.9,1.6,1.9c0.7,0,1.3-0.4,1.4-1.1
		h0.8c0,1.2-1.1,1.8-2.2,1.8c-1.6,0-2.6-1-2.6-2.6c0-1.6,1-2.6,2.6-2.6c0.6,0,1.1,0.2,1.4,0.7h0v-0.6h0.7V262.2z"/>
	<path class="st6" d="M-328.6,260.2c1.6,0,2.6,1,2.6,2.6c0,1.6-1,2.6-2.6,2.6c-1.6,0-2.7-1-2.7-2.6
		C-331.3,261.2-330.3,260.2-328.6,260.2z M-328.6,264.8c1.1,0,1.7-0.9,1.7-1.9s-0.5-1.9-1.7-1.9c-1.1,0-1.7,0.9-1.7,1.9
		S-329.8,264.8-328.6,264.8z"/>
	<path class="st6" d="M-325.2,264.7h0.9v-3.6h-0.9v-0.7h1.8v0.9h0c0.2-0.6,0.9-1,1.7-1c1.3,0,1.8,0.6,1.8,1.8v2.6h0.9v0.7h-2.6v-0.7
		h0.9v-2.4c0-0.8-0.3-1.3-1.2-1.3c-1,0-1.4,0.7-1.4,1.6v2.1h0.9v0.7h-2.6V264.7z"/>
	<path class="st6" d="M-318.3,265.4v-1.7h0.7c0,1,0.8,1.2,1.6,1.2c0.4,0,1-0.2,1-0.8c0-0.7-0.7-0.7-1.3-0.7c-0.9-0.2-2-0.3-2-1.4
		c0-1.1,1-1.6,1.9-1.6c0.6,0,1.3,0.2,1.5,0.7h0v-0.6h0.7v1.7h-0.7c0-0.9-0.6-1.1-1.4-1.1c-0.5,0-1.2,0.1-1.2,0.8
		c0,0.6,0.9,0.6,1.5,0.7c0.9,0.2,1.9,0.3,1.9,1.4c0,1.2-1.1,1.6-2.1,1.6c-0.6,0-1.3-0.2-1.5-0.8h0v0.7H-318.3z"/>
	<path class="st6" d="M-306.2,264.3L-306.2,264.3c-0.2,0.8-0.9,1.1-1.7,1.1c-1,0-2-0.4-2-1.6c0-1.5,1.5-1.6,2.7-1.6h1V262
		c0-0.8-0.4-1.1-1.2-1.1c-0.7,0-1.2,0.1-1.3,0.9h-1c0.1-1.2,1.1-1.6,2.2-1.6c1.2,0,2.2,0.3,2.2,1.6v2.9h0.9v0.7h-1.8V264.3z
		 M-307.8,264.8c1.1,0,1.6-0.8,1.6-1.8h-0.8c-0.6,0-1.9,0-1.9,0.9C-308.9,264.6-308.3,264.8-307.8,264.8z"/>
	<path class="st6" d="M-303.8,264.7h0.9v-3.6h-0.9v-0.7h1.8v1h0c0.2-0.8,0.8-1.1,1.5-1.1c0.2,0,0.3,0,0.4,0v0.7
		c-0.1,0-0.3-0.1-0.5-0.1c-1.3,0-1.4,1.3-1.4,2.4v1.4h1v0.7h-2.8V264.7z"/>
	<path class="st6" d="M-298.4,263.1c0,1.2,0.6,1.7,1.8,1.7c0.6,0,1.4-0.3,1.4-1h0.8c0,1.2-1.3,1.7-2.4,1.7c-1.6,0-2.7-1-2.7-2.6
		c0-1.6,1-2.6,2.7-2.6c1.8,0,2.4,1.3,2.4,2.9H-298.4z M-295.2,262.4c-0.1-0.9-0.6-1.5-1.6-1.5c-0.9,0-1.6,0.5-1.6,1.5H-295.2z"/>
	<path class="st6" d="M-289.3,263.1c0,1.2,0.6,1.7,1.8,1.7c0.6,0,1.4-0.3,1.4-1h0.8c0,1.2-1.3,1.7-2.4,1.7c-1.6,0-2.7-1-2.7-2.6
		c0-1.6,1-2.6,2.7-2.6c1.8,0,2.4,1.3,2.4,2.9H-289.3z M-286,262.4c-0.1-0.9-0.6-1.5-1.6-1.5c-0.9,0-1.6,0.5-1.6,1.5H-286z"/>
	<path class="st6" d="M-284,265.4v-1.7h0.7c0,1,0.8,1.2,1.6,1.2c0.4,0,1-0.2,1-0.8c0-0.7-0.7-0.7-1.3-0.7c-0.9-0.2-2-0.3-2-1.4
		c0-1.1,1-1.6,1.9-1.6c0.6,0,1.3,0.2,1.5,0.7h0v-0.6h0.7v1.7h-0.7c0-0.9-0.6-1.1-1.4-1.1c-0.5,0-1.2,0.1-1.2,0.8
		c0,0.6,0.9,0.6,1.5,0.7c0.9,0.2,1.9,0.3,1.9,1.4c0,1.2-1.1,1.6-2.1,1.6c-0.6,0-1.3-0.2-1.5-0.8h0v0.7H-284z"/>
	<path class="st6" d="M-278.5,265.4v-1.7h0.7c0,1,0.8,1.2,1.6,1.2c0.4,0,1-0.2,1-0.8c0-0.7-0.7-0.7-1.3-0.7c-0.9-0.2-2-0.3-2-1.4
		c0-1.1,1-1.6,1.9-1.6c0.6,0,1.3,0.2,1.5,0.7h0v-0.6h0.7v1.7h-0.7c0-0.9-0.6-1.1-1.4-1.1c-0.5,0-1.2,0.1-1.2,0.8
		c0,0.6,0.9,0.6,1.5,0.7c0.9,0.2,1.9,0.3,1.9,1.4c0,1.2-1.1,1.6-2.1,1.6c-0.6,0-1.3-0.2-1.5-0.8h0v0.7H-278.5z"/>
	<path class="st6" d="M-272.1,263.1c0,1.2,0.6,1.7,1.8,1.7c0.6,0,1.4-0.3,1.4-1h0.8c0,1.2-1.3,1.7-2.4,1.7c-1.6,0-2.7-1-2.7-2.6
		c0-1.6,1-2.6,2.7-2.6c1.8,0,2.4,1.3,2.4,2.9H-272.1z M-268.9,262.4c-0.1-0.9-0.6-1.5-1.6-1.5c-0.9,0-1.6,0.5-1.6,1.5H-268.9z"/>
	<path class="st6" d="M-267.1,264.7h0.9v-3.6h-0.9v-0.7h1.8v0.9h0c0.2-0.6,0.9-1,1.7-1c1.3,0,1.8,0.6,1.8,1.8v2.6h0.9v0.7h-2.6v-0.7
		h0.9v-2.4c0-0.8-0.3-1.3-1.2-1.3c-1,0-1.4,0.7-1.4,1.6v2.1h0.9v0.7h-2.6V264.7z"/>
	<path class="st6" d="M-257.1,261.1h-1.6v2.9c0,0.4,0.1,0.8,0.6,0.8c0.5,0,0.6-0.5,0.6-0.9h0.8c0,1-0.4,1.7-1.5,1.7
		c-1.3,0-1.3-0.9-1.3-1.9v-2.5h-1v-0.7h1v-1.1l0.9-0.3v1.4h1.6V261.1z"/>
	<path class="st6" d="M-256.2,264.7h0.9v-3.6h-0.9v-0.7h1.8v4.3h0.9v0.7h-2.6V264.7z M-254.4,259.2h-1v-1h1V259.2z"/>
	<path class="st6" d="M-249.3,264.3L-249.3,264.3c-0.2,0.8-0.9,1.1-1.7,1.1c-1,0-2-0.4-2-1.6c0-1.5,1.5-1.6,2.7-1.6h1V262
		c0-0.8-0.4-1.1-1.2-1.1c-0.7,0-1.2,0.1-1.3,0.9h-1c0.1-1.2,1.1-1.6,2.2-1.6c1.2,0,2.2,0.3,2.2,1.6v2.9h0.9v0.7h-1.8V264.3z
		 M-250.9,264.8c1.1,0,1.6-0.8,1.6-1.8h-0.8c-0.6,0-1.9,0-1.9,0.9C-252,264.6-251.5,264.8-250.9,264.8z"/>
	<path class="st6" d="M-247,264.7h0.9v-5.8h-0.9v-0.7h1.8v6.5h0.9v0.7h-2.6V264.7z"/>
	<path class="st6" d="M-240.9,264.7h0.9v-3.6h-0.9v-0.7h1.8v4.3h0.9v0.7h-2.6V264.7z M-239.1,259.2h-1v-1h1V259.2z"/>
	<path class="st6" d="M-237.7,264.7h0.9v-3.6h-0.9v-0.7h1.8v0.9h0c0.2-0.6,0.9-1,1.7-1c1.3,0,1.8,0.6,1.8,1.8v2.6h0.9v0.7h-2.6v-0.7
		h0.9v-2.4c0-0.8-0.3-1.3-1.2-1.3c-1,0-1.4,0.7-1.4,1.6v2.1h0.9v0.7h-2.6V264.7z"/>
	<path class="st6" d="M-224.3,264.3L-224.3,264.3c-0.2,0.8-0.9,1.1-1.7,1.1c-1,0-2-0.4-2-1.6c0-1.5,1.5-1.6,2.7-1.6h1V262
		c0-0.8-0.4-1.1-1.2-1.1c-0.7,0-1.2,0.1-1.3,0.9h-1c0.1-1.2,1.1-1.6,2.2-1.6c1.2,0,2.2,0.3,2.2,1.6v2.9h0.9v0.7h-1.8V264.3z
		 M-225.9,264.8c1.1,0,1.6-0.8,1.6-1.8h-0.8c-0.6,0-1.9,0-1.9,0.9C-227,264.6-226.4,264.8-225.9,264.8z"/>
	<path class="st6" d="M-222,264.7h0.9v-5.8h-0.9v-0.7h1.8v6.5h0.9v0.7h-2.6V264.7z"/>
	<path class="st6" d="M-218.9,264.7h0.9v-5.8h-0.9v-0.7h1.8v6.5h0.9v0.7h-2.6V264.7z"/>
	<path class="st6" d="M-209,264.3L-209,264.3c-0.2,0.8-0.9,1.1-1.7,1.1c-1,0-2-0.4-2-1.6c0-1.5,1.5-1.6,2.7-1.6h1V262
		c0-0.8-0.4-1.1-1.2-1.1c-0.7,0-1.2,0.1-1.3,0.9h-1c0.1-1.2,1.1-1.6,2.2-1.6c1.2,0,2.2,0.3,2.2,1.6v2.9h0.9v0.7h-1.8V264.3z
		 M-210.6,264.8c1.1,0,1.6-0.8,1.6-1.8h-0.8c-0.6,0-1.9,0-1.9,0.9C-211.7,264.6-211.1,264.8-210.6,264.8z"/>
	<path class="st6" d="M-206.4,265.4v-1.7h0.7c0,1,0.8,1.2,1.6,1.2c0.4,0,1-0.2,1-0.8c0-0.7-0.7-0.7-1.3-0.7c-0.9-0.2-2-0.3-2-1.4
		c0-1.1,1-1.6,1.9-1.6c0.6,0,1.3,0.2,1.5,0.7h0v-0.6h0.7v1.7h-0.7c0-0.9-0.6-1.1-1.4-1.1c-0.5,0-1.2,0.1-1.2,0.8
		c0,0.6,0.9,0.6,1.5,0.7c0.9,0.2,1.9,0.3,1.9,1.4c0,1.2-1.1,1.6-2.1,1.6c-0.6,0-1.3-0.2-1.5-0.8h0v0.7H-206.4z"/>
	<path class="st6" d="M-201.2,266.5h0.9v-5.4h-0.9v-0.7h1.8v1h0c0.3-0.6,0.9-1.1,1.7-1.1c1.6,0,2.5,1,2.5,2.6c0,1.6-0.9,2.6-2.5,2.6
		c-0.8,0-1.4-0.4-1.7-1.1h0v2.1h0.9v0.7h-2.7V266.5z M-197.7,264.8c1,0,1.5-0.8,1.5-1.9c0-1-0.5-1.9-1.5-1.9c-1.2,0-1.8,0.9-1.8,1.9
		C-199.4,264-198.9,264.8-197.7,264.8z"/>
	<path class="st6" d="M-193.3,263.1c0,1.2,0.6,1.7,1.8,1.7c0.6,0,1.4-0.3,1.4-1h0.8c0,1.2-1.3,1.7-2.4,1.7c-1.6,0-2.7-1-2.7-2.6
		c0-1.6,1-2.6,2.7-2.6c1.8,0,2.4,1.3,2.4,2.9H-193.3z M-190,262.4c-0.1-0.9-0.6-1.5-1.6-1.5c-0.9,0-1.6,0.5-1.6,1.5H-190z"/>
	<path class="st6" d="M-183.5,262.2h-0.7c-0.1-0.8-0.6-1.3-1.4-1.3c-1.1,0-1.6,0.9-1.6,1.9s0.6,1.9,1.6,1.9c0.7,0,1.3-0.4,1.4-1.1
		h0.8c0,1.2-1.1,1.8-2.2,1.8c-1.6,0-2.6-1-2.6-2.6c0-1.6,1-2.6,2.6-2.6c0.6,0,1.1,0.2,1.4,0.7h0v-0.6h0.7V262.2z"/>
	<path class="st6" d="M-179.4,261.1h-1.6v2.9c0,0.4,0.1,0.8,0.5,0.8c0.5,0,0.6-0.5,0.6-0.9h0.8c0,1-0.4,1.7-1.5,1.7
		c-1.3,0-1.3-0.9-1.3-1.9v-2.5h-1v-0.7h1v-1.1l0.9-0.3v1.4h1.6V261.1z"/>
	<path class="st6" d="M-178.3,265.4v-1.7h0.7c0,1,0.8,1.2,1.6,1.2c0.4,0,1-0.2,1-0.8c0-0.7-0.7-0.7-1.3-0.7c-0.9-0.2-2-0.3-2-1.4
		c0-1.1,1-1.6,1.9-1.6c0.6,0,1.3,0.2,1.5,0.7h0v-0.6h0.7v1.7h-0.7c0-0.9-0.6-1.1-1.4-1.1c-0.5,0-1.2,0.1-1.2,0.8
		c0,0.6,0.9,0.6,1.5,0.7c0.9,0.2,1.9,0.3,1.9,1.4c0,1.2-1.1,1.6-2.1,1.6c-0.6,0-1.3-0.2-1.5-0.8h0v0.7H-178.3z"/>
</g>
<g class="st3">
	<path class="st6" d="M-340.2,273.4c1.6,0,2.6,1,2.6,2.6c0,1.6-1,2.6-2.6,2.6c-1.6,0-2.7-1-2.7-2.6
		C-342.9,274.4-341.8,273.4-340.2,273.4z M-340.2,278c1.1,0,1.7-0.9,1.7-1.9s-0.5-1.9-1.7-1.9c-1.1,0-1.7,0.9-1.7,1.9
		S-341.3,278-340.2,278z"/>
	<path class="st6" d="M-336.8,277.9h0.9v-3.6h-1v-0.7h1V273c0-1.2,0.5-1.7,1.8-1.7c0.3,0,0.5,0.1,0.8,0.1v0.7
		c-0.3,0-0.6-0.1-0.9-0.1c-0.8,0-0.9,0.5-0.9,1v0.5h1.2v0.7h-1.2v3.6h1.1v0.7h-2.9V277.9z"/>
	<path class="st6" d="M-325.8,277.6L-325.8,277.6c-0.3,0.6-1,1.1-1.8,1.1c-1.7,0-2.4-1.1-2.4-2.6c0-1.5,0.9-2.6,2.4-2.6
		c0.7,0,1.5,0.4,1.8,1h0v-2.4h-0.9v-0.7h1.8v6.5h0.9v0.7h-1.8V277.6z M-327.4,274.1c-1.1,0-1.7,0.8-1.7,1.9c0,1,0.5,1.9,1.7,1.9
		c1.1,0,1.6-0.9,1.6-1.9C-325.8,275-326.3,274.1-327.4,274.1z"/>
	<path class="st6" d="M-322.2,276.3c0,1.2,0.6,1.7,1.8,1.7c0.6,0,1.4-0.3,1.4-1h0.8c0,1.2-1.3,1.7-2.4,1.7c-1.6,0-2.7-1-2.7-2.6
		c0-1.6,1-2.6,2.7-2.6c1.8,0,2.4,1.3,2.4,2.9H-322.2z M-319,275.6c-0.1-0.9-0.6-1.5-1.6-1.5c-0.9,0-1.6,0.5-1.6,1.5H-319z"/>
	<path class="st6" d="M-317,278.6v-1.7h0.7c0,1,0.8,1.2,1.6,1.2c0.4,0,1-0.2,1-0.8c0-0.7-0.7-0.7-1.3-0.7c-0.9-0.2-2-0.3-2-1.4
		c0-1.1,1-1.6,1.9-1.6c0.6,0,1.3,0.2,1.5,0.7h0v-0.6h0.7v1.7h-0.7c0-0.9-0.6-1.1-1.4-1.1c-0.5,0-1.2,0.1-1.2,0.8
		c0,0.6,0.9,0.6,1.5,0.7c0.9,0.2,1.9,0.3,1.9,1.4c0,1.2-1.1,1.6-2.1,1.6c-0.6,0-1.3-0.2-1.5-0.8h0v0.7H-317z"/>
	<path class="st6" d="M-311.8,277.9h0.9v-3.6h-0.9v-0.7h1.8v4.3h0.9v0.7h-2.6V277.9z M-310,272.4h-1v-1h1V272.4z"/>
	<path class="st6" d="M-302.6,274.3h-0.9v2.7c0,0.8,0.1,1.8-0.3,2.5c-0.4,0.8-1.4,1-2.3,1c-1.1,0-2.4-0.2-2.4-1.5h1
		c0,0.7,0.7,0.8,1.3,0.8c1.3,0,1.7-0.5,1.7-1.8v-0.6h0c-0.3,0.7-1.1,1-1.8,1c-1.5,0-2.4-1-2.4-2.6c0-1.5,0.9-2.5,2.4-2.5
		c0.8,0,1.5,0.3,1.9,1l0,0v0h0v-0.9h1.8V274.3z M-306,277.8c1.1,0,1.6-0.8,1.6-1.8c0-1-0.5-1.8-1.6-1.8c-1.2,0-1.8,0.7-1.8,1.8
		C-307.7,277-307.1,277.8-306,277.8z"/>
	<path class="st6" d="M-301.9,277.9h0.9v-3.6h-0.9v-0.7h1.8v0.9h0c0.2-0.6,0.9-1,1.7-1c1.3,0,1.8,0.6,1.8,1.8v2.6h0.9v0.7h-2.6v-0.7
		h0.9v-2.4c0-0.8-0.3-1.3-1.2-1.3c-1,0-1.4,0.7-1.4,1.6v2.1h0.9v0.7h-2.6V277.9z"/>
	<path class="st6" d="M-294.6,277.5h1.1v1.1h-1.1V277.5z"/>
	<path class="st6" d="M-289.2,277.9h1.1v-5.8h-1.1v-0.7h3.2v0.7h-1.1v5.8h1.1v0.7h-3.2V277.9z"/>
	<path class="st6" d="M-285.4,277.9h0.9v-3.6h-0.9v-0.7h1.8v0.9h0c0.2-0.6,0.9-1,1.7-1c1.3,0,1.8,0.6,1.8,1.8v2.6h0.9v0.7h-2.6v-0.7
		h0.9v-2.4c0-0.8-0.3-1.3-1.2-1.3c-1,0-1.4,0.7-1.4,1.6v2.1h0.9v0.7h-2.6V277.9z"/>
	<path class="st6" d="M-272.3,274.3h-1.6v2.9c0,0.4,0.1,0.8,0.6,0.8c0.5,0,0.6-0.5,0.6-0.9h0.8c0,1-0.4,1.7-1.5,1.7
		c-1.3,0-1.3-0.9-1.3-1.9v-2.5h-1v-0.7h1v-1.1l0.9-0.3v1.4h1.6V274.3z"/>
	<path class="st6" d="M-271.3,277.9h0.9v-5.8h-0.9v-0.7h1.8v3.1h0c0.2-0.6,0.9-1,1.7-1c1.3,0,1.8,0.6,1.8,1.8v2.6h0.9v0.7h-2.6v-0.7
		h0.9v-2.4c0-0.8-0.3-1.3-1.2-1.3c-1,0-1.4,0.7-1.4,1.6v2.1h0.9v0.7h-2.6V277.9z"/>
	<path class="st6" d="M-264.7,277.9h0.9v-3.6h-0.9v-0.7h1.8v4.3h0.9v0.7h-2.6V277.9z M-263,272.4h-1v-1h1V272.4z"/>
	<path class="st6" d="M-261.4,278.6v-1.7h0.7c0,1,0.8,1.2,1.6,1.2c0.4,0,1-0.2,1-0.8c0-0.7-0.7-0.7-1.3-0.7c-0.9-0.2-2-0.3-2-1.4
		c0-1.1,1-1.6,1.9-1.6c0.6,0,1.3,0.2,1.5,0.7h0v-0.6h0.7v1.7h-0.7c0-0.9-0.6-1.1-1.4-1.1c-0.5,0-1.2,0.1-1.2,0.8
		c0,0.6,0.9,0.6,1.5,0.7c0.9,0.2,1.9,0.3,1.9,1.4c0,1.2-1.1,1.6-2.1,1.6c-0.6,0-1.3-0.2-1.5-0.8h0v0.7H-261.4z"/>
	<path class="st6" d="M-253.2,279.7h0.9v-5.4h-0.9v-0.7h1.8v1h0c0.3-0.6,0.9-1.1,1.7-1.1c1.6,0,2.5,1,2.5,2.6c0,1.6-0.9,2.6-2.5,2.6
		c-0.8,0-1.4-0.4-1.7-1.1h0v2.1h0.9v0.7h-2.7V279.7z M-249.6,278c1,0,1.5-0.8,1.5-1.9c0-1-0.5-1.9-1.5-1.9c-1.2,0-1.8,0.9-1.8,1.9
		C-251.4,277.2-250.8,278-249.6,278z"/>
	<path class="st6" d="M-246.3,277.9h0.9v-3.6h-0.9v-0.7h1.8v1h0c0.2-0.8,0.8-1.1,1.5-1.1c0.2,0,0.3,0,0.4,0v0.7
		c-0.1,0-0.3-0.1-0.5-0.1c-1.3,0-1.4,1.3-1.4,2.4v1.4h1v0.7h-2.8V277.9z"/>
	<path class="st6" d="M-239.3,273.4c1.6,0,2.6,1,2.6,2.6c0,1.6-1,2.6-2.6,2.6s-2.7-1-2.7-2.6C-242,274.4-241,273.4-239.3,273.4z
		 M-239.3,278c1.1,0,1.7-0.9,1.7-1.9s-0.5-1.9-1.7-1.9s-1.7,0.9-1.7,1.9S-240.5,278-239.3,278z"/>
	<path class="st6" d="M-234.2,278.7c0,1.3-0.3,1.8-1.4,1.8c-0.3,0-0.5-0.1-0.8-0.1v-0.7c0.2,0.1,0.4,0.1,0.7,0.1
		c0.4,0,0.6-0.1,0.6-1.1v-4.5h-0.9v-0.7h1.8V278.7z M-234.2,272.4h-1v-1h1V272.4z"/>
	<path class="st6" d="M-231.8,276.3c0,1.2,0.6,1.7,1.8,1.7c0.6,0,1.4-0.3,1.4-1h0.8c0,1.2-1.3,1.7-2.4,1.7c-1.6,0-2.7-1-2.7-2.6
		c0-1.6,1-2.6,2.7-2.6c1.8,0,2.4,1.3,2.4,2.9H-231.8z M-228.5,275.6c-0.1-0.9-0.6-1.5-1.6-1.5c-0.9,0-1.6,0.5-1.6,1.5H-228.5z"/>
	<path class="st6" d="M-222,275.4h-0.7c-0.1-0.8-0.6-1.3-1.4-1.3c-1.1,0-1.6,0.9-1.6,1.9s0.6,1.9,1.6,1.9c0.7,0,1.3-0.4,1.4-1.1h0.8
		c0,1.2-1.1,1.8-2.2,1.8c-1.6,0-2.6-1-2.6-2.6c0-1.6,1-2.6,2.6-2.6c0.6,0,1.1,0.2,1.4,0.7h0v-0.6h0.7V275.4z"/>
	<path class="st6" d="M-217.9,274.3h-1.6v2.9c0,0.4,0.1,0.8,0.5,0.8c0.5,0,0.6-0.5,0.6-0.9h0.8c0,1-0.4,1.7-1.5,1.7
		c-1.3,0-1.3-0.9-1.3-1.9v-2.5h-1v-0.7h1v-1.1l0.9-0.3v1.4h1.6V274.3z"/>
	<path class="st6" d="M-216.4,277.5h1.1v1.1l-0.5,1.4h-0.6l0.5-1.4h-0.5V277.5z"/>
	<path class="st6" d="M-205.3,274.3h-0.6l-2.1,4.8c-0.4,0.9-0.6,1.5-1.6,1.5c-0.2,0-0.5,0-0.7-0.1v-0.7c0.2,0,0.3,0,0.5,0
		c0.8,0,0.8-0.6,1.1-1.2l-1.9-4.3h-0.5v-0.7h2.5v0.7h-1l1.4,3.4l1.4-3.4h-1v-0.7h2.4V274.3z"/>
	<path class="st6" d="M-202,273.4c1.6,0,2.6,1,2.6,2.6c0,1.6-1,2.6-2.6,2.6s-2.7-1-2.7-2.6C-204.7,274.4-203.7,273.4-202,273.4z
		 M-202,278c1.1,0,1.7-0.9,1.7-1.9s-0.5-1.9-1.7-1.9s-1.7,0.9-1.7,1.9S-203.2,278-202,278z"/>
	<path class="st6" d="M-193.5,277.9h0.9v0.7h-1.8v-0.9h0c-0.2,0.6-0.9,1-1.6,1c-1.3,0-1.8-0.6-1.8-1.8v-2.6h-0.9v-0.7h1.8v3.1
		c0,0.8,0.3,1.3,1.2,1.3c1,0,1.4-0.7,1.4-1.6v-2.1h-0.9v-0.7h1.8V277.9z"/>
	<path class="st6" d="M-184.1,275.4h-0.7c-0.1-0.8-0.6-1.3-1.4-1.3c-1.1,0-1.6,0.9-1.6,1.9s0.6,1.9,1.6,1.9c0.7,0,1.3-0.4,1.4-1.1
		h0.8c0,1.2-1.1,1.8-2.2,1.8c-1.6,0-2.6-1-2.6-2.6c0-1.6,1-2.6,2.6-2.6c0.6,0,1.1,0.2,1.4,0.7h0v-0.6h0.7V275.4z"/>
	<path class="st6" d="M-179.6,277.5L-179.6,277.5c-0.2,0.8-0.9,1.1-1.7,1.1c-1,0-2-0.4-2-1.6c0-1.5,1.5-1.6,2.7-1.6h1v-0.3
		c0-0.8-0.4-1.1-1.2-1.1c-0.7,0-1.2,0.1-1.3,0.9h-1c0.1-1.2,1.1-1.6,2.2-1.6c1.2,0,2.2,0.3,2.2,1.6v2.9h0.9v0.7h-1.8V277.5z
		 M-181.2,278c1.1,0,1.6-0.8,1.6-1.8h-0.8c-0.6,0-1.9,0-1.9,0.9C-182.3,277.8-181.7,278-181.2,278z"/>
	<path class="st6" d="M-177.2,277.9h0.9v-3.6h-0.9v-0.7h1.8v0.9h0c0.2-0.6,0.9-1,1.7-1c1.3,0,1.8,0.6,1.8,1.8v2.6h0.9v0.7h-2.6v-0.7
		h0.9v-2.4c0-0.8-0.3-1.3-1.2-1.3c-1,0-1.4,0.7-1.4,1.6v2.1h0.9v0.7h-2.6V277.9z"/>
</g>
<g class="st3">
	<path class="st6" d="M-338.8,291.1h0.9v0.7h-1.8v-0.9h0c-0.2,0.6-0.9,1-1.6,1c-1.3,0-1.8-0.6-1.8-1.8v-2.6h-0.9v-0.7h1.8v3.1
		c0,0.8,0.3,1.3,1.2,1.3c1,0,1.4-0.7,1.4-1.6v-2.1h-0.9v-0.7h1.8V291.1z"/>
	<path class="st6" d="M-337,291.8V290h0.7c0,1,0.8,1.2,1.6,1.2c0.4,0,1-0.2,1-0.8c0-0.7-0.7-0.7-1.3-0.7c-0.9-0.2-2-0.3-2-1.4
		c0-1.1,1-1.6,1.9-1.6c0.6,0,1.3,0.2,1.5,0.7h0v-0.6h0.7v1.7h-0.7c0-0.9-0.6-1.1-1.4-1.1c-0.5,0-1.2,0.1-1.2,0.8
		c0,0.6,0.9,0.6,1.5,0.7c0.9,0.2,1.9,0.3,1.9,1.4c0,1.2-1.1,1.6-2.1,1.6c-0.6,0-1.3-0.2-1.5-0.8h0v0.7H-337z"/>
	<path class="st6" d="M-330.6,289.5c0,1.2,0.6,1.7,1.8,1.7c0.6,0,1.4-0.3,1.4-1h0.8c0,1.2-1.3,1.7-2.4,1.7c-1.6,0-2.7-1-2.7-2.6
		c0-1.6,1-2.6,2.7-2.6c1.8,0,2.4,1.3,2.4,2.9H-330.6z M-327.3,288.8c-0.1-0.9-0.6-1.5-1.6-1.5c-0.9,0-1.6,0.5-1.6,1.5H-327.3z"/>
	<path class="st6" d="M-322.6,291.1h0.9v-3.6h-0.9v-0.7h1.8v4.3h0.9v0.7h-2.6V291.1z M-320.8,285.6h-1v-1h1V285.6z"/>
	<path class="st6" d="M-319.5,291.1h0.9v-5.8h-0.9v-0.7h1.8v6.5h0.9v0.7h-2.6V291.1z"/>
	<path class="st6" d="M-316.5,291.1h0.9v-5.8h-0.9v-0.7h1.8v6.5h0.9v0.7h-2.6V291.1z"/>
	<path class="st6" d="M-308.2,291.1h0.9v0.7h-1.8v-0.9h0c-0.2,0.6-0.9,1-1.6,1c-1.3,0-1.8-0.6-1.8-1.8v-2.6h-0.9v-0.7h1.8v3.1
		c0,0.8,0.3,1.3,1.2,1.3c1,0,1.4-0.7,1.4-1.6v-2.1h-0.9v-0.7h1.8V291.1z"/>
	<path class="st6" d="M-306.4,291.8V290h0.7c0,1,0.8,1.2,1.6,1.2c0.4,0,1-0.2,1-0.8c0-0.7-0.7-0.7-1.3-0.7c-0.9-0.2-2-0.3-2-1.4
		c0-1.1,1-1.6,1.9-1.6c0.6,0,1.3,0.2,1.5,0.7h0v-0.6h0.7v1.7h-0.7c0-0.9-0.6-1.1-1.4-1.1c-0.5,0-1.2,0.1-1.2,0.8
		c0,0.6,0.9,0.6,1.5,0.7c0.9,0.2,1.9,0.3,1.9,1.4c0,1.2-1.1,1.6-2.1,1.6c-0.6,0-1.3-0.2-1.5-0.8h0v0.7H-306.4z"/>
	<path class="st6" d="M-297.8,287.5h-1.6v2.9c0,0.4,0.1,0.8,0.6,0.8c0.5,0,0.6-0.5,0.6-0.9h0.8c0,1-0.4,1.7-1.5,1.7
		c-1.3,0-1.3-0.9-1.3-1.9v-2.5h-1v-0.7h1v-1.1l0.9-0.3v1.4h1.6V287.5z"/>
	<path class="st6" d="M-296.8,291.1h0.9v-3.6h-0.9v-0.7h1.8v1h0c0.2-0.8,0.8-1.1,1.5-1.1c0.2,0,0.3,0,0.4,0v0.7
		c-0.1,0-0.3-0.1-0.5-0.1c-1.3,0-1.4,1.3-1.4,2.4v1.4h1v0.7h-2.8V291.1z"/>
	<path class="st6" d="M-288.8,290.7L-288.8,290.7c-0.2,0.8-0.9,1.1-1.7,1.1c-1,0-2-0.4-2-1.6c0-1.5,1.5-1.6,2.7-1.6h1v-0.3
		c0-0.8-0.4-1.1-1.2-1.1c-0.7,0-1.2,0.1-1.3,0.9h-1c0.1-1.2,1.1-1.6,2.2-1.6c1.2,0,2.2,0.3,2.2,1.6v2.9h0.9v0.7h-1.8V290.7z
		 M-290.4,291.2c1.1,0,1.6-0.8,1.6-1.8h-0.8c-0.6,0-1.9,0-1.9,0.9C-291.5,291-290.9,291.2-290.4,291.2z"/>
	<path class="st6" d="M-283.1,287.5h-1.6v2.9c0,0.4,0.1,0.8,0.6,0.8c0.5,0,0.6-0.5,0.6-0.9h0.8c0,1-0.4,1.7-1.5,1.7
		c-1.3,0-1.3-0.9-1.3-1.9v-2.5h-1v-0.7h1v-1.1l0.9-0.3v1.4h1.6V287.5z"/>
	<path class="st6" d="M-279.5,286.6c1.6,0,2.6,1,2.6,2.6c0,1.6-1,2.6-2.6,2.6c-1.6,0-2.7-1-2.7-2.6
		C-282.1,287.6-281.1,286.6-279.5,286.6z M-279.5,291.2c1.1,0,1.7-0.9,1.7-1.9s-0.5-1.9-1.7-1.9c-1.1,0-1.7,0.9-1.7,1.9
		S-280.6,291.2-279.5,291.2z"/>
	<path class="st6" d="M-276,291.1h0.9v-3.6h-0.9v-0.7h1.8v1h0c0.2-0.8,0.8-1.1,1.5-1.1c0.2,0,0.3,0,0.4,0v0.7
		c-0.1,0-0.3-0.1-0.5-0.1c-1.3,0-1.4,1.3-1.4,2.4v1.4h1v0.7h-2.8V291.1z"/>
	<path class="st6" d="M-265.4,287.5h-1.6v2.9c0,0.4,0.1,0.8,0.6,0.8c0.5,0,0.6-0.5,0.6-0.9h0.8c0,1-0.4,1.7-1.5,1.7
		c-1.3,0-1.3-0.9-1.3-1.9v-2.5h-1v-0.7h1v-1.1l0.9-0.3v1.4h1.6V287.5z"/>
	<path class="st6" d="M-261.7,286.6c1.6,0,2.6,1,2.6,2.6c0,1.6-1,2.6-2.6,2.6c-1.6,0-2.7-1-2.7-2.6
		C-264.4,287.6-263.3,286.6-261.7,286.6z M-261.7,291.2c1.1,0,1.7-0.9,1.7-1.9s-0.5-1.9-1.7-1.9c-1.1,0-1.7,0.9-1.7,1.9
		S-262.9,291.2-261.7,291.2z"/>
	<path class="st6" d="M-250.5,288.6h-0.7c-0.1-0.8-0.6-1.3-1.4-1.3c-1.1,0-1.6,0.9-1.6,1.9s0.6,1.9,1.6,1.9c0.7,0,1.3-0.4,1.4-1.1
		h0.8c0,1.2-1.1,1.8-2.2,1.8c-1.6,0-2.6-1-2.6-2.6c0-1.6,1-2.6,2.6-2.6c0.6,0,1.1,0.2,1.4,0.7h0v-0.6h0.7V288.6z"/>
	<path class="st6" d="M-249.7,291.1h0.9v-3.6h-0.9v-0.7h1.8v1h0c0.2-0.8,0.8-1.1,1.5-1.1c0.2,0,0.3,0,0.4,0v0.7
		c-0.1,0-0.3-0.1-0.5-0.1c-1.3,0-1.4,1.3-1.4,2.4v1.4h1v0.7h-2.8V291.1z"/>
	<path class="st6" d="M-244.4,289.5c0,1.2,0.6,1.7,1.8,1.7c0.6,0,1.4-0.3,1.4-1h0.8c0,1.2-1.3,1.7-2.4,1.7c-1.6,0-2.7-1-2.7-2.6
		c0-1.6,1-2.6,2.7-2.6c1.8,0,2.4,1.3,2.4,2.9H-244.4z M-241.1,288.8c-0.1-0.9-0.6-1.5-1.6-1.5c-0.9,0-1.6,0.5-1.6,1.5H-241.1z"/>
	<path class="st6" d="M-235.6,290.7L-235.6,290.7c-0.2,0.8-0.9,1.1-1.7,1.1c-1,0-2-0.4-2-1.6c0-1.5,1.5-1.6,2.7-1.6h1v-0.3
		c0-0.8-0.4-1.1-1.2-1.1c-0.7,0-1.2,0.1-1.3,0.9h-1c0.1-1.2,1.1-1.6,2.2-1.6c1.2,0,2.2,0.3,2.2,1.6v2.9h0.9v0.7h-1.8V290.7z
		 M-237.2,291.2c1.1,0,1.6-0.8,1.6-1.8h-0.8c-0.6,0-1.9,0-1.9,0.9C-238.3,291-237.7,291.2-237.2,291.2z"/>
	<path class="st6" d="M-229.9,287.5h-1.6v2.9c0,0.4,0.1,0.8,0.6,0.8c0.5,0,0.6-0.5,0.6-0.9h0.8c0,1-0.4,1.7-1.5,1.7
		c-1.3,0-1.3-0.9-1.3-1.9v-2.5h-1v-0.7h1v-1.1l0.9-0.3v1.4h1.6V287.5z"/>
	<path class="st6" d="M-227.8,289.5c0,1.2,0.6,1.7,1.8,1.7c0.6,0,1.4-0.3,1.4-1h0.8c0,1.2-1.3,1.7-2.4,1.7c-1.6,0-2.7-1-2.7-2.6
		c0-1.6,1-2.6,2.7-2.6c1.8,0,2.4,1.3,2.4,2.9H-227.8z M-224.6,288.8c-0.1-0.9-0.6-1.5-1.6-1.5c-0.9,0-1.6,0.5-1.6,1.5H-224.6z"/>
	<path class="st6" d="M-216,290.7L-216,290.7c-0.2,0.8-0.9,1.1-1.7,1.1c-1,0-2-0.4-2-1.6c0-1.5,1.5-1.6,2.7-1.6h1v-0.3
		c0-0.8-0.4-1.1-1.2-1.1c-0.7,0-1.2,0.1-1.3,0.9h-1c0.1-1.2,1.1-1.6,2.2-1.6c1.2,0,2.2,0.3,2.2,1.6v2.9h0.9v0.7h-1.8V290.7z
		 M-217.6,291.2c1.1,0,1.6-0.8,1.6-1.8h-0.8c-0.6,0-1.9,0-1.9,0.9C-218.7,291-218.2,291.2-217.6,291.2z"/>
	<path class="st6" d="M-213.6,291.1h0.9v-3.6h-0.9v-0.7h1.8v0.9h0c0.2-0.6,0.9-1,1.7-1c1.3,0,1.8,0.6,1.8,1.8v2.6h0.9v0.7h-2.6v-0.7
		h0.9v-2.4c0-0.8-0.3-1.3-1.2-1.3c-1,0-1.4,0.7-1.4,1.6v2.1h0.9v0.7h-2.6V291.1z"/>
	<path class="st6" d="M-204,291.1h0.9v-3.6h-0.9v-0.7h1.8v4.3h0.9v0.7h-2.6V291.1z M-202.2,285.6h-1v-1h1V285.6z"/>
	<path class="st6" d="M-196.1,288.6h-0.7c-0.1-0.8-0.6-1.3-1.4-1.3c-1.1,0-1.6,0.9-1.6,1.9s0.6,1.9,1.6,1.9c0.7,0,1.3-0.4,1.4-1.1
		h0.8c0,1.2-1.1,1.8-2.2,1.8c-1.6,0-2.6-1-2.6-2.6c0-1.6,1-2.6,2.6-2.6c0.6,0,1.1,0.2,1.4,0.7h0v-0.6h0.7V288.6z"/>
	<path class="st6" d="M-192.6,286.6c1.6,0,2.6,1,2.6,2.6c0,1.6-1,2.6-2.6,2.6s-2.7-1-2.7-2.6C-195.3,287.6-194.3,286.6-192.6,286.6z
		 M-192.6,291.2c1.1,0,1.7-0.9,1.7-1.9s-0.5-1.9-1.7-1.9s-1.7,0.9-1.7,1.9S-193.8,291.2-192.6,291.2z"/>
	<path class="st6" d="M-189.2,291.1h0.9v-3.6h-0.9v-0.7h1.8v0.9h0c0.2-0.6,0.9-1,1.7-1c1.3,0,1.8,0.6,1.8,1.8v2.6h0.9v0.7h-2.6v-0.7
		h0.9v-2.4c0-0.8-0.3-1.3-1.2-1.3c-1,0-1.4,0.7-1.4,1.6v2.1h0.9v0.7h-2.6V291.1z"/>
	<path class="st6" d="M-176.7,286.6c1.6,0,2.6,1,2.6,2.6c0,1.6-1,2.6-2.6,2.6c-1.6,0-2.7-1-2.7-2.6
		C-179.4,287.6-178.4,286.6-176.7,286.6z M-176.7,291.2c1.1,0,1.7-0.9,1.7-1.9s-0.5-1.9-1.7-1.9c-1.1,0-1.7,0.9-1.7,1.9
		S-177.9,291.2-176.7,291.2z"/>
	<path class="st6" d="M-173.3,291.1h0.9v-3.6h-1v-0.7h1v-0.5c0-1.2,0.5-1.7,1.8-1.7c0.3,0,0.5,0.1,0.8,0.1v0.7
		c-0.3,0-0.6-0.1-0.9-0.1c-0.8,0-0.9,0.5-0.9,1v0.5h1.2v0.7h-1.2v3.6h1.1v0.7h-2.9V291.1z"/>
</g>
<g class="st3">
	<path class="st6" d="M-277.1,300.7h-0.6l-2.1,4.8c-0.4,0.9-0.6,1.5-1.6,1.5c-0.2,0-0.5,0-0.7-0.1v-0.7c0.2,0,0.3,0,0.5,0
		c0.8,0,0.8-0.6,1.1-1.2l-1.9-4.3h-0.6V300h2.5v0.7h-1l1.4,3.4l1.4-3.4h-1V300h2.4V300.7z"/>
	<path class="st6" d="M-273.9,299.8c1.6,0,2.6,1,2.6,2.6c0,1.6-1,2.6-2.6,2.6c-1.6,0-2.7-1-2.7-2.6
		C-276.6,300.8-275.5,299.8-273.9,299.8z M-273.9,304.4c1.1,0,1.7-0.9,1.7-1.9s-0.5-1.9-1.7-1.9c-1.1,0-1.7,0.9-1.7,1.9
		S-275,304.4-273.9,304.4z"/>
	<path class="st6" d="M-265.4,304.3h0.9v0.7h-1.8v-0.9h0c-0.2,0.6-0.9,1-1.6,1c-1.3,0-1.8-0.6-1.8-1.8v-2.6h-0.9V300h1.8v3.1
		c0,0.8,0.3,1.3,1.2,1.3c1,0,1.4-0.7,1.4-1.6v-2.1h-0.9V300h1.8V304.3z"/>
	<path class="st6" d="M-263.7,304.3h0.9v-3.6h-0.9V300h1.8v1h0c0.2-0.8,0.8-1.1,1.5-1.1c0.2,0,0.3,0,0.4,0v0.7
		c-0.1,0-0.3-0.1-0.5-0.1c-1.3,0-1.4,1.3-1.4,2.4v1.4h1v0.7h-2.8V304.3z"/>
	<path class="st6" d="M-253.7,299.8c1.6,0,2.6,1,2.6,2.6c0,1.6-1,2.6-2.6,2.6c-1.6,0-2.7-1-2.7-2.6
		C-256.4,300.8-255.3,299.8-253.7,299.8z M-253.7,304.4c1.1,0,1.7-0.9,1.7-1.9s-0.5-1.9-1.7-1.9c-1.1,0-1.7,0.9-1.7,1.9
		S-254.8,304.4-253.7,304.4z"/>
	<path class="st6" d="M-241.1,300.7h-0.7l-1.5,4.3h-1.2l-1.4-4.2h0l-1.4,4.2h-1.2l-1.5-4.3h-0.7V300h2.6v0.7h-1l1.1,3.5h0l1.4-4.2
		h1.2l1.4,4.2h0l1.2-3.5h-1V300h2.5V300.7z"/>
	<path class="st6" d="M-240.5,304.3h0.9v-3.6h-0.9V300h1.8v0.9h0c0.2-0.6,0.9-1,1.7-1c1.3,0,1.8,0.6,1.8,1.8v2.6h0.9v0.7h-2.6v-0.7
		h0.9v-2.4c0-0.8-0.3-1.3-1.2-1.3c-1,0-1.4,0.7-1.4,1.6v2.1h0.9v0.7h-2.6V304.3z"/>
	<path class="st6" d="M-233.2,303.9h1.1v1.1h-1.1V303.9z"/>
</g>
<g>
	<path class="st0" d="M-283.6,369.9c-7.2,0-13-5.8-13-13s5.8-13,13-13c7.2,0,13,5.8,13,13C-270.5,364.1-276.4,369.9-283.6,369.9z
		 M-283.6,346.6c-5.7,0-10.3,4.6-10.3,10.3s4.6,10.3,10.3,10.3c5.7,0,10.3-4.6,10.3-10.3S-277.9,346.6-283.6,346.6z"/>
	<g>
		<path class="st0" d="M-285.7,351.4c0-1.2,1-2.2,2.1-2.2c1.2,0,2.2,0.9,2.2,2.1s-0.9,2.2-2.2,2.2
			C-284.8,353.6-285.7,352.6-285.7,351.4z M-285.4,364.5v-10h3.7v10H-285.4z"/>
	</g>
</g>
<g>
	<path class="st7" d="M-224.3,342.2h-12.9c-1.1,0-2.1,0.6-2.7,1.6l-6.5,11.8c-0.5,0.9-0.5,2,0,3l6.4,11.6c0.5,1,1.6,1.6,2.7,1.6
		h13.1c1.1,0,2.1-0.6,2.7-1.6l6.4-11.6c0.5-0.9,0.5-2,0-3l-6.5-11.8C-222.2,342.8-223.2,342.2-224.3,342.2z"/>
	<g>
		<g>
			<path class="st8" d="M-233.8,348l-0.9,0.9c-0.3,0.3-0.4,0.7-0.4,1.1c0,0.4,0.1,0.8,0.4,1.1l5.9,5.9l-5.9,5.9
				c-0.3,0.3-0.4,0.7-0.4,1.1c0,0.4,0.1,0.8,0.4,1.1l0.9,0.9c0.3,0.3,0.7,0.5,1.1,0.5c0.4,0,0.8-0.2,1.1-0.5l7.8-7.8
				c0.3-0.3,0.5-0.7,0.5-1.1c0-0.4-0.2-0.8-0.5-1.1l-7.8-7.8c-0.3-0.3-0.7-0.4-1.1-0.4C-233.1,347.6-233.5,347.7-233.8,348
				L-233.8,348z"/>
		</g>
	</g>
</g>
</svg>
