<?xml version="1.0" encoding="utf-8"?>
<!-- Generator: Adobe Illustrator 19.1.0, SVG Export Plug-In . SVG Version: 6.00 Build 0)  -->
<svg version="1.1" id="Layer_1" xmlns="http://www.w3.org/2000/svg" xmlns:xlink="http://www.w3.org/1999/xlink" x="0px" y="0px"
	 viewBox="-363 177.4 231.3 206.6" style="enable-background:new -363 177.4 231.3 206.6;" xml:space="preserve">
<style type="text/css">
	.st0{fill:#EBB91D;}
	.st1{fill:#FFFFFF;}
	.st2{fill:#767676;}
	.st3{font-family:'Univers-Black';}
	.st4{font-size:12px;}
	.st5{fill:none;}
	.st6{fill:#231F20;}
	.st7{font-family:'Serifa-Roman';}
	.st8{font-size:11px;}
	.st9{fill:#ECEEEE;}
	.st10{fill:#39A5E1;}
	.st11{fill:#EBEDED;}
	.st12{fill:#BDBBBC;}
</style>
<g>
	<g>
		<polygon class="st0" points="-189.5,177.4 -305.2,177.4 -327.4,217.4 -167.2,217.4 		"/>
		<polygon class="st1" points="-167.2,217.4 -327.4,217.4 -363,281.4 -306,384 -188.6,384 -131.7,281.4 		"/>
	</g>
	<g>
		<text transform="matrix(1 0 0 1 -315.9654 242.7827)" class="st2 st3 st4">Typography in Depth</text>
	</g>
	<g>
		<rect x="-339.7" y="255.6" class="st5" width="180.6" height="51.1"/>
		<text transform="matrix(1 0 0 1 -336.8174 264.6694)" class="st6 st7 st8">After you’ve learned the basics of </text>
		<text transform="matrix(1 0 0 1 -339.2174 277.8694)" class="st6 st7 st8">typography, there is much more to </text>
		<text transform="matrix(1 0 0 1 -336.8174 291.0694)" class="st6 st7 st8">learn to become a knowledgeable </text>
		<text transform="matrix(1 0 0 1 -318.1174 304.2694)" class="st6 st7 st8">and experienced designer.</text>
	</g>
	<path class="st9" d="M-257.1,185.9c-1.3,0-2.9,1.1-3.5,2.8c-0.1,0-0.2,0-0.4,0c-0.1,0-0.2,0-0.4,0c-0.5-1.7-2.3-2.8-3.7-2.8
		c-1.3,0-2.2,0.8-2.4,2.2c-0.1,0.4,0.2,0.7,0.6,0.8s0.7-0.2,0.8-0.6c0.1-0.7,0.5-1,1.1-1c0.9,0,2.1,0.8,2.4,2
		c-0.2,0.1-0.4,0.3-0.5,0.4c-0.8,0.8-1.3,1.8-1.5,2.4l-0.1,0.1c-0.3,0.6-0.5,1.1-0.7,1.6c-1.2,0.7-2.5,1.6-3.5,2.5
		c-1.2,1.2-1.8,2.4-1.8,3.5c0,1,0.5,1.9,1.4,2.7c0.9,0.8,1.9,1.1,2.8,0.8c0.1,0.3,0.2,0.6,0.3,0.9c1.4,3.7,4.5,5,4.6,5l0.2,0.1
		l0.3-0.1c0.1,0,1.4-0.5,2.8-1.9c1-1,1.9-2.3,2.5-4c0,0,0,0,0.1,0c0.7,0.2,1.8,0.3,3-0.7c0.1-0.1,0.2-0.2,0.3-0.3
		c1-1,1.3-2.1,1.1-3.3c-0.5-2-2.7-3.8-4.9-5.1c-0.2-0.7-0.5-1.4-0.9-2.2c-0.6-1.4-1.4-2.2-2.1-2.6c0.3-1.1,1.4-1.9,2.2-1.9
		c0.5,0,0.8,0.4,0.9,1c0,0.4,0.4,0.6,0.8,0.6c0.2,0,0.3-0.1,0.4-0.2c0.1-0.1,0.2-0.4,0.2-0.6C-255.1,186.5-256.2,185.9-257.1,185.9z
		 M-252.8,199.4c0.2,0.8-0.1,1.5-0.9,2.2c-0.8,0.7-1.3,0.6-1.7,0.5c0,0-0.1,0-0.1-0.1c-0.4-0.2-0.8-0.5-1.2-1
		c-0.3-0.3-0.5-0.7-0.8-1.1c-0.4-0.7-0.8-1.5-1.1-2.3c-0.3-0.6-0.5-1.2-0.7-1.8c-0.3-0.8-0.5-1.6-0.7-2.2h0.1
		c1.2,0.5,2.8,1.4,4.2,2.3C-254.3,197-253.1,198.2-252.8,199.4z M-268.4,201.5c-0.6-0.5-0.9-1.1-0.9-1.7c0-0.8,0.4-1.6,1.4-2.5
		c0.5-0.5,1.1-1,1.8-1.5c1.4-1,3-1.7,4.2-2.2l0,0c-0.2,0.6-0.4,1.4-0.7,2.2c-0.2,0.6-0.5,1.2-0.7,1.8c-0.3,0.8-0.7,1.6-1.2,2.2
		c-0.3,0.5-0.6,0.9-0.9,1.2c-0.1,0.1-0.1,0.2-0.2,0.2c-0.4,0.4-0.7,0.6-1,0.7C-267.3,202.2-267.8,202-268.4,201.5z M-261.3,195.8
		h0.5c0.2,0.6,0.4,1.2,0.7,1.8h-1.9C-261.7,197-261.5,196.4-261.3,195.8z M-263,199.8h4c0.4,0.7,0.7,1.3,1.2,1.8l-6.3-0.1
		C-263.8,201.1-263.4,200.5-263,199.8z M-258.6,205.7h-5.2c-0.4-0.5-0.7-1.1-1-1.8l7.4,0.1C-257.8,204.6-258.2,205.2-258.6,205.7z
		 M-258.5,192.3c0.1,0.2,0.2,0.4,0.3,0.6c-1-0.5-1.8-0.8-2.4-1c-0.1-0.1-0.2-0.1-0.4-0.1c-0.1,0-0.3,0-0.4,0.1
		c-0.6,0.2-1.4,0.5-2.2,0.9v-0.1l0.1-0.1c0.3-0.5,0.7-1.4,1.3-2c0.4-0.4,0.8-0.6,1.2-0.6C-260,190-259.2,190.8-258.5,192.3z"/>
	<path class="st9" d="M-231.6,185.9c-1.3,0-2.9,1.1-3.5,2.8c-0.1,0-0.2,0-0.4,0c-0.1,0-0.2,0-0.4,0c-0.5-1.7-2.3-2.8-3.7-2.8
		c-1.3,0-2.2,0.8-2.4,2.2c-0.1,0.4,0.2,0.7,0.6,0.8s0.7-0.2,0.8-0.6c0.1-0.7,0.5-1,1.1-1c0.9,0,2.1,0.8,2.4,2
		c-0.2,0.1-0.4,0.3-0.5,0.4c-0.8,0.8-1.3,1.8-1.5,2.4l-0.1,0.1c-0.3,0.6-0.5,1.1-0.7,1.6c-1.2,0.7-2.5,1.6-3.5,2.5
		c-1.2,1.2-1.8,2.4-1.8,3.5c0,1,0.5,1.9,1.4,2.7c0.9,0.8,1.9,1.1,2.8,0.8c0.1,0.3,0.2,0.6,0.3,0.9c1.4,3.7,4.5,5,4.6,5l0.2,0.1
		l0.3-0.1c0.1,0,1.4-0.5,2.8-1.9c1-1,1.9-2.3,2.5-4c0,0,0,0,0.1,0c0.7,0.2,1.8,0.3,3-0.7c0.1-0.1,0.2-0.2,0.3-0.3
		c1-1,1.3-2.1,1.1-3.3c-0.5-2-2.7-3.8-4.9-5.1c-0.2-0.7-0.5-1.4-0.9-2.2c-0.6-1.4-1.4-2.2-2.1-2.6c0.3-1.1,1.4-1.9,2.2-1.9
		c0.5,0,0.8,0.4,0.9,1c0,0.4,0.4,0.6,0.8,0.6c0.2,0,0.3-0.1,0.4-0.2c0.1-0.1,0.2-0.4,0.2-0.6C-229.5,186.5-230.6,185.9-231.6,185.9z
		 M-227.2,199.4c0.2,0.8-0.1,1.5-0.9,2.2c-0.8,0.7-1.3,0.6-1.7,0.5c0,0-0.1,0-0.1-0.1c-0.4-0.2-0.8-0.5-1.2-1
		c-0.3-0.3-0.5-0.7-0.8-1.1c-0.4-0.7-0.8-1.5-1.1-2.3c-0.3-0.6-0.5-1.2-0.7-1.8c-0.3-0.8-0.5-1.6-0.7-2.2h0.1
		c1.2,0.5,2.8,1.4,4.2,2.3C-228.7,197-227.5,198.2-227.2,199.4z M-242.9,201.5c-0.6-0.5-0.9-1.1-0.9-1.7c0-0.8,0.4-1.6,1.4-2.5
		c0.5-0.5,1.1-1,1.8-1.5c1.4-1,3-1.7,4.2-2.2l0,0c-0.2,0.6-0.4,1.4-0.7,2.2c-0.2,0.6-0.5,1.2-0.7,1.8c-0.3,0.8-0.7,1.6-1.2,2.2
		c-0.3,0.5-0.6,0.9-0.9,1.2c-0.1,0.1-0.1,0.2-0.2,0.2c-0.4,0.4-0.7,0.6-1,0.7C-241.7,202.2-242.3,202-242.9,201.5z M-235.7,195.8
		h0.5c0.2,0.6,0.4,1.2,0.7,1.8h-1.9C-236.1,197-235.9,196.4-235.7,195.8z M-237.5,199.8h4c0.4,0.7,0.7,1.3,1.2,1.8l-6.3-0.1
		C-238.2,201.1-237.8,200.5-237.5,199.8z M-233.1,205.7h-5.2c-0.4-0.5-0.7-1.1-1-1.8l7.4,0.1C-232.3,204.6-232.7,205.2-233.1,205.7z
		 M-232.9,192.3c0.1,0.2,0.2,0.4,0.3,0.6c-1-0.5-1.8-0.8-2.4-1c-0.1-0.1-0.2-0.1-0.4-0.1c-0.1,0-0.3,0-0.4,0.1
		c-0.6,0.2-1.4,0.5-2.2,0.9v-0.1l0.1-0.1c0.3-0.5,0.7-1.4,1.3-2c0.4-0.4,0.8-0.6,1.2-0.6C-234.4,190-233.6,190.8-232.9,192.3z"/>
	<g>
		<path class="st10" d="M-240.3,338.8h-14.2c-1.5,0-2.8,0.8-3.5,2.1l-7.2,13c-0.7,1.2-0.7,2.7,0,3.9l7.1,12.8c0.7,1.3,2,2.1,3.5,2.1
			h14.4c1.5,0,2.8-0.8,3.5-2.1l7.1-12.8c0.7-1.2,0.7-2.7,0-3.9l-7.2-13C-237.5,339.5-238.8,338.8-240.3,338.8z"/>
		<g>
			<g>
				<path class="st11" d="M-250.8,345.5l-1,1c-0.3,0.4-0.5,0.8-0.5,1.3s0.2,0.9,0.5,1.2l6.7,6.7l-6.7,6.7c-0.3,0.3-0.5,0.8-0.5,1.2
					c0,0.5,0.2,0.9,0.5,1.3l1,1c0.4,0.4,0.8,0.5,1.3,0.5s0.9-0.2,1.2-0.5l9-9c0.4-0.3,0.5-0.7,0.5-1.2s-0.2-0.9-0.5-1.3l-9-9
					c-0.3-0.3-0.8-0.5-1.2-0.5C-250.1,345-250.5,345.1-250.8,345.5L-250.8,345.5z"/>
			</g>
		</g>
	</g>
	<path class="st12" d="M-207.1,330.7h-77c-2.6,0-4.8-2.2-4.8-4.8l0,0c0-2.6,2.2-4.8,4.8-4.8h77c2.6,0,4.8,2.2,4.8,4.8l0,0
		C-202.3,328.6-204.4,330.7-207.1,330.7z"/>
	<path class="st0" d="M-262.3,325.9l-2.3,4.8h-22.1c-0.6,0-1.2-0.5-1.6-1.4c-0.4-0.9-0.7-2.1-0.7-3.4c0-2.6,1-4.8,2.3-4.8h22.1
		L-262.3,325.9z"/>
	<polygon class="st0" points="-262.3,321.1 -262.3,325.9 -264.5,321.1 	"/>
	<polygon class="st0" points="-262.3,325.9 -262.3,330.7 -264.5,330.7 	"/>
</g>
</svg>
