<?xml version="1.0" encoding="utf-8"?>
<!-- Generator: Adobe Illustrator 19.1.0, SVG Export Plug-In . SVG Version: 6.00 Build 0)  -->
<svg version="1.1" id="Layer_1" xmlns="http://www.w3.org/2000/svg" xmlns:xlink="http://www.w3.org/1999/xlink" x="0px" y="0px"
	 viewBox="0 0 231.3 206.6" style="enable-background:new 0 0 231.3 206.6;" xml:space="preserve">
<style type="text/css">
	.st0{fill:#8BC53F;}
	.st1{fill:#FFFFFF;}
	.st2{fill:#ECEEEE;}
	.st3{fill:#767676;}
	.st4{font-family:'Univers-Black';}
	.st5{font-size:12px;}
	.st6{fill:none;}
	.st7{fill:#231F20;}
	.st8{font-family:'Serifa-Roman';}
	.st9{font-size:11px;}
	.st10{fill:#39A5E1;}
	.st11{fill:#EBEDED;}
	.st12{fill:#BDBBBC;}
	.st13{fill:#8DC34A;}
</style>
<g>
	<g>
		<polygon class="st0" points="173.5,0 57.8,0 35.6,40 195.8,40 		"/>
		<polygon class="st1" points="195.8,40 35.6,40 0,104 57,206.6 174.4,206.6 231.3,104 		"/>
	</g>
	<path class="st2" d="M119.6,7.9c-1.3,0-2.9,1.1-3.5,2.8c-0.1,0-0.2,0-0.4,0c-0.1,0-0.2,0-0.4,0c-0.5-1.7-2.3-2.8-3.7-2.8
		c-1.3,0-2.2,0.8-2.4,2.2c-0.1,0.4,0.2,0.7,0.6,0.8c0.4,0.1,0.7-0.2,0.8-0.6c0.1-0.7,0.5-1,1.1-1c0.9,0,2.1,0.8,2.4,2
		c-0.2,0.1-0.4,0.3-0.5,0.4c-0.8,0.8-1.3,1.8-1.5,2.4l-0.1,0.1c-0.3,0.6-0.5,1.1-0.7,1.6c-1.2,0.7-2.5,1.6-3.5,2.5
		c-1.2,1.2-1.8,2.4-1.8,3.5c0,1,0.5,1.9,1.4,2.7c0.9,0.8,1.9,1.1,2.8,0.8c0.1,0.3,0.2,0.6,0.3,0.9c1.4,3.7,4.5,5,4.6,5l0.2,0.1
		l0.3-0.1c0.1,0,1.4-0.5,2.8-1.9c1-1,1.9-2.3,2.5-4c0,0,0,0,0.1,0c0.7,0.2,1.8,0.3,3-0.7c0.1-0.1,0.2-0.2,0.3-0.3
		c1-1,1.3-2.1,1.1-3.3c-0.5-2-2.7-3.8-4.9-5.1c-0.2-0.7-0.5-1.4-0.9-2.2c-0.6-1.4-1.4-2.2-2.1-2.6c0.3-1.1,1.4-1.9,2.2-1.9
		c0.5,0,0.8,0.4,0.9,1c0,0.4,0.4,0.6,0.8,0.6c0.2,0,0.3-0.1,0.4-0.2c0.1-0.1,0.2-0.4,0.2-0.6C121.6,8.5,120.5,7.9,119.6,7.9z
		 M123.9,21.3c0.2,0.8-0.1,1.5-0.9,2.2c-0.8,0.7-1.3,0.6-1.7,0.5c0,0-0.1,0-0.1-0.1c-0.4-0.2-0.8-0.5-1.2-1
		c-0.3-0.3-0.5-0.7-0.8-1.1c-0.4-0.7-0.8-1.5-1.1-2.3c-0.3-0.6-0.5-1.2-0.7-1.8c-0.3-0.8-0.5-1.6-0.7-2.2l0.1,0
		c1.2,0.5,2.8,1.4,4.2,2.3C122.4,19,123.6,20.2,123.9,21.3z M108.3,23.4c-0.6-0.5-0.9-1.1-0.9-1.7c0-0.8,0.4-1.6,1.4-2.5
		c0.5-0.5,1.1-1,1.8-1.5c1.4-1,3-1.7,4.2-2.2l0,0c-0.2,0.6-0.4,1.4-0.7,2.2c-0.2,0.6-0.5,1.2-0.7,1.8c-0.3,0.8-0.7,1.6-1.2,2.2
		c-0.3,0.5-0.6,0.9-0.9,1.2c-0.1,0.1-0.1,0.2-0.2,0.2c-0.4,0.4-0.7,0.6-1,0.7C109.4,24.1,108.9,23.9,108.3,23.4z M115.4,17.8l0.5,0
		c0.2,0.6,0.4,1.2,0.7,1.8l-1.9,0C115,18.9,115.2,18.3,115.4,17.8z M113.7,21.8l4,0c0.4,0.7,0.7,1.3,1.2,1.8l-6.3-0.1
		C112.9,23.1,113.3,22.4,113.7,21.8z M118.1,27.7l-5.2,0c-0.4-0.5-0.7-1.1-1-1.8l7.4,0.1C118.9,26.6,118.5,27.2,118.1,27.7z
		 M118.2,14.3c0.1,0.2,0.2,0.4,0.3,0.6c-1-0.5-1.8-0.8-2.4-1c-0.1-0.1-0.2-0.1-0.4-0.1c-0.1,0-0.3,0-0.4,0.1
		c-0.6,0.2-1.4,0.5-2.2,0.9c0,0,0-0.1,0-0.1l0.1-0.1c0.3-0.5,0.7-1.4,1.3-2c0.4-0.4,0.8-0.6,1.2-0.6
		C116.7,11.9,117.5,12.7,118.2,14.3z"/>
	<text transform="matrix(1 0 0 1 39.2256 65.3824)" class="st3 st4 st5">Adobe Illustrator Basics</text>
	<rect x="23.3" y="77.9" class="st6" width="180.6" height="51.1"/>
	<text transform="matrix(1 0 0 1 36.5776 86.9752)"><tspan x="0" y="0" class="st7 st8 st9">Illustrator is a vector drawing </tspan><tspan x="-8.6" y="13.2" class="st7 st8 st9">program. It is often used to draw </tspan><tspan x="-7.9" y="26.4" class="st7 st8 st9">illustrations, cartoons, diagrams, </tspan><tspan x="32.7" y="39.6" class="st7 st8 st9">charts and logos.</tspan></text>
	<g>
		<path class="st10" d="M122.7,160.8h-14.2c-1.5,0-2.8,0.8-3.5,2.1l-7.2,13c-0.7,1.2-0.7,2.7,0,3.9l7.1,12.8c0.7,1.3,2,2.1,3.5,2.1
			h14.4c1.5,0,2.8-0.8,3.5-2.1l7.1-12.8c0.7-1.2,0.7-2.7,0-3.9l-7.2-13C125.5,161.6,124.2,160.8,122.7,160.8z"/>
		<g>
			<g>
				<path class="st11" d="M112.2,167.5l-1,1c-0.3,0.4-0.5,0.8-0.5,1.3c0,0.5,0.2,0.9,0.5,1.2l6.7,6.7l-6.7,6.7
					c-0.3,0.3-0.5,0.8-0.5,1.2c0,0.5,0.2,0.9,0.5,1.3l1,1c0.4,0.4,0.8,0.5,1.3,0.5c0.5,0,0.9-0.2,1.2-0.5l9-9
					c0.4-0.3,0.5-0.7,0.5-1.2c0-0.5-0.2-0.9-0.5-1.3l-9-9c-0.3-0.3-0.8-0.5-1.2-0.5C112.9,167,112.5,167.2,112.2,167.5L112.2,167.5z
					 M112.2,167.5"/>
			</g>
		</g>
	</g>
	<path class="st12" d="M155.9,153.2h-77c-2.6,0-4.8-2.2-4.8-4.8l0,0c0-2.6,2.2-4.8,4.8-4.8h77c2.6,0,4.8,2.2,4.8,4.8l0,0
		C160.7,151,158.6,153.2,155.9,153.2z"/>
	<path class="st13" d="M130.5,148.4l-4.8,4.8H78.9c-1.3,0-2.5-0.5-3.4-1.4c-0.9-0.9-1.4-2.1-1.4-3.4c0-2.6,2.2-4.8,4.8-4.8h46.8
		L130.5,148.4z"/>
	<polygon class="st13" points="130.5,143.6 130.5,148.4 125.7,143.6 	"/>
	<polygon class="st13" points="130.5,146 130.5,150.8 125.7,150.8 	"/>
</g>
</svg>
