<?xml version="1.0" encoding="utf-8"?>
<!-- Generator: Adobe Illustrator 19.1.0, SVG Export Plug-In . SVG Version: 6.00 Build 0)  -->
<svg version="1.1" id="Layer_1" xmlns="http://www.w3.org/2000/svg" xmlns:xlink="http://www.w3.org/1999/xlink" x="0px" y="0px"
	 viewBox="0 0 231.3 206.6" style="enable-background:new 0 0 231.3 206.6;" xml:space="preserve">
<style type="text/css">
	.st0{fill:#EBB91D;}
	.st1{fill:#FFFFFF;}
	.st2{fill:#767676;}
	.st3{font-family:'Univers-Black';}
	.st4{font-size:12px;}
	.st5{fill:none;}
	.st6{fill:#231F20;}
	.st7{font-family:'Serifa-Roman';}
	.st8{font-size:11px;}
	.st9{fill:#ECEEEE;}
	.st10{fill:#39A5E1;}
	.st11{fill:#EBEDED;}
	.st12{font-family:'Univers-Condensed';}
</style>
<g>
	<g>
		<polygon class="st0" points="173.5,0 57.8,0 35.6,40 195.8,40 		"/>
		<polygon class="st1" points="195.8,40 35.6,40 0,104 57,206.6 174.4,206.6 231.3,104 		"/>
	</g>
	<g>
		<text transform="matrix(1 0 0 1 47.0346 65.3827)" class="st2 st3 st4">Typography in Depth</text>
	</g>
	<g>
		<rect x="23.3" y="78.2" class="st5" width="180.6" height="51.1"/>
		<text transform="matrix(1 0 0 1 26.1826 87.2694)"><tspan x="0" y="0" class="st6 st7 st8">After you’ve learned the basics of </tspan><tspan x="-2.4" y="13.2" class="st6 st7 st8">typography, there is much more to </tspan><tspan x="0" y="26.4" class="st6 st7 st8">learn to become a knowledgeable </tspan><tspan x="18.7" y="39.6" class="st6 st7 st8">and experienced designer.</tspan></text>
	</g>
	<path class="st9" d="M105.9,8.5c-1.3,0-2.9,1.1-3.5,2.8c-0.1,0-0.2,0-0.4,0c-0.1,0-0.2,0-0.4,0c-0.5-1.7-2.3-2.8-3.7-2.8
		c-1.3,0-2.2,0.8-2.4,2.2c-0.1,0.4,0.2,0.7,0.6,0.8c0.4,0.1,0.7-0.2,0.8-0.6c0.1-0.7,0.5-1,1.1-1c0.9,0,2.1,0.8,2.4,2
		c-0.2,0.1-0.4,0.3-0.5,0.4c-0.8,0.8-1.3,1.8-1.5,2.4l-0.1,0.1c-0.3,0.6-0.5,1.1-0.7,1.6c-1.2,0.7-2.5,1.6-3.5,2.5
		c-1.2,1.2-1.8,2.4-1.8,3.5c0,1,0.5,1.9,1.4,2.7c0.9,0.8,1.9,1.1,2.8,0.8c0.1,0.3,0.2,0.6,0.3,0.9c1.4,3.7,4.5,5,4.6,5l0.2,0.1
		l0.3-0.1c0.1,0,1.4-0.5,2.8-1.9c1-1,1.9-2.3,2.5-4c0,0,0,0,0.1,0c0.7,0.2,1.8,0.3,3-0.7c0.1-0.1,0.2-0.2,0.3-0.3
		c1-1,1.3-2.1,1.1-3.3c-0.5-2-2.7-3.8-4.9-5.1c-0.2-0.7-0.5-1.4-0.9-2.2c-0.6-1.4-1.4-2.2-2.1-2.6c0.3-1.1,1.4-1.9,2.2-1.9
		c0.5,0,0.8,0.4,0.9,1c0,0.4,0.4,0.6,0.8,0.6c0.2,0,0.3-0.1,0.4-0.2c0.1-0.1,0.2-0.4,0.2-0.6C107.9,9.1,106.8,8.5,105.9,8.5z
		 M110.2,22c0.2,0.8-0.1,1.5-0.9,2.2c-0.8,0.7-1.3,0.6-1.7,0.5c0,0-0.1,0-0.1-0.1c-0.4-0.2-0.8-0.5-1.2-1c-0.3-0.3-0.5-0.7-0.8-1.1
		c-0.4-0.7-0.8-1.5-1.1-2.3c-0.3-0.6-0.5-1.2-0.7-1.8c-0.3-0.8-0.5-1.6-0.7-2.2l0.1,0c1.2,0.5,2.8,1.4,4.2,2.3
		C108.7,19.6,109.9,20.8,110.2,22z M94.6,24.1c-0.6-0.5-0.9-1.1-0.9-1.7c0-0.8,0.4-1.6,1.4-2.5c0.5-0.5,1.1-1,1.8-1.5
		c1.4-1,3-1.7,4.2-2.2l0,0c-0.2,0.6-0.4,1.4-0.7,2.2c-0.2,0.6-0.5,1.2-0.7,1.8c-0.3,0.8-0.7,1.6-1.2,2.2c-0.3,0.5-0.6,0.9-0.9,1.2
		c-0.1,0.1-0.1,0.2-0.2,0.2c-0.4,0.4-0.7,0.6-1,0.7C95.7,24.8,95.2,24.6,94.6,24.1z M101.7,18.4l0.5,0c0.2,0.6,0.4,1.2,0.7,1.8
		l-1.9,0C101.3,19.6,101.5,19,101.7,18.4z M100,22.4l4,0c0.4,0.7,0.7,1.3,1.2,1.8l-6.3-0.1C99.2,23.7,99.6,23.1,100,22.4z
		 M104.4,28.3l-5.2,0c-0.4-0.5-0.7-1.1-1-1.8l7.4,0.1C105.2,27.2,104.8,27.8,104.4,28.3z M104.5,14.9c0.1,0.2,0.2,0.4,0.3,0.6
		c-1-0.5-1.8-0.8-2.4-1c-0.1-0.1-0.2-0.1-0.4-0.1c-0.1,0-0.3,0-0.4,0.1c-0.6,0.2-1.4,0.5-2.2,0.9c0,0,0-0.1,0-0.1l0.1-0.1
		c0.3-0.5,0.7-1.4,1.3-2c0.4-0.4,0.8-0.6,1.2-0.6C103,12.6,103.8,13.4,104.5,14.9z"/>
	<path class="st9" d="M131.4,8.5c-1.3,0-2.9,1.1-3.5,2.8c-0.1,0-0.2,0-0.4,0c-0.1,0-0.2,0-0.4,0c-0.5-1.7-2.3-2.8-3.7-2.8
		c-1.3,0-2.2,0.8-2.4,2.2c-0.1,0.4,0.2,0.7,0.6,0.8c0.4,0.1,0.7-0.2,0.8-0.6c0.1-0.7,0.5-1,1.1-1c0.9,0,2.1,0.8,2.4,2
		c-0.2,0.1-0.4,0.3-0.5,0.4c-0.8,0.8-1.3,1.8-1.5,2.4l-0.1,0.1c-0.3,0.6-0.5,1.1-0.7,1.6c-1.2,0.7-2.5,1.6-3.5,2.5
		c-1.2,1.2-1.8,2.4-1.8,3.5c0,1,0.5,1.9,1.4,2.7c0.9,0.8,1.9,1.1,2.8,0.8c0.1,0.3,0.2,0.6,0.3,0.9c1.4,3.7,4.5,5,4.6,5l0.2,0.1
		l0.3-0.1c0.1,0,1.4-0.5,2.8-1.9c1-1,1.9-2.3,2.5-4c0,0,0,0,0.1,0c0.7,0.2,1.8,0.3,3-0.7c0.1-0.1,0.2-0.2,0.3-0.3
		c1-1,1.3-2.1,1.1-3.3c-0.5-2-2.7-3.8-4.9-5.1c-0.2-0.7-0.5-1.4-0.9-2.2c-0.6-1.4-1.4-2.2-2.1-2.6c0.3-1.1,1.4-1.9,2.2-1.9
		c0.5,0,0.8,0.4,0.9,1c0,0.4,0.4,0.6,0.8,0.6c0.2,0,0.3-0.1,0.4-0.2c0.1-0.1,0.2-0.4,0.2-0.6C133.5,9.1,132.4,8.5,131.4,8.5z
		 M135.8,22c0.2,0.8-0.1,1.5-0.9,2.2c-0.8,0.7-1.3,0.6-1.7,0.5c0,0-0.1,0-0.1-0.1c-0.4-0.2-0.8-0.5-1.2-1c-0.3-0.3-0.5-0.7-0.8-1.1
		c-0.4-0.7-0.8-1.5-1.1-2.3c-0.3-0.6-0.5-1.2-0.7-1.8c-0.3-0.8-0.5-1.6-0.7-2.2l0.1,0c1.2,0.5,2.8,1.4,4.2,2.3
		C134.3,19.6,135.5,20.8,135.8,22z M120.1,24.1c-0.6-0.5-0.9-1.1-0.9-1.7c0-0.8,0.4-1.6,1.4-2.5c0.5-0.5,1.1-1,1.8-1.5
		c1.4-1,3-1.7,4.2-2.2l0,0c-0.2,0.6-0.4,1.4-0.7,2.2c-0.2,0.6-0.5,1.2-0.7,1.8c-0.3,0.8-0.7,1.6-1.2,2.2c-0.3,0.5-0.6,0.9-0.9,1.2
		c-0.1,0.1-0.1,0.2-0.2,0.2c-0.4,0.4-0.7,0.6-1,0.7C121.3,24.8,120.7,24.6,120.1,24.1z M127.3,18.4l0.5,0c0.2,0.6,0.4,1.2,0.7,1.8
		l-1.9,0C126.9,19.6,127.1,19,127.3,18.4z M125.5,22.4l4,0c0.4,0.7,0.7,1.3,1.2,1.8l-6.3-0.1C124.8,23.7,125.2,23.1,125.5,22.4z
		 M129.9,28.3l-5.2,0c-0.4-0.5-0.7-1.1-1-1.8l7.4,0.1C130.7,27.2,130.3,27.8,129.9,28.3z M130.1,14.9c0.1,0.2,0.2,0.4,0.3,0.6
		c-1-0.5-1.8-0.8-2.4-1c-0.1-0.1-0.2-0.1-0.4-0.1c-0.1,0-0.3,0-0.4,0.1c-0.6,0.2-1.4,0.5-2.2,0.9c0,0,0-0.1,0-0.1l0.1-0.1
		c0.3-0.5,0.7-1.4,1.3-2c0.4-0.4,0.8-0.6,1.2-0.6C128.6,12.6,129.4,13.4,130.1,14.9z"/>
	<g>
		<path class="st0" d="M85.7,189.7c-7.2,0-13-5.8-13-13s5.8-13,13-13s13,5.8,13,13S92.9,189.7,85.7,189.7z M85.7,166.4
			c-5.7,0-10.3,4.6-10.3,10.3S80,187,85.7,187c5.7,0,10.3-4.6,10.3-10.3S91.4,166.4,85.7,166.4z"/>
		<g>
			<path class="st0" d="M83.6,171.2c0-1.2,1-2.2,2.1-2.2c1.2,0,2.2,0.9,2.2,2.1c0,1.2-0.9,2.2-2.2,2.2
				C84.5,173.3,83.6,172.4,83.6,171.2z M83.9,184.3v-10h3.7v10H83.9z"/>
		</g>
	</g>
	<g>
		<path class="st10" d="M145,161.9h-12.9c-1.1,0-2.1,0.6-2.7,1.6l-6.5,11.8c-0.5,0.9-0.5,2,0,3l6.4,11.6c0.5,1,1.6,1.6,2.7,1.6h13.1
			c1.1,0,2.1-0.6,2.7-1.6l6.4-11.6c0.5-0.9,0.5-2,0-3l-6.5-11.8C147.1,162.5,146.1,161.9,145,161.9z"/>
		<g>
			<g>
				<path class="st11" d="M135.5,167.8l-0.9,0.9c-0.3,0.3-0.4,0.7-0.4,1.1c0,0.4,0.1,0.8,0.4,1.1l5.9,5.9l-5.9,5.9
					c-0.3,0.3-0.4,0.7-0.4,1.1c0,0.4,0.1,0.8,0.4,1.1l0.9,0.9c0.3,0.3,0.7,0.5,1.1,0.5c0.4,0,0.8-0.2,1.1-0.5l7.8-7.8
					c0.3-0.3,0.5-0.7,0.5-1.1c0-0.4-0.2-0.8-0.5-1.1l-7.8-7.8c-0.3-0.3-0.7-0.4-1.1-0.4C136.2,167.3,135.8,167.5,135.5,167.8
					L135.5,167.8z"/>
			</g>
		</g>
	</g>
	<text transform="matrix(1 0 0 1 76.8906 146.5683)" class="st0 st12 st4">2 badges earned</text>
</g>
</svg>
