<?xml version="1.0" encoding="utf-8"?>
<!-- Generator: Adobe Illustrator 19.1.0, SVG Export Plug-In . SVG Version: 6.00 Build 0)  -->
<svg version="1.1" id="Layer_1" xmlns="http://www.w3.org/2000/svg" xmlns:xlink="http://www.w3.org/1999/xlink" x="0px" y="0px"
	 viewBox="-363 177.4 231.3 206.6" style="enable-background:new -363 177.4 231.3 206.6;" xml:space="preserve">
<style type="text/css">
	.st0{fill:#EBB91D;}
	.st1{fill:#FFFFFF;}
	.st2{enable-background:new    ;}
	.st3{fill:#767676;}
	.st4{fill:none;}
	.st5{fill:#231F20;}
	.st6{fill:#ECEEEE;}
	.st7{fill:#39A5E1;}
	.st8{fill:#EBEDED;}
</style>
<g>
	<g>
		<polygon class="st0" points="-189.5,177.4 -305.2,177.4 -327.4,217.4 -167.2,217.4 		"/>
		<polygon class="st1" points="-167.2,217.4 -327.4,217.4 -363,281.4 -306,384 -188.6,384 -131.7,281.4 		"/>
	</g>
	<g>
		<g class="st2">
			<path class="st3" d="M-313.2,235.8h-2.7v-1.7h7.8v1.7h-2.7v7h-2.4V235.8z"/>
			<path class="st3" d="M-307.2,242.8v-8.7h2.3v3.3c0.5-0.6,1.1-0.8,1.9-0.8c1.3,0,2.3,0.8,2.3,2.2v4h-2.3v-3.5
				c0-0.6-0.2-1.2-0.9-1.2c-1.1,0-1,1.2-1,1.3v3.5H-307.2z"/>
			<path class="st3" d="M-297.4,240.2c0,0.8,0.2,1.5,1,1.5c0.6,0,1-0.3,1.1-0.9h2.1c-0.1,0.8-0.6,1.3-1.1,1.7
				c-0.5,0.3-1.2,0.5-1.9,0.5c-2.4,0-3.4-1-3.4-3.4c0-1.9,1.4-3,3.2-3c2.4,0,3.2,1.4,3.2,3.6H-297.4z M-295.2,239
				c0-0.3-0.1-0.6-0.3-0.9c-0.2-0.3-0.4-0.4-0.8-0.4c-0.8,0-1,0.6-1,1.3H-295.2z"/>
			<path class="st3" d="M-287.8,242.8v-8.7h4c2.1,0,3.5,0.7,3.5,2.8s-1.4,2.8-3.5,2.8h-1.6v3.1H-287.8z M-284.1,238
				c0.9,0,1.3-0.5,1.3-1.1s-0.4-1.1-1.3-1.1h-1.2v2.2H-284.1z"/>
			<path class="st3" d="M-275.4,242.8c0-0.2,0-0.4,0-0.8h0c-0.3,0.4-0.8,1-1.9,1c-1.4,0-2.2-0.8-2.1-2c0-1.5,1.4-2.1,3.3-2.1h0.7
				c0-0.5,0.1-1.3-0.8-1.3c-0.6,0-0.7,0.6-0.7,0.9h-2.1c0-0.9,0.4-1.3,1-1.6c0.6-0.3,1.4-0.4,2.1-0.4c1.2,0,2.7,0.5,2.7,1.9v3.1
				c0,0.3,0,0.5,0.1,1.2H-275.4z M-276.6,241.6c1,0,1.1-0.9,1.1-1.7c-0.5,0-0.9,0-1.2,0.1c-0.3,0.2-0.6,0.4-0.6,0.8
				C-277.4,241.3-277,241.6-276.6,241.6z"/>
			<path class="st3" d="M-271.3,236.8v-0.9l2.3-0.9v1.8h1.3v1.4h-1.3v2.4c0,0.2-0.1,0.9,0.4,0.9c0.3,0,0.6,0,0.9,0v1.4
				c-0.5,0.1-0.9,0.1-1.2,0.1c-1.5,0-2.5-0.2-2.4-2.1v-2.7h-1.2v-1.4H-271.3z"/>
			<path class="st3" d="M-266.5,242.8v-8.7h2.3v3.3c0.5-0.6,1.1-0.8,1.9-0.8c1.3,0,2.3,0.8,2.3,2.2v4h-2.3v-3.5
				c0-0.6-0.2-1.2-0.9-1.2c-1.1,0-1,1.2-1,1.3v3.5H-266.5z"/>
			<path class="st3" d="M-257.9,242.8v-4.6h-1.1v-1.4h1.2c-0.1-2,0.5-2.8,2.5-2.8c0.4,0,0.8,0.1,1.2,0.1v1.4
				c-0.2-0.1-0.4-0.1-0.6-0.1c-0.8,0-0.9,0.7-0.8,1.3h1.4v1.4h-1.4v4.6H-257.9z"/>
			<path class="st3" d="M-253.1,235.7v-1.6h2.3v1.6H-253.1z M-253.1,242.8v-6h2.3v6H-253.1z"/>
			<path class="st3" d="M-246.9,237.4c0.5-0.6,1.1-0.8,1.9-0.8c1.3,0,2.3,0.8,2.3,2.2v4h-2.3v-3.5c0-0.6-0.2-1.2-0.9-1.2
				c-1.1,0-1,1.2-1,1.3v3.5h-2.3v-4.5c0-0.5,0-0.9-0.1-1.5h2.3L-246.9,237.4z"/>
			<path class="st3" d="M-236.9,241.9L-236.9,241.9c-0.4,0.7-1.2,1.1-2.1,1.1c-1.7,0-2.5-1.7-2.5-3.2c0-1.6,0.8-3.2,2.6-3.2
				c0.8,0,1.5,0.3,2,0.9h0v-3.3h2.3v8.7h-2.2L-236.9,241.9z M-239.1,239.8c0,0.8,0.2,1.9,1.1,1.9s1.1-1.1,1.1-1.9
				c0-0.8-0.1-1.9-1.1-1.9C-239,237.9-239.1,239-239.1,239.8z"/>
			<path class="st3" d="M-231.4,240.2c0,0.8,0.2,1.5,1,1.5c0.6,0,1-0.3,1.1-0.9h2.1c-0.1,0.8-0.6,1.3-1.1,1.7
				c-0.5,0.3-1.2,0.5-1.9,0.5c-2.4,0-3.4-1-3.4-3.4c0-1.9,1.4-3,3.2-3c2.4,0,3.2,1.4,3.2,3.6H-231.4z M-229.3,239
				c0-0.3-0.1-0.6-0.3-0.9s-0.4-0.4-0.8-0.4c-0.8,0-1,0.6-1,1.3H-229.3z"/>
			<path class="st3" d="M-223.6,237.9L-223.6,237.9c0.3-1,1-1.3,2-1.3v1.9c-0.2,0-0.3,0-0.5,0c-1.2,0-1.6,0.7-1.6,1.9v2.4h-2.3v-4.5
				c0-0.5,0-0.9-0.1-1.5h2.3L-223.6,237.9z"/>
			<path class="st3" d="M-214.5,235.8h-2.7v-1.7h7.8v1.7h-2.7v7h-2.4V235.8z"/>
			<path class="st3" d="M-202.9,239.8c0,2.2-1.6,3.2-3.5,3.2s-3.5-1-3.5-3.2s1.6-3.2,3.5-3.2S-202.9,237.6-202.9,239.8z
				 M-206.4,241.6c1,0,1.2-1,1.2-1.9s-0.2-1.9-1.2-1.9c-1,0-1.2,1-1.2,1.9S-207.4,241.6-206.4,241.6z"/>
			<path class="st3" d="M-194.9,239.8c0,2.2-1.6,3.2-3.5,3.2s-3.5-1-3.5-3.2s1.6-3.2,3.5-3.2S-194.9,237.6-194.9,239.8z
				 M-198.4,241.6c1,0,1.2-1,1.2-1.9s-0.2-1.9-1.2-1.9c-1,0-1.2,1-1.2,1.9S-199.4,241.6-198.4,241.6z"/>
			<path class="st3" d="M-193.5,242.8v-8.7h2.3v8.7H-193.5z"/>
		</g>
	</g>
	<g>
		<rect x="-339.7" y="255.6" class="st4" width="180.6" height="51.1"/>
		<g class="st2">
			<path class="st5" d="M-336.7,264h0.8l2.8-6.5h1.2l2.7,6.5h0.8v0.7h-3V264h1.1l-0.7-1.7h-3.2l-0.7,1.7h1.1v0.7h-2.9V264z
				 M-332.6,258.4l-1.3,3.2h2.6L-332.6,258.4z"/>
			<path class="st5" d="M-327.9,264h0.9v-3.6h-1v-0.7h1v-0.5c0-1.2,0.5-1.7,1.8-1.7c0.3,0,0.5,0.1,0.8,0.1v0.7
				c-0.3,0-0.6-0.1-0.9-0.1c-0.8,0-0.9,0.5-0.9,1v0.5h1.2v0.7h-1.2v3.6h1.1v0.7h-2.9V264z"/>
			<path class="st5" d="M-320.9,260.4h-1.6v2.9c0,0.4,0.1,0.8,0.6,0.8c0.5,0,0.6-0.5,0.6-0.9h0.8c0,1-0.4,1.7-1.5,1.7
				c-1.3,0-1.3-0.9-1.3-1.9v-2.5h-1v-0.7h1v-1.1l0.9-0.3v1.4h1.6V260.4z"/>
			<path class="st5" d="M-318.8,262.4c0,1.2,0.6,1.7,1.8,1.7c0.6,0,1.4-0.3,1.4-1h0.8c0,1.2-1.3,1.7-2.4,1.7c-1.6,0-2.7-1-2.7-2.6
				c0-1.6,1-2.6,2.7-2.6c1.8,0,2.4,1.3,2.4,2.9H-318.8z M-315.6,261.7c-0.1-0.9-0.6-1.5-1.6-1.5c-0.9,0-1.6,0.5-1.6,1.5H-315.6z"/>
			<path class="st5" d="M-313.8,264h0.9v-3.6h-0.9v-0.7h1.8v1h0c0.2-0.8,0.8-1.1,1.5-1.1c0.2,0,0.3,0,0.4,0v0.7
				c-0.1,0-0.3-0.1-0.5-0.1c-1.3,0-1.4,1.3-1.4,2.4v1.4h1v0.7h-2.8V264z"/>
			<path class="st5" d="M-300.9,260.4h-0.6l-2.1,4.8c-0.4,0.9-0.6,1.5-1.6,1.5c-0.2,0-0.5,0-0.7-0.1v-0.7c0.2,0,0.3,0,0.5,0
				c0.8,0,0.8-0.6,1.1-1.2l-1.9-4.3h-0.6v-0.7h2.5v0.7h-1l1.4,3.4l1.4-3.4h-1v-0.7h2.4V260.4z"/>
			<path class="st5" d="M-297.7,259.5c1.6,0,2.6,1,2.6,2.6c0,1.6-1,2.6-2.6,2.6c-1.6,0-2.7-1-2.7-2.6
				C-300.3,260.5-299.3,259.5-297.7,259.5z M-297.7,264.1c1.1,0,1.7-0.9,1.7-1.9s-0.5-1.9-1.7-1.9c-1.1,0-1.7,0.9-1.7,1.9
				S-298.8,264.1-297.7,264.1z"/>
			<path class="st5" d="M-289.1,264h0.9v0.7h-1.8v-0.9h0c-0.2,0.6-0.9,1-1.6,1c-1.3,0-1.8-0.6-1.8-1.8v-2.6h-0.9v-0.7h1.8v3.1
				c0,0.8,0.3,1.3,1.2,1.3c1,0,1.4-0.7,1.4-1.6v-2.1h-0.9v-0.7h1.8V264z"/>
			<path class="st5" d="M-286.9,257.5h1.1v1.1l-0.5,1.4h-0.6l0.5-1.4h-0.5V257.5z"/>
			<path class="st5" d="M-278.9,260.4h-0.6l-1.8,4.3h-1.1l-1.7-4.3h-0.6v-0.7h2.5v0.7h-0.9l1.4,3.5l1.4-3.5h-0.9v-0.7h2.4V260.4z"/>
			<path class="st5" d="M-277.2,262.4c0,1.2,0.6,1.7,1.8,1.7c0.6,0,1.4-0.3,1.4-1h0.8c0,1.2-1.3,1.7-2.4,1.7c-1.6,0-2.7-1-2.7-2.6
				c0-1.6,1-2.6,2.7-2.6c1.8,0,2.4,1.3,2.4,2.9H-277.2z M-274,261.7c-0.1-0.9-0.6-1.5-1.6-1.5c-0.9,0-1.6,0.5-1.6,1.5H-274z"/>
			<path class="st5" d="M-269.3,264h0.9v-5.8h-0.9v-0.7h1.8v6.5h0.9v0.7h-2.6V264z"/>
			<path class="st5" d="M-265,262.4c0,1.2,0.6,1.7,1.8,1.7c0.6,0,1.4-0.3,1.4-1h0.8c0,1.2-1.3,1.7-2.4,1.7c-1.6,0-2.7-1-2.7-2.6
				c0-1.6,1-2.6,2.7-2.6c1.8,0,2.4,1.3,2.4,2.9H-265z M-261.8,261.7c-0.1-0.9-0.6-1.5-1.6-1.5c-0.9,0-1.6,0.5-1.6,1.5H-261.8z"/>
			<path class="st5" d="M-256.3,263.6L-256.3,263.6c-0.2,0.8-0.9,1.1-1.7,1.1c-1,0-2-0.4-2-1.6c0-1.5,1.5-1.6,2.7-1.6h1v-0.3
				c0-0.8-0.4-1.1-1.2-1.1c-0.7,0-1.2,0.1-1.3,0.9h-1c0.1-1.2,1.1-1.6,2.2-1.6c1.2,0,2.2,0.3,2.2,1.6v2.9h0.9v0.7h-1.8V263.6z
				 M-257.9,264.1c1.1,0,1.6-0.8,1.6-1.8h-0.8c-0.6,0-1.9,0-1.9,0.9C-259,263.9-258.4,264.1-257.9,264.1z"/>
			<path class="st5" d="M-253.9,264h0.9v-3.6h-0.9v-0.7h1.8v1h0c0.2-0.8,0.8-1.1,1.5-1.1c0.2,0,0.3,0,0.4,0v0.7
				c-0.1,0-0.3-0.1-0.5-0.1c-1.3,0-1.4,1.3-1.4,2.4v1.4h1v0.7h-2.8V264z"/>
			<path class="st5" d="M-249.6,264h0.9v-3.6h-0.9v-0.7h1.8v0.9h0c0.2-0.6,0.9-1,1.7-1c1.3,0,1.8,0.6,1.8,1.8v2.6h0.9v0.7h-2.6V264
				h0.9v-2.4c0-0.8-0.3-1.3-1.2-1.3c-1,0-1.4,0.7-1.4,1.6v2.1h0.9v0.7h-2.6V264z"/>
			<path class="st5" d="M-241.8,262.4c0,1.2,0.6,1.7,1.8,1.7c0.6,0,1.4-0.3,1.4-1h0.8c0,1.2-1.3,1.7-2.4,1.7c-1.6,0-2.7-1-2.7-2.6
				c0-1.6,1-2.6,2.7-2.6c1.8,0,2.4,1.3,2.4,2.9H-241.8z M-238.6,261.7c-0.1-0.9-0.6-1.5-1.6-1.5c-0.9,0-1.6,0.5-1.6,1.5H-238.6z"/>
			<path class="st5" d="M-232.5,263.7L-232.5,263.7c-0.3,0.6-1,1.1-1.8,1.1c-1.7,0-2.4-1.1-2.4-2.6c0-1.5,0.9-2.6,2.4-2.6
				c0.7,0,1.5,0.4,1.8,1h0v-2.4h-0.9v-0.7h1.8v6.5h0.9v0.7h-1.8V263.7z M-234.1,260.2c-1.1,0-1.7,0.8-1.7,1.9c0,1,0.5,1.9,1.7,1.9
				c1.1,0,1.6-0.9,1.6-1.9C-232.5,261.1-233,260.2-234.1,260.2z"/>
			<path class="st5" d="M-223.7,260.4h-1.6v2.9c0,0.4,0.1,0.8,0.5,0.8c0.5,0,0.6-0.5,0.6-0.9h0.8c0,1-0.4,1.7-1.5,1.7
				c-1.3,0-1.3-0.9-1.3-1.9v-2.5h-1v-0.7h1v-1.1l0.9-0.3v1.4h1.6V260.4z"/>
			<path class="st5" d="M-222.7,264h0.9v-5.8h-0.9v-0.7h1.8v3.1h0c0.2-0.6,0.9-1,1.7-1c1.3,0,1.8,0.6,1.8,1.8v2.6h0.9v0.7h-2.6V264
				h0.9v-2.4c0-0.8-0.3-1.3-1.2-1.3c-1,0-1.4,0.7-1.4,1.6v2.1h0.9v0.7h-2.6V264z"/>
			<path class="st5" d="M-214.9,262.4c0,1.2,0.6,1.7,1.8,1.7c0.6,0,1.4-0.3,1.4-1h0.8c0,1.2-1.3,1.7-2.4,1.7c-1.6,0-2.7-1-2.7-2.6
				c0-1.6,1-2.6,2.7-2.6c1.8,0,2.4,1.3,2.4,2.9H-214.9z M-211.7,261.7c-0.1-0.9-0.6-1.5-1.6-1.5c-0.9,0-1.6,0.5-1.6,1.5H-211.7z"/>
			<path class="st5" d="M-207,264h0.9v-5.8h-0.9v-0.7h1.8v3.1h0c0.3-0.6,1.1-1,1.7-1c1.6,0,2.5,1,2.5,2.6c0,1.6-0.9,2.6-2.5,2.6
				c-0.7,0-1.5-0.4-1.7-1.1h0v1h-1.8V264z M-203.4,264.1c1,0,1.5-0.8,1.5-1.9c0-1-0.5-1.9-1.5-1.9c-1.2,0-1.8,0.9-1.8,1.9
				C-205.2,263.3-204.6,264.1-203.4,264.1z"/>
			<path class="st5" d="M-196.4,263.6L-196.4,263.6c-0.2,0.8-0.9,1.1-1.7,1.1c-1,0-2-0.4-2-1.6c0-1.5,1.5-1.6,2.7-1.6h1v-0.3
				c0-0.8-0.4-1.1-1.2-1.1c-0.7,0-1.2,0.1-1.3,0.9h-1c0.1-1.2,1.1-1.6,2.2-1.6c1.2,0,2.2,0.3,2.2,1.6v2.9h0.9v0.7h-1.8V263.6z
				 M-198,264.1c1.1,0,1.6-0.8,1.6-1.8h-0.8c-0.6,0-1.9,0-1.9,0.9C-199.1,263.9-198.5,264.1-198,264.1z"/>
			<path class="st5" d="M-193.8,264.7v-1.7h0.7c0,1,0.8,1.2,1.6,1.2c0.4,0,1-0.2,1-0.8c0-0.7-0.7-0.7-1.3-0.7c-0.9-0.2-2-0.3-2-1.4
				c0-1.1,1-1.6,1.9-1.6c0.6,0,1.3,0.2,1.5,0.7h0v-0.6h0.7v1.7h-0.7c0-0.9-0.6-1.1-1.4-1.1c-0.5,0-1.2,0.1-1.2,0.8
				c0,0.6,0.9,0.6,1.5,0.7c0.9,0.2,1.9,0.3,1.9,1.4c0,1.2-1.1,1.6-2.1,1.6c-0.6,0-1.3-0.2-1.5-0.8h0v0.7H-193.8z"/>
			<path class="st5" d="M-188.6,264h0.9v-3.6h-0.9v-0.7h1.8v4.3h0.9v0.7h-2.6V264z M-186.8,258.5h-1v-1h1V258.5z"/>
			<path class="st5" d="M-180.7,261.5h-0.7c-0.1-0.8-0.6-1.3-1.4-1.3c-1.1,0-1.6,0.9-1.6,1.9s0.6,1.9,1.6,1.9c0.7,0,1.3-0.4,1.4-1.1
				h0.8c0,1.2-1.1,1.8-2.2,1.8c-1.6,0-2.6-1-2.6-2.6c0-1.6,1-2.6,2.6-2.6c0.6,0,1.1,0.2,1.4,0.7h0v-0.6h0.7V261.5z"/>
			<path class="st5" d="M-179.7,264.7v-1.7h0.7c0,1,0.8,1.2,1.6,1.2c0.4,0,1-0.2,1-0.8c0-0.7-0.7-0.7-1.3-0.7c-0.9-0.2-2-0.3-2-1.4
				c0-1.1,1-1.6,1.9-1.6c0.6,0,1.3,0.2,1.5,0.7h0v-0.6h0.7v1.7h-0.7c0-0.9-0.6-1.1-1.4-1.1c-0.5,0-1.2,0.1-1.2,0.8
				c0,0.6,0.9,0.6,1.5,0.7c0.9,0.2,1.9,0.3,1.9,1.4c0,1.2-1.1,1.6-2.1,1.6c-0.6,0-1.3-0.2-1.5-0.8h0v0.7H-179.7z"/>
			<path class="st5" d="M-168.7,259.5c1.6,0,2.6,1,2.6,2.6c0,1.6-1,2.6-2.6,2.6c-1.6,0-2.7-1-2.7-2.6
				C-171.3,260.5-170.3,259.5-168.7,259.5z M-168.7,264.1c1.1,0,1.7-0.9,1.7-1.9s-0.5-1.9-1.7-1.9c-1.1,0-1.7,0.9-1.7,1.9
				S-169.8,264.1-168.7,264.1z"/>
			<path class="st5" d="M-165.3,264h0.9v-3.6h-1v-0.7h1v-0.5c0-1.2,0.5-1.7,1.8-1.7c0.3,0,0.5,0.1,0.8,0.1v0.7
				c-0.3,0-0.6-0.1-0.9-0.1c-0.8,0-0.9,0.5-0.9,1v0.5h1.2v0.7h-1.2v3.6h1.1v0.7h-2.9V264z"/>
		</g>
		<g class="st2">
			<path class="st5" d="M-335.5,273.6h-1.6v2.9c0,0.4,0.1,0.8,0.6,0.8c0.5,0,0.6-0.5,0.6-0.9h0.8c0,1-0.4,1.7-1.5,1.7
				c-1.3,0-1.3-0.9-1.3-1.9v-2.5h-1v-0.7h1v-1.1l0.9-0.3v1.4h1.6V273.6z"/>
			<path class="st5" d="M-329,273.6h-0.6l-2.1,4.8c-0.4,0.9-0.6,1.5-1.6,1.5c-0.2,0-0.5,0-0.7-0.1V279c0.2,0,0.3,0,0.5,0
				c0.8,0,0.8-0.6,1.1-1.2l-1.9-4.3h-0.6v-0.7h2.5v0.7h-1l1.4,3.4l1.4-3.4h-1v-0.7h2.4V273.6z"/>
			<path class="st5" d="M-328.6,279h0.9v-5.4h-0.9v-0.7h1.8v1h0c0.3-0.6,0.9-1.1,1.7-1.1c1.6,0,2.5,1,2.5,2.6c0,1.6-0.9,2.6-2.5,2.6
				c-0.8,0-1.4-0.4-1.7-1.1h0v2.1h0.9v0.7h-2.7V279z M-325,277.3c1,0,1.5-0.8,1.5-1.9c0-1-0.5-1.9-1.5-1.9c-1.2,0-1.8,0.9-1.8,1.9
				C-326.8,276.5-326.2,277.3-325,277.3z"/>
			<path class="st5" d="M-319,272.7c1.6,0,2.6,1,2.6,2.6c0,1.6-1,2.6-2.6,2.6c-1.6,0-2.7-1-2.7-2.6
				C-321.7,273.7-320.6,272.7-319,272.7z M-319,277.3c1.1,0,1.7-0.9,1.7-1.9s-0.5-1.9-1.7-1.9c-1.1,0-1.7,0.9-1.7,1.9
				S-320.2,277.3-319,277.3z"/>
			<path class="st5" d="M-309.5,273.6h-0.9v2.7c0,0.8,0.1,1.8-0.3,2.5c-0.4,0.8-1.4,1-2.3,1c-1.1,0-2.4-0.2-2.4-1.5h1
				c0,0.7,0.7,0.8,1.3,0.8c1.3,0,1.7-0.5,1.7-1.8v-0.6h0c-0.3,0.7-1.1,1-1.8,1c-1.5,0-2.4-1-2.4-2.6c0-1.5,0.9-2.5,2.4-2.5
				c0.8,0,1.5,0.3,1.9,1l0,0v0h0v-0.9h1.8V273.6z M-312.9,277.1c1.1,0,1.6-0.8,1.6-1.8c0-1-0.5-1.8-1.6-1.8c-1.2,0-1.8,0.7-1.8,1.8
				C-314.6,276.3-314.1,277.1-312.9,277.1z"/>
			<path class="st5" d="M-308.9,277.2h0.9v-3.6h-0.9v-0.7h1.8v1h0c0.2-0.8,0.8-1.1,1.5-1.1c0.2,0,0.3,0,0.4,0v0.7
				c-0.1,0-0.3-0.1-0.5-0.1c-1.3,0-1.4,1.3-1.4,2.4v1.4h1v0.7h-2.8V277.2z"/>
			<path class="st5" d="M-300.9,276.8L-300.9,276.8c-0.2,0.8-0.9,1.1-1.7,1.1c-1,0-2-0.4-2-1.6c0-1.5,1.5-1.6,2.7-1.6h1v-0.3
				c0-0.8-0.4-1.1-1.2-1.1c-0.7,0-1.2,0.1-1.3,0.9h-1c0.1-1.2,1.1-1.6,2.2-1.6c1.2,0,2.2,0.3,2.2,1.6v2.9h0.9v0.7h-1.8V276.8z
				 M-302.5,277.3c1.1,0,1.6-0.8,1.6-1.8h-0.8c-0.6,0-1.9,0-1.9,0.9C-303.6,277.1-303,277.3-302.5,277.3z"/>
			<path class="st5" d="M-298.6,279h0.9v-5.4h-0.9v-0.7h1.8v1h0c0.3-0.6,0.9-1.1,1.7-1.1c1.6,0,2.5,1,2.5,2.6c0,1.6-0.9,2.6-2.5,2.6
				c-0.8,0-1.4-0.4-1.7-1.1h0v2.1h0.9v0.7h-2.7V279z M-295.1,277.3c1,0,1.5-0.8,1.5-1.9c0-1-0.5-1.9-1.5-1.9c-1.2,0-1.8,0.9-1.8,1.9
				C-296.8,276.5-296.3,277.3-295.1,277.3z"/>
			<path class="st5" d="M-291.7,277.2h0.9v-5.8h-0.9v-0.7h1.8v3.1h0c0.2-0.6,0.9-1,1.7-1c1.3,0,1.8,0.6,1.8,1.8v2.6h0.9v0.7h-2.6
				v-0.7h0.9v-2.4c0-0.8-0.3-1.3-1.2-1.3c-1,0-1.4,0.7-1.4,1.6v2.1h0.9v0.7h-2.6V277.2z"/>
			<path class="st5" d="M-279.4,273.6h-0.6l-2.1,4.8c-0.4,0.9-0.6,1.5-1.6,1.5c-0.2,0-0.5,0-0.7-0.1V279c0.2,0,0.3,0,0.5,0
				c0.8,0,0.8-0.6,1.1-1.2l-1.9-4.3h-0.6v-0.7h2.5v0.7h-1l1.4,3.4l1.4-3.4h-1v-0.7h2.4V273.6z"/>
			<path class="st5" d="M-279.1,276.8h1.1v1.1l-0.5,1.4h-0.6l0.5-1.4h-0.5V276.8z"/>
			<path class="st5" d="M-270.3,273.6h-1.6v2.9c0,0.4,0.1,0.8,0.6,0.8c0.5,0,0.6-0.5,0.6-0.9h0.8c0,1-0.4,1.7-1.5,1.7
				c-1.3,0-1.3-0.9-1.3-1.9v-2.5h-1v-0.7h1v-1.1l0.9-0.3v1.4h1.6V273.6z"/>
			<path class="st5" d="M-269.3,277.2h0.9v-5.8h-0.9v-0.7h1.8v3.1h0c0.2-0.6,0.9-1,1.7-1c1.3,0,1.8,0.6,1.8,1.8v2.6h0.9v0.7h-2.6
				v-0.7h0.9v-2.4c0-0.8-0.3-1.3-1.2-1.3c-1,0-1.4,0.7-1.4,1.6v2.1h0.9v0.7h-2.6V277.2z"/>
			<path class="st5" d="M-261.5,275.6c0,1.2,0.6,1.7,1.8,1.7c0.6,0,1.4-0.3,1.4-1h0.8c0,1.2-1.3,1.7-2.4,1.7c-1.6,0-2.7-1-2.7-2.6
				c0-1.6,1-2.6,2.7-2.6c1.8,0,2.4,1.3,2.4,2.9H-261.5z M-258.3,274.9c-0.1-0.9-0.6-1.5-1.6-1.5c-0.9,0-1.6,0.5-1.6,1.5H-258.3z"/>
			<path class="st5" d="M-256.5,277.2h0.9v-3.6h-0.9v-0.7h1.8v1h0c0.2-0.8,0.8-1.1,1.5-1.1c0.2,0,0.3,0,0.4,0v0.7
				c-0.1,0-0.3-0.1-0.5-0.1c-1.3,0-1.4,1.3-1.4,2.4v1.4h1v0.7h-2.8V277.2z"/>
			<path class="st5" d="M-251.1,275.6c0,1.2,0.6,1.7,1.8,1.7c0.6,0,1.4-0.3,1.4-1h0.8c0,1.2-1.3,1.7-2.4,1.7c-1.6,0-2.7-1-2.7-2.6
				c0-1.6,1-2.6,2.7-2.6c1.8,0,2.4,1.3,2.4,2.9H-251.1z M-247.9,274.9c-0.1-0.9-0.6-1.5-1.6-1.5c-0.9,0-1.6,0.5-1.6,1.5H-247.9z"/>
			<path class="st5" d="M-243.1,277.2h0.9v-3.6h-0.9v-0.7h1.8v4.3h0.9v0.7h-2.6V277.2z M-241.4,271.7h-1v-1h1V271.7z"/>
			<path class="st5" d="M-239.8,277.9v-1.7h0.7c0,1,0.8,1.2,1.6,1.2c0.4,0,1-0.2,1-0.8c0-0.7-0.7-0.7-1.3-0.7c-0.9-0.2-2-0.3-2-1.4
				c0-1.1,1-1.6,1.9-1.6c0.6,0,1.3,0.2,1.5,0.7h0v-0.6h0.7v1.7h-0.7c0-0.9-0.6-1.1-1.4-1.1c-0.5,0-1.2,0.1-1.2,0.8
				c0,0.6,0.9,0.6,1.5,0.7c0.9,0.2,1.9,0.3,1.9,1.4c0,1.2-1.1,1.6-2.1,1.6c-0.6,0-1.3-0.2-1.5-0.8h0v0.7H-239.8z"/>
			<path class="st5" d="M-231.5,277.2h0.9v-3.6h-0.9v-0.7h1.8v0.9h0c0.2-0.6,0.8-1,1.6-1c0.8,0,1.3,0.3,1.6,1c0.3-0.6,0.9-1,1.6-1
				c1.2,0,1.8,0.6,1.8,1.7v2.7h0.9v0.7h-2.6v-0.7h0.9v-2.1c0-0.8,0-1.6-1.1-1.6c-1,0-1.3,0.8-1.3,1.6v2.1h0.9v0.7h-2.6v-0.7h0.9
				v-2.1c0-0.9,0-1.6-1.1-1.6c-1,0-1.4,0.8-1.4,1.7v2.1h0.9v0.7h-2.6V277.2z"/>
			<path class="st5" d="M-216.6,277.2h0.9v0.7h-1.8V277h0c-0.2,0.6-0.9,1-1.6,1c-1.3,0-1.8-0.6-1.8-1.8v-2.6h-0.9v-0.7h1.8v3.1
				c0,0.8,0.3,1.3,1.2,1.3c1,0,1.4-0.7,1.4-1.6v-2.1h-0.9v-0.7h1.8V277.2z"/>
			<path class="st5" d="M-210.2,274.7h-0.7c-0.1-0.8-0.6-1.3-1.4-1.3c-1.1,0-1.6,0.9-1.6,1.9s0.6,1.9,1.6,1.9c0.7,0,1.3-0.4,1.4-1.1
				h0.8c0,1.2-1.1,1.8-2.2,1.8c-1.6,0-2.6-1-2.6-2.6c0-1.6,1-2.6,2.6-2.6c0.6,0,1.1,0.2,1.4,0.7h0v-0.6h0.7V274.7z"/>
			<path class="st5" d="M-209.4,277.2h0.9v-5.8h-0.9v-0.7h1.8v3.1h0c0.2-0.6,0.9-1,1.7-1c1.3,0,1.8,0.6,1.8,1.8v2.6h0.9v0.7h-2.6
				v-0.7h0.9v-2.4c0-0.8-0.3-1.3-1.2-1.3c-1,0-1.4,0.7-1.4,1.6v2.1h0.9v0.7h-2.6V277.2z"/>
			<path class="st5" d="M-199.7,277.2h0.9v-3.6h-0.9v-0.7h1.8v0.9h0c0.2-0.6,0.8-1,1.6-1c0.8,0,1.3,0.3,1.6,1c0.3-0.6,0.9-1,1.6-1
				c1.2,0,1.8,0.6,1.8,1.7v2.7h0.9v0.7h-2.6v-0.7h0.9v-2.1c0-0.8,0-1.6-1.1-1.6c-1,0-1.3,0.8-1.3,1.6v2.1h0.9v0.7h-2.6v-0.7h0.9
				v-2.1c0-0.9,0-1.6-1.1-1.6c-1,0-1.4,0.8-1.4,1.7v2.1h0.9v0.7h-2.6V277.2z"/>
			<path class="st5" d="M-187.2,272.7c1.6,0,2.6,1,2.6,2.6c0,1.6-1,2.6-2.6,2.6c-1.6,0-2.7-1-2.7-2.6
				C-189.9,273.7-188.8,272.7-187.2,272.7z M-187.2,277.3c1.1,0,1.7-0.9,1.7-1.9s-0.5-1.9-1.7-1.9c-1.1,0-1.7,0.9-1.7,1.9
				S-188.3,277.3-187.2,277.3z"/>
			<path class="st5" d="M-183.8,277.2h0.9v-3.6h-0.9v-0.7h1.8v1h0c0.2-0.8,0.8-1.1,1.5-1.1c0.2,0,0.3,0,0.4,0v0.7
				c-0.1,0-0.3-0.1-0.5-0.1c-1.3,0-1.4,1.3-1.4,2.4v1.4h1v0.7h-2.8V277.2z"/>
			<path class="st5" d="M-178.4,275.6c0,1.2,0.6,1.7,1.8,1.7c0.6,0,1.4-0.3,1.4-1h0.8c0,1.2-1.3,1.7-2.4,1.7c-1.6,0-2.7-1-2.7-2.6
				c0-1.6,1-2.6,2.7-2.6c1.8,0,2.4,1.3,2.4,2.9H-178.4z M-175.2,274.9c-0.1-0.9-0.6-1.5-1.6-1.5c-0.9,0-1.6,0.5-1.6,1.5H-175.2z"/>
			<path class="st5" d="M-167,273.6h-1.6v2.9c0,0.4,0.1,0.8,0.5,0.8c0.5,0,0.6-0.5,0.6-0.9h0.8c0,1-0.4,1.7-1.5,1.7
				c-1.3,0-1.3-0.9-1.3-1.9v-2.5h-1v-0.7h1v-1.1l0.9-0.3v1.4h1.6V273.6z"/>
			<path class="st5" d="M-163.3,272.7c1.6,0,2.6,1,2.6,2.6c0,1.6-1,2.6-2.6,2.6c-1.6,0-2.7-1-2.7-2.6
				C-166,273.7-165,272.7-163.3,272.7z M-163.3,277.3c1.1,0,1.7-0.9,1.7-1.9s-0.5-1.9-1.7-1.9c-1.1,0-1.7,0.9-1.7,1.9
				S-164.5,277.3-163.3,277.3z"/>
		</g>
		<g class="st2">
			<path class="st5" d="M-336.5,290.4h0.9v-5.8h-0.9v-0.7h1.8v6.5h0.9v0.7h-2.6V290.4z"/>
			<path class="st5" d="M-332.3,288.8c0,1.2,0.6,1.7,1.8,1.7c0.6,0,1.4-0.3,1.4-1h0.8c0,1.2-1.3,1.7-2.4,1.7c-1.6,0-2.7-1-2.7-2.6
				c0-1.6,1-2.6,2.7-2.6c1.8,0,2.4,1.3,2.4,2.9H-332.3z M-329,288.1c-0.1-0.9-0.6-1.5-1.6-1.5c-0.9,0-1.6,0.5-1.6,1.5H-329z"/>
			<path class="st5" d="M-323.5,290L-323.5,290c-0.2,0.8-0.9,1.1-1.7,1.1c-1,0-2-0.4-2-1.6c0-1.5,1.5-1.6,2.7-1.6h1v-0.3
				c0-0.8-0.4-1.1-1.2-1.1c-0.7,0-1.2,0.1-1.3,0.9h-1c0.1-1.2,1.1-1.6,2.2-1.6c1.2,0,2.2,0.3,2.2,1.6v2.9h0.9v0.7h-1.8V290z
				 M-325.1,290.5c1.1,0,1.6-0.8,1.6-1.8h-0.8c-0.6,0-1.9,0-1.9,0.9C-326.2,290.3-325.7,290.5-325.1,290.5z"/>
			<path class="st5" d="M-321.1,290.4h0.9v-3.6h-0.9v-0.7h1.8v1h0c0.2-0.8,0.8-1.1,1.5-1.1c0.2,0,0.3,0,0.4,0v0.7
				c-0.1,0-0.3-0.1-0.5-0.1c-1.3,0-1.4,1.3-1.4,2.4v1.4h1v0.7h-2.8V290.4z"/>
			<path class="st5" d="M-316.8,290.4h0.9v-3.6h-0.9v-0.7h1.8v0.9h0c0.2-0.6,0.9-1,1.7-1c1.3,0,1.8,0.6,1.8,1.8v2.6h0.9v0.7h-2.6
				v-0.7h0.9V288c0-0.8-0.3-1.3-1.2-1.3c-1,0-1.4,0.7-1.4,1.6v2.1h0.9v0.7h-2.6V290.4z"/>
			<path class="st5" d="M-303.8,286.8h-1.6v2.9c0,0.4,0.1,0.8,0.6,0.8c0.5,0,0.6-0.5,0.6-0.9h0.8c0,1-0.4,1.7-1.5,1.7
				c-1.3,0-1.3-0.9-1.3-1.9v-2.5h-1v-0.7h1V285l0.9-0.3v1.4h1.6V286.8z"/>
			<path class="st5" d="M-300.1,285.9c1.6,0,2.6,1,2.6,2.6c0,1.6-1,2.6-2.6,2.6c-1.6,0-2.7-1-2.7-2.6
				C-302.8,286.9-301.7,285.9-300.1,285.9z M-300.1,290.5c1.1,0,1.7-0.9,1.7-1.9s-0.5-1.9-1.7-1.9c-1.1,0-1.7,0.9-1.7,1.9
				S-301.2,290.5-300.1,290.5z"/>
			<path class="st5" d="M-293.8,290.4h0.9v-5.8h-0.9v-0.7h1.8v3.1h0c0.3-0.6,1.1-1,1.7-1c1.6,0,2.5,1,2.5,2.6c0,1.6-0.9,2.6-2.5,2.6
				c-0.7,0-1.5-0.4-1.7-1.1h0v1h-1.8V290.4z M-290.2,290.5c1,0,1.5-0.8,1.5-1.9c0-1-0.5-1.9-1.5-1.9c-1.2,0-1.8,0.9-1.8,1.9
				C-292,289.7-291.4,290.5-290.2,290.5z"/>
			<path class="st5" d="M-285.8,288.8c0,1.2,0.6,1.7,1.8,1.7c0.6,0,1.4-0.3,1.4-1h0.8c0,1.2-1.3,1.7-2.4,1.7c-1.6,0-2.7-1-2.7-2.6
				c0-1.6,1-2.6,2.7-2.6c1.8,0,2.4,1.3,2.4,2.9H-285.8z M-282.6,288.1c-0.1-0.9-0.6-1.5-1.6-1.5c-0.9,0-1.6,0.5-1.6,1.5H-282.6z"/>
			<path class="st5" d="M-276,287.9h-0.7c-0.1-0.8-0.6-1.3-1.4-1.3c-1.1,0-1.6,0.9-1.6,1.9s0.6,1.9,1.6,1.9c0.7,0,1.3-0.4,1.4-1.1
				h0.8c0,1.2-1.1,1.8-2.2,1.8c-1.6,0-2.6-1-2.6-2.6c0-1.6,1-2.6,2.6-2.6c0.6,0,1.1,0.2,1.4,0.7h0v-0.6h0.7V287.9z"/>
			<path class="st5" d="M-272.6,285.9c1.6,0,2.6,1,2.6,2.6c0,1.6-1,2.6-2.6,2.6c-1.6,0-2.7-1-2.7-2.6
				C-275.3,286.9-274.2,285.9-272.6,285.9z M-272.6,290.5c1.1,0,1.7-0.9,1.7-1.9s-0.5-1.9-1.7-1.9c-1.1,0-1.7,0.9-1.7,1.9
				S-273.7,290.5-272.6,290.5z"/>
			<path class="st5" d="M-269.2,290.4h0.9v-3.6h-0.9v-0.7h1.8v0.9h0c0.2-0.6,0.8-1,1.6-1c0.8,0,1.3,0.3,1.6,1c0.3-0.6,0.9-1,1.6-1
				c1.2,0,1.8,0.6,1.8,1.7v2.7h0.9v0.7h-2.6v-0.7h0.9v-2.1c0-0.8,0-1.6-1.1-1.6c-1,0-1.3,0.8-1.3,1.6v2.1h0.9v0.7h-2.6v-0.7h0.9
				v-2.1c0-0.9,0-1.6-1.1-1.6c-1,0-1.4,0.8-1.4,1.7v2.1h0.9v0.7h-2.6V290.4z"/>
			<path class="st5" d="M-258.3,288.8c0,1.2,0.6,1.7,1.8,1.7c0.6,0,1.4-0.3,1.4-1h0.8c0,1.2-1.3,1.7-2.4,1.7c-1.6,0-2.7-1-2.7-2.6
				c0-1.6,1-2.6,2.7-2.6c1.8,0,2.4,1.3,2.4,2.9H-258.3z M-255.1,288.1c-0.1-0.9-0.6-1.5-1.6-1.5c-0.9,0-1.6,0.5-1.6,1.5H-255.1z"/>
			<path class="st5" d="M-246.5,290L-246.5,290c-0.2,0.8-0.9,1.1-1.7,1.1c-1,0-2-0.4-2-1.6c0-1.5,1.5-1.6,2.7-1.6h1v-0.3
				c0-0.8-0.4-1.1-1.2-1.1c-0.7,0-1.2,0.1-1.3,0.9h-1c0.1-1.2,1.1-1.6,2.2-1.6c1.2,0,2.2,0.3,2.2,1.6v2.9h0.9v0.7h-1.8V290z
				 M-248.1,290.5c1.1,0,1.6-0.8,1.6-1.8h-0.8c-0.6,0-1.9,0-1.9,0.9C-249.2,290.3-248.6,290.5-248.1,290.5z"/>
			<path class="st5" d="M-241.1,290.4h0.9v-5.8h-0.9v-0.7h1.8v4.5l2-1.6v0h-0.8v-0.7h2.5v0.7h-0.7l-1.4,1.1l1.6,2.5h0.6v0.7h-2.3
				v-0.7h0.7l-1.2-1.9l-1,0.8v1.1h0.8v0.7h-2.6V290.4z"/>
			<path class="st5" d="M-234.9,290.4h0.9v-3.6h-0.9v-0.7h1.8v0.9h0c0.2-0.6,0.9-1,1.7-1c1.3,0,1.8,0.6,1.8,1.8v2.6h0.9v0.7h-2.6
				v-0.7h0.9V288c0-0.8-0.3-1.3-1.2-1.3c-1,0-1.4,0.7-1.4,1.6v2.1h0.9v0.7h-2.6V290.4z"/>
			<path class="st5" d="M-225.5,285.9c1.6,0,2.6,1,2.6,2.6c0,1.6-1,2.6-2.6,2.6c-1.6,0-2.7-1-2.7-2.6
				C-228.2,286.9-227.1,285.9-225.5,285.9z M-225.5,290.5c1.1,0,1.7-0.9,1.7-1.9s-0.5-1.9-1.7-1.9c-1.1,0-1.7,0.9-1.7,1.9
				S-226.7,290.5-225.5,290.5z"/>
			<path class="st5" d="M-212.9,286.8h-0.7l-1.5,4.3h-1.2l-1.4-4.2h0l-1.4,4.2h-1.2l-1.5-4.3h-0.7v-0.7h2.6v0.7h-1l1.1,3.5h0
				l1.4-4.2h1.2l1.4,4.2h0l1.2-3.5h-1v-0.7h2.5V286.8z"/>
			<path class="st5" d="M-212.4,290.4h0.9v-5.8h-0.9v-0.7h1.8v6.5h0.9v0.7h-2.6V290.4z"/>
			<path class="st5" d="M-208.2,288.8c0,1.2,0.6,1.7,1.8,1.7c0.6,0,1.4-0.3,1.4-1h0.8c0,1.2-1.3,1.7-2.4,1.7c-1.6,0-2.7-1-2.7-2.6
				c0-1.6,1-2.6,2.7-2.6c1.8,0,2.4,1.3,2.4,2.9H-208.2z M-204.9,288.1c-0.1-0.9-0.6-1.5-1.6-1.5c-0.9,0-1.6,0.5-1.6,1.5H-204.9z"/>
			<path class="st5" d="M-198.8,290.1L-198.8,290.1c-0.3,0.6-1,1.1-1.8,1.1c-1.7,0-2.4-1.1-2.4-2.6c0-1.5,0.9-2.6,2.4-2.6
				c0.7,0,1.5,0.4,1.8,1h0v-2.4h-0.9v-0.7h1.8v6.5h0.9v0.7h-1.8V290.1z M-200.5,286.6c-1.1,0-1.7,0.8-1.7,1.9c0,1,0.5,1.9,1.7,1.9
				c1.1,0,1.6-0.9,1.6-1.9C-198.8,287.5-199.4,286.6-200.5,286.6z"/>
			<path class="st5" d="M-190.3,286.8h-0.9v2.7c0,0.8,0.1,1.8-0.3,2.5c-0.4,0.8-1.4,1-2.3,1c-1.1,0-2.4-0.2-2.4-1.5h1
				c0,0.7,0.7,0.8,1.3,0.8c1.3,0,1.7-0.5,1.7-1.8V290h0c-0.3,0.7-1.1,1-1.8,1c-1.5,0-2.4-1-2.4-2.6c0-1.5,0.9-2.5,2.4-2.5
				c0.8,0,1.5,0.3,1.9,1l0,0v0h0v-0.9h1.8V286.8z M-193.8,290.3c1.1,0,1.6-0.8,1.6-1.8c0-1-0.5-1.8-1.6-1.8c-1.2,0-1.8,0.7-1.8,1.8
				C-195.4,289.5-194.9,290.3-193.8,290.3z"/>
			<path class="st5" d="M-188.6,288.8c0,1.2,0.6,1.7,1.8,1.7c0.6,0,1.4-0.3,1.4-1h0.8c0,1.2-1.3,1.7-2.4,1.7c-1.6,0-2.7-1-2.7-2.6
				c0-1.6,1-2.6,2.7-2.6c1.8,0,2.4,1.3,2.4,2.9H-188.6z M-185.4,288.1c-0.1-0.9-0.6-1.5-1.6-1.5c-0.9,0-1.6,0.5-1.6,1.5H-185.4z"/>
			<path class="st5" d="M-179.8,290L-179.8,290c-0.2,0.8-0.9,1.1-1.7,1.1c-1,0-2-0.4-2-1.6c0-1.5,1.5-1.6,2.7-1.6h1v-0.3
				c0-0.8-0.4-1.1-1.2-1.1c-0.7,0-1.2,0.1-1.3,0.9h-1c0.1-1.2,1.1-1.6,2.2-1.6c1.2,0,2.2,0.3,2.2,1.6v2.9h0.9v0.7h-1.8V290z
				 M-181.4,290.5c1.1,0,1.6-0.8,1.6-1.8h-0.8c-0.6,0-1.9,0-1.9,0.9C-182.6,290.3-182,290.5-181.4,290.5z"/>
			<path class="st5" d="M-177.6,290.4h0.9v-5.8h-0.9v-0.7h1.8v3.1h0c0.3-0.6,1.1-1,1.7-1c1.6,0,2.5,1,2.5,2.6c0,1.6-0.9,2.6-2.5,2.6
				c-0.7,0-1.5-0.4-1.7-1.1h0v1h-1.8V290.4z M-174.1,290.5c1,0,1.5-0.8,1.5-1.9c0-1-0.5-1.9-1.5-1.9c-1.2,0-1.8,0.9-1.8,1.9
				C-175.8,289.7-175.3,290.5-174.1,290.5z"/>
			<path class="st5" d="M-170.8,290.4h0.9v-5.8h-0.9v-0.7h1.8v6.5h0.9v0.7h-2.6V290.4z"/>
			<path class="st5" d="M-166.6,288.8c0,1.2,0.6,1.7,1.8,1.7c0.6,0,1.4-0.3,1.4-1h0.8c0,1.2-1.3,1.7-2.4,1.7c-1.6,0-2.7-1-2.7-2.6
				c0-1.6,1-2.6,2.7-2.6c1.8,0,2.4,1.3,2.4,2.9H-166.6z M-163.4,288.1c-0.1-0.9-0.6-1.5-1.6-1.5c-0.9,0-1.6,0.5-1.6,1.5H-163.4z"/>
		</g>
		<g class="st2">
			<path class="st5" d="M-314,303.2L-314,303.2c-0.2,0.8-0.9,1.1-1.7,1.1c-1,0-2-0.4-2-1.6c0-1.5,1.5-1.6,2.7-1.6h1v-0.3
				c0-0.8-0.4-1.1-1.2-1.1c-0.7,0-1.2,0.1-1.3,0.9h-1c0.1-1.2,1.1-1.6,2.2-1.6c1.2,0,2.2,0.3,2.2,1.6v2.9h0.9v0.7h-1.8V303.2z
				 M-315.6,303.7c1.1,0,1.6-0.8,1.6-1.8h-0.8c-0.6,0-1.9,0-1.9,0.9C-316.7,303.5-316.1,303.7-315.6,303.7z"/>
			<path class="st5" d="M-311.6,303.6h0.9V300h-0.9v-0.7h1.8v0.9h0c0.2-0.6,0.9-1,1.7-1c1.3,0,1.8,0.6,1.8,1.8v2.6h0.9v0.7h-2.6
				v-0.7h0.9v-2.4c0-0.8-0.3-1.3-1.2-1.3c-1,0-1.4,0.7-1.4,1.6v2.1h0.9v0.7h-2.6V303.6z"/>
			<path class="st5" d="M-300.6,303.3L-300.6,303.3c-0.3,0.6-1,1.1-1.8,1.1c-1.7,0-2.4-1.1-2.4-2.6c0-1.5,0.9-2.6,2.4-2.6
				c0.7,0,1.5,0.4,1.8,1h0v-2.4h-0.9v-0.7h1.8v6.5h0.9v0.7h-1.8V303.3z M-302.2,299.8c-1.1,0-1.7,0.8-1.7,1.9c0,1,0.5,1.9,1.7,1.9
				c1.1,0,1.6-0.9,1.6-1.9C-300.6,300.7-301.1,299.8-302.2,299.8z"/>
			<path class="st5" d="M-294,302c0,1.2,0.6,1.7,1.8,1.7c0.6,0,1.4-0.3,1.4-1h0.8c0,1.2-1.3,1.7-2.4,1.7c-1.6,0-2.7-1-2.7-2.6
				c0-1.6,1-2.6,2.7-2.6c1.8,0,2.4,1.3,2.4,2.9H-294z M-290.8,301.3c-0.1-0.9-0.6-1.5-1.6-1.5c-0.9,0-1.6,0.5-1.6,1.5H-290.8z"/>
			<path class="st5" d="M-289.2,303.6h0.6l1.8-1.9l-1.7-1.7h-0.5v-0.7h2.4v0.7h-0.7l1.2,1.3l1.2-1.3h-0.8v-0.7h2.3v0.7h-0.6
				l-1.7,1.7l1.7,1.9h0.6v0.7h-2.5v-0.7h0.8l-1.3-1.4l-1.3,1.4h0.9v0.7h-2.4V303.6z"/>
			<path class="st5" d="M-283,305.4h0.9V300h-0.9v-0.7h1.8v1h0c0.3-0.6,0.9-1.1,1.7-1.1c1.6,0,2.5,1,2.5,2.6c0,1.6-0.9,2.6-2.5,2.6
				c-0.8,0-1.4-0.4-1.7-1.1h0v2.1h0.9v0.7h-2.7V305.4z M-279.5,303.7c1,0,1.5-0.8,1.5-1.9c0-1-0.5-1.9-1.5-1.9
				c-1.2,0-1.8,0.9-1.8,1.9C-281.2,302.9-280.7,303.7-279.5,303.7z"/>
			<path class="st5" d="M-275.1,302c0,1.2,0.6,1.7,1.8,1.7c0.6,0,1.4-0.3,1.4-1h0.8c0,1.2-1.3,1.7-2.4,1.7c-1.6,0-2.7-1-2.7-2.6
				c0-1.6,1-2.6,2.7-2.6c1.8,0,2.4,1.3,2.4,2.9H-275.1z M-271.8,301.3c-0.1-0.9-0.6-1.5-1.6-1.5c-0.9,0-1.6,0.5-1.6,1.5H-271.8z"/>
			<path class="st5" d="M-270,303.6h0.9V300h-0.9v-0.7h1.8v1h0c0.2-0.8,0.8-1.1,1.5-1.1c0.2,0,0.3,0,0.4,0v0.7
				c-0.1,0-0.3-0.1-0.5-0.1c-1.3,0-1.4,1.3-1.4,2.4v1.4h1v0.7h-2.8V303.6z"/>
			<path class="st5" d="M-265.8,303.6h0.9V300h-0.9v-0.7h1.8v4.3h0.9v0.7h-2.6V303.6z M-264.1,298.1h-1v-1h1V298.1z"/>
			<path class="st5" d="M-261.6,302c0,1.2,0.6,1.7,1.8,1.7c0.6,0,1.4-0.3,1.4-1h0.8c0,1.2-1.3,1.7-2.4,1.7c-1.6,0-2.7-1-2.7-2.6
				c0-1.6,1-2.6,2.7-2.6c1.8,0,2.4,1.3,2.4,2.9H-261.6z M-258.4,301.3c-0.1-0.9-0.6-1.5-1.6-1.5c-0.9,0-1.6,0.5-1.6,1.5H-258.4z"/>
			<path class="st5" d="M-256.6,303.6h0.9V300h-0.9v-0.7h1.8v0.9h0c0.2-0.6,0.9-1,1.7-1c1.3,0,1.8,0.6,1.8,1.8v2.6h0.9v0.7h-2.6
				v-0.7h0.9v-2.4c0-0.8-0.3-1.3-1.2-1.3c-1,0-1.4,0.7-1.4,1.6v2.1h0.9v0.7h-2.6V303.6z"/>
			<path class="st5" d="M-245.1,301.1h-0.7c-0.1-0.8-0.6-1.3-1.4-1.3c-1.1,0-1.6,0.9-1.6,1.9s0.6,1.9,1.6,1.9c0.7,0,1.3-0.4,1.4-1.1
				h0.8c0,1.2-1.1,1.8-2.2,1.8c-1.6,0-2.6-1-2.6-2.6c0-1.6,1-2.6,2.6-2.6c0.6,0,1.1,0.2,1.4,0.7h0v-0.6h0.7V301.1z"/>
			<path class="st5" d="M-243.3,302c0,1.2,0.6,1.7,1.8,1.7c0.6,0,1.4-0.3,1.4-1h0.8c0,1.2-1.3,1.7-2.4,1.7c-1.6,0-2.7-1-2.7-2.6
				c0-1.6,1-2.6,2.7-2.6c1.8,0,2.4,1.3,2.4,2.9H-243.3z M-240,301.3c-0.1-0.9-0.6-1.5-1.6-1.5c-0.9,0-1.6,0.5-1.6,1.5H-240z"/>
			<path class="st5" d="M-234,303.3L-234,303.3c-0.3,0.6-1,1.1-1.8,1.1c-1.7,0-2.4-1.1-2.4-2.6c0-1.5,0.9-2.6,2.4-2.6
				c0.7,0,1.5,0.4,1.8,1h0v-2.4h-0.9v-0.7h1.8v6.5h0.9v0.7h-1.8V303.3z M-235.6,299.8c-1.1,0-1.7,0.8-1.7,1.9c0,1,0.5,1.9,1.7,1.9
				c1.1,0,1.6-0.9,1.6-1.9C-234,300.7-234.5,299.8-235.6,299.8z"/>
			<path class="st5" d="M-224.2,303.3L-224.2,303.3c-0.3,0.6-1,1.1-1.8,1.1c-1.7,0-2.4-1.1-2.4-2.6c0-1.5,0.9-2.6,2.4-2.6
				c0.7,0,1.5,0.4,1.8,1h0v-2.4h-0.9v-0.7h1.8v6.5h0.9v0.7h-1.8V303.3z M-225.8,299.8c-1.1,0-1.7,0.8-1.7,1.9c0,1,0.5,1.9,1.7,1.9
				c1.1,0,1.6-0.9,1.6-1.9C-224.2,300.7-224.7,299.8-225.8,299.8z"/>
			<path class="st5" d="M-220.6,302c0,1.2,0.6,1.7,1.8,1.7c0.6,0,1.4-0.3,1.4-1h0.8c0,1.2-1.3,1.7-2.4,1.7c-1.6,0-2.7-1-2.7-2.6
				c0-1.6,1-2.6,2.7-2.6c1.8,0,2.4,1.3,2.4,2.9H-220.6z M-217.4,301.3c-0.1-0.9-0.6-1.5-1.6-1.5c-0.9,0-1.6,0.5-1.6,1.5H-217.4z"/>
			<path class="st5" d="M-215.4,304.3v-1.7h0.7c0,1,0.8,1.2,1.6,1.2c0.4,0,1-0.2,1-0.8c0-0.7-0.7-0.7-1.3-0.7c-0.9-0.2-2-0.3-2-1.4
				c0-1.1,1-1.6,1.9-1.6c0.6,0,1.3,0.2,1.5,0.7h0v-0.6h0.7v1.7h-0.7c0-0.9-0.6-1.1-1.4-1.1c-0.5,0-1.2,0.1-1.2,0.8
				c0,0.6,0.9,0.6,1.5,0.7c0.9,0.2,1.9,0.3,1.9,1.4c0,1.2-1.1,1.6-2.1,1.6c-0.6,0-1.3-0.2-1.5-0.8h0v0.7H-215.4z"/>
			<path class="st5" d="M-210.2,303.6h0.9V300h-0.9v-0.7h1.8v4.3h0.9v0.7h-2.6V303.6z M-208.4,298.1h-1v-1h1V298.1z"/>
			<path class="st5" d="M-201,300h-0.9v2.7c0,0.8,0.1,1.8-0.3,2.5c-0.4,0.8-1.4,1-2.3,1c-1.1,0-2.4-0.2-2.4-1.5h1
				c0,0.7,0.7,0.8,1.3,0.8c1.3,0,1.7-0.5,1.7-1.8v-0.6h0c-0.3,0.7-1.1,1-1.8,1c-1.5,0-2.4-1-2.4-2.6c0-1.5,0.9-2.5,2.4-2.5
				c0.8,0,1.5,0.3,1.9,1l0,0v0h0v-0.9h1.8V300z M-204.4,303.5c1.1,0,1.6-0.8,1.6-1.8c0-1-0.5-1.8-1.6-1.8c-1.2,0-1.8,0.7-1.8,1.8
				C-206.1,302.7-205.5,303.5-204.4,303.5z"/>
			<path class="st5" d="M-200.3,303.6h0.9V300h-0.9v-0.7h1.8v0.9h0c0.2-0.6,0.9-1,1.7-1c1.3,0,1.8,0.6,1.8,1.8v2.6h0.9v0.7h-2.6
				v-0.7h0.9v-2.4c0-0.8-0.3-1.3-1.2-1.3c-1,0-1.4,0.7-1.4,1.6v2.1h0.9v0.7h-2.6V303.6z"/>
			<path class="st5" d="M-192.5,302c0,1.2,0.6,1.7,1.8,1.7c0.6,0,1.4-0.3,1.4-1h0.8c0,1.2-1.3,1.7-2.4,1.7c-1.6,0-2.7-1-2.7-2.6
				c0-1.6,1-2.6,2.7-2.6c1.8,0,2.4,1.3,2.4,2.9H-192.5z M-189.3,301.3c-0.1-0.9-0.6-1.5-1.6-1.5c-0.9,0-1.6,0.5-1.6,1.5H-189.3z"/>
			<path class="st5" d="M-187.5,303.6h0.9V300h-0.9v-0.7h1.8v1h0c0.2-0.8,0.8-1.1,1.5-1.1c0.2,0,0.3,0,0.4,0v0.7
				c-0.1,0-0.3-0.1-0.5-0.1c-1.3,0-1.4,1.3-1.4,2.4v1.4h1v0.7h-2.8V303.6z"/>
			<path class="st5" d="M-183.3,303.2h1.1v1.1h-1.1V303.2z"/>
		</g>
	</g>
	<path class="st6" d="M-257.1,185.9c-1.3,0-2.9,1.1-3.5,2.8c-0.1,0-0.2,0-0.4,0c-0.1,0-0.2,0-0.4,0c-0.5-1.7-2.3-2.8-3.7-2.8
		c-1.3,0-2.2,0.8-2.4,2.2c-0.1,0.4,0.2,0.7,0.6,0.8s0.7-0.2,0.8-0.6c0.1-0.7,0.5-1,1.1-1c0.9,0,2.1,0.8,2.4,2
		c-0.2,0.1-0.4,0.3-0.5,0.4c-0.8,0.8-1.3,1.8-1.5,2.4l-0.1,0.1c-0.3,0.6-0.5,1.1-0.7,1.6c-1.2,0.7-2.5,1.6-3.5,2.5
		c-1.2,1.2-1.8,2.4-1.8,3.5c0,1,0.5,1.9,1.4,2.7c0.9,0.8,1.9,1.1,2.8,0.8c0.1,0.3,0.2,0.6,0.3,0.9c1.4,3.7,4.5,5,4.6,5l0.2,0.1
		l0.3-0.1c0.1,0,1.4-0.5,2.8-1.9c1-1,1.9-2.3,2.5-4c0,0,0,0,0.1,0c0.7,0.2,1.8,0.3,3-0.7c0.1-0.1,0.2-0.2,0.3-0.3
		c1-1,1.3-2.1,1.1-3.3c-0.5-2-2.7-3.8-4.9-5.1c-0.2-0.7-0.5-1.4-0.9-2.2c-0.6-1.4-1.4-2.2-2.1-2.6c0.3-1.1,1.4-1.9,2.2-1.9
		c0.5,0,0.8,0.4,0.9,1c0,0.4,0.4,0.6,0.8,0.6c0.2,0,0.3-0.1,0.4-0.2c0.1-0.1,0.2-0.4,0.2-0.6C-255.1,186.5-256.2,185.9-257.1,185.9z
		 M-252.8,199.4c0.2,0.8-0.1,1.5-0.9,2.2c-0.8,0.7-1.3,0.6-1.7,0.5c0,0-0.1,0-0.1-0.1c-0.4-0.2-0.8-0.5-1.2-1
		c-0.3-0.3-0.5-0.7-0.8-1.1c-0.4-0.7-0.8-1.5-1.1-2.3c-0.3-0.6-0.5-1.2-0.7-1.8c-0.3-0.8-0.5-1.6-0.7-2.2h0.1
		c1.2,0.5,2.8,1.4,4.2,2.3C-254.3,197-253.1,198.2-252.8,199.4z M-268.4,201.5c-0.6-0.5-0.9-1.1-0.9-1.7c0-0.8,0.4-1.6,1.4-2.5
		c0.5-0.5,1.1-1,1.8-1.5c1.4-1,3-1.7,4.2-2.2l0,0c-0.2,0.6-0.4,1.4-0.7,2.2c-0.2,0.6-0.5,1.2-0.7,1.8c-0.3,0.8-0.7,1.6-1.2,2.2
		c-0.3,0.5-0.6,0.9-0.9,1.2c-0.1,0.1-0.1,0.2-0.2,0.2c-0.4,0.4-0.7,0.6-1,0.7C-267.3,202.2-267.8,202-268.4,201.5z M-261.3,195.8
		h0.5c0.2,0.6,0.4,1.2,0.7,1.8h-1.9C-261.7,197-261.5,196.4-261.3,195.8z M-263,199.8h4c0.4,0.7,0.7,1.3,1.2,1.8l-6.3-0.1
		C-263.8,201.1-263.4,200.5-263,199.8z M-258.6,205.7h-5.2c-0.4-0.5-0.7-1.1-1-1.8l7.4,0.1C-257.8,204.6-258.2,205.2-258.6,205.7z
		 M-258.5,192.3c0.1,0.2,0.2,0.4,0.3,0.6c-1-0.5-1.8-0.8-2.4-1c-0.1-0.1-0.2-0.1-0.4-0.1c-0.1,0-0.3,0-0.4,0.1
		c-0.6,0.2-1.4,0.5-2.2,0.9v-0.1l0.1-0.1c0.3-0.5,0.7-1.4,1.3-2c0.4-0.4,0.8-0.6,1.2-0.6C-260,190-259.2,190.8-258.5,192.3z"/>
	<path class="st6" d="M-231.6,185.9c-1.3,0-2.9,1.1-3.5,2.8c-0.1,0-0.2,0-0.4,0c-0.1,0-0.2,0-0.4,0c-0.5-1.7-2.3-2.8-3.7-2.8
		c-1.3,0-2.2,0.8-2.4,2.2c-0.1,0.4,0.2,0.7,0.6,0.8s0.7-0.2,0.8-0.6c0.1-0.7,0.5-1,1.1-1c0.9,0,2.1,0.8,2.4,2
		c-0.2,0.1-0.4,0.3-0.5,0.4c-0.8,0.8-1.3,1.8-1.5,2.4l-0.1,0.1c-0.3,0.6-0.5,1.1-0.7,1.6c-1.2,0.7-2.5,1.6-3.5,2.5
		c-1.2,1.2-1.8,2.4-1.8,3.5c0,1,0.5,1.9,1.4,2.7c0.9,0.8,1.9,1.1,2.8,0.8c0.1,0.3,0.2,0.6,0.3,0.9c1.4,3.7,4.5,5,4.6,5l0.2,0.1
		l0.3-0.1c0.1,0,1.4-0.5,2.8-1.9c1-1,1.9-2.3,2.5-4c0,0,0,0,0.1,0c0.7,0.2,1.8,0.3,3-0.7c0.1-0.1,0.2-0.2,0.3-0.3
		c1-1,1.3-2.1,1.1-3.3c-0.5-2-2.7-3.8-4.9-5.1c-0.2-0.7-0.5-1.4-0.9-2.2c-0.6-1.4-1.4-2.2-2.1-2.6c0.3-1.1,1.4-1.9,2.2-1.9
		c0.5,0,0.8,0.4,0.9,1c0,0.4,0.4,0.6,0.8,0.6c0.2,0,0.3-0.1,0.4-0.2c0.1-0.1,0.2-0.4,0.2-0.6C-229.5,186.5-230.6,185.9-231.6,185.9z
		 M-227.2,199.4c0.2,0.8-0.1,1.5-0.9,2.2c-0.8,0.7-1.3,0.6-1.7,0.5c0,0-0.1,0-0.1-0.1c-0.4-0.2-0.8-0.5-1.2-1
		c-0.3-0.3-0.5-0.7-0.8-1.1c-0.4-0.7-0.8-1.5-1.1-2.3c-0.3-0.6-0.5-1.2-0.7-1.8c-0.3-0.8-0.5-1.6-0.7-2.2h0.1
		c1.2,0.5,2.8,1.4,4.2,2.3C-228.7,197-227.5,198.2-227.2,199.4z M-242.9,201.5c-0.6-0.5-0.9-1.1-0.9-1.7c0-0.8,0.4-1.6,1.4-2.5
		c0.5-0.5,1.1-1,1.8-1.5c1.4-1,3-1.7,4.2-2.2l0,0c-0.2,0.6-0.4,1.4-0.7,2.2c-0.2,0.6-0.5,1.2-0.7,1.8c-0.3,0.8-0.7,1.6-1.2,2.2
		c-0.3,0.5-0.6,0.9-0.9,1.2c-0.1,0.1-0.1,0.2-0.2,0.2c-0.4,0.4-0.7,0.6-1,0.7C-241.7,202.2-242.3,202-242.9,201.5z M-235.7,195.8
		h0.5c0.2,0.6,0.4,1.2,0.7,1.8h-1.9C-236.1,197-235.9,196.4-235.7,195.8z M-237.5,199.8h4c0.4,0.7,0.7,1.3,1.2,1.8l-6.3-0.1
		C-238.2,201.1-237.8,200.5-237.5,199.8z M-233.1,205.7h-5.2c-0.4-0.5-0.7-1.1-1-1.8l7.4,0.1C-232.3,204.6-232.7,205.2-233.1,205.7z
		 M-232.9,192.3c0.1,0.2,0.2,0.4,0.3,0.6c-1-0.5-1.8-0.8-2.4-1c-0.1-0.1-0.2-0.1-0.4-0.1c-0.1,0-0.3,0-0.4,0.1
		c-0.6,0.2-1.4,0.5-2.2,0.9v-0.1l0.1-0.1c0.3-0.5,0.7-1.4,1.3-2c0.4-0.4,0.8-0.6,1.2-0.6C-234.4,190-233.6,190.8-232.9,192.3z"/>
	<g>
		<path class="st0" d="M-296.4,355.7c-7.2,0-13-5.8-13-13c0-7.2,5.8-13,13-13c7.2,0,13,5.8,13,13
			C-283.4,349.9-289.2,355.7-296.4,355.7z M-296.4,332.4c-5.7,0-10.3,4.6-10.3,10.3c0,5.7,4.6,10.3,10.3,10.3
			c5.7,0,10.3-4.6,10.3-10.3C-286.1,337-290.7,332.4-296.4,332.4z"/>
		<g>
			<path class="st0" d="M-298.5,337.2c0-1.2,1-2.2,2.1-2.2c1.2,0,2.2,0.9,2.2,2.1s-0.9,2.2-2.2,2.2
				C-297.6,339.3-298.5,338.4-298.5,337.2z M-298.2,350.3v-10h3.7v10H-298.2z"/>
		</g>
	</g>
	<g>
		<path class="st7" d="M-193.6,327.5h-12.9c-1.1,0-2.1,0.6-2.7,1.6l-6.5,11.8c-0.5,0.9-0.5,2,0,3l6.4,11.6c0.5,1,1.6,1.6,2.7,1.6
			h13.1c1.1,0,2.1-0.6,2.7-1.6l6.4-11.6c0.5-0.9,0.5-2,0-3l-6.5-11.8C-191.5,328.1-192.5,327.5-193.6,327.5z"/>
		<g>
			<g>
				<path class="st8" d="M-203.1,333.4l-0.9,0.9c-0.3,0.3-0.4,0.7-0.4,1.1s0.1,0.8,0.4,1.1l5.9,5.9l-5.9,5.9
					c-0.3,0.3-0.4,0.7-0.4,1.1s0.1,0.8,0.4,1.1l0.9,0.9c0.3,0.3,0.7,0.5,1.1,0.5c0.4,0,0.8-0.2,1.1-0.5l7.8-7.8
					c0.3-0.3,0.5-0.7,0.5-1.1s-0.2-0.8-0.5-1.1l-7.8-7.8c-0.3-0.3-0.7-0.4-1.1-0.4C-202.4,332.9-202.8,333.1-203.1,333.4
					L-203.1,333.4z"/>
			</g>
		</g>
	</g>
	<g class="st2">
		<path class="st0" d="M-285.6,324v-1c2.4-3.4,3.2-4,3.2-5.5c0-0.7-0.3-1.1-1-1.1c-0.8,0-1,0.7-1,1.4h-1.1c-0.1-1.4,0.6-2.3,2-2.3
			c1.5,0,2.2,0.7,2.2,2.2c0,1.9-0.9,2.5-3.1,5.3h3.3v1H-285.6z"/>
		<path class="st0" d="M-276.2,324h-1v-8.7h1v3.2h0c0.3-0.5,0.8-0.7,1.3-0.7c2,0,2,1.7,2,3.2c0,2.7-1,3-2,3c-0.6,0-1.1-0.3-1.4-0.8
			h0V324z M-275.1,323.3c1.2,0,1.2-1.3,1.2-2.2c0-1.6-0.1-2.5-1.2-2.5c-1.1,0-1.1,1.3-1.1,2.1C-276.2,321.6-276.3,323.3-275.1,323.3
			z"/>
		<path class="st0" d="M-268.1,323.1L-268.1,323.1c-0.3,0.7-0.8,1-1.5,1c-1.3,0-1.7-0.8-1.7-2c0-1.8,1.8-1.9,3.2-1.9
			c0-0.8,0-1.7-1-1.7c-0.7,0-1,0.4-0.9,1.1h-1.1c0-1.4,0.8-1.8,2.1-1.8c1.6,0,2,0.8,2,1.8v2.9c0,0.5,0,1,0.1,1.4h-1.1V323.1z
			 M-270.4,322.2c0,0.6,0.3,1.1,0.9,1.1c0.6,0,1.3-0.4,1.2-2.3C-269.1,321-270.4,320.9-270.4,322.2z"/>
		<path class="st0" d="M-262.1,315.3h1v8.7h-1v-0.7h0c-0.3,0.6-0.8,0.8-1.4,0.8c-1,0-2-0.4-2-3c0-1.5,0-3.2,2-3.2
			c0.6,0,1,0.3,1.3,0.7h0V315.3z M-263.2,318.6c-1.1,0-1.2,0.8-1.2,2.5c0,0.9,0,2.2,1.2,2.2c1.1,0,1.1-1.4,1.1-2.6
			C-262.1,319.9-262.1,318.6-263.2,318.6z"/>
		<path class="st0" d="M-256.1,317.9h1v6.7c0,1.4-0.9,1.7-2.2,1.7c-1,0-1.9-0.5-1.8-1.6h1.1c0,0.6,0.4,0.9,0.9,0.9
			c0.7,0,1.1-0.4,1.1-1v-1.3h0c-0.3,0.5-0.8,0.8-1.3,0.8c-1.6,0-2-1.4-2-3.2c0-2.8,1.4-3,1.9-3c0.6,0,1.1,0.3,1.4,0.9h0V317.9z
			 M-257.2,318.6c-1.1,0-1.2,1.3-1.2,2.1c0,1.9,0.4,2.4,1.2,2.4c1.2,0,1.2-1.4,1.2-2.2C-256,320-256,318.6-257.2,318.6z"/>
		<path class="st0" d="M-252.3,321.3c0,1.7,0.5,2,1.2,2c0.7,0,1-0.5,1.1-1.2h1.1c0,1.3-0.8,2-2.1,2c-1.3,0-2.3-0.4-2.3-3.1
			c0-1.8,0.2-3.2,2.3-3.2c1.7,0,2.2,0.9,2.2,3v0.5H-252.3z M-249.9,320.5c0-1.8-0.5-2-1.2-2c-0.6,0-1.1,0.3-1.2,2H-249.9z"/>
		<path class="st0" d="M-245.5,324.1c-1.3,0-2.1-0.6-2.1-2h1.1c0,0.3,0,1.2,1,1.2c0.6,0,1-0.3,1-0.9c0-1.1-3-1.1-3-2.9
			c0-0.6,0.4-1.7,2.1-1.7c1.1,0,2,0.5,1.9,1.7h-1.1c0-0.6-0.3-1-0.9-1c-0.5,0-0.9,0.3-0.9,0.8c0,1.1,3,1,3,2.9
			C-243.4,323.6-244.3,324.1-245.5,324.1z"/>
		<path class="st0" d="M-238.3,321.3c0,1.7,0.5,2,1.2,2c0.7,0,1-0.5,1.1-1.2h1.1c0,1.3-0.8,2-2.1,2c-1.3,0-2.3-0.4-2.3-3.1
			c0-1.8,0.2-3.2,2.3-3.2c1.7,0,2.2,0.9,2.2,3v0.5H-238.3z M-235.9,320.5c0-1.8-0.5-2-1.2-2c-0.6,0-1.1,0.3-1.2,2H-235.9z"/>
		<path class="st0" d="M-230.1,323.1L-230.1,323.1c-0.3,0.7-0.8,1-1.5,1c-1.3,0-1.7-0.8-1.7-2c0-1.8,1.8-1.9,3.2-1.9
			c0-0.8,0-1.7-1-1.7c-0.7,0-1,0.4-0.9,1.1h-1.1c0-1.4,0.8-1.8,2.1-1.8c1.6,0,2,0.8,2,1.8v2.9c0,0.5,0,1,0.1,1.4h-1.1V323.1z
			 M-232.4,322.2c0,0.6,0.3,1.1,0.9,1.1c0.6,0,1.3-0.4,1.2-2.3C-231.1,321-232.4,320.9-232.4,322.2z"/>
		<path class="st0" d="M-226.2,318.8L-226.2,318.8c0.4-0.9,0.9-1,1.9-1v1c-0.2,0-0.3-0.1-0.5-0.1c-1.1,0-1.4,0.8-1.4,1.6v3.6h-1
			v-6.1h1V318.8z"/>
		<path class="st0" d="M-220,324v-4.2c0-0.6-0.2-1.2-1.1-1.2c-1.1,0-1.2,1-1.2,1.8v3.6h-1v-4.8c0-0.4,0-0.8-0.1-1.3h1v0.8h0
			c0.4-0.7,0.8-0.9,1.6-0.9c1.3,0,1.6,0.8,1.6,2v4.2H-220z"/>
		<path class="st0" d="M-216.3,321.3c0,1.7,0.5,2,1.2,2c0.7,0,1-0.5,1.1-1.2h1.1c0,1.3-0.8,2-2.1,2c-1.3,0-2.3-0.4-2.3-3.1
			c0-1.8,0.2-3.2,2.3-3.2c1.7,0,2.2,0.9,2.2,3v0.5H-216.3z M-213.9,320.5c0-1.8-0.5-2-1.2-2c-0.6,0-1.1,0.3-1.2,2H-213.9z"/>
		<path class="st0" d="M-208.1,315.3h1v8.7h-1v-0.7h0c-0.3,0.6-0.8,0.8-1.4,0.8c-1,0-2-0.4-2-3c0-1.5,0-3.2,2-3.2
			c0.6,0,1,0.3,1.3,0.7h0V315.3z M-209.2,318.6c-1.1,0-1.2,0.8-1.2,2.5c0,0.9,0,2.2,1.2,2.2c1.1,0,1.1-1.4,1.1-2.6
			C-208.1,319.9-208.1,318.6-209.2,318.6z"/>
	</g>
</g>
</svg>
