<?xml version="1.0" encoding="utf-8"?>
<!-- Generator: Adobe Illustrator 19.1.0, SVG Export Plug-In . SVG Version: 6.00 Build 0)  -->
<svg version="1.1" id="Layer_1" xmlns="http://www.w3.org/2000/svg" xmlns:xlink="http://www.w3.org/1999/xlink" x="0px" y="0px"
	 viewBox="-723 354.8 231.3 206.6" style="enable-background:new -723 354.8 231.3 206.6;" xml:space="preserve">
<style type="text/css">
	.st0{fill:#EBB91D;}
	.st1{fill:#FFFFFF;}
	.st2{enable-background:new    ;}
	.st3{fill:#767676;}
	.st4{fill:none;}
	.st5{fill:#231F20;}
	.st6{fill:#ECEEEE;}
	.st7{fill:#39A5E1;}
	.st8{fill:#EBEDED;}
</style>
<g>
	<g>
		<polygon class="st0" points="-549.5,354.8 -665.2,354.8 -687.4,394.8 -527.2,394.8 		"/>
		<polygon class="st1" points="-527.2,394.8 -687.4,394.8 -723,458.8 -666,561.4 -548.6,561.4 -491.7,458.8 		"/>
	</g>
	<g>
		<g class="st2">
			<path class="st3" d="M-673.2,413.2h-2.7v-1.7h7.8v1.7h-2.7v7h-2.4L-673.2,413.2L-673.2,413.2z"/>
			<path class="st3" d="M-661.7,414.2l-3.3,8.3h-2.1l0.9-2.1l-2.5-6.2h2.4l1.2,4.2l0,0l1.3-4.2H-661.7z"/>
			<path class="st3" d="M-658.6,415L-658.6,415c0.5-0.7,1.1-1,2-1c1.8,0,2.6,1.5,2.6,3.1c0,1.8-0.9,3.3-2.8,3.3
				c-0.7,0-1.3-0.4-1.7-0.9l0,0v3h-2.3v-8.3h2.3L-658.6,415L-658.6,415z M-658.6,417.2c0,0.8,0.1,1.9,1.1,1.9s1.1-1.1,1.1-1.9
				s-0.1-1.9-1.1-1.9S-658.6,416.4-658.6,417.2z"/>
			<path class="st3" d="M-646,417.2c0,2.2-1.6,3.2-3.5,3.2s-3.5-1-3.5-3.2c0-2.2,1.6-3.2,3.5-3.2S-646,415-646,417.2z M-649.5,419
				c1,0,1.2-1,1.2-1.9s-0.2-1.9-1.2-1.9s-1.2,1-1.2,1.9S-650.5,419-649.5,419z"/>
			<path class="st3" d="M-638.1,419.3c0,1-0.1,1.7-0.8,2.4c-0.6,0.6-1.9,0.8-2.6,0.8c-1.3,0-3.1-0.3-3.1-2.1h2.1
				c0,0.3,0.1,0.5,0.3,0.6c0.2,0.1,0.4,0.2,0.7,0.2c1,0,1.2-0.6,1.2-1.5V419l0,0c-0.4,0.7-1.2,1-2,1c-1.7,0-2.6-1.4-2.6-3
				c0-1.8,1-3,2.8-3c0.8,0,1.5,0.3,1.8,1.1l0,0l0.1-0.9h2.2L-638.1,419.3L-638.1,419.3z M-641.6,415.3c-0.9,0-1.1,0.9-1.1,1.7
				c0,0.7,0.2,1.7,1.1,1.7c0.9,0,1.1-0.9,1.1-1.7C-640.4,416.2-640.6,415.3-641.6,415.3z"/>
			<path class="st3" d="M-634.4,415.3L-634.4,415.3c0.3-1,1-1.3,2-1.3v1.9c-0.2,0-0.3,0-0.5,0c-1.2,0-1.6,0.7-1.6,1.9v2.4h-2.3v-4.5
				c0-0.5,0-0.9-0.1-1.5h2.3L-634.4,415.3z"/>
			<path class="st3" d="M-627.7,420.2c0-0.2,0-0.4,0-0.8l0,0c-0.3,0.4-0.8,1-1.9,1c-1.4,0-2.2-0.8-2.1-2c0-1.5,1.4-2.1,3.3-2.1h0.7
				c0-0.5,0.1-1.3-0.8-1.3c-0.6,0-0.7,0.6-0.7,0.9h-2.1c0-0.9,0.4-1.3,1-1.6c0.6-0.3,1.4-0.4,2.1-0.4c1.2,0,2.7,0.5,2.7,1.9v3.1
				c0,0.3,0,0.5,0.1,1.2h-2.3V420.2z M-628.8,419c1,0,1.1-0.9,1.1-1.7c-0.5,0-0.9,0-1.2,0.1c-0.3,0.2-0.6,0.4-0.6,0.8
				C-629.6,418.7-629.2,419-628.8,419z"/>
			<path class="st3" d="M-621.9,415L-621.9,415c0.5-0.7,1.1-1,2-1c1.8,0,2.6,1.5,2.6,3.1c0,1.8-0.9,3.3-2.8,3.3
				c-0.7,0-1.3-0.4-1.7-0.9l0,0v3h-2.3v-8.3h2.3v0.8H-621.9z M-621.9,417.2c0,0.8,0.1,1.9,1.1,1.9s1.1-1.1,1.1-1.9s-0.1-1.9-1.1-1.9
				S-621.9,416.4-621.9,417.2z"/>
			<path class="st3" d="M-616.1,420.2v-8.7h2.3v3.3c0.5-0.6,1.1-0.8,1.9-0.8c1.3,0,2.3,0.8,2.3,2.2v4h-2.3v-3.5
				c0-0.6-0.2-1.2-0.9-1.2c-1.1,0-1,1.2-1,1.3v3.5L-616.1,420.2L-616.1,420.2z"/>
			<path class="st3" d="M-601.7,414.2l-3.3,8.3h-2.1l0.9-2.1l-2.5-6.2h2.4l1.2,4.2l0,0l1.3-4.2H-601.7z"/>
			<path class="st3" d="M-596.7,413.1v-1.6h2.3v1.6H-596.7z M-596.6,420.2v-6h2.3v6H-596.6z"/>
			<path class="st3" d="M-590.4,414.8c0.5-0.6,1.1-0.8,1.9-0.8c1.3,0,2.3,0.8,2.3,2.2v4h-2.3v-3.5c0-0.6-0.2-1.2-0.9-1.2
				c-1.1,0-1,1.2-1,1.3v3.5h-2.3v-4.5c0-0.5,0-0.9-0.1-1.5h2.3L-590.4,414.8z"/>
			<path class="st3" d="M-577.1,411.5c3,0,4.9,1.1,4.9,4.3c0,3.2-2,4.3-4.9,4.3h-3.7v-8.7L-577.1,411.5L-577.1,411.5z M-578.3,418.5
				h1.1c1.3,0,2.5-0.9,2.5-2.7c0-1.8-1.2-2.7-2.5-2.7h-1.1V418.5z"/>
			<path class="st3" d="M-569,417.6c0,0.8,0.2,1.5,1,1.5c0.6,0,1-0.3,1.1-0.9h2.1c-0.1,0.8-0.6,1.3-1.1,1.7
				c-0.5,0.3-1.2,0.5-1.9,0.5c-2.4,0-3.4-1-3.4-3.4c0-1.9,1.4-3,3.2-3c2.4,0,3.2,1.4,3.2,3.6L-569,417.6L-569,417.6z M-566.8,416.4
				c0-0.3-0.1-0.6-0.3-0.9c-0.2-0.3-0.4-0.4-0.8-0.4c-0.8,0-1,0.6-1,1.3L-566.8,416.4L-566.8,416.4z"/>
			<path class="st3" d="M-561.2,415L-561.2,415c0.5-0.7,1.1-1,2-1c1.8,0,2.6,1.5,2.6,3.1c0,1.8-0.9,3.3-2.8,3.3
				c-0.7,0-1.3-0.4-1.7-0.9l0,0v3h-2.3v-8.3h2.3v0.8H-561.2z M-561.2,417.2c0,0.8,0.1,1.9,1.1,1.9s1.1-1.1,1.1-1.9s-0.1-1.9-1.1-1.9
				S-561.2,416.4-561.2,417.2z"/>
			<path class="st3" d="M-554.9,414.2v-0.9l2.3-0.9v1.8h1.3v1.4h-1.3v2.4c0,0.2-0.1,0.9,0.4,0.9c0.3,0,0.6,0,0.9,0v1.4
				c-0.5,0.1-0.9,0.1-1.2,0.1c-1.5,0-2.5-0.2-2.4-2.1v-2.7h-1.2v-1.4H-554.9z"/>
			<path class="st3" d="M-550.1,420.2v-8.7h2.3v3.3c0.5-0.6,1.1-0.8,1.9-0.8c1.3,0,2.3,0.8,2.3,2.2v4h-2.3v-3.5
				c0-0.6-0.2-1.2-0.9-1.2c-1.1,0-1,1.2-1,1.3v3.5L-550.1,420.2L-550.1,420.2z"/>
		</g>
	</g>
	<g>
		<rect x="-699.7" y="433" class="st4" width="180.6" height="51.1"/>
		<g class="st2">
			<path class="st5" d="M-696.7,441.4h0.8l2.8-6.5h1.2l2.7,6.5h0.8v0.7h-3v-0.7h1.1l-0.7-1.7h-3.2l-0.7,1.7h1.1v0.7h-2.9
				L-696.7,441.4L-696.7,441.4z M-692.6,435.8l-1.3,3.2h2.6L-692.6,435.8z"/>
			<path class="st5" d="M-687.9,441.4h0.9v-3.6h-1v-0.7h1v-0.5c0-1.2,0.5-1.7,1.8-1.7c0.3,0,0.5,0.1,0.8,0.1v0.7
				c-0.3,0-0.6-0.1-0.9-0.1c-0.8,0-0.9,0.5-0.9,1v0.5h1.2v0.7h-1.2v3.6h1.1v0.7h-2.9L-687.9,441.4L-687.9,441.4z"/>
			<path class="st5" d="M-680.9,437.8h-1.6v2.9c0,0.4,0.1,0.8,0.6,0.8s0.6-0.5,0.6-0.9h0.8c0,1-0.4,1.7-1.5,1.7
				c-1.3,0-1.3-0.9-1.3-1.9v-2.5h-1v-0.7h1v-1.1l0.9-0.3v1.4h1.6v0.6H-680.9z"/>
			<path class="st5" d="M-678.8,439.8c0,1.2,0.6,1.7,1.8,1.7c0.6,0,1.4-0.3,1.4-1h0.8c0,1.2-1.3,1.7-2.4,1.7c-1.6,0-2.7-1-2.7-2.6
				s1-2.6,2.7-2.6c1.8,0,2.4,1.3,2.4,2.9h-4V439.8z M-675.6,439.1c-0.1-0.9-0.6-1.5-1.6-1.5c-0.9,0-1.6,0.5-1.6,1.5H-675.6z"/>
			<path class="st5" d="M-673.8,441.4h0.9v-3.6h-0.9v-0.7h1.8v1l0,0c0.2-0.8,0.8-1.1,1.5-1.1c0.2,0,0.3,0,0.4,0v0.7
				c-0.1,0-0.3-0.1-0.5-0.1c-1.3,0-1.4,1.3-1.4,2.4v1.4h1v0.7h-2.8V441.4z"/>
			<path class="st5" d="M-660.9,437.8h-0.6l-2.1,4.8c-0.4,0.9-0.6,1.5-1.6,1.5c-0.2,0-0.5,0-0.7-0.1v-0.7c0.2,0,0.3,0,0.5,0
				c0.8,0,0.8-0.6,1.1-1.2l-1.9-4.3h-0.6v-0.7h2.5v0.7h-1l1.4,3.4l1.4-3.4h-1v-0.7h2.4v0.7H-660.9z"/>
			<path class="st5" d="M-657.7,436.9c1.6,0,2.6,1,2.6,2.6s-1,2.6-2.6,2.6s-2.7-1-2.7-2.6C-660.3,437.9-659.3,436.9-657.7,436.9z
				 M-657.7,441.5c1.1,0,1.7-0.9,1.7-1.9s-0.5-1.9-1.7-1.9c-1.1,0-1.7,0.9-1.7,1.9S-658.8,441.5-657.7,441.5z"/>
			<path class="st5" d="M-649.1,441.4h0.9v0.7h-1.8v-0.9l0,0c-0.2,0.6-0.9,1-1.6,1c-1.3,0-1.8-0.6-1.8-1.8v-2.6h-0.9v-0.7h1.8v3.1
				c0,0.8,0.3,1.3,1.2,1.3c1,0,1.4-0.7,1.4-1.6v-2.1h-0.9v-0.7h1.8L-649.1,441.4L-649.1,441.4z"/>
			<path class="st5" d="M-646.9,434.9h1.1v1.1l-0.5,1.4h-0.6l0.5-1.4h-0.5V434.9z"/>
			<path class="st5" d="M-638.9,437.8h-0.6l-1.8,4.3h-1.1l-1.7-4.3h-0.6v-0.7h2.5v0.7h-0.9l1.4,3.5l1.4-3.5h-0.9v-0.7h2.4
				L-638.9,437.8L-638.9,437.8z"/>
			<path class="st5" d="M-637.2,439.8c0,1.2,0.6,1.7,1.8,1.7c0.6,0,1.4-0.3,1.4-1h0.8c0,1.2-1.3,1.7-2.4,1.7c-1.6,0-2.7-1-2.7-2.6
				s1-2.6,2.7-2.6c1.8,0,2.4,1.3,2.4,2.9h-4V439.8z M-634,439.1c-0.1-0.9-0.6-1.5-1.6-1.5c-0.9,0-1.6,0.5-1.6,1.5H-634z"/>
			<path class="st5" d="M-629.3,441.4h0.9v-5.8h-0.9v-0.7h1.8v6.5h0.9v0.7h-2.6L-629.3,441.4L-629.3,441.4z"/>
			<path class="st5" d="M-625,439.8c0,1.2,0.6,1.7,1.8,1.7c0.6,0,1.4-0.3,1.4-1h0.8c0,1.2-1.3,1.7-2.4,1.7c-1.6,0-2.7-1-2.7-2.6
				s1-2.6,2.7-2.6c1.8,0,2.4,1.3,2.4,2.9h-4V439.8z M-621.8,439.1c-0.1-0.9-0.6-1.5-1.6-1.5c-0.9,0-1.6,0.5-1.6,1.5H-621.8z"/>
			<path class="st5" d="M-616.3,441L-616.3,441c-0.2,0.8-0.9,1.1-1.7,1.1c-1,0-2-0.4-2-1.6c0-1.5,1.5-1.6,2.7-1.6h1v-0.3
				c0-0.8-0.4-1.1-1.2-1.1c-0.7,0-1.2,0.1-1.3,0.9h-1c0.1-1.2,1.1-1.6,2.2-1.6c1.2,0,2.2,0.3,2.2,1.6v2.9h0.9v0.7h-1.8V441z
				 M-617.9,441.5c1.1,0,1.6-0.8,1.6-1.8h-0.8c-0.6,0-1.9,0-1.9,0.9C-619,441.3-618.4,441.5-617.9,441.5z"/>
			<path class="st5" d="M-613.9,441.4h0.9v-3.6h-0.9v-0.7h1.8v1l0,0c0.2-0.8,0.8-1.1,1.5-1.1c0.2,0,0.3,0,0.4,0v0.7
				c-0.1,0-0.3-0.1-0.5-0.1c-1.3,0-1.4,1.3-1.4,2.4v1.4h1v0.7h-2.8V441.4z"/>
			<path class="st5" d="M-609.6,441.4h0.9v-3.6h-0.9v-0.7h1.8v0.9l0,0c0.2-0.6,0.9-1,1.7-1c1.3,0,1.8,0.6,1.8,1.8v2.6h0.9v0.7h-2.6
				v-0.7h0.9V439c0-0.8-0.3-1.3-1.2-1.3c-1,0-1.4,0.7-1.4,1.6v2.1h0.9v0.7h-2.6v-0.7H-609.6z"/>
			<path class="st5" d="M-601.8,439.8c0,1.2,0.6,1.7,1.8,1.7c0.6,0,1.4-0.3,1.4-1h0.8c0,1.2-1.3,1.7-2.4,1.7c-1.6,0-2.7-1-2.7-2.6
				s1-2.6,2.7-2.6c1.8,0,2.4,1.3,2.4,2.9h-4V439.8z M-598.6,439.1c-0.1-0.9-0.6-1.5-1.6-1.5c-0.9,0-1.6,0.5-1.6,1.5H-598.6z"/>
			<path class="st5" d="M-592.5,441.1L-592.5,441.1c-0.3,0.6-1,1.1-1.8,1.1c-1.7,0-2.4-1.1-2.4-2.6s0.9-2.6,2.4-2.6
				c0.7,0,1.5,0.4,1.8,1l0,0v-2.4h-0.9v-0.7h1.8v6.5h0.9v0.7h-1.8V441.1z M-594.1,437.6c-1.1,0-1.7,0.8-1.7,1.9c0,1,0.5,1.9,1.7,1.9
				c1.1,0,1.6-0.9,1.6-1.9S-593,437.6-594.1,437.6z"/>
			<path class="st5" d="M-583.7,437.8h-1.6v2.9c0,0.4,0.1,0.8,0.5,0.8c0.5,0,0.6-0.5,0.6-0.9h0.8c0,1-0.4,1.7-1.5,1.7
				c-1.3,0-1.3-0.9-1.3-1.9v-2.5h-1v-0.7h1v-1.1l0.9-0.3v1.4h1.6V437.8z"/>
			<path class="st5" d="M-582.7,441.4h0.9v-5.8h-0.9v-0.7h1.8v3.1l0,0c0.2-0.6,0.9-1,1.7-1c1.3,0,1.8,0.6,1.8,1.8v2.6h0.9v0.7h-2.6
				v-0.7h0.9V439c0-0.8-0.3-1.3-1.2-1.3c-1,0-1.4,0.7-1.4,1.6v2.1h0.9v0.7h-2.6v-0.7H-582.7z"/>
			<path class="st5" d="M-574.9,439.8c0,1.2,0.6,1.7,1.8,1.7c0.6,0,1.4-0.3,1.4-1h0.8c0,1.2-1.3,1.7-2.4,1.7c-1.6,0-2.7-1-2.7-2.6
				s1-2.6,2.7-2.6c1.8,0,2.4,1.3,2.4,2.9h-4V439.8z M-571.7,439.1c-0.1-0.9-0.6-1.5-1.6-1.5c-0.9,0-1.6,0.5-1.6,1.5H-571.7z"/>
			<path class="st5" d="M-567,441.4h0.9v-5.8h-0.9v-0.7h1.8v3.1l0,0c0.3-0.6,1.1-1,1.7-1c1.6,0,2.5,1,2.5,2.6s-0.9,2.6-2.5,2.6
				c-0.7,0-1.5-0.4-1.7-1.1l0,0v1h-1.8V441.4z M-563.4,441.5c1,0,1.5-0.8,1.5-1.9c0-1-0.5-1.9-1.5-1.9c-1.2,0-1.8,0.9-1.8,1.9
				C-565.2,440.7-564.6,441.5-563.4,441.5z"/>
			<path class="st5" d="M-556.4,441L-556.4,441c-0.2,0.8-0.9,1.1-1.7,1.1c-1,0-2-0.4-2-1.6c0-1.5,1.5-1.6,2.7-1.6h1v-0.3
				c0-0.8-0.4-1.1-1.2-1.1c-0.7,0-1.2,0.1-1.3,0.9h-1c0.1-1.2,1.1-1.6,2.2-1.6c1.2,0,2.2,0.3,2.2,1.6v2.9h0.9v0.7h-1.8V441
				L-556.4,441z M-558,441.5c1.1,0,1.6-0.8,1.6-1.8h-0.8c-0.6,0-1.9,0-1.9,0.9C-559.1,441.3-558.5,441.5-558,441.5z"/>
			<path class="st5" d="M-553.8,442.1v-1.7h0.7c0,1,0.8,1.2,1.6,1.2c0.4,0,1-0.2,1-0.8c0-0.7-0.7-0.7-1.3-0.7c-0.9-0.2-2-0.3-2-1.4
				s1-1.6,1.9-1.6c0.6,0,1.3,0.2,1.5,0.7l0,0v-0.6h0.7v1.7h-0.7c0-0.9-0.6-1.1-1.4-1.1c-0.5,0-1.2,0.1-1.2,0.8
				c0,0.6,0.9,0.6,1.5,0.7c0.9,0.2,1.9,0.3,1.9,1.4c0,1.2-1.1,1.6-2.1,1.6c-0.6,0-1.3-0.2-1.5-0.8l0,0v0.7h-0.6V442.1z"/>
			<path class="st5" d="M-548.6,441.4h0.9v-3.6h-0.9v-0.7h1.8v4.3h0.9v0.7h-2.6L-548.6,441.4L-548.6,441.4z M-546.8,435.9h-1v-1h1
				V435.9z"/>
			<path class="st5" d="M-540.7,438.9h-0.7c-0.1-0.8-0.6-1.3-1.4-1.3c-1.1,0-1.6,0.9-1.6,1.9s0.6,1.9,1.6,1.9c0.7,0,1.3-0.4,1.4-1.1
				h0.8c0,1.2-1.1,1.8-2.2,1.8c-1.6,0-2.6-1-2.6-2.6s1-2.6,2.6-2.6c0.6,0,1.1,0.2,1.4,0.7l0,0V437h0.7V438.9z"/>
			<path class="st5" d="M-539.7,442.1v-1.7h0.7c0,1,0.8,1.2,1.6,1.2c0.4,0,1-0.2,1-0.8c0-0.7-0.7-0.7-1.3-0.7c-0.9-0.2-2-0.3-2-1.4
				s1-1.6,1.9-1.6c0.6,0,1.3,0.2,1.5,0.7l0,0v-0.6h0.7v1.7h-0.7c0-0.9-0.6-1.1-1.4-1.1c-0.5,0-1.2,0.1-1.2,0.8
				c0,0.6,0.9,0.6,1.5,0.7c0.9,0.2,1.9,0.3,1.9,1.4c0,1.2-1.1,1.6-2.1,1.6c-0.6,0-1.3-0.2-1.5-0.8l0,0v0.7h-0.6V442.1z"/>
			<path class="st5" d="M-528.7,436.9c1.6,0,2.6,1,2.6,2.6s-1,2.6-2.6,2.6c-1.6,0-2.7-1-2.7-2.6
				C-531.3,437.9-530.3,436.9-528.7,436.9z M-528.7,441.5c1.1,0,1.7-0.9,1.7-1.9s-0.5-1.9-1.7-1.9c-1.1,0-1.7,0.9-1.7,1.9
				S-529.8,441.5-528.7,441.5z"/>
			<path class="st5" d="M-525.3,441.4h0.9v-3.6h-1v-0.7h1v-0.5c0-1.2,0.5-1.7,1.8-1.7c0.3,0,0.5,0.1,0.8,0.1v0.7
				c-0.3,0-0.6-0.1-0.9-0.1c-0.8,0-0.9,0.5-0.9,1v0.5h1.2v0.7h-1.2v3.6h1.1v0.7h-2.9L-525.3,441.4L-525.3,441.4z"/>
		</g>
		<g class="st2">
			<path class="st5" d="M-695.5,451h-1.6v2.9c0,0.4,0.1,0.8,0.6,0.8s0.6-0.5,0.6-0.9h0.8c0,1-0.4,1.7-1.5,1.7
				c-1.3,0-1.3-0.9-1.3-1.9v-2.5h-1v-0.7h1v-1.1l0.9-0.3v1.4h1.6L-695.5,451L-695.5,451z"/>
			<path class="st5" d="M-689,451h-0.6l-2.1,4.8c-0.4,0.9-0.6,1.5-1.6,1.5c-0.2,0-0.5,0-0.7-0.1v-0.8c0.2,0,0.3,0,0.5,0
				c0.8,0,0.8-0.6,1.1-1.2l-1.9-4.3h-0.6v-0.7h2.5v0.7h-1l1.4,3.4l1.4-3.4h-1v-0.7h2.4v0.8H-689z"/>
			<path class="st5" d="M-688.6,456.4h0.9V451h-0.9v-0.7h1.8v1l0,0c0.3-0.6,0.9-1.1,1.7-1.1c1.6,0,2.5,1,2.5,2.6s-0.9,2.6-2.5,2.6
				c-0.8,0-1.4-0.4-1.7-1.1l0,0v2.1h0.9v0.7h-2.7L-688.6,456.4L-688.6,456.4z M-685,454.7c1,0,1.5-0.8,1.5-1.9c0-1-0.5-1.9-1.5-1.9
				c-1.2,0-1.8,0.9-1.8,1.9C-686.8,453.9-686.2,454.7-685,454.7z"/>
			<path class="st5" d="M-679,450.1c1.6,0,2.6,1,2.6,2.6s-1,2.6-2.6,2.6s-2.7-1-2.7-2.6S-680.6,450.1-679,450.1z M-679,454.7
				c1.1,0,1.7-0.9,1.7-1.9s-0.5-1.9-1.7-1.9c-1.1,0-1.7,0.9-1.7,1.9S-680.2,454.7-679,454.7z"/>
			<path class="st5" d="M-669.5,451h-0.9v2.7c0,0.8,0.1,1.8-0.3,2.5c-0.4,0.8-1.4,1-2.3,1c-1.1,0-2.4-0.2-2.4-1.5h1
				c0,0.7,0.7,0.8,1.3,0.8c1.3,0,1.7-0.5,1.7-1.8v-0.6l0,0c-0.3,0.7-1.1,1-1.8,1c-1.5,0-2.4-1-2.4-2.6c0-1.5,0.9-2.5,2.4-2.5
				c0.8,0,1.5,0.3,1.9,1l0,0l0,0l0,0v-0.9h1.8V451L-669.5,451z M-672.9,454.5c1.1,0,1.6-0.8,1.6-1.8s-0.5-1.8-1.6-1.8
				c-1.2,0-1.8,0.7-1.8,1.8C-674.6,453.7-674.1,454.5-672.9,454.5z"/>
			<path class="st5" d="M-668.9,454.6h0.9V451h-0.9v-0.7h1.8v1l0,0c0.2-0.8,0.8-1.1,1.5-1.1c0.2,0,0.3,0,0.4,0v0.7
				c-0.1,0-0.3-0.1-0.5-0.1c-1.3,0-1.4,1.3-1.4,2.4v1.4h1v0.7h-2.8V454.6z"/>
			<path class="st5" d="M-660.9,454.2L-660.9,454.2c-0.2,0.8-0.9,1.1-1.7,1.1c-1,0-2-0.4-2-1.6c0-1.5,1.5-1.6,2.7-1.6h1v-0.3
				c0-0.8-0.4-1.1-1.2-1.1c-0.7,0-1.2,0.1-1.3,0.9h-1c0.1-1.2,1.1-1.6,2.2-1.6c1.2,0,2.2,0.3,2.2,1.6v2.9h0.9v0.7h-1.8L-660.9,454.2
				L-660.9,454.2z M-662.5,454.7c1.1,0,1.6-0.8,1.6-1.8h-0.8c-0.6,0-1.9,0-1.9,0.9C-663.6,454.5-663,454.7-662.5,454.7z"/>
			<path class="st5" d="M-658.6,456.4h0.9V451h-0.9v-0.7h1.8v1l0,0c0.3-0.6,0.9-1.1,1.7-1.1c1.6,0,2.5,1,2.5,2.6s-0.9,2.6-2.5,2.6
				c-0.8,0-1.4-0.4-1.7-1.1l0,0v2.1h0.9v0.7h-2.7L-658.6,456.4L-658.6,456.4z M-655.1,454.7c1,0,1.5-0.8,1.5-1.9
				c0-1-0.5-1.9-1.5-1.9c-1.2,0-1.8,0.9-1.8,1.9C-656.8,453.9-656.3,454.7-655.1,454.7z"/>
			<path class="st5" d="M-651.7,454.6h0.9v-5.8h-0.9v-0.7h1.8v3.1l0,0c0.2-0.6,0.9-1,1.7-1c1.3,0,1.8,0.6,1.8,1.8v2.6h0.9v0.7h-2.6
				v-0.7h0.9v-2.4c0-0.8-0.3-1.3-1.2-1.3c-1,0-1.4,0.7-1.4,1.6v2.1h0.9v0.7h-2.6v-0.7H-651.7z"/>
			<path class="st5" d="M-639.4,451h-0.6l-2.1,4.8c-0.4,0.9-0.6,1.5-1.6,1.5c-0.2,0-0.5,0-0.7-0.1v-0.8c0.2,0,0.3,0,0.5,0
				c0.8,0,0.8-0.6,1.1-1.2l-1.9-4.3h-0.6v-0.7h2.5v0.7h-1l1.4,3.4l1.4-3.4h-1v-0.7h2.4v0.8H-639.4z"/>
			<path class="st5" d="M-639.1,454.2h1.1v1.1l-0.5,1.4h-0.6l0.5-1.4h-0.5V454.2z"/>
			<path class="st5" d="M-630.3,451h-1.6v2.9c0,0.4,0.1,0.8,0.6,0.8s0.6-0.5,0.6-0.9h0.8c0,1-0.4,1.7-1.5,1.7
				c-1.3,0-1.3-0.9-1.3-1.9v-2.5h-1v-0.7h1v-1.1l0.9-0.3v1.4h1.6v0.6H-630.3z"/>
			<path class="st5" d="M-629.3,454.6h0.9v-5.8h-0.9v-0.7h1.8v3.1l0,0c0.2-0.6,0.9-1,1.7-1c1.3,0,1.8,0.6,1.8,1.8v2.6h0.9v0.7h-2.6
				v-0.7h0.9v-2.4c0-0.8-0.3-1.3-1.2-1.3c-1,0-1.4,0.7-1.4,1.6v2.1h0.9v0.7h-2.6v-0.7H-629.3z"/>
			<path class="st5" d="M-621.5,453c0,1.2,0.6,1.7,1.8,1.7c0.6,0,1.4-0.3,1.4-1h0.8c0,1.2-1.3,1.7-2.4,1.7c-1.6,0-2.7-1-2.7-2.6
				s1-2.6,2.7-2.6c1.8,0,2.4,1.3,2.4,2.9h-4V453z M-618.3,452.3c-0.1-0.9-0.6-1.5-1.6-1.5c-0.9,0-1.6,0.5-1.6,1.5H-618.3z"/>
			<path class="st5" d="M-616.5,454.6h0.9V451h-0.9v-0.7h1.8v1l0,0c0.2-0.8,0.8-1.1,1.5-1.1c0.2,0,0.3,0,0.4,0v0.7
				c-0.1,0-0.3-0.1-0.5-0.1c-1.3,0-1.4,1.3-1.4,2.4v1.4h1v0.7h-2.8V454.6z"/>
			<path class="st5" d="M-611.1,453c0,1.2,0.6,1.7,1.8,1.7c0.6,0,1.4-0.3,1.4-1h0.8c0,1.2-1.3,1.7-2.4,1.7c-1.6,0-2.7-1-2.7-2.6
				s1-2.6,2.7-2.6c1.8,0,2.4,1.3,2.4,2.9h-4V453z M-607.9,452.3c-0.1-0.9-0.6-1.5-1.6-1.5c-0.9,0-1.6,0.5-1.6,1.5H-607.9z"/>
			<path class="st5" d="M-603.1,454.6h0.9V451h-0.9v-0.7h1.8v4.3h0.9v0.7h-2.6L-603.1,454.6L-603.1,454.6z M-601.4,449.1h-1v-1h1
				V449.1z"/>
			<path class="st5" d="M-599.8,455.3v-1.7h0.7c0,1,0.8,1.2,1.6,1.2c0.4,0,1-0.2,1-0.8c0-0.7-0.7-0.7-1.3-0.7c-0.9-0.2-2-0.3-2-1.4
				s1-1.6,1.9-1.6c0.6,0,1.3,0.2,1.5,0.7l0,0v-0.6h0.7v1.7h-0.7c0-0.9-0.6-1.1-1.4-1.1c-0.5,0-1.2,0.1-1.2,0.8
				c0,0.6,0.9,0.6,1.5,0.7c0.9,0.2,1.9,0.3,1.9,1.4c0,1.2-1.1,1.6-2.1,1.6c-0.6,0-1.3-0.2-1.5-0.8l0,0v0.7h-0.6V455.3z"/>
			<path class="st5" d="M-591.5,454.6h0.9V451h-0.9v-0.7h1.8v0.9l0,0c0.2-0.6,0.8-1,1.6-1c0.8,0,1.3,0.3,1.6,1c0.3-0.6,0.9-1,1.6-1
				c1.2,0,1.8,0.6,1.8,1.7v2.7h0.9v0.7h-2.6v-0.7h0.9v-2.1c0-0.8,0-1.6-1.1-1.6c-1,0-1.3,0.8-1.3,1.6v2.1h0.9v0.7h-2.6v-0.7h0.9
				v-2.1c0-0.9,0-1.6-1.1-1.6c-1,0-1.4,0.8-1.4,1.7v2.1h0.9v0.7h-2.6v-0.8H-591.5z"/>
			<path class="st5" d="M-576.6,454.6h0.9v0.7h-1.8v-0.9l0,0c-0.2,0.6-0.9,1-1.6,1c-1.3,0-1.8-0.6-1.8-1.8V451h-0.9v-0.7h1.8v3.1
				c0,0.8,0.3,1.3,1.2,1.3c1,0,1.4-0.7,1.4-1.6V451h-0.9v-0.7h1.8L-576.6,454.6L-576.6,454.6z"/>
			<path class="st5" d="M-570.2,452.1h-0.7c-0.1-0.8-0.6-1.3-1.4-1.3c-1.1,0-1.6,0.9-1.6,1.9s0.6,1.9,1.6,1.9c0.7,0,1.3-0.4,1.4-1.1
				h0.8c0,1.2-1.1,1.8-2.2,1.8c-1.6,0-2.6-1-2.6-2.6s1-2.6,2.6-2.6c0.6,0,1.1,0.2,1.4,0.7l0,0v-0.6h0.7V452.1z"/>
			<path class="st5" d="M-569.4,454.6h0.9v-5.8h-0.9v-0.7h1.8v3.1l0,0c0.2-0.6,0.9-1,1.7-1c1.3,0,1.8,0.6,1.8,1.8v2.6h0.9v0.7h-2.6
				v-0.7h0.9v-2.4c0-0.8-0.3-1.3-1.2-1.3c-1,0-1.4,0.7-1.4,1.6v2.1h0.9v0.7h-2.6v-0.7H-569.4z"/>
			<path class="st5" d="M-559.7,454.6h0.9V451h-0.9v-0.7h1.8v0.9l0,0c0.2-0.6,0.8-1,1.6-1s1.3,0.3,1.6,1c0.3-0.6,0.9-1,1.6-1
				c1.2,0,1.8,0.6,1.8,1.7v2.7h0.9v0.7h-2.6v-0.7h0.9v-2.1c0-0.8,0-1.6-1.1-1.6c-1,0-1.3,0.8-1.3,1.6v2.1h0.9v0.7h-2.6v-0.7h0.9
				v-2.1c0-0.9,0-1.6-1.1-1.6c-1,0-1.4,0.8-1.4,1.7v2.1h0.9v0.7h-2.6v-0.8H-559.7z"/>
			<path class="st5" d="M-547.2,450.1c1.6,0,2.6,1,2.6,2.6s-1,2.6-2.6,2.6c-1.6,0-2.7-1-2.7-2.6S-548.8,450.1-547.2,450.1z
				 M-547.2,454.7c1.1,0,1.7-0.9,1.7-1.9s-0.5-1.9-1.7-1.9c-1.1,0-1.7,0.9-1.7,1.9S-548.3,454.7-547.2,454.7z"/>
			<path class="st5" d="M-543.8,454.6h0.9V451h-0.9v-0.7h1.8v1l0,0c0.2-0.8,0.8-1.1,1.5-1.1c0.2,0,0.3,0,0.4,0v0.7
				c-0.1,0-0.3-0.1-0.5-0.1c-1.3,0-1.4,1.3-1.4,2.4v1.4h1v0.7h-2.8V454.6z"/>
			<path class="st5" d="M-538.4,453c0,1.2,0.6,1.7,1.8,1.7c0.6,0,1.4-0.3,1.4-1h0.8c0,1.2-1.3,1.7-2.4,1.7c-1.6,0-2.7-1-2.7-2.6
				s1-2.6,2.7-2.6c1.8,0,2.4,1.3,2.4,2.9h-4V453z M-535.2,452.3c-0.1-0.9-0.6-1.5-1.6-1.5c-0.9,0-1.6,0.5-1.6,1.5H-535.2z"/>
			<path class="st5" d="M-527,451h-1.6v2.9c0,0.4,0.1,0.8,0.5,0.8c0.5,0,0.6-0.5,0.6-0.9h0.8c0,1-0.4,1.7-1.5,1.7
				c-1.3,0-1.3-0.9-1.3-1.9v-2.5h-1v-0.7h1v-1.1l0.9-0.3v1.4h1.6V451z"/>
			<path class="st5" d="M-523.3,450.1c1.6,0,2.6,1,2.6,2.6s-1,2.6-2.6,2.6c-1.6,0-2.7-1-2.7-2.6S-525,450.1-523.3,450.1z
				 M-523.3,454.7c1.1,0,1.7-0.9,1.7-1.9s-0.5-1.9-1.7-1.9c-1.1,0-1.7,0.9-1.7,1.9S-524.5,454.7-523.3,454.7z"/>
		</g>
		<g class="st2">
			<path class="st5" d="M-696.5,467.8h0.9V462h-0.9v-0.7h1.8v6.5h0.9v0.7h-2.6L-696.5,467.8L-696.5,467.8z"/>
			<path class="st5" d="M-692.3,466.2c0,1.2,0.6,1.7,1.8,1.7c0.6,0,1.4-0.3,1.4-1h0.8c0,1.2-1.3,1.7-2.4,1.7c-1.6,0-2.7-1-2.7-2.6
				s1-2.6,2.7-2.6c1.8,0,2.4,1.3,2.4,2.9h-4V466.2z M-689,465.5c-0.1-0.9-0.6-1.5-1.6-1.5c-0.9,0-1.6,0.5-1.6,1.5H-689z"/>
			<path class="st5" d="M-683.5,467.4L-683.5,467.4c-0.2,0.8-0.9,1.1-1.7,1.1c-1,0-2-0.4-2-1.6c0-1.5,1.5-1.6,2.7-1.6h1V465
				c0-0.8-0.4-1.1-1.2-1.1c-0.7,0-1.2,0.1-1.3,0.9h-1c0.1-1.2,1.1-1.6,2.2-1.6c1.2,0,2.2,0.3,2.2,1.6v2.9h0.9v0.7h-1.8V467.4
				L-683.5,467.4z M-685.1,467.9c1.1,0,1.6-0.8,1.6-1.8h-0.8c-0.6,0-1.9,0-1.9,0.9C-686.2,467.7-685.7,467.9-685.1,467.9z"/>
			<path class="st5" d="M-681.1,467.8h0.9v-3.6h-0.9v-0.7h1.8v1l0,0c0.2-0.8,0.8-1.1,1.5-1.1c0.2,0,0.3,0,0.4,0v0.7
				c-0.1,0-0.3-0.1-0.5-0.1c-1.3,0-1.4,1.3-1.4,2.4v1.4h1v0.7h-2.8V467.8z"/>
			<path class="st5" d="M-676.8,467.8h0.9v-3.6h-0.9v-0.7h1.8v0.9l0,0c0.2-0.6,0.9-1,1.7-1c1.3,0,1.8,0.6,1.8,1.8v2.6h0.9v0.7h-2.6
				v-0.7h0.9v-2.4c0-0.8-0.3-1.3-1.2-1.3c-1,0-1.4,0.7-1.4,1.6v2.1h0.9v0.7h-2.6v-0.7H-676.8z"/>
			<path class="st5" d="M-663.8,464.2h-1.6v2.9c0,0.4,0.1,0.8,0.6,0.8s0.6-0.5,0.6-0.9h0.8c0,1-0.4,1.7-1.5,1.7
				c-1.3,0-1.3-0.9-1.3-1.9v-2.5h-1v-0.7h1v-1.2l0.9-0.3v1.4h1.6v0.7H-663.8z"/>
			<path class="st5" d="M-660.1,463.3c1.6,0,2.6,1,2.6,2.6s-1,2.6-2.6,2.6c-1.6,0-2.7-1-2.7-2.6
				C-662.8,464.3-661.7,463.3-660.1,463.3z M-660.1,467.9c1.1,0,1.7-0.9,1.7-1.9s-0.5-1.9-1.7-1.9c-1.1,0-1.7,0.9-1.7,1.9
				S-661.2,467.9-660.1,467.9z"/>
			<path class="st5" d="M-653.8,467.8h0.9V462h-0.9v-0.7h1.8v3.1l0,0c0.3-0.6,1.1-1,1.7-1c1.6,0,2.5,1,2.5,2.6s-0.9,2.6-2.5,2.6
				c-0.7,0-1.5-0.4-1.7-1.1l0,0v1h-1.8V467.8z M-650.2,467.9c1,0,1.5-0.8,1.5-1.9c0-1-0.5-1.9-1.5-1.9c-1.2,0-1.8,0.9-1.8,1.9
				C-652,467.1-651.4,467.9-650.2,467.9z"/>
			<path class="st5" d="M-645.8,466.2c0,1.2,0.6,1.7,1.8,1.7c0.6,0,1.4-0.3,1.4-1h0.8c0,1.2-1.3,1.7-2.4,1.7c-1.6,0-2.7-1-2.7-2.6
				s1-2.6,2.7-2.6c1.8,0,2.4,1.3,2.4,2.9h-4V466.2z M-642.6,465.5c-0.1-0.9-0.6-1.5-1.6-1.5c-0.9,0-1.6,0.5-1.6,1.5H-642.6z"/>
			<path class="st5" d="M-636,465.3h-0.7c-0.1-0.8-0.6-1.3-1.4-1.3c-1.1,0-1.6,0.9-1.6,1.9s0.6,1.9,1.6,1.9c0.7,0,1.3-0.4,1.4-1.1
				h0.8c0,1.2-1.1,1.8-2.2,1.8c-1.6,0-2.6-1-2.6-2.6s1-2.6,2.6-2.6c0.6,0,1.1,0.2,1.4,0.7l0,0v-0.6h0.7V465.3L-636,465.3z"/>
			<path class="st5" d="M-632.6,463.3c1.6,0,2.6,1,2.6,2.6s-1,2.6-2.6,2.6c-1.6,0-2.7-1-2.7-2.6
				C-635.3,464.3-634.2,463.3-632.6,463.3z M-632.6,467.9c1.1,0,1.7-0.9,1.7-1.9s-0.5-1.9-1.7-1.9c-1.1,0-1.7,0.9-1.7,1.9
				S-633.7,467.9-632.6,467.9z"/>
			<path class="st5" d="M-629.2,467.8h0.9v-3.6h-0.9v-0.7h1.8v0.9l0,0c0.2-0.6,0.8-1,1.6-1c0.8,0,1.3,0.3,1.6,1c0.3-0.6,0.9-1,1.6-1
				c1.2,0,1.8,0.6,1.8,1.7v2.7h0.9v0.7h-2.6v-0.7h0.9v-2.1c0-0.8,0-1.6-1.1-1.6c-1,0-1.3,0.8-1.3,1.6v2.1h0.9v0.7h-2.6v-0.7h0.9
				v-2.1c0-0.9,0-1.6-1.1-1.6c-1,0-1.4,0.8-1.4,1.7v2.1h0.9v0.7h-2.6v-0.8H-629.2z"/>
			<path class="st5" d="M-618.3,466.2c0,1.2,0.6,1.7,1.8,1.7c0.6,0,1.4-0.3,1.4-1h0.8c0,1.2-1.3,1.7-2.4,1.7c-1.6,0-2.7-1-2.7-2.6
				s1-2.6,2.7-2.6c1.8,0,2.4,1.3,2.4,2.9h-4V466.2z M-615.1,465.5c-0.1-0.9-0.6-1.5-1.6-1.5c-0.9,0-1.6,0.5-1.6,1.5H-615.1z"/>
			<path class="st5" d="M-606.5,467.4L-606.5,467.4c-0.2,0.8-0.9,1.1-1.7,1.1c-1,0-2-0.4-2-1.6c0-1.5,1.5-1.6,2.7-1.6h1V465
				c0-0.8-0.4-1.1-1.2-1.1c-0.7,0-1.2,0.1-1.3,0.9h-1c0.1-1.2,1.1-1.6,2.2-1.6c1.2,0,2.2,0.3,2.2,1.6v2.9h0.9v0.7h-1.8V467.4
				L-606.5,467.4z M-608.1,467.9c1.1,0,1.6-0.8,1.6-1.8h-0.8c-0.6,0-1.9,0-1.9,0.9C-609.2,467.7-608.6,467.9-608.1,467.9z"/>
			<path class="st5" d="M-601.1,467.8h0.9V462h-0.9v-0.7h1.8v4.5l2-1.6l0,0h-0.8v-0.7h2.5v0.7h-0.7l-1.4,1.1l1.6,2.5h0.6v0.7h-2.3
				v-0.7h0.7l-1.2-1.9l-1,0.8v1.1h0.8v0.7h-2.6V467.8L-601.1,467.8z"/>
			<path class="st5" d="M-594.9,467.8h0.9v-3.6h-0.9v-0.7h1.8v0.9l0,0c0.2-0.6,0.9-1,1.7-1c1.3,0,1.8,0.6,1.8,1.8v2.6h0.9v0.7h-2.6
				v-0.7h0.9v-2.4c0-0.8-0.3-1.3-1.2-1.3c-1,0-1.4,0.7-1.4,1.6v2.1h0.9v0.7h-2.6v-0.7H-594.9z"/>
			<path class="st5" d="M-585.5,463.3c1.6,0,2.6,1,2.6,2.6s-1,2.6-2.6,2.6s-2.7-1-2.7-2.6S-587.1,463.3-585.5,463.3z M-585.5,467.9
				c1.1,0,1.7-0.9,1.7-1.9s-0.5-1.9-1.7-1.9c-1.1,0-1.7,0.9-1.7,1.9S-586.7,467.9-585.5,467.9z"/>
			<path class="st5" d="M-572.9,464.2h-0.7l-1.5,4.3h-1.2l-1.4-4.2l0,0l-1.4,4.2h-1.2l-1.5-4.3h-0.7v-0.7h2.6v0.7h-1l1.1,3.5l0,0
				l1.4-4.2h1.2l1.4,4.2l0,0l1.2-3.5h-1v-0.7h2.5v0.7H-572.9z"/>
			<path class="st5" d="M-572.4,467.8h0.9V462h-0.9v-0.7h1.8v6.5h0.9v0.7h-2.6v-0.7H-572.4z"/>
			<path class="st5" d="M-568.2,466.2c0,1.2,0.6,1.7,1.8,1.7c0.6,0,1.4-0.3,1.4-1h0.8c0,1.2-1.3,1.7-2.4,1.7c-1.6,0-2.7-1-2.7-2.6
				s1-2.6,2.7-2.6c1.8,0,2.4,1.3,2.4,2.9h-4V466.2z M-564.9,465.5c-0.1-0.9-0.6-1.5-1.6-1.5c-0.9,0-1.6,0.5-1.6,1.5H-564.9z"/>
			<path class="st5" d="M-558.8,467.5L-558.8,467.5c-0.3,0.6-1,1.1-1.8,1.1c-1.7,0-2.4-1.1-2.4-2.6s0.9-2.6,2.4-2.6
				c0.7,0,1.5,0.4,1.8,1l0,0V462h-0.9v-0.7h1.8v6.5h0.9v0.7h-1.8V467.5z M-560.5,464c-1.1,0-1.7,0.8-1.7,1.9c0,1,0.5,1.9,1.7,1.9
				c1.1,0,1.6-0.9,1.6-1.9C-558.8,464.9-559.4,464-560.5,464z"/>
			<path class="st5" d="M-550.3,464.2h-0.9v2.7c0,0.8,0.1,1.8-0.3,2.5c-0.4,0.8-1.4,1-2.3,1c-1.1,0-2.4-0.2-2.4-1.5h1
				c0,0.7,0.7,0.8,1.3,0.8c1.3,0,1.7-0.5,1.7-1.8v-0.5l0,0c-0.3,0.7-1.1,1-1.8,1c-1.5,0-2.4-1-2.4-2.6c0-1.5,0.9-2.5,2.4-2.5
				c0.8,0,1.5,0.3,1.9,1l0,0l0,0l0,0v-0.9h1.8V464.2z M-553.8,467.7c1.1,0,1.6-0.8,1.6-1.8s-0.5-1.8-1.6-1.8c-1.2,0-1.8,0.7-1.8,1.8
				C-555.4,466.9-554.9,467.7-553.8,467.7z"/>
			<path class="st5" d="M-548.6,466.2c0,1.2,0.6,1.7,1.8,1.7c0.6,0,1.4-0.3,1.4-1h0.8c0,1.2-1.3,1.7-2.4,1.7c-1.6,0-2.7-1-2.7-2.6
				s1-2.6,2.7-2.6c1.8,0,2.4,1.3,2.4,2.9h-4V466.2z M-545.4,465.5c-0.1-0.9-0.6-1.5-1.6-1.5c-0.9,0-1.6,0.5-1.6,1.5H-545.4z"/>
			<path class="st5" d="M-539.8,467.4L-539.8,467.4c-0.2,0.8-0.9,1.1-1.7,1.1c-1,0-2-0.4-2-1.6c0-1.5,1.5-1.6,2.7-1.6h1V465
				c0-0.8-0.4-1.1-1.2-1.1c-0.7,0-1.2,0.1-1.3,0.9h-1c0.1-1.2,1.1-1.6,2.2-1.6c1.2,0,2.2,0.3,2.2,1.6v2.9h0.9v0.7h-1.8L-539.8,467.4
				L-539.8,467.4z M-541.4,467.9c1.1,0,1.6-0.8,1.6-1.8h-0.8c-0.6,0-1.9,0-1.9,0.9C-542.6,467.7-542,467.9-541.4,467.9z"/>
			<path class="st5" d="M-537.6,467.8h0.9V462h-0.9v-0.7h1.8v3.1l0,0c0.3-0.6,1.1-1,1.7-1c1.6,0,2.5,1,2.5,2.6s-0.9,2.6-2.5,2.6
				c-0.7,0-1.5-0.4-1.7-1.1l0,0v1h-1.8V467.8z M-534.1,467.9c1,0,1.5-0.8,1.5-1.9c0-1-0.5-1.9-1.5-1.9c-1.2,0-1.8,0.9-1.8,1.9
				C-535.8,467.1-535.3,467.9-534.1,467.9z"/>
			<path class="st5" d="M-530.8,467.8h0.9V462h-0.9v-0.7h1.8v6.5h0.9v0.7h-2.6L-530.8,467.8L-530.8,467.8z"/>
			<path class="st5" d="M-526.6,466.2c0,1.2,0.6,1.7,1.8,1.7c0.6,0,1.4-0.3,1.4-1h0.8c0,1.2-1.3,1.7-2.4,1.7c-1.6,0-2.7-1-2.7-2.6
				s1-2.6,2.7-2.6c1.8,0,2.4,1.3,2.4,2.9h-4V466.2z M-523.4,465.5c-0.1-0.9-0.6-1.5-1.6-1.5c-0.9,0-1.6,0.5-1.6,1.5H-523.4z"/>
		</g>
		<g class="st2">
			<path class="st5" d="M-674,480.6L-674,480.6c-0.2,0.8-0.9,1.1-1.7,1.1c-1,0-2-0.4-2-1.6c0-1.5,1.5-1.6,2.7-1.6h1v-0.3
				c0-0.8-0.4-1.1-1.2-1.1c-0.7,0-1.2,0.1-1.3,0.9h-1c0.1-1.2,1.1-1.6,2.2-1.6c1.2,0,2.2,0.3,2.2,1.6v2.9h0.9v0.7h-1.8V480.6
				L-674,480.6z M-675.6,481.1c1.1,0,1.6-0.8,1.6-1.8h-0.8c-0.6,0-1.9,0-1.9,0.9C-676.7,480.9-676.1,481.1-675.6,481.1z"/>
			<path class="st5" d="M-671.6,481h0.9v-3.6h-0.9v-0.7h1.8v0.9l0,0c0.2-0.6,0.9-1,1.7-1c1.3,0,1.8,0.6,1.8,1.8v2.6h0.9v0.7h-2.6
				V481h0.9v-2.4c0-0.8-0.3-1.3-1.2-1.3c-1,0-1.4,0.7-1.4,1.6v2.1h0.9v0.7h-2.6V481H-671.6z"/>
			<path class="st5" d="M-660.6,480.7L-660.6,480.7c-0.3,0.6-1,1.1-1.8,1.1c-1.7,0-2.4-1.1-2.4-2.6s0.9-2.6,2.4-2.6
				c0.7,0,1.5,0.4,1.8,1l0,0v-2.4h-0.9v-0.7h1.8v6.5h0.9v0.7h-1.8V480.7z M-662.2,477.2c-1.1,0-1.7,0.8-1.7,1.9c0,1,0.5,1.9,1.7,1.9
				c1.1,0,1.6-0.9,1.6-1.9C-660.6,478.1-661.1,477.2-662.2,477.2z"/>
			<path class="st5" d="M-654,479.4c0,1.2,0.6,1.7,1.8,1.7c0.6,0,1.4-0.3,1.4-1h0.8c0,1.2-1.3,1.7-2.4,1.7c-1.6,0-2.7-1-2.7-2.6
				s1-2.6,2.7-2.6c1.8,0,2.4,1.3,2.4,2.9h-4V479.4z M-650.8,478.7c-0.1-0.9-0.6-1.5-1.6-1.5c-0.9,0-1.6,0.5-1.6,1.5H-650.8z"/>
			<path class="st5" d="M-649.2,481h0.6l1.8-1.9l-1.7-1.7h-0.5v-0.7h2.4v0.7h-0.7l1.2,1.3l1.2-1.3h-0.8v-0.7h2.3v0.7h-0.6l-1.7,1.7
				l1.7,1.9h0.6v0.7h-2.5V481h0.8l-1.3-1.4l-1.3,1.4h0.9v0.7h-2.4V481z"/>
			<path class="st5" d="M-643,482.8h0.9v-5.4h-0.9v-0.7h1.8v1l0,0c0.3-0.6,0.9-1.1,1.7-1.1c1.6,0,2.5,1,2.5,2.6s-0.9,2.6-2.5,2.6
				c-0.8,0-1.4-0.4-1.7-1.1l0,0v2.1h0.9v0.7h-2.7V482.8L-643,482.8z M-639.5,481.1c1,0,1.5-0.8,1.5-1.9c0-1-0.5-1.9-1.5-1.9
				c-1.2,0-1.8,0.9-1.8,1.9C-641.2,480.3-640.7,481.1-639.5,481.1z"/>
			<path class="st5" d="M-635.1,479.4c0,1.2,0.6,1.7,1.8,1.7c0.6,0,1.4-0.3,1.4-1h0.8c0,1.2-1.3,1.7-2.4,1.7c-1.6,0-2.7-1-2.7-2.6
				s1-2.6,2.7-2.6c1.8,0,2.4,1.3,2.4,2.9h-4V479.4z M-631.8,478.7c-0.1-0.9-0.6-1.5-1.6-1.5c-0.9,0-1.6,0.5-1.6,1.5H-631.8z"/>
			<path class="st5" d="M-630,481h0.9v-3.6h-0.9v-0.7h1.8v1l0,0c0.2-0.8,0.8-1.1,1.5-1.1c0.2,0,0.3,0,0.4,0v0.7
				c-0.1,0-0.3-0.1-0.5-0.1c-1.3,0-1.4,1.3-1.4,2.4v1.4h1v0.7h-2.8V481z"/>
			<path class="st5" d="M-625.8,481h0.9v-3.6h-0.9v-0.7h1.8v4.3h0.9v0.7h-2.6L-625.8,481L-625.8,481z M-624.1,475.5h-1v-1h1V475.5z"
				/>
			<path class="st5" d="M-621.6,479.4c0,1.2,0.6,1.7,1.8,1.7c0.6,0,1.4-0.3,1.4-1h0.8c0,1.2-1.3,1.7-2.4,1.7c-1.6,0-2.7-1-2.7-2.6
				s1-2.6,2.7-2.6c1.8,0,2.4,1.3,2.4,2.9h-4V479.4z M-618.4,478.7c-0.1-0.9-0.6-1.5-1.6-1.5c-0.9,0-1.6,0.5-1.6,1.5H-618.4z"/>
			<path class="st5" d="M-616.6,481h0.9v-3.6h-0.9v-0.7h1.8v0.9l0,0c0.2-0.6,0.9-1,1.7-1c1.3,0,1.8,0.6,1.8,1.8v2.6h0.9v0.7h-2.6
				V481h0.9v-2.4c0-0.8-0.3-1.3-1.2-1.3c-1,0-1.4,0.7-1.4,1.6v2.1h0.9v0.7h-2.6V481H-616.6z"/>
			<path class="st5" d="M-605.1,478.5h-0.7c-0.1-0.8-0.6-1.3-1.4-1.3c-1.1,0-1.6,0.9-1.6,1.9s0.6,1.9,1.6,1.9c0.7,0,1.3-0.4,1.4-1.1
				h0.8c0,1.2-1.1,1.8-2.2,1.8c-1.6,0-2.6-1-2.6-2.6s1-2.6,2.6-2.6c0.6,0,1.1,0.2,1.4,0.7l0,0v-0.6h0.7V478.5z"/>
			<path class="st5" d="M-603.3,479.4c0,1.2,0.6,1.7,1.8,1.7c0.6,0,1.4-0.3,1.4-1h0.8c0,1.2-1.3,1.7-2.4,1.7c-1.6,0-2.7-1-2.7-2.6
				s1-2.6,2.7-2.6c1.8,0,2.4,1.3,2.4,2.9h-4V479.4z M-600,478.7c-0.1-0.9-0.6-1.5-1.6-1.5c-0.9,0-1.6,0.5-1.6,1.5H-600z"/>
			<path class="st5" d="M-594,480.7L-594,480.7c-0.3,0.6-1,1.1-1.8,1.1c-1.7,0-2.4-1.1-2.4-2.6s0.9-2.6,2.4-2.6c0.7,0,1.5,0.4,1.8,1
				l0,0v-2.4h-0.9v-0.7h1.8v6.5h0.9v0.7h-1.8V480.7z M-595.6,477.2c-1.1,0-1.7,0.8-1.7,1.9c0,1,0.5,1.9,1.7,1.9
				c1.1,0,1.6-0.9,1.6-1.9C-594,478.1-594.5,477.2-595.6,477.2z"/>
			<path class="st5" d="M-584.2,480.7L-584.2,480.7c-0.3,0.6-1,1.1-1.8,1.1c-1.7,0-2.4-1.1-2.4-2.6s0.9-2.6,2.4-2.6
				c0.7,0,1.5,0.4,1.8,1l0,0v-2.4h-0.9v-0.7h1.8v6.5h0.9v0.7h-1.8V480.7z M-585.8,477.2c-1.1,0-1.7,0.8-1.7,1.9c0,1,0.5,1.9,1.7,1.9
				c1.1,0,1.6-0.9,1.6-1.9C-584.2,478.1-584.7,477.2-585.8,477.2z"/>
			<path class="st5" d="M-580.6,479.4c0,1.2,0.6,1.7,1.8,1.7c0.6,0,1.4-0.3,1.4-1h0.8c0,1.2-1.3,1.7-2.4,1.7c-1.6,0-2.7-1-2.7-2.6
				s1-2.6,2.7-2.6c1.8,0,2.4,1.3,2.4,2.9h-4V479.4z M-577.4,478.7c-0.1-0.9-0.6-1.5-1.6-1.5c-0.9,0-1.6,0.5-1.6,1.5H-577.4z"/>
			<path class="st5" d="M-575.4,481.7V480h0.7c0,1,0.8,1.2,1.6,1.2c0.4,0,1-0.2,1-0.8c0-0.7-0.7-0.7-1.3-0.7c-0.9-0.2-2-0.3-2-1.4
				s1-1.6,1.9-1.6c0.6,0,1.3,0.2,1.5,0.7l0,0v-0.6h0.7v1.7h-0.7c0-0.9-0.6-1.1-1.4-1.1c-0.5,0-1.2,0.1-1.2,0.8
				c0,0.6,0.9,0.6,1.5,0.7c0.9,0.2,1.9,0.3,1.9,1.4c0,1.2-1.1,1.6-2.1,1.6c-0.6,0-1.3-0.2-1.5-0.8l0,0v0.7h-0.6V481.7z"/>
			<path class="st5" d="M-570.2,481h0.9v-3.6h-0.9v-0.7h1.8v4.3h0.9v0.7h-2.6V481H-570.2z M-568.4,475.5h-1v-1h1V475.5z"/>
			<path class="st5" d="M-561,477.4h-0.9v2.7c0,0.8,0.1,1.8-0.3,2.5c-0.4,0.8-1.4,1-2.3,1c-1.1,0-2.4-0.2-2.4-1.5h1
				c0,0.7,0.7,0.8,1.3,0.8c1.3,0,1.7-0.5,1.7-1.8v-0.6l0,0c-0.3,0.7-1.1,1-1.8,1c-1.5,0-2.4-1-2.4-2.6c0-1.5,0.9-2.5,2.4-2.5
				c0.8,0,1.5,0.3,1.9,1l0,0l0,0l0,0v-0.9h1.8V477.4z M-564.4,480.9c1.1,0,1.6-0.8,1.6-1.8s-0.5-1.8-1.6-1.8c-1.2,0-1.8,0.7-1.8,1.8
				C-566.1,480.1-565.5,480.9-564.4,480.9z"/>
			<path class="st5" d="M-560.3,481h0.9v-3.6h-0.9v-0.7h1.8v0.9l0,0c0.2-0.6,0.9-1,1.7-1c1.3,0,1.8,0.6,1.8,1.8v2.6h0.9v0.7h-2.6
				V481h0.9v-2.4c0-0.8-0.3-1.3-1.2-1.3c-1,0-1.4,0.7-1.4,1.6v2.1h0.9v0.7h-2.6V481H-560.3z"/>
			<path class="st5" d="M-552.5,479.4c0,1.2,0.6,1.7,1.8,1.7c0.6,0,1.4-0.3,1.4-1h0.8c0,1.2-1.3,1.7-2.4,1.7c-1.6,0-2.7-1-2.7-2.6
				s1-2.6,2.7-2.6c1.8,0,2.4,1.3,2.4,2.9h-4V479.4z M-549.3,478.7c-0.1-0.9-0.6-1.5-1.6-1.5c-0.9,0-1.6,0.5-1.6,1.5H-549.3z"/>
			<path class="st5" d="M-547.5,481h0.9v-3.6h-0.9v-0.7h1.8v1l0,0c0.2-0.8,0.8-1.1,1.5-1.1c0.2,0,0.3,0,0.4,0v0.7
				c-0.1,0-0.3-0.1-0.5-0.1c-1.3,0-1.4,1.3-1.4,2.4v1.4h1v0.7h-2.8V481z"/>
			<path class="st5" d="M-543.3,480.6h1.1v1.1h-1.1V480.6z"/>
		</g>
	</g>
	<path class="st6" d="M-617.1,363.3c-1.3,0-2.9,1.1-3.5,2.8c-0.1,0-0.2,0-0.4,0c-0.1,0-0.2,0-0.4,0c-0.5-1.7-2.3-2.8-3.7-2.8
		c-1.3,0-2.2,0.8-2.4,2.2c-0.1,0.4,0.2,0.7,0.6,0.8c0.4,0.1,0.7-0.2,0.8-0.6c0.1-0.7,0.5-1,1.1-1c0.9,0,2.1,0.8,2.4,2
		c-0.2,0.1-0.4,0.3-0.5,0.4c-0.8,0.8-1.3,1.8-1.5,2.4l-0.1,0.1c-0.3,0.6-0.5,1.1-0.7,1.6c-1.2,0.7-2.5,1.6-3.5,2.5
		c-1.2,1.2-1.8,2.4-1.8,3.5c0,1,0.5,1.9,1.4,2.7c0.9,0.8,1.9,1.1,2.8,0.8c0.1,0.3,0.2,0.6,0.3,0.9c1.4,3.7,4.5,5,4.6,5l0.2,0.1
		l0.3-0.1c0.1,0,1.4-0.5,2.8-1.9c1-1,1.9-2.3,2.5-4c0,0,0,0,0.1,0c0.7,0.2,1.8,0.3,3-0.7c0.1-0.1,0.2-0.2,0.3-0.3
		c1-1,1.3-2.1,1.1-3.3c-0.5-2-2.7-3.8-4.9-5.1c-0.2-0.7-0.5-1.4-0.9-2.2c-0.6-1.4-1.4-2.2-2.1-2.6c0.3-1.1,1.4-1.9,2.2-1.9
		c0.5,0,0.8,0.4,0.9,1c0,0.4,0.4,0.6,0.8,0.6c0.2,0,0.3-0.1,0.4-0.2c0.1-0.1,0.2-0.4,0.2-0.6C-615.1,363.9-616.2,363.3-617.1,363.3z
		 M-612.8,376.8c0.2,0.8-0.1,1.5-0.9,2.2c-0.8,0.7-1.3,0.6-1.7,0.5c0,0-0.1,0-0.1-0.1c-0.4-0.2-0.8-0.5-1.2-1
		c-0.3-0.3-0.5-0.7-0.8-1.1c-0.4-0.7-0.8-1.5-1.1-2.3c-0.3-0.6-0.5-1.2-0.7-1.8c-0.3-0.8-0.5-1.6-0.7-2.2h0.1
		c1.2,0.5,2.8,1.4,4.2,2.3C-614.3,374.4-613.1,375.6-612.8,376.8z M-628.4,378.9c-0.6-0.5-0.9-1.1-0.9-1.7c0-0.8,0.4-1.6,1.4-2.5
		c0.5-0.5,1.1-1,1.8-1.5c1.4-1,3-1.7,4.2-2.2l0,0c-0.2,0.6-0.4,1.4-0.7,2.2c-0.2,0.6-0.5,1.2-0.7,1.8c-0.3,0.8-0.7,1.6-1.2,2.2
		c-0.3,0.5-0.6,0.9-0.9,1.2c-0.1,0.1-0.1,0.2-0.2,0.2c-0.4,0.4-0.7,0.6-1,0.7C-627.3,379.6-627.8,379.4-628.4,378.9z M-621.3,373.2
		h0.5c0.2,0.6,0.4,1.2,0.7,1.8h-1.9C-621.7,374.4-621.5,373.8-621.3,373.2z M-623,377.2h4c0.4,0.7,0.7,1.3,1.2,1.8l-6.3-0.1
		C-623.8,378.5-623.4,377.9-623,377.2z M-618.6,383.1h-5.2c-0.4-0.5-0.7-1.1-1-1.8l7.4,0.1C-617.8,382-618.2,382.6-618.6,383.1z
		 M-618.5,369.7c0.1,0.2,0.2,0.4,0.3,0.6c-1-0.5-1.8-0.8-2.4-1c-0.1-0.1-0.2-0.1-0.4-0.1c-0.1,0-0.3,0-0.4,0.1
		c-0.6,0.2-1.4,0.5-2.2,0.9v-0.1l0.1-0.1c0.3-0.5,0.7-1.4,1.3-2c0.4-0.4,0.8-0.6,1.2-0.6C-620,367.4-619.2,368.2-618.5,369.7z"/>
	<path class="st6" d="M-591.6,363.3c-1.3,0-2.9,1.1-3.5,2.8c-0.1,0-0.2,0-0.4,0c-0.1,0-0.2,0-0.4,0c-0.5-1.7-2.3-2.8-3.7-2.8
		c-1.3,0-2.2,0.8-2.4,2.2c-0.1,0.4,0.2,0.7,0.6,0.8c0.4,0.1,0.7-0.2,0.8-0.6c0.1-0.7,0.5-1,1.1-1c0.9,0,2.1,0.8,2.4,2
		c-0.2,0.1-0.4,0.3-0.5,0.4c-0.8,0.8-1.3,1.8-1.5,2.4l-0.1,0.1c-0.3,0.6-0.5,1.1-0.7,1.6c-1.2,0.7-2.5,1.6-3.5,2.5
		c-1.2,1.2-1.8,2.4-1.8,3.5c0,1,0.5,1.9,1.4,2.7c0.9,0.8,1.9,1.1,2.8,0.8c0.1,0.3,0.2,0.6,0.3,0.9c1.4,3.7,4.5,5,4.6,5l0.2,0.1
		l0.3-0.1c0.1,0,1.4-0.5,2.8-1.9c1-1,1.9-2.3,2.5-4c0,0,0,0,0.1,0c0.7,0.2,1.8,0.3,3-0.7c0.1-0.1,0.2-0.2,0.3-0.3
		c1-1,1.3-2.1,1.1-3.3c-0.5-2-2.7-3.8-4.9-5.1c-0.2-0.7-0.5-1.4-0.9-2.2c-0.6-1.4-1.4-2.2-2.1-2.6c0.3-1.1,1.4-1.9,2.2-1.9
		c0.5,0,0.8,0.4,0.9,1c0,0.4,0.4,0.6,0.8,0.6c0.2,0,0.3-0.1,0.4-0.2c0.1-0.1,0.2-0.4,0.2-0.6C-589.5,363.9-590.6,363.3-591.6,363.3z
		 M-587.2,376.8c0.2,0.8-0.1,1.5-0.9,2.2c-0.8,0.7-1.3,0.6-1.7,0.5c0,0-0.1,0-0.1-0.1c-0.4-0.2-0.8-0.5-1.2-1
		c-0.3-0.3-0.5-0.7-0.8-1.1c-0.4-0.7-0.8-1.5-1.1-2.3c-0.3-0.6-0.5-1.2-0.7-1.8c-0.3-0.8-0.5-1.6-0.7-2.2h0.1
		c1.2,0.5,2.8,1.4,4.2,2.3C-588.7,374.4-587.5,375.6-587.2,376.8z M-602.9,378.9c-0.6-0.5-0.9-1.1-0.9-1.7c0-0.8,0.4-1.6,1.4-2.5
		c0.5-0.5,1.1-1,1.8-1.5c1.4-1,3-1.7,4.2-2.2l0,0c-0.2,0.6-0.4,1.4-0.7,2.2c-0.2,0.6-0.5,1.2-0.7,1.8c-0.3,0.8-0.7,1.6-1.2,2.2
		c-0.3,0.5-0.6,0.9-0.9,1.2c-0.1,0.1-0.1,0.2-0.2,0.2c-0.4,0.4-0.7,0.6-1,0.7C-601.7,379.6-602.3,379.4-602.9,378.9z M-595.7,373.2
		h0.5c0.2,0.6,0.4,1.2,0.7,1.8h-1.9C-596.1,374.4-595.9,373.8-595.7,373.2z M-597.5,377.2h4c0.4,0.7,0.7,1.3,1.2,1.8l-6.3-0.1
		C-598.2,378.5-597.8,377.9-597.5,377.2z M-593.1,383.1h-5.2c-0.4-0.5-0.7-1.1-1-1.8l7.4,0.1C-592.3,382-592.7,382.6-593.1,383.1z
		 M-592.9,369.7c0.1,0.2,0.2,0.4,0.3,0.6c-1-0.5-1.8-0.8-2.4-1c-0.1-0.1-0.2-0.1-0.4-0.1c-0.1,0-0.3,0-0.4,0.1
		c-0.6,0.2-1.4,0.5-2.2,0.9v-0.1l0.1-0.1c0.3-0.5,0.7-1.4,1.3-2c0.4-0.4,0.8-0.6,1.2-0.6C-594.4,367.4-593.6,368.2-592.9,369.7z"/>
	<g>
		<path class="st7" d="M-600.3,516.2h-14.2c-1.5,0-2.8,0.8-3.5,2.1l-7.2,13c-0.7,1.2-0.7,2.7,0,3.9l7.1,12.8c0.7,1.3,2,2.1,3.5,2.1
			h14.4c1.5,0,2.8-0.8,3.5-2.1l7.1-12.8c0.7-1.2,0.7-2.7,0-3.9l-7.2-13C-597.5,516.9-598.8,516.2-600.3,516.2z"/>
		<g>
			<g>
				<path class="st8" d="M-610.8,522.9l-1,1c-0.3,0.4-0.5,0.8-0.5,1.3s0.2,0.9,0.5,1.2l6.7,6.7l-6.7,6.7c-0.3,0.3-0.5,0.8-0.5,1.2
					c0,0.5,0.2,0.9,0.5,1.3l1,1c0.4,0.4,0.8,0.5,1.3,0.5s0.9-0.2,1.2-0.5l9-9c0.4-0.3,0.5-0.7,0.5-1.2s-0.2-0.9-0.5-1.3l-9-9
					c-0.3-0.3-0.8-0.5-1.2-0.5C-610.1,522.4-610.5,522.5-610.8,522.9L-610.8,522.9z"/>
			</g>
		</g>
	</g>
</g>
</svg>
