<?xml version="1.0" encoding="utf-8"?>
<!-- Generator: Adobe Illustrator 15.0.0, SVG Export Plug-In  -->
<!DOCTYPE svg PUBLIC "-//W3C//DTD SVG 1.1//EN" "http://www.w3.org/Graphics/SVG/1.1/DTD/svg11.dtd" [
	<!ENTITY ns_flows "http://ns.adobe.com/Flows/1.0/">
]>
<svg version="1.1"
	 xmlns="http://www.w3.org/2000/svg" xmlns:xlink="http://www.w3.org/1999/xlink" xmlns:a="http://ns.adobe.com/AdobeSVGViewerExtensions/3.0/"
	 x="0px" y="0px" width="232px" height="208px" viewBox="-0.647 -0.807 232 208" enable-background="new -0.647 -0.807 232 208"
	 xml:space="preserve">
<defs>
</defs>
<polygon fill="#EAB91F" points="173.508,0 57.811,0 35.568,40.021 195.751,40.021 "/>
<polygon fill="#ECEEEE" points="195.751,40.021 35.568,40.021 0,104.017 56.954,206.555 174.365,206.555 231.319,104.017 "/>
<path fill="#ECEEEE" d="M105.879,8.516c-1.332-0.027-2.941,1.056-3.492,2.755c-0.126-0.016-0.249-0.024-0.366-0.025
	c-0.125-0.001-0.248,0.009-0.369,0.024c-0.544-1.713-2.263-2.825-3.717-2.82c-1.282,0.004-2.205,0.838-2.407,2.175
	c-0.055,0.367,0.197,0.711,0.565,0.767s0.71-0.197,0.766-0.564c0.104-0.692,0.458-1.029,1.081-1.031
	c0.948-0.003,2.119,0.82,2.443,1.961c-0.187,0.125-0.368,0.272-0.543,0.445c-0.768,0.755-1.251,1.794-1.539,2.415l-0.061,0.131
	c-0.262,0.558-0.499,1.106-0.711,1.646c-1.249,0.718-2.501,1.578-3.457,2.519c-1.218,1.197-1.819,2.385-1.787,3.528
	c0.027,0.966,0.5,1.859,1.405,2.655c0.911,0.8,1.881,1.067,2.839,0.806c0.086,0.31,0.182,0.615,0.296,0.912
	c1.411,3.654,4.46,4.959,4.59,5.014l0.248,0.104l0.251-0.096c0.057-0.022,1.413-0.55,2.795-1.91c0.976-0.959,1.906-2.26,2.462-3.984
	c0.017,0.006,0.033,0.015,0.051,0.021c0.69,0.228,1.764,0.287,2.958-0.728c0.107-0.092,0.209-0.185,0.303-0.277
	c0.978-0.961,1.341-2.096,1.052-3.281c-0.481-1.975-2.72-3.8-4.936-5.136c-0.239-0.695-0.521-1.418-0.851-2.172
	c-0.621-1.415-1.363-2.214-2.086-2.649c0.348-1.125,1.374-1.871,2.19-1.855c0.522,0.011,0.834,0.363,0.925,1.048
	c0.05,0.368,0.389,0.626,0.757,0.577c0.15-0.021,0.282-0.088,0.382-0.187c0.146-0.144,0.225-0.352,0.196-0.57
	C107.896,9.126,106.817,8.534,105.879,8.516z M110.228,21.992c0.198,0.811-0.097,1.517-0.919,2.214
	c-0.778,0.661-1.323,0.588-1.666,0.476c-0.047-0.016-0.094-0.045-0.141-0.064c-0.425-0.181-0.837-0.53-1.23-1.003
	c-0.271-0.326-0.535-0.703-0.786-1.126c-0.402-0.676-0.775-1.451-1.113-2.252c-0.251-0.596-0.482-1.205-0.691-1.8
	c-0.281-0.804-0.521-1.578-0.71-2.249l0.051,0.001c1.234,0.534,2.801,1.372,4.166,2.345C108.69,19.602,109.944,20.83,110.228,21.992
	z M94.578,24.083c-0.622-0.547-0.932-1.097-0.949-1.682c-0.021-0.755,0.445-1.606,1.386-2.531c0.522-0.514,1.15-1.006,1.82-1.461
	c1.4-0.953,2.984-1.745,4.171-2.237h0.036c-0.184,0.609-0.436,1.393-0.747,2.237c-0.212,0.579-0.453,1.187-0.719,1.788
	c-0.345,0.784-0.735,1.554-1.158,2.232c-0.286,0.459-0.588,0.874-0.905,1.223c-0.071,0.079-0.144,0.161-0.216,0.232
	c-0.367,0.36-0.71,0.594-1.046,0.7C95.695,24.763,95.16,24.594,94.578,24.083z M101.725,18.421l0.523,0.004
	c0.19,0.572,0.411,1.183,0.658,1.8l-1.87-0.016C101.293,19.596,101.524,18.988,101.725,18.421z M99.968,22.442l3.976,0.034
	c0.352,0.655,0.735,1.272,1.151,1.804l-6.3-0.053C99.214,23.706,99.606,23.097,99.968,22.442z M104.364,28.312l-5.201-0.044
	c-0.381-0.504-0.738-1.103-1.024-1.803l7.35,0.062C105.169,27.214,104.782,27.806,104.364,28.312z M104.516,14.906
	c0.094,0.214,0.183,0.425,0.268,0.633c-0.977-0.489-1.836-0.848-2.391-1.038c-0.112-0.066-0.239-0.1-0.369-0.095
	c-0.13-0.007-0.258,0.025-0.371,0.09c-0.569,0.182-1.354,0.493-2.235,0.909c0.014-0.029,0.026-0.059,0.04-0.088l0.063-0.135
	c0.25-0.538,0.668-1.438,1.263-2.023c0.393-0.386,0.793-0.571,1.226-0.568C103.002,12.6,103.846,13.378,104.516,14.906z"/>
<path fill="#ECEEEE" d="M131.439,8.516c-1.332-0.027-2.942,1.056-3.492,2.755c-0.127-0.016-0.25-0.024-0.367-0.025
	c-0.125-0.001-0.248,0.009-0.369,0.024c-0.544-1.713-2.263-2.825-3.717-2.82c-1.282,0.004-2.204,0.838-2.407,2.175
	c-0.055,0.367,0.198,0.711,0.565,0.767c0.368,0.056,0.71-0.197,0.767-0.564c0.104-0.692,0.458-1.029,1.081-1.031
	c0.948-0.003,2.12,0.82,2.444,1.961c-0.187,0.125-0.369,0.272-0.544,0.445c-0.768,0.755-1.251,1.794-1.539,2.415l-0.061,0.131
	c-0.262,0.558-0.498,1.106-0.711,1.646c-1.249,0.718-2.501,1.578-3.457,2.519c-1.218,1.197-1.819,2.385-1.787,3.528
	c0.027,0.966,0.5,1.859,1.405,2.655c0.911,0.8,1.881,1.067,2.839,0.806c0.086,0.31,0.182,0.615,0.297,0.912
	c1.411,3.654,4.46,4.959,4.589,5.014l0.248,0.104l0.251-0.096c0.057-0.022,1.413-0.55,2.795-1.91
	c0.976-0.959,1.906-2.26,2.462-3.984c0.017,0.006,0.033,0.015,0.051,0.021c0.69,0.228,1.764,0.287,2.958-0.728
	c0.108-0.092,0.209-0.185,0.303-0.277c0.978-0.961,1.341-2.096,1.052-3.281c-0.481-1.975-2.72-3.8-4.936-5.136
	c-0.239-0.695-0.521-1.418-0.851-2.172c-0.621-1.415-1.363-2.214-2.086-2.649c0.348-1.125,1.374-1.871,2.19-1.855
	c0.522,0.011,0.834,0.363,0.926,1.048c0.049,0.368,0.389,0.626,0.756,0.577c0.15-0.021,0.282-0.088,0.382-0.187
	c0.146-0.144,0.225-0.352,0.195-0.57C133.457,9.126,132.378,8.534,131.439,8.516z M135.788,21.992
	c0.198,0.811-0.097,1.517-0.919,2.214c-0.778,0.661-1.323,0.588-1.666,0.476c-0.047-0.016-0.093-0.045-0.141-0.064
	c-0.425-0.181-0.837-0.53-1.23-1.003c-0.271-0.326-0.535-0.703-0.786-1.126c-0.402-0.676-0.775-1.451-1.112-2.252
	c-0.251-0.596-0.483-1.205-0.691-1.8c-0.282-0.804-0.522-1.578-0.711-2.249l0.051,0.001c1.234,0.534,2.801,1.372,4.166,2.345
	C134.25,19.602,135.505,20.83,135.788,21.992z M120.138,24.083c-0.622-0.547-0.932-1.097-0.948-1.682
	c-0.021-0.755,0.445-1.606,1.385-2.531c0.522-0.514,1.15-1.006,1.82-1.461c1.401-0.953,2.984-1.745,4.172-2.237h0.035
	c-0.184,0.609-0.436,1.393-0.746,2.237c-0.213,0.579-0.454,1.187-0.719,1.788c-0.346,0.784-0.735,1.554-1.158,2.232
	c-0.286,0.459-0.588,0.874-0.905,1.223c-0.071,0.079-0.143,0.161-0.216,0.232c-0.367,0.36-0.71,0.594-1.045,0.7
	C121.255,24.763,120.72,24.594,120.138,24.083z M127.285,18.421l0.523,0.004c0.19,0.572,0.411,1.183,0.658,1.8l-1.87-0.016
	C126.853,19.596,127.084,18.988,127.285,18.421z M125.528,22.442l3.976,0.034c0.352,0.655,0.735,1.272,1.152,1.804l-6.301-0.053
	C124.775,23.706,125.167,23.097,125.528,22.442z M129.924,28.312l-5.2-0.044c-0.382-0.504-0.738-1.103-1.024-1.803l7.35,0.062
	C130.729,27.214,130.342,27.806,129.924,28.312z M130.076,14.906c0.094,0.214,0.183,0.425,0.268,0.633
	c-0.976-0.489-1.836-0.848-2.391-1.038c-0.112-0.066-0.239-0.1-0.369-0.095c-0.13-0.007-0.258,0.025-0.371,0.09
	c-0.569,0.182-1.354,0.493-2.235,0.909c0.014-0.029,0.026-0.059,0.04-0.088l0.063-0.135c0.25-0.538,0.668-1.438,1.263-2.023
	c0.393-0.386,0.793-0.571,1.226-0.568C128.563,12.6,129.406,13.378,130.076,14.906z"/>
</svg>
