<?xml version="1.0" encoding="utf-8"?>
<!-- Generator: Adobe Illustrator 19.1.0, SVG Export Plug-In . SVG Version: 6.00 Build 0)  -->
<svg version="1.1" id="Layer_1" xmlns="http://www.w3.org/2000/svg" xmlns:xlink="http://www.w3.org/1999/xlink" x="0px" y="0px"
	 viewBox="0 0 54.4 50" style="enable-background:new 0 0 54.4 50;" xml:space="preserve">
<style type="text/css">
	.st0{fill:#ECBA1D;}
	.st1{fill:#FFFFFF;}
</style>
<path class="st0" d="M53.6,22L43.3,3.6C42.1,1.4,39.8,0,37.2,0h-20c-2.5,0-4.9,1.4-6.1,3.6L0.9,22c-1.2,2.1-1.2,4.7,0,6.8l10,17.8
	c1.2,2.2,3.6,3.4,6.1,3.4h20.4c2.5,0,4.9-1.2,6.1-3.4l10-17.9C54.7,26.6,54.7,24.1,53.6,22z"/>
<path class="st1" d="M39.9,25.6L21.3,36.4c-0.7,0.4-1.5-0.1-1.5-0.9V14c0-0.8,0.8-1.3,1.5-0.9l18.7,10.8
	C40.6,24.3,40.6,25.2,39.9,25.6z"/>
</svg>
