<?xml version="1.0" encoding="utf-8"?>
<!-- Generator: Adobe Illustrator 19.1.0, SVG Export Plug-In . SVG Version: 6.00 Build 0)  -->
<svg version="1.1" id="Layer_1" xmlns="http://www.w3.org/2000/svg" xmlns:xlink="http://www.w3.org/1999/xlink" x="0px" y="0px"
	 viewBox="0 0 54.4 50.4" style="enable-background:new 0 0 54.4 50.4;" xml:space="preserve">
<style type="text/css">
	.st0{fill:#EDEFEF;}
</style>
<g>
	<path class="st0" d="M37.2,4c1.1,0,2.1,0.6,2.6,1.5l10.2,18.4c0.5,0.9,0.5,2,0,2.9l-10,18c-0.5,1-1.5,1.5-2.6,1.5H17
		c-1.1,0-2.1-0.6-2.6-1.5l-10-18c-0.5-0.9-0.5-2,0-2.9L14.6,5.5c0.5-1,1.5-1.5,2.6-1.5H37.2 M37.2,0h-20c-2.5,0-4.9,1.4-6.1,3.6
		L0.9,22c-1.2,2.1-1.2,4.7,0,6.8l10,18c1.2,2.2,3.6,3.6,6.1,3.6h20.4c2.5,0,4.9-1.4,6.1-3.6l10-18c1.2-2.1,1.2-4.7,0-6.8L43.3,3.6
		C42.1,1.4,39.8,0,37.2,0L37.2,0z"/>
	<g>
		<path class="st0" d="M16.2,30.2v6h6l12.1-12.1l-6-6L16.2,30.2z M21.5,34.3h-1.6v-1.9h-1.9v-1.6l1.3-1.3l3.4,3.4L21.5,34.3z
			 M28.8,20.6c0.2,0,0.3,0.1,0.3,0.3c0,0.1,0,0.2-0.1,0.2L21.1,29c-0.1,0.1-0.1,0.1-0.2,0.1c-0.2,0-0.3-0.1-0.3-0.3
			c0-0.1,0-0.2,0.1-0.2l7.9-7.9C28.6,20.6,28.7,20.6,28.8,20.6L28.8,20.6z M28.8,20.6"/>
		<path class="st0" d="M37.7,18.2l-3.4-3.4c-0.4-0.4-0.8-0.6-1.3-0.6c-0.5,0-1,0.2-1.3,0.6l-2.4,2.4l6,6l2.4-2.4
			c0.4-0.4,0.5-0.8,0.5-1.3C38.2,19,38,18.5,37.7,18.2L37.7,18.2z M37.7,18.2"/>
	</g>
</g>
</svg>
