<?xml version="1.0" encoding="utf-8"?>
<!-- Generator: Adobe Illustrator 19.1.0, SVG Export Plug-In . SVG Version: 6.00 Build 0)  -->
<svg version="1.1" id="Layer_1" xmlns="http://www.w3.org/2000/svg" xmlns:xlink="http://www.w3.org/1999/xlink" x="0px" y="0px"
	 viewBox="0 0 54.4 50" style="enable-background:new 0 0 54.4 50;" xml:space="preserve">
<style type="text/css">
	.st0{fill:#ECBA1D;}
	.st1{fill:#FFFFFF;}
</style>
<path class="st0" d="M53.6,22.6L43.3,3.9C42.1,1.7,39.8,0,37.2,0h-20c-2.5,0-4.9,1.7-6.1,3.9L0.9,22.4c-1.2,2.1-1.2,4.8,0,6.9
	l10,17.6c1.2,2.2,3.6,3.1,6.1,3.1h20.4c2.5,0,4.9-0.9,6.1-3.1l10-17.8C54.7,27,54.7,24.7,53.6,22.6z"/>
<g>
	<path class="st1" d="M16.2,30.2v6h6l12.1-12.1l-6-6L16.2,30.2z M21.5,34.3h-1.6v-1.9h-1.9v-1.6l1.3-1.3l3.4,3.4L21.5,34.3z
		 M28.8,20.6c0.2,0,0.3,0.1,0.3,0.3c0,0.1,0,0.2-0.1,0.2L21.1,29c-0.1,0.1-0.1,0.1-0.2,0.1c-0.2,0-0.3-0.1-0.3-0.3
		c0-0.1,0-0.2,0.1-0.2l7.9-7.9C28.6,20.6,28.7,20.6,28.8,20.6L28.8,20.6z M28.8,20.6"/>
	<path class="st1" d="M37.7,18.2l-3.4-3.4c-0.4-0.4-0.8-0.6-1.3-0.6c-0.5,0-1,0.2-1.3,0.6l-2.4,2.4l6,6l2.4-2.4
		c0.4-0.4,0.5-0.8,0.5-1.3C38.2,19,38,18.5,37.7,18.2L37.7,18.2z M37.7,18.2"/>
</g>
</svg>
