<?xml version="1.0" encoding="utf-8"?>
<!-- Generator: Adobe Illustrator 19.1.0, SVG Export Plug-In . SVG Version: 6.00 Build 0)  -->
<svg version="1.1" id="Layer_1" xmlns="http://www.w3.org/2000/svg" xmlns:xlink="http://www.w3.org/1999/xlink" x="0px" y="0px"
	 viewBox="0 0 26.1 24.4" style="enable-background:new 0 0 26.1 24.4;" xml:space="preserve">
<style type="text/css">
	.st0{fill:#39A6E2;}
</style>
<g>
	<path class="st0" d="M17.4,24.4H8.7c-1.6,0-3.1-0.9-3.9-2.3l-4.3-7.7c-0.8-1.4-0.8-3,0-4.3l4.4-7.8C5.7,0.9,7.2,0,8.8,0h8.5
		c1.6,0,3.1,0.9,3.9,2.3l4.4,7.8c0.8,1.4,0.8,3,0,4.3l-4.3,7.7C20.5,23.5,19,24.4,17.4,24.4z M8.8,2.4c-0.7,0-1.4,0.4-1.8,1
		l-4.4,7.8c-0.3,0.6-0.3,1.3,0,2l4.3,7.7c0.4,0.6,1,1,1.8,1h8.7c0.7,0,1.4-0.4,1.8-1l4.3-7.7c0.3-0.6,0.3-1.3,0-2l-4.4-7.8
		c-0.4-0.6-1-1-1.8-1H8.8z"/>
	<g>
		<g>
			<g>
				<path class="st0" d="M11,5.9l-0.6,0.6c-0.2,0.2-0.3,0.4-0.3,0.7c0,0.3,0.1,0.5,0.3,0.7l3.9,3.9l-3.9,3.9
					c-0.2,0.2-0.3,0.4-0.3,0.7c0,0.3,0.1,0.5,0.3,0.7l0.6,0.6c0.2,0.2,0.4,0.3,0.7,0.3c0.3,0,0.5-0.1,0.7-0.3l5.2-5.2
					c0.2-0.2,0.3-0.4,0.3-0.7c0-0.3-0.1-0.5-0.3-0.7l-5.2-5.2c-0.2-0.2-0.4-0.3-0.7-0.3C11.4,5.6,11.2,5.7,11,5.9L11,5.9z M11,5.9"
					/>
			</g>
		</g>
	</g>
</g>
</svg>
