<?xml version="1.0" encoding="utf-8"?>
<!-- Generator: Adobe Illustrator 19.1.0, SVG Export Plug-In . SVG Version: 6.00 Build 0)  -->
<svg version="1.1" id="Layer_1" xmlns="http://www.w3.org/2000/svg" xmlns:xlink="http://www.w3.org/1999/xlink" x="0px" y="0px"
	 viewBox="0 0 150.1 76" style="enable-background:new 0 0 150.1 76;" xml:space="preserve">
<style type="text/css">
	.st0{fill:#EDEFEF;}
</style>
<g>
	<g>
		<path class="st0" d="M82,26.5H96c2.3,0,4.2,0.6,5.4,1.7c1.3,1.2,1.9,2.6,1.9,4.3c0,1.4-0.4,2.7-1.3,3.7c-0.6,0.7-1.5,1.2-2.6,1.6
			c1.8,0.4,3,1.1,3.9,2.2c0.8,1,1.2,2.3,1.2,3.9c0,1.3-0.3,2.4-0.9,3.4c-0.6,1-1.4,1.8-2.4,2.4c-0.6,0.4-1.6,0.6-2.9,0.8
			c-1.7,0.2-2.8,0.3-3.4,0.3H82V26.5z M89.6,36h3.3c1.2,0,2-0.2,2.5-0.6c0.5-0.4,0.7-1,0.7-1.8c0-0.7-0.2-1.3-0.7-1.7
			c-0.5-0.4-1.3-0.6-2.4-0.6h-3.3V36z M89.6,45.6h3.8c1.3,0,2.2-0.2,2.7-0.7s0.8-1.1,0.8-1.9c0-0.7-0.3-1.3-0.8-1.7
			c-0.5-0.4-1.4-0.7-2.8-0.7h-3.8V45.6z"/>
		<path class="st0" d="M127.6,43.7H114c0.1,1.1,0.4,1.9,0.9,2.4c0.7,0.8,1.5,1.1,2.6,1.1c0.7,0,1.3-0.2,1.9-0.5
			c0.4-0.2,0.8-0.6,1.2-1.1l6.7,0.6c-1,1.8-2.2,3-3.7,3.8c-1.4,0.8-3.5,1.2-6.2,1.2c-2.3,0-4.2-0.3-5.5-1c-1.3-0.7-2.5-1.7-3.3-3.1
			c-0.9-1.4-1.3-3.1-1.3-5.1c0-2.8,0.9-5,2.7-6.7c1.8-1.7,4.2-2.6,7.3-2.6c2.5,0,4.5,0.4,6,1.1c1.5,0.8,2.6,1.9,3.3,3.3
			c0.8,1.5,1.1,3.3,1.1,5.7V43.7z M112.2,26.8h10.8v3.6h-10.8V26.8z M120.7,40.5c-0.1-1.3-0.5-2.2-1.1-2.8s-1.3-0.8-2.3-0.8
			c-1.1,0-1.9,0.4-2.6,1.3c-0.4,0.5-0.7,1.3-0.8,2.4H120.7z"/>
		<path class="st0" d="M129.8,42.1c0-2.7,0.9-4.9,2.7-6.7c1.8-1.7,4.3-2.6,7.4-2.6c3.5,0,6.2,1,8,3.1c1.5,1.7,2.2,3.7,2.2,6.1
			c0,2.7-0.9,4.9-2.7,6.7s-4.3,2.6-7.5,2.6c-2.8,0-5.1-0.7-6.9-2.2C130.9,47.3,129.8,45,129.8,42.1z M136.6,42.1
			c0,1.6,0.3,2.7,1,3.5c0.6,0.8,1.4,1.1,2.4,1.1c1,0,1.8-0.4,2.4-1.1s0.9-1.9,0.9-3.6c0-1.5-0.3-2.7-0.9-3.4
			c-0.6-0.7-1.4-1.1-2.3-1.1c-1,0-1.8,0.4-2.4,1.1S136.6,40.5,136.6,42.1z"/>
	</g>
	<polygon class="st0" points="31.2,22 10.4,22 0,38.5 10.4,55 31.2,55 41.6,38.5 	"/>
	<polygon class="st0" points="44.9,41 34.6,58.4 45,76 65.8,76 76.2,58.4 65.9,41 	"/>
	<polygon class="st0" points="65.8,0 45,0 34.6,18.1 44.9,36 65.9,36 76.2,18.1 	"/>
</g>
</svg>
