<?xml version="1.0" encoding="utf-8"?>
<!-- Generator: Adobe Illustrator 19.1.0, SVG Export Plug-In . SVG Version: 6.00 Build 0)  -->
<svg version="1.1" id="Layer_1" xmlns="http://www.w3.org/2000/svg" xmlns:xlink="http://www.w3.org/1999/xlink" x="0px" y="0px"
	 viewBox="0 0 318.4 165" style="enable-background:new 0 0 318.4 165;" xml:space="preserve">
<style type="text/css">
	.st0{fill:#3F4040;}
	.st1{fill:#ECBA1D;}
	.st2{fill:#EED91B;}
	.st3{fill:#E77824;}
</style>
<g>
	<g>
		<path class="st0" d="M173.8,57.8h29.9c5,0,8.8,1.2,11.5,3.7c2.7,2.5,4,5.5,4,9.2c0,3.1-1,5.7-2.9,7.9c-1.3,1.5-3.1,2.6-5.6,3.5
			c3.7,0.9,6.4,2.4,8.2,4.6c1.8,2.2,2.6,4.9,2.6,8.2c0,2.7-0.6,5.1-1.9,7.2c-1.2,2.1-2.9,3.8-5.1,5.1c-1.3,0.8-3.4,1.3-6.1,1.7
			c-3.6,0.5-6,0.7-7.2,0.7h-27.6V57.8z M189.9,78.1h6.9c2.5,0,4.2-0.4,5.2-1.3c1-0.9,1.5-2.1,1.5-3.7c0-1.5-0.5-2.7-1.5-3.5
			c-1-0.8-2.7-1.3-5.1-1.3h-7.1V78.1z M189.9,98.4h8.1c2.8,0,4.7-0.5,5.8-1.5c1.1-1,1.7-2.3,1.7-3.9c0-1.5-0.6-2.8-1.7-3.7
			c-1.1-0.9-3.1-1.4-5.9-1.4h-8.1V98.4z"/>
		<path class="st0" d="M270.6,94.3h-28.8c0.3,2.3,0.9,4,1.9,5.1c1.4,1.6,3.2,2.4,5.4,2.4c1.4,0,2.8-0.4,4-1.1
			c0.8-0.4,1.6-1.2,2.5-2.4l14.1,1.3c-2.2,3.8-4.8,6.5-7.8,8.1c-3.1,1.6-7.4,2.5-13.1,2.5c-5,0-8.9-0.7-11.7-2.1s-5.2-3.6-7.1-6.7
			c-1.9-3-2.8-6.6-2.8-10.7c0-5.9,1.9-10.6,5.6-14.2c3.7-3.6,8.9-5.4,15.5-5.4c5.4,0,9.6,0.8,12.7,2.4c3.1,1.6,5.5,4,7.1,7.1
			c1.6,3.1,2.4,7.1,2.4,12V94.3z M238,58.5h22.8v7.6H238V58.5z M256,87.5c-0.3-2.8-1-4.8-2.2-6c-1.2-1.2-2.8-1.8-4.8-1.8
			c-2.3,0-4.1,0.9-5.5,2.7c-0.9,1.1-1.4,2.8-1.7,5H256z"/>
		<path class="st0" d="M275.4,90.9c0-5.7,1.9-10.4,5.8-14.1c3.9-3.7,9.1-5.6,15.6-5.6c7.5,0,13.2,2.2,17,6.5
			c3.1,3.5,4.6,7.8,4.6,12.9c0,5.8-1.9,10.5-5.7,14.2s-9.1,5.5-15.8,5.5c-6,0-10.9-1.5-14.6-4.6C277.7,102,275.4,97,275.4,90.9z
			 M289.8,90.8c0,3.3,0.7,5.8,2,7.4s3,2.4,5.1,2.4c2.1,0,3.8-0.8,5.1-2.4c1.3-1.6,2-4.1,2-7.6c0-3.2-0.7-5.7-2-7.2s-3-2.4-5-2.4
			c-2.1,0-3.8,0.8-5.2,2.4S289.8,87.6,289.8,90.8z"/>
	</g>
	<polygon class="st1" points="66.1,47 22,47 0,83.5 22,120 66.1,120 88.1,83.5 	"/>
	<polygon class="st2" points="95.1,87 73.4,125.7 95.5,165 139.5,165 161.6,125.7 139.9,87 	"/>
	<polygon class="st3" points="139.5,0 95.5,0 73.4,39.3 95.1,78 139.9,78 161.6,39.3 	"/>
</g>
</svg>
