<?xml version="1.0" encoding="utf-8"?>
<!-- Generator: Adobe Illustrator 19.1.0, SVG Export Plug-In . SVG Version: 6.00 Build 0)  -->
<svg version="1.1" id="Layer_1" xmlns="http://www.w3.org/2000/svg" xmlns:xlink="http://www.w3.org/1999/xlink" x="0px" y="0px"
	 viewBox="0 0 45.8 47.3" style="enable-background:new 0 0 45.8 47.3;" xml:space="preserve">
<style type="text/css">
	.st0{fill:none;stroke:#E67824;stroke-width:3;stroke-miterlimit:10;}
	.st1{clip-path:url(#SVGID_4_);}
	.st2{fill:#3F4040;}
</style>
<g>
	<g>
		<path id="SVGID_1_" class="st0" d="M32.4,6.1H14.5c-0.7,0-1.4,0.4-1.8,1l-9,16.3c-0.3,0.6-0.3,1.3,0,1.9l8.9,16.1
			c0.4,0.6,1,1,1.8,1h18.2c0.7,0,1.4-0.4,1.8-1l8.9-16.1c0.3-0.6,0.3-1.3,0-1.9l-9-16.3C33.8,6.5,33.1,6.1,32.4,6.1z"/>
	</g>
</g>
<g>
	<g>
		<defs>
			<path id="SVGID_2_" d="M32,6.6H14.1c-0.7,0-1.4,0.4-1.8,1l-9,16.3c-0.3,0.6-0.3,1.3,0,1.9l8.9,16.1c0.4,0.6,1,1,1.8,1h18.2
				c0.7,0,1.4-0.4,1.8-1l8.9-16.1c0.3-0.6,0.3-1.3,0-1.9l-9-16.3C33.4,7,32.7,6.6,32,6.6z"/>
		</defs>
		<clipPath id="SVGID_4_">
			<use xlink:href="#SVGID_2_"  style="overflow:visible;"/>
		</clipPath>
		<g class="st1">
			<path class="st2" d="M45.8,26.1C45.8,11.7,35.5,0,23,0S0,11.7,0,26.1c0,8.7,3,16.4,9,21.2v-6.5c0-5.9,4.1-10.8,9.1-11.3
				c-3.3-1.9-5.4-5.8-5.4-10.3c0-6.4,4.5-11.5,10-11.5c5.5,0,10,5.2,10,11.5c0,4.5-1.8,8.4-5.1,10.3c5,0.6,9.3,5.4,9.3,11.3v6.5
				C44,42.5,45.8,34.8,45.8,26.1z"/>
		</g>
	</g>
	<g>
		<path id="SVGID_3_" class="st0" d="M32,6.6H14.1c-0.7,0-1.4,0.4-1.8,1l-9,16.3c-0.3,0.6-0.3,1.3,0,1.9l8.9,16.1c0.4,0.6,1,1,1.8,1
			h18.2c0.7,0,1.4-0.4,1.8-1l8.9-16.1c0.3-0.6,0.3-1.3,0-1.9l-9-16.3C33.4,7,32.7,6.6,32,6.6z"/>
	</g>
</g>
</svg>
