<?xml version="1.0" encoding="utf-8"?>
<!-- Generator: Adobe Illustrator 19.1.0, SVG Export Plug-In . SVG Version: 6.00 Build 0)  -->
<svg version="1.1" id="Layer_1" xmlns="http://www.w3.org/2000/svg" xmlns:xlink="http://www.w3.org/1999/xlink" x="0px" y="0px"
	 viewBox="0 0 18.4 21.5" style="enable-background:new 0 0 18.4 21.5;" xml:space="preserve">
<style type="text/css">
	.st0{fill:#E67824;}
</style>
<g id="duqBCz.tif_2_">
	<g>
		<path class="st0" d="M9.8,1.6c0,0,0.1,0,0.1,0c1,0.1,1.9,0.5,2.6,1.1c1.2,1,1.9,2.3,2,3.9c0,0.8,0,1.6,0,2.4c0,0.1,0,0.1,0,0.2
			c0.2,0,0.3,0,0.5,0c0.1,0,0.2,0,0.3,0c0.3,0,0.5,0.1,0.7,0.2c0.6,0.3,0.8,0.8,0.8,1.4c0,2.4,0,4.9,0,7.3c0,0.1,0,0.2,0,0.2
			c-0.1,0.6-0.4,1-0.9,1.3c-0.1,0.1-0.2,0.1-0.3,0.1c-4.2,0-8.4,0-12.7,0c-0.2-0.1-0.4-0.2-0.6-0.3c-0.4-0.2-0.5-0.6-0.6-1
			c0-2.7,0-5.4,0-8.1c0.1-0.2,0.1-0.4,0.3-0.6c0.3-0.4,0.7-0.7,1.2-0.7c0.1,0,0.2,0,0.3,0c0.2,0,0.3,0,0.5,0c0-0.7,0-1.5,0-2.2
			c0-0.3,0-0.6,0-0.9c0.3-2.2,1.9-3.9,4-4.4c0.2-0.1,0.5-0.1,0.7-0.1C9,1.6,9.4,1.6,9.8,1.6 M6.2,9.2c2,0,4,0,6,0c0,0,0-0.1,0-0.1
			c0-0.8,0-1.5,0-2.3c0-1.5-1.3-2.8-2.8-2.9c-0.1,0-0.1,0-0.2,0c-1.7,0-3,1.3-3,3c0,0.7,0,1.4,0,2.1C6.2,9.1,6.2,9.1,6.2,9.2 M10,0
			H9.8H8.6H8.5L8.3,0l-0.2,0c-0.2,0-0.4,0.1-0.6,0.1C4.8,0.9,2.7,3.1,2.3,5.9C2.3,6.3,2.3,6.7,2.3,7c0,0.2,0,0.4,0,0.7
			C1.6,7.9,0.9,8.3,0.5,9C0.3,9.3,0.2,9.5,0.2,9.7c0,0,0,0.1,0,0.1L0,10.2v0.3v8.1v0.2L0.1,19c0.2,0.9,0.7,1.5,1.3,2
			c0.2,0.2,0.5,0.3,0.7,0.3c0,0,0.1,0,0.1,0.1l0.3,0.2h0.4h12.7h0.3l0.3-0.1l0.1,0c0.1,0,0.3-0.1,0.4-0.2c1.1-0.5,1.7-1.4,1.8-2.6
			c0-0.1,0-0.3,0-0.4l0-2.2c0-1.7,0-3.4,0-5.1c0-1.3-0.6-2.3-1.6-2.9c-0.2-0.1-0.4-0.2-0.7-0.3c0-0.4,0-0.8,0-1.2
			c-0.1-2-1-3.8-2.6-5c-1-0.8-2.1-1.2-3.3-1.4L10,0L10,0z M7.8,7.6c0-0.2,0-0.4,0-0.6c0-0.8,0.6-1.4,1.4-1.4c0,0,0.1,0,0.1,0
			c0.7,0,1.3,0.6,1.3,1.3c0,0.2,0,0.5,0,0.7H7.8L7.8,7.6z"/>
	</g>
</g>
</svg>
