<?xml version="1.0" encoding="utf-8"?>
<!-- Generator: Adobe Illustrator 19.1.0, SVG Export Plug-In . SVG Version: 6.00 Build 0)  -->
<svg version="1.1" id="Layer_1" xmlns="http://www.w3.org/2000/svg" xmlns:xlink="http://www.w3.org/1999/xlink" x="0px" y="0px"
	 viewBox="0 0 65 65" style="enable-background:new 0 0 65 65;" xml:space="preserve">
<style type="text/css">
	.st0{fill:#EBB91D;}
</style>
<g>
	<g>
		<g>
			<g>
				<path class="st0" d="M0,65l2.2-15.1L50.7,1.4c1.7-1.7,4.8-1.7,6.5,0l6.4,6.4c0.9,0.9,1.4,2,1.4,3.3s-0.5,2.4-1.4,3.3L15.1,62.7
					L0,65z M5.7,51.6l-1.3,9.1l9.1-1.3L61,11.7c0.2-0.2,0.3-0.4,0.3-0.7s-0.1-0.5-0.3-0.7l-6.4-6.4c-0.4-0.4-1-0.4-1.4,0L5.7,51.6z"
					/>
			</g>
			<g>
				
					<rect x="5.2" y="50.7" transform="matrix(-0.7071 -0.7071 0.7071 -0.7071 -15.7756 98.4305)" class="st0" width="14.6" height="3.7"/>
			</g>
			<g>
				
					<rect x="44.5" y="11.4" transform="matrix(-0.7071 -0.7071 0.7071 -0.7071 79.0548 59.1475)" class="st0" width="14.6" height="3.7"/>
			</g>
		</g>
	</g>
	<g>
		<g>
			<g>
				<polygon class="st0" points="49.6,65 32.9,48.3 35.3,45.9 49.6,60.3 60.3,49.6 45.6,35 48,32.6 65,49.6 				"/>
			</g>
			<g>
				<polygon class="st0" points="17.1,32.4 0,15.4 15.4,0 32.3,17 30,19.3 15.4,4.7 4.7,15.4 19.4,30.1 				"/>
			</g>
			<g>
				
					<rect x="17.2" y="7.3" transform="matrix(-0.7071 -0.7071 0.7071 -0.7071 24.7543 31.5179)" class="st0" width="3.3" height="6.7"/>
			</g>
			<g>
				
					<rect x="24.3" y="14.4" transform="matrix(-0.7071 -0.7071 0.7071 -0.7071 31.8414 48.6312)" class="st0" width="3.3" height="6.7"/>
			</g>
			<g>
				
					<rect x="45.6" y="35.6" transform="matrix(-0.7071 -0.7071 0.7071 -0.7071 53.1091 99.9745)" class="st0" width="3.3" height="6.7"/>
			</g>
			<g>
				
					<rect x="52.7" y="42.7" transform="matrix(-0.7071 -0.7071 0.7071 -0.7071 60.1972 117.0899)" class="st0" width="3.3" height="6.7"/>
			</g>
		</g>
	</g>
</g>
</svg>
