<?xml version="1.0" encoding="utf-8"?>
<!-- Generator: Adobe Illustrator 19.1.0, SVG Export Plug-In . SVG Version: 6.00 Build 0)  -->
<svg version="1.1" id="Layer_1" xmlns="http://www.w3.org/2000/svg" xmlns:xlink="http://www.w3.org/1999/xlink" x="0px" y="0px"
	 viewBox="0 0 22 22" style="enable-background:new 0 0 22 22;" xml:space="preserve">
<style type="text/css">
	.st0{fill:#ECEEEE;}
</style>
<g>
	<g>
		<path class="st0" d="M0,15.9v6h6L18.1,9.9l-6-6L0,15.9z M5.3,20.1H3.7v-1.9H1.9v-1.6l1.3-1.3l3.4,3.4L5.3,20.1z M12.5,6.3
			c0.2,0,0.3,0.1,0.3,0.3c0,0.1,0,0.2-0.1,0.2l-7.9,7.9c-0.1,0.1-0.1,0.1-0.2,0.1c-0.2,0-0.3-0.1-0.3-0.3c0-0.1,0-0.2,0.1-0.2
			l7.9-7.9C12.4,6.4,12.4,6.3,12.5,6.3L12.5,6.3z M12.5,6.3"/>
		<path class="st0" d="M21.4,3.9L18,0.6C17.7,0.2,17.2,0,16.7,0c-0.5,0-1,0.2-1.3,0.6L13,2.9l6,6l2.4-2.4C21.8,6.2,22,5.8,22,5.3
			C22,4.8,21.8,4.3,21.4,3.9L21.4,3.9z M21.4,3.9"/>
	</g>
</g>
</svg>
