<?xml version="1.0" encoding="utf-8"?>
<!-- Generator: Adobe Illustrator 19.1.0, SVG Export Plug-In . SVG Version: 6.00 Build 0)  -->
<svg version="1.1" id="Layer_1" xmlns="http://www.w3.org/2000/svg" xmlns:xlink="http://www.w3.org/1999/xlink" x="0px" y="0px"
	 viewBox="0 0 231.3 206.6" style="enable-background:new 0 0 231.3 206.6;" xml:space="preserve">
<style type="text/css">
	.st0{fill:#E67824;}
	.st1{fill:#ECEEEE;}
	.st2{fill:#767676;}
	.st3{font-family:'Univers-Black';}
	.st4{font-size:12px;}
	.st5{fill:none;}
	.st6{fill:#231F20;}
	.st7{font-family:'Serifa-Roman';}
	.st8{font-size:11px;}
	.st9{font-family:'Univers-Condensed';}
	.st10{font-size:11.6521px;}
	.st11{fill:#39A5E1;}
	.st12{fill:#EBEDED;}
</style>
<g>
	<g>
		<polygon class="st0" points="173.5,0 57.8,0 35.6,40 195.8,40 		"/>
		<polygon class="st1" points="195.8,40 35.6,40 0,104 57,206.6 174.4,206.6 231.3,104 		"/>
	</g>
	<path class="st1" d="M92,7.9c-1.3,0-2.9,1.1-3.5,2.8c-0.1,0-0.2,0-0.4,0c-0.1,0-0.2,0-0.4,0c-0.5-1.7-2.3-2.8-3.7-2.8
		c-1.3,0-2.2,0.8-2.4,2.2c-0.1,0.4,0.2,0.7,0.6,0.8c0.4,0.1,0.7-0.2,0.8-0.6c0.1-0.7,0.5-1,1.1-1c0.9,0,2.1,0.8,2.4,2
		c-0.2,0.1-0.4,0.3-0.5,0.4c-0.8,0.8-1.3,1.8-1.5,2.4l-0.1,0.1c-0.3,0.6-0.5,1.1-0.7,1.6c-1.2,0.7-2.5,1.6-3.5,2.5
		c-1.2,1.2-1.8,2.4-1.8,3.5c0,1,0.5,1.9,1.4,2.7c0.9,0.8,1.9,1.1,2.8,0.8c0.1,0.3,0.2,0.6,0.3,0.9c1.4,3.7,4.5,5,4.6,5l0.2,0.1
		l0.3-0.1c0.1,0,1.4-0.5,2.8-1.9c1-1,1.9-2.3,2.5-4c0,0,0,0,0.1,0c0.7,0.2,1.8,0.3,3-0.7c0.1-0.1,0.2-0.2,0.3-0.3
		c1-1,1.3-2.1,1.1-3.3c-0.5-2-2.7-3.8-4.9-5.1c-0.2-0.7-0.5-1.4-0.9-2.2c-0.6-1.4-1.4-2.2-2.1-2.6c0.3-1.1,1.4-1.9,2.2-1.9
		c0.5,0,0.8,0.4,0.9,1c0,0.4,0.4,0.6,0.8,0.6c0.2,0,0.3-0.1,0.4-0.2c0.1-0.1,0.2-0.4,0.2-0.6C94,8.5,92.9,7.9,92,7.9z M96.3,21.3
		c0.2,0.8-0.1,1.5-0.9,2.2c-0.8,0.7-1.3,0.6-1.7,0.5c0,0-0.1,0-0.1-0.1c-0.4-0.2-0.8-0.5-1.2-1c-0.3-0.3-0.5-0.7-0.8-1.1
		c-0.4-0.7-0.8-1.5-1.1-2.3c-0.3-0.6-0.5-1.2-0.7-1.8c-0.3-0.8-0.5-1.6-0.7-2.2l0.1,0c1.2,0.5,2.8,1.4,4.2,2.3
		C94.8,19,96,20.2,96.3,21.3z M80.7,23.4c-0.6-0.5-0.9-1.1-0.9-1.7c0-0.8,0.4-1.6,1.4-2.5c0.5-0.5,1.1-1,1.8-1.5
		c1.4-1,3-1.7,4.2-2.2l0,0c-0.2,0.6-0.4,1.4-0.7,2.2c-0.2,0.6-0.5,1.2-0.7,1.8c-0.3,0.8-0.7,1.6-1.2,2.2c-0.3,0.5-0.6,0.9-0.9,1.2
		c-0.1,0.1-0.1,0.2-0.2,0.2c-0.4,0.4-0.7,0.6-1,0.7C81.8,24.1,81.2,23.9,80.7,23.4z M87.8,17.8l0.5,0c0.2,0.6,0.4,1.2,0.7,1.8
		l-1.9,0C87.4,18.9,87.6,18.3,87.8,17.8z M86.1,21.8l4,0c0.4,0.7,0.7,1.3,1.2,1.8l-6.3-0.1C85.3,23.1,85.7,22.4,86.1,21.8z
		 M90.5,27.7l-5.2,0c-0.4-0.5-0.7-1.1-1-1.8l7.4,0.1C91.3,26.6,90.9,27.2,90.5,27.7z M90.6,14.3c0.1,0.2,0.2,0.4,0.3,0.6
		c-1-0.5-1.8-0.8-2.4-1c-0.1-0.1-0.2-0.1-0.4-0.1c-0.1,0-0.3,0-0.4,0.1c-0.6,0.2-1.4,0.5-2.2,0.9c0,0,0-0.1,0-0.1l0.1-0.1
		c0.3-0.5,0.7-1.4,1.3-2c0.4-0.4,0.8-0.6,1.2-0.6C89.1,11.9,89.9,12.7,90.6,14.3z"/>
	<path class="st1" d="M117.5,7.9c-1.3,0-2.9,1.1-3.5,2.8c-0.1,0-0.2,0-0.4,0c-0.1,0-0.2,0-0.4,0c-0.5-1.7-2.3-2.8-3.7-2.8
		c-1.3,0-2.2,0.8-2.4,2.2c-0.1,0.4,0.2,0.7,0.6,0.8c0.4,0.1,0.7-0.2,0.8-0.6c0.1-0.7,0.5-1,1.1-1c0.9,0,2.1,0.8,2.4,2
		c-0.2,0.1-0.4,0.3-0.5,0.4c-0.8,0.8-1.3,1.8-1.5,2.4l-0.1,0.1c-0.3,0.6-0.5,1.1-0.7,1.6c-1.2,0.7-2.5,1.6-3.5,2.5
		c-1.2,1.2-1.8,2.4-1.8,3.5c0,1,0.5,1.9,1.4,2.7c0.9,0.8,1.9,1.1,2.8,0.8c0.1,0.3,0.2,0.6,0.3,0.9c1.4,3.7,4.5,5,4.6,5l0.2,0.1
		l0.3-0.1c0.1,0,1.4-0.5,2.8-1.9c1-1,1.9-2.3,2.5-4c0,0,0,0,0.1,0c0.7,0.2,1.8,0.3,3-0.7c0.1-0.1,0.2-0.2,0.3-0.3
		c1-1,1.3-2.1,1.1-3.3c-0.5-2-2.7-3.8-4.9-5.1c-0.2-0.7-0.5-1.4-0.9-2.2c-0.6-1.4-1.4-2.2-2.1-2.6c0.3-1.1,1.4-1.9,2.2-1.9
		c0.5,0,0.8,0.4,0.9,1c0,0.4,0.4,0.6,0.8,0.6c0.2,0,0.3-0.1,0.4-0.2c0.1-0.1,0.2-0.4,0.2-0.6C119.5,8.5,118.5,7.9,117.5,7.9z
		 M121.9,21.3c0.2,0.8-0.1,1.5-0.9,2.2c-0.8,0.7-1.3,0.6-1.7,0.5c0,0-0.1,0-0.1-0.1c-0.4-0.2-0.8-0.5-1.2-1
		c-0.3-0.3-0.5-0.7-0.8-1.1c-0.4-0.7-0.8-1.5-1.1-2.3c-0.3-0.6-0.5-1.2-0.7-1.8c-0.3-0.8-0.5-1.6-0.7-2.2l0.1,0
		c1.2,0.5,2.8,1.4,4.2,2.3C120.3,19,121.6,20.2,121.9,21.3z M106.2,23.4c-0.6-0.5-0.9-1.1-0.9-1.7c0-0.8,0.4-1.6,1.4-2.5
		c0.5-0.5,1.1-1,1.8-1.5c1.4-1,3-1.7,4.2-2.2l0,0c-0.2,0.6-0.4,1.4-0.7,2.2c-0.2,0.6-0.5,1.2-0.7,1.8c-0.3,0.8-0.7,1.6-1.2,2.2
		c-0.3,0.5-0.6,0.9-0.9,1.2c-0.1,0.1-0.1,0.2-0.2,0.2c-0.4,0.4-0.7,0.6-1,0.7C107.3,24.1,106.8,23.9,106.2,23.4z M113.4,17.8l0.5,0
		c0.2,0.6,0.4,1.2,0.7,1.8l-1.9,0C112.9,18.9,113.2,18.3,113.4,17.8z M111.6,21.8l4,0c0.4,0.7,0.7,1.3,1.2,1.8l-6.3-0.1
		C110.9,23.1,111.3,22.4,111.6,21.8z M116,27.7l-5.2,0c-0.4-0.5-0.7-1.1-1-1.8l7.4,0.1C116.8,26.6,116.4,27.2,116,27.7z M116.2,14.3
		c0.1,0.2,0.2,0.4,0.3,0.6c-1-0.5-1.8-0.8-2.4-1c-0.1-0.1-0.2-0.1-0.4-0.1c-0.1,0-0.3,0-0.4,0.1c-0.6,0.2-1.4,0.5-2.2,0.9
		c0,0,0-0.1,0-0.1l0.1-0.1c0.3-0.5,0.7-1.4,1.3-2c0.4-0.4,0.8-0.6,1.2-0.6C114.6,11.9,115.5,12.7,116.2,14.3z"/>
	<path class="st1" d="M143.1,7.9c-1.3,0-2.9,1.1-3.5,2.8c-0.1,0-0.2,0-0.4,0c-0.1,0-0.2,0-0.4,0c-0.5-1.7-2.3-2.8-3.7-2.8
		c-1.3,0-2.2,0.8-2.4,2.2c-0.1,0.4,0.2,0.7,0.6,0.8c0.4,0.1,0.7-0.2,0.8-0.6c0.1-0.7,0.5-1,1.1-1c0.9,0,2.1,0.8,2.4,2
		c-0.2,0.1-0.4,0.3-0.5,0.4c-0.8,0.8-1.3,1.8-1.5,2.4l-0.1,0.1c-0.3,0.6-0.5,1.1-0.7,1.6c-1.2,0.7-2.5,1.6-3.5,2.5
		c-1.2,1.2-1.8,2.4-1.8,3.5c0,1,0.5,1.9,1.4,2.7c0.9,0.8,1.9,1.1,2.8,0.8c0.1,0.3,0.2,0.6,0.3,0.9c1.4,3.7,4.5,5,4.6,5l0.2,0.1
		l0.3-0.1c0.1,0,1.4-0.5,2.8-1.9c1-1,1.9-2.3,2.5-4c0,0,0,0,0.1,0c0.7,0.2,1.8,0.3,3-0.7c0.1-0.1,0.2-0.2,0.3-0.3
		c1-1,1.3-2.1,1.1-3.3c-0.5-2-2.7-3.8-4.9-5.1c-0.2-0.7-0.5-1.4-0.9-2.2c-0.6-1.4-1.4-2.2-2.1-2.6c0.3-1.1,1.4-1.9,2.2-1.9
		c0.5,0,0.8,0.4,0.9,1c0,0.4,0.4,0.6,0.8,0.6c0.2,0,0.3-0.1,0.4-0.2c0.1-0.1,0.2-0.4,0.2-0.6C145.1,8.5,144,7.9,143.1,7.9z
		 M147.4,21.3c0.2,0.8-0.1,1.5-0.9,2.2c-0.8,0.7-1.3,0.6-1.7,0.5c0,0-0.1,0-0.1-0.1c-0.4-0.2-0.8-0.5-1.2-1
		c-0.3-0.3-0.5-0.7-0.8-1.1c-0.4-0.7-0.8-1.5-1.1-2.3c-0.3-0.6-0.5-1.2-0.7-1.8c-0.3-0.8-0.5-1.6-0.7-2.2l0.1,0
		c1.2,0.5,2.8,1.4,4.2,2.3C145.9,19,147.2,20.2,147.4,21.3z M131.8,23.4c-0.6-0.5-0.9-1.1-0.9-1.7c0-0.8,0.4-1.6,1.4-2.5
		c0.5-0.5,1.1-1,1.8-1.5c1.4-1,3-1.7,4.2-2.2l0,0c-0.2,0.6-0.4,1.4-0.7,2.2c-0.2,0.6-0.5,1.2-0.7,1.8c-0.3,0.8-0.7,1.6-1.2,2.2
		c-0.3,0.5-0.6,0.9-0.9,1.2c-0.1,0.1-0.1,0.2-0.2,0.2c-0.4,0.4-0.7,0.6-1,0.7C132.9,24.1,132.4,23.9,131.8,23.4z M138.9,17.8l0.5,0
		c0.2,0.6,0.4,1.2,0.7,1.8l-1.9,0C138.5,18.9,138.7,18.3,138.9,17.8z M137.2,21.8l4,0c0.4,0.7,0.7,1.3,1.2,1.8l-6.3-0.1
		C136.4,23.1,136.8,22.4,137.2,21.8z M141.6,27.7l-5.2,0c-0.4-0.5-0.7-1.1-1-1.8l7.4,0.1C142.4,26.6,142,27.2,141.6,27.7z
		 M141.7,14.3c0.1,0.2,0.2,0.4,0.3,0.6c-1-0.5-1.8-0.8-2.4-1c-0.1-0.1-0.2-0.1-0.4-0.1c-0.1,0-0.3,0-0.4,0.1
		c-0.6,0.2-1.4,0.5-2.2,0.9c0,0,0-0.1,0-0.1l0.1-0.1c0.2-0.5,0.7-1.4,1.3-2c0.4-0.4,0.8-0.6,1.2-0.6
		C140.2,11.9,141.1,12.7,141.7,14.3z"/>
	<g>
		<text transform="matrix(1 0 0 1 47.6112 65.382)" class="st2 st3 st4">Mobile Game Design</text>
	</g>
	<g>
		<rect x="23.3" y="78.1" class="st5" width="180.6" height="51.1"/>
		<text transform="matrix(1 0 0 1 31.0777 87.1954)"><tspan x="0" y="0" class="st6 st7 st8">Learn how to design a game for </tspan><tspan x="-5.5" y="13.2" class="st6 st7 st8">mobile devices. Sketch, build, and </tspan><tspan x="5.2" y="26.4" class="st6 st7 st8">animate the entire game from </tspan><tspan x="36.7" y="39.6" class="st6 st7 st8">beginning to end. </tspan></text>
	</g>
	<g>
		<path class="st0" d="M63.1,160.8c-6.4,0-11.6-5.2-11.6-11.6s5.2-11.6,11.6-11.6s11.6,5.2,11.6,11.6S69.5,160.8,63.1,160.8z
			 M63.1,140.1c-5,0-9.1,4.1-9.1,9.1s4.1,9.1,9.1,9.1c5,0,9.1-4.1,9.1-9.1S68.1,140.1,63.1,140.1z"/>
		<g>
			<path class="st0" d="M61.2,144.4c0-1,0.9-1.9,1.9-1.9c1.1,0,1.9,0.8,1.9,1.9c0,1.1-0.8,1.9-1.9,1.9
				C62,146.3,61.2,145.5,61.2,144.4z M61.4,156v-8.9h3.3v8.9H61.4z"/>
		</g>
	</g>
	<text transform="matrix(1 0 0 1 145.52 152.8058)" class="st0 st9 st10">2 hours</text>
	<g>
		<path class="st11" d="M122.7,161.9h-14.2c-1.5,0-2.8,0.8-3.5,2.1l-7.2,13c-0.7,1.2-0.7,2.7,0,3.9l7.1,12.8c0.7,1.3,2,2.1,3.5,2.1
			h14.4c1.5,0,2.8-0.8,3.5-2.1l7.1-12.8c0.7-1.2,0.7-2.7,0-3.9l-7.2-13C125.5,162.7,124.2,161.9,122.7,161.9z"/>
		<g>
			<g>
				<path class="st12" d="M112.2,168.6l-1,1c-0.3,0.4-0.5,0.8-0.5,1.3c0,0.5,0.2,0.9,0.5,1.2l6.7,6.7l-6.7,6.7
					c-0.3,0.3-0.5,0.8-0.5,1.2c0,0.5,0.2,0.9,0.5,1.3l1,1c0.4,0.4,0.8,0.5,1.3,0.5c0.5,0,0.9-0.2,1.2-0.5l9-9
					c0.4-0.3,0.5-0.7,0.5-1.2c0-0.5-0.2-0.9-0.5-1.3l-9-9c-0.3-0.3-0.8-0.5-1.2-0.5C112.9,168.1,112.5,168.3,112.2,168.6
					L112.2,168.6z M112.2,168.6"/>
			</g>
		</g>
	</g>
</g>
</svg>
