<?xml version="1.0" encoding="utf-8"?>
<!-- Generator: Adobe Illustrator 19.1.0, SVG Export Plug-In . SVG Version: 6.00 Build 0)  -->
<svg version="1.1" id="Layer_1" xmlns="http://www.w3.org/2000/svg" xmlns:xlink="http://www.w3.org/1999/xlink" x="0px" y="0px"
	 viewBox="0 0 262 235.8" style="enable-background:new 0 0 262 235.8;" xml:space="preserve">
<style type="text/css">
	.st0{fill:#8BC53F;}
	.st1{fill:#ECEEEE;}
	.st2{fill:#767676;}
	.st3{font-family:'Univers-Black';}
	.st4{font-size:12px;}
	.st5{fill:none;}
	.st6{fill:#231F20;}
	.st7{font-family:'Serifa-Roman';}
	.st8{font-size:11px;}
	.st9{font-family:'Univers-Condensed';}
	.st10{font-size:11.6521px;}
	.st11{fill:#39A5E1;}
	.st12{fill:#EBEDED;}
	.st13{fill:#39A6E2;}
	.st14{fill:#FFFFFF;}
</style>
<g>
	<g>
		<polygon class="st0" points="173.5,29.3 57.8,29.3 35.6,69.3 195.8,69.3 		"/>
		<polygon class="st1" points="195.8,69.3 35.6,69.3 0,133.3 57,235.8 174.4,235.8 231.3,133.3 		"/>
	</g>
	<path class="st1" d="M119.6,37.1c-1.3,0-2.9,1.1-3.5,2.8c-0.1,0-0.2,0-0.4,0c-0.1,0-0.2,0-0.4,0c-0.5-1.7-2.3-2.8-3.7-2.8
		c-1.3,0-2.2,0.8-2.4,2.2c-0.1,0.4,0.2,0.7,0.6,0.8c0.4,0.1,0.7-0.2,0.8-0.6c0.1-0.7,0.5-1,1.1-1c0.9,0,2.1,0.8,2.4,2
		c-0.2,0.1-0.4,0.3-0.5,0.4c-0.8,0.8-1.3,1.8-1.5,2.4l-0.1,0.1c-0.3,0.6-0.5,1.1-0.7,1.6c-1.2,0.7-2.5,1.6-3.5,2.5
		c-1.2,1.2-1.8,2.4-1.8,3.5c0,1,0.5,1.9,1.4,2.7c0.9,0.8,1.9,1.1,2.8,0.8c0.1,0.3,0.2,0.6,0.3,0.9c1.4,3.7,4.5,5,4.6,5l0.2,0.1
		l0.3-0.1c0.1,0,1.4-0.5,2.8-1.9c1-1,1.9-2.3,2.5-4c0,0,0,0,0.1,0c0.7,0.2,1.8,0.3,3-0.7c0.1-0.1,0.2-0.2,0.3-0.3
		c1-1,1.3-2.1,1.1-3.3c-0.5-2-2.7-3.8-4.9-5.1c-0.2-0.7-0.5-1.4-0.9-2.2c-0.6-1.4-1.4-2.2-2.1-2.6c0.3-1.1,1.4-1.9,2.2-1.9
		c0.5,0,0.8,0.4,0.9,1c0,0.4,0.4,0.6,0.8,0.6c0.2,0,0.3-0.1,0.4-0.2c0.1-0.1,0.2-0.4,0.2-0.6C121.6,37.8,120.5,37.2,119.6,37.1z
		 M123.9,50.6c0.2,0.8-0.1,1.5-0.9,2.2c-0.8,0.7-1.3,0.6-1.7,0.5c0,0-0.1,0-0.1-0.1c-0.4-0.2-0.8-0.5-1.2-1
		c-0.3-0.3-0.5-0.7-0.8-1.1c-0.4-0.7-0.8-1.5-1.1-2.3c-0.3-0.6-0.5-1.2-0.7-1.8c-0.3-0.8-0.5-1.6-0.7-2.2l0.1,0
		c1.2,0.5,2.8,1.4,4.2,2.3C122.4,48.2,123.6,49.5,123.9,50.6z M108.3,52.7c-0.6-0.5-0.9-1.1-0.9-1.7c0-0.8,0.4-1.6,1.4-2.5
		c0.5-0.5,1.1-1,1.8-1.5c1.4-1,3-1.7,4.2-2.2l0,0c-0.2,0.6-0.4,1.4-0.7,2.2c-0.2,0.6-0.5,1.2-0.7,1.8c-0.3,0.8-0.7,1.6-1.2,2.2
		c-0.3,0.5-0.6,0.9-0.9,1.2c-0.1,0.1-0.1,0.2-0.2,0.2c-0.4,0.4-0.7,0.6-1,0.7C109.4,53.4,108.9,53.2,108.3,52.7z M115.4,47.1l0.5,0
		c0.2,0.6,0.4,1.2,0.7,1.8l-1.9,0C115,48.2,115.2,47.6,115.4,47.1z M113.7,51.1l4,0c0.4,0.7,0.7,1.3,1.2,1.8l-6.3-0.1
		C112.9,52.3,113.3,51.7,113.7,51.1z M118.1,56.9l-5.2,0c-0.4-0.5-0.7-1.1-1-1.8l7.4,0.1C118.9,55.8,118.5,56.4,118.1,56.9z
		 M118.2,43.5c0.1,0.2,0.2,0.4,0.3,0.6c-1-0.5-1.8-0.8-2.4-1c-0.1-0.1-0.2-0.1-0.4-0.1c-0.1,0-0.3,0-0.4,0.1
		c-0.6,0.2-1.4,0.5-2.2,0.9c0,0,0-0.1,0-0.1l0.1-0.1c0.3-0.5,0.7-1.4,1.3-2c0.4-0.4,0.8-0.6,1.2-0.6C116.7,41.2,117.5,42,118.2,43.5
		z"/>
	<text transform="matrix(1 0 0 1 39.2256 94.6655)" class="st2 st3 st4">Adobe Illustrator Basics</text>
	<rect x="23.3" y="107.2" class="st5" width="180.6" height="51.1"/>
	<text transform="matrix(1 0 0 1 36.5776 116.2583)"><tspan x="0" y="0" class="st6 st7 st8">Illustrator is a vector drawing </tspan><tspan x="-8.6" y="13.2" class="st6 st7 st8">program. It is often used to draw </tspan><tspan x="-7.9" y="26.4" class="st6 st7 st8">illustrations, cartoons, diagrams, </tspan><tspan x="32.7" y="39.6" class="st6 st7 st8">charts and logos.</tspan></text>
	<g>
		<path class="st0" d="M63.1,190.1c-6.4,0-11.6-5.2-11.6-11.6s5.2-11.6,11.6-11.6s11.6,5.2,11.6,11.6S69.5,190.1,63.1,190.1z
			 M63.1,169.4c-5,0-9.1,4.1-9.1,9.1s4.1,9.1,9.1,9.1c5,0,9.1-4.1,9.1-9.1S68.1,169.4,63.1,169.4z"/>
		<g>
			<path class="st0" d="M61.2,173.7c0-1,0.9-1.9,1.9-1.9c1.1,0,1.9,0.8,1.9,1.9c0,1.1-0.8,1.9-1.9,1.9
				C62,175.6,61.2,174.7,61.2,173.7z M61.4,185.3v-8.9h3.3v8.9H61.4z"/>
		</g>
	</g>
	<text transform="matrix(1 0 0 1 145.52 182.0893)" class="st0 st9 st10">2 hours</text>
	<g>
		<path class="st11" d="M122.7,190.1h-14.2c-1.5,0-2.8,0.8-3.5,2.1l-7.2,13c-0.7,1.2-0.7,2.7,0,3.9l7.1,12.8c0.7,1.3,2,2.1,3.5,2.1
			h14.4c1.5,0,2.8-0.8,3.5-2.1l7.1-12.8c0.7-1.2,0.7-2.7,0-3.9l-7.2-13C125.5,190.9,124.2,190.1,122.7,190.1z"/>
		<g>
			<g>
				<path class="st12" d="M112.2,196.8l-1,1c-0.3,0.4-0.5,0.8-0.5,1.3c0,0.5,0.2,0.9,0.5,1.2l6.7,6.7l-6.7,6.7
					c-0.3,0.3-0.5,0.8-0.5,1.2c0,0.5,0.2,0.9,0.5,1.3l1,1c0.4,0.4,0.8,0.5,1.3,0.5c0.5,0,0.9-0.2,1.2-0.5l9-9
					c0.4-0.3,0.5-0.7,0.5-1.2c0-0.5-0.2-0.9-0.5-1.3l-9-9c-0.3-0.3-0.8-0.5-1.2-0.5C112.9,196.3,112.5,196.5,112.2,196.8
					L112.2,196.8z M112.2,196.8"/>
			</g>
		</g>
	</g>
</g>
<g>
	<g>
		<path class="st13" d="M62,35.5L62,35.5c-1.9,0-3.5-1.6-3.5-3.5v-3.1h7V32C65.5,33.9,64,35.5,62,35.5z"/>
		<path class="st13" d="M100.3,35.5L100.3,35.5c-1.9,0-3.5-1.6-3.5-3.5v-3.1h7V32C103.8,33.9,102.2,35.5,100.3,35.5z"/>
		<g>
			<path class="st13" d="M86.8,4.7c-1-2.1-3.1-3.6-5.5-3.6c-2.5,0-4.6,1.5-5.6,3.6l-9.9,2.5v2.3h30.5V7.3v0L86.8,4.7z"/>
		</g>
		<circle class="st13" cx="99.7" cy="15" r="1"/>
		<circle class="st13" cx="101.7" cy="21.6" r="1"/>
		<circle class="st13" cx="100" cy="5.4" r="1"/>
		<circle class="st13" cx="90.4" cy="2.2" r="1"/>
		<circle class="st13" cx="64.6" cy="16.5" r="1"/>
		<circle class="st13" cx="60.8" cy="12.6" r="1"/>
		<circle class="st13" cx="64.3" cy="5.4" r="1"/>
		<path class="st13" d="M97.2,25.4c0-0.2,0-0.5-0.1-0.7C97,24.5,97,24.2,96.9,24c-0.1-0.2-0.1-0.5-0.2-0.8c-0.1-0.3-0.3-0.6-0.5-0.8
			c-0.3-0.5-0.7-0.9-1.1-1.3c-0.4-0.4-0.9-0.7-1.5-0.9c-0.5-0.2-0.9-0.4-1.2-0.4v-8.6h-1.5v11.1c-0.9,1.3-2.1,2.5-3.6,3.3V11.1H87
			H86h-9.7h-0.6h-0.9v14.1c-1.4-0.9-2.7-2.2-3.6-3.7V11.1h-1.5v8.7c-0.1,0-0.2,0.1-0.4,0.2c-0.3,0.1-0.5,0.2-0.8,0.4
			c-0.7,0.4-1.3,1-1.9,1.6c-0.1,0.2-0.3,0.3-0.4,0.5c-0.2,0.6-0.6,1.1-0.7,1.7c-0.1,0.3-0.1,0.7-0.1,1c0,1.5,0,2.9,0,4.4h31.9
			C97.2,28.1,97.2,26.8,97.2,25.4z M85.8,26.2c-1.4,0.6-3,0.9-4.6,0.9c-1.8,0-3.6-0.4-5-1.1V15c0.9,1.8,2.9,3,5,3
			c1.9,0,3.6-0.9,4.6-2.3V26.2z"/>
	</g>
	<g>
		<polygon class="st13" points="115.6,0 115.6,6.6 107.1,10.3 115.6,14 115.6,19.5 126,19.5 135.9,19.5 262,19.5 262,0 		"/>
		<text transform="matrix(1 0 0 1 122.8227 14.436)" class="st14 st9 st4">BEEKEEPER RECOMMENDS</text>
	</g>
</g>
</svg>
