<?xml version="1.0" encoding="utf-8"?>
<!-- Generator: Adobe Illustrator 15.0.0, SVG Export Plug-In  -->
<!DOCTYPE svg PUBLIC "-//W3C//DTD SVG 1.1//EN" "http://www.w3.org/Graphics/SVG/1.1/DTD/svg11.dtd" [
	<!ENTITY ns_flows "http://ns.adobe.com/Flows/1.0/">
]>
<svg version="1.1"
	 xmlns="http://www.w3.org/2000/svg" xmlns:xlink="http://www.w3.org/1999/xlink" xmlns:a="http://ns.adobe.com/AdobeSVGViewerExtensions/3.0/"
	 x="0px" y="0px" width="37px" height="35px" viewBox="-0.261 -0.995 37 35" enable-background="new -0.261 -0.995 37 35"
	 xml:space="preserve">
<defs>
</defs>
<path fill="#3EA4DC" d="M25.378,0H11.212C9.759,0,8.42,0.788,7.715,2.06l-7.213,13c-0.67,1.207-0.67,2.674-0.001,3.881l7.074,12.758
	c0.705,1.271,2.044,2.061,3.498,2.061h14.443c1.454,0,2.793-0.789,3.498-2.061l7.074-12.758c0.669-1.207,0.669-2.674-0.001-3.881
	l-7.213-13C28.17,0.788,26.832,0,25.378,0z"/>
<g>
	<g>
		<path fill="#EBECED" d="M14.789,6.714L13.752,7.75c-0.341,0.359-0.512,0.778-0.512,1.257c0,0.489,0.171,0.903,0.512,1.244
			l6.715,6.716l-6.715,6.714c-0.341,0.342-0.512,0.756-0.512,1.244c0,0.479,0.171,0.897,0.512,1.257l1.036,1.022
			c0.351,0.351,0.77,0.525,1.257,0.525c0.498,0,0.913-0.176,1.244-0.525l8.994-8.994c0.351-0.332,0.524-0.746,0.524-1.243
			c0-0.489-0.174-0.908-0.524-1.257L17.29,6.714c-0.341-0.34-0.755-0.511-1.244-0.511C15.567,6.203,15.148,6.374,14.789,6.714
			L14.789,6.714z M14.789,6.714"/>
	</g>
</g>
</svg>
