<?xml version="1.0" encoding="utf-8"?>
<!-- Generator: Adobe Illustrator 19.1.0, SVG Export Plug-In . SVG Version: 6.00 Build 0)  -->
<svg version="1.1" id="Layer_1" xmlns="http://www.w3.org/2000/svg" xmlns:xlink="http://www.w3.org/1999/xlink" x="0px" y="0px"
	 viewBox="-403 223.9 152.2 114.1" style="enable-background:new -403 223.9 152.2 114.1;" xml:space="preserve">
<style type="text/css">
	.st0{fill:#E67824;}
	.st1{fill:none;}
	.st2{enable-background:new    ;}
	.st3{fill:#EDEFEF;}
</style>
<rect x="-403" y="223.9" class="st0" width="152.2" height="114.1"/>
<rect x="-384.3" y="234.9" class="st1" width="114.7" height="73"/>
<g class="st2">
	<path class="st3" d="M-351.7,252.1l5.7-14.4h4.9l5.7,14.4h-4.5l-1-2.8h-5.9l-0.9,2.8H-351.7z M-341.9,246.5l-1.8-6h-0.1l-2,6
		H-341.9z"/>
	<path class="st3" d="M-327.8,237.7c5,0,8.2,1.9,8.2,7.2s-3.3,7.2-8.2,7.2h-6.1v-14.4H-327.8z M-329.9,249.3h1.9
		c2.2,0,4.2-1.4,4.2-4.4s-2.1-4.4-4.2-4.4h-1.9V249.3z"/>
	<path class="st3" d="M-311.1,237.7c5,0,8.2,1.9,8.2,7.2s-3.3,7.2-8.2,7.2h-6.1v-14.4H-311.1z M-313.2,249.3h1.9
		c2.2,0,4.2-1.4,4.2-4.4s-2.1-4.4-4.2-4.4h-1.9V249.3z"/>
</g>
<g class="st2">
	<path class="st3" d="M-352.9,268.8l-5.5-9.2h4.6l3.2,6.1l3.3-6.1h4.1l-5.7,9.2v5.3h-4V268.8z"/>
	<path class="st3" d="M-342.2,266.9c0-4.8,2.7-7.5,7.5-7.5c4.8,0,7.5,2.8,7.5,7.5s-2.7,7.5-7.5,7.5
		C-339.5,274.4-342.2,271.6-342.2,266.9z M-334.7,262.2c-2.7,0-3.3,2.5-3.3,4.8c0,2.1,0.6,4.7,3.3,4.7s3.3-2.5,3.3-4.7
		C-331.4,264.7-332,262.2-334.7,262.2z"/>
	<path class="st3" d="M-311.1,259.7v9.1c0,4-3.3,5.6-6.9,5.6s-6.9-1.6-6.9-5.6v-9.1h4v8.9c0.1,1.8,1,3,2.9,3c1.9,0,2.8-1.2,2.9-3
		v-8.9H-311.1z"/>
	<path class="st3" d="M-304.4,274.1h-4v-14.4h6.7c2.4,0,5.6,0.7,5.6,3.7c0,2.2-1.7,3.3-3.7,3.5v0.1c2.6,0.1,3,1.4,3.3,3.6
		c0.1,1.2,0.3,2.3,0.7,3.5h-4.3c-0.2-1-0.3-2-0.4-3.1c-0.2-1.7-0.2-2.5-2.3-2.5h-1.5V274.1z M-302.9,265.8c1.3,0,2.5-0.2,2.5-1.7
		s-1.2-1.7-2.5-1.7h-1.6v3.3H-302.9z"/>
</g>
<g class="st2">
	<path class="st3" d="M-375.4,296.1v-14.4h6.6c3.5,0,5.9,1.1,5.9,4.6c0,3.5-2.3,4.6-5.9,4.6h-2.6v5.2H-375.4z M-369.4,288.1
		c1.6-0.1,2.2-0.8,2.2-1.8c0-1.1-0.7-1.8-2.2-1.8h-2.1v3.7H-369.4z"/>
	<path class="st3" d="M-357.2,296.1h-4v-14.4h6.7c2.4,0,5.6,0.7,5.6,3.7c0,2.2-1.7,3.3-3.7,3.5v0.1c2.6,0.1,3,1.4,3.3,3.6
		c0.1,1.2,0.3,2.3,0.7,3.5h-4.3c-0.2-1-0.3-2-0.4-3.1c-0.2-1.7-0.2-2.5-2.3-2.5h-1.5V296.1z M-355.6,287.8c1.3,0,2.5-0.2,2.5-1.7
		s-1.2-1.7-2.5-1.7h-1.6v3.3H-355.6z"/>
	<path class="st3" d="M-347.2,288.9c0-4.8,2.7-7.5,7.5-7.5c4.8,0,7.5,2.8,7.5,7.5s-2.7,7.5-7.5,7.5
		C-344.5,296.4-347.2,293.6-347.2,288.9z M-339.7,284.2c-2.7,0-3.3,2.5-3.3,4.8c0,2.1,0.6,4.7,3.3,4.7s3.3-2.5,3.3-4.7
		C-336.4,286.7-337,284.2-339.7,284.2z"/>
	<path class="st3" d="M-324.5,281.7h4v10.1c0,3.4-2.8,4.6-5.5,4.6c-3.3,0-5.5-1.4-5.3-4.9h4c0,0.9,0.2,2.1,1.3,2.1
		c1.6,0,1.5-1.9,1.5-2.2V281.7z"/>
	<path class="st3" d="M-317.8,296.1v-14.4h11v2.8h-7v3h6.4v2.8h-6.4v3.1h7v2.8H-317.8z"/>
	<path class="st3" d="M-295.3,286.2c-0.1-1.3-1.1-2-2.7-2c-2.3,0-2.7,2.7-2.7,4.9c0,2.1,0.5,4.6,2.7,4.6c1.7,0,2.6-0.7,2.7-2.1h4.2
		c0.1,3.6-3.4,4.9-6.9,4.9c-4.5,0-6.9-2.7-6.9-7.5c0-4.8,2.4-7.5,6.9-7.5c3.5,0,7,1.2,6.9,4.8H-295.3z"/>
	<path class="st3" d="M-285.6,284.5h-4.4v-2.8h12.9v2.8h-4.5v11.6h-4V284.5z"/>
</g>
<path class="st3" d="M-321.4,303.9h-11c-1.1,0-2.1,0.6-2.6,1.5l-5.6,10.1c-0.5,0.9-0.5,2,0,2.9l5.5,9.9c0.5,0.9,1.5,1.5,2.6,1.5
	h11.3c1.1,0,2.1-0.6,2.6-1.5l5.5-9.9c0.5-0.9,0.5-2,0-2.9l-5.6-10.1C-319.3,304.5-320.3,303.9-321.4,303.9z"/>
<g>
	<g class="st2">
		<path class="st0" d="M-328.1,311.8h2.4v3.8h3.8v2.4h-3.8v3.8h-2.4V318h-3.8v-2.4h3.8V311.8z"/>
	</g>
</g>
</svg>
