<?xml version="1.0" encoding="utf-8"?>
<!-- Generator: Adobe Illustrator 19.1.0, SVG Export Plug-In . SVG Version: 6.00 Build 0)  -->
<svg version="1.1" id="Layer_1" xmlns="http://www.w3.org/2000/svg" xmlns:xlink="http://www.w3.org/1999/xlink" x="0px" y="0px"
	 viewBox="0 0 152.2 114.1" style="enable-background:new 0 0 152.2 114.1;" xml:space="preserve">
<style type="text/css">
	.st0{fill:#E67824;}
	.st1{fill:none;}
	.st2{fill:#EDEFEF;}
	.st3{font-family:'Univers-Black';}
	.st4{font-size:20px;}
</style>
<rect class="st0" width="152.2" height="114.1"/>
<rect x="18.7" y="11" class="st1" width="114.7" height="73"/>
<text transform="matrix(1 0 0 1 51.1003 28.2073)"><tspan x="0" y="0" class="st2 st3 st4">ADD </tspan><tspan x="-6.7" y="22" class="st2 st3 st4">YOUR </tspan><tspan x="-25" y="44" class="st2 st3 st4">PROJECT</tspan></text>
<path class="st2" d="M81.6,80H70.6c-1.1,0-2.1,0.6-2.6,1.5l-5.6,10.1c-0.5,0.9-0.5,2,0,2.9l5.5,9.9c0.5,0.9,1.5,1.5,2.6,1.5h11.3
	c1.1,0,2.1-0.6,2.6-1.5l5.5-9.9c0.5-0.9,0.5-2,0-2.9l-5.6-10.1C83.7,80.6,82.7,80,81.6,80z"/>
<g>
	<text transform="matrix(1 0 0 1 69.4905 97.9306)" class="st0 st3 st4">+</text>
</g>
</svg>
