<?xml version="1.0" encoding="utf-8"?>
<!-- Generator: Adobe Illustrator 19.1.0, SVG Export Plug-In . SVG Version: 6.00 Build 0)  -->
<svg version="1.1" id="Layer_1" xmlns="http://www.w3.org/2000/svg" xmlns:xlink="http://www.w3.org/1999/xlink" x="0px" y="0px"
	 viewBox="0 0 23 22.4" style="enable-background:new 0 0 23 22.4;" xml:space="preserve">
<style type="text/css">
	.st0{fill:#ECEEEE;}
</style>
<g>
	<g>
		<path class="st0" d="M5.3,22.4c-0.2,0-0.4,0-0.5-0.1c-0.4-0.2-0.6-0.6-0.6-1l0-3.3H2.3C1,18,0,16.9,0,15.7V2.3C0,1,1,0,2.3,0h18.5
			C22,0,23,1,23,2.3v13.4c0,1.2-1,2.3-2.3,2.3h-8.5l-6.3,4.2C5.7,22.3,5.5,22.4,5.3,22.4z M5.3,15.7c0.3,0,0.6,0.1,0.8,0.3
			c0.2,0.2,0.3,0.5,0.3,0.8l0,2.3l4.9-3.2c0.2-0.1,0.4-0.2,0.6-0.2h8.9l0-13.4l-18.5,0l0,13.4L5.3,15.7z"/>
		<g>
			<path class="st0" d="M8.1,9c0,0.9-0.8,1.7-1.7,1.7S4.7,9.9,4.7,9c0-0.9,0.8-1.7,1.7-1.7S8.1,8,8.1,9z"/>
			<path class="st0" d="M13.2,9c0,0.9-0.8,1.7-1.7,1.7c-0.9,0-1.7-0.8-1.7-1.7c0-0.9,0.8-1.7,1.7-1.7C12.4,7.3,13.2,8,13.2,9z"/>
			<path class="st0" d="M18.3,9c0,0.9-0.8,1.7-1.7,1.7c-0.9,0-1.7-0.8-1.7-1.7c0-0.9,0.8-1.7,1.7-1.7C17.5,7.3,18.3,8,18.3,9z"/>
		</g>
	</g>
</g>
</svg>
